v -100.000000 -100.000000 100.000000
v 100.000000 -100.000000 100.000000
v 100.000000 -100.000000 -100.000000
v -100.000000 -100.000000 -100.000000

v -100.000000 100.000000 -100.000000
v 100.000000 100.000000 -100.000000
v 100.000000 100.000000 100.000000
v -100.000000 100.000000 100.000000

v -100.000000 -100.000000 -100.000000
v 100.000000 -100.000000 -100.000000
v 100.000000 100.000000 -100.000000
v -100.000000 100.000000 -100.000000

v 100.000000 -100.000000 100.000000
v -100.000000 -100.000000 100.000000
v -100.000000 100.000000 100.000000
v 100.000000 100.000000 100.000000

v -100.000000 -100.000000 100.000000
v -100.000000 -100.000000 -100.000000
v -100.000000 100.000000 -100.000000
v -100.000000 100.000000 100.000000

v 100.000000 -100.000000 -100.000000
v 100.000000 -100.000000 100.000000
v 100.000000 100.000000 100.000000
v 100.000000 100.000000 -100.000000

vt 0.250000 0.000000
vt 0.500000 0.000000
vt 0.500000 0.333333
vt 0.250000 0.333333

vt 0.250000 0.666666
vt 0.500000 0.666666
vt 0.500000 1.000000
vt 0.250000 1.000000

vt 0.250000 0.333333
vt 0.500000 0.333333
vt 0.500000 0.666666
vt 0.250000 0.666666

vt 0.750000 0.333333
vt 1.000000 0.333333
vt 1.000000 0.666666
vt 0.750000 0.666666

vt 0.000000 0.333333
vt 0.250000 0.333333
vt 0.250000 0.666666
vt 0.000000 0.666666

vt 0.500000 0.333333
vt 0.750000 0.333333
vt 0.750000 0.666666
vt 0.500000 0.666666

vn 0.0000 0.0000 -1.0000
vn 0.0000 0.0000 1.0000
vn 1.0000 0.0000 0.0000
vn -1.0000 0.0000 0.0000
vn 0.0000 1.0000 0.0000
vn 0.0000 -1.0000 0.0000

f 1/1/5 2/2/5 3/3/5
f 3/3/5 4/4/5 1/1/5
f 5/5/6 6/6/6 7/7/6
f 7/7/6 8/8/6 5/5/6
f 9/9/2 10/10/2 11/11/2
f 11/11/2 12/12/2 9/9/2
f 13/13/1 14/14/1 15/15/1
f 15/15/1 16/16/1 13/13/1
f 17/17/3 18/18/3 19/19/3
f 19/19/3 20/20/3 17/17/3
f 21/21/4 22/22/4 23/23/4
f 23/23/4 24/24/4 21/21/4
