texture textures/cars.png
v 0.315147 0.307580 0.552620
v 0.431742 0.307580 0.552620
v 0.315147 0.248859 0.471798
v 0.431742 0.248859 0.471798
v 0.315147 0.153846 0.440926
v 0.431742 0.153846 0.440926
v 0.315147 0.058833 0.471798
v 0.431742 0.058833 0.471798
v 0.315147 0.000112 0.552620
v 0.431742 0.000112 0.552620
v 0.315147 0.000112 0.652523
v 0.431742 0.000112 0.652523
v 0.315147 0.058833 0.733346
v 0.431742 0.058833 0.733346
v 0.315147 0.153846 0.764217
v 0.431742 0.153846 0.764217
v 0.315147 0.248859 0.733346
v 0.431742 0.248859 0.733346
v 0.315147 0.307580 0.652523
v 0.431742 0.307580 0.652523
vt 0.612156 0.971647
vt 0.524372 0.959848
vt 0.524372 0.971647
vt 0.612156 0.959848
vt 0.524372 0.940757
vt 0.612156 0.940757
vt 0.524372 0.921665
vt 0.612156 0.921665
vt 0.524372 0.909866
vt 0.612156 0.909866
vt 0.524372 0.909866
vt 0.612156 0.909866
vt 0.524372 0.921665
vt 0.612156 0.921665
vt 0.524372 0.940757
vt 0.612156 0.940757
vt 0.524372 0.959848
vt 0.612156 0.959848
vt 0.524372 0.971647
vt 0.612156 0.971647
vt 0.516159 0.888320
vt 0.519896 0.891662
vt 0.518469 0.897068
vt 0.250082 0.022727
vt 0.383670 0.433867
vt 0.116495 0.433868
vt 0.516159 0.897992
vt 0.513849 0.897068
vt 0.512421 0.894650
vt 0.512421 0.891662
vt 0.513849 0.889244
vt 0.518469 0.889244
vt 0.519896 0.894650
vt 0.033933 0.320231
vt 0.033933 0.179769
vt 0.116495 0.066133
vt 0.383670 0.066133
vt 0.466232 0.179769
vt 0.466232 0.320231
vt 0.250082 0.477273
vn 0.0000 0.9511 -0.3090
vn 0.0000 0.5878 -0.8090
vn 0.0000 0.0000 -1.0000
vn 0.0000 -0.5878 -0.8090
vn 0.0000 -0.9511 -0.3090
vn 0.0000 -0.9511 0.3090
vn 0.0000 -0.5878 0.8090
vn 0.0000 -0.0000 1.0000
vn 0.0000 0.5878 0.8090
vn 0.0000 0.9511 0.3090
vn -1.0000 0.0000 0.0000
vn 1.0000 -0.0000 0.0000
s 1
f 2/1/1 3/2/2 1/3/1
f 4/4/2 5/5/3 3/2/2
f 6/6/3 7/7/4 5/5/3
f 8/8/4 9/9/5 7/7/4
f 10/10/5 11/11/6 9/9/5
f 12/12/6 13/13/7 11/11/6
f 14/14/7 15/15/8 13/13/7
f 16/16/8 17/17/9 15/15/8
f 18/18/9 19/19/10 17/17/9
f 20/20/10 1/3/1 19/19/10
f 11/21/11 15/22/11 19/23/11
f 18/24/12 10/25/12 6/26/12
f 2/1/1 4/4/2 3/2/2
f 4/4/2 6/6/3 5/5/3
f 6/6/3 8/8/4 7/7/4
f 8/8/4 10/10/5 9/9/5
f 10/10/5 12/12/6 11/11/6
f 12/12/6 14/14/7 13/13/7
f 14/14/7 16/16/8 15/15/8
f 16/16/8 18/18/9 17/17/9
f 18/18/9 20/20/10 19/19/10
f 20/20/10 2/1/1 1/3/1
f 19/23/11 1/27/11 3/28/11
f 3/28/11 5/29/11 7/30/11
f 7/30/11 9/31/11 11/21/11
f 11/21/11 13/32/11 15/22/11
f 15/22/11 17/33/11 19/23/11
f 19/23/11 3/28/11 7/30/11
f 7/30/11 11/21/11 19/23/11
f 6/26/12 4/34/12 2/35/12
f 2/35/12 20/36/12 18/24/12
f 18/24/12 16/37/12 10/25/12
f 14/38/12 12/39/12 10/25/12
f 10/25/12 8/40/12 6/26/12
f 6/26/12 2/35/12 18/24/12
f 16/37/12 14/38/12 10/25/12
o RLW_Cylinder.005
v 0.315147 0.307580 -0.451398
v 0.431742 0.307580 -0.451398
v 0.315147 0.248859 -0.532220
v 0.431742 0.248859 -0.532220
v 0.315147 0.153846 -0.563092
v 0.431742 0.153846 -0.563092
v 0.315147 0.058833 -0.532220
v 0.431742 0.058833 -0.532220
v 0.315147 0.000112 -0.451398
v 0.431742 0.000112 -0.451398
v 0.315147 0.000112 -0.351495
v 0.431742 0.000112 -0.351495
v 0.315147 0.058833 -0.270672
v 0.431742 0.058833 -0.270672
v 0.315147 0.153846 -0.239801
v 0.431742 0.153846 -0.239801
v 0.315147 0.248859 -0.270672
v 0.431742 0.248859 -0.270672
v 0.315147 0.307580 -0.351495
v 0.431742 0.307580 -0.351495
vt 0.612156 0.971647
vt 0.524372 0.959848
vt 0.524372 0.971647
vt 0.612156 0.940757
vt 0.524372 0.940757
vt 0.524372 0.921665
vt 0.612156 0.921665
vt 0.524372 0.909866
vt 0.612156 0.909866
vt 0.524372 0.909866
vt 0.524372 0.921665
vt 0.612156 0.921665
vt 0.524372 0.940757
vt 0.612156 0.940757
vt 0.524372 0.959848
vt 0.612156 0.959848
vt 0.524372 0.971647
vt 0.612156 0.971647
vt 0.516159 0.888320
vt 0.519896 0.891662
vt 0.518469 0.897068
vt 0.250082 0.022727
vt 0.383670 0.433867
vt 0.116495 0.433868
vt 0.612156 0.959848
vt 0.612156 0.909866
vt 0.516159 0.897992
vt 0.513849 0.897068
vt 0.512421 0.894650
vt 0.512421 0.891662
vt 0.513849 0.889244
vt 0.518469 0.889244
vt 0.519896 0.894650
vt 0.033933 0.320231
vt 0.033933 0.179769
vt 0.116495 0.066133
vt 0.383670 0.066133
vt 0.466232 0.179769
vt 0.466232 0.320231
vt 0.250082 0.477273
vn 0.0000 0.9511 -0.3090
vn 0.0000 0.5878 -0.8090
vn 0.0000 -0.0000 -1.0000
vn 0.0000 -0.5878 -0.8090
vn -0.0000 -0.9511 -0.3090
vn -0.0000 -0.9511 0.3090
vn 0.0000 -0.5878 0.8090
vn 0.0000 -0.0000 1.0000
vn 0.0000 0.5878 0.8090
vn 0.0000 0.9511 0.3090
vn -1.0000 0.0000 0.0000
vn 1.0000 0.0000 0.0000
s 1
f 22/41/13 23/42/14 21/43/13
f 23/42/14 26/44/15 25/45/15
f 26/44/15 27/46/16 25/45/15
f 28/47/16 29/48/17 27/46/16
f 29/48/17 32/49/18 31/50/18
f 32/49/18 33/51/19 31/50/18
f 34/52/19 35/53/20 33/51/19
f 36/54/20 37/55/21 35/53/20
f 38/56/21 39/57/22 37/55/21
f 40/58/22 21/43/13 39/57/22
f 31/59/23 35/60/23 39/61/23
f 38/62/24 30/63/24 26/64/24
f 22/41/13 24/65/14 23/42/14
f 23/42/14 24/65/14 26/44/15
f 26/44/15 28/47/16 27/46/16
f 28/47/16 30/66/17 29/48/17
f 29/48/17 30/66/17 32/49/18
f 32/49/18 34/52/19 33/51/19
f 34/52/19 36/54/20 35/53/20
f 36/54/20 38/56/21 37/55/21
f 38/56/21 40/58/22 39/57/22
f 40/58/22 22/41/13 21/43/13
f 39/61/23 21/67/23 23/68/23
f 23/68/23 25/69/23 27/70/23
f 27/70/23 29/71/23 31/59/23
f 31/59/23 33/72/23 35/60/23
f 35/60/23 37/73/23 39/61/23
f 39/61/23 23/68/23 27/70/23
f 27/70/23 31/59/23 39/61/23
f 26/64/24 24/74/24 22/75/24
f 22/75/24 40/76/24 38/62/24
f 38/62/24 36/77/24 30/63/24
f 34/78/24 32/79/24 30/63/24
f 30/63/24 28/80/24 26/64/24
f 26/64/24 22/75/24 38/62/24
f 36/77/24 34/78/24 30/63/24
o RRW_Cylinder.006
v -0.315147 0.307580 -0.351495
v -0.431742 0.307580 -0.351495
v -0.315147 0.248859 -0.270672
v -0.431742 0.248859 -0.270672
v -0.315147 0.153846 -0.239801
v -0.431742 0.153846 -0.239801
v -0.315147 0.058833 -0.270672
v -0.431742 0.058833 -0.270672
v -0.315147 0.000112 -0.351495
v -0.431742 0.000112 -0.351495
v -0.315147 0.000112 -0.451398
v -0.431742 0.000112 -0.451398
v -0.315147 0.058833 -0.532220
v -0.431742 0.058833 -0.532220
v -0.315147 0.153846 -0.563092
v -0.431742 0.153846 -0.563092
v -0.315147 0.248859 -0.532220
v -0.431742 0.248859 -0.532220
v -0.315147 0.307580 -0.451397
v -0.431742 0.307580 -0.451397
vt 0.612156 0.971647
vt 0.524372 0.959848
vt 0.524372 0.971647
vt 0.612156 0.940757
vt 0.524372 0.940757
vt 0.612156 0.921665
vt 0.524372 0.921665
vt 0.524372 0.909866
vt 0.612156 0.909866
vt 0.524372 0.909866
vt 0.612156 0.909866
vt 0.524372 0.921665
vt 0.612156 0.921665
vt 0.524372 0.940757
vt 0.612156 0.940757
vt 0.524372 0.959848
vt 0.612156 0.959848
vt 0.524372 0.971647
vt 0.612156 0.971647
vt 0.516159 0.888320
vt 0.519896 0.891662
vt 0.518469 0.897068
vt 0.250082 0.022727
vt 0.383670 0.433867
vt 0.116495 0.433868
vt 0.612156 0.959848
vt 0.516159 0.897992
vt 0.513849 0.897068
vt 0.512421 0.894650
vt 0.512421 0.891662
vt 0.513849 0.889244
vt 0.518469 0.889244
vt 0.519896 0.894650
vt 0.033933 0.320231
vt 0.033933 0.179769
vt 0.116495 0.066133
vt 0.383670 0.066133
vt 0.466232 0.179769
vt 0.466232 0.320231
vt 0.250082 0.477273
vn 0.0000 0.9511 0.3090
vn 0.0000 0.5878 0.8090
vn 0.0000 -0.0000 1.0000
vn 0.0000 -0.5878 0.8090
vn 0.0000 -0.9511 0.3090
vn 0.0000 -0.9511 -0.3090
vn 0.0000 -0.5878 -0.8090
vn 0.0000 0.0000 -1.0000
vn 0.0000 0.5878 -0.8090
vn 0.0000 0.9511 -0.3090
vn 1.0000 -0.0000 0.0000
vn -1.0000 0.0000 0.0000
s 1
f 42/81/25 43/82/26 41/83/25
f 43/82/26 46/84/27 45/85/27
f 45/85/27 48/86/28 47/87/28
f 48/86/28 49/88/29 47/87/28
f 50/89/29 51/90/30 49/88/29
f 52/91/30 53/92/31 51/90/30
f 54/93/31 55/94/32 53/92/31
f 56/95/32 57/96/33 55/94/32
f 58/97/33 59/98/34 57/96/33
f 60/99/34 41/83/25 59/98/34
f 51/100/35 55/101/35 59/102/35
f 58/103/36 50/104/36 46/105/36
f 42/81/25 44/106/26 43/82/26
f 43/82/26 44/106/26 46/84/27
f 45/85/27 46/84/27 48/86/28
f 48/86/28 50/89/29 49/88/29
f 50/89/29 52/91/30 51/90/30
f 52/91/30 54/93/31 53/92/31
f 54/93/31 56/95/32 55/94/32
f 56/95/32 58/97/33 57/96/33
f 58/97/33 60/99/34 59/98/34
f 60/99/34 42/81/25 41/83/25
f 59/102/35 41/107/35 43/108/35
f 43/108/35 45/109/35 47/110/35
f 47/110/35 49/111/35 51/100/35
f 51/100/35 53/112/35 55/101/35
f 55/101/35 57/113/35 59/102/35
f 59/102/35 43/108/35 47/110/35
f 47/110/35 51/100/35 59/102/35
f 46/105/36 44/114/36 42/115/36
f 42/115/36 60/116/36 58/103/36
f 58/103/36 56/117/36 50/104/36
f 54/118/36 52/119/36 50/104/36
f 50/104/36 48/120/36 46/105/36
f 46/105/36 42/115/36 58/103/36
f 56/117/36 54/118/36 50/104/36
o FRW_Cylinder.007
v -0.315147 0.307580 0.652523
v -0.431742 0.307580 0.652523
v -0.315147 0.248859 0.733345
v -0.431742 0.248859 0.733345
v -0.315147 0.153846 0.764217
v -0.431742 0.153846 0.764217
v -0.315147 0.058833 0.733345
v -0.431742 0.058833 0.733345
v -0.315147 0.000112 0.652523
v -0.431742 0.000112 0.652523
v -0.315147 0.000112 0.552620
v -0.431742 0.000112 0.552620
v -0.315147 0.058833 0.471797
v -0.431742 0.058833 0.471797
v -0.315147 0.153846 0.440926
v -0.431742 0.153846 0.440926
v -0.315147 0.248859 0.471798
v -0.431742 0.248859 0.471798
v -0.315147 0.307580 0.552620
v -0.431742 0.307580 0.552620
vt 0.612156 0.971647
vt 0.524372 0.959848
vt 0.524372 0.971647
vt 0.612156 0.940757
vt 0.524372 0.940757
vt 0.524372 0.921665
vt 0.612156 0.909866
vt 0.524372 0.909866
vt 0.524372 0.909866
vt 0.612156 0.909866
vt 0.524372 0.921665
vt 0.612156 0.921665
vt 0.524372 0.940757
vt 0.612156 0.940757
vt 0.524372 0.959848
vt 0.612156 0.959848
vt 0.524372 0.971647
vt 0.612156 0.971647
vt 0.516159 0.888320
vt 0.519896 0.891662
vt 0.518469 0.897068
vt 0.250082 0.022727
vt 0.383670 0.433867
vt 0.116495 0.433868
vt 0.612156 0.959848
vt 0.612156 0.921665
vt 0.516159 0.897992
vt 0.513849 0.897068
vt 0.512421 0.894650
vt 0.512421 0.891662
vt 0.513849 0.889244
vt 0.518469 0.889244
vt 0.519896 0.894650
vt 0.033933 0.320231
vt 0.033933 0.179769
vt 0.116495 0.066133
vt 0.383670 0.066133
vt 0.466232 0.179769
vt 0.466232 0.320231
vt 0.250082 0.477273
vn 0.0000 0.9511 0.3090
vn 0.0000 0.5878 0.8090
vn 0.0000 -0.0000 1.0000
vn 0.0000 -0.5878 0.8090
vn 0.0000 -0.9511 0.3090
vn 0.0000 -0.9511 -0.3090
vn 0.0000 -0.5878 -0.8090
vn 0.0000 0.0000 -1.0000
vn 0.0000 0.5878 -0.8090
vn 0.0000 0.9511 -0.3090
vn 1.0000 0.0000 0.0000
vn -1.0000 -0.0000 0.0000
s 1
f 62/121/37 63/122/38 61/123/37
f 63/122/38 66/124/39 65/125/39
f 66/124/39 67/126/40 65/125/39
f 67/126/40 70/127/41 69/128/41
f 70/127/41 71/129/42 69/128/41
f 72/130/42 73/131/43 71/129/42
f 74/132/43 75/133/44 73/131/43
f 76/134/44 77/135/45 75/133/44
f 78/136/45 79/137/46 77/135/45
f 80/138/46 61/123/37 79/137/46
f 71/139/47 75/140/47 79/141/47
f 78/142/48 70/143/48 66/144/48
f 62/121/37 64/145/38 63/122/38
f 63/122/38 64/145/38 66/124/39
f 66/124/39 68/146/40 67/126/40
f 67/126/40 68/146/40 70/127/41
f 70/127/41 72/130/42 71/129/42
f 72/130/42 74/132/43 73/131/43
f 74/132/43 76/134/44 75/133/44
f 76/134/44 78/136/45 77/135/45
f 78/136/45 80/138/46 79/137/46
f 80/138/46 62/121/37 61/123/37
f 79/141/47 61/147/47 63/148/47
f 63/148/47 65/149/47 67/150/47
f 67/150/47 69/151/47 71/139/47
f 71/139/47 73/152/47 75/140/47
f 75/140/47 77/153/47 79/141/47
f 79/141/47 63/148/47 67/150/47
f 67/150/47 71/139/47 79/141/47
f 66/144/48 64/154/48 62/155/48
f 62/155/48 80/156/48 78/142/48
f 78/142/48 76/157/48 70/143/48
f 74/158/48 72/159/48 70/143/48
f 70/143/48 68/160/48 66/144/48
f 66/144/48 62/155/48 78/142/48
f 76/157/48 74/158/48 70/143/48
o Body_Plane.002
v 0.358857 0.399355 0.859943
v 0.397044 0.450493 0.394769
v 0.390342 0.296639 0.897428
v 0.353771 0.281111 0.952959
v 0.353771 0.064122 0.952958
v 0.400935 0.064122 0.796035
v 0.431160 0.281064 0.748152
v 0.430926 0.281111 0.446383
v 0.430926 0.344265 0.604564
v 0.356850 0.318119 -0.791845
v 0.320423 0.294672 -0.844906
v 0.320423 0.127999 -0.844906
v 0.356850 0.107838 -0.791845
v 0.356850 0.091440 -0.608951
v 0.429652 0.294855 -0.546419
v 0.429652 0.344265 -0.410604
v 0.429652 0.281111 -0.247016
v 0.371132 0.064122 0.394002
v 0.371132 0.064122 -0.181534
v 0.283667 0.064122 0.796035
v 0.283667 0.281111 0.748089
v 0.283667 0.344265 0.604564
v 0.283667 0.091440 -0.608951
v 0.283667 0.294855 -0.546419
v 0.283667 0.344265 -0.410604
v 0.283667 0.281111 -0.247016
v 0.283667 0.281111 0.446383
v 0.283667 0.064122 0.394002
v 0.283667 0.064122 -0.181534
v 0.389552 0.064122 0.897428
v 0.397044 0.450493 -0.496261
v 0.333014 0.428798 -0.771367
v 0.334626 0.450518 -0.751156
v 0.264518 0.624955 0.065179
v 0.264518 0.624955 -0.321237
v 0.247500 0.607880 0.097438
v 0.359755 0.465042 0.367285
v 0.279268 0.605539 0.061893
v 0.386293 0.464646 0.328195
v 0.386297 0.464640 -0.455919
v 0.278575 0.606451 -0.313254
v 0.386296 0.464642 -0.113713
v 0.386296 0.464642 -0.164612
v 0.278762 0.606204 -0.164612
v 0.278856 0.606081 -0.113713
v 0.252823 0.609069 -0.337174
v 0.358485 0.466796 -0.479906
v 0.321693 0.411411 -0.774838
v 0.342855 0.334547 -0.789061
v 0.008144 0.346563 -0.688950
v 0.008144 0.400832 -0.689923
v 0.008144 0.343164 -0.820753
v 0.008144 0.403327 -0.821203
v 0.068313 0.346563 -0.688950
v 0.068313 0.400832 -0.689923
v 0.068313 0.343164 -0.820753
v 0.068313 0.403327 -0.821203
v 0.000000 0.399355 0.880484
v -0.358857 0.399355 0.859943
v 0.000000 0.450493 0.394769
v -0.397044 0.450493 0.394769
v 0.000000 0.296639 0.917969
v -0.390342 0.296639 0.897428
v 0.000000 0.281111 0.973500
v -0.353771 0.281111 0.952959
v 0.000000 0.064122 0.973500
v -0.353771 0.064122 0.952958
v 0.000000 0.064122 0.796035
v -0.400935 0.064122 0.796035
v -0.431160 0.281064 0.748152
v -0.430926 0.281111 0.446383
v -0.430926 0.344265 0.604564
v 0.000000 0.318119 -0.798832
v -0.356850 0.318119 -0.791845
v 0.000000 0.294672 -0.851893
v -0.320423 0.294672 -0.844906
v 0.000000 0.127999 -0.851893
v -0.320423 0.127999 -0.844906
v 0.000000 0.107838 -0.791847
v -0.356850 0.107838 -0.791845
v 0.000000 0.091440 -0.608953
v -0.356850 0.091440 -0.608951
v -0.429652 0.294855 -0.546419
v -0.429652 0.344265 -0.410604
v -0.429652 0.281111 -0.247016
v -0.371132 0.064122 0.394002
v -0.371132 0.064122 -0.181534
v -0.283667 0.064122 0.796035
v -0.283667 0.281111 0.748089
v -0.283667 0.344265 0.604564
v -0.283667 0.091440 -0.608951
v -0.283667 0.294855 -0.546419
v -0.283667 0.344265 -0.410604
v -0.283667 0.281111 -0.247016
v -0.283667 0.281111 0.446383
v -0.283667 0.064122 0.394002
v -0.283667 0.064122 -0.181534
v 0.000000 0.064122 0.394002
v 0.000000 0.064122 -0.213840
v -0.389552 0.064122 0.897428
v 0.000000 0.450493 -0.496261
v -0.397044 0.450493 -0.496261
v -0.333014 0.428798 -0.771367
v -0.334626 0.450518 -0.751156
v 0.000000 0.450469 -0.751152
v 0.000000 0.428798 -0.778354
v 0.000000 0.624955 0.065179
v -0.264518 0.624955 0.065179
v 0.000000 0.624955 -0.321237
v -0.264518 0.624955 -0.321237
v 0.000000 0.607880 0.097438
v -0.247500 0.607880 0.097438
v 0.000000 0.465042 0.367284
v -0.359755 0.465042 0.367285
v -0.279268 0.605539 0.061893
v -0.386293 0.464646 0.328195
v -0.386297 0.464640 -0.455919
v -0.278575 0.606451 -0.313254
v -0.386296 0.464642 -0.113713
v -0.386296 0.464642 -0.164612
v -0.278762 0.606204 -0.164612
v -0.278856 0.606081 -0.113713
v 0.000000 0.609070 -0.337173
v -0.252823 0.609069 -0.337174
v 0.000000 0.466801 -0.479900
v -0.358485 0.466796 -0.479906
v 0.000000 0.334547 -0.795793
v 0.000000 0.411411 -0.781571
v -0.321693 0.411411 -0.774838
v -0.342855 0.334547 -0.789061
v -0.008144 0.346563 -0.688950
v -0.008144 0.400832 -0.689923
v -0.008144 0.343164 -0.820753
v -0.008144 0.403327 -0.821203
v -0.068313 0.346563 -0.688950
v -0.068313 0.400832 -0.689923
v -0.068313 0.343164 -0.820753
v -0.068313 0.403327 -0.821203
v 0.368279 0.541966 -0.611076
v -0.368279 0.541966 -0.611076
v 0.368279 0.584711 -0.809182
v -0.368279 0.584711 -0.809182
v 0.368279 0.579455 -0.602987
v -0.368279 0.579455 -0.602987
v 0.368279 0.622200 -0.801093
v -0.368279 0.622200 -0.801093
v 0.149756 0.392438 -0.600209
v 0.149756 0.566038 -0.657414
v 0.149756 0.392438 -0.707973
v 0.149756 0.588034 -0.762911
v 0.188107 0.392438 -0.600209
v 0.188107 0.566038 -0.657414
v 0.188107 0.392438 -0.707973
v 0.188107 0.588034 -0.762911
v -0.149756 0.392438 -0.600209
v -0.149756 0.566038 -0.657414
v -0.149756 0.392438 -0.707973
v -0.149756 0.588033 -0.762911
v -0.188107 0.392438 -0.600209
v -0.188107 0.566038 -0.657414
v -0.188107 0.392438 -0.707973
v -0.188107 0.588033 -0.762911
vt 0.763486 0.175276
vt 0.758437 0.179849
vt 0.758437 0.175515
vt 0.865499 0.170420
vt 0.838246 0.160597
vt 0.867721 0.160597
vt 0.752411 0.185244
vt 0.752246 0.185262
vt 0.752229 0.185235
vt 0.861183 0.184121
vt 0.871611 0.175501
vt 0.871988 0.184121
vt 0.304524 0.926963
vt 0.304689 0.926954
vt 0.304557 0.927036
vt 0.768949 0.184416
vt 0.768904 0.184333
vt 0.768976 0.184349
vt 0.768898 0.184514
vt 0.768977 0.184490
vt 0.768963 0.184279
vt 0.752623 0.184876
vt 0.752602 0.185025
vt 0.752602 0.184876
vt 0.872939 0.171157
vt 0.845370 0.183030
vt 0.845370 0.171157
vt 0.800003 0.184113
vt 0.800153 0.184088
vt 0.800153 0.184116
vt 0.304689 0.927801
vt 0.304557 0.927692
vt 0.304689 0.927692
vt 0.785317 0.182915
vt 0.785408 0.183207
vt 0.785320 0.183238
vt 0.817305 0.183839
vt 0.816375 0.173702
vt 0.831815 0.177357
vt 0.828866 0.173702
vt 0.768644 0.184500
vt 0.768568 0.184525
vt 0.768562 0.184500
vt 0.794481 0.184627
vt 0.793307 0.184457
vt 0.794481 0.184456
vt 0.769844 0.184194
vt 0.769825 0.184303
vt 0.769763 0.184166
vt 0.769744 0.184303
vt 0.833357 0.183823
vt 0.304488 0.927133
vt 0.304557 0.927205
vt 0.304488 0.927205
vt 0.305111 0.927847
vt 0.305070 0.927767
vt 0.305138 0.927767
vt 0.304488 0.927606
vt 0.304557 0.927668
vt 0.304488 0.927668
vt 0.304516 0.927224
vt 0.304557 0.927224
vt 0.304557 0.927064
vt 0.304557 0.927133
vt 0.304557 0.927528
vt 0.304557 0.927606
vt 0.305084 0.927641
vt 0.305139 0.927725
vt 0.305070 0.927725
vt 0.304522 0.927692
vt 0.305082 0.926954
vt 0.304986 0.927117
vt 0.304986 0.926976
vt 0.304957 0.927043
vt 0.304934 0.927677
vt 0.305029 0.927841
vt 0.304936 0.927817
vt 0.304911 0.927755
vt 0.304689 0.927036
vt 0.304516 0.927492
vt 0.304557 0.927492
vt 0.304689 0.927224
vt 0.304689 0.927507
vt 0.304522 0.927801
vt 0.768975 0.184953
vt 0.768896 0.185072
vt 0.768953 0.184890
vt 0.770642 0.181129
vt 0.770540 0.181104
vt 0.770636 0.181103
vt 0.769856 0.183539
vt 0.769750 0.183492
vt 0.769854 0.183491
vt 0.304502 0.927036
vt 0.304507 0.926989
vt 0.763361 0.185414
vt 0.758437 0.183998
vt 0.764024 0.183998
vt 0.768956 0.185091
vt 0.768906 0.185082
vt 0.778963 0.185508
vt 0.774062 0.185414
vt 0.778986 0.185414
vt 0.768901 0.184930
vt 0.774062 0.179849
vt 0.779124 0.179977
vt 0.774062 0.179977
vt 0.762159 0.181384
vt 0.758437 0.183183
vt 0.758437 0.181384
vt 0.774062 0.183183
vt 0.777619 0.183257
vt 0.774062 0.183257
vt 0.778648 0.184456
vt 0.778736 0.184518
vt 0.778744 0.184536
vt 0.777544 0.181233
vt 0.774062 0.181384
vt 0.774062 0.181233
vt 0.990065 0.881035
vt 0.991309 0.995124
vt 0.990065 0.995124
vt 0.779213 0.184189
vt 0.779258 0.184036
vt 0.779266 0.184052
vt 0.939685 0.996156
vt 0.939041 0.881380
vt 0.940592 0.881378
vt 0.778733 0.184152
vt 0.778646 0.184276
vt 0.778741 0.184121
vt 0.778735 0.184380
vt 0.778658 0.184452
vt 0.778657 0.184405
vt 0.778735 0.184404
vt 0.778657 0.184381
vt 0.938718 0.881380
vt 0.937300 0.995418
vt 0.935607 0.881383
vt 0.778657 0.184277
vt 0.975352 0.996583
vt 0.977089 0.881544
vt 0.977089 0.996583
vt 0.779106 0.183922
vt 0.774062 0.183998
vt 0.774062 0.183922
vt 0.779520 0.184106
vt 0.779423 0.184150
vt 0.779530 0.184088
vt 0.755605 0.168029
vt 0.787075 0.158461
vt 0.787045 0.168026
vt 0.793265 0.184627
vt 0.793284 0.183158
vt 0.794483 0.183029
vt 0.794482 0.183158
vt 0.302833 0.984937
vt 0.307698 0.980072
vt 0.307698 0.984937
vt 0.236306 0.951208
vt 0.248159 0.939354
vt 0.248159 0.951208
vt 0.302347 0.984937
vt 0.297482 0.980072
vt 0.302347 0.980072
vt 0.297482 0.995640
vt 0.302347 0.990775
vt 0.302347 0.995640
vt 0.307698 0.990289
vt 0.302833 0.985424
vt 0.307698 0.985424
vt 0.763486 0.175276
vt 0.865499 0.170420
vt 0.838395 0.170368
vt 0.752246 0.185262
vt 0.752229 0.185235
vt 0.871611 0.175501
vt 0.871988 0.184121
vt 0.304524 0.926963
vt 0.304557 0.927036
vt 0.768949 0.184416
vt 0.768976 0.184349
vt 0.768904 0.184333
vt 0.768898 0.184514
vt 0.768963 0.184279
vt 0.752602 0.185025
vt 0.752623 0.185043
vt 0.872939 0.171157
vt 0.800003 0.184113
vt 0.304557 0.927692
vt 0.785317 0.182915
vt 0.785408 0.183207
vt 0.785406 0.182939
vt 0.817305 0.183839
vt 0.831815 0.177357
vt 0.816375 0.173702
vt 0.828866 0.173702
vt 0.768568 0.184525
vt 0.768644 0.184500
vt 0.768562 0.184500
vt 0.793307 0.184457
vt 0.793265 0.184627
vt 0.769844 0.184194
vt 0.769763 0.184166
vt 0.769825 0.184303
vt 0.769744 0.184303
vt 0.833357 0.183823
vt 0.304557 0.927205
vt 0.304488 0.927133
vt 0.304488 0.927205
vt 0.305070 0.927767
vt 0.305111 0.927847
vt 0.305138 0.927767
vt 0.304557 0.927668
vt 0.304488 0.927606
vt 0.304488 0.927668
vt 0.304516 0.927224
vt 0.304557 0.927064
vt 0.304488 0.927064
vt 0.304557 0.927528
vt 0.304488 0.927528
vt 0.305139 0.927725
vt 0.305084 0.927641
vt 0.305070 0.927725
vt 0.304522 0.927692
vt 0.305082 0.926954
vt 0.304986 0.927117
vt 0.305082 0.927141
vt 0.304957 0.927043
vt 0.304986 0.926976
vt 0.305029 0.927841
vt 0.304934 0.927677
vt 0.304936 0.927817
vt 0.304911 0.927755
vt 0.304516 0.927492
vt 0.304557 0.927224
vt 0.304557 0.927492
vt 0.304522 0.927801
vt 0.768896 0.185072
vt 0.768975 0.184953
vt 0.768953 0.184890
vt 0.770540 0.181104
vt 0.770642 0.181129
vt 0.770636 0.181103
vt 0.769750 0.183492
vt 0.769856 0.183539
vt 0.769854 0.183491
vt 0.304507 0.926989
vt 0.304502 0.927036
vt 0.763361 0.185414
vt 0.758437 0.185414
vt 0.768906 0.185082
vt 0.768956 0.185091
vt 0.778963 0.185508
vt 0.774062 0.185540
vt 0.768901 0.184930
vt 0.779124 0.179977
vt 0.779649 0.179849
vt 0.762159 0.181384
vt 0.777619 0.183257
vt 0.777784 0.183183
vt 0.778736 0.184518
vt 0.778648 0.184456
vt 0.778744 0.184536
vt 0.777544 0.181233
vt 0.991309 0.995124
vt 0.991873 0.881035
vt 0.779213 0.184189
vt 0.779258 0.184036
vt 0.779196 0.184203
vt 0.939041 0.881380
vt 0.939685 0.996156
vt 0.940592 0.881378
vt 0.778733 0.184152
vt 0.778646 0.184276
vt 0.778657 0.184277
vt 0.778735 0.184380
vt 0.778741 0.184121
vt 0.778658 0.184452
vt 0.778657 0.184405
vt 0.778735 0.184404
vt 0.778657 0.184381
vt 0.938718 0.881380
vt 0.937300 0.995418
vt 0.938718 0.995857
vt 0.975352 0.996583
vt 0.779106 0.183922
vt 0.779423 0.184150
vt 0.779520 0.184106
vt 0.779530 0.184088
vt 0.755605 0.168029
vt 0.793284 0.183158
vt 0.793237 0.183029
vt 0.307698 0.980072
vt 0.302833 0.984937
vt 0.307698 0.984937
vt 0.248159 0.939354
vt 0.236306 0.951208
vt 0.248159 0.951208
vt 0.302347 0.984937
vt 0.297482 0.980072
vt 0.297482 0.984937
vt 0.302347 0.990775
vt 0.297482 0.995640
vt 0.302347 0.995640
vt 0.302833 0.985424
vt 0.307698 0.990289
vt 0.307698 0.985424
vt 0.356734 0.958128
vt 0.357037 0.957825
vt 0.357037 0.958128
vt 0.306004 0.931688
vt 0.306307 0.931385
vt 0.306307 0.931688
vt 0.317176 0.931945
vt 0.317479 0.931642
vt 0.317479 0.931945
vt 0.306337 0.931385
vt 0.306640 0.931688
vt 0.306337 0.931688
vt 0.306670 0.931354
vt 0.306973 0.931051
vt 0.306973 0.931354
vt 0.306307 0.931718
vt 0.306004 0.932021
vt 0.306004 0.931718
vt 0.342233 0.920173
vt 0.342410 0.920457
vt 0.342218 0.920511
vt 0.295685 0.912740
vt 0.295756 0.912842
vt 0.295685 0.912842
vt 0.356941 0.918560
vt 0.356764 0.918844
vt 0.356749 0.918506
vt 0.295685 0.912406
vt 0.295756 0.912576
vt 0.295685 0.912576
vt 0.342410 0.920457
vt 0.342233 0.920173
vt 0.342218 0.920511
vt 0.295756 0.912842
vt 0.295685 0.912740
vt 0.295685 0.912842
vt 0.356941 0.918560
vt 0.356764 0.918844
vt 0.356941 0.918937
vt 0.295756 0.912576
vt 0.295685 0.912406
vt 0.295685 0.912576
vt 0.295685 0.913042
vt 0.295685 0.912207
vt 0.295756 0.912406
vt 0.295756 0.912207
vt 0.764024 0.179849
vt 0.752411 0.185271
vt 0.861183 0.175501
vt 0.752623 0.185043
vt 0.872939 0.183030
vt 0.799986 0.184088
vt 0.785406 0.182939
vt 0.768630 0.184525
vt 0.305071 0.927847
vt 0.304488 0.927064
vt 0.304488 0.927528
vt 0.305139 0.927641
vt 0.305082 0.927141
vt 0.305029 0.927641
vt 0.770538 0.181130
vt 0.769764 0.183561
vt 0.779649 0.179849
vt 0.762159 0.183183
vt 0.777784 0.183183
vt 0.777784 0.181384
vt 0.991873 0.881035
vt 0.779196 0.184203
vt 0.939041 0.995957
vt 0.938718 0.995857
vt 0.974626 0.881540
vt 0.779649 0.183998
vt 0.779433 0.184155
vt 0.754995 0.158461
vt 0.793237 0.183029
vt 0.302833 0.980072
vt 0.236306 0.939354
vt 0.297482 0.984937
vt 0.297482 0.990775
vt 0.302833 0.990289
vt 0.764024 0.179849
vt 0.867721 0.160597
vt 0.768977 0.184490
vt 0.872939 0.183030
vt 0.799986 0.184088
vt 0.785320 0.183238
vt 0.768630 0.184525
vt 0.304557 0.927133
vt 0.305071 0.927847
vt 0.304557 0.927606
vt 0.305139 0.927641
vt 0.305029 0.927641
vt 0.770538 0.181130
vt 0.769764 0.183561
vt 0.764024 0.183998
vt 0.778986 0.185414
vt 0.762159 0.183183
vt 0.777784 0.181384
vt 0.779266 0.184052
vt 0.939041 0.995957
vt 0.935607 0.881383
vt 0.974626 0.881540
vt 0.779649 0.183998
vt 0.779433 0.184155
vt 0.754995 0.158461
vt 0.302833 0.980072
vt 0.236306 0.939354
vt 0.302347 0.980072
vt 0.297482 0.990775
vt 0.302833 0.990289
vt 0.356734 0.957825
vt 0.306004 0.931385
vt 0.317176 0.931642
vt 0.306640 0.931385
vt 0.306670 0.931051
vt 0.306307 0.932021
vt 0.342410 0.920081
vt 0.295756 0.912740
vt 0.356941 0.918937
vt 0.295756 0.912406
vt 0.342410 0.920081
vt 0.295756 0.912740
vt 0.356749 0.918506
vt 0.295756 0.913042
vn 0.0034 0.9943 0.1067
vn -0.0000 0.9942 0.1074
vn 0.0000 0.9945 0.1047
vn 0.0499 0.3535 0.9341
vn 0.0000 0.3454 0.9385
vn 0.0491 0.3557 0.9333
vn 0.0000 0.9628 0.2702
vn 0.0147 0.9606 0.2775
vn 0.0146 0.9604 0.2782
vn 0.0000 -0.0000 1.0000
vn 0.0580 -0.0000 0.9983
vn -0.0000 -1.0000 -0.0000
vn 0.8993 0.4276 0.0922
vn 0.8988 0.3977 0.1845
vn 0.9061 0.3821 0.1817
vn 0.9698 0.2438 0.0068
vn 0.9829 0.1815 -0.0319
vn 0.9101 0.3562 0.2117
vn 0.0000 0.9144 -0.4047
vn 0.0081 0.9128 -0.4084
vn 0.0000 0.9147 -0.4042
vn 0.5199 0.0000 -0.8542
vn 0.0000 0.0000 -1.0000
vn 0.0006 -0.9360 -0.3519
vn -0.0000 -0.9466 -0.3224
vn 0.0000 -0.9480 -0.3183
vn 0.0000 -0.9960 -0.0893
vn 0.9644 -0.2644 -0.0005
vn 0.9651 -0.2618 -0.0014
vn 0.9654 -0.2609 -0.0018
vn 0.9649 0.2557 -0.0598
vn 1.0000 -0.0048 -0.0018
vn 0.8244 0.0000 -0.5660
vn 0.0000 0.1820 -0.9833
vn 0.0184 0.1850 -0.9826
vn 0.0000 0.1819 -0.9833
vn 0.9439 -0.3288 -0.0295
vn 0.9732 -0.1513 -0.1734
vn 0.9669 0.1897 -0.1707
vn 0.9541 0.1279 -0.2709
vn 0.9721 0.1611 -0.1703
vn -0.0000 -0.9998 -0.0176
vn -0.0000 -0.6548 0.7558
vn 0.0000 -0.6895 0.7243
vn 0.0000 -0.2889 -0.9574
vn 0.0000 -0.6800 -0.7332
vn 0.0000 -0.7107 -0.7035
vn 0.0000 -1.0000 -0.0098
vn 0.0000 -0.6890 0.7248
vn 0.0000 -0.7300 0.6834
vn 0.0000 -0.2347 0.9721
vn 0.0001 -0.6342 -0.7732
vn 0.0000 -0.9998 -0.0173
vn 0.0001 -0.2157 -0.9765
vn 0.0001 -0.6512 -0.7589
vn 0.0000 -0.2938 0.9559
vn 1.0000 -0.0000 0.0000
vn 0.0022 -0.9998 -0.0197
vn 0.0000 -0.9994 -0.0352
vn 0.0029 -0.9978 -0.0669
vn 0.0000 -0.9976 -0.0690
vn 0.9422 0.2128 -0.2588
vn 0.9417 -0.0020 0.3364
vn 0.8364 -0.0024 0.5482
vn 0.8406 -0.0000 0.5416
vn 0.9851 -0.0289 0.1693
vn 0.9218 -0.0304 0.3865
vn -0.0001 1.0000 0.0000
vn 0.0000 1.0000 -0.0000
vn 0.0000 1.0000 0.0001
vn 0.9369 0.2206 -0.2711
vn 0.0007 0.6881 -0.7256
vn 0.0000 0.7769 -0.6296
vn -0.0001 0.6812 -0.7321
vn 0.0000 0.8838 0.4678
vn 0.0000 0.7082 -0.7060
vn 0.7963 0.6049 -0.0000
vn 0.0000 0.1823 -0.9832
vn 0.0189 0.1843 -0.9827
vn 0.0211 0.1855 -0.9824
vn -1.0000 0.0000 0.0000
vn 0.0000 -0.0075 -1.0000
vn 0.0000 -0.9997 0.0258
vn 0.0000 0.9998 0.0190
vn -0.0034 0.9943 0.1067
vn -0.0499 0.3535 0.9341
vn 0.0000 0.3428 0.9394
vn -0.0147 0.9606 0.2775
vn -0.0146 0.9604 0.2782
vn -0.0580 -0.0000 0.9983
vn -0.8993 0.4276 0.0922
vn -0.9061 0.3821 0.1817
vn -0.8988 0.3977 0.1845
vn -0.9698 0.2438 0.0068
vn -0.9101 0.3562 0.2117
vn -0.0081 0.9128 -0.4084
vn -0.0080 0.9126 -0.4088
vn -0.5199 0.0000 -0.8542
vn -0.0006 -0.9360 -0.3519
vn -0.9644 -0.2644 -0.0005
vn -0.9651 -0.2618 -0.0014
vn -0.9641 -0.2657 -0.0000
vn -0.9649 0.2557 -0.0598
vn -0.9829 0.1815 -0.0319
vn -1.0000 -0.0048 -0.0018
vn -0.8244 0.0000 -0.5660
vn -0.0184 0.1850 -0.9826
vn -0.0189 0.1843 -0.9827
vn -0.9439 -0.3288 -0.0295
vn -0.9669 0.1897 -0.1707
vn -0.9732 -0.1513 -0.1734
vn -0.9541 0.1279 -0.2709
vn -0.9721 0.1611 -0.1703
vn -0.0001 -0.6342 -0.7732
vn -0.0001 -0.6512 -0.7589
vn -0.0001 -0.2157 -0.9765
vn -0.0022 -0.9998 -0.0197
vn -0.0029 -0.9978 -0.0669
vn -0.9422 0.2128 -0.2588
vn -0.8364 -0.0024 0.5482
vn -0.9417 -0.0020 0.3364
vn -0.8406 -0.0000 0.5416
vn -0.9218 -0.0304 0.3865
vn -0.9851 -0.0289 0.1693
vn 0.0001 1.0000 0.0000
vn 0.0000 1.0000 -0.0001
vn -0.9369 0.2206 -0.2711
vn -0.0007 0.6881 -0.7256
vn 0.0000 0.7821 -0.6231
vn -0.7963 0.6049 0.0000
vn -0.0211 0.1855 -0.9824
vn -0.0209 0.1844 -0.9826
vn -0.0000 -0.9775 -0.2109
vn 0.0000 0.2109 -0.9775
vn 0.0000 0.9775 0.2109
vn 0.0000 -0.2109 0.9775
vn 0.0000 -0.2704 -0.9627
vn 0.0000 0.3130 0.9498
vn 0.0000 0.9789 0.2041
vn -0.0000 0.9940 0.1093
vn 0.0000 0.9631 0.2693
vn 0.0080 0.9126 -0.4088
vn 0.5147 0.0000 -0.8574
vn 0.0000 -0.9348 -0.3552
vn 0.9641 -0.2657 -0.0000
vn 0.0000 -0.2158 -0.9764
vn 0.9599 -0.0741 0.2702
vn 0.0209 0.1844 -0.9826
vn -0.0491 0.3557 0.9333
vn -0.5147 0.0000 -0.8574
vn -0.9654 -0.2609 -0.0018
vn -0.9599 -0.0741 0.2702
vn 0.0001 0.6812 -0.7321
s 1
f 81/161/49 140/162/50 138/163/51
f 81/164/52 142/165/53 83/166/54
f 142/167/55 84/168/56 83/169/57
f 144/170/58 85/171/59 84/172/59
f 85/173/60 146/174/60 100/175/60
f 89/176/61 81/177/62 87/178/63
f 82/179/64 89/176/61 88/180/65
f 83/181/66 87/178/63 81/177/62
f 153/182/67 91/183/68 155/184/69
f 91/185/70 157/186/71 155/187/71
f 92/188/72 159/189/73 157/190/74
f 159/191/75 103/192/75 161/193/75
f 88/194/76 99/195/77 97/196/78
f 82/197/64 88/198/65 96/199/79
f 96/199/79 88/198/65 97/200/80
f 93/201/81 91/202/70 90/203/81
f 186/204/82 128/205/83 208/206/84
f 94/207/85 93/208/86 95/209/87
f 93/208/86 90/210/88 95/209/87
f 82/197/64 96/199/79 111/211/89
f 89/212/90 107/213/91 88/214/92
f 99/215/93 106/216/94 97/217/95
f 96/218/96 104/219/97 95/220/98
f 98/221/99 107/213/91 108/222/99
f 89/212/90 101/223/100 102/224/101
f 96/218/96 106/225/94 105/226/96
f 86/227/102 101/228/100 87/229/103
f 94/230/104 104/219/97 103/192/104
f 100/231/105 107/232/105 101/233/105
f 102/234/105 101/233/105 107/232/105
f 106/235/105 103/236/105 104/237/105
f 105/238/105 106/235/105 104/237/105
f 100/175/60 146/174/60 148/239/60
f 108/222/60 99/240/60 98/221/60
f 109/241/106 178/242/60 179/243/107
f 103/192/75 93/244/75 94/230/75
f 100/175/60 178/242/60 108/222/60
f 103/192/108 179/243/107 161/193/109
f 95/245/87 113/246/110 96/247/79
f 110/248/111 84/249/112 85/250/113
f 86/251/114 83/252/115 110/253/111
f 100/175/60 86/254/60 110/255/60
f 110/255/60 85/173/60 100/175/60
f 113/256/116 181/257/117 111/258/118
f 95/245/87 90/259/88 112/260/119
f 112/261/120 185/262/121 113/263/122
f 111/264/89 96/247/79 113/246/110
f 140/265/123 117/266/123 193/267/123
f 114/268/117 189/269/117 187/270/117
f 189/271/124 126/272/124 203/273/124
f 115/274/125 120/275/125 111/276/125
f 116/277/123 187/278/123 191/279/123
f 193/280/123 116/281/123 191/282/123
f 117/283/123 114/284/123 116/285/123
f 121/286/125 123/287/125 120/288/125
f 119/289/125 114/290/125 82/291/125
f 111/276/125 122/292/125 82/291/125
f 121/293/125 115/274/125 124/294/125
f 123/295/125 125/296/125 122/292/125
f 122/297/125 118/298/125 119/299/125
f 115/274/125 125/296/125 124/294/125
f 125/296/125 114/290/125 118/300/125
f 122/292/125 119/289/125 82/291/125
f 123/295/125 111/276/125 120/275/125
f 126/301/124 205/302/124 203/303/124
f 127/304/124 181/305/124 205/306/124
f 127/307/124 115/308/124 111/309/124
f 128/310/83 207/311/126 208/312/84
f 112/313/127 129/314/128 128/205/83
f 129/314/128 153/315/82 207/316/126
f 131/317/129 132/318/129 130/319/129
f 133/320/130 136/321/130 132/322/130
f 136/323/105 135/324/105 134/325/105
f 136/326/131 130/327/131 132/328/131
f 133/329/132 135/330/132 137/331/132
f 140/162/50 139/332/133 138/163/51
f 139/333/134 142/165/53 138/334/135
f 145/335/136 142/167/55 143/336/137
f 147/337/138 144/170/58 145/338/138
f 147/339/60 168/340/60 146/174/60
f 152/341/139 150/342/140 139/343/141
f 141/344/142 152/341/139 139/343/141
f 143/345/143 139/343/141 150/342/140
f 153/182/67 156/346/144 154/347/145
f 157/186/71 156/348/146 155/187/71
f 159/189/73 158/349/147 157/190/74
f 159/191/75 161/193/75 171/350/75
f 151/351/148 167/352/149 166/353/150
f 141/354/142 164/355/151 151/356/152
f 164/355/151 165/357/153 151/356/152
f 156/358/146 160/359/154 154/360/154
f 186/204/82 209/361/155 183/362/156
f 162/363/157 163/364/158 160/365/159
f 160/365/159 163/364/158 154/366/160
f 141/354/142 182/367/161 164/355/151
f 175/368/91 152/369/90 151/370/92
f 174/371/94 167/372/93 165/373/95
f 172/374/97 164/375/96 163/376/98
f 166/377/99 175/368/91 151/370/92
f 152/369/90 169/378/162 150/379/163
f 164/375/96 174/380/94 165/381/95
f 169/382/162 149/383/164 150/384/163
f 162/385/104 172/374/97 163/376/98
f 168/386/129 175/387/129 176/388/129
f 170/389/129 175/387/129 169/390/129
f 171/391/129 174/392/129 172/393/129
f 173/394/129 172/393/129 174/392/129
f 168/340/60 148/239/60 146/174/60
f 167/395/60 176/396/60 166/377/60
f 177/397/165 178/242/60 176/396/60
f 171/350/75 160/398/75 159/191/75
f 178/242/60 168/340/60 176/396/60
f 171/350/166 179/243/107 177/397/165
f 184/399/167 163/400/158 164/401/151
f 145/402/168 180/403/169 147/404/170
f 143/405/171 149/406/172 180/407/169
f 168/340/60 180/408/60 149/409/60
f 180/408/60 168/340/60 147/339/60
f 184/410/173 181/257/117 185/411/174
f 163/400/158 183/412/175 154/413/160
f 183/414/176 185/262/121 186/415/177
f 182/416/161 184/399/167 164/401/151
f 140/265/123 194/417/123 141/418/123
f 189/269/117 188/419/117 187/270/117
f 189/271/124 204/420/124 190/421/124
f 197/422/178 190/423/178 182/424/178
f 187/278/123 192/425/123 191/279/123
f 193/280/123 192/426/123 194/427/123
f 194/428/123 188/429/123 141/430/123
f 200/431/178 198/432/178 197/433/178
f 196/434/178 188/435/178 195/436/178
f 199/437/178 182/424/178 141/438/178
f 198/439/178 201/440/178 190/423/178
f 200/441/178 202/442/178 201/440/178
f 199/443/178 195/444/178 202/445/178
f 202/442/178 190/423/178 201/440/178
f 202/442/178 195/436/178 188/435/178
f 199/437/178 141/438/178 196/434/178
f 200/441/178 197/422/178 182/424/178
f 205/302/124 204/446/124 203/303/124
f 181/305/124 206/447/124 205/306/124
f 190/448/124 206/449/124 182/450/124
f 207/311/126 209/451/155 208/312/84
f 210/452/179 183/362/156 209/361/155
f 210/452/179 153/315/82 154/453/180
f 213/454/105 212/455/105 211/456/105
f 217/457/130 214/458/130 213/459/130
f 217/460/129 216/461/129 218/462/129
f 211/463/131 217/464/131 213/465/131
f 216/466/132 214/467/132 218/468/132
f 220/469/181 221/470/181 219/471/181
f 222/472/182 225/473/182 221/474/182
f 226/475/183 223/476/183 225/477/183
f 224/478/184 219/479/184 223/480/184
f 225/481/105 219/482/105 221/483/105
f 226/484/129 220/485/129 224/486/129
f 228/487/129 229/488/129 227/489/129
f 230/490/185 233/491/185 229/492/185
f 233/493/105 232/494/105 231/495/105
f 232/496/186 227/497/186 231/498/186
f 237/499/105 236/500/105 235/501/105
f 241/502/185 238/503/185 237/504/185
f 241/505/129 240/506/129 242/507/129
f 235/508/186 240/509/186 239/510/186
f 235/511/60 241/502/60 237/504/60
f 242/512/187 236/513/187 238/514/187
f 81/161/49 82/515/188 140/162/50
f 81/164/52 138/334/135 142/165/53
f 142/167/55 144/516/189 84/168/56
f 144/170/58 146/517/58 85/171/59
f 82/179/64 81/177/62 89/176/61
f 153/182/67 90/518/190 91/183/68
f 91/185/70 92/519/191 157/186/71
f 92/188/72 93/520/192 159/189/73
f 88/194/76 98/521/193 99/195/77
f 93/201/81 92/522/191 91/202/70
f 186/204/82 112/313/127 128/205/83
f 89/212/90 102/224/101 107/213/91
f 99/215/93 109/523/93 106/216/94
f 96/218/96 105/226/96 104/219/97
f 98/221/99 88/214/92 107/213/91
f 89/212/90 87/524/103 101/223/100
f 96/218/96 97/525/95 106/225/94
f 86/227/102 100/526/194 101/228/100
f 94/230/104 95/220/98 104/219/97
f 100/231/105 108/527/105 107/232/105
f 106/235/105 109/528/105 103/236/105
f 108/222/60 109/241/106 99/240/60
f 109/241/106 108/222/60 178/242/60
f 103/192/75 159/191/75 93/244/75
f 100/175/60 148/239/60 178/242/60
f 103/192/108 109/241/106 179/243/107
f 95/245/87 112/260/119 113/246/110
f 110/248/111 83/529/115 84/249/112
f 86/251/114 87/530/195 83/252/115
f 113/256/116 185/411/174 181/257/117
f 112/261/120 186/415/177 185/262/121
f 140/265/123 82/531/123 117/266/123
f 114/268/117 115/532/117 189/269/117
f 189/271/124 115/533/124 126/272/124
f 115/274/125 121/293/125 120/275/125
f 116/277/123 114/534/123 187/278/123
f 193/280/123 117/535/123 116/281/123
f 117/283/123 82/536/123 114/284/123
f 121/286/125 124/537/125 123/287/125
f 119/289/125 118/300/125 114/290/125
f 111/276/125 123/295/125 122/292/125
f 123/295/125 124/294/125 125/296/125
f 122/297/125 125/538/125 118/298/125
f 115/274/125 114/290/125 125/296/125
f 126/301/124 127/539/124 205/302/124
f 127/304/124 111/540/124 181/305/124
f 127/307/124 126/541/124 115/308/124
f 128/310/83 129/542/128 207/311/126
f 112/313/127 90/543/196 129/314/128
f 129/314/128 90/543/196 153/315/82
f 131/317/129 133/544/129 132/318/129
f 133/320/130 137/545/130 136/321/130
f 136/323/105 137/546/105 135/324/105
f 136/326/131 134/547/131 130/327/131
f 133/329/132 131/548/132 135/330/132
f 140/162/50 141/549/188 139/332/133
f 139/333/134 143/550/197 142/165/53
f 145/335/136 144/516/189 142/167/55
f 147/337/138 146/517/58 144/170/58
f 141/344/142 151/551/152 152/341/139
f 153/182/67 155/184/69 156/346/144
f 157/186/71 158/552/198 156/348/146
f 159/189/73 160/553/192 158/349/147
f 151/351/148 165/554/199 167/352/149
f 156/358/146 158/555/198 160/359/154
f 186/204/82 208/206/84 209/361/155
f 175/368/91 170/556/101 152/369/90
f 174/371/94 177/557/93 167/372/93
f 172/374/97 173/558/96 164/375/96
f 166/377/99 176/396/99 175/368/91
f 152/369/90 170/556/101 169/378/162
f 164/375/96 173/558/96 174/380/94
f 169/382/162 168/559/194 149/383/164
f 162/385/104 171/350/104 172/374/97
f 168/386/129 169/390/129 175/387/129
f 171/391/129 177/560/129 174/392/129
f 167/395/60 177/397/165 176/396/60
f 177/397/165 179/243/107 178/242/60
f 171/350/75 162/385/75 160/398/75
f 178/242/60 148/239/60 168/340/60
f 171/350/166 161/193/109 179/243/107
f 184/399/167 183/412/175 163/400/158
f 145/402/168 143/561/171 180/403/169
f 143/405/171 150/562/200 149/406/172
f 184/410/173 182/563/118 181/257/117
f 183/414/176 184/564/201 185/262/121
f 140/265/123 193/267/123 194/417/123
f 189/269/117 190/565/117 188/419/117
f 189/271/124 203/273/124 204/420/124
f 197/422/178 198/439/178 190/423/178
f 187/278/123 188/566/123 192/425/123
f 193/280/123 191/282/123 192/426/123
f 194/428/123 192/567/123 188/429/123
f 200/431/178 201/568/178 198/432/178
f 196/434/178 141/438/178 188/435/178
f 199/437/178 200/441/178 182/424/178
f 200/441/178 199/437/178 202/442/178
f 199/443/178 196/569/178 195/444/178
f 202/442/178 188/435/178 190/423/178
f 205/302/124 206/570/124 204/446/124
f 181/305/124 182/571/124 206/447/124
f 190/448/124 204/572/124 206/449/124
f 207/311/126 210/573/179 209/451/155
f 210/452/179 154/453/180 183/362/156
f 210/452/179 207/316/126 153/315/82
f 213/454/105 214/574/105 212/455/105
f 217/457/130 218/575/130 214/458/130
f 217/460/129 215/576/129 216/461/129
f 211/463/131 215/577/131 217/464/131
f 216/466/132 212/578/132 214/467/132
f 220/469/181 222/579/181 221/470/181
f 222/472/182 226/580/182 225/473/182
f 226/475/183 224/581/183 223/476/183
f 224/478/184 220/582/184 219/479/184
f 225/481/105 223/583/105 219/482/105
f 226/484/129 222/584/129 220/485/129
f 228/487/129 230/585/129 229/488/129
f 230/490/185 234/586/185 233/491/185
f 233/493/105 234/587/105 232/494/105
f 232/496/186 228/588/186 227/497/186
f 237/499/105 238/589/105 236/500/105
f 241/502/185 242/590/185 238/503/185
f 241/505/129 239/591/129 240/506/129
f 235/508/186 236/513/186 240/509/186
f 235/511/60 239/592/60 241/502/60
f 242/512/187 240/509/187 236/513/187
