texture textures/cars.png
v 0.294940 0.301480 0.455252
v 0.401321 0.301480 0.455252
v 0.294940 0.243923 0.376033
v 0.401321 0.243923 0.376033
v 0.294940 0.150795 0.345773
v 0.401321 0.150795 0.345773
v 0.294940 0.057666 0.376033
v 0.401321 0.057666 0.376033
v 0.294940 0.000110 0.455252
v 0.401321 0.000110 0.455252
v 0.294940 0.000110 0.553173
v 0.401321 0.000110 0.553173
v 0.294940 0.057666 0.632393
v 0.401321 0.057666 0.632393
v 0.294940 0.150795 0.662652
v 0.401321 0.150795 0.662652
v 0.294940 0.243923 0.632393
v 0.401321 0.243923 0.632393
v 0.294940 0.301480 0.553173
v 0.401321 0.301480 0.553173
vt 0.612156 0.971647
vt 0.524372 0.959848
vt 0.524372 0.971647
vt 0.612156 0.959848
vt 0.524372 0.940757
vt 0.612156 0.940757
vt 0.524372 0.921665
vt 0.612156 0.921665
vt 0.524372 0.909866
vt 0.612156 0.909866
vt 0.524372 0.909866
vt 0.612156 0.909866
vt 0.524372 0.921665
vt 0.612156 0.921665
vt 0.524372 0.940757
vt 0.612156 0.940757
vt 0.524372 0.959848
vt 0.612156 0.959848
vt 0.524372 0.971647
vt 0.612156 0.971647
vt 0.512421 0.891662
vt 0.519896 0.891662
vt 0.518469 0.897068
vt 0.250082 0.022727
vt 0.383670 0.433867
vt 0.116495 0.433868
vt 0.516159 0.897992
vt 0.513849 0.897068
vt 0.512421 0.894650
vt 0.513849 0.889244
vt 0.516159 0.888320
vt 0.518469 0.889244
vt 0.519896 0.894650
vt 0.033933 0.320231
vt 0.033933 0.179769
vt 0.116495 0.066133
vt 0.383670 0.066133
vt 0.466232 0.179769
vt 0.466232 0.320231
vt 0.250082 0.477273
vn 0.0000 0.9511 -0.3090
vn 0.0000 0.5878 -0.8090
vn 0.0000 0.0000 -1.0000
vn 0.0000 -0.5878 -0.8090
vn 0.0000 -0.9511 -0.3090
vn 0.0000 -0.9511 0.3090
vn 0.0000 -0.5878 0.8090
vn 0.0000 -0.0000 1.0000
vn 0.0000 0.5878 0.8090
vn 0.0000 0.9511 0.3090
vn -1.0000 0.0000 0.0000
vn 1.0000 0.0000 0.0000
s 1
f 2/1/1 3/2/2 1/3/1
f 4/4/2 5/5/3 3/2/2
f 6/6/3 7/7/4 5/5/3
f 8/8/4 9/9/5 7/7/4
f 10/10/5 11/11/6 9/9/5
f 12/12/6 13/13/7 11/11/6
f 14/14/7 15/15/8 13/13/7
f 16/16/8 17/17/9 15/15/8
f 18/18/9 19/19/10 17/17/9
f 20/20/10 1/3/1 19/19/10
f 7/21/11 15/22/11 19/23/11
f 18/24/12 10/25/12 6/26/12
f 2/1/1 4/4/2 3/2/2
f 4/4/2 6/6/3 5/5/3
f 6/6/3 8/8/4 7/7/4
f 8/8/4 10/10/5 9/9/5
f 10/10/5 12/12/6 11/11/6
f 12/12/6 14/14/7 13/13/7
f 14/14/7 16/16/8 15/15/8
f 16/16/8 18/18/9 17/17/9
f 18/18/9 20/20/10 19/19/10
f 20/20/10 2/1/1 1/3/1
f 19/23/11 1/27/11 7/21/11
f 3/28/11 5/29/11 7/21/11
f 7/21/11 9/30/11 11/31/11
f 11/31/11 13/32/11 15/22/11
f 15/22/11 17/33/11 19/23/11
f 1/27/11 3/28/11 7/21/11
f 7/21/11 11/31/11 15/22/11
f 6/26/12 4/34/12 2/35/12
f 2/35/12 20/36/12 6/26/12
f 18/24/12 16/37/12 14/38/12
f 14/38/12 12/39/12 18/24/12
f 10/25/12 8/40/12 6/26/12
f 6/26/12 20/36/12 18/24/12
f 18/24/12 12/39/12 10/25/12
o RLW_Cylinder.005
v 0.290482 0.301480 -0.528852
v 0.420396 0.301480 -0.528852
v 0.290482 0.243923 -0.608072
v 0.420396 0.243923 -0.608072
v 0.290482 0.150795 -0.638331
v 0.420396 0.150795 -0.638331
v 0.290482 0.057666 -0.608072
v 0.420396 0.057666 -0.608072
v 0.290482 0.000110 -0.528852
v 0.420396 0.000110 -0.528852
v 0.290482 0.000110 -0.430931
v 0.420396 0.000110 -0.430931
v 0.290482 0.057666 -0.351712
v 0.420396 0.057666 -0.351712
v 0.290482 0.150795 -0.321452
v 0.420396 0.150795 -0.321452
v 0.290482 0.243923 -0.351712
v 0.420396 0.243923 -0.351712
v 0.290482 0.301480 -0.430931
v 0.420396 0.301480 -0.430931
vt 0.612156 0.971647
vt 0.524372 0.959848
vt 0.524372 0.971647
vt 0.612156 0.959848
vt 0.524372 0.940757
vt 0.612156 0.940757
vt 0.524372 0.921665
vt 0.612156 0.921665
vt 0.524372 0.909866
vt 0.612156 0.909866
vt 0.524372 0.909866
vt 0.524372 0.921665
vt 0.612156 0.921665
vt 0.524372 0.940757
vt 0.612156 0.940757
vt 0.524372 0.959848
vt 0.612156 0.959848
vt 0.524372 0.971647
vt 0.612156 0.971647
vt 0.516159 0.888320
vt 0.519896 0.891662
vt 0.518469 0.897068
vt 0.250082 0.022727
vt 0.383670 0.433867
vt 0.116495 0.433868
vt 0.612156 0.909866
vt 0.516159 0.897992
vt 0.512421 0.891662
vt 0.513849 0.897068
vt 0.512421 0.894650
vt 0.513849 0.889244
vt 0.518469 0.889244
vt 0.519896 0.894650
vt 0.033933 0.320231
vt 0.033933 0.179769
vt 0.116495 0.066133
vt 0.383670 0.066133
vt 0.466232 0.179769
vt 0.466232 0.320231
vt 0.250082 0.477273
vn 0.0000 0.9511 -0.3090
vn 0.0000 0.5878 -0.8090
vn 0.0000 0.0000 -1.0000
vn 0.0000 -0.5878 -0.8090
vn 0.0000 -0.9511 -0.3090
vn 0.0000 -0.9511 0.3090
vn 0.0000 -0.5878 0.8090
vn 0.0000 -0.0000 1.0000
vn 0.0000 0.5878 0.8090
vn 0.0000 0.9511 0.3090
vn -1.0000 -0.0000 0.0000
vn 1.0000 -0.0000 0.0000
s 1
f 22/41/13 23/42/14 21/43/13
f 24/44/14 25/45/15 23/42/14
f 26/46/15 27/47/16 25/45/15
f 28/48/16 29/49/17 27/47/16
f 29/49/17 32/50/18 31/51/18
f 32/50/18 33/52/19 31/51/18
f 34/53/19 35/54/20 33/52/19
f 36/55/20 37/56/21 35/54/20
f 38/57/21 39/58/22 37/56/21
f 40/59/22 21/43/13 39/58/22
f 31/60/23 35/61/23 39/62/23
f 38/63/24 30/64/24 26/65/24
f 22/41/13 24/44/14 23/42/14
f 24/44/14 26/46/15 25/45/15
f 26/46/15 28/48/16 27/47/16
f 28/48/16 30/66/17 29/49/17
f 29/49/17 30/66/17 32/50/18
f 32/50/18 34/53/19 33/52/19
f 34/53/19 36/55/20 35/54/20
f 36/55/20 38/57/21 37/56/21
f 38/57/21 40/59/22 39/58/22
f 40/59/22 22/41/13 21/43/13
f 39/62/23 21/67/23 27/68/23
f 23/69/23 25/70/23 27/68/23
f 27/68/23 29/71/23 31/60/23
f 31/60/23 33/72/23 35/61/23
f 35/61/23 37/73/23 39/62/23
f 21/67/23 23/69/23 27/68/23
f 27/68/23 31/60/23 39/62/23
f 26/65/24 24/74/24 22/75/24
f 22/75/24 40/76/24 38/63/24
f 38/63/24 36/77/24 34/78/24
f 34/78/24 32/79/24 38/63/24
f 30/64/24 28/80/24 26/65/24
f 26/65/24 22/75/24 38/63/24
f 38/63/24 32/79/24 30/64/24
o RRW_Cylinder.006
v -0.290482 0.301480 -0.430931
v -0.420396 0.301480 -0.430931
v -0.290482 0.243923 -0.351712
v -0.420396 0.243923 -0.351712
v -0.290482 0.150795 -0.321452
v -0.420396 0.150795 -0.321452
v -0.290482 0.057666 -0.351712
v -0.420396 0.057666 -0.351712
v -0.290482 0.000110 -0.430931
v -0.420396 0.000110 -0.430931
v -0.290482 0.000110 -0.528852
v -0.420396 0.000110 -0.528852
v -0.290482 0.057666 -0.608072
v -0.420396 0.057666 -0.608072
v -0.290482 0.150795 -0.638331
v -0.420396 0.150795 -0.638331
v -0.290482 0.243923 -0.608072
v -0.420396 0.243923 -0.608072
v -0.290482 0.301480 -0.528852
v -0.420396 0.301480 -0.528852
vt 0.612156 0.971647
vt 0.524372 0.959848
vt 0.524372 0.971647
vt 0.612156 0.959848
vt 0.524372 0.940757
vt 0.612156 0.940757
vt 0.524372 0.921665
vt 0.612156 0.921665
vt 0.524372 0.909866
vt 0.612156 0.909866
vt 0.524372 0.909866
vt 0.612156 0.909866
vt 0.524372 0.921665
vt 0.612156 0.921665
vt 0.524372 0.940757
vt 0.612156 0.940757
vt 0.524372 0.959848
vt 0.612156 0.959848
vt 0.524372 0.971647
vt 0.612156 0.971647
vt 0.512421 0.891662
vt 0.519896 0.891662
vt 0.518469 0.897068
vt 0.250082 0.022727
vt 0.250082 0.477273
vt 0.116495 0.433868
vt 0.516159 0.897992
vt 0.513849 0.897068
vt 0.512421 0.894650
vt 0.513849 0.889244
vt 0.516159 0.888320
vt 0.518469 0.889244
vt 0.519896 0.894650
vt 0.033933 0.320231
vt 0.033933 0.179769
vt 0.116495 0.066133
vt 0.383670 0.066133
vt 0.466232 0.179769
vt 0.466232 0.320231
vt 0.383670 0.433867
vn 0.0000 0.9511 0.3090
vn 0.0000 0.5878 0.8090
vn 0.0000 -0.0000 1.0000
vn 0.0000 -0.5878 0.8090
vn 0.0000 -0.9511 0.3090
vn 0.0000 -0.9511 -0.3090
vn 0.0000 -0.5878 -0.8090
vn -0.0000 0.0000 -1.0000
vn -0.0000 0.5878 -0.8090
vn 0.0000 0.9511 -0.3090
vn 1.0000 0.0000 0.0000
vn -1.0000 0.0000 0.0000
s 1
f 42/81/25 43/82/26 41/83/25
f 44/84/26 45/85/27 43/82/26
f 46/86/27 47/87/28 45/85/27
f 48/88/28 49/89/29 47/87/28
f 50/90/29 51/91/30 49/89/29
f 52/92/30 53/93/31 51/91/30
f 54/94/31 55/95/32 53/93/31
f 56/96/32 57/97/33 55/95/32
f 58/98/33 59/99/34 57/97/33
f 60/100/34 41/83/25 59/99/34
f 47/101/35 55/102/35 59/103/35
f 58/104/36 48/105/36 46/106/36
f 42/81/25 44/84/26 43/82/26
f 44/84/26 46/86/27 45/85/27
f 46/86/27 48/88/28 47/87/28
f 48/88/28 50/90/29 49/89/29
f 50/90/29 52/92/30 51/91/30
f 52/92/30 54/94/31 53/93/31
f 54/94/31 56/96/32 55/95/32
f 56/96/32 58/98/33 57/97/33
f 58/98/33 60/100/34 59/99/34
f 60/100/34 42/81/25 41/83/25
f 59/103/35 41/107/35 47/101/35
f 43/108/35 45/109/35 47/101/35
f 47/101/35 49/110/35 51/111/35
f 51/111/35 53/112/35 47/101/35
f 55/102/35 57/113/35 59/103/35
f 41/107/35 43/108/35 47/101/35
f 47/101/35 53/112/35 55/102/35
f 46/106/36 44/114/36 42/115/36
f 42/115/36 60/116/36 46/106/36
f 58/104/36 56/117/36 54/118/36
f 54/118/36 52/119/36 58/104/36
f 50/120/36 48/105/36 58/104/36
f 46/106/36 60/116/36 58/104/36
f 58/104/36 52/119/36 50/120/36
o FRW_Cylinder.007
v -0.294940 0.301480 0.553173
v -0.401321 0.301480 0.553173
v -0.294940 0.243923 0.632393
v -0.401321 0.243923 0.632393
v -0.294940 0.150795 0.662652
v -0.401321 0.150795 0.662652
v -0.294940 0.057666 0.632393
v -0.401321 0.057666 0.632393
v -0.294940 0.000110 0.553173
v -0.401321 0.000110 0.553173
v -0.294940 0.000110 0.455252
v -0.401321 0.000110 0.455252
v -0.294940 0.057666 0.376033
v -0.401321 0.057666 0.376033
v -0.294940 0.150795 0.345773
v -0.401321 0.150795 0.345773
v -0.294940 0.243923 0.376033
v -0.401321 0.243923 0.376033
v -0.294940 0.301480 0.455252
v -0.401321 0.301480 0.455252
vt 0.612156 0.971647
vt 0.524372 0.959848
vt 0.524372 0.971647
vt 0.612156 0.959848
vt 0.524372 0.940757
vt 0.612156 0.940757
vt 0.524372 0.921665
vt 0.612156 0.921665
vt 0.524372 0.909866
vt 0.612156 0.909866
vt 0.524372 0.909866
vt 0.612156 0.909866
vt 0.524372 0.921665
vt 0.612156 0.921665
vt 0.524372 0.940757
vt 0.612156 0.940757
vt 0.524372 0.959848
vt 0.612156 0.959848
vt 0.524372 0.971647
vt 0.612156 0.971647
vt 0.516159 0.888320
vt 0.519896 0.891662
vt 0.518469 0.897068
vt 0.250082 0.022727
vt 0.383670 0.433867
vt 0.116495 0.433868
vt 0.516159 0.897992
vt 0.512421 0.891662
vt 0.513849 0.897068
vt 0.512421 0.894650
vt 0.513849 0.889244
vt 0.518469 0.889244
vt 0.519896 0.894650
vt 0.033933 0.320231
vt 0.033933 0.179769
vt 0.116495 0.066133
vt 0.383670 0.066133
vt 0.466232 0.179769
vt 0.466232 0.320231
vt 0.250082 0.477273
vn 0.0000 0.9511 0.3090
vn 0.0000 0.5878 0.8090
vn 0.0000 -0.0000 1.0000
vn 0.0000 -0.5878 0.8090
vn 0.0000 -0.9511 0.3090
vn 0.0000 -0.9511 -0.3090
vn 0.0000 -0.5878 -0.8090
vn 0.0000 0.0000 -1.0000
vn 0.0000 0.5878 -0.8090
vn 0.0000 0.9511 -0.3090
vn 1.0000 0.0000 0.0000
vn -1.0000 -0.0000 0.0000
s 1
f 62/121/37 63/122/38 61/123/37
f 64/124/38 65/125/39 63/122/38
f 66/126/39 67/127/40 65/125/39
f 68/128/40 69/129/41 67/127/40
f 70/130/41 71/131/42 69/129/41
f 72/132/42 73/133/43 71/131/42
f 74/134/43 75/135/44 73/133/43
f 76/136/44 77/137/45 75/135/44
f 78/138/45 79/139/46 77/137/45
f 80/140/46 61/123/37 79/139/46
f 71/141/47 75/142/47 79/143/47
f 78/144/48 70/145/48 66/146/48
f 62/121/37 64/124/38 63/122/38
f 64/124/38 66/126/39 65/125/39
f 66/126/39 68/128/40 67/127/40
f 68/128/40 70/130/41 69/129/41
f 70/130/41 72/132/42 71/131/42
f 72/132/42 74/134/43 73/133/43
f 74/134/43 76/136/44 75/135/44
f 76/136/44 78/138/45 77/137/45
f 78/138/45 80/140/46 79/139/46
f 80/140/46 62/121/37 61/123/37
f 79/143/47 61/147/47 67/148/47
f 63/149/47 65/150/47 67/148/47
f 67/148/47 69/151/47 71/141/47
f 71/141/47 73/152/47 75/142/47
f 75/142/47 77/153/47 79/143/47
f 61/147/47 63/149/47 67/148/47
f 67/148/47 71/141/47 79/143/47
f 66/146/48 64/154/48 62/155/48
f 62/155/48 80/156/48 66/146/48
f 78/144/48 76/157/48 74/158/48
f 74/158/48 72/159/48 78/144/48
f 70/145/48 68/160/48 66/146/48
f 66/146/48 80/156/48 78/144/48
f 78/144/48 72/159/48 70/145/48
o Body_Plane.001
v 0.352773 0.306201 0.915148
v 0.422826 0.322949 0.409264
v 0.322676 0.347827 0.888972
v 0.344291 0.436341 0.289017
v 0.339722 0.157402 0.879113
v 0.328633 0.112101 0.829995
v 0.300371 0.063383 0.853207
v 0.351122 0.063253 0.800019
v 0.351122 0.063253 0.701069
v 0.410069 0.183699 0.688034
v 0.422826 0.310293 0.591554
v 0.410069 0.203189 0.320945
v 0.354624 0.046688 0.320945
v 0.410069 0.203189 -0.296841
v 0.354624 0.046688 -0.296841
v 0.422826 0.322950 -0.385968
v 0.421665 0.322950 -0.571548
v 0.410069 0.245376 -0.653064
v 0.360021 0.112629 -0.689977
v 0.229527 0.641455 0.184994
v 0.229527 0.594611 -0.298971
v 0.313904 0.473272 -0.518737
v 0.358049 0.420332 -0.819387
v 0.392818 0.273275 -0.803546
v 0.345307 0.118199 -0.719389
v 0.344291 0.436341 -0.464634
v 0.257293 0.063253 0.701069
v 0.257293 0.183699 0.688034
v 0.257293 0.310293 0.591554
v 0.257293 0.322949 0.409264
v 0.257293 0.203189 0.320945
v 0.257293 0.046688 0.320945
v 0.257293 0.203189 -0.296841
v 0.257293 0.046688 -0.296841
v 0.257293 0.322950 -0.385968
v 0.257293 0.322950 -0.571548
v 0.257293 0.245376 -0.653064
v 0.257293 0.112515 -0.689977
v 0.216959 0.623589 0.194055
v 0.313623 0.452673 0.280734
v 0.220971 0.586000 -0.314568
v 0.291524 0.481879 -0.503148
v 0.239198 0.622580 0.177314
v 0.335326 0.450670 0.263395
v 0.334941 0.449235 -0.129400
v 0.239597 0.592143 -0.129400
v 0.334160 0.450557 -0.174578
v 0.334635 0.450685 -0.426230
v 0.239081 0.582721 -0.292040
v 0.239772 0.589441 -0.169316
v 0.333168 0.290664 0.915515
v 0.312636 0.189655 0.893696
v 0.340633 0.402044 -0.817417
v 0.370313 0.294207 -0.805801
v 0.166817 0.138512 -0.669905
v 0.166817 0.197487 -0.669905
v 0.166817 0.138512 -0.805379
v 0.166817 0.197487 -0.805379
v 0.225792 0.138512 -0.669905
v 0.225792 0.197487 -0.669905
v 0.225792 0.138512 -0.805379
v 0.225792 0.197487 -0.805379
v 0.000000 0.347827 0.986383
v -0.352773 0.306201 0.915148
v 0.000000 0.436341 0.289017
v -0.422826 0.322949 0.409264
v -0.322676 0.347827 0.888972
v -0.344291 0.436341 0.289017
v -0.339722 0.157402 0.879113
v -0.328633 0.112101 0.829995
v -0.300371 0.063383 0.853207
v 0.000000 0.145929 0.956022
v 0.000000 0.306201 0.992056
v 0.000000 0.112101 0.906904
v 0.000000 0.063383 0.930115
v -0.351122 0.063253 0.800019
v -0.351122 0.063253 0.701069
v -0.410069 0.183699 0.688034
v -0.422826 0.310293 0.591554
v -0.410069 0.203189 0.320945
v -0.354624 0.046688 0.320945
v -0.410069 0.203189 -0.296841
v -0.354624 0.046688 -0.296841
v -0.422826 0.322950 -0.385968
v -0.421665 0.322950 -0.571548
v -0.410069 0.245376 -0.653064
v -0.360021 0.112629 -0.689977
v 0.000000 0.641455 0.184994
v -0.229527 0.641455 0.184994
v 0.000000 0.594611 -0.298971
v -0.229527 0.594611 -0.298971
v 0.000000 0.473272 -0.518737
v -0.313904 0.473272 -0.518737
v 0.000000 0.420332 -0.819387
v -0.358049 0.420332 -0.819387
v 0.000000 0.273275 -0.803546
v -0.392818 0.273275 -0.803546
v 0.000000 0.118199 -0.719389
v -0.345307 0.118199 -0.719389
v -0.344291 0.436341 -0.464634
v -0.257293 0.063253 0.701069
v -0.257293 0.183699 0.688034
v -0.257293 0.310293 0.591554
v -0.257293 0.322949 0.409264
v -0.257293 0.203189 0.320945
v -0.257293 0.046688 0.320945
v -0.257293 0.203189 -0.296841
v -0.257293 0.046688 -0.296841
v -0.257293 0.322950 -0.385968
v -0.257293 0.322950 -0.571548
v -0.257293 0.245376 -0.653064
v -0.257293 0.112515 -0.689977
v 0.000000 0.046688 0.320945
v 0.000000 0.046688 -0.296841
v 0.000000 0.623595 0.194052
v -0.216959 0.623589 0.194055
v 0.000000 0.452672 0.280734
v -0.313623 0.452673 0.280734
v 0.000000 0.585999 -0.314568
v -0.220971 0.586000 -0.314568
v 0.000000 0.481885 -0.503138
v -0.291524 0.481879 -0.503148
v -0.239198 0.622580 0.177314
v -0.335326 0.450670 0.263395
v -0.334941 0.449235 -0.129400
v -0.239597 0.592143 -0.129400
v -0.334160 0.450557 -0.174578
v -0.334635 0.450685 -0.426230
v -0.239081 0.582721 -0.292040
v -0.239772 0.589441 -0.169316
v 0.000000 0.170716 0.959246
v 0.000000 0.290664 0.988293
v -0.333168 0.290664 0.915515
v -0.312636 0.189655 0.893696
v 0.000000 0.294207 -0.805801
v 0.000000 0.402044 -0.817417
v -0.340633 0.402044 -0.817417
v -0.370313 0.294207 -0.805801
v -0.166817 0.138512 -0.669905
v -0.166817 0.197487 -0.669905
v -0.166817 0.138512 -0.805379
v -0.166817 0.197487 -0.805379
v -0.225792 0.138512 -0.669905
v -0.225792 0.197487 -0.669905
v -0.225792 0.138512 -0.805379
v -0.225792 0.197487 -0.805379
vt 0.074723 0.843267
vt 0.075797 0.847128
vt 0.075154 0.851007
vt 0.049408 0.839368
vt 0.038694 0.845267
vt 0.038694 0.838411
vt 0.111908 0.839368
vt 0.101194 0.838355
vt 0.112908 0.839111
vt 0.038694 0.776209
vt 0.049075 0.776822
vt 0.038694 0.776177
vt 0.038694 0.776692
vt 0.048668 0.777220
vt 0.049606 0.777448
vt 0.112474 0.776965
vt 0.101194 0.776692
vt 0.112106 0.777448
vt 0.024440 0.768653
vt 0.024466 0.768019
vt 0.025170 0.768300
vt 0.012263 0.790351
vt 0.011884 0.789966
vt 0.012263 0.788789
vt 0.071273 0.844690
vt 0.072335 0.847374
vt 0.072048 0.848729
vt 0.075716 0.786554
vt 0.074933 0.794262
vt 0.074933 0.786543
vt 0.072048 0.851007
vt 0.072335 0.859842
vt 0.072048 0.860942
vt 0.038694 0.782767
vt 0.049108 0.782848
vt 0.038694 0.782848
vt 0.046315 0.846290
vt 0.038694 0.851048
vt 0.038694 0.846290
vt 0.101194 0.851048
vt 0.108531 0.851201
vt 0.101194 0.851201
vt 0.049117 0.853208
vt 0.038694 0.856164
vt 0.038694 0.853208
vt 0.038694 0.793664
vt 0.050005 0.793645
vt 0.038694 0.793645
vt 0.070555 0.761430
vt 0.072729 0.757115
vt 0.072729 0.761430
vt 0.071739 0.833903
vt 0.095681 0.826331
vt 0.098472 0.833903
vt 0.075246 0.862742
vt 0.075773 0.860458
vt 0.075793 0.864856
vt 0.076356 0.861769
vt 0.072335 0.864754
vt 0.071872 0.866166
vt 0.071896 0.863261
vt 0.085913 0.783632
vt 0.085028 0.782823
vt 0.086098 0.783448
vt 0.075154 0.860423
vt 0.074984 0.856798
vt 0.075002 0.856234
vt 0.074656 0.861096
vt 0.073203 0.858340
vt 0.287049 0.913262
vt 0.289892 0.909930
vt 0.289830 0.913312
vt 0.291533 0.909877
vt 0.294547 0.913198
vt 0.291533 0.913199
vt 0.287111 0.915434
vt 0.289892 0.915485
vt 0.281658 0.919907
vt 0.284443 0.917792
vt 0.284443 0.919907
vt 0.272188 0.922795
vt 0.273837 0.924668
vt 0.272186 0.924668
vt 0.290444 0.891583
vt 0.292154 0.893996
vt 0.289369 0.893996
vt 0.287111 0.919824
vt 0.289896 0.922415
vt 0.286879 0.922415
vt 0.282669 0.922758
vt 0.284443 0.922758
vt 0.288122 0.917125
vt 0.289896 0.919824
vt 0.292154 0.896708
vt 0.289137 0.896708
vt 0.075840 0.850252
vt 0.075734 0.843198
vt 0.076333 0.864674
vt 0.292995 0.917157
vt 0.292995 0.924089
vt 0.292246 0.917125
vt 0.292157 0.924053
vt 0.291579 0.919094
vt 0.291537 0.922416
vt 0.292808 0.900698
vt 0.292808 0.907862
vt 0.292322 0.907871
vt 0.291969 0.900714
vt 0.291574 0.905727
vt 0.291407 0.902349
vt 0.273329 0.901288
vt 0.275101 0.912548
vt 0.273329 0.912548
vt 0.275101 0.901288
vt 0.279785 0.912547
vt 0.288693 0.894643
vt 0.289975 0.894643
vt 0.288873 0.895010
vt 0.293183 0.895009
vt 0.275045 0.919707
vt 0.279725 0.920241
vt 0.279771 0.891583
vt 0.279785 0.901286
vt 0.275087 0.894358
vt 0.273378 0.894358
vt 0.273378 0.892555
vt 0.274302 0.891585
vt 0.082326 0.786661
vt 0.081267 0.786967
vt 0.081277 0.786149
vt 0.083498 0.786892
vt 0.045898 0.783700
vt 0.038694 0.783790
vt 0.038694 0.783700
vt 0.021963 0.793621
vt 0.024368 0.794671
vt 0.024140 0.794829
vt 0.969113 0.987002
vt 0.957075 0.899191
vt 0.974477 0.899191
vt 0.946083 0.989932
vt 0.951720 0.885487
vt 0.951720 0.989932
vt 0.110874 0.853055
vt 0.101194 0.853208
vt 0.101194 0.853055
vt 0.074357 0.860901
vt 0.986039 0.881263
vt 0.980871 0.993736
vt 0.979420 0.882194
vt 0.073347 0.856221
vt 0.073031 0.852288
vt 0.073274 0.852369
vt 0.073354 0.856720
vt 0.988780 0.967874
vt 0.986800 0.882121
vt 0.991041 0.882204
vt 0.075013 0.851319
vt 0.074982 0.859942
vt 0.226112 0.968935
vt 0.173084 0.985884
vt 0.174102 0.965814
vt 0.049757 0.776607
vt 0.038694 0.775855
vt 0.038694 0.775892
vt 0.025509 0.787330
vt 0.026950 0.786946
vt 0.026758 0.787177
vt 0.188010 0.920577
vt 0.244589 0.903681
vt 0.244589 0.920577
vt 0.021755 0.779724
vt 0.023300 0.780006
vt 0.021979 0.780621
vt 0.023557 0.784632
vt 0.023300 0.784632
vt 0.302833 0.984937
vt 0.307698 0.980072
vt 0.307698 0.984937
vt 0.236306 0.951208
vt 0.248159 0.939354
vt 0.248159 0.951208
vt 0.297482 0.984937
vt 0.302347 0.980072
vt 0.302347 0.984937
vt 0.297482 0.995640
vt 0.302347 0.990775
vt 0.302347 0.995640
vt 0.307698 0.990289
vt 0.302833 0.985424
vt 0.307698 0.985424
vt 0.074723 0.843267
vt 0.075154 0.851007
vt 0.075797 0.847128
vt 0.049408 0.839368
vt 0.111908 0.839368
vt 0.112908 0.839111
vt 0.049075 0.776822
vt 0.049974 0.776965
vt 0.048668 0.777220
vt 0.049606 0.777448
vt 0.112474 0.776965
vt 0.112106 0.777448
vt 0.024440 0.768653
vt 0.025170 0.768300
vt 0.024466 0.768019
vt 0.012263 0.790351
vt 0.012263 0.788789
vt 0.011884 0.789966
vt 0.071273 0.844690
vt 0.072335 0.847374
vt 0.071819 0.845157
vt 0.074933 0.794262
vt 0.075716 0.786554
vt 0.074933 0.786543
vt 0.072048 0.851007
vt 0.072335 0.859842
vt 0.072335 0.852124
vt 0.049108 0.782848
vt 0.050126 0.782767
vt 0.046315 0.846290
vt 0.108531 0.851201
vt 0.108815 0.851048
vt 0.049117 0.853208
vt 0.050005 0.793645
vt 0.050583 0.793664
vt 0.072729 0.757115
vt 0.070555 0.756522
vt 0.071739 0.833903
vt 0.095681 0.826331
vt 0.067473 0.826331
vt 0.075246 0.862742
vt 0.075773 0.860458
vt 0.075154 0.860423
vt 0.075793 0.864856
vt 0.076356 0.861769
vt 0.072335 0.864754
vt 0.071896 0.863261
vt 0.071872 0.866166
vt 0.085028 0.782823
vt 0.085913 0.783632
vt 0.086098 0.783448
vt 0.074984 0.856798
vt 0.074982 0.859942
vt 0.074656 0.861096
vt 0.073203 0.858340
vt 0.287049 0.913262
vt 0.289892 0.909930
vt 0.286879 0.909876
vt 0.294547 0.913198
vt 0.291533 0.909877
vt 0.291533 0.913199
vt 0.287111 0.915434
vt 0.289830 0.913312
vt 0.281658 0.919907
vt 0.284443 0.917792
vt 0.281426 0.917792
vt 0.272188 0.922795
vt 0.273837 0.924668
vt 0.273837 0.921883
vt 0.292154 0.893996
vt 0.290444 0.891583
vt 0.289369 0.893996
vt 0.289896 0.922415
vt 0.287111 0.919824
vt 0.286879 0.922415
vt 0.282669 0.922758
vt 0.284443 0.919907
vt 0.289896 0.919824
vt 0.288122 0.917125
vt 0.292154 0.896708
vt 0.289137 0.896708
vt 0.075840 0.850252
vt 0.075734 0.843198
vt 0.076333 0.864674
vt 0.292995 0.917157
vt 0.292246 0.917125
vt 0.292995 0.924089
vt 0.292157 0.924053
vt 0.291579 0.919094
vt 0.291537 0.922416
vt 0.292808 0.900698
vt 0.292322 0.907871
vt 0.292808 0.907862
vt 0.291969 0.900714
vt 0.291574 0.905727
vt 0.291407 0.902349
vt 0.275101 0.912548
vt 0.273329 0.901288
vt 0.273329 0.912548
vt 0.275101 0.901288
vt 0.288693 0.894643
vt 0.288873 0.895010
vt 0.289975 0.894643
vt 0.275045 0.919707
vt 0.275087 0.894358
vt 0.273378 0.894358
vt 0.273378 0.892555
vt 0.274302 0.891585
vt 0.082326 0.786661
vt 0.081277 0.786149
vt 0.081267 0.786967
vt 0.083498 0.786892
vt 0.045898 0.783700
vt 0.024368 0.794671
vt 0.021963 0.793621
vt 0.024140 0.794829
vt 0.969113 0.987002
vt 0.957075 0.987006
vt 0.946083 0.989932
vt 0.944283 0.885481
vt 0.110874 0.853055
vt 0.074357 0.860901
vt 0.073132 0.858536
vt 0.980871 0.993736
vt 0.986039 0.881263
vt 0.979420 0.882194
vt 0.073031 0.852288
vt 0.073347 0.856221
vt 0.073274 0.852369
vt 0.073354 0.856720
vt 0.988780 0.967874
vt 0.986800 0.882121
vt 0.986712 0.972234
vt 0.075013 0.851319
vt 0.075002 0.856234
vt 0.073358 0.858254
vt 0.226112 0.968935
vt 0.049757 0.776607
vt 0.050408 0.776611
vt 0.025509 0.787330
vt 0.026950 0.786946
vt 0.025110 0.786946
vt 0.188010 0.920577
vt 0.023300 0.780006
vt 0.021755 0.779724
vt 0.021979 0.780621
vt 0.023557 0.779724
vt 0.307698 0.980072
vt 0.302833 0.984937
vt 0.307698 0.984937
vt 0.248159 0.939354
vt 0.236306 0.951208
vt 0.248159 0.951208
vt 0.302347 0.980072
vt 0.297482 0.984937
vt 0.302347 0.984937
vt 0.302347 0.990775
vt 0.297482 0.995640
vt 0.302347 0.995640
vt 0.302833 0.985424
vt 0.307698 0.990289
vt 0.307698 0.985424
vt 0.050126 0.845267
vt 0.101194 0.838411
vt 0.049974 0.776965
vt 0.038694 0.776464
vt 0.101194 0.776209
vt 0.071819 0.845157
vt 0.075716 0.794273
vt 0.072335 0.852124
vt 0.050126 0.782767
vt 0.046315 0.851048
vt 0.108815 0.851048
vt 0.050583 0.856164
vt 0.050583 0.793664
vt 0.070555 0.756522
vt 0.067473 0.826331
vt 0.083739 0.783039
vt 0.286879 0.909876
vt 0.294547 0.909876
vt 0.281426 0.917792
vt 0.273837 0.921883
vt 0.292154 0.891583
vt 0.289896 0.917125
vt 0.046315 0.783790
vt 0.021755 0.793238
vt 0.944283 0.885481
vt 0.111617 0.853208
vt 0.073132 0.858536
vt 0.986039 0.973987
vt 0.073358 0.858254
vt 0.986712 0.972234
vt 0.228612 0.985907
vt 0.050408 0.776611
vt 0.025110 0.786946
vt 0.188010 0.903681
vt 0.023557 0.779724
vt 0.302833 0.980072
vt 0.236306 0.939354
vt 0.297482 0.980072
vt 0.297482 0.990775
vt 0.302833 0.990289
vt 0.050126 0.845267
vt 0.072048 0.848729
vt 0.075716 0.794273
vt 0.072048 0.860942
vt 0.046315 0.851048
vt 0.050583 0.856164
vt 0.098472 0.833903
vt 0.083739 0.783039
vt 0.294547 0.909876
vt 0.289892 0.915485
vt 0.272186 0.924668
vt 0.292154 0.891583
vt 0.284443 0.922758
vt 0.289896 0.917125
vt 0.046315 0.783790
vt 0.021755 0.793238
vt 0.974477 0.899191
vt 0.111617 0.853208
vt 0.986039 0.973987
vt 0.991041 0.882204
vt 0.228612 0.985907
vt 0.026758 0.787177
vt 0.188010 0.903681
vt 0.302833 0.980072
vt 0.236306 0.939354
vt 0.297482 0.980072
vt 0.297482 0.990775
vt 0.302833 0.990289
vn 0.5151 0.6886 0.5104
vn 0.7956 0.5868 0.1505
vn 0.8035 0.5949 0.0214
vn 0.0275 0.9909 0.1314
vn 0.0000 0.9902 0.1397
vn 0.0000 0.9920 0.1259
vn 0.2784 0.1790 0.9436
vn 0.7664 0.4366 0.4711
vn 0.2117 -0.1339 0.9681
vn 0.2151 -0.2425 0.9460
vn 0.2122 -0.1776 0.9609
vn 0.2244 0.4089 0.8845
vn 0.3900 0.2088 0.8968
vn 0.6827 0.1865 0.7065
vn 0.7095 -0.5163 0.4796
vn 0.1542 -0.8063 0.5710
vn 0.6512 -0.6128 0.4476
vn 0.9299 0.2866 0.2306
vn 0.9084 0.4182 0.0000
vn 0.9545 -0.1411 0.2628
vn 0.9426 -0.3339 -0.0000
vn 0.9794 -0.2021 0.0000
vn 0.9794 -0.2022 -0.0000
vn 0.8907 0.4540 0.0247
vn 0.9008 0.4341 -0.0019
vn 0.0000 0.4523 0.8919
vn -0.0000 0.9953 -0.0963
vn 0.0000 0.8754 -0.4833
vn -0.0000 0.9514 -0.3080
vn 0.0000 0.9848 -0.1734
vn -0.0000 0.9430 -0.3329
vn 0.0000 -0.1071 -0.9942
vn 0.0000 -0.4770 -0.8789
vn 0.8327 0.5487 -0.0743
vn 0.8047 0.5936 -0.0136
vn 0.9273 0.3608 -0.1003
vn 0.9070 0.4186 -0.0470
vn 0.9747 -0.1561 -0.1599
vn 0.9857 -0.0192 -0.1675
vn 0.8976 -0.2792 -0.3410
vn 0.8619 -0.1948 -0.4681
vn 0.8270 0.5622 -0.0020
vn 0.8244 0.5660 -0.0096
vn 0.7953 0.6050 -0.0378
vn 0.0000 -0.9338 0.3579
vn 0.0000 -0.8936 -0.4489
vn 0.0000 -0.9285 0.3712
vn 0.0000 -0.8858 -0.4641
vn 0.0000 -0.9077 0.4196
vn 0.0000 -0.9140 0.4056
vn 0.0000 -0.5511 0.8344
vn 0.0001 -0.5147 0.8574
vn 0.0000 -0.3581 0.9337
vn 0.0000 -0.3124 0.9500
vn 0.0001 -0.2678 0.9635
vn 0.0003 -0.2677 0.9635
vn 0.0000 -0.1076 -0.9942
vn 0.0000 -0.3705 -0.9288
vn 0.0000 -0.4197 -0.9077
vn 0.0000 -0.3604 -0.9328
vn 0.0000 -0.8994 -0.4372
vn 0.0000 -0.0000 1.0000
vn 0.0000 0.0000 -1.0000
vn 0.0000 -0.3145 -0.9493
vn 0.0000 -0.8802 -0.4745
vn 1.0000 0.0000 0.0000
vn 0.0000 -1.0000 -0.0000
vn -0.0003 -0.9985 -0.0556
vn 0.0032 -0.9999 0.0105
vn 0.0000 -0.9965 -0.0837
vn 0.0011 -0.9824 -0.1866
vn -0.0010 -0.9835 -0.1807
vn 0.0009 -0.9823 -0.1871
vn 0.0000 -0.9859 -0.1676
vn 0.0000 -0.9997 0.0232
vn 0.0000 -0.9999 0.0137
vn 0.0186 -0.9996 0.0215
vn -0.0009 -1.0000 0.0008
vn -0.0004 -1.0000 0.0010
vn 0.8691 -0.3928 0.3004
vn 0.8761 0.4807 -0.0366
vn 0.8677 0.4966 -0.0202
vn 0.8556 0.5156 -0.0449
vn 0.8814 0.4701 -0.0455
vn 0.8096 0.5859 -0.0348
vn 0.8003 0.5989 -0.0297
vn 0.8142 0.5806 -0.0099
vn 0.2097 -0.2317 0.9499
vn 0.2096 -0.2438 0.9469
vn 0.2077 -0.2305 0.9507
vn 0.2107 -0.2435 0.9467
vn -1.0000 0.0000 0.0000
vn 0.0000 1.0000 0.0000
vn -0.5151 0.6886 0.5104
vn -0.8035 0.5949 0.0214
vn -0.7956 0.5868 0.1505
vn -0.0275 0.9909 0.1314
vn -0.2784 0.1790 0.9436
vn -0.7664 0.4366 0.4711
vn -0.2117 -0.1339 0.9681
vn -0.2151 -0.2425 0.9460
vn -0.2183 -0.2439 0.9449
vn -0.3900 0.2088 0.8968
vn -0.2244 0.4089 0.8845
vn -0.6827 0.1865 0.7065
vn -0.1542 -0.8063 0.5710
vn -0.7095 -0.5163 0.4796
vn -0.6512 -0.6128 0.4476
vn -0.9299 0.2866 0.2306
vn -0.9084 0.4182 0.0000
vn -0.9545 -0.1411 0.2628
vn -0.9794 -0.2021 0.0000
vn -0.9426 -0.3339 -0.0000
vn -0.9794 -0.2022 -0.0000
vn -0.8907 0.4540 0.0247
vn -0.9008 0.4341 -0.0019
vn -0.8047 0.5936 -0.0136
vn -0.8327 0.5487 -0.0743
vn -0.9273 0.3608 -0.1003
vn -0.9070 0.4186 -0.0470
vn -0.9747 -0.1561 -0.1599
vn -0.9857 -0.0192 -0.1675
vn -0.8976 -0.2792 -0.3410
vn -0.8619 -0.1948 -0.4681
vn -0.8270 0.5622 -0.0020
vn -0.8142 0.5806 -0.0099
vn -0.7953 0.6050 -0.0378
vn -0.0001 -0.2678 0.9635
vn -0.0001 -0.5147 0.8574
vn 0.0003 -0.9985 -0.0556
vn -0.0032 -0.9999 0.0105
vn -0.0011 -0.9824 -0.1866
vn -0.0009 -0.9823 -0.1871
vn 0.0010 -0.9835 -0.1807
vn -0.0186 -0.9996 0.0215
vn 0.0009 -1.0000 0.0008
vn 0.0004 -1.0000 0.0010
vn -0.8691 -0.3928 0.3004
vn -0.8761 0.4807 -0.0366
vn -0.8244 0.5660 -0.0096
vn -0.8677 0.4966 -0.0202
vn -0.8814 0.4701 -0.0455
vn -0.8556 0.5156 -0.0449
vn -0.8096 0.5859 -0.0348
vn -0.8003 0.5989 -0.0297
vn -0.8650 0.5012 -0.0239
vn -0.2097 -0.2317 0.9499
vn -0.2122 -0.1776 0.9609
vn -0.2096 -0.2438 0.9469
vn -0.2077 -0.2305 0.9507
vn -0.2107 -0.2435 0.9467
vn 0.0000 0.9893 0.1460
vn 0.2866 0.1294 0.9493
vn 0.2183 -0.2439 0.9449
vn 0.2252 0.4191 0.8796
vn 0.1543 -0.8137 0.5604
vn 0.8650 0.5012 -0.0239
vn -0.2866 0.1294 0.9493
vn -0.2252 0.4191 0.8796
vn -0.1543 -0.8137 0.5604
vn -0.0003 -0.2677 0.9635
s 1
f 83/161/49 91/162/50 84/163/51
f 83/164/52 145/165/53 143/166/54
f 83/167/49 153/168/55 81/169/56
f 152/170/57 132/171/58 211/172/59
f 154/173/60 87/174/61 86/175/62
f 85/176/63 154/177/64 86/178/65
f 87/179/61 88/180/66 86/181/62
f 86/182/62 88/183/66 89/184/67
f 81/185/56 90/186/68 91/187/50
f 93/188/69 94/189/70 92/190/71
f 82/191/72 94/192/70 96/193/73
f 145/194/74 120/195/74 197/196/74
f 100/197/75 170/198/75 168/199/75
f 170/200/76 121/201/76 199/202/76
f 102/203/77 174/204/78 172/205/79
f 174/206/80 133/207/80 216/208/80
f 176/209/81 105/210/81 178/211/81
f 84/212/51 96/213/73 106/214/82
f 102/215/83 96/216/73 103/217/84
f 96/216/73 97/218/85 103/217/84
f 98/219/86 104/220/87 97/221/85
f 105/222/88 98/223/86 99/224/89
f 106/225/82 127/226/90 125/227/91
f 102/228/83 101/229/92 106/225/82
f 97/230/93 115/231/94 116/232/95
f 91/233/96 110/234/97 82/235/98
f 98/236/99 116/232/95 117/237/100
f 92/238/101 110/239/97 111/240/102
f 99/241/103 117/242/100 118/243/104
f 89/244/105 108/245/106 90/246/107
f 94/247/108 115/248/94 96/249/109
f 93/250/110 111/240/102 112/251/110
f 95/252/111 113/253/112 94/247/108
f 90/246/107 109/254/113 91/255/96
f 84/163/51 91/162/50 82/256/72
f 91/162/50 83/161/49 81/257/56
f 97/218/85 104/258/87 103/217/84
f 107/259/114 112/260/114 108/261/114
f 112/260/114 111/262/114 108/261/114
f 108/261/114 111/262/114 109/263/114
f 110/264/114 109/263/114 111/262/114
f 114/265/114 118/266/114 117/267/114
f 114/265/114 117/267/114 113/268/114
f 117/267/114 116/269/114 113/268/114
f 113/268/114 116/269/114 115/270/114
f 93/271/115 114/272/116 95/273/115
f 112/274/117 194/275/118 114/272/116
f 99/276/119 118/277/120 105/278/121
f 178/279/122 105/278/121 118/277/120
f 118/280/120 114/272/116 178/281/122
f 114/272/116 194/275/118 178/281/122
f 155/282/123 193/283/124 112/274/117
f 112/274/117 107/284/125 155/282/123
f 89/285/115 88/286/126 107/284/125
f 88/286/126 87/287/127 107/284/125
f 155/282/123 107/284/125 87/287/127
f 86/288/65 89/289/128 90/290/68
f 85/291/63 86/288/65 90/290/68
f 119/292/74 168/293/74 195/294/74
f 120/295/74 100/296/74 119/297/74
f 119/298/74 197/299/74 120/300/74
f 121/301/76 201/302/76 199/303/76
f 122/304/76 172/305/79 201/306/76
f 122/307/76 101/229/76 102/228/77
f 125/308/91 123/309/129 124/310/130
f 126/311/131 100/312/132 123/313/129
f 130/314/133 101/229/92 126/311/131
f 129/315/134 127/316/90 128/317/135
f 100/312/132 124/318/130 123/313/129
f 125/227/91 130/314/133 126/311/131
f 101/229/92 128/319/135 106/225/82
f 132/320/58 212/321/136 211/322/59
f 131/323/137 153/324/138 212/325/136
f 132/326/58 81/327/139 131/328/137
f 133/329/80 215/330/80 216/331/80
f 103/332/80 134/333/80 133/334/80
f 134/333/80 176/335/80 215/336/80
f 136/337/140 137/338/140 135/339/140
f 138/340/111 141/341/111 137/342/111
f 142/343/114 139/344/114 141/345/114
f 141/346/115 135/347/115 137/348/115
f 138/349/141 140/350/141 142/351/141
f 147/352/142 148/353/143 159/354/144
f 145/165/53 147/355/145 143/166/54
f 153/168/146 147/356/142 144/357/147
f 152/170/148 214/358/149 149/359/150
f 151/360/151 154/173/152 150/361/153
f 154/177/154 149/362/155 150/363/156
f 151/364/151 150/365/153 156/366/157
f 150/367/153 157/368/158 156/369/157
f 144/370/147 158/371/159 149/372/155
f 162/373/160 161/374/161 160/375/162
f 146/376/163 162/377/160 160/378/162
f 145/194/74 198/379/74 148/380/74
f 170/198/75 169/381/75 168/199/75
f 170/200/76 200/382/76 171/383/76
f 174/204/78 173/384/77 172/205/79
f 174/206/80 217/385/80 175/386/80
f 176/209/81 179/387/81 177/388/81
f 148/389/143 164/390/164 146/391/163
f 173/392/165 164/393/164 180/394/166
f 164/393/164 175/395/167 165/396/168
f 166/397/169 165/398/168 177/399/170
f 166/400/169 179/401/171 167/402/172
f 207/403/173 208/404/174 180/394/166
f 173/405/165 180/394/166 171/406/175
f 165/407/93 189/408/94 164/409/109
f 184/410/97 159/411/96 146/412/98
f 166/413/99 190/414/95 165/407/93
f 160/415/101 184/416/97 146/417/98
f 167/418/176 191/419/177 166/420/99
f 182/421/106 157/422/105 158/423/107
f 189/424/94 162/425/108 164/426/109
f 161/427/110 185/428/102 160/415/101
f 187/429/112 163/430/111 162/425/108
f 183/431/113 158/423/107 159/432/96
f 148/353/143 146/433/163 159/354/144
f 159/354/144 144/434/147 147/352/142
f 165/396/168 175/395/167 177/435/170
f 181/436/140 182/437/140 186/438/140
f 186/438/140 182/437/140 185/439/140
f 182/437/140 183/440/140 185/439/140
f 184/441/140 185/439/140 183/440/140
f 188/442/140 191/443/140 192/444/140
f 188/442/140 187/445/140 191/443/140
f 191/443/140 187/445/140 190/446/140
f 187/445/140 189/447/140 190/446/140
f 188/448/178 161/449/115 163/450/115
f 194/275/118 186/451/179 188/448/178
f 167/452/180 179/453/181 192/454/182
f 178/279/122 192/454/182 179/453/181
f 192/455/182 178/281/122 188/448/178
f 188/448/178 178/281/122 194/275/118
f 155/282/123 186/451/179 193/283/124
f 186/451/179 155/282/123 181/456/183
f 157/457/115 181/456/183 156/458/184
f 156/458/184 181/456/183 151/459/185
f 155/282/123 151/459/185 181/456/183
f 150/460/156 158/461/159 157/462/186
f 149/463/155 158/461/159 150/460/156
f 168/293/74 196/464/74 195/294/74
f 169/465/74 198/466/74 196/467/74
f 196/468/74 197/299/74 195/469/74
f 200/470/76 201/302/76 202/471/76
f 172/305/79 202/472/76 201/306/76
f 202/473/76 171/406/76 200/474/76
f 203/475/187 205/476/188 204/477/189
f 169/478/190 206/479/191 203/480/187
f 171/406/175 210/481/192 206/479/191
f 209/482/193 207/483/173 210/484/192
f 169/478/190 204/485/189 148/353/194
f 205/486/188 210/481/192 207/403/173
f 171/406/175 208/404/174 209/487/193
f 212/321/195 214/488/149 211/322/196
f 213/489/197 153/324/198 144/490/199
f 214/491/149 144/492/199 149/493/150
f 215/330/80 217/494/80 216/331/80
f 218/495/80 175/496/80 217/497/80
f 218/495/80 176/335/80 177/498/80
f 221/499/114 220/500/114 219/501/114
f 225/502/111 222/503/111 221/504/111
f 223/505/140 226/506/140 225/507/140
f 219/508/115 225/509/115 221/510/115
f 224/511/141 222/512/141 226/513/141
f 83/164/52 84/514/200 145/165/53
f 83/167/49 143/515/201 153/168/55
f 152/170/57 85/516/202 132/171/58
f 154/173/60 155/517/203 87/174/61
f 85/176/63 152/518/204 154/177/64
f 81/185/56 85/519/63 90/186/68
f 93/188/69 95/520/69 94/189/70
f 82/191/72 92/521/71 94/192/70
f 145/194/74 84/522/74 120/195/74
f 100/197/75 101/523/75 170/198/75
f 170/200/76 101/524/76 121/201/76
f 102/203/77 103/525/78 174/204/78
f 174/206/80 103/526/80 133/207/80
f 176/209/81 104/527/81 105/210/81
f 84/212/51 82/528/72 96/213/73
f 102/215/83 106/225/82 96/216/73
f 105/222/88 104/529/87 98/223/86
f 124/318/130 84/163/205 125/227/91
f 106/225/82 128/319/135 127/226/90
f 125/227/91 84/163/205 106/225/82
f 97/230/93 96/530/109 115/231/94
f 91/233/96 109/531/113 110/234/97
f 98/236/99 97/230/93 116/232/95
f 92/238/101 82/532/98 110/239/97
f 99/241/103 98/533/99 117/242/100
f 89/244/105 107/534/105 108/245/106
f 94/247/108 113/253/112 115/248/94
f 93/250/110 92/238/101 111/240/102
f 95/252/111 114/535/111 113/253/112
f 90/246/107 108/245/106 109/254/113
f 93/271/115 112/274/117 114/272/116
f 112/274/117 193/283/124 194/275/118
f 119/292/74 100/536/74 168/293/74
f 120/295/74 84/537/74 100/296/74
f 119/298/74 195/469/74 197/299/74
f 121/301/76 122/538/76 201/302/76
f 122/304/76 102/539/77 172/305/79
f 122/307/76 121/540/76 101/229/76
f 125/308/91 126/541/131 123/309/129
f 126/311/131 101/229/92 100/312/132
f 130/314/133 129/542/134 101/229/92
f 129/315/134 130/543/133 127/316/90
f 100/312/132 84/163/205 124/318/130
f 125/227/91 127/226/90 130/314/133
f 101/229/92 129/542/134 128/319/135
f 132/320/58 131/544/137 212/321/136
f 131/323/137 81/545/139 153/324/138
f 132/326/58 85/546/202 81/327/139
f 133/329/80 134/547/80 215/330/80
f 103/332/80 104/548/80 134/333/80
f 134/333/80 104/548/80 176/335/80
f 136/337/140 138/549/140 137/338/140
f 138/340/111 142/550/111 141/341/111
f 142/343/114 140/551/114 139/344/114
f 141/346/115 139/552/115 135/347/115
f 138/349/141 136/553/141 140/350/141
f 145/165/53 148/554/200 147/355/145
f 153/168/146 143/515/206 147/356/142
f 152/170/148 211/172/196 214/358/149
f 151/360/151 155/517/207 154/173/152
f 154/177/154 152/518/208 149/362/155
f 144/370/147 159/555/144 158/371/159
f 162/373/160 163/556/161 161/374/161
f 146/376/163 164/557/164 162/377/160
f 145/194/74 197/196/74 198/379/74
f 170/198/75 171/558/75 169/381/75
f 170/200/76 199/202/76 200/382/76
f 174/204/78 175/559/78 173/384/77
f 174/206/80 216/208/80 217/385/80
f 176/209/81 178/211/81 179/387/81
f 148/389/143 180/560/166 164/390/164
f 173/392/165 175/395/167 164/393/164
f 166/400/169 177/561/170 179/401/171
f 180/394/166 148/353/194 205/486/188
f 205/486/188 207/403/173 180/394/166
f 148/353/194 204/485/189 205/486/188
f 165/407/93 190/414/95 189/408/94
f 184/410/97 183/562/113 159/411/96
f 166/413/99 191/563/177 190/414/95
f 160/415/101 185/428/102 184/416/97
f 167/418/176 192/564/209 191/419/177
f 182/421/106 181/565/105 157/422/105
f 189/424/94 187/429/112 162/425/108
f 161/427/110 186/566/110 185/428/102
f 187/429/112 188/567/111 163/430/111
f 183/431/113 182/421/106 158/423/107
f 188/448/178 186/451/179 161/449/115
f 194/275/118 193/283/124 186/451/179
f 168/293/74 169/568/74 196/464/74
f 169/465/74 148/569/74 198/466/74
f 196/468/74 198/570/74 197/299/74
f 200/470/76 199/303/76 201/302/76
f 172/305/79 173/571/77 202/472/76
f 202/473/76 173/405/77 171/406/76
f 203/475/187 206/572/191 205/476/188
f 169/478/190 171/406/175 206/479/191
f 171/406/175 209/487/193 210/481/192
f 209/482/193 208/573/174 207/483/173
f 169/478/190 203/480/187 204/485/189
f 205/486/188 206/479/191 210/481/192
f 171/406/175 180/394/166 208/404/174
f 212/321/195 213/574/197 214/488/149
f 213/489/197 212/325/195 153/324/198
f 214/491/149 213/575/197 144/492/199
f 215/330/80 218/576/80 217/494/80
f 218/495/80 177/498/80 175/496/80
f 218/495/80 215/336/80 176/335/80
f 221/499/114 222/577/114 220/500/114
f 225/502/111 226/578/111 222/503/111
f 223/505/140 224/579/140 226/506/140
f 219/508/115 223/580/115 225/509/115
f 224/511/141 220/581/141 222/512/141
