texture textures/cars.png
v 0.297857 0.310884 0.469453
v 0.407557 0.310884 0.469453
v 0.297857 0.251532 0.387762
v 0.407557 0.251532 0.387762
v 0.297857 0.155499 0.356559
v 0.407557 0.155499 0.356559
v 0.297857 0.059465 0.387762
v 0.407557 0.059465 0.387762
v 0.297857 0.000113 0.469453
v 0.407557 0.000113 0.469453
v 0.297857 0.000113 0.570429
v 0.407557 0.000113 0.570429
v 0.297857 0.059465 0.652120
v 0.407557 0.059465 0.652120
v 0.297857 0.155498 0.683323
v 0.407557 0.155498 0.683323
v 0.297857 0.251532 0.652120
v 0.407557 0.251532 0.652120
v 0.297857 0.310884 0.570429
v 0.407557 0.310884 0.570429
vt 0.524372 0.971647
vt 0.612156 0.959848
vt 0.524372 0.959848
vt 0.612156 0.940757
vt 0.524372 0.940757
vt 0.612156 0.921665
vt 0.524372 0.921665
vt 0.524372 0.909866
vt 0.612156 0.909866
vt 0.524372 0.909866
vt 0.612156 0.909866
vt 0.524372 0.921665
vt 0.612156 0.921665
vt 0.524372 0.940757
vt 0.612156 0.940757
vt 0.524372 0.959848
vt 0.612156 0.959848
vt 0.524372 0.971647
vt 0.612156 0.971647
vt 0.512421 0.891662
vt 0.519896 0.891662
vt 0.518469 0.897068
vt 0.250082 0.022727
vt 0.383670 0.433867
vt 0.033933 0.179769
vt 0.612156 0.971647
vt 0.516159 0.897992
vt 0.513849 0.897068
vt 0.512421 0.894650
vt 0.513849 0.889244
vt 0.516159 0.888320
vt 0.518469 0.889244
vt 0.519896 0.894650
vt 0.116495 0.433868
vt 0.033933 0.320231
vt 0.116495 0.066133
vt 0.383670 0.066133
vt 0.466232 0.179769
vt 0.466232 0.320231
vt 0.250082 0.477273
vn 0.0000 0.9511 -0.3090
vn 0.0000 0.5878 -0.8090
vn 0.0000 0.0000 -1.0000
vn 0.0000 -0.5878 -0.8090
vn 0.0000 -0.9511 -0.3090
vn 0.0000 -0.9511 0.3090
vn 0.0000 -0.5878 0.8090
vn 0.0000 -0.0000 1.0000
vn 0.0000 0.5878 0.8090
vn 0.0000 0.9511 0.3090
vn -1.0000 0.0000 0.0000
vn 1.0000 -0.0000 0.0000
s 1
f 1/1/1 4/2/2 3/3/2
f 3/3/2 6/4/3 5/5/3
f 5/5/3 8/6/4 7/7/4
f 8/6/4 9/8/5 7/7/4
f 10/9/5 11/10/6 9/8/5
f 12/11/6 13/12/7 11/10/6
f 14/13/7 15/14/8 13/12/7
f 16/15/8 17/16/9 15/14/8
f 18/17/9 19/18/10 17/16/9
f 19/18/10 2/19/1 1/1/1
f 7/20/11 15/21/11 19/22/11
f 18/23/12 10/24/12 2/25/12
f 1/1/1 2/19/1 4/2/2
f 3/3/2 4/2/2 6/4/3
f 5/5/3 6/4/3 8/6/4
f 8/6/4 10/9/5 9/8/5
f 10/9/5 12/11/6 11/10/6
f 12/11/6 14/13/7 13/12/7
f 14/13/7 16/15/8 15/14/8
f 16/15/8 18/17/9 17/16/9
f 18/17/9 20/26/10 19/18/10
f 19/18/10 20/26/10 2/19/1
f 19/22/11 1/27/11 3/28/11
f 3/28/11 5/29/11 7/20/11
f 7/20/11 9/30/11 11/31/11
f 11/31/11 13/32/11 7/20/11
f 15/21/11 17/33/11 19/22/11
f 19/22/11 3/28/11 7/20/11
f 7/20/11 13/32/11 15/21/11
f 6/34/12 4/35/12 2/25/12
f 2/25/12 20/36/12 18/23/12
f 18/23/12 16/37/12 14/38/12
f 14/38/12 12/39/12 10/24/12
f 10/24/12 8/40/12 6/34/12
f 6/34/12 2/25/12 10/24/12
f 18/23/12 14/38/12 10/24/12
o RLW_Cylinder.005
v 0.280502 0.310884 -0.515593
v 0.414468 0.310884 -0.515593
v 0.280502 0.251532 -0.597284
v 0.414468 0.251532 -0.597284
v 0.280502 0.155499 -0.628487
v 0.414468 0.155499 -0.628487
v 0.280502 0.059465 -0.597284
v 0.414468 0.059465 -0.597284
v 0.280502 0.000113 -0.515593
v 0.414468 0.000113 -0.515593
v 0.280502 0.000113 -0.414618
v 0.414468 0.000113 -0.414618
v 0.280502 0.059465 -0.332927
v 0.414468 0.059465 -0.332927
v 0.280502 0.155499 -0.301724
v 0.414468 0.155499 -0.301724
v 0.280502 0.251532 -0.332927
v 0.414468 0.251532 -0.332927
v 0.280502 0.310884 -0.414618
v 0.414468 0.310884 -0.414618
vt 0.524372 0.971647
vt 0.612156 0.959848
vt 0.524372 0.959848
vt 0.612156 0.940757
vt 0.524372 0.940757
vt 0.524372 0.921665
vt 0.612156 0.921665
vt 0.524372 0.909866
vt 0.612156 0.909866
vt 0.524372 0.909866
vt 0.524372 0.921665
vt 0.612156 0.921665
vt 0.524372 0.940757
vt 0.612156 0.940757
vt 0.524372 0.959848
vt 0.612156 0.959848
vt 0.524372 0.971647
vt 0.612156 0.971647
vt 0.512421 0.891662
vt 0.519896 0.891662
vt 0.518469 0.897068
vt 0.250082 0.022727
vt 0.250082 0.477273
vt 0.116495 0.433868
vt 0.612156 0.971647
vt 0.612156 0.909866
vt 0.516159 0.897992
vt 0.513849 0.897068
vt 0.512421 0.894650
vt 0.513849 0.889244
vt 0.516159 0.888320
vt 0.518469 0.889244
vt 0.519896 0.894650
vt 0.033933 0.320231
vt 0.033933 0.179769
vt 0.116495 0.066133
vt 0.383670 0.066133
vt 0.466232 0.179769
vt 0.466232 0.320231
vt 0.383670 0.433867
vn 0.0000 0.9511 -0.3090
vn 0.0000 0.5878 -0.8090
vn 0.0000 -0.0000 -1.0000
vn 0.0000 -0.5878 -0.8090
vn 0.0000 -0.9511 -0.3090
vn 0.0000 -0.9511 0.3090
vn 0.0000 -0.5878 0.8090
vn 0.0000 -0.0000 1.0000
vn 0.0000 0.5878 0.8090
vn 0.0000 0.9511 0.3090
vn -1.0000 0.0000 0.0000
vn 1.0000 -0.0000 -0.0000
s 1
f 21/41/13 24/42/14 23/43/14
f 23/43/14 26/44/15 25/45/15
f 26/44/15 27/46/16 25/45/15
f 28/47/16 29/48/17 27/46/16
f 29/48/17 32/49/18 31/50/18
f 32/49/18 33/51/19 31/50/18
f 34/52/19 35/53/20 33/51/19
f 36/54/20 37/55/21 35/53/20
f 38/56/21 39/57/22 37/55/21
f 40/58/22 21/41/13 39/57/22
f 27/59/23 35/60/23 39/61/23
f 38/62/24 28/63/24 26/64/24
f 21/41/13 22/65/13 24/42/14
f 23/43/14 24/42/14 26/44/15
f 26/44/15 28/47/16 27/46/16
f 28/47/16 30/66/17 29/48/17
f 29/48/17 30/66/17 32/49/18
f 32/49/18 34/52/19 33/51/19
f 34/52/19 36/54/20 35/53/20
f 36/54/20 38/56/21 37/55/21
f 38/56/21 40/58/22 39/57/22
f 40/58/22 22/65/13 21/41/13
f 39/61/23 21/67/23 23/68/23
f 23/68/23 25/69/23 27/59/23
f 27/59/23 29/70/23 31/71/23
f 31/71/23 33/72/23 27/59/23
f 35/60/23 37/73/23 39/61/23
f 39/61/23 23/68/23 27/59/23
f 27/59/23 33/72/23 35/60/23
f 26/64/24 24/74/24 22/75/24
f 22/75/24 40/76/24 26/64/24
f 38/62/24 36/77/24 34/78/24
f 34/78/24 32/79/24 30/80/24
f 30/80/24 28/63/24 38/62/24
f 26/64/24 40/76/24 38/62/24
f 38/62/24 34/78/24 30/80/24
o RRW_Cylinder.006
v -0.280502 0.310884 -0.414618
v -0.414468 0.310884 -0.414618
v -0.280502 0.251532 -0.332927
v -0.414468 0.251532 -0.332927
v -0.280502 0.155499 -0.301724
v -0.414468 0.155499 -0.301724
v -0.280502 0.059465 -0.332927
v -0.414468 0.059465 -0.332927
v -0.280502 0.000113 -0.414618
v -0.414468 0.000113 -0.414618
v -0.280502 0.000113 -0.515593
v -0.414468 0.000113 -0.515593
v -0.280502 0.059465 -0.597284
v -0.414468 0.059465 -0.597284
v -0.280502 0.155499 -0.628487
v -0.414468 0.155499 -0.628487
v -0.280502 0.251532 -0.597284
v -0.414468 0.251532 -0.597284
v -0.280502 0.310884 -0.515593
v -0.414468 0.310884 -0.515593
vt 0.612156 0.971647
vt 0.524372 0.959848
vt 0.524372 0.971647
vt 0.612156 0.940757
vt 0.524372 0.940757
vt 0.612156 0.921665
vt 0.524372 0.921665
vt 0.524372 0.909866
vt 0.612156 0.909866
vt 0.524372 0.909866
vt 0.612156 0.909866
vt 0.524372 0.921665
vt 0.612156 0.921665
vt 0.524372 0.940757
vt 0.612156 0.940757
vt 0.524372 0.959848
vt 0.612156 0.959848
vt 0.524372 0.971647
vt 0.612156 0.971647
vt 0.512421 0.891662
vt 0.519896 0.891662
vt 0.518469 0.897068
vt 0.250082 0.022727
vt 0.250082 0.477273
vt 0.116495 0.433868
vt 0.612156 0.959848
vt 0.516159 0.897992
vt 0.513849 0.897068
vt 0.512421 0.894650
vt 0.513849 0.889244
vt 0.516159 0.888320
vt 0.518469 0.889244
vt 0.519896 0.894650
vt 0.033933 0.320231
vt 0.033933 0.179769
vt 0.116495 0.066133
vt 0.383670 0.066133
vt 0.466232 0.179769
vt 0.466232 0.320231
vt 0.383670 0.433867
vn 0.0000 0.9511 0.3090
vn 0.0000 0.5878 0.8090
vn 0.0000 -0.0000 1.0000
vn 0.0000 -0.5878 0.8090
vn 0.0000 -0.9511 0.3090
vn 0.0000 -0.9511 -0.3090
vn 0.0000 -0.5878 -0.8090
vn -0.0000 0.0000 -1.0000
vn -0.0000 0.5878 -0.8090
vn 0.0000 0.9511 -0.3090
vn 1.0000 -0.0000 0.0000
vn -1.0000 -0.0000 -0.0000
s 1
f 42/81/25 43/82/26 41/83/25
f 43/82/26 46/84/27 45/85/27
f 45/85/27 48/86/28 47/87/28
f 48/86/28 49/88/29 47/87/28
f 50/89/29 51/90/30 49/88/29
f 52/91/30 53/92/31 51/90/30
f 54/93/31 55/94/32 53/92/31
f 56/95/32 57/96/33 55/94/32
f 58/97/33 59/98/34 57/96/33
f 60/99/34 41/83/25 59/98/34
f 47/100/35 55/101/35 59/102/35
f 58/103/36 48/104/36 46/105/36
f 42/81/25 44/106/26 43/82/26
f 43/82/26 44/106/26 46/84/27
f 45/85/27 46/84/27 48/86/28
f 48/86/28 50/89/29 49/88/29
f 50/89/29 52/91/30 51/90/30
f 52/91/30 54/93/31 53/92/31
f 54/93/31 56/95/32 55/94/32
f 56/95/32 58/97/33 57/96/33
f 58/97/33 60/99/34 59/98/34
f 60/99/34 42/81/25 41/83/25
f 59/102/35 41/107/35 43/108/35
f 43/108/35 45/109/35 47/100/35
f 47/100/35 49/110/35 51/111/35
f 51/111/35 53/112/35 47/100/35
f 55/101/35 57/113/35 59/102/35
f 59/102/35 43/108/35 47/100/35
f 47/100/35 53/112/35 55/101/35
f 46/105/36 44/114/36 42/115/36
f 42/115/36 60/116/36 46/105/36
f 58/103/36 56/117/36 54/118/36
f 54/118/36 52/119/36 50/120/36
f 50/120/36 48/104/36 58/103/36
f 46/105/36 60/116/36 58/103/36
f 58/103/36 54/118/36 50/120/36
o FRW_Cylinder.007
v -0.297857 0.310884 0.570429
v -0.407557 0.310884 0.570429
v -0.297857 0.251532 0.652120
v -0.407557 0.251532 0.652120
v -0.297857 0.155498 0.683323
v -0.407557 0.155498 0.683323
v -0.297857 0.059465 0.652120
v -0.407557 0.059465 0.652120
v -0.297857 0.000113 0.570429
v -0.407557 0.000113 0.570429
v -0.297857 0.000113 0.469453
v -0.407557 0.000113 0.469453
v -0.297857 0.059465 0.387762
v -0.407557 0.059465 0.387762
v -0.297857 0.155499 0.356559
v -0.407557 0.155499 0.356559
v -0.297857 0.251532 0.387762
v -0.407557 0.251532 0.387762
v -0.297857 0.310884 0.469453
v -0.407557 0.310884 0.469453
vt 0.524372 0.971647
vt 0.612156 0.959848
vt 0.524372 0.959848
vt 0.612156 0.940757
vt 0.524372 0.940757
vt 0.612156 0.921665
vt 0.524372 0.921665
vt 0.612156 0.909866
vt 0.524372 0.909866
vt 0.524372 0.909866
vt 0.612156 0.909866
vt 0.524372 0.921665
vt 0.612156 0.921665
vt 0.524372 0.940757
vt 0.612156 0.940757
vt 0.524372 0.959848
vt 0.612156 0.959848
vt 0.524372 0.971647
vt 0.612156 0.971647
vt 0.512421 0.891662
vt 0.519896 0.891662
vt 0.518469 0.897068
vt 0.250082 0.022727
vt 0.250082 0.477273
vt 0.116495 0.433868
vt 0.612156 0.971647
vt 0.516159 0.897992
vt 0.513849 0.897068
vt 0.512421 0.894650
vt 0.513849 0.889244
vt 0.516159 0.888320
vt 0.518469 0.889244
vt 0.519896 0.894650
vt 0.033933 0.320231
vt 0.033933 0.179769
vt 0.116495 0.066133
vt 0.383670 0.066133
vt 0.466232 0.179769
vt 0.466232 0.320231
vt 0.383670 0.433867
vn 0.0000 0.9511 0.3090
vn 0.0000 0.5878 0.8090
vn 0.0000 -0.0000 1.0000
vn 0.0000 -0.5878 0.8090
vn 0.0000 -0.9511 0.3090
vn 0.0000 -0.9511 -0.3090
vn 0.0000 -0.5878 -0.8090
vn -0.0000 0.0000 -1.0000
vn -0.0000 0.5878 -0.8090
vn 0.0000 0.9511 -0.3090
vn 1.0000 -0.0000 0.0000
vn -1.0000 -0.0000 0.0000
s 1
f 61/121/37 64/122/38 63/123/38
f 63/123/38 66/124/39 65/125/39
f 65/125/39 68/126/40 67/127/40
f 67/127/40 70/128/41 69/129/41
f 70/128/41 71/130/42 69/129/41
f 72/131/42 73/132/43 71/130/42
f 74/133/43 75/134/44 73/132/43
f 76/135/44 77/136/45 75/134/44
f 78/137/45 79/138/46 77/136/45
f 80/139/46 61/121/37 79/138/46
f 67/140/47 75/141/47 79/142/47
f 78/143/48 68/144/48 66/145/48
f 61/121/37 62/146/37 64/122/38
f 63/123/38 64/122/38 66/124/39
f 65/125/39 66/124/39 68/126/40
f 67/127/40 68/126/40 70/128/41
f 70/128/41 72/131/42 71/130/42
f 72/131/42 74/133/43 73/132/43
f 74/133/43 76/135/44 75/134/44
f 76/135/44 78/137/45 77/136/45
f 78/137/45 80/139/46 79/138/46
f 80/139/46 62/146/37 61/121/37
f 79/142/47 61/147/47 63/148/47
f 63/148/47 65/149/47 67/140/47
f 67/140/47 69/150/47 71/151/47
f 71/151/47 73/152/47 67/140/47
f 75/141/47 77/153/47 79/142/47
f 79/142/47 63/148/47 67/140/47
f 67/140/47 73/152/47 75/141/47
f 66/145/48 64/154/48 62/155/48
f 62/155/48 80/156/48 66/145/48
f 78/143/48 76/157/48 74/158/48
f 74/158/48 72/159/48 70/160/48
f 70/160/48 68/144/48 78/143/48
f 66/145/48 80/156/48 78/143/48
f 78/143/48 74/158/48 70/160/48
o Body_Plane.001
v 0.313812 0.236872 0.974107
v 0.372745 0.432717 0.374235
v 0.297069 0.106130 0.969486
v 0.361611 0.105479 0.712472
v 0.406914 0.290206 0.371680
v 0.368982 0.090139 0.314693
v 0.372745 0.432717 -0.352671
v 0.406913 0.290206 -0.286503
v 0.368982 0.090139 -0.286503
v 0.326859 0.432717 -0.844227
v 0.326859 0.296843 -0.881284
v 0.326859 0.186932 -0.881284
v 0.406913 0.133585 -0.670242
v 0.406913 0.292934 -0.617356
v 0.406913 0.354194 -0.471246
v 0.250699 0.105479 0.712472
v 0.250699 0.090139 0.314693
v 0.250699 0.290206 -0.286503
v 0.250699 0.090139 -0.286503
v 0.250699 0.133585 -0.670242
v 0.250699 0.292934 -0.617356
v 0.250699 0.354194 -0.471246
v 0.303337 0.404751 -0.851854
v 0.303337 0.324742 -0.873675
v 0.164842 0.152306 -0.700497
v 0.164842 0.189462 -0.731903
v 0.164842 0.131687 -0.874905
v 0.164842 0.180338 -0.874905
v 0.213493 0.152306 -0.700497
v 0.213493 0.189462 -0.731903
v 0.213493 0.131687 -0.874905
v 0.213493 0.180338 -0.874905
v 0.406914 0.284032 0.667898
v 0.389925 0.198629 0.698019
v 0.406914 0.331311 0.585741
v 0.406914 0.331311 0.455100
v 0.250699 0.290206 0.371680
v 0.250699 0.284032 0.667898
v 0.250699 0.198629 0.698019
v 0.250699 0.331311 0.585741
v 0.250699 0.331311 0.455100
v 0.228838 0.570077 0.105191
v 0.228838 0.570077 -0.303589
v 0.331403 0.432717 -0.616431
v 0.331403 0.432717 0.374235
v 0.297439 0.416394 -0.677735
v 0.226195 0.514005 -0.733030
v 0.297439 0.416394 -0.830641
v 0.226195 0.514005 -0.830641
v 0.329793 0.416394 -0.677735
v 0.258549 0.514005 -0.733030
v 0.329793 0.416394 -0.830641
v 0.258549 0.514005 -0.830641
v 0.243123 0.490813 -0.830641
v 0.243121 0.490816 -0.720280
v 0.359037 0.354126 0.614915
v 0.217402 0.555542 0.133661
v 0.298300 0.446788 0.346673
v 0.242727 0.551477 0.102281
v 0.319744 0.448332 0.307897
v 0.319744 0.448332 -0.116871
v 0.242699 0.551513 -0.116871
v 0.319744 0.448332 -0.487793
v 0.246215 0.546805 -0.287541
v 0.243207 0.550833 -0.160122
v 0.319744 0.448332 -0.162957
v 0.210888 0.558370 -0.330252
v 0.296314 0.444434 -0.589745
v 0.000000 0.236872 0.974107
v -0.313812 0.236872 0.974107
v 0.000000 0.432717 0.374235
v -0.372745 0.432717 0.374235
v 0.000000 0.106130 0.969486
v -0.297069 0.106130 0.969486
v 0.000000 0.105479 0.718171
v -0.361611 0.105479 0.712472
v -0.406914 0.290206 0.371680
v -0.368982 0.090139 0.314693
v -0.372745 0.432717 -0.352671
v -0.406913 0.290206 -0.286503
v -0.368982 0.090139 -0.286503
v 0.000000 0.432717 -0.844227
v -0.326859 0.432717 -0.844227
v 0.000000 0.296843 -0.881284
v -0.326859 0.296843 -0.881284
v 0.000000 0.186933 -0.881286
v -0.326859 0.186932 -0.881284
v -0.406913 0.133585 -0.670242
v -0.406913 0.292934 -0.617356
v -0.406913 0.354194 -0.471246
v -0.250699 0.105479 0.712472
v -0.250699 0.090139 0.314693
v -0.250699 0.290206 -0.286503
v -0.250699 0.090139 -0.286503
v -0.250699 0.133585 -0.670242
v -0.250699 0.292934 -0.617356
v -0.250699 0.354194 -0.471246
v 0.000000 0.090139 0.300856
v 0.000000 0.090139 -0.286503
v 0.000000 0.133585 -0.670242
v 0.000000 0.324742 -0.873675
v 0.000000 0.404751 -0.851854
v -0.303337 0.404751 -0.851854
v -0.303337 0.324742 -0.873675
v -0.164842 0.152306 -0.700497
v -0.164842 0.189462 -0.731903
v -0.164842 0.131687 -0.874905
v -0.164842 0.180338 -0.874905
v -0.213493 0.152306 -0.700497
v -0.213493 0.189462 -0.731903
v -0.213493 0.131687 -0.874905
v -0.213493 0.180338 -0.874905
v -0.406914 0.284032 0.667898
v -0.389925 0.198629 0.698019
v -0.406914 0.331311 0.585741
v -0.406914 0.331311 0.455100
v -0.250699 0.290206 0.371680
v -0.250699 0.284032 0.667898
v -0.250699 0.198629 0.698019
v -0.250699 0.331311 0.585741
v -0.250699 0.331311 0.455100
v 0.000000 0.570077 0.105191
v -0.228838 0.570077 0.105191
v 0.000000 0.570077 -0.303589
v -0.228838 0.570077 -0.303589
v 0.000000 0.432717 -0.616431
v -0.331403 0.432717 -0.616431
v -0.331403 0.432717 0.374235
v -0.297439 0.416394 -0.677735
v -0.226195 0.514005 -0.733030
v -0.297439 0.416394 -0.830641
v -0.226195 0.514005 -0.830641
v -0.329793 0.416394 -0.677735
v -0.258549 0.514005 -0.733030
v -0.329793 0.416394 -0.830641
v -0.258549 0.514005 -0.830641
v -0.243123 0.490813 -0.830641
v -0.243121 0.490816 -0.720280
v 0.000000 0.490816 -0.720280
v 0.000000 0.514005 -0.733030
v 0.000000 0.514005 -0.830641
v 0.000000 0.490813 -0.830641
v -0.359037 0.354126 0.614915
v 0.000000 0.555543 0.133659
v -0.217402 0.555542 0.133661
v 0.000000 0.446784 0.346681
v -0.298300 0.446788 0.346673
v -0.242727 0.551477 0.102281
v -0.319744 0.448332 0.307897
v -0.319744 0.448332 -0.116871
v -0.242699 0.551513 -0.116871
v -0.319744 0.448332 -0.487793
v -0.246215 0.546805 -0.287541
v -0.243207 0.550833 -0.160122
v -0.319744 0.448332 -0.162957
v 0.000000 0.558367 -0.330259
v -0.210888 0.558370 -0.330252
v 0.000000 0.444431 -0.589750
v -0.296314 0.444434 -0.589745
vt 0.931172 0.811004
vt 0.930251 0.826855
vt 0.919204 0.787649
vt 0.298445 0.915683
vt 0.298618 0.916343
vt 0.298349 0.916343
vt 0.828887 0.823806
vt 0.841256 0.814703
vt 0.842495 0.823806
vt 0.848238 0.821611
vt 0.848146 0.823091
vt 0.848146 0.821492
vt 0.836885 0.825910
vt 0.836863 0.826632
vt 0.836872 0.825915
vt 0.847918 0.824000
vt 0.847693 0.824544
vt 0.847893 0.823907
vt 0.830318 0.826016
vt 0.830377 0.825994
vt 0.830955 0.826216
vt 0.831566 0.826115
vt 0.831757 0.826222
vt 0.831295 0.826208
vt 0.298330 0.918769
vt 0.298618 0.918788
vt 0.298239 0.918788
vt 0.298619 0.919243
vt 0.298239 0.919243
vt 0.298239 0.919592
vt 0.298618 0.919705
vt 0.298238 0.919705
vt 0.298331 0.917308
vt 0.298619 0.917189
vt 0.298618 0.917308
vt 0.298618 0.919592
vt 0.299228 0.915683
vt 0.299228 0.916329
vt 0.298618 0.918769
vt 0.299761 0.917742
vt 0.299735 0.918589
vt 0.299729 0.917787
vt 0.299722 0.918249
vt 0.299228 0.917341
vt 0.299228 0.918769
vt 0.299228 0.919705
vt 0.298433 0.920223
vt 0.299228 0.920224
vt 0.818640 0.809024
vt 0.847483 0.798554
vt 0.847483 0.809024
vt 0.836814 0.826725
vt 0.836828 0.826645
vt 0.836825 0.825932
vt 0.836838 0.825927
vt 0.302833 0.984937
vt 0.307698 0.980072
vt 0.307698 0.984937
vt 0.236306 0.951208
vt 0.248159 0.939354
vt 0.248159 0.951208
vt 0.302347 0.984937
vt 0.297482 0.980072
vt 0.302347 0.980072
vt 0.297482 0.995640
vt 0.302347 0.990775
vt 0.302347 0.995640
vt 0.307698 0.990289
vt 0.302833 0.985424
vt 0.307698 0.985424
vt 0.847778 0.819982
vt 0.847891 0.820701
vt 0.847918 0.820793
vt 0.900819 0.821528
vt 0.884341 0.825021
vt 0.884341 0.821528
vt 0.848256 0.820646
vt 0.848306 0.819971
vt 0.848352 0.819986
vt 0.834810 0.826087
vt 0.834069 0.826241
vt 0.833860 0.826231
vt 0.833326 0.826128
vt 0.833926 0.826111
vt 0.833543 0.826229
vt 0.833351 0.826234
vt 0.298280 0.916387
vt 0.298619 0.916468
vt 0.298239 0.916468
vt 0.298239 0.916673
vt 0.298619 0.916990
vt 0.298239 0.916990
vt 0.298239 0.917189
vt 0.298619 0.916673
vt 0.298618 0.916387
vt 0.299494 0.917742
vt 0.299462 0.918609
vt 0.299479 0.917798
vt 0.299465 0.917890
vt 0.299457 0.918100
vt 0.299456 0.918416
vt 0.873519 0.817850
vt 0.892490 0.812997
vt 0.892496 0.817850
vt 0.816451 0.822214
vt 0.815889 0.823196
vt 0.815896 0.822206
vt 0.831666 0.825553
vt 0.831597 0.826066
vt 0.831604 0.825554
vt 0.815905 0.823923
vt 0.816694 0.824485
vt 0.815901 0.824474
vt 0.816814 0.823296
vt 0.816727 0.821535
vt 0.816828 0.821536
vt 0.816709 0.823934
vt 0.832656 0.825561
vt 0.832721 0.826091
vt 0.832649 0.826116
vt 0.919204 0.826855
vt 0.831659 0.826108
vt 0.831237 0.826345
vt 0.830929 0.826374
vt 0.864001 0.822282
vt 0.864214 0.822045
vt 0.864214 0.822417
vt 0.846614 0.821738
vt 0.846623 0.821644
vt 0.846614 0.821817
vt 0.840572 0.825025
vt 0.840761 0.825240
vt 0.840572 0.825395
vt 0.846479 0.820598
vt 0.846634 0.820708
vt 0.846633 0.820787
vt 0.818758 0.821817
vt 0.818386 0.821738
vt 0.818758 0.821738
vt 0.818387 0.820520
vt 0.818622 0.820598
vt 0.818386 0.820598
vt 0.818626 0.819971
vt 0.818623 0.820520
vt 0.846621 0.821606
vt 0.846623 0.821565
vt 0.846484 0.820565
vt 0.846479 0.820520
vt 0.863609 0.821606
vt 0.863846 0.821015
vt 0.863846 0.821606
vt 0.846488 0.819975
vt 0.846621 0.821015
vt 0.846623 0.821015
vt 0.930498 0.787649
vt 0.833259 0.826309
vt 0.833327 0.826392
vt 0.988366 0.880413
vt 0.989619 0.995813
vt 0.988366 0.995813
vt 0.833338 0.825588
vt 0.833164 0.826360
vt 0.952216 0.994937
vt 0.954633 0.882472
vt 0.954633 0.994977
vt 0.832115 0.826148
vt 0.832135 0.826352
vt 0.832010 0.826149
vt 0.831702 0.826154
vt 0.832024 0.826351
vt 0.955141 0.882472
vt 0.956515 0.989843
vt 0.955110 0.994235
vt 0.832645 0.826152
vt 0.968537 0.994627
vt 0.970436 0.880719
vt 0.970436 0.994626
vt 0.830992 0.826287
vt 0.830940 0.825570
vt 0.831002 0.825568
vt 0.930251 0.826855
vt 0.931172 0.811004
vt 0.298445 0.915683
vt 0.298618 0.916343
vt 0.828887 0.823806
vt 0.841256 0.814703
vt 0.828935 0.814703
vt 0.848238 0.821611
vt 0.848146 0.823091
vt 0.848238 0.823072
vt 0.836863 0.826632
vt 0.836874 0.826703
vt 0.847918 0.824000
vt 0.847693 0.824544
vt 0.847711 0.824520
vt 0.830318 0.826016
vt 0.830955 0.826216
vt 0.830377 0.825994
vt 0.831566 0.826115
vt 0.831295 0.826208
vt 0.831757 0.826222
vt 0.298618 0.918788
vt 0.298330 0.918769
vt 0.298239 0.918788
vt 0.298619 0.919243
vt 0.298239 0.919243
vt 0.298618 0.919705
vt 0.298239 0.919592
vt 0.298238 0.919705
vt 0.298331 0.917308
vt 0.298619 0.917189
vt 0.298239 0.917189
vt 0.298618 0.919592
vt 0.298618 0.918769
vt 0.298618 0.917308
vt 0.299735 0.918589
vt 0.299761 0.917742
vt 0.299729 0.917787
vt 0.299722 0.918249
vt 0.298433 0.920223
vt 0.818640 0.809024
vt 0.836814 0.826725
vt 0.836828 0.826645
vt 0.307698 0.980072
vt 0.302833 0.984937
vt 0.307698 0.984937
vt 0.248159 0.939354
vt 0.236306 0.951208
vt 0.248159 0.951208
vt 0.302347 0.984937
vt 0.297482 0.980072
vt 0.297482 0.984937
vt 0.302347 0.990775
vt 0.297482 0.995640
vt 0.302347 0.995640
vt 0.302833 0.985424
vt 0.307698 0.990289
vt 0.307698 0.985424
vt 0.847778 0.819982
vt 0.847918 0.820793
vt 0.847891 0.820701
vt 0.900819 0.821528
vt 0.901791 0.825021
vt 0.848256 0.820646
vt 0.848306 0.819971
vt 0.848188 0.820690
vt 0.834810 0.826087
vt 0.833860 0.826231
vt 0.834069 0.826241
vt 0.833326 0.826128
vt 0.833926 0.826111
vt 0.833543 0.826229
vt 0.833351 0.826234
vt 0.298619 0.916468
vt 0.298280 0.916387
vt 0.298239 0.916468
vt 0.298619 0.916990
vt 0.298239 0.916673
vt 0.298239 0.916990
vt 0.298619 0.916673
vt 0.298349 0.916343
vt 0.298618 0.916387
vt 0.299494 0.917742
vt 0.299462 0.918609
vt 0.299494 0.918702
vt 0.299465 0.917890
vt 0.299479 0.917798
vt 0.299457 0.918100
vt 0.873519 0.817850
vt 0.816451 0.822214
vt 0.831597 0.826066
vt 0.831659 0.826108
vt 0.816694 0.824485
vt 0.816727 0.821535
vt 0.816814 0.823296
vt 0.816828 0.821536
vt 0.816709 0.823934
vt 0.832721 0.826091
vt 0.832728 0.825563
vt 0.831237 0.826345
vt 0.830929 0.826374
vt 0.864214 0.822045
vt 0.864001 0.822282
vt 0.864214 0.822417
vt 0.846614 0.821738
vt 0.846623 0.821644
vt 0.846621 0.821606
vt 0.840572 0.825025
vt 0.840761 0.825240
vt 0.840761 0.825004
vt 0.846634 0.820708
vt 0.846479 0.820598
vt 0.846633 0.820787
vt 0.818386 0.821738
vt 0.818758 0.821817
vt 0.818758 0.821738
vt 0.818622 0.820598
vt 0.818387 0.820520
vt 0.818386 0.820598
vt 0.818973 0.822645
vt 0.818919 0.822882
vt 0.818973 0.822882
vt 0.818623 0.820520
vt 0.846623 0.821565
vt 0.846484 0.820565
vt 0.846479 0.820520
vt 0.863609 0.821606
vt 0.863846 0.821606
vt 0.930498 0.787649
vt 0.832649 0.826116
vt 0.833259 0.826309
vt 0.989619 0.995813
vt 0.990085 0.880418
vt 0.833327 0.826392
vt 0.833164 0.826360
vt 0.952216 0.994937
vt 0.954633 0.882472
vt 0.949949 0.882472
vt 0.832115 0.826148
vt 0.832135 0.826352
vt 0.832010 0.826149
vt 0.832024 0.826351
vt 0.831702 0.826154
vt 0.956515 0.989843
vt 0.955141 0.882472
vt 0.955110 0.994235
vt 0.832645 0.826152
vt 0.968537 0.994627
vt 0.830992 0.826287
vt 0.931629 0.826855
vt 0.828935 0.814703
vt 0.848238 0.823072
vt 0.836874 0.826703
vt 0.847711 0.824520
vt 0.299761 0.918681
vt 0.818640 0.798554
vt 0.302833 0.980072
vt 0.236306 0.939354
vt 0.297482 0.984937
vt 0.297482 0.990775
vt 0.302833 0.990289
vt 0.901791 0.825021
vt 0.848188 0.820690
vt 0.299494 0.918702
vt 0.873513 0.812997
vt 0.816444 0.823204
vt 0.864001 0.822045
vt 0.840761 0.825004
vt 0.818386 0.821817
vt 0.818390 0.819971
vt 0.863609 0.821015
vt 0.846482 0.819971
vt 0.990085 0.880418
vt 0.833269 0.825585
vt 0.949949 0.882472
vt 0.958723 0.882472
vt 0.967768 0.880719
vt 0.931629 0.826855
vt 0.842495 0.823806
vt 0.848146 0.821492
vt 0.847893 0.823907
vt 0.299761 0.918681
vt 0.818640 0.798554
vt 0.302833 0.980072
vt 0.236306 0.939354
vt 0.302347 0.980072
vt 0.297482 0.990775
vt 0.302833 0.990289
vt 0.848352 0.819986
vt 0.299456 0.918416
vt 0.873513 0.812997
vt 0.816444 0.823204
vt 0.864001 0.822045
vt 0.846614 0.821817
vt 0.840572 0.825395
vt 0.818386 0.821817
vt 0.818919 0.822645
vt 0.954633 0.994977
vt 0.958723 0.882472
vt 0.967768 0.880719
vn 0.0001 0.9506 0.3104
vn 0.0000 0.9779 0.2092
vn 0.0000 0.9506 0.3103
vn 0.0000 -1.0000 0.0025
vn 0.9544 0.2986 -0.0030
vn 0.9691 0.2452 0.0277
vn 0.9510 0.3084 0.0242
vn 0.9825 -0.1863 -0.0000
vn 0.0000 0.2631 -0.9648
vn 0.9499 0.0726 -0.3041
vn 0.9437 0.0377 -0.3288
vn 0.9530 0.0955 -0.2876
vn 0.9543 0.0786 -0.2883
vn 0.9549 0.1780 -0.2377
vn 0.9472 0.2751 -0.1647
vn 0.9078 0.4168 -0.0468
vn 0.0000 0.0000 -1.0000
vn 0.0000 -0.5800 -0.8146
vn 0.0000 -0.6161 -0.7877
vn 0.0000 -0.9995 0.0318
vn 0.0000 -0.6795 0.7337
vn 0.0000 -0.3150 0.9491
vn 0.0000 -0.2739 0.9617
vn 0.0000 -0.6406 0.7679
vn 0.0000 -1.0000 0.0026
vn 0.0000 -0.9993 -0.0376
vn 0.0000 -1.0000 -0.0000
vn -0.0004 -0.9999 0.0129
vn 1.0000 0.0000 0.0000
vn 0.0000 -0.9998 0.0177
vn 0.0000 -0.9984 -0.0563
vn 0.0000 -0.9993 0.0379
vn 0.0000 -0.9838 -0.1792
vn 0.0000 -0.9795 -0.2013
vn 0.0000 -0.9695 -0.2451
vn -1.0000 0.0000 0.0000
vn 0.0000 -0.9931 0.1174
vn 0.0000 0.9980 -0.0637
vn 0.9553 -0.1462 0.2569
vn 0.9461 -0.1581 0.2827
vn 0.9565 -0.0927 0.2765
vn 0.0000 -0.0353 0.9994
vn 0.9376 -0.2103 0.2769
vn 0.9614 -0.1317 0.2418
vn 0.6583 0.6799 0.3231
vn 0.7686 0.5545 0.3191
vn 0.6455 0.7146 0.2696
vn 0.5557 0.7722 0.3081
vn 0.9568 0.2874 -0.0439
vn 0.9712 0.2337 -0.0474
vn 0.0000 -0.2581 -0.9661
vn -0.0000 -0.6395 -0.7688
vn -0.0000 -0.6572 -0.7537
vn -0.0000 -0.9661 -0.2581
vn 0.0000 -0.9739 0.2269
vn 0.0000 -0.6611 0.7503
vn 0.0000 -0.2440 -0.9698
vn 0.0000 -0.1533 -0.9882
vn 0.0000 1.0000 0.0000
vn 0.0000 0.9156 -0.4020
vn 0.0000 0.9880 0.1544
vn 0.0000 0.8906 0.4547
vn 0.0000 0.9506 0.3104
vn 0.8013 0.5983 0.0000
vn -0.8077 -0.5895 0.0000
vn 0.8077 0.5895 0.0000
vn 0.0000 0.4929 0.8701
vn 0.0000 0.4818 0.8763
vn -0.0001 0.9506 0.3104
vn -0.9544 0.2986 -0.0030
vn -0.9691 0.2452 0.0277
vn -0.9712 0.2337 -0.0474
vn -0.9825 -0.1863 -0.0000
vn -0.9499 0.0726 -0.3041
vn -0.9437 0.0377 -0.3288
vn -0.9350 0.0000 -0.3547
vn -0.9543 0.0786 -0.2883
vn -0.9472 0.2751 -0.1647
vn -0.9549 0.1780 -0.2377
vn -0.9510 0.3084 0.0242
vn -0.9078 0.4168 -0.0468
vn 0.0004 -0.9999 0.0129
vn -0.0009 -0.9993 0.0385
vn -0.9553 -0.1462 0.2569
vn -0.9565 -0.0927 0.2765
vn -0.9461 -0.1581 0.2827
vn -0.9376 -0.2103 0.2769
vn -0.6583 0.6799 0.3231
vn -0.6455 0.7146 0.2696
vn -0.7686 0.5545 0.3191
vn -0.5557 0.7722 0.3081
vn -0.9568 0.2874 -0.0439
vn -0.8013 0.5983 0.0000
vn 0.8077 -0.5895 0.0000
vn -0.8077 0.5895 0.0000
vn 0.9350 0.0000 -0.3547
vn 0.0009 -0.9993 0.0385
vn -0.0137 0.4887 0.8723
vn -0.9530 0.0955 -0.2876
vn -0.9614 -0.1317 0.2418
vn 0.0137 0.4887 0.8723
s 1
f 136/161/49 125/162/50 149/163/51
f 83/164/52 96/165/52 84/166/52
f 82/167/53 88/168/54 87/169/55
f 86/170/56 88/171/56 85/172/56
f 162/173/57 103/174/57 182/175/57
f 93/176/58 91/177/59 94/178/60
f 91/179/61 90/180/62 94/181/63
f 87/182/55 88/183/54 95/184/64
f 94/181/63 90/180/62 95/184/64
f 95/184/64 90/180/62 87/182/55
f 89/185/65 98/186/66 88/187/67
f 88/187/67 102/188/68 95/189/68
f 94/190/69 100/191/70 93/192/70
f 86/193/71 117/194/72 97/195/71
f 95/189/68 101/196/69 94/190/69
f 96/165/52 153/197/73 155/198/73
f 99/199/74 86/193/75 97/195/76
f 99/200/77 101/201/77 98/202/77
f 101/201/77 102/203/77 98/202/77
f 99/199/74 178/204/78 179/205/79
f 97/195/76 155/198/80 178/204/78
f 99/199/74 180/206/81 100/191/82
f 92/207/83 100/191/82 166/208/83
f 100/191/82 180/206/81 166/208/83
f 103/209/57 181/210/57 182/211/57
f 103/174/57 91/212/57 104/213/57
f 104/213/57 164/214/57 181/215/57
f 106/216/84 107/217/84 105/218/84
f 108/219/65 111/220/65 107/221/65
f 111/222/77 110/223/77 109/224/77
f 111/225/85 105/226/85 107/227/85
f 108/228/86 110/229/86 112/230/86
f 81/231/87 114/232/88 113/233/89
f 83/234/90 149/235/90 153/236/90
f 84/237/91 81/238/87 83/239/92
f 81/240/93 113/241/94 115/242/95
f 82/243/53 136/244/96 115/242/95
f 115/242/95 116/245/97 82/243/53
f 82/243/53 116/245/97 85/246/98
f 114/247/99 118/248/100 113/249/101
f 115/250/102 121/251/103 116/252/103
f 116/252/103 117/194/72 85/253/104
f 113/249/101 120/254/102 115/250/102
f 119/255/105 84/166/106 96/165/106
f 96/256/77 117/257/77 119/258/77
f 118/259/77 119/258/77 117/257/77
f 120/260/77 117/257/77 121/261/77
f 91/262/65 166/263/65 164/264/65
f 122/265/107 204/266/107 202/267/107
f 204/268/108 147/269/108 236/270/108
f 206/271/107 90/272/107 162/273/107
f 87/274/107 125/275/50 82/276/109
f 90/272/107 124/277/107 87/274/107
f 202/278/110 137/279/110 122/280/110
f 125/162/50 151/281/111 149/163/51
f 123/282/112 143/283/112 124/284/112
f 135/285/113 128/286/113 126/287/113
f 128/288/65 133/289/65 132/290/65
f 132/291/114 131/292/114 130/293/114
f 131/294/115 126/295/115 130/296/115
f 132/297/75 126/298/75 128/299/75
f 129/300/107 131/301/107 133/302/107
f 129/300/107 220/303/107 127/304/107
f 133/289/65 134/305/65 129/306/65
f 135/307/116 131/294/116 127/308/116
f 135/309/75 222/310/75 134/311/75
f 127/308/116 219/312/116 135/307/116
f 129/306/65 222/313/65 221/314/65
f 136/161/49 149/163/51 81/315/51
f 115/242/95 136/244/96 81/240/93
f 122/280/110 138/316/110 125/317/110
f 226/318/110 137/319/110 224/320/110
f 138/316/110 151/321/110 125/317/110
f 140/322/112 122/280/112 125/317/112
f 139/323/112 141/324/112 142/325/112
f 142/326/112 123/282/112 122/280/112
f 141/327/112 145/328/112 142/326/112
f 144/329/112 123/282/112 145/328/112
f 143/283/112 146/330/112 124/284/112
f 124/284/112 141/327/112 125/317/112
f 146/331/112 144/332/112 145/333/112
f 125/317/112 141/327/112 140/322/112
f 142/326/112 122/280/112 139/334/112
f 147/335/108 238/336/108 236/337/108
f 148/338/108 206/339/108 238/340/108
f 148/338/108 123/282/108 124/284/108
f 208/341/50 223/342/117 149/163/51
f 154/343/52 171/344/52 153/197/73
f 152/345/118 160/346/119 157/347/120
f 158/348/121 160/349/121 161/350/121
f 162/173/57 183/351/57 163/352/57
f 168/353/122 165/354/123 167/355/124
f 165/356/125 169/357/126 163/358/127
f 159/359/128 170/360/129 160/361/119
f 169/357/126 170/360/129 163/358/127
f 170/360/129 159/359/128 163/358/127
f 173/362/66 161/363/65 160/364/67
f 177/365/68 160/364/67 170/366/68
f 175/367/70 169/368/69 168/369/70
f 158/370/71 197/371/72 157/372/104
f 176/373/69 170/366/68 169/368/69
f 171/344/52 155/198/73 153/197/73
f 158/370/75 174/374/74 172/375/130
f 176/376/84 174/377/84 173/378/84
f 176/376/84 173/378/84 177/379/84
f 174/374/74 178/204/78 172/375/130
f 172/375/130 155/198/80 171/344/131
f 180/206/81 174/374/74 175/367/82
f 167/380/83 175/367/82 168/369/83
f 175/367/82 166/208/83 180/206/81
f 181/210/57 183/381/57 182/211/57
f 183/351/57 165/382/57 163/352/57
f 184/383/57 164/214/57 165/382/57
f 187/384/77 186/385/77 185/386/77
f 191/387/65 188/388/65 187/389/65
f 191/390/84 190/391/84 192/392/84
f 185/393/85 191/394/85 187/395/85
f 190/396/86 188/397/86 192/398/86
f 150/399/132 193/400/133 194/401/134
f 154/402/90 149/235/90 150/403/90
f 156/404/135 150/405/132 194/406/134
f 150/407/136 195/408/137 193/409/138
f 152/410/118 195/408/137 223/411/139
f 195/408/137 152/410/118 196/412/140
f 152/410/118 157/413/120 196/412/140
f 198/414/100 194/415/99 193/416/101
f 201/417/103 195/418/102 196/419/103
f 197/371/72 196/419/103 157/372/104
f 200/420/102 193/416/101 195/418/102
f 156/421/106 199/422/105 171/344/106
f 171/423/84 197/424/84 172/425/84
f 198/426/84 197/424/84 199/427/84
f 200/428/84 197/424/84 198/426/84
f 166/263/65 165/429/65 164/264/65
f 204/266/107 203/430/107 202/267/107
f 204/268/108 237/431/108 205/432/108
f 163/433/107 206/271/107 162/273/107
f 208/434/50 159/435/107 152/436/109
f 163/433/107 159/435/107 207/437/107
f 202/278/110 225/438/110 224/439/110
f 208/341/50 149/163/51 151/281/111
f 232/440/141 205/432/141 207/441/141
f 211/442/142 218/443/142 209/444/142
f 211/445/65 216/446/65 217/447/65
f 215/448/143 214/449/143 216/450/143
f 209/451/115 214/452/115 213/453/115
f 209/454/75 215/455/75 211/456/75
f 214/457/107 212/458/107 216/459/107
f 222/460/77 220/461/77 219/462/77
f 220/303/107 212/458/107 210/463/107
f 216/446/65 212/464/65 217/447/65
f 218/465/116 210/466/116 214/452/116
f 222/310/75 218/467/75 217/468/75
f 219/312/116 210/466/116 218/465/116
f 212/464/65 222/313/65 217/447/65
f 223/342/117 150/469/51 149/163/51
f 195/408/137 150/407/136 223/411/139
f 203/470/110 227/471/110 225/438/110
f 226/318/110 225/472/110 227/473/110
f 151/321/110 227/471/110 208/474/110
f 203/470/141 229/475/141 208/474/141
f 228/476/141 230/477/141 229/478/141
f 205/432/141 231/479/141 203/470/141
f 230/480/141 234/481/141 235/482/141
f 233/483/141 234/481/141 205/432/141
f 232/440/141 207/441/141 235/482/141
f 207/441/141 230/480/141 235/482/141
f 233/484/141 235/485/141 234/486/141
f 208/474/141 229/475/141 230/480/141
f 231/479/141 228/487/141 203/470/141
f 238/336/108 237/488/108 236/337/108
f 206/339/108 239/489/108 238/340/108
f 205/432/108 239/489/108 207/441/108
f 136/161/49 82/490/109 125/162/50
f 83/164/52 153/197/73 96/165/52
f 82/167/53 85/491/98 88/168/54
f 86/170/56 89/492/56 88/171/56
f 162/173/57 90/493/57 103/174/57
f 93/176/58 92/494/144 91/177/59
f 89/185/65 99/199/65 98/186/66
f 88/187/67 98/186/66 102/188/68
f 94/190/69 101/196/69 100/191/70
f 86/193/71 85/253/104 117/194/72
f 95/189/68 102/188/68 101/196/69
f 99/199/74 89/185/75 86/193/75
f 99/200/77 100/495/77 101/201/77
f 99/199/74 97/195/76 178/204/78
f 97/195/76 96/165/145 155/198/80
f 99/199/74 179/205/79 180/206/81
f 92/207/83 93/192/83 100/191/82
f 103/209/57 104/496/57 181/210/57
f 103/174/57 90/493/57 91/212/57
f 104/213/57 91/212/57 164/214/57
f 106/216/84 108/497/84 107/217/84
f 108/219/65 112/498/65 111/220/65
f 111/222/77 112/499/77 110/223/77
f 111/225/85 109/500/85 105/226/85
f 108/228/86 106/501/86 110/229/86
f 83/234/90 81/502/90 149/235/90
f 84/237/91 114/503/88 81/238/87
f 114/247/99 119/255/105 118/248/100
f 115/250/102 120/254/102 121/251/103
f 116/252/103 121/251/103 117/194/72
f 113/249/101 118/248/100 120/254/102
f 119/255/105 114/247/99 84/166/106
f 96/256/77 97/504/77 117/257/77
f 120/260/77 118/259/77 117/257/77
f 91/262/65 92/505/65 166/263/65
f 122/265/107 123/506/107 204/266/107
f 204/268/108 123/282/108 147/269/108
f 206/271/107 124/277/107 90/272/107
f 87/274/107 124/277/107 125/275/50
f 202/278/110 224/439/110 137/279/110
f 123/282/112 144/329/112 143/283/112
f 135/285/113 134/507/113 128/286/113
f 128/288/65 134/305/65 133/289/65
f 132/291/114 133/508/114 131/292/114
f 131/294/146 135/307/146 126/295/146
f 132/297/75 130/509/75 126/298/75
f 129/300/107 127/304/107 131/301/107
f 129/300/107 221/510/107 220/303/107
f 135/309/75 219/511/75 222/310/75
f 127/308/116 220/512/116 219/312/116
f 129/306/65 134/305/65 222/313/65
f 122/280/110 137/279/110 138/316/110
f 226/318/110 138/513/110 137/319/110
f 138/316/110 226/514/110 151/321/110
f 140/322/112 139/334/112 122/280/112
f 139/323/112 140/515/112 141/324/112
f 142/326/112 145/328/112 123/282/112
f 141/327/112 146/330/112 145/328/112
f 124/284/112 146/330/112 141/327/112
f 146/331/112 143/516/112 144/332/112
f 147/335/108 148/517/108 238/336/108
f 148/338/108 124/284/108 206/339/108
f 148/338/108 147/269/108 123/282/108
f 208/341/50 152/518/109 223/342/117
f 154/343/52 156/421/52 171/344/52
f 152/345/118 159/519/128 160/346/119
f 158/348/121 157/520/121 160/349/121
f 162/173/57 182/175/57 183/351/57
f 168/353/122 169/521/147 165/354/123
f 173/362/66 174/374/65 161/363/65
f 177/365/68 173/362/66 160/364/67
f 175/367/70 176/373/69 169/368/69
f 158/370/71 172/375/71 197/371/72
f 176/373/69 177/365/68 170/366/68
f 158/370/75 161/363/75 174/374/74
f 176/376/84 175/522/84 174/377/84
f 174/374/74 179/205/79 178/204/78
f 172/375/130 178/204/78 155/198/80
f 180/206/81 179/205/79 174/374/74
f 167/380/83 166/208/83 175/367/82
f 181/210/57 184/523/57 183/381/57
f 183/351/57 184/383/57 165/382/57
f 184/383/57 181/215/57 164/214/57
f 187/384/77 188/524/77 186/385/77
f 191/387/65 192/525/65 188/388/65
f 191/390/84 189/526/84 190/391/84
f 185/393/85 189/527/85 191/394/85
f 190/396/86 186/528/86 188/397/86
f 154/402/90 153/236/90 149/235/90
f 156/404/135 154/529/148 150/405/132
f 198/414/100 199/422/105 194/415/99
f 201/417/103 200/420/102 195/418/102
f 197/371/72 201/417/103 196/419/103
f 200/420/102 198/414/100 193/416/101
f 156/421/106 194/415/99 199/422/105
f 171/423/84 199/427/84 197/424/84
f 200/428/84 201/530/84 197/424/84
f 166/263/65 167/531/65 165/429/65
f 204/266/107 205/532/107 203/430/107
f 204/268/108 236/270/108 237/431/108
f 163/433/107 207/437/107 206/271/107
f 208/434/50 207/437/107 159/435/107
f 202/278/110 203/470/110 225/438/110
f 232/440/141 233/483/141 205/432/141
f 211/442/142 217/533/142 218/443/142
f 211/445/65 215/534/65 216/446/65
f 215/448/143 213/535/143 214/449/143
f 209/451/149 218/465/149 214/452/149
f 209/454/75 213/536/75 215/455/75
f 214/457/107 210/463/107 212/458/107
f 222/460/77 221/537/77 220/461/77
f 220/303/107 221/510/107 212/458/107
f 222/310/75 219/511/75 218/467/75
f 219/312/116 220/512/116 210/466/116
f 212/464/65 221/314/65 222/313/65
f 203/470/110 208/474/110 227/471/110
f 226/318/110 224/320/110 225/472/110
f 151/321/110 226/514/110 227/471/110
f 203/470/141 228/487/141 229/475/141
f 228/476/141 231/538/141 230/477/141
f 205/432/141 234/481/141 231/479/141
f 230/480/141 231/479/141 234/481/141
f 207/441/141 208/474/141 230/480/141
f 233/484/141 232/539/141 235/485/141
f 238/336/108 239/540/108 237/488/108
f 206/339/108 207/441/108 239/489/108
f 205/432/108 237/431/108 239/489/108
