texture textures/cars.png
v 0.374566 0.281381 0.424902
v 0.275277 0.227662 0.350964
v 0.275277 0.281381 0.424902
v 0.374566 0.227662 0.350964
v 0.275277 0.140742 0.322722
v 0.374566 0.140742 0.322722
v 0.275277 0.053822 0.350964
v 0.374566 0.053822 0.350964
v 0.275277 0.000102 0.424902
v 0.374566 0.000102 0.424902
v 0.275277 0.000102 0.516295
v 0.374566 0.000102 0.516295
v 0.275277 0.053822 0.590234
v 0.374566 0.053822 0.590234
v 0.275277 0.140742 0.618475
v 0.374566 0.140742 0.618475
v 0.275277 0.227662 0.590234
v 0.374566 0.227662 0.590234
v 0.275277 0.281381 0.516295
v 0.374566 0.281381 0.516295
vt 0.612156 0.971647
vt 0.524372 0.959848
vt 0.524372 0.971647
vt 0.612156 0.959848
vt 0.524372 0.940757
vt 0.612156 0.940757
vt 0.524372 0.921665
vt 0.612156 0.921665
vt 0.524372 0.909866
vt 0.612156 0.909866
vt 0.524372 0.909866
vt 0.612156 0.909866
vt 0.524372 0.921665
vt 0.612156 0.921665
vt 0.524372 0.940757
vt 0.612156 0.940757
vt 0.524372 0.959848
vt 0.612156 0.959848
vt 0.524372 0.971647
vt 0.612156 0.971647
vt 0.512421 0.891662
vt 0.519896 0.891662
vt 0.518469 0.897068
vt 0.250082 0.022727
vt 0.383670 0.433867
vt 0.116495 0.433868
vt 0.516159 0.897992
vt 0.513849 0.897068
vt 0.512421 0.894650
vt 0.513849 0.889244
vt 0.516159 0.888320
vt 0.518469 0.889244
vt 0.519896 0.894650
vt 0.033933 0.320231
vt 0.033933 0.179769
vt 0.116495 0.066133
vt 0.383670 0.066133
vt 0.466232 0.179769
vt 0.466232 0.320231
vt 0.250082 0.477273
vn 0.0000 0.9511 -0.3090
vn 0.0000 0.5878 -0.8090
vn 0.0000 0.0000 -1.0000
vn 0.0000 -0.5878 -0.8090
vn 0.0000 -0.9511 -0.3090
vn 0.0000 -0.9511 0.3090
vn 0.0000 -0.5878 0.8090
vn 0.0000 -0.0000 1.0000
vn 0.0000 0.5878 0.8090
vn 0.0000 0.9511 0.3090
vn -1.0000 0.0000 0.0000
vn 1.0000 0.0000 0.0000
s 1
f 1/1/1 2/2/2 3/3/1
f 4/4/2 5/5/3 2/2/2
f 6/6/3 7/7/4 5/5/3
f 8/8/4 9/9/5 7/7/4
f 10/10/5 11/11/6 9/9/5
f 12/12/6 13/13/7 11/11/6
f 14/14/7 15/15/8 13/13/7
f 16/16/8 17/17/9 15/15/8
f 18/18/9 19/19/10 17/17/9
f 20/20/10 3/3/1 19/19/10
f 7/21/11 15/22/11 19/23/11
f 18/24/12 10/25/12 6/26/12
f 1/1/1 4/4/2 2/2/2
f 4/4/2 6/6/3 5/5/3
f 6/6/3 8/8/4 7/7/4
f 8/8/4 10/10/5 9/9/5
f 10/10/5 12/12/6 11/11/6
f 12/12/6 14/14/7 13/13/7
f 14/14/7 16/16/8 15/15/8
f 16/16/8 18/18/9 17/17/9
f 18/18/9 20/20/10 19/19/10
f 20/20/10 1/1/1 3/3/1
f 19/23/11 3/27/11 7/21/11
f 2/28/11 5/29/11 7/21/11
f 7/21/11 9/30/11 11/31/11
f 11/31/11 13/32/11 15/22/11
f 15/22/11 17/33/11 19/23/11
f 3/27/11 2/28/11 7/21/11
f 7/21/11 11/31/11 15/22/11
f 6/26/12 4/34/12 1/35/12
f 1/35/12 20/36/12 6/26/12
f 18/24/12 16/37/12 14/38/12
f 14/38/12 12/39/12 18/24/12
f 10/25/12 8/40/12 6/26/12
f 6/26/12 20/36/12 18/24/12
f 18/24/12 12/39/12 10/25/12
o RLW_Cylinder.006
v 0.374566 0.281381 -0.493596
v 0.275277 0.227662 -0.567534
v 0.275277 0.281381 -0.493596
v 0.374566 0.227662 -0.567534
v 0.275277 0.140742 -0.595776
v 0.374566 0.140742 -0.595776
v 0.275277 0.053822 -0.567534
v 0.374566 0.053822 -0.567534
v 0.275277 0.000103 -0.493596
v 0.374566 0.000103 -0.402203
v 0.275277 0.000103 -0.402203
v 0.275277 0.053822 -0.328264
v 0.374566 0.053822 -0.328264
v 0.275277 0.140742 -0.300022
v 0.374566 0.140742 -0.300022
v 0.275277 0.227662 -0.328264
v 0.374566 0.227662 -0.328264
v 0.275277 0.281381 -0.402203
v 0.374566 0.281381 -0.402203
v 0.374566 0.000103 -0.493596
vt 0.612156 0.971647
vt 0.524372 0.959848
vt 0.524372 0.971647
vt 0.612156 0.959848
vt 0.524372 0.940757
vt 0.612156 0.940757
vt 0.524372 0.921665
vt 0.612156 0.921665
vt 0.524372 0.909866
vt 0.612156 0.909866
vt 0.524372 0.909866
vt 0.524372 0.921665
vt 0.612156 0.921665
vt 0.524372 0.940757
vt 0.612156 0.940757
vt 0.524372 0.959848
vt 0.612156 0.959848
vt 0.524372 0.971647
vt 0.612156 0.971647
vt 0.512421 0.891662
vt 0.519896 0.891662
vt 0.518469 0.897068
vt 0.250082 0.022727
vt 0.383670 0.433867
vt 0.116495 0.433868
vt 0.612156 0.909866
vt 0.516159 0.897992
vt 0.513849 0.897068
vt 0.512421 0.894650
vt 0.513849 0.889244
vt 0.516159 0.888320
vt 0.518469 0.889244
vt 0.519896 0.894650
vt 0.033933 0.320231
vt 0.033933 0.179769
vt 0.116495 0.066133
vt 0.383670 0.066133
vt 0.466232 0.179769
vt 0.466232 0.320231
vt 0.250082 0.477273
vn 0.0000 0.9511 -0.3090
vn 0.0000 0.5878 -0.8090
vn 0.0000 0.0000 -1.0000
vn 0.0000 -0.5878 -0.8090
vn 0.0000 -0.9511 -0.3090
vn 0.0000 -0.9511 0.3090
vn 0.0000 -0.5878 0.8090
vn 0.0000 -0.0000 1.0000
vn 0.0000 0.5878 0.8090
vn 0.0000 0.9511 0.3090
vn -1.0000 0.0000 0.0000
vn 1.0000 -0.0000 0.0000
s 1
f 21/41/13 22/42/14 23/43/13
f 24/44/14 25/45/15 22/42/14
f 26/46/15 27/47/16 25/45/15
f 28/48/16 29/49/17 27/47/16
f 29/49/17 30/50/18 31/51/18
f 30/50/18 32/52/19 31/51/18
f 33/53/19 34/54/20 32/52/19
f 35/55/20 36/56/21 34/54/20
f 37/57/21 38/58/22 36/56/21
f 39/59/22 23/43/13 38/58/22
f 27/60/23 34/61/23 38/62/23
f 37/63/24 40/64/24 26/65/24
f 21/41/13 24/44/14 22/42/14
f 24/44/14 26/46/15 25/45/15
f 26/46/15 28/48/16 27/47/16
f 28/48/16 40/66/17 29/49/17
f 29/49/17 40/66/17 30/50/18
f 30/50/18 33/53/19 32/52/19
f 33/53/19 35/55/20 34/54/20
f 35/55/20 37/57/21 36/56/21
f 37/57/21 39/59/22 38/58/22
f 39/59/22 21/41/13 23/43/13
f 38/62/23 23/67/23 27/60/23
f 22/68/23 25/69/23 27/60/23
f 27/60/23 29/70/23 31/71/23
f 31/71/23 32/72/23 34/61/23
f 34/61/23 36/73/23 38/62/23
f 23/67/23 22/68/23 27/60/23
f 27/60/23 31/71/23 34/61/23
f 26/65/24 24/74/24 21/75/24
f 21/75/24 39/76/24 37/63/24
f 37/63/24 35/77/24 33/78/24
f 33/78/24 30/79/24 37/63/24
f 40/64/24 28/80/24 26/65/24
f 26/65/24 21/75/24 37/63/24
f 37/63/24 30/79/24 40/64/24
o RRW_Cylinder.007
v -0.374566 0.281381 -0.402203
v -0.275277 0.227662 -0.328264
v -0.275277 0.281381 -0.402203
v -0.374566 0.227662 -0.328264
v -0.275277 0.140742 -0.300022
v -0.374566 0.053822 -0.328264
v -0.275277 0.053822 -0.328264
v -0.275277 0.000103 -0.402203
v -0.374566 0.000103 -0.402203
v -0.275277 0.000103 -0.493596
v -0.374566 0.000103 -0.493596
v -0.275277 0.053822 -0.567534
v -0.374566 0.053822 -0.567534
v -0.275277 0.140742 -0.595776
v -0.374566 0.140742 -0.595776
v -0.275277 0.227662 -0.567534
v -0.374566 0.227662 -0.567534
v -0.275277 0.281381 -0.493595
v -0.374566 0.281381 -0.493595
v -0.374566 0.140742 -0.300022
vt 0.612156 0.971647
vt 0.524372 0.959848
vt 0.524372 0.971647
vt 0.612156 0.959848
vt 0.524372 0.940757
vt 0.612156 0.921665
vt 0.524372 0.921665
vt 0.524372 0.909866
vt 0.612156 0.909866
vt 0.524372 0.909866
vt 0.612156 0.909866
vt 0.524372 0.921665
vt 0.612156 0.921665
vt 0.524372 0.940757
vt 0.612156 0.940757
vt 0.524372 0.959848
vt 0.612156 0.959848
vt 0.524372 0.971647
vt 0.612156 0.971647
vt 0.512421 0.891662
vt 0.519896 0.891662
vt 0.518469 0.897068
vt 0.250082 0.022727
vt 0.383670 0.433867
vt 0.116495 0.433868
vt 0.612156 0.940757
vt 0.516159 0.897992
vt 0.513849 0.897068
vt 0.512421 0.894650
vt 0.513849 0.889244
vt 0.516159 0.888320
vt 0.518469 0.889244
vt 0.519896 0.894650
vt 0.033933 0.320231
vt 0.033933 0.179769
vt 0.116495 0.066133
vt 0.383670 0.066133
vt 0.466232 0.179769
vt 0.466232 0.320231
vt 0.250082 0.477273
vn 0.0000 0.9511 0.3090
vn 0.0000 0.5878 0.8090
vn 0.0000 -0.0000 1.0000
vn 0.0000 -0.5878 0.8090
vn 0.0000 -0.9511 0.3090
vn 0.0000 -0.9511 -0.3090
vn 0.0000 -0.5878 -0.8090
vn 0.0000 0.0000 -1.0000
vn 0.0000 0.5878 -0.8090
vn 0.0000 0.9511 -0.3090
vn 1.0000 -0.0000 0.0000
vn -1.0000 0.0000 0.0000
s 1
f 41/81/25 42/82/26 43/83/25
f 44/84/26 45/85/27 42/82/26
f 45/85/27 46/86/28 47/87/28
f 46/86/28 48/88/29 47/87/28
f 49/89/29 50/90/30 48/88/29
f 51/91/30 52/92/31 50/90/30
f 53/93/31 54/94/32 52/92/31
f 55/95/32 56/96/33 54/94/32
f 57/97/33 58/98/34 56/96/33
f 59/99/34 43/83/25 58/98/34
f 47/100/35 54/101/35 58/102/35
f 57/103/36 49/104/36 60/105/36
f 41/81/25 44/84/26 42/82/26
f 44/84/26 60/106/27 45/85/27
f 45/85/27 60/106/27 46/86/28
f 46/86/28 49/89/29 48/88/29
f 49/89/29 51/91/30 50/90/30
f 51/91/30 53/93/31 52/92/31
f 53/93/31 55/95/32 54/94/32
f 55/95/32 57/97/33 56/96/33
f 57/97/33 59/99/34 58/98/34
f 59/99/34 41/81/25 43/83/25
f 58/102/35 43/107/35 47/100/35
f 42/108/35 45/109/35 47/100/35
f 47/100/35 48/110/35 50/111/35
f 50/111/35 52/112/35 54/101/35
f 54/101/35 56/113/35 58/102/35
f 43/107/35 42/108/35 47/100/35
f 47/100/35 50/111/35 54/101/35
f 60/105/36 44/114/36 41/115/36
f 41/115/36 59/116/36 60/105/36
f 57/103/36 55/117/36 53/118/36
f 53/118/36 51/119/36 57/103/36
f 49/104/36 46/120/36 60/105/36
f 60/105/36 59/116/36 57/103/36
f 57/103/36 51/119/36 49/104/36
o FRW_Cylinder.008
v -0.374566 0.281381 0.516295
v -0.275277 0.227662 0.590234
v -0.275277 0.281381 0.516295
v -0.374566 0.227662 0.590234
v -0.275277 0.140742 0.618475
v -0.374566 0.140742 0.618475
v -0.275277 0.053822 0.590234
v -0.374566 0.053822 0.590234
v -0.275277 0.000102 0.516295
v -0.374566 0.000102 0.516295
v -0.275277 0.000102 0.424902
v -0.374566 0.000102 0.424902
v -0.275277 0.053822 0.350964
v -0.374566 0.053822 0.350964
v -0.275277 0.140742 0.322722
v -0.374566 0.140742 0.322722
v -0.275277 0.227662 0.350964
v -0.374566 0.227662 0.350964
v -0.275277 0.281381 0.424902
v -0.374566 0.281381 0.424902
vt 0.612156 0.971647
vt 0.524372 0.959848
vt 0.524372 0.971647
vt 0.612156 0.959848
vt 0.524372 0.940757
vt 0.612156 0.940757
vt 0.524372 0.921665
vt 0.612156 0.921665
vt 0.524372 0.909866
vt 0.612156 0.909866
vt 0.524372 0.909866
vt 0.612156 0.909866
vt 0.524372 0.921665
vt 0.612156 0.921665
vt 0.524372 0.940757
vt 0.612156 0.940757
vt 0.524372 0.959848
vt 0.612156 0.959848
vt 0.524372 0.971647
vt 0.612156 0.971647
vt 0.516159 0.888320
vt 0.519896 0.891662
vt 0.518469 0.897068
vt 0.250082 0.022727
vt 0.383670 0.433867
vt 0.116495 0.433868
vt 0.516159 0.897992
vt 0.512421 0.891662
vt 0.513849 0.897068
vt 0.512421 0.894650
vt 0.513849 0.889244
vt 0.518469 0.889244
vt 0.519896 0.894650
vt 0.033933 0.320231
vt 0.033933 0.179769
vt 0.116495 0.066133
vt 0.383670 0.066133
vt 0.466232 0.179769
vt 0.466232 0.320231
vt 0.250082 0.477273
vn 0.0000 0.9511 0.3090
vn 0.0000 0.5878 0.8090
vn 0.0000 -0.0000 1.0000
vn 0.0000 -0.5878 0.8090
vn 0.0000 -0.9511 0.3090
vn 0.0000 -0.9511 -0.3090
vn 0.0000 -0.5878 -0.8090
vn 0.0000 0.0000 -1.0000
vn 0.0000 0.5878 -0.8090
vn 0.0000 0.9511 -0.3090
vn 1.0000 -0.0000 0.0000
vn -1.0000 0.0000 0.0000
s 1
f 61/121/37 62/122/38 63/123/37
f 64/124/38 65/125/39 62/122/38
f 66/126/39 67/127/40 65/125/39
f 68/128/40 69/129/41 67/127/40
f 70/130/41 71/131/42 69/129/41
f 72/132/42 73/133/43 71/131/42
f 74/134/43 75/135/44 73/133/43
f 76/136/44 77/137/45 75/135/44
f 78/138/45 79/139/46 77/137/45
f 80/140/46 63/123/37 79/139/46
f 71/141/47 75/142/47 79/143/47
f 78/144/48 70/145/48 66/146/48
f 61/121/37 64/124/38 62/122/38
f 64/124/38 66/126/39 65/125/39
f 66/126/39 68/128/40 67/127/40
f 68/128/40 70/130/41 69/129/41
f 70/130/41 72/132/42 71/131/42
f 72/132/42 74/134/43 73/133/43
f 74/134/43 76/136/44 75/135/44
f 76/136/44 78/138/45 77/137/45
f 78/138/45 80/140/46 79/139/46
f 80/140/46 61/121/37 63/123/37
f 79/143/47 63/147/47 67/148/47
f 62/149/47 65/150/47 67/148/47
f 67/148/47 69/151/47 71/141/47
f 71/141/47 73/152/47 75/142/47
f 75/142/47 77/153/47 79/143/47
f 63/147/47 62/149/47 67/148/47
f 67/148/47 71/141/47 79/143/47
f 66/146/48 64/154/48 61/155/48
f 61/155/48 80/156/48 66/146/48
f 78/144/48 76/157/48 74/158/48
f 74/158/48 72/159/48 78/144/48
f 70/145/48 68/160/48 66/146/48
f 66/146/48 80/156/48 78/144/48
f 78/144/48 72/159/48 70/145/48
o Body_Plane.001
v 0.329663 0.336246 0.804556
v 0.000000 0.394354 0.224193
v 0.000000 0.336246 0.839871
v 0.000000 0.302777 0.866448
v 0.338128 0.302777 0.831134
v 0.322159 0.284716 0.831134
v 0.346003 0.160875 0.831134
v 0.000000 0.160875 0.866448
v 0.346003 0.160875 0.868868
v 0.000000 0.160875 0.904182
v 0.346003 0.106735 0.868868
v 0.000000 0.106735 0.831134
v 0.346003 0.106735 0.831134
v 0.369135 0.106735 0.655130
v 0.369135 0.262593 0.607553
v 0.369135 0.313287 0.470891
v 0.355980 0.394354 0.224193
v 0.369135 0.262593 0.314213
v 0.337076 0.086690 -0.280108
v 0.361988 0.262999 -0.313863
v 0.355981 0.394354 -0.481235
v 0.335500 0.408834 0.213286
v 0.000000 0.408830 0.213289
v 0.276617 0.582958 0.082128
v 0.000000 0.582958 -0.317125
v 0.000000 0.582958 0.082128
v 0.265759 0.569122 -0.329164
v 0.000000 0.569128 -0.329159
v 0.349518 0.409712 -0.444511
v 0.349518 0.409712 -0.157216
v 0.000000 0.364009 -0.885238
v 0.000000 0.394354 -0.481235
v 0.355981 0.364009 -0.858195
v 0.000000 0.297172 -0.936034
v 0.355981 0.297172 -0.908991
v 0.000000 0.190852 -0.936034
v 0.355981 0.190852 -0.908991
v 0.000000 0.190852 -0.985027
v 0.355981 0.190852 -0.957984
v 0.000000 0.128966 -0.985027
v 0.355981 0.128966 -0.957984
v 0.000000 0.128966 -0.908989
v 0.361988 0.106736 -0.621514
v 0.361988 0.251379 -0.598956
v 0.361988 0.317003 -0.464251
v 0.239776 0.313287 0.470891
v 0.239776 0.106736 -0.621514
v 0.239776 0.262999 -0.313863
v 0.239776 0.262593 0.314213
v 0.239776 0.262593 0.607553
v 0.239776 0.317003 -0.464251
v 0.239776 0.251379 -0.598956
v 0.337076 0.086690 0.286323
v 0.239776 0.086690 0.286323
v 0.239776 0.106735 0.655130
v 0.239776 0.086690 -0.280108
v 0.000000 0.086690 -0.280108
v 0.000000 0.086690 0.286323
v 0.355981 0.128966 -0.908989
v 0.264123 0.567292 0.093928
v 0.000000 0.567296 0.093925
v 0.000000 0.408690 -0.468761
v 0.333293 0.408685 -0.468765
v 0.276617 0.582958 -0.317125
v 0.349518 0.409712 0.187564
v 0.283798 0.565893 -0.304084
v 0.349518 0.409712 -0.115218
v 0.283798 0.565893 0.070756
v 0.283798 0.565893 -0.115218
v 0.283798 0.565893 -0.157216
v 0.000000 0.176406 0.866448
v 0.000000 0.284722 0.866448
v 0.329393 0.176411 0.831134
v 0.000000 0.106735 0.904182
v -0.329663 0.336246 0.804556
v -0.338128 0.302777 0.831134
v -0.322159 0.284716 0.831134
v -0.346003 0.160875 0.831134
v -0.346003 0.160875 0.868868
v -0.346003 0.106735 0.868868
v -0.346003 0.106735 0.831134
v -0.369135 0.106735 0.655130
v -0.369135 0.262593 0.607553
v -0.355980 0.394354 0.224193
v -0.369135 0.313287 0.470891
v -0.369135 0.262593 0.314213
v -0.361988 0.262999 -0.313863
v -0.337076 0.086690 -0.280108
v -0.355981 0.394354 -0.481235
v -0.335500 0.408834 0.213286
v -0.276617 0.582958 0.082128
v -0.265759 0.569122 -0.329164
v -0.349518 0.409712 -0.157216
v -0.349518 0.409712 -0.444511
v -0.355981 0.364009 -0.858195
v -0.355981 0.297172 -0.908991
v -0.355981 0.190852 -0.908991
v -0.355981 0.190852 -0.957984
v -0.355981 0.128966 -0.957984
v -0.361988 0.106736 -0.621514
v -0.361988 0.251379 -0.598956
v -0.361988 0.317003 -0.464251
v -0.239776 0.313287 0.470891
v -0.239776 0.106736 -0.621514
v -0.239776 0.262999 -0.313863
v -0.239776 0.262593 0.314213
v -0.239776 0.262593 0.607553
v -0.239776 0.317003 -0.464251
v -0.239776 0.251379 -0.598956
v -0.337076 0.086690 0.286323
v -0.239776 0.086690 0.286323
v -0.239776 0.106735 0.655130
v -0.239776 0.086690 -0.280108
v -0.355981 0.128966 -0.908989
v -0.264123 0.567292 0.093928
v -0.333293 0.408685 -0.468765
v -0.276617 0.582958 -0.317125
v -0.349518 0.409712 0.187564
v -0.283798 0.565893 -0.304084
v -0.349518 0.409712 -0.115218
v -0.283798 0.565893 0.070756
v -0.283798 0.565893 -0.115218
v -0.283798 0.565893 -0.157216
v -0.329393 0.176411 0.831134
v 0.190850 0.073091 -0.802010
v 0.190850 0.125425 -0.819067
v 0.190850 0.123947 -0.936981
v 0.190850 0.068903 -0.936981
v 0.245894 0.123947 -0.936981
v 0.245894 0.068903 -0.936981
v 0.245894 0.125425 -0.819067
v 0.245894 0.073091 -0.802010
v 0.245894 0.116271 -0.695213
v 0.190850 0.116271 -0.695213
v 0.190850 0.168606 -0.712269
v 0.245894 0.168606 -0.712269
v -0.188662 0.572613 -0.042047
v -0.188662 0.623844 -0.042047
v -0.156009 0.623844 -0.023195
v -0.156009 0.572613 -0.023195
v -0.156009 0.623844 0.014509
v -0.156009 0.572613 0.014509
v -0.188662 0.623844 0.033361
v -0.188662 0.572613 0.033361
v -0.221315 0.623844 0.014509
v -0.221315 0.572613 0.014509
v -0.188662 0.644464 0.012988
v -0.203671 0.644464 0.004322
v -0.221315 0.623844 -0.023195
v -0.221315 0.572613 -0.023195
v -0.173653 0.644464 -0.013008
v -0.188662 0.644464 -0.021673
v -0.203671 0.644464 -0.013008
v -0.173653 0.644464 0.004322
vt 0.514190 0.731673
vt 0.514578 0.730990
vt 0.514578 0.731673
vt 0.509250 0.704876
vt 0.509202 0.705264
vt 0.509202 0.704866
vt 0.548944 0.692047
vt 0.548776 0.692019
vt 0.548964 0.692029
vt 0.274168 0.804386
vt 0.274212 0.804793
vt 0.274168 0.804793
vt 0.415876 0.728144
vt 0.415816 0.727737
vt 0.415876 0.727737
vt 0.414698 0.702023
vt 0.415105 0.702068
vt 0.414698 0.702068
vt 0.414079 0.725895
vt 0.414016 0.725940
vt 0.414016 0.725895
vt 0.552708 0.693051
vt 0.552640 0.692844
vt 0.552703 0.692844
vt 0.552444 0.692844
vt 0.552527 0.693108
vt 0.552403 0.692876
vt 0.552469 0.693269
vt 0.552372 0.693559
vt 0.552528 0.693453
vt 0.756567 0.869251
vt 0.760922 0.868157
vt 0.761169 0.869253
vt 0.882002 0.435169
vt 0.910340 0.427677
vt 0.919155 0.435169
vt 0.303599 0.950388
vt 0.303620 0.949993
vt 0.303620 0.950388
vt 0.296705 0.795984
vt 0.297030 0.795514
vt 0.297030 0.795984
vt 0.303506 0.951712
vt 0.303526 0.951400
vt 0.303526 0.951712
vt 0.302115 0.951559
vt 0.302096 0.951516
vt 0.302096 0.951177
vt 0.514159 0.732215
vt 0.514578 0.731772
vt 0.514578 0.732215
vt 0.509045 0.704339
vt 0.509139 0.704758
vt 0.509045 0.704758
vt 0.513688 0.644672
vt 0.534308 0.636755
vt 0.534308 0.644672
vt 0.273228 0.805488
vt 0.273286 0.805907
vt 0.273228 0.805907
vt 0.414716 0.727788
vt 0.414784 0.728207
vt 0.414716 0.728207
vt 0.414686 0.704173
vt 0.415105 0.704115
vt 0.415105 0.704173
vt 0.413985 0.727987
vt 0.414057 0.728045
vt 0.413985 0.728045
vt 0.552708 0.694553
vt 0.552609 0.694892
vt 0.552540 0.694527
vt 0.552451 0.694892
vt 0.552374 0.694832
vt 0.552464 0.694369
vt 0.552373 0.694389
vt 0.918261 0.430757
vt 0.303634 0.924232
vt 0.303482 0.924071
vt 0.303634 0.924071
vt 0.302093 0.925343
vt 0.302237 0.925496
vt 0.302093 0.925496
vt 0.303760 0.923773
vt 0.303646 0.923613
vt 0.303790 0.923613
vt 0.303482 0.923887
vt 0.303634 0.923887
vt 0.303547 0.923767
vt 0.303395 0.923613
vt 0.303547 0.923613
vt 0.303651 0.923430
vt 0.303507 0.923253
vt 0.303650 0.923253
vt 0.303507 0.923095
vt 0.303651 0.923095
vt 0.303182 0.923776
vt 0.303296 0.923613
vt 0.303296 0.923776
vt 0.303383 0.924320
vt 0.303202 0.923943
vt 0.303383 0.923887
vt 0.303144 0.924104
vt 0.303202 0.924288
vt 0.303294 0.925339
vt 0.303113 0.924977
vt 0.303294 0.924937
vt 0.303050 0.925154
vt 0.303126 0.925313
vt 0.302245 0.923780
vt 0.302131 0.924447
vt 0.302131 0.923780
vt 0.302527 0.924447
vt 0.302245 0.924447
vt 0.302093 0.923346
vt 0.302120 0.923139
vt 0.302245 0.923346
vt 0.302527 0.923139
vt 0.302527 0.923780
vt 0.302108 0.925187
vt 0.302245 0.924849
vt 0.302527 0.925187
vt 0.303841 0.950077
vt 0.303863 0.950388
vt 0.303841 0.950388
vt 0.989838 0.879734
vt 0.991840 0.996960
vt 0.989838 0.996966
vt 0.303863 0.950063
vt 0.920100 0.997063
vt 0.924568 0.880587
vt 0.924568 0.997065
vt 0.303759 0.951320
vt 0.303779 0.951712
vt 0.303759 0.951712
vt 0.303506 0.951387
vt 0.303779 0.951294
vt 0.302095 0.950772
vt 0.301879 0.950896
vt 0.302114 0.950729
vt 0.962824 0.995787
vt 0.959701 0.880827
vt 0.965810 0.880827
vt 0.958808 0.880827
vt 0.954853 0.995787
vt 0.952369 0.880827
vt 0.301901 0.951128
vt 0.302096 0.951128
vt 0.301880 0.951365
vt 0.301901 0.950909
vt 0.301901 0.951177
vt 0.301901 0.951350
vt 0.515010 0.666612
vt 0.555108 0.676862
vt 0.515010 0.676862
vt 0.548964 0.692426
vt 0.548944 0.692426
vt 0.548794 0.692039
vt 0.548776 0.692426
vt 0.514159 0.730990
vt 0.509250 0.705264
vt 0.274212 0.804386
vt 0.415816 0.728144
vt 0.415105 0.702023
vt 0.414079 0.725940
vt 0.756771 0.868157
vt 0.877261 0.427654
vt 0.303599 0.949969
vt 0.296705 0.795514
vt 0.514159 0.731772
vt 0.509139 0.704339
vt 0.513688 0.636755
vt 0.273286 0.805488
vt 0.414784 0.727788
vt 0.414686 0.704115
vt 0.414057 0.727987
vt 0.552681 0.694891
vt 0.303482 0.924232
vt 0.302237 0.925343
vt 0.303646 0.923773
vt 0.303395 0.923767
vt 0.303507 0.923430
vt 0.303144 0.923613
vt 0.302101 0.924849
vt 0.992381 0.879734
vt 0.918965 0.880587
vt 0.959701 0.995787
vt 0.958808 0.995787
vt 0.555908 0.666612
vt 0.548794 0.692426
vt 0.514190 0.731673
vt 0.509250 0.704876
vt 0.509202 0.704866
vt 0.548944 0.692047
vt 0.548964 0.692029
vt 0.548776 0.692019
vt 0.274168 0.804793
vt 0.274212 0.804793
vt 0.415876 0.727737
vt 0.415816 0.727737
vt 0.414698 0.702023
vt 0.414698 0.702068
vt 0.414079 0.725895
vt 0.414016 0.725895
vt 0.414016 0.725940
vt 0.552708 0.693051
vt 0.552703 0.692844
vt 0.552640 0.692844
vt 0.552444 0.692844
vt 0.552527 0.693108
vt 0.552403 0.692876
vt 0.552372 0.693559
vt 0.552469 0.693269
vt 0.552528 0.693453
vt 0.761086 0.864425
vt 0.757113 0.864423
vt 0.757290 0.863479
vt 0.882002 0.435168
vt 0.919155 0.435168
vt 0.910340 0.427677
vt 0.303620 0.949993
vt 0.296705 0.795984
vt 0.303526 0.951400
vt 0.302115 0.951559
vt 0.302096 0.951177
vt 0.302096 0.951516
vt 0.514159 0.732215
vt 0.509045 0.704339
vt 0.513688 0.644672
vt 0.273228 0.805488
vt 0.414716 0.727788
vt 0.414686 0.704173
vt 0.413985 0.727987
vt 0.413985 0.728045
vt 0.414057 0.728045
vt 0.552708 0.694553
vt 0.552540 0.694527
vt 0.552609 0.694892
vt 0.552451 0.694892
vt 0.552464 0.694369
vt 0.552374 0.694832
vt 0.552373 0.694389
vt 0.918261 0.430757
vt 0.303634 0.924232
vt 0.303634 0.924071
vt 0.303482 0.924071
vt 0.302093 0.925343
vt 0.302093 0.925496
vt 0.302237 0.925496
vt 0.303760 0.923773
vt 0.303790 0.923613
vt 0.303646 0.923613
vt 0.303634 0.923887
vt 0.303482 0.923887
vt 0.303547 0.923767
vt 0.303547 0.923613
vt 0.303395 0.923613
vt 0.303651 0.923430
vt 0.303650 0.923253
vt 0.303507 0.923253
vt 0.303651 0.923095
vt 0.303507 0.923095
vt 0.303182 0.923776
vt 0.303296 0.923776
vt 0.303296 0.923613
vt 0.303383 0.924320
vt 0.303383 0.923887
vt 0.303202 0.923943
vt 0.303144 0.924104
vt 0.303202 0.924288
vt 0.303294 0.925339
vt 0.303294 0.924937
vt 0.303113 0.924977
vt 0.303050 0.925154
vt 0.303126 0.925313
vt 0.302245 0.923780
vt 0.302131 0.923780
vt 0.302131 0.924447
vt 0.302245 0.924447
vt 0.302093 0.923346
vt 0.302245 0.923346
vt 0.302120 0.923139
vt 0.302108 0.925187
vt 0.302245 0.924849
vt 0.303841 0.950077
vt 0.991840 0.996960
vt 0.303863 0.950063
vt 0.920100 0.997063
vt 0.303759 0.951320
vt 0.303779 0.951294
vt 0.303506 0.951387
vt 0.302095 0.950772
vt 0.302114 0.950729
vt 0.301879 0.950896
vt 0.962824 0.995787
vt 0.965810 0.880827
vt 0.959701 0.880827
vt 0.958808 0.880827
vt 0.952369 0.880827
vt 0.954853 0.995787
vt 0.302096 0.951128
vt 0.301901 0.951128
vt 0.301880 0.951365
vt 0.301901 0.950909
vt 0.301901 0.951350
vt 0.301901 0.951177
vt 0.555108 0.676862
vt 0.548794 0.692039
vt 0.514159 0.730990
vt 0.414079 0.725940
vt 0.760873 0.863479
vt 0.877261 0.427654
vt 0.303599 0.949969
vt 0.296705 0.795514
vt 0.514159 0.731772
vt 0.509139 0.704339
vt 0.513688 0.636755
vt 0.273286 0.805488
vt 0.414784 0.727788
vt 0.414686 0.704115
vt 0.414057 0.727987
vt 0.552681 0.694891
vt 0.303482 0.924232
vt 0.302237 0.925343
vt 0.303646 0.923773
vt 0.303395 0.923767
vt 0.303507 0.923430
vt 0.303144 0.923613
vt 0.302101 0.924849
vt 0.992381 0.879734
vt 0.918965 0.880587
vt 0.959701 0.995787
vt 0.958808 0.995787
vt 0.555908 0.666612
vt 0.302833 0.984937
vt 0.307698 0.980072
vt 0.307698 0.984937
vt 0.236306 0.951208
vt 0.248159 0.939354
vt 0.248159 0.951208
vt 0.302347 0.984937
vt 0.297482 0.980072
vt 0.302347 0.980072
vt 0.297482 0.995640
vt 0.302347 0.990775
vt 0.302347 0.995640
vt 0.307698 0.990289
vt 0.302833 0.985424
vt 0.307698 0.985424
vt 0.297482 0.990775
vt 0.302347 0.990775
vt 0.302833 0.990289
vt 0.302833 0.985424
vt 0.302347 0.980072
vt 0.307698 0.984937
vt 0.302833 0.984937
vt 0.635733 0.944355
vt 0.635226 0.943377
vt 0.635733 0.943377
vt 0.635226 0.944470
vt 0.634973 0.943377
vt 0.635226 0.943491
vt 0.634973 0.944355
vt 0.634466 0.943377
vt 0.634466 0.944470
vt 0.634213 0.943377
vt 0.634466 0.943491
vt 0.634213 0.944355
vt 0.634193 0.944864
vt 0.634076 0.944811
vt 0.633706 0.943377
vt 0.633706 0.944355
vt 0.633453 0.943491
vt 0.820277 0.583721
vt 0.820479 0.583371
vt 0.820681 0.583721
vt 0.634836 0.944811
vt 0.633843 0.944811
vt 0.635363 0.944811
vt 0.635226 0.944355
vt 0.634603 0.944811
vt 0.634466 0.944355
vt 0.633453 0.944470
vt 0.633727 0.944864
vt 0.302833 0.980072
vt 0.236306 0.939354
vt 0.297482 0.984937
vt 0.297482 0.990775
vt 0.302833 0.990289
vt 0.297482 0.980072
vt 0.820479 0.583837
vt 0.820277 0.583488
vt 0.820681 0.583488
vt 0.634953 0.944864
vt 0.635596 0.944811
vn 0.0068 0.9954 0.0958
vn 0.0000 0.9952 0.0978
vn 0.0000 0.9956 0.0940
vn 0.0807 0.6313 0.7713
vn 0.0833 0.6208 0.7796
vn 0.0805 0.6323 0.7706
vn 0.0658 -0.0311 0.9973
vn 0.0504 0.0539 0.9973
vn 0.0541 -0.0479 0.9974
vn 0.0000 1.0000 0.0000
vn 0.1015 0.0000 0.9948
vn 0.0000 -1.0000 -0.0000
vn 0.0000 -0.9999 0.0110
vn 1.0000 0.0000 0.0000
vn 0.9922 0.0306 0.1210
vn 0.9915 0.0285 0.1268
vn 0.9915 0.0000 0.1303
vn 0.9803 0.1667 0.1060
vn 0.9772 0.1846 0.1053
vn 0.9493 0.3039 0.0802
vn 0.9418 0.3298 0.0654
vn 0.9939 0.1100 -0.0065
vn 0.9962 0.0850 -0.0212
vn 0.9852 -0.1717 -0.0023
vn 0.9889 -0.1482 -0.0095
vn 0.9898 -0.1420 -0.0114
vn 0.9985 0.0541 0.0025
vn 0.9975 0.0713 0.0034
vn 0.0000 0.6017 0.7988
vn 0.0000 0.6564 -0.7544
vn 0.9217 0.3879 0.0000
vn 0.0028 0.9970 -0.0774
vn 0.0000 0.9970 -0.0777
vn 0.0000 0.9972 -0.0749
vn 0.0604 0.6040 -0.7947
vn 0.0757 0.0000 -0.9971
vn 0.9999 0.0003 -0.0134
vn 0.9998 0.0027 -0.0201
vn 0.9998 0.0157 -0.0155
vn 0.9998 0.0057 -0.0185
vn 0.9997 0.0202 -0.0158
vn 0.9973 0.0730 0.0126
vn 0.0000 -0.6860 -0.7276
vn 0.0000 -0.9998 -0.0211
vn 0.0000 -0.5941 0.8044
vn 0.0000 -0.1541 0.9881
vn 0.0000 -0.1880 -0.9822
vn 0.0000 -0.6500 -0.7599
vn 0.0000 -0.6697 -0.7426
vn 0.0000 -0.6500 0.7600
vn 0.0000 -0.6775 0.7355
vn 0.0000 -0.2920 -0.9564
vn 0.0000 -0.9985 0.0543
vn 0.0000 -0.1566 0.9877
vn 0.0000 -0.9998 0.0181
vn 0.0000 -0.9995 -0.0310
vn 0.0000 -0.9998 -0.0195
vn 0.0093 -0.9998 0.0193
vn 0.0000 -0.9997 0.0239
vn 0.0000 -0.9970 -0.0771
vn -0.0047 -0.9975 -0.0708
vn 0.0000 -0.9974 -0.0727
vn 0.0000 0.6016 0.7988
vn 0.9217 0.3878 0.0000
vn 0.1075 0.0007 0.9942
vn 0.1090 -0.0000 0.9940
vn 0.1088 -0.0033 0.9941
vn 0.0641 0.0420 0.9971
vn 0.1064 0.0032 0.9943
vn 0.0000 0.9950 0.0996
vn 0.0836 0.6197 0.7804
vn 0.9838 -0.1793 -0.0000
vn 0.0061 0.9968 -0.0802
vn 0.9999 -0.0000 -0.0107
vn -0.0068 0.9954 0.0958
vn -0.0807 0.6313 0.7713
vn -0.0805 0.6323 0.7706
vn -0.0833 0.6208 0.7796
vn -0.0658 -0.0311 0.9973
vn -0.0541 -0.0479 0.9974
vn -0.0504 0.0539 0.9973
vn -0.1015 0.0000 0.9948
vn -1.0000 0.0000 0.0000
vn -0.9922 0.0306 0.1210
vn -0.9915 0.0000 0.1303
vn -0.9915 0.0285 0.1268
vn -0.9803 0.1667 0.1060
vn -0.9772 0.1846 0.1053
vn -0.9493 0.3039 0.0802
vn -0.9939 0.1100 -0.0065
vn -0.9418 0.3298 0.0654
vn -0.9962 0.0850 -0.0212
vn -0.9852 -0.1717 -0.0023
vn -0.9898 -0.1420 -0.0114
vn -0.9889 -0.1482 -0.0095
vn -0.9975 0.0713 0.0034
vn -0.9985 0.0541 0.0025
vn -0.9217 0.3879 0.0000
vn -0.0028 0.9970 -0.0774
vn -0.0604 0.6040 -0.7947
vn -0.0757 0.0000 -0.9971
vn -0.9999 0.0003 -0.0134
vn -0.9998 0.0027 -0.0201
vn -0.9998 0.0157 -0.0155
vn -0.9998 0.0057 -0.0185
vn -0.9973 0.0730 0.0126
vn -0.9997 0.0202 -0.0158
vn -0.0093 -0.9998 0.0193
vn 0.0047 -0.9975 -0.0708
vn -0.9217 0.3878 0.0000
vn -0.1075 0.0007 0.9942
vn -0.1090 -0.0000 0.9940
vn -0.1088 -0.0033 0.9941
vn -0.0641 0.0420 0.9971
vn -0.1064 0.0032 0.9943
vn -0.0836 0.6197 0.7804
vn -0.9838 -0.1793 -0.0000
vn -0.0061 0.9968 -0.0802
vn -0.9999 -0.0000 -0.0107
vn 0.0000 0.0000 -1.0000
vn 0.0000 -0.9995 0.0310
vn 0.0000 0.9999 -0.0125
vn 0.0000 -0.9271 0.3748
vn 0.0000 0.9271 -0.3748
vn 0.8660 0.0000 -0.5000
vn 0.8660 0.0000 0.5000
vn 0.0000 -0.0000 1.0000
vn -0.8660 -0.0000 0.5000
vn -0.6160 0.7028 0.3557
vn 0.0000 0.7028 0.7113
vn -0.8660 -0.0000 -0.5000
vn 0.6160 0.7028 -0.3557
vn 0.6160 0.7028 0.3557
vn -0.6160 0.7028 -0.3557
vn 0.0000 0.7028 -0.7113
vn 0.0000 0.7028 0.7114
vn 0.0000 0.7029 -0.7113
s 1
f 81/161/49 82/162/50 83/163/51
f 81/164/52 84/165/53 85/166/54
f 86/167/55 87/168/56 85/169/57
f 88/170/58 89/171/58 87/172/58
f 90/173/59 91/174/59 89/175/59
f 91/176/60 92/177/61 93/178/60
f 91/179/62 87/180/62 89/181/62
f 94/182/63 87/183/64 93/184/65
f 85/185/66 87/183/64 95/186/67
f 81/187/68 85/185/66 95/186/67
f 81/187/68 96/188/69 97/189/70
f 96/188/69 98/190/71 97/189/70
f 98/191/72 99/192/73 100/193/74
f 97/194/70 100/195/75 101/196/76
f 82/197/77 102/198/77 103/199/77
f 104/200/58 105/201/58 106/202/58
f 105/203/78 107/204/78 108/205/78
f 101/206/79 109/207/79 110/208/79
f 101/209/80 111/210/81 112/211/82
f 113/212/83 114/213/83 111/214/83
f 115/215/84 116/216/84 114/217/84
f 117/218/58 118/219/58 116/220/58
f 119/221/84 120/222/84 118/223/84
f 121/224/60 122/225/60 120/226/60
f 117/227/85 121/228/62 119/229/62
f 123/230/86 117/231/85 124/232/87
f 117/231/85 115/233/88 124/232/87
f 124/232/87 113/234/89 125/235/90
f 113/234/89 101/236/76 125/235/90
f 101/196/76 100/195/75 125/237/90
f 95/238/91 126/239/92 96/240/92
f 124/241/93 127/242/94 123/243/94
f 99/244/95 128/245/96 100/246/97
f 96/240/92 129/247/98 98/248/99
f 94/249/100 130/250/91 95/251/91
f 100/252/97 131/253/101 125/254/101
f 125/254/101 132/255/93 124/256/93
f 133/257/102 129/258/98 134/259/102
f 134/260/62 130/261/62 135/262/62
f 126/263/62 130/261/62 129/264/62
f 127/265/62 128/266/62 136/267/62
f 131/268/62 128/266/62 132/269/62
f 134/270/103 99/271/60 133/272/60
f 134/270/103 137/273/104 136/274/105
f 94/275/60 93/276/60 135/277/106
f 93/276/60 92/278/61 135/277/106
f 134/270/103 135/277/106 138/279/107
f 135/277/106 92/278/61 138/279/107
f 139/280/108 127/281/109 122/282/110
f 127/281/109 137/273/104 122/282/110
f 136/274/105 137/273/104 127/281/109
f 140/283/77 106/284/111 141/285/77
f 103/286/77 140/287/77 141/288/77
f 102/198/77 104/289/77 140/283/77
f 107/290/78 142/291/78 108/292/78
f 143/293/78 112/294/78 142/295/78
f 143/293/78 144/296/78 101/297/78
f 145/298/112 104/299/79 97/300/112
f 146/301/79 110/302/79 109/303/79
f 147/304/79 148/305/79 145/306/112
f 110/208/79 149/307/79 147/308/79
f 144/309/79 109/207/79 101/206/79
f 104/299/79 148/310/79 149/307/79
f 97/300/112 147/308/79 145/298/112
f 147/308/79 101/206/79 110/208/79
f 144/309/79 150/311/79 146/312/79
f 149/307/79 144/309/79 104/299/79
f 151/313/113 86/314/55 152/315/114
f 86/167/55 84/316/115 152/317/114
f 153/318/116 88/319/117 87/168/56
f 81/161/49 97/320/118 82/162/50
f 81/164/52 83/321/119 84/165/53
f 86/167/55 153/318/116 87/168/56
f 88/170/58 90/322/58 89/171/58
f 90/173/59 154/323/59 91/174/59
f 91/176/60 154/324/60 92/177/61
f 91/179/62 93/325/62 87/180/62
f 94/182/63 95/186/67 87/183/64
f 81/187/68 95/186/67 96/188/69
f 98/191/72 133/326/120 99/192/73
f 97/194/70 98/327/71 100/195/75
f 82/197/77 97/328/77 102/198/77
f 104/200/58 144/329/58 105/201/58
f 105/203/78 144/296/78 107/204/78
f 101/209/80 113/330/121 111/210/81
f 113/212/83 115/331/83 114/213/83
f 115/215/84 117/332/84 116/216/84
f 117/218/58 119/333/58 118/219/58
f 119/221/84 121/334/84 120/222/84
f 121/224/60 139/335/60 122/225/60
f 117/227/85 139/336/122 121/228/62
f 123/230/86 139/337/122 117/231/85
f 124/232/87 115/233/88 113/234/89
f 95/238/91 130/338/91 126/239/92
f 124/241/93 132/339/93 127/242/94
f 99/244/95 136/340/95 128/245/96
f 96/240/92 126/239/92 129/247/98
f 94/249/100 135/341/100 130/250/91
f 100/252/97 128/342/96 131/253/101
f 125/254/101 131/253/101 132/255/93
f 133/257/102 98/343/99 129/258/98
f 134/260/62 129/264/62 130/261/62
f 127/265/62 132/269/62 128/266/62
f 134/270/103 136/274/105 99/271/60
f 134/270/103 138/279/107 137/273/104
f 139/280/108 123/344/108 127/281/109
f 140/283/77 104/289/77 106/284/111
f 103/286/77 102/345/77 140/287/77
f 102/198/77 97/328/77 104/289/77
f 107/290/78 143/346/78 142/291/78
f 143/293/78 101/297/78 112/294/78
f 143/293/78 107/204/78 144/296/78
f 145/298/112 148/310/79 104/299/79
f 146/301/79 150/347/79 110/302/79
f 147/304/79 149/348/79 148/305/79
f 110/208/79 150/311/79 149/307/79
f 144/309/79 146/312/79 109/207/79
f 147/308/79 97/300/112 101/206/79
f 149/307/79 150/311/79 144/309/79
f 151/313/113 153/349/116 86/314/55
f 86/167/55 85/169/57 84/316/115
f 153/318/116 151/350/113 88/319/117
f 155/351/123 83/163/51 82/162/50
f 155/352/124 156/353/125 84/165/126
f 157/354/127 156/355/128 158/356/129
f 88/170/58 158/357/58 159/358/58
f 90/173/130 159/359/130 160/360/130
f 160/361/60 161/362/60 92/177/61
f 160/363/131 159/364/131 158/365/131
f 162/366/132 161/367/133 158/368/134
f 156/369/135 163/370/136 158/368/134
f 155/371/137 163/370/136 156/369/135
f 155/371/137 164/372/138 165/373/139
f 165/373/139 164/372/138 166/374/140
f 166/375/141 167/376/142 168/377/143
f 164/378/138 169/379/144 167/380/145
f 82/197/77 103/199/77 170/381/77
f 171/382/58 106/202/58 105/201/58
f 105/203/78 108/205/78 172/383/78
f 169/384/146 173/385/146 174/386/146
f 169/387/147 112/211/82 111/210/81
f 175/388/148 111/214/148 114/213/148
f 176/389/149 114/217/149 116/216/149
f 177/390/58 116/220/58 118/219/58
f 178/391/149 118/223/149 120/222/149
f 179/392/60 120/226/60 122/225/60
f 177/393/150 178/394/131 179/395/131
f 180/396/151 181/397/152 177/398/150
f 177/398/150 181/397/152 176/399/153
f 181/397/152 182/400/154 175/401/155
f 175/401/155 182/400/154 169/402/144
f 169/379/144 182/403/154 167/380/145
f 163/404/91 165/405/92 183/406/92
f 181/407/93 180/408/94 184/409/94
f 168/410/95 167/411/97 185/412/96
f 165/405/92 166/413/99 186/414/98
f 162/415/100 163/416/91 187/417/91
f 167/418/97 182/419/101 188/420/101
f 182/419/101 181/421/93 189/422/93
f 190/423/102 191/424/102 186/425/98
f 191/426/131 192/427/131 187/428/131
f 183/429/131 186/430/131 187/428/131
f 184/431/131 193/432/131 185/433/131
f 188/434/131 189/435/131 185/433/131
f 191/436/103 190/437/60 168/438/60
f 191/436/103 193/439/105 137/273/104
f 162/440/60 192/441/156 161/442/60
f 161/442/60 192/441/156 92/278/61
f 191/436/103 138/279/107 192/441/156
f 192/441/156 138/279/107 92/278/61
f 194/443/108 122/282/110 184/444/157
f 184/444/157 122/282/110 137/273/104
f 193/439/105 184/444/157 137/273/104
f 195/445/77 141/285/77 106/284/111
f 103/286/77 141/288/77 195/446/77
f 170/381/77 195/445/77 171/447/77
f 172/448/78 108/292/78 142/291/78
f 196/449/78 142/295/78 112/294/78
f 196/449/78 169/450/78 197/451/78
f 198/452/158 164/453/158 171/454/146
f 199/455/146 174/456/146 173/457/146
f 200/458/146 198/459/158 201/460/146
f 173/385/146 200/461/146 202/462/146
f 197/463/146 169/384/146 174/386/146
f 171/454/146 202/462/146 201/464/146
f 164/453/158 198/452/158 200/461/146
f 200/461/146 173/385/146 169/384/146
f 197/463/146 199/465/146 203/466/146
f 202/462/146 171/454/146 197/463/146
f 151/313/159 152/315/160 157/467/127
f 157/354/127 152/317/160 84/316/161
f 204/468/162 158/356/129 88/319/163
f 155/351/123 82/162/50 164/469/118
f 155/352/124 84/165/126 83/321/164
f 157/354/127 158/356/129 204/468/162
f 88/170/58 159/358/58 90/322/58
f 90/173/130 160/360/130 154/323/130
f 160/361/60 92/177/61 154/324/60
f 160/363/131 158/365/131 161/470/131
f 162/366/132 158/368/134 163/370/136
f 155/371/137 165/373/139 163/370/136
f 166/375/141 168/377/143 190/471/165
f 164/378/138 167/380/145 166/472/140
f 82/197/77 170/381/77 164/473/77
f 171/382/58 105/201/58 197/474/58
f 105/203/78 172/383/78 197/451/78
f 169/387/147 111/210/81 175/475/166
f 175/388/148 114/213/148 176/476/148
f 176/389/149 116/216/149 177/477/149
f 177/390/58 118/219/58 178/478/58
f 178/391/149 120/222/149 179/479/149
f 179/392/60 122/225/60 194/480/60
f 177/393/150 179/395/131 194/481/167
f 180/396/151 177/398/150 194/482/167
f 181/397/152 175/401/155 176/399/153
f 163/404/91 183/406/92 187/483/91
f 181/407/93 184/409/94 189/484/93
f 168/410/95 185/412/96 193/485/95
f 165/405/92 186/414/98 183/406/92
f 162/415/100 187/417/91 192/486/100
f 167/418/97 188/420/101 185/487/96
f 182/419/101 189/422/93 188/420/101
f 190/423/102 186/425/98 166/488/99
f 191/426/131 187/428/131 186/430/131
f 184/431/131 185/433/131 189/435/131
f 191/436/103 168/438/60 193/439/105
f 191/436/103 137/273/104 138/279/107
f 194/443/108 184/444/157 180/489/108
f 195/445/77 106/284/111 171/447/77
f 103/286/77 195/446/77 170/490/77
f 170/381/77 171/447/77 164/473/77
f 172/448/78 142/291/78 196/491/78
f 196/449/78 112/294/78 169/450/78
f 196/449/78 197/451/78 172/383/78
f 198/452/158 171/454/146 201/464/146
f 199/455/146 173/457/146 203/492/146
f 200/458/146 201/460/146 202/493/146
f 173/385/146 202/462/146 203/466/146
f 197/463/146 174/386/146 199/465/146
f 200/461/146 169/384/146 164/453/158
f 202/462/146 197/463/146 203/466/146
f 151/313/159 157/467/127 204/494/162
f 157/354/127 84/316/161 156/355/128
f 204/468/162 88/319/163 151/350/159
f 206/495/131 208/496/131 205/497/131
f 207/498/168 210/499/168 208/500/168
f 210/501/62 211/502/62 212/503/62
f 210/504/169 205/505/169 208/506/169
f 207/507/170 211/508/170 209/509/170
f 212/510/171 214/511/171 205/505/171
f 206/512/172 216/513/172 211/508/172
f 211/502/62 213/514/62 212/503/62
f 206/495/131 214/515/131 215/516/131
f 218/517/168 220/518/173 217/519/168
f 219/520/173 222/521/174 220/522/173
f 221/523/174 224/524/175 222/521/174
f 223/525/175 226/526/176 224/527/175
f 225/528/177 227/529/178 228/530/177
f 225/528/176 230/531/179 226/526/176
f 229/532/179 217/533/168 230/531/179
f 232/534/58 228/535/58 234/536/58
f 219/520/180 234/537/181 221/523/181
f 225/528/177 233/538/182 229/532/182
f 218/517/183 231/539/180 219/540/180
f 221/523/181 227/541/178 223/542/184
f 218/543/183 233/538/182 232/544/185
f 206/495/131 207/545/131 208/496/131
f 207/498/168 209/546/168 210/499/168
f 210/501/62 209/547/62 211/502/62
f 210/504/169 212/510/169 205/505/169
f 207/507/170 206/512/170 211/508/170
f 212/510/171 213/548/171 214/511/171
f 206/512/172 215/549/172 216/513/172
f 211/502/62 216/550/62 213/514/62
f 206/495/131 205/497/131 214/515/131
f 218/517/168 219/540/173 220/518/173
f 219/520/173 221/523/174 222/521/174
f 221/523/174 223/542/175 224/524/175
f 223/525/175 225/528/176 226/526/176
f 225/528/177 223/525/184 227/529/178
f 225/528/176 229/532/179 230/531/179
f 229/532/179 218/543/168 217/533/168
f 234/536/58 231/551/58 232/534/58
f 232/534/58 233/552/58 228/535/58
f 228/535/58 227/553/58 234/536/58
f 219/520/180 231/554/180 234/537/181
f 225/528/177 228/530/177 233/538/182
f 218/517/183 232/555/185 231/539/180
f 221/523/181 234/537/181 227/541/178
f 218/543/183 229/532/182 233/538/182
