texture textures/cars.png
v 0.281831 0.288081 0.479866
v 0.383485 0.288081 0.479866
v 0.281831 0.233082 0.404168
v 0.383485 0.233082 0.404168
v 0.281831 0.144093 0.375253
v 0.383485 0.144093 0.375253
v 0.281831 0.055103 0.404168
v 0.383485 0.055103 0.404168
v 0.281831 0.000105 0.479866
v 0.383485 0.000105 0.479866
v 0.281831 0.000105 0.573435
v 0.383485 0.000105 0.573435
v 0.281831 0.055103 0.649134
v 0.383485 0.055103 0.649134
v 0.281831 0.144093 0.678049
v 0.383485 0.144093 0.678049
v 0.281831 0.233082 0.649134
v 0.383485 0.233082 0.649134
v 0.281831 0.288081 0.573435
v 0.383485 0.288081 0.573435
vt 0.612156 0.971647
vt 0.524372 0.959848
vt 0.524372 0.971647
vt 0.612156 0.959848
vt 0.524372 0.940757
vt 0.612156 0.940757
vt 0.524372 0.921665
vt 0.612156 0.921665
vt 0.524372 0.909866
vt 0.612156 0.909866
vt 0.524372 0.909866
vt 0.612156 0.909866
vt 0.524372 0.921665
vt 0.612156 0.921665
vt 0.524372 0.940757
vt 0.612156 0.940757
vt 0.524372 0.959848
vt 0.612156 0.959848
vt 0.524372 0.971647
vt 0.612156 0.971647
vt 0.512421 0.891662
vt 0.519896 0.891662
vt 0.518469 0.897068
vt 0.250082 0.022727
vt 0.383670 0.433867
vt 0.116495 0.433868
vt 0.516159 0.897992
vt 0.513849 0.897068
vt 0.512421 0.894650
vt 0.513849 0.889244
vt 0.516159 0.888320
vt 0.518469 0.889244
vt 0.519896 0.894650
vt 0.033933 0.320231
vt 0.033933 0.179769
vt 0.116495 0.066133
vt 0.383670 0.066133
vt 0.466232 0.179769
vt 0.466232 0.320231
vt 0.250082 0.477273
vn 0.0000 0.9511 -0.3090
vn 0.0000 0.5878 -0.8090
vn 0.0000 0.0000 -1.0000
vn 0.0000 -0.5878 -0.8090
vn 0.0000 -0.9511 -0.3090
vn 0.0000 -0.9511 0.3090
vn 0.0000 -0.5878 0.8090
vn 0.0000 -0.0000 1.0000
vn 0.0000 0.5878 0.8090
vn 0.0000 0.9511 0.3090
vn -1.0000 0.0000 0.0000
vn 1.0000 -0.0000 -0.0000
s 1
f 2/1/1 3/2/2 1/3/1
f 4/4/2 5/5/3 3/2/2
f 6/6/3 7/7/4 5/5/3
f 8/8/4 9/9/5 7/7/4
f 10/10/5 11/11/6 9/9/5
f 12/12/6 13/13/7 11/11/6
f 14/14/7 15/15/8 13/13/7
f 16/16/8 17/17/9 15/15/8
f 18/18/9 19/19/10 17/17/9
f 20/20/10 1/3/1 19/19/10
f 7/21/11 15/22/11 19/23/11
f 18/24/12 10/25/12 6/26/12
f 2/1/1 4/4/2 3/2/2
f 4/4/2 6/6/3 5/5/3
f 6/6/3 8/8/4 7/7/4
f 8/8/4 10/10/5 9/9/5
f 10/10/5 12/12/6 11/11/6
f 12/12/6 14/14/7 13/13/7
f 14/14/7 16/16/8 15/15/8
f 16/16/8 18/18/9 17/17/9
f 18/18/9 20/20/10 19/19/10
f 20/20/10 2/1/1 1/3/1
f 19/23/11 1/27/11 7/21/11
f 3/28/11 5/29/11 7/21/11
f 7/21/11 9/30/11 11/31/11
f 11/31/11 13/32/11 15/22/11
f 15/22/11 17/33/11 19/23/11
f 1/27/11 3/28/11 7/21/11
f 7/21/11 11/31/11 15/22/11
f 6/26/12 4/34/12 2/35/12
f 2/35/12 20/36/12 6/26/12
f 18/24/12 16/37/12 14/38/12
f 14/38/12 12/39/12 18/24/12
f 10/25/12 8/40/12 6/26/12
f 6/26/12 20/36/12 18/24/12
f 18/24/12 12/39/12 10/25/12
o RLW_Cylinder.005
v 0.277572 0.288081 -0.565812
v 0.401712 0.288081 -0.565812
v 0.277572 0.233082 -0.641511
v 0.401712 0.233082 -0.641511
v 0.277572 0.144093 -0.670425
v 0.401712 0.144093 -0.670425
v 0.277572 0.055104 -0.641511
v 0.401712 0.055104 -0.641511
v 0.277572 0.000105 -0.565812
v 0.401712 0.000105 -0.565812
v 0.277572 0.000105 -0.472243
v 0.401712 0.000105 -0.472243
v 0.277572 0.055104 -0.396544
v 0.401712 0.055104 -0.396544
v 0.277572 0.144093 -0.367630
v 0.401712 0.144093 -0.367630
v 0.277572 0.233082 -0.396544
v 0.401712 0.233082 -0.396544
v 0.277572 0.288081 -0.472243
v 0.401712 0.288081 -0.472243
vt 0.612156 0.971647
vt 0.524372 0.959848
vt 0.524372 0.971647
vt 0.612156 0.959848
vt 0.524372 0.940757
vt 0.612156 0.940757
vt 0.524372 0.921665
vt 0.612156 0.921665
vt 0.524372 0.909866
vt 0.612156 0.909866
vt 0.524372 0.909866
vt 0.524372 0.921665
vt 0.612156 0.921665
vt 0.524372 0.940757
vt 0.612156 0.940757
vt 0.524372 0.959848
vt 0.612156 0.959848
vt 0.524372 0.971647
vt 0.612156 0.971647
vt 0.516159 0.888320
vt 0.519896 0.891662
vt 0.518469 0.897068
vt 0.250082 0.022727
vt 0.383670 0.433867
vt 0.116495 0.433868
vt 0.612156 0.909866
vt 0.516159 0.897992
vt 0.512421 0.891662
vt 0.513849 0.897068
vt 0.512421 0.894650
vt 0.513849 0.889244
vt 0.518469 0.889244
vt 0.519896 0.894650
vt 0.033933 0.320231
vt 0.033933 0.179769
vt 0.116495 0.066133
vt 0.383670 0.066133
vt 0.466232 0.179769
vt 0.466232 0.320231
vt 0.250082 0.477273
vn 0.0000 0.9511 -0.3090
vn 0.0000 0.5878 -0.8090
vn -0.0000 0.0000 -1.0000
vn 0.0000 -0.5878 -0.8090
vn -0.0000 -0.9511 -0.3090
vn -0.0000 -0.9511 0.3090
vn 0.0000 -0.5878 0.8090
vn 0.0000 -0.0000 1.0000
vn 0.0000 0.5878 0.8090
vn 0.0000 0.9511 0.3090
vn -1.0000 0.0000 0.0000
vn 1.0000 -0.0000 0.0000
s 1
f 22/41/13 23/42/14 21/43/13
f 24/44/14 25/45/15 23/42/14
f 26/46/15 27/47/16 25/45/15
f 28/48/16 29/49/17 27/47/16
f 29/49/17 32/50/18 31/51/18
f 32/50/18 33/52/19 31/51/18
f 34/53/19 35/54/20 33/52/19
f 36/55/20 37/56/21 35/54/20
f 38/57/21 39/58/22 37/56/21
f 40/59/22 21/43/13 39/58/22
f 31/60/23 35/61/23 39/62/23
f 38/63/24 30/64/24 26/65/24
f 22/41/13 24/44/14 23/42/14
f 24/44/14 26/46/15 25/45/15
f 26/46/15 28/48/16 27/47/16
f 28/48/16 30/66/17 29/49/17
f 29/49/17 30/66/17 32/50/18
f 32/50/18 34/53/19 33/52/19
f 34/53/19 36/55/20 35/54/20
f 36/55/20 38/57/21 37/56/21
f 38/57/21 40/59/22 39/58/22
f 40/59/22 22/41/13 21/43/13
f 39/62/23 21/67/23 27/68/23
f 23/69/23 25/70/23 27/68/23
f 27/68/23 29/71/23 31/60/23
f 31/60/23 33/72/23 35/61/23
f 35/61/23 37/73/23 39/62/23
f 21/67/23 23/69/23 27/68/23
f 27/68/23 31/60/23 39/62/23
f 26/65/24 24/74/24 22/75/24
f 22/75/24 40/76/24 38/63/24
f 38/63/24 36/77/24 34/78/24
f 34/78/24 32/79/24 38/63/24
f 30/64/24 28/80/24 26/65/24
f 26/65/24 22/75/24 38/63/24
f 38/63/24 32/79/24 30/64/24
o RRW_Cylinder.006
v -0.277572 0.288081 -0.472243
v -0.401712 0.288081 -0.472243
v -0.277572 0.233082 -0.396544
v -0.401712 0.233082 -0.396544
v -0.277572 0.144093 -0.367630
v -0.401712 0.144093 -0.367630
v -0.277572 0.055104 -0.396544
v -0.401712 0.055104 -0.396544
v -0.277572 0.000105 -0.472243
v -0.401712 0.000105 -0.472243
v -0.277572 0.000105 -0.565812
v -0.401712 0.000105 -0.565812
v -0.277572 0.055104 -0.641511
v -0.401712 0.055104 -0.641511
v -0.277572 0.144093 -0.670425
v -0.401712 0.144093 -0.670425
v -0.277572 0.233082 -0.641511
v -0.401712 0.233082 -0.641511
v -0.277572 0.288081 -0.565812
v -0.401712 0.288081 -0.565812
vt 0.612156 0.971647
vt 0.524372 0.959848
vt 0.524372 0.971647
vt 0.612156 0.959848
vt 0.524372 0.940757
vt 0.612156 0.940757
vt 0.524372 0.921665
vt 0.612156 0.921665
vt 0.524372 0.909866
vt 0.612156 0.909866
vt 0.524372 0.909866
vt 0.612156 0.909866
vt 0.524372 0.921665
vt 0.612156 0.921665
vt 0.524372 0.940757
vt 0.612156 0.940757
vt 0.524372 0.959848
vt 0.612156 0.959848
vt 0.524372 0.971647
vt 0.612156 0.971647
vt 0.512421 0.891662
vt 0.519896 0.891662
vt 0.518469 0.897068
vt 0.250082 0.022727
vt 0.250082 0.477273
vt 0.116495 0.433868
vt 0.516159 0.897992
vt 0.513849 0.897068
vt 0.512421 0.894650
vt 0.513849 0.889244
vt 0.516159 0.888320
vt 0.518469 0.889244
vt 0.519896 0.894650
vt 0.033933 0.320231
vt 0.033933 0.179769
vt 0.116495 0.066133
vt 0.383670 0.066133
vt 0.466232 0.179769
vt 0.466232 0.320231
vt 0.383670 0.433867
vn 0.0000 0.9511 0.3090
vn 0.0000 0.5878 0.8090
vn -0.0000 -0.0000 1.0000
vn 0.0000 -0.5878 0.8090
vn 0.0000 -0.9511 0.3090
vn 0.0000 -0.9511 -0.3090
vn 0.0000 -0.5878 -0.8090
vn -0.0000 0.0000 -1.0000
vn -0.0000 0.5878 -0.8090
vn 0.0000 0.9511 -0.3090
vn 1.0000 0.0000 0.0000
vn -1.0000 -0.0000 0.0000
s 1
f 42/81/25 43/82/26 41/83/25
f 44/84/26 45/85/27 43/82/26
f 46/86/27 47/87/28 45/85/27
f 48/88/28 49/89/29 47/87/28
f 50/90/29 51/91/30 49/89/29
f 52/92/30 53/93/31 51/91/30
f 54/94/31 55/95/32 53/93/31
f 56/96/32 57/97/33 55/95/32
f 58/98/33 59/99/34 57/97/33
f 60/100/34 41/83/25 59/99/34
f 47/101/35 55/102/35 59/103/35
f 58/104/36 48/105/36 46/106/36
f 42/81/25 44/84/26 43/82/26
f 44/84/26 46/86/27 45/85/27
f 46/86/27 48/88/28 47/87/28
f 48/88/28 50/90/29 49/89/29
f 50/90/29 52/92/30 51/91/30
f 52/92/30 54/94/31 53/93/31
f 54/94/31 56/96/32 55/95/32
f 56/96/32 58/98/33 57/97/33
f 58/98/33 60/100/34 59/99/34
f 60/100/34 42/81/25 41/83/25
f 59/103/35 41/107/35 47/101/35
f 43/108/35 45/109/35 47/101/35
f 47/101/35 49/110/35 51/111/35
f 51/111/35 53/112/35 47/101/35
f 55/102/35 57/113/35 59/103/35
f 41/107/35 43/108/35 47/101/35
f 47/101/35 53/112/35 55/102/35
f 46/106/36 44/114/36 42/115/36
f 42/115/36 60/116/36 46/106/36
f 58/104/36 56/117/36 54/118/36
f 54/118/36 52/119/36 58/104/36
f 50/120/36 48/105/36 58/104/36
f 46/106/36 60/116/36 58/104/36
f 58/104/36 52/119/36 50/120/36
o FRW_Cylinder.007
v -0.281831 0.288081 0.573435
v -0.383485 0.288081 0.573435
v -0.281831 0.233082 0.649134
v -0.383485 0.233082 0.649134
v -0.281831 0.144093 0.678049
v -0.383485 0.144093 0.678049
v -0.281831 0.055103 0.649134
v -0.383485 0.055103 0.649134
v -0.281831 0.000105 0.573435
v -0.383485 0.000105 0.573435
v -0.281831 0.000105 0.479866
v -0.383485 0.000105 0.479866
v -0.281831 0.055103 0.404168
v -0.383485 0.055103 0.404168
v -0.281831 0.144093 0.375253
v -0.383485 0.144093 0.375253
v -0.281831 0.233082 0.404168
v -0.383485 0.233082 0.404168
v -0.281831 0.288081 0.479867
v -0.383485 0.288081 0.479867
vt 0.612156 0.971647
vt 0.524372 0.959848
vt 0.524372 0.971647
vt 0.612156 0.959848
vt 0.524372 0.940757
vt 0.612156 0.940757
vt 0.524372 0.921665
vt 0.612156 0.921665
vt 0.524372 0.909866
vt 0.612156 0.909866
vt 0.524372 0.909866
vt 0.612156 0.909866
vt 0.524372 0.921665
vt 0.612156 0.921665
vt 0.524372 0.940757
vt 0.612156 0.940757
vt 0.524372 0.959848
vt 0.612156 0.959848
vt 0.524372 0.971647
vt 0.612156 0.971647
vt 0.516159 0.888320
vt 0.519896 0.891662
vt 0.518469 0.897068
vt 0.250082 0.022727
vt 0.383670 0.433867
vt 0.116495 0.433868
vt 0.516159 0.897992
vt 0.512421 0.891662
vt 0.513849 0.897068
vt 0.512421 0.894650
vt 0.513849 0.889244
vt 0.518469 0.889244
vt 0.519896 0.894650
vt 0.033933 0.320231
vt 0.033933 0.179769
vt 0.116495 0.066133
vt 0.383670 0.066133
vt 0.466232 0.179769
vt 0.466232 0.320231
vt 0.250082 0.477273
vn 0.0000 0.9511 0.3090
vn 0.0000 0.5878 0.8090
vn 0.0000 -0.0000 1.0000
vn 0.0000 -0.5878 0.8090
vn 0.0000 -0.9511 0.3090
vn 0.0000 -0.9511 -0.3090
vn 0.0000 -0.5878 -0.8090
vn 0.0000 0.0000 -1.0000
vn 0.0000 0.5878 -0.8090
vn 0.0000 0.9511 -0.3090
vn 1.0000 0.0000 0.0000
vn -1.0000 -0.0000 0.0000
s 1
f 62/121/37 63/122/38 61/123/37
f 64/124/38 65/125/39 63/122/38
f 66/126/39 67/127/40 65/125/39
f 68/128/40 69/129/41 67/127/40
f 70/130/41 71/131/42 69/129/41
f 72/132/42 73/133/43 71/131/42
f 74/134/43 75/135/44 73/133/43
f 76/136/44 77/137/45 75/135/44
f 78/138/45 79/139/46 77/137/45
f 80/140/46 61/123/37 79/139/46
f 71/141/47 75/142/47 79/143/47
f 78/144/48 70/145/48 66/146/48
f 62/121/37 64/124/38 63/122/38
f 64/124/38 66/126/39 65/125/39
f 66/126/39 68/128/40 67/127/40
f 68/128/40 70/130/41 69/129/41
f 70/130/41 72/132/42 71/131/42
f 72/132/42 74/134/43 73/133/43
f 74/134/43 76/136/44 75/135/44
f 76/136/44 78/138/45 77/137/45
f 78/138/45 80/140/46 79/139/46
f 80/140/46 62/121/37 61/123/37
f 79/143/47 61/147/47 67/148/47
f 63/149/47 65/150/47 67/148/47
f 67/148/47 69/151/47 71/141/47
f 71/141/47 73/152/47 75/142/47
f 75/142/47 77/153/47 79/143/47
f 61/147/47 63/149/47 67/148/47
f 67/148/47 71/141/47 79/143/47
f 66/146/48 64/154/48 62/155/48
f 62/155/48 80/156/48 66/146/48
f 78/144/48 76/157/48 74/158/48
f 74/158/48 72/159/48 78/144/48
f 70/145/48 68/160/48 66/146/48
f 66/146/48 80/156/48 78/144/48
f 78/144/48 72/159/48 70/145/48
o Body_Plane.000
v 0.390239 0.358330 0.446960
v 0.390239 0.358330 0.624791
v 0.330995 0.487275 0.281833
v 0.332332 0.250523 0.821506
v 0.303615 0.250523 0.863622
v 0.303615 0.168112 0.863622
v 0.332332 0.168112 0.821505
v 0.375136 0.254316 0.708003
v 0.375135 0.168112 0.708002
v 0.308062 0.452640 0.777254
v 0.306270 0.434246 0.827009
v 0.390696 0.254316 0.366433
v 0.348321 0.163052 0.345630
v 0.276813 0.703216 0.188586
v 0.276813 0.703216 -0.151685
v 0.330995 0.487275 -0.151685
v 0.330995 0.487275 -0.842693
v 0.245695 0.487275 -0.183235
v 0.390239 0.358330 -0.438934
v 0.390696 0.254316 -0.350000
v 0.348321 0.163052 -0.348082
v 0.390239 0.358330 -0.628276
v 0.381561 0.254316 -0.714269
v 0.348426 0.163804 -0.719003
v 0.245695 0.487275 -0.857905
v 0.351884 0.325344 -0.842693
v 0.290578 0.304466 -0.961169
v 0.358068 0.254794 -0.842693
v 0.330995 0.163804 -0.817964
v 0.245695 0.316575 -0.183235
v 0.245695 0.316575 -0.857905
v 0.330995 0.487275 -0.930127
v 0.330995 0.304466 -0.930127
v 0.290578 0.255364 -0.961169
v 0.330995 0.255364 -0.930128
v 0.243865 0.358330 0.446960
v 0.243865 0.358330 0.624791
v 0.243865 0.254316 0.708003
v 0.243865 0.168112 0.708002
v 0.243865 0.254316 0.366433
v 0.243865 0.163052 0.345630
v 0.254455 0.358330 -0.438934
v 0.254455 0.254316 -0.350000
v 0.254455 0.163052 -0.348082
v 0.254455 0.358330 -0.628276
v 0.254455 0.254316 -0.714269
v 0.254455 0.163804 -0.719003
v 0.000693 0.163052 0.345630
v -0.000693 0.163052 -0.348082
v 0.263022 0.686059 0.195995
v 0.310084 0.504243 0.274506
v 0.281573 0.684246 0.179197
v 0.326854 0.503776 0.255252
v 0.326855 0.503776 -0.132777
v 0.281568 0.684264 -0.132777
v 0.265607 0.685649 -0.151685
v 0.307495 0.516836 -0.151685
v 0.222450 0.178098 -0.810844
v 0.222450 0.235580 -0.810844
v 0.222450 0.178098 -0.942886
v 0.222450 0.235580 -0.942886
v 0.279931 0.178098 -0.810844
v 0.279931 0.235580 -0.810844
v 0.279931 0.178098 -0.942886
v 0.279931 0.235580 -0.942886
v 0.190661 0.293619 -0.197779
v 0.190661 0.733667 -0.197779
v 0.190661 0.293619 -0.242018
v 0.190661 0.733667 -0.242018
v 0.234900 0.293619 -0.197779
v 0.234900 0.733667 -0.197779
v 0.234900 0.293619 -0.242018
v 0.234900 0.733667 -0.242018
v 0.190661 0.693100 -0.197779
v 0.190661 0.693100 -0.242018
v 0.149876 0.733667 -0.242018
v 0.149876 0.693100 -0.242018
v 0.190661 0.297737 -0.626643
v 0.190661 0.270592 -0.596495
v 0.149876 0.297737 -0.626643
v 0.149876 0.270592 -0.596495
v -0.390239 0.358330 0.446960
v -0.390239 0.358330 0.624791
v 0.000000 0.487275 0.281833
v -0.330995 0.487275 0.281833
v 0.000000 0.250523 0.834474
v -0.332332 0.250523 0.821506
v 0.000000 0.250523 0.876590
v -0.303615 0.250523 0.863622
v 0.000000 0.168112 0.876590
v -0.303615 0.168112 0.863622
v 0.000000 0.168112 0.821505
v -0.332332 0.168112 0.821505
v -0.375136 0.254316 0.708003
v -0.375135 0.168112 0.708002
v 0.000000 0.434246 0.839978
v 0.000000 0.452640 0.790222
v -0.308062 0.452640 0.777254
v -0.306270 0.434246 0.827009
v -0.390696 0.254316 0.366433
v -0.348321 0.163052 0.345630
v 0.000000 0.703216 0.188586
v -0.276813 0.703216 0.188586
v 0.000000 0.703216 -0.151685
v -0.276813 0.703216 -0.151685
v 0.000000 0.487275 -0.151685
v -0.330995 0.487275 -0.151685
v 0.000000 0.487275 -0.183235
v -0.330995 0.487275 -0.842693
v -0.245695 0.487275 -0.183235
v -0.390239 0.358330 -0.438934
v -0.390696 0.254316 -0.350000
v -0.348321 0.163052 -0.348082
v -0.390239 0.358330 -0.628276
v -0.381561 0.254316 -0.714269
v -0.348426 0.163804 -0.719003
v -0.245695 0.487275 -0.857905
v -0.351884 0.325344 -0.842693
v 0.000000 0.304466 -0.961168
v -0.290578 0.304466 -0.961169
v -0.358068 0.254794 -0.842693
v -0.330995 0.163804 -0.817964
v -0.245695 0.316575 -0.183235
v -0.245695 0.316575 -0.857905
v 0.000000 0.316575 -0.183234
v 0.000000 0.316575 -0.857904
v 0.000000 0.487275 -0.857904
v -0.330995 0.487275 -0.930127
v 0.000000 0.487275 -0.930126
v -0.330995 0.304466 -0.930127
v 0.000000 0.304466 -0.930126
v 0.000000 0.255364 -0.961168
v -0.290578 0.255364 -0.961169
v 0.000000 0.163660 -0.818370
v 0.000000 0.255364 -0.930127
v -0.330995 0.255364 -0.930128
v -0.243865 0.358330 0.446960
v -0.243865 0.358330 0.624791
v -0.243865 0.254316 0.708003
v -0.243865 0.168112 0.708002
v -0.243865 0.254316 0.366433
v -0.243865 0.163052 0.345630
v -0.254455 0.358330 -0.438934
v -0.254455 0.254316 -0.350000
v -0.254455 0.163052 -0.348082
v -0.254455 0.358330 -0.628276
v -0.254455 0.254316 -0.714269
v -0.254455 0.163804 -0.719003
v -0.000693 0.163052 0.345630
v 0.000693 0.163052 -0.348082
v 0.000000 0.686063 0.195993
v -0.263022 0.686059 0.195995
v 0.000000 0.504246 0.274505
v -0.310084 0.504243 0.274506
v -0.281573 0.684246 0.179197
v -0.326854 0.503776 0.255252
v -0.326855 0.503776 -0.132777
v -0.281568 0.684264 -0.132777
v 0.000000 0.516843 -0.151685
v 0.000000 0.685669 -0.151685
v -0.265607 0.685649 -0.151685
v -0.307495 0.516836 -0.151685
v -0.222450 0.178098 -0.810844
v -0.222450 0.235580 -0.810844
v -0.222450 0.178098 -0.942886
v -0.222450 0.235580 -0.942886
v -0.279931 0.178098 -0.810844
v -0.279931 0.235580 -0.810844
v -0.279931 0.178098 -0.942886
v -0.279931 0.235580 -0.942886
v -0.190661 0.293619 -0.197779
v -0.190661 0.733667 -0.197779
v -0.190661 0.293619 -0.242018
v -0.190661 0.733667 -0.242018
v -0.234900 0.293619 -0.197779
v -0.234900 0.733667 -0.197779
v -0.234900 0.293619 -0.242018
v -0.234900 0.733667 -0.242018
v -0.190661 0.693100 -0.197779
v -0.190661 0.693100 -0.242018
v 0.000000 0.693100 -0.197779
v 0.000000 0.733667 -0.197779
v 0.000000 0.733667 -0.242018
v 0.000000 0.693100 -0.242018
v -0.149876 0.733667 -0.242018
v -0.149876 0.693100 -0.242018
v -0.190661 0.297737 -0.626643
v -0.190661 0.270592 -0.596495
v -0.149876 0.297737 -0.626643
v -0.149876 0.270592 -0.596495
vt 0.865673 0.571058
vt 0.829670 0.553762
vt 0.869076 0.553762
vt 0.323273 0.924662
vt 0.323647 0.927360
vt 0.323310 0.927669
vt 0.287595 0.910804
vt 0.288080 0.913539
vt 0.287589 0.913537
vt 0.262026 0.924999
vt 0.260176 0.924742
vt 0.262201 0.924742
vt 0.305957 0.920689
vt 0.305467 0.920956
vt 0.305466 0.920688
vt 0.839568 0.584009
vt 0.839724 0.584138
vt 0.839481 0.584137
vt 0.839662 0.583700
vt 0.839155 0.583735
vt 0.839156 0.583666
vt 0.817965 0.583472
vt 0.816901 0.585106
vt 0.816903 0.583319
vt 0.840307 0.584459
vt 0.840256 0.584495
vt 0.840009 0.584438
vt 0.839947 0.584441
vt 0.840085 0.584508
vt 0.839802 0.584006
vt 0.839664 0.583769
vt 0.839802 0.583869
vt 0.851485 0.582918
vt 0.851460 0.583372
vt 0.851460 0.582918
vt 0.817844 0.585438
vt 0.816890 0.586610
vt 0.816890 0.585438
vt 0.851075 0.584646
vt 0.851074 0.585034
vt 0.851074 0.584646
vt 0.850481 0.584443
vt 0.850474 0.583848
vt 0.850481 0.583809
vt 0.816900 0.586685
vt 0.817819 0.586795
vt 0.816900 0.586795
vt 0.817937 0.588983
vt 0.817819 0.588983
vt 0.840274 0.587747
vt 0.840396 0.587481
vt 0.840403 0.587735
vt 0.863641 0.589938
vt 0.863733 0.588421
vt 0.863733 0.589974
vt 0.880986 0.574835
vt 0.910315 0.585484
vt 0.889131 0.585485
vt 0.839701 0.585001
vt 0.839802 0.584689
vt 0.839802 0.584835
vt 0.839790 0.584900
vt 0.839745 0.584999
vt 0.863603 0.587416
vt 0.863713 0.587631
vt 0.863641 0.587630
vt 0.839751 0.584999
vt 0.849614 0.582996
vt 0.851044 0.588446
vt 0.849614 0.588446
vt 0.852061 0.591334
vt 0.851992 0.589233
vt 0.852061 0.589233
vt 0.818555 0.585102
vt 0.819362 0.583009
vt 0.819362 0.585102
vt 0.846376 0.587350
vt 0.847805 0.589449
vt 0.846376 0.589450
vt 0.817707 0.589094
vt 0.816900 0.589195
vt 0.816900 0.589094
vt 0.817938 0.589194
vt 0.886144 0.573956
vt 0.927077 0.551077
vt 0.927077 0.573956
vt 0.321618 0.926651
vt 0.321896 0.923682
vt 0.321896 0.926651
vt 0.269490 0.887469
vt 0.266521 0.887491
vt 0.266521 0.887469
vt 0.365731 0.922893
vt 0.365012 0.923145
vt 0.365012 0.922893
vt 0.287627 0.917745
vt 0.284658 0.918023
vt 0.284658 0.917745
vt 0.863603 0.587163
vt 0.863662 0.587353
vt 0.278041 0.891665
vt 0.278033 0.891226
vt 0.278041 0.891224
vt 0.839705 0.585067
vt 0.839701 0.585068
vt 0.266943 0.923563
vt 0.266077 0.924194
vt 0.266096 0.923557
vt 0.268936 0.922328
vt 0.268292 0.922881
vt 0.268299 0.922324
vt 0.262298 0.917624
vt 0.261654 0.917585
vt 0.262557 0.917585
vt 0.266746 0.923010
vt 0.266101 0.923006
vt 0.269166 0.923523
vt 0.269187 0.922886
vt 0.262554 0.923488
vt 0.261662 0.922406
vt 0.262554 0.922406
vt 0.262554 0.917013
vt 0.261654 0.917013
vt 0.262462 0.924026
vt 0.261662 0.923488
vt 0.261654 0.915861
vt 0.262554 0.915861
vt 0.262462 0.924051
vt 0.261662 0.924026
vt 0.271488 0.900019
vt 0.271409 0.899262
vt 0.271499 0.899199
vt 0.271418 0.900964
vt 0.271462 0.900956
vt 0.268170 0.900214
vt 0.268255 0.901015
vt 0.268165 0.901033
vt 0.268181 0.901962
vt 0.262298 0.921847
vt 0.261653 0.917624
vt 0.261662 0.921847
vt 0.260171 0.917624
vt 0.261662 0.924051
vt 0.260180 0.921847
vt 0.262299 0.915366
vt 0.261653 0.915366
vt 0.262193 0.914764
vt 0.260176 0.914761
vt 0.851195 0.583306
vt 0.851169 0.582922
vt 0.851195 0.582922
vt 0.983988 0.880447
vt 0.986377 0.996881
vt 0.984008 0.996881
vt 0.851169 0.583327
vt 0.965882 0.879449
vt 0.959878 0.995774
vt 0.958356 0.879449
vt 0.850404 0.584419
vt 0.850397 0.583950
vt 0.850404 0.583963
vt 0.850474 0.584416
vt 0.953687 0.996043
vt 0.955014 0.878169
vt 0.955014 0.996234
vt 0.851062 0.585096
vt 0.851060 0.584646
vt 0.851062 0.584646
vt 0.851075 0.585051
vt 0.302833 0.984937
vt 0.307698 0.980072
vt 0.307698 0.984937
vt 0.236306 0.951208
vt 0.248159 0.939354
vt 0.248159 0.951208
vt 0.297482 0.984937
vt 0.302347 0.980072
vt 0.302347 0.984937
vt 0.297482 0.995640
vt 0.302347 0.990775
vt 0.302347 0.995640
vt 0.307698 0.990289
vt 0.302833 0.985424
vt 0.307698 0.985424
vt 0.281995 0.901836
vt 0.282100 0.900885
vt 0.282100 0.901836
vt 0.281366 0.899755
vt 0.281472 0.900693
vt 0.281366 0.900693
vt 0.281786 0.901933
vt 0.281681 0.900885
vt 0.281786 0.900885
vt 0.281681 0.900675
vt 0.281786 0.899737
vt 0.281786 0.900675
vt 0.000000 0.000000
vt 0.000000 0.000000
vt 0.000000 0.000000
vt 0.327235 0.909110
vt 0.327341 0.909091
vt 0.327341 0.909110
vt 0.327138 0.909110
vt 0.326781 0.909091
vt 0.327235 0.909091
vt 0.281472 0.899660
vt 0.281366 0.899660
vt 0.281681 0.899642
vt 0.281786 0.899642
vt 0.283158 0.899642
vt 0.283061 0.900776
vt 0.283061 0.899642
vt 0.000000 0.000000
vt 0.000000 0.000000
vt 0.000000 0.000000
vt 0.282240 0.899737
vt 0.281269 0.899755
vt 0.280912 0.899660
vt 0.281269 0.899660
vt 0.281883 0.899755
vt 0.282240 0.899755
vt 0.282482 0.900956
vt 0.282546 0.899643
vt 0.282546 0.901028
vt 0.282788 0.899714
vt 0.282851 0.901027
vt 0.282755 0.901028
vt 0.327138 0.910292
vt 0.829301 0.571097
vt 0.323647 0.924608
vt 0.288086 0.910805
vt 0.260176 0.925268
vt 0.305958 0.920957
vt 0.839722 0.584009
vt 0.818042 0.585107
vt 0.839701 0.584135
vt 0.851485 0.583402
vt 0.817844 0.586611
vt 0.817937 0.586685
vt 0.840292 0.587490
vt 0.863641 0.588435
vt 0.924275 0.574835
vt 0.839701 0.584469
vt 0.851044 0.582996
vt 0.851992 0.591334
vt 0.818555 0.583009
vt 0.847805 0.587349
vt 0.817707 0.589195
vt 0.886144 0.551077
vt 0.321618 0.924550
vt 0.269490 0.887491
vt 0.365731 0.923146
vt 0.287627 0.918023
vt 0.278033 0.891666
vt 0.839707 0.585066
vt 0.266978 0.924200
vt 0.268275 0.923517
vt 0.271404 0.900035
vt 0.268262 0.900203
vt 0.268228 0.901952
vt 0.986781 0.880442
vt 0.965929 0.995790
vt 0.850397 0.584448
vt 0.953478 0.878169
vt 0.851060 0.585130
vt 0.302833 0.980072
vt 0.236306 0.939354
vt 0.297482 0.980072
vt 0.297482 0.990775
vt 0.302833 0.990289
vt 0.281995 0.900885
vt 0.281681 0.901933
vt 0.000000 0.000000
vt 0.326781 0.909110
vt 0.283158 0.900776
vt 0.282240 0.899642
vt 0.280912 0.899755
vt 0.282449 0.899642
vt 0.282851 0.899642
vt 0.327235 0.910292
vt 0.865673 0.571058
vt 0.869076 0.553762
vt 0.323310 0.927669
vt 0.323647 0.927360
vt 0.287589 0.913537
vt 0.288080 0.913539
vt 0.262026 0.924999
vt 0.262201 0.924742
vt 0.305957 0.920689
vt 0.305466 0.920688
vt 0.305467 0.920956
vt 0.839568 0.584009
vt 0.839481 0.584137
vt 0.839724 0.584138
vt 0.839662 0.583700
vt 0.817965 0.583472
vt 0.840307 0.584459
vt 0.840009 0.584438
vt 0.840256 0.584495
vt 0.839947 0.584441
vt 0.840085 0.584508
vt 0.839802 0.584006
vt 0.839802 0.583869
vt 0.839664 0.583769
vt 0.851460 0.583372
vt 0.817844 0.585438
vt 0.851074 0.585034
vt 0.850481 0.584443
vt 0.850481 0.583809
vt 0.850474 0.583848
vt 0.817819 0.586795
vt 0.817819 0.588983
vt 0.817937 0.588983
vt 0.840274 0.587747
vt 0.840403 0.587735
vt 0.840396 0.587481
vt 0.863641 0.589938
vt 0.863733 0.589974
vt 0.863733 0.588421
vt 0.880986 0.574835
vt 0.889131 0.585485
vt 0.910315 0.585484
vt 0.839701 0.585001
vt 0.839802 0.584835
vt 0.839802 0.584689
vt 0.839790 0.584900
vt 0.839745 0.584999
vt 0.863603 0.587416
vt 0.863641 0.587630
vt 0.863713 0.587631
vt 0.839751 0.584999
vt 0.849614 0.582996
vt 0.849614 0.588446
vt 0.851044 0.588446
vt 0.852061 0.591334
vt 0.818555 0.585102
vt 0.846376 0.587350
vt 0.817707 0.589094
vt 0.817938 0.589194
vt 0.886144 0.573956
vt 0.321896 0.923682
vt 0.269490 0.887469
vt 0.365731 0.922893
vt 0.287627 0.917745
vt 0.863662 0.587353
vt 0.863603 0.587163
vt 0.278041 0.891665
vt 0.278041 0.891224
vt 0.278033 0.891226
vt 0.839705 0.585067
vt 0.839701 0.585068
vt 0.266943 0.923563
vt 0.266096 0.923557
vt 0.266077 0.924194
vt 0.268936 0.922328
vt 0.268299 0.922324
vt 0.268292 0.922881
vt 0.262298 0.917624
vt 0.262557 0.917585
vt 0.261654 0.917585
vt 0.266746 0.923010
vt 0.266101 0.923006
vt 0.269166 0.923523
vt 0.269187 0.922886
vt 0.262554 0.923488
vt 0.262554 0.922406
vt 0.261662 0.922406
vt 0.262554 0.917013
vt 0.261654 0.917013
vt 0.262462 0.924026
vt 0.261662 0.923488
vt 0.262554 0.915861
vt 0.261654 0.915861
vt 0.262462 0.924051
vt 0.261662 0.924026
vt 0.271488 0.900019
vt 0.271499 0.899199
vt 0.271409 0.899262
vt 0.271418 0.900964
vt 0.271462 0.900956
vt 0.268170 0.900214
vt 0.268165 0.901033
vt 0.268255 0.901015
vt 0.268181 0.901962
vt 0.262298 0.921847
vt 0.261653 0.917624
vt 0.261662 0.921847
vt 0.260171 0.917624
vt 0.261662 0.924051
vt 0.260180 0.921847
vt 0.262299 0.915366
vt 0.262193 0.914764
vt 0.261653 0.915366
vt 0.851195 0.583306
vt 0.986377 0.996881
vt 0.851169 0.583327
vt 0.965882 0.879449
vt 0.958356 0.879449
vt 0.959878 0.995774
vt 0.850404 0.584419
vt 0.850404 0.583963
vt 0.850397 0.583950
vt 0.850474 0.584416
vt 0.953687 0.996043
vt 0.851062 0.585096
vt 0.851075 0.585051
vt 0.302833 0.984937
vt 0.307698 0.984937
vt 0.307698 0.980072
vt 0.236306 0.951208
vt 0.248159 0.951208
vt 0.248159 0.939354
vt 0.297482 0.984937
vt 0.302347 0.984937
vt 0.302347 0.980072
vt 0.297482 0.995640
vt 0.302347 0.995640
vt 0.302347 0.990775
vt 0.307698 0.990289
vt 0.307698 0.985424
vt 0.302833 0.985424
vt 0.281995 0.901836
vt 0.282100 0.901836
vt 0.282100 0.900885
vt 0.281366 0.899755
vt 0.281366 0.900693
vt 0.281472 0.900693
vt 0.281786 0.901933
vt 0.281786 0.900885
vt 0.281681 0.900885
vt 0.281681 0.900675
vt 0.281786 0.900675
vt 0.281786 0.899737
vt 0.000000 0.000000
vt 0.000000 0.000000
vt 0.000000 0.000000
vt 0.327235 0.909110
vt 0.327341 0.909110
vt 0.327341 0.909091
vt 0.000000 0.000000
vt 0.000000 0.000000
vt 0.000000 0.000000
vt 0.327138 0.909110
vt 0.327235 0.909091
vt 0.281472 0.899660
vt 0.281366 0.899660
vt 0.281786 0.899642
vt 0.281681 0.899642
vt 0.283158 0.899642
vt 0.283061 0.899642
vt 0.283061 0.900776
vt 0.000000 0.000000
vt 0.000000 0.000000
vt 0.000000 0.000000
vt 0.281269 0.899755
vt 0.281269 0.899660
vt 0.281883 0.899755
vt 0.282482 0.900956
vt 0.282546 0.901028
vt 0.282546 0.899643
vt 0.282788 0.899714
vt 0.282755 0.901028
vt 0.282851 0.901027
vt 0.327138 0.910292
vt 0.305958 0.920957
vt 0.839722 0.584009
vt 0.818042 0.585107
vt 0.839701 0.584135
vt 0.851485 0.583402
vt 0.817844 0.586611
vt 0.817937 0.586685
vt 0.840292 0.587490
vt 0.863641 0.588435
vt 0.924275 0.574835
vt 0.839701 0.584469
vt 0.851044 0.582996
vt 0.851992 0.591334
vt 0.818555 0.583009
vt 0.847805 0.587349
vt 0.817707 0.589195
vt 0.886144 0.551077
vt 0.321618 0.924550
vt 0.269490 0.887491
vt 0.365731 0.923146
vt 0.287627 0.918023
vt 0.278033 0.891666
vt 0.839707 0.585066
vt 0.266978 0.924200
vt 0.268275 0.923517
vt 0.271404 0.900035
vt 0.268262 0.900203
vt 0.268228 0.901952
vt 0.986781 0.880442
vt 0.965929 0.995790
vt 0.850397 0.584448
vt 0.953478 0.878169
vt 0.851060 0.585130
vt 0.302833 0.980072
vt 0.236306 0.939354
vt 0.297482 0.980072
vt 0.297482 0.990775
vt 0.302833 0.990289
vt 0.281995 0.900885
vt 0.281681 0.901933
vt 0.000000 0.000000
vt 0.000000 0.000000
vt 0.283158 0.900776
vt 0.282449 0.899642
vt 0.282851 0.899642
vt 0.327235 0.910292
vn 0.0400 -0.0261 0.9989
vn 0.0411 -0.0280 0.9988
vn 0.0390 -0.0244 0.9989
vn -0.0000 1.0000 -0.0000
vn 0.0427 -0.0000 0.9991
vn 0.0000 -1.0000 0.0000
vn 0.0000 -1.0000 0.0038
vn 0.8262 -0.0000 0.5634
vn 0.9040 0.0412 0.4255
vn 0.9357 -0.0000 0.3529
vn 0.9318 0.0972 0.3498
vn 0.0146 0.9377 0.3471
vn 0.0147 0.9378 0.3468
vn 0.0147 0.9379 0.3467
vn 0.0018 0.9976 0.0686
vn 0.0000 0.9976 0.0691
vn 0.0000 0.9977 0.0680
vn 0.9518 0.2308 0.2019
vn 0.9281 0.3311 0.1702
vn 0.8509 0.5044 0.1466
vn 0.9177 0.3954 0.0392
vn 0.0000 0.3964 0.9181
vn 0.0000 0.0000 -1.0000
vn 0.9699 0.2434 0.0000
vn 1.0000 0.0044 0.0000
vn 0.9427 0.3335 0.0000
vn 0.9070 -0.4211 -0.0000
vn 0.9087 0.4175 0.0000
vn 0.9006 0.4344 0.0161
vn 0.9812 0.1825 -0.0626
vn 0.9486 0.3090 -0.0686
vn 0.9799 0.0753 -0.1848
vn 0.9774 0.0792 -0.1961
vn 0.9221 -0.3316 -0.1993
vn 0.9298 -0.3276 -0.1675
vn 0.9291 -0.3316 -0.1637
vn 0.9725 0.0721 -0.2217
vn -1.0000 0.0000 0.0000
vn 0.0000 0.0000 1.0000
vn 0.3216 0.0000 -0.9469
vn 0.0008 -0.7742 -0.6329
vn 0.0000 -0.7735 -0.6338
vn 0.0000 -0.7731 -0.6343
vn 0.8967 -0.3429 -0.2799
vn 0.9131 -0.3349 -0.2325
vn 0.6091 0.0000 -0.7931
vn 0.9658 0.0196 -0.2585
vn 0.9933 0.0877 -0.0748
vn 0.0000 -0.4073 0.9133
vn 0.0000 -0.9048 0.4259
vn 0.0000 -0.3631 0.9318
vn 0.0000 -0.2222 0.9750
vn 0.0000 -0.4273 0.9041
vn 0.0000 -0.0210 -0.9998
vn 0.0000 -0.3562 -0.9344
vn 0.0000 -0.4088 -0.9126
vn 0.0000 -0.0522 0.9986
vn 0.0000 -0.8976 0.4408
vn 0.0000 -0.4580 0.8889
vn 0.0000 -0.9089 -0.4170
vn 0.0000 -0.8978 0.4404
vn 0.0000 -0.9081 -0.4189
vn 0.0000 -0.9083 -0.4184
vn 0.0000 -0.3425 -0.9395
vn 0.0000 -0.9013 -0.4332
vn 0.0000 -0.9089 0.4170
vn 0.0000 -0.3310 -0.9436
vn 1.0000 0.0000 0.0000
vn 0.0000 -1.0000 -0.0007
vn 0.0000 -1.0000 0.0047
vn 0.0002 -1.0000 -0.0009
vn 0.0015 -1.0000 0.0049
vn 0.0009 -1.0000 0.0064
vn 0.0005 -1.0000 -0.0005
vn 0.0002 -1.0000 0.0002
vn 0.0009 -1.0000 -0.0009
vn 0.0000 -0.6427 0.7661
vn 0.0000 0.6616 -0.7499
vn 0.0423 -0.0299 0.9987
vn 0.8872 -0.0000 0.4614
vn 0.0146 0.9377 0.3472
vn 0.0000 0.9976 0.0697
vn 0.0011 -0.7747 -0.6324
vn 0.9553 0.0000 -0.2958
vn -0.0400 -0.0261 0.9989
vn -0.0390 -0.0244 0.9989
vn -0.0411 -0.0280 0.9988
vn -0.0427 -0.0000 0.9991
vn -0.8262 -0.0000 0.5634
vn -0.9040 0.0412 0.4255
vn -0.9318 0.0972 0.3498
vn -0.9357 -0.0000 0.3529
vn -0.0146 0.9377 0.3471
vn -0.0147 0.9379 0.3467
vn -0.0147 0.9378 0.3468
vn -0.0018 0.9976 0.0686
vn -0.9518 0.2308 0.2019
vn -0.9281 0.3311 0.1702
vn -0.8509 0.5044 0.1466
vn -0.9177 0.3954 0.0392
vn -0.9699 0.2434 0.0000
vn -0.9427 0.3335 0.0000
vn -1.0000 0.0044 0.0000
vn -0.9070 -0.4211 -0.0000
vn -0.9006 0.4344 0.0161
vn -0.9087 0.4175 0.0000
vn -0.9812 0.1825 -0.0626
vn -0.9486 0.3090 -0.0686
vn -0.9799 0.0753 -0.1848
vn -0.9774 0.0792 -0.1961
vn -0.9221 -0.3316 -0.1993
vn -0.9291 -0.3316 -0.1637
vn -0.9298 -0.3276 -0.1675
vn -0.9725 0.0721 -0.2217
vn -0.3216 0.0000 -0.9469
vn -0.0008 -0.7742 -0.6329
vn -0.9131 -0.3349 -0.2325
vn -0.8967 -0.3429 -0.2799
vn -0.6091 0.0000 -0.7931
vn -0.9658 0.0196 -0.2585
vn -0.9933 0.0877 -0.0748
vn -0.0002 -1.0000 -0.0009
vn -0.0015 -1.0000 0.0049
vn -0.0009 -1.0000 0.0064
vn -0.0002 -1.0000 0.0002
vn -0.0005 -1.0000 -0.0005
vn -0.0009 -1.0000 -0.0009
vn -0.0423 -0.0299 0.9987
vn -0.8872 -0.0000 0.4614
vn -0.0146 0.9377 0.3472
vn -0.0011 -0.7747 -0.6324
vn -0.9553 0.0000 -0.2958
s 1
f 91/161/49 166/162/50 84/163/51
f 166/164/52 85/165/52 84/166/52
f 168/167/53 86/168/53 85/169/53
f 86/170/54 172/171/55 87/172/54
f 86/173/56 84/174/57 85/175/56
f 84/176/57 89/177/58 88/178/59
f 91/179/60 177/180/61 176/181/62
f 90/182/63 164/183/64 177/184/65
f 84/185/57 88/186/59 91/187/66
f 90/188/67 88/186/59 82/189/68
f 81/190/69 90/191/67 82/192/68
f 164/193/70 131/194/70 233/195/70
f 94/196/52 184/197/52 182/198/52
f 184/199/71 136/200/71 240/201/71
f 96/202/72 133/203/72 83/204/72
f 186/205/52 98/206/52 188/207/52
f 98/206/52 97/208/52 105/209/52
f 81/210/69 100/211/73 99/212/74
f 93/213/75 100/214/75 92/215/75
f 81/216/69 96/217/76 83/218/77
f 97/219/78 99/220/74 102/221/79
f 103/222/80 106/223/81 102/221/79
f 109/224/82 103/225/83 104/226/84
f 106/223/81 103/222/80 108/227/85
f 105/228/86 110/229/86 98/230/86
f 98/231/71 205/232/71 188/233/71
f 110/234/52 206/235/52 205/236/52
f 111/237/87 207/238/87 206/239/87
f 105/240/52 209/241/52 207/242/52
f 97/208/52 112/243/52 105/209/52
f 112/244/71 211/245/71 209/246/71
f 211/247/52 107/248/52 199/249/52
f 107/250/88 212/251/71 199/252/71
f 115/253/89 214/254/90 215/255/91
f 114/256/54 215/257/54 212/258/54
f 109/224/82 115/259/92 108/260/93
f 107/261/88 115/262/94 114/263/88
f 108/227/85 113/264/95 106/223/81
f 106/223/81 112/265/96 97/219/78
f 103/266/97 125/267/98 126/268/99
f 93/269/100 120/270/101 121/271/100
f 101/272/102 123/273/103 100/274/104
f 104/275/105 126/268/99 127/276/105
f 81/277/106 120/270/101 92/278/107
f 82/279/108 116/280/109 81/281/106
f 99/282/110 123/273/103 122/283/111
f 88/284/112 117/285/113 82/279/108
f 99/282/110 125/286/98 102/287/114
f 89/288/71 118/289/115 88/284/112
f 120/290/116 119/291/116 121/292/116
f 117/293/116 120/290/116 116/294/116
f 124/295/116 126/296/116 123/297/116
f 126/296/116 122/298/116 123/297/116
f 93/299/54 124/300/117 101/272/54
f 121/301/118 129/302/119 124/300/117
f 89/288/54 87/172/54 119/303/120
f 87/172/54 172/171/55 119/303/120
f 119/303/120 128/304/121 121/301/118
f 104/305/54 127/306/122 109/307/123
f 214/308/124 109/307/123 127/306/122
f 127/306/122 129/302/119 214/308/124
f 130/309/70 182/310/70 231/311/70
f 233/312/70 130/313/70 231/314/70
f 131/194/70 94/315/70 130/309/70
f 134/316/72 132/317/72 133/318/72
f 135/319/72 94/320/72 132/321/72
f 94/320/72 133/203/72 132/321/72
f 96/202/72 135/319/72 134/322/72
f 136/323/71 239/324/71 240/325/71
f 137/326/71 186/327/71 239/328/71
f 95/329/71 137/326/71 136/200/71
f 139/330/86 140/331/86 138/332/86
f 141/333/71 144/334/71 140/335/71
f 145/336/116 142/337/116 144/338/116
f 144/339/54 138/340/54 140/341/54
f 141/342/52 143/343/52 145/344/52
f 102/221/79 106/223/81 97/219/78
f 146/345/86 155/346/86 148/347/86
f 155/348/71 152/349/71 148/350/71
f 153/351/116 150/352/116 152/353/116
f 150/354/87 154/355/87 146/356/87
f 152/357/54 146/358/54 148/359/54
f 149/360/52 151/361/52 153/362/52
f 156/363/52 262/364/52 147/365/52
f 153/366/71 155/348/71 149/367/71
f 154/355/87 151/368/87 147/369/87
f 157/370/125 159/371/125 155/372/125
f 155/373/54 154/374/54 157/375/54
f 147/369/87 261/376/87 154/355/87
f 157/377/71 263/378/71 156/379/71
f 156/363/52 147/365/52 149/360/52
f 157/380/54 261/376/54 264/381/54
f 155/382/116 158/383/116 149/384/116
f 157/385/86 160/386/86 161/387/86
f 149/360/126 160/388/126 156/363/126
f 91/161/49 176/389/127 166/162/50
f 166/164/52 168/390/52 85/165/52
f 168/167/53 170/391/53 86/168/53
f 86/170/54 170/392/54 172/171/55
f 86/173/56 87/393/128 84/174/57
f 84/176/57 87/394/128 89/177/58
f 91/179/60 90/191/129 177/180/61
f 90/182/63 83/395/130 164/183/64
f 90/188/67 91/187/66 88/186/59
f 81/190/69 83/396/77 90/191/67
f 164/193/70 83/397/70 131/194/70
f 94/196/52 95/398/52 184/197/52
f 184/199/71 95/329/71 136/200/71
f 96/202/72 134/322/72 133/203/72
f 186/205/52 96/399/52 98/206/52
f 98/206/52 96/399/52 97/208/52
f 81/210/69 92/400/73 100/211/73
f 93/213/75 101/401/75 100/214/75
f 81/216/69 99/402/74 96/217/76
f 97/219/78 96/403/76 99/220/74
f 109/224/82 108/260/93 103/225/83
f 105/228/86 111/404/86 110/229/86
f 98/231/71 110/405/71 205/232/71
f 110/234/52 111/406/52 206/235/52
f 111/237/87 105/407/87 207/238/87
f 105/240/52 112/408/52 209/241/52
f 112/244/71 113/409/71 211/245/71
f 211/247/52 113/410/52 107/248/52
f 107/250/88 114/411/88 212/251/71
f 115/253/89 109/412/131 214/254/90
f 114/256/54 115/413/54 215/257/54
f 107/261/88 113/414/94 115/262/94
f 108/227/85 115/415/132 113/264/95
f 106/223/81 113/264/95 112/265/96
f 103/266/97 102/416/114 125/267/98
f 93/269/100 92/278/107 120/270/101
f 101/272/102 124/300/102 123/273/103
f 104/275/105 103/266/97 126/268/99
f 81/277/106 116/417/109 120/270/101
f 82/279/108 117/285/113 116/280/109
f 99/282/110 100/274/104 123/273/103
f 88/284/112 118/289/115 117/285/113
f 99/282/110 122/283/111 125/286/98
f 89/288/71 119/303/71 118/289/115
f 120/290/116 118/418/116 119/291/116
f 117/293/116 118/418/116 120/290/116
f 124/295/116 127/419/116 126/296/116
f 126/296/116 125/420/116 122/298/116
f 93/299/54 121/301/118 124/300/117
f 121/301/118 128/304/121 129/302/119
f 119/303/120 172/171/55 128/304/121
f 127/306/122 124/300/117 129/302/119
f 130/309/70 94/315/70 182/310/70
f 233/312/70 131/421/70 130/313/70
f 131/194/70 83/397/70 94/315/70
f 134/316/72 135/422/72 132/317/72
f 135/319/72 95/423/72 94/320/72
f 94/320/72 83/204/72 133/203/72
f 96/202/72 95/423/72 135/319/72
f 136/323/71 137/424/71 239/324/71
f 137/326/71 96/425/71 186/327/71
f 95/329/71 96/425/71 137/326/71
f 139/330/86 141/426/86 140/331/86
f 141/333/71 145/427/71 144/334/71
f 145/336/116 143/428/116 142/337/116
f 144/339/54 142/429/54 138/340/54
f 141/342/52 139/430/52 143/343/52
f 146/345/86 154/431/86 155/346/86
f 155/348/71 153/366/71 152/349/71
f 153/351/116 151/432/116 150/352/116
f 150/354/87 151/368/87 154/355/87
f 152/357/54 150/433/54 146/358/54
f 149/360/52 147/365/52 151/361/52
f 156/363/52 263/434/52 262/364/52
f 157/370/125 161/435/125 159/371/125
f 147/369/87 262/436/87 261/376/87
f 157/377/71 264/437/71 263/378/71
f 157/380/54 154/355/54 261/376/54
f 155/382/116 159/438/116 158/383/116
f 157/385/86 156/439/86 160/386/86
f 149/360/126 158/440/126 160/388/126
f 179/441/133 167/442/134 166/162/135
f 166/164/52 167/443/52 169/444/52
f 168/167/136 169/445/136 171/446/136
f 171/447/54 173/448/54 172/171/55
f 171/449/137 169/450/137 167/451/138
f 167/452/138 174/453/139 175/454/140
f 179/455/141 176/181/142 177/180/143
f 178/456/144 177/184/65 164/183/64
f 167/457/138 179/458/145 174/459/139
f 178/460/146 163/461/147 174/459/139
f 162/462/148 163/463/147 178/464/146
f 164/193/70 233/195/70 234/465/70
f 183/466/52 182/198/52 184/197/52
f 184/199/71 240/201/71 241/467/71
f 187/468/149 165/469/149 236/470/149
f 186/205/52 188/207/52 190/471/52
f 190/471/52 197/472/52 189/473/52
f 162/474/148 191/475/150 192/476/151
f 181/477/152 180/478/152 192/479/152
f 162/480/148 165/481/153 187/482/154
f 189/483/155 194/484/156 191/485/150
f 195/486/157 194/484/156 198/487/158
f 202/488/159 196/489/160 195/490/161
f 198/487/158 201/491/162 195/486/157
f 197/492/116 190/493/116 203/494/116
f 190/495/71 188/233/71 205/232/71
f 203/496/52 205/236/52 206/235/52
f 204/497/87 206/239/87 207/238/87
f 197/498/52 207/242/52 209/241/52
f 189/473/52 197/472/52 208/499/52
f 208/500/71 209/246/71 211/245/71
f 211/247/52 199/249/52 200/501/52
f 200/502/163 199/252/71 212/251/71
f 216/503/164 215/255/91 214/254/90
f 213/504/54 212/258/54 215/257/54
f 202/488/159 201/505/165 216/506/166
f 200/507/163 213/508/163 216/509/167
f 201/491/162 198/487/158 210/510/168
f 198/487/158 189/483/155 208/511/169
f 195/512/97 227/513/99 226/514/98
f 181/515/100 222/516/100 221/517/101
f 193/518/102 192/519/104 224/520/103
f 196/521/105 228/522/105 227/513/99
f 162/523/106 180/524/107 221/517/101
f 163/525/108 162/526/106 217/527/109
f 191/528/110 223/529/111 224/520/103
f 174/530/112 163/525/108 218/531/113
f 191/528/110 194/532/114 226/533/98
f 175/534/71 174/530/112 219/535/115
f 221/536/86 222/537/86 220/538/86
f 218/539/86 217/540/86 221/536/86
f 225/541/86 224/542/86 227/543/86
f 227/543/86 224/542/86 223/544/86
f 181/545/54 193/518/54 225/546/117
f 222/547/118 225/546/117 230/548/170
f 175/534/54 220/549/171 173/448/54
f 173/448/54 220/549/171 172/171/55
f 220/549/171 222/547/118 229/550/172
f 196/551/54 202/552/173 228/553/174
f 214/308/175 228/553/174 202/552/173
f 228/553/174 214/308/175 230/548/170
f 232/554/70 231/311/70 182/310/70
f 233/312/70 231/314/70 232/555/70
f 234/465/70 232/554/70 183/556/70
f 237/557/149 236/558/149 235/559/149
f 238/560/149 235/561/149 183/562/149
f 183/562/149 235/561/149 236/470/149
f 187/468/149 237/563/149 238/560/149
f 241/564/71 240/325/71 239/324/71
f 242/565/71 239/328/71 186/327/71
f 185/566/71 241/467/71 242/565/71
f 244/567/116 243/568/116 245/569/116
f 246/570/71 245/571/71 249/572/71
f 250/573/86 249/574/86 247/575/86
f 249/576/54 245/577/54 243/578/54
f 246/579/52 250/580/52 248/581/52
f 194/484/156 189/483/155 198/487/158
f 251/582/116 253/583/116 260/584/116
f 260/585/71 253/586/71 257/587/71
f 258/588/86 257/589/86 255/590/86
f 255/591/87 251/592/87 259/593/87
f 257/594/54 253/595/54 251/596/54
f 254/597/52 258/598/52 256/599/52
f 261/600/116 264/601/116 263/602/116
f 265/603/52 252/604/52 262/364/52
f 258/605/71 254/606/71 260/585/71
f 259/593/87 252/607/87 256/608/87
f 266/609/125 260/610/125 268/611/125
f 260/612/54 266/613/54 259/614/54
f 252/607/87 259/593/87 261/376/87
f 266/615/71 265/616/71 263/378/71
f 265/603/52 254/597/52 252/604/52
f 266/617/54 264/381/54 261/376/54
f 260/618/86 254/619/86 267/620/86
f 266/621/116 270/622/116 269/623/116
f 254/597/126 265/603/126 269/624/126
f 179/441/133 166/162/135 176/389/176
f 166/164/52 169/444/52 168/390/52
f 168/167/136 171/446/136 170/391/136
f 171/447/54 172/171/55 170/392/54
f 171/449/137 167/451/138 173/625/177
f 167/452/138 175/454/140 173/626/177
f 179/455/141 177/180/143 178/464/178
f 178/456/144 164/183/64 165/627/130
f 178/460/146 174/459/139 179/458/145
f 162/462/148 178/464/146 165/628/153
f 164/193/70 234/465/70 165/629/70
f 183/466/52 184/197/52 185/630/52
f 184/199/71 241/467/71 185/566/71
f 187/468/149 236/470/149 237/563/149
f 186/205/52 190/471/52 187/631/52
f 190/471/52 189/473/52 187/631/52
f 162/474/148 192/476/151 180/632/151
f 181/477/152 192/479/152 193/633/152
f 162/480/148 187/482/154 191/634/150
f 189/483/155 191/485/150 187/635/154
f 202/488/159 195/490/161 201/505/165
f 197/492/116 203/494/116 204/636/116
f 190/495/71 205/232/71 203/637/71
f 203/496/52 206/235/52 204/638/52
f 204/497/87 207/238/87 197/639/87
f 197/498/52 209/241/52 208/640/52
f 208/500/71 211/245/71 210/641/71
f 211/247/52 200/501/52 210/642/52
f 200/502/163 212/251/71 213/643/163
f 216/503/164 214/254/90 202/644/179
f 213/504/54 215/257/54 216/645/54
f 200/507/163 216/509/167 210/646/167
f 201/491/162 210/510/168 216/647/180
f 198/487/158 208/511/169 210/510/168
f 195/512/97 226/514/98 194/648/114
f 181/515/100 221/517/101 180/524/107
f 193/518/102 224/520/103 225/546/102
f 196/521/105 227/513/99 195/512/97
f 162/523/106 221/517/101 217/649/109
f 163/525/108 217/527/109 218/531/113
f 191/528/110 224/520/103 192/519/104
f 174/530/112 218/531/113 219/535/115
f 191/528/110 226/533/98 223/529/111
f 175/534/71 219/535/115 220/549/71
f 221/536/86 220/538/86 219/650/86
f 218/539/86 221/536/86 219/650/86
f 225/541/86 227/543/86 228/651/86
f 227/543/86 223/544/86 226/652/86
f 181/545/54 225/546/117 222/547/118
f 222/547/118 230/548/170 229/550/172
f 220/549/171 229/550/172 172/171/55
f 228/553/174 230/548/170 225/546/117
f 232/554/70 182/310/70 183/556/70
f 233/312/70 232/555/70 234/653/70
f 234/465/70 183/556/70 165/629/70
f 237/557/149 235/559/149 238/654/149
f 238/560/149 183/562/149 185/655/149
f 183/562/149 236/470/149 165/469/149
f 187/468/149 238/560/149 185/655/149
f 241/564/71 239/324/71 242/656/71
f 242/565/71 186/327/71 187/657/71
f 185/566/71 242/565/71 187/657/71
f 244/567/116 245/569/116 246/658/116
f 246/570/71 249/572/71 250/659/71
f 250/573/86 247/575/86 248/660/86
f 249/576/54 243/578/54 247/661/54
f 246/579/52 248/581/52 244/662/52
f 251/582/116 260/584/116 259/663/116
f 260/585/71 257/587/71 258/605/71
f 258/588/86 255/590/86 256/664/86
f 255/591/87 259/593/87 256/608/87
f 257/594/54 251/596/54 255/665/54
f 254/597/52 256/599/52 252/604/52
f 261/600/116 263/602/116 262/666/116
f 265/603/52 262/364/52 263/434/52
f 266/609/125 268/611/125 270/667/125
f 252/607/87 261/376/87 262/436/87
f 266/615/71 263/378/71 264/437/71
f 266/617/54 261/376/54 259/593/54
f 260/618/86 267/620/86 268/668/86
f 266/621/116 269/623/116 265/669/116
f 254/597/126 269/624/126 267/670/126
