texture textures/cars.png
v 0.305124 0.305097 0.460715
v 0.412782 0.305097 0.460715
v 0.305124 0.246850 0.380545
v 0.412782 0.246850 0.380545
v 0.305124 0.152604 0.349923
v 0.412782 0.152604 0.349923
v 0.305124 0.058358 0.380545
v 0.412782 0.058358 0.380545
v 0.305124 0.000111 0.460715
v 0.412782 0.000111 0.460715
v 0.305124 0.000111 0.559811
v 0.412782 0.000111 0.559811
v 0.305124 0.058358 0.639982
v 0.412782 0.058358 0.639982
v 0.305124 0.152604 0.670604
v 0.412782 0.152604 0.670604
v 0.305124 0.246850 0.639982
v 0.412782 0.246850 0.639982
v 0.305124 0.305097 0.559811
v 0.412782 0.305097 0.559811
vt 0.524372 0.971647
vt 0.612156 0.959848
vt 0.524372 0.959848
vt 0.612156 0.940757
vt 0.524372 0.940757
vt 0.524372 0.921665
vt 0.612156 0.921665
vt 0.524372 0.909866
vt 0.612156 0.909866
vt 0.524372 0.909866
vt 0.612156 0.909866
vt 0.524372 0.921665
vt 0.612156 0.921665
vt 0.524372 0.940757
vt 0.612156 0.940757
vt 0.524372 0.959848
vt 0.612156 0.959848
vt 0.524372 0.971647
vt 0.612156 0.971647
vt 0.512421 0.891662
vt 0.519896 0.891662
vt 0.518469 0.897068
vt 0.250082 0.022727
vt 0.383670 0.433867
vt 0.116495 0.433868
vt 0.612156 0.971647
vt 0.516159 0.897992
vt 0.513849 0.897068
vt 0.512421 0.894650
vt 0.513849 0.889244
vt 0.516159 0.888320
vt 0.518469 0.889244
vt 0.519896 0.894650
vt 0.033933 0.320231
vt 0.033933 0.179769
vt 0.116495 0.066133
vt 0.383670 0.066133
vt 0.466232 0.179769
vt 0.466232 0.320231
vt 0.250082 0.477273
vn 0.0000 0.9511 -0.3090
vn 0.0000 0.5878 -0.8090
vn 0.0000 0.0000 -1.0000
vn 0.0000 -0.5878 -0.8090
vn 0.0000 -0.9511 -0.3090
vn 0.0000 -0.9511 0.3090
vn 0.0000 -0.5878 0.8090
vn 0.0000 -0.0000 1.0000
vn 0.0000 0.5878 0.8090
vn 0.0000 0.9511 0.3090
vn -1.0000 -0.0000 0.0000
vn 1.0000 -0.0000 -0.0000
s 1
f 1/1/1 4/2/2 3/3/2
f 3/3/2 6/4/3 5/5/3
f 6/4/3 7/6/4 5/5/3
f 8/7/4 9/8/5 7/6/4
f 10/9/5 11/10/6 9/8/5
f 12/11/6 13/12/7 11/10/6
f 14/13/7 15/14/8 13/12/7
f 16/15/8 17/16/9 15/14/8
f 18/17/9 19/18/10 17/16/9
f 19/18/10 2/19/1 1/1/1
f 7/20/11 15/21/11 19/22/11
f 18/23/12 10/24/12 6/25/12
f 1/1/1 2/19/1 4/2/2
f 3/3/2 4/2/2 6/4/3
f 6/4/3 8/7/4 7/6/4
f 8/7/4 10/9/5 9/8/5
f 10/9/5 12/11/6 11/10/6
f 12/11/6 14/13/7 13/12/7
f 14/13/7 16/15/8 15/14/8
f 16/15/8 18/17/9 17/16/9
f 18/17/9 20/26/10 19/18/10
f 19/18/10 20/26/10 2/19/1
f 19/22/11 1/27/11 3/28/11
f 3/28/11 5/29/11 7/20/11
f 7/20/11 9/30/11 11/31/11
f 11/31/11 13/32/11 7/20/11
f 15/21/11 17/33/11 19/22/11
f 19/22/11 3/28/11 7/20/11
f 7/20/11 13/32/11 15/21/11
f 6/25/12 4/34/12 2/35/12
f 2/35/12 20/36/12 18/23/12
f 18/23/12 16/37/12 14/38/12
f 14/38/12 12/39/12 10/24/12
f 10/24/12 8/40/12 6/25/12
f 6/25/12 2/35/12 18/23/12
f 18/23/12 14/38/12 10/24/12
o RLW_Cylinder.005
v 0.300613 0.305098 -0.505997
v 0.432086 0.305098 -0.505997
v 0.300613 0.246850 -0.586167
v 0.432086 0.246850 -0.586167
v 0.300613 0.152604 -0.616789
v 0.432086 0.152604 -0.616789
v 0.300613 0.058358 -0.586167
v 0.432086 0.058358 -0.586167
v 0.300613 0.000111 -0.505997
v 0.432086 0.000111 -0.505997
v 0.300613 0.000111 -0.406901
v 0.432086 0.000111 -0.406901
v 0.300613 0.058358 -0.326730
v 0.432086 0.058358 -0.326730
v 0.300613 0.152604 -0.296108
v 0.432086 0.152604 -0.296108
v 0.300613 0.246850 -0.326730
v 0.432086 0.246850 -0.326730
v 0.300613 0.305098 -0.406901
v 0.432086 0.305098 -0.406901
vt 0.524372 0.971647
vt 0.612156 0.959848
vt 0.524372 0.959848
vt 0.612156 0.940757
vt 0.524372 0.940757
vt 0.524372 0.921665
vt 0.612156 0.921665
vt 0.524372 0.909866
vt 0.612156 0.909866
vt 0.524372 0.909866
vt 0.524372 0.921665
vt 0.612156 0.921665
vt 0.524372 0.940757
vt 0.612156 0.940757
vt 0.524372 0.959848
vt 0.612156 0.959848
vt 0.524372 0.971647
vt 0.612156 0.971647
vt 0.512421 0.891662
vt 0.519896 0.891662
vt 0.518469 0.897068
vt 0.250082 0.022727
vt 0.383670 0.433867
vt 0.116495 0.433868
vt 0.612156 0.971647
vt 0.612156 0.909866
vt 0.516159 0.897992
vt 0.513849 0.897068
vt 0.512421 0.894650
vt 0.513849 0.889244
vt 0.516159 0.888320
vt 0.518469 0.889244
vt 0.519896 0.894650
vt 0.033933 0.320231
vt 0.033933 0.179769
vt 0.116495 0.066133
vt 0.383670 0.066133
vt 0.466232 0.179769
vt 0.466232 0.320231
vt 0.250082 0.477273
vn 0.0000 0.9511 -0.3090
vn 0.0000 0.5878 -0.8090
vn 0.0000 0.0000 -1.0000
vn 0.0000 -0.5878 -0.8090
vn 0.0000 -0.9511 -0.3090
vn 0.0000 -0.9511 0.3090
vn 0.0000 -0.5878 0.8090
vn 0.0000 -0.0000 1.0000
vn 0.0000 0.5878 0.8090
vn 0.0000 0.9511 0.3090
vn -1.0000 -0.0000 0.0000
vn 1.0000 -0.0000 0.0000
s 1
f 21/41/13 24/42/14 23/43/14
f 23/43/14 26/44/15 25/45/15
f 26/44/15 27/46/16 25/45/15
f 28/47/16 29/48/17 27/46/16
f 29/48/17 32/49/18 31/50/18
f 32/49/18 33/51/19 31/50/18
f 34/52/19 35/53/20 33/51/19
f 36/54/20 37/55/21 35/53/20
f 38/56/21 39/57/22 37/55/21
f 40/58/22 21/41/13 39/57/22
f 27/59/23 35/60/23 39/61/23
f 38/62/24 30/63/24 26/64/24
f 21/41/13 22/65/13 24/42/14
f 23/43/14 24/42/14 26/44/15
f 26/44/15 28/47/16 27/46/16
f 28/47/16 30/66/17 29/48/17
f 29/48/17 30/66/17 32/49/18
f 32/49/18 34/52/19 33/51/19
f 34/52/19 36/54/20 35/53/20
f 36/54/20 38/56/21 37/55/21
f 38/56/21 40/58/22 39/57/22
f 40/58/22 22/65/13 21/41/13
f 39/61/23 21/67/23 23/68/23
f 23/68/23 25/69/23 27/59/23
f 27/59/23 29/70/23 31/71/23
f 31/71/23 33/72/23 27/59/23
f 35/60/23 37/73/23 39/61/23
f 39/61/23 23/68/23 27/59/23
f 27/59/23 33/72/23 35/60/23
f 26/64/24 24/74/24 22/75/24
f 22/75/24 40/76/24 38/62/24
f 38/62/24 36/77/24 34/78/24
f 34/78/24 32/79/24 30/63/24
f 30/63/24 28/80/24 26/64/24
f 26/64/24 22/75/24 38/62/24
f 38/62/24 34/78/24 30/63/24
o RRW_Cylinder.006
v -0.300613 0.305098 -0.406901
v -0.432086 0.305098 -0.406901
v -0.300613 0.246850 -0.326730
v -0.432086 0.246850 -0.326730
v -0.300613 0.152604 -0.296108
v -0.432086 0.152604 -0.296108
v -0.300613 0.058358 -0.326730
v -0.432086 0.058358 -0.326730
v -0.300613 0.000111 -0.406901
v -0.432086 0.000111 -0.406901
v -0.300613 0.000111 -0.505997
v -0.432086 0.000111 -0.505997
v -0.300613 0.058358 -0.586167
v -0.432086 0.058358 -0.586167
v -0.300613 0.152604 -0.616789
v -0.432086 0.152604 -0.616789
v -0.300613 0.246850 -0.586167
v -0.432086 0.246850 -0.586167
v -0.300613 0.305098 -0.505997
v -0.432086 0.305098 -0.505997
vt 0.612156 0.971647
vt 0.524372 0.959848
vt 0.524372 0.971647
vt 0.612156 0.940757
vt 0.524372 0.940757
vt 0.612156 0.921665
vt 0.524372 0.921665
vt 0.524372 0.909866
vt 0.612156 0.909866
vt 0.524372 0.909866
vt 0.612156 0.909866
vt 0.524372 0.921665
vt 0.612156 0.921665
vt 0.524372 0.940757
vt 0.612156 0.940757
vt 0.524372 0.959848
vt 0.612156 0.959848
vt 0.524372 0.971647
vt 0.612156 0.971647
vt 0.512421 0.891662
vt 0.519896 0.891662
vt 0.518469 0.897068
vt 0.250082 0.022727
vt 0.383670 0.433867
vt 0.116495 0.433868
vt 0.612156 0.959848
vt 0.516159 0.897992
vt 0.513849 0.897068
vt 0.512421 0.894650
vt 0.513849 0.889244
vt 0.516159 0.888320
vt 0.518469 0.889244
vt 0.519896 0.894650
vt 0.033933 0.320231
vt 0.033933 0.179769
vt 0.116495 0.066133
vt 0.383670 0.066133
vt 0.466232 0.179769
vt 0.466232 0.320231
vt 0.250082 0.477273
vn 0.0000 0.9511 0.3090
vn 0.0000 0.5878 0.8090
vn 0.0000 -0.0000 1.0000
vn 0.0000 -0.5878 0.8090
vn 0.0000 -0.9511 0.3090
vn 0.0000 -0.9511 -0.3090
vn 0.0000 -0.5878 -0.8090
vn 0.0000 0.0000 -1.0000
vn 0.0000 0.5878 -0.8090
vn 0.0000 0.9511 -0.3090
vn 1.0000 0.0000 0.0000
vn -1.0000 -0.0000 0.0000
s 1
f 42/81/25 43/82/26 41/83/25
f 43/82/26 46/84/27 45/85/27
f 45/85/27 48/86/28 47/87/28
f 48/86/28 49/88/29 47/87/28
f 50/89/29 51/90/30 49/88/29
f 52/91/30 53/92/31 51/90/30
f 54/93/31 55/94/32 53/92/31
f 56/95/32 57/96/33 55/94/32
f 58/97/33 59/98/34 57/96/33
f 60/99/34 41/83/25 59/98/34
f 47/100/35 55/101/35 59/102/35
f 58/103/36 50/104/36 46/105/36
f 42/81/25 44/106/26 43/82/26
f 43/82/26 44/106/26 46/84/27
f 45/85/27 46/84/27 48/86/28
f 48/86/28 50/89/29 49/88/29
f 50/89/29 52/91/30 51/90/30
f 52/91/30 54/93/31 53/92/31
f 54/93/31 56/95/32 55/94/32
f 56/95/32 58/97/33 57/96/33
f 58/97/33 60/99/34 59/98/34
f 60/99/34 42/81/25 41/83/25
f 59/102/35 41/107/35 43/108/35
f 43/108/35 45/109/35 47/100/35
f 47/100/35 49/110/35 51/111/35
f 51/111/35 53/112/35 47/100/35
f 55/101/35 57/113/35 59/102/35
f 59/102/35 43/108/35 47/100/35
f 47/100/35 53/112/35 55/101/35
f 46/105/36 44/114/36 42/115/36
f 42/115/36 60/116/36 58/103/36
f 58/103/36 56/117/36 54/118/36
f 54/118/36 52/119/36 50/104/36
f 50/104/36 48/120/36 46/105/36
f 46/105/36 42/115/36 58/103/36
f 58/103/36 54/118/36 50/104/36
o FRW_Cylinder.007
v -0.305124 0.305097 0.559811
v -0.412782 0.305097 0.559811
v -0.305124 0.246850 0.639982
v -0.412782 0.246850 0.639982
v -0.305124 0.152604 0.670604
v -0.412782 0.152604 0.670604
v -0.305124 0.058358 0.639982
v -0.412782 0.058358 0.639982
v -0.305124 0.000111 0.559811
v -0.412782 0.000111 0.559811
v -0.305124 0.000111 0.460715
v -0.412782 0.000111 0.460715
v -0.305124 0.058358 0.380545
v -0.412782 0.058358 0.380545
v -0.305124 0.152604 0.349923
v -0.412782 0.152604 0.349923
v -0.305124 0.246850 0.380545
v -0.412782 0.246850 0.380545
v -0.305124 0.305097 0.460716
v -0.412782 0.305097 0.460716
vt 0.612156 0.971647
vt 0.524372 0.959848
vt 0.524372 0.971647
vt 0.612156 0.940757
vt 0.524372 0.940757
vt 0.612156 0.921665
vt 0.524372 0.921665
vt 0.612156 0.909866
vt 0.524372 0.909866
vt 0.524372 0.909866
vt 0.612156 0.909866
vt 0.524372 0.921665
vt 0.612156 0.921665
vt 0.524372 0.940757
vt 0.612156 0.940757
vt 0.524372 0.959848
vt 0.612156 0.959848
vt 0.524372 0.971647
vt 0.612156 0.971647
vt 0.512421 0.891662
vt 0.519896 0.891662
vt 0.518469 0.897068
vt 0.250082 0.022727
vt 0.383670 0.433867
vt 0.116495 0.433868
vt 0.612156 0.959848
vt 0.516159 0.897992
vt 0.513849 0.897068
vt 0.512421 0.894650
vt 0.513849 0.889244
vt 0.516159 0.888320
vt 0.518469 0.889244
vt 0.519896 0.894650
vt 0.033933 0.320231
vt 0.033933 0.179769
vt 0.116495 0.066133
vt 0.383670 0.066133
vt 0.466232 0.179769
vt 0.466232 0.320231
vt 0.250082 0.477273
vn 0.0000 0.9511 0.3090
vn 0.0000 0.5878 0.8090
vn 0.0000 -0.0000 1.0000
vn 0.0000 -0.5878 0.8090
vn 0.0000 -0.9511 0.3090
vn 0.0000 -0.9511 -0.3090
vn 0.0000 -0.5878 -0.8090
vn -0.0000 0.0000 -1.0000
vn -0.0000 0.5878 -0.8090
vn 0.0000 0.9511 -0.3090
vn 1.0000 0.0000 0.0000
vn -1.0000 -0.0000 -0.0000
s 1
f 62/121/37 63/122/38 61/123/37
f 63/122/38 66/124/39 65/125/39
f 65/125/39 68/126/40 67/127/40
f 67/127/40 70/128/41 69/129/41
f 70/128/41 71/130/42 69/129/41
f 72/131/42 73/132/43 71/130/42
f 74/133/43 75/134/44 73/132/43
f 76/135/44 77/136/45 75/134/44
f 78/137/45 79/138/46 77/136/45
f 80/139/46 61/123/37 79/138/46
f 67/140/47 75/141/47 79/142/47
f 78/143/48 70/144/48 66/145/48
f 62/121/37 64/146/38 63/122/38
f 63/122/38 64/146/38 66/124/39
f 65/125/39 66/124/39 68/126/40
f 67/127/40 68/126/40 70/128/41
f 70/128/41 72/131/42 71/130/42
f 72/131/42 74/133/43 73/132/43
f 74/133/43 76/135/44 75/134/44
f 76/135/44 78/137/45 77/136/45
f 78/137/45 80/139/46 79/138/46
f 80/139/46 62/121/37 61/123/37
f 79/142/47 61/147/47 63/148/47
f 63/148/47 65/149/47 67/140/47
f 67/140/47 69/150/47 71/151/47
f 71/151/47 73/152/47 67/140/47
f 75/141/47 77/153/47 79/142/47
f 79/142/47 63/148/47 67/140/47
f 67/140/47 73/152/47 75/141/47
f 66/145/48 64/154/48 62/155/48
f 62/155/48 80/156/48 78/143/48
f 78/143/48 76/157/48 74/158/48
f 74/158/48 72/159/48 70/144/48
f 70/144/48 68/160/48 66/145/48
f 66/145/48 62/155/48 78/143/48
f 78/143/48 74/158/48 70/144/48
o Body_Plane.000
v 0.418727 0.023337 0.962986
v 0.418727 0.142454 0.919423
v 0.418727 0.347937 0.570485
v 0.418727 0.023337 0.662190
v 0.418727 0.232052 0.694171
v 0.418727 0.324573 0.558813
v 0.421669 0.121442 0.699121
v 0.418727 0.324573 0.408751
v 0.418727 0.212000 0.324116
v 0.418727 0.035854 0.324116
v 0.418727 0.347937 0.275921
v 0.233248 0.347937 0.424183
v 0.418727 0.347937 -0.797583
v 0.233248 0.347937 -0.797583
v 0.141763 0.495223 0.164080
v 0.141763 0.495224 -0.221128
v 0.233248 0.347937 -0.524292
v 0.418727 0.212000 -0.272083
v 0.418727 0.035854 -0.272083
v 0.418727 0.326374 -0.396694
v 0.418727 0.326374 -0.527788
v 0.418727 0.245818 -0.622509
v 0.418727 0.167188 -0.645197
v 0.418727 0.167188 -0.751801
v 0.418727 0.243964 -0.793578
v 0.418727 0.347937 -0.402293
v 0.418727 0.096334 -0.636750
v 0.394868 0.403401 -0.634056
v 0.394868 0.443348 -0.628959
v 0.394868 0.428950 -0.834287
v 0.394868 0.468898 -0.829189
v 0.102368 0.321292 -0.657233
v 0.102368 0.432770 -0.700726
v 0.102368 0.321292 -0.710625
v 0.102368 0.432770 -0.754118
v 0.155760 0.321292 -0.657233
v 0.155760 0.432770 -0.700726
v 0.155760 0.321292 -0.710625
v 0.155760 0.432770 -0.754118
v 0.256954 0.023337 0.662190
v 0.256954 0.232052 0.694171
v 0.256954 0.324573 0.558813
v 0.256954 0.121442 0.699121
v 0.256954 0.324573 0.408751
v 0.256954 0.212000 0.324116
v 0.256954 0.035854 0.324116
v 0.256464 0.212000 -0.272083
v 0.256464 0.035854 -0.272083
v 0.256464 0.326374 -0.396694
v 0.256464 0.326374 -0.527788
v 0.256464 0.245818 -0.622509
v 0.256464 0.167188 -0.645197
v 0.256464 0.096334 -0.636750
v -0.000245 0.035854 -0.272083
v 0.130062 0.483435 0.184897
v 0.205832 0.360296 0.402358
v 0.151705 0.479218 0.162225
v 0.225032 0.361166 0.372262
v 0.225028 0.361171 -0.084157
v 0.151701 0.479223 -0.088641
v 0.127493 0.485587 -0.240963
v 0.206489 0.357904 -0.503778
v 0.418727 0.313405 0.190768
v 0.418727 0.306621 0.147432
v 0.418727 0.298728 0.097013
v 0.261285 0.300940 0.097013
v 0.257248 0.307723 0.147432
v 0.253777 0.313553 0.190768
v 0.236115 0.343226 0.275921
v 0.418727 0.329830 0.231271
v 0.245376 0.327667 0.231271
v 0.007620 0.266436 -0.682441
v 0.007620 0.326722 -0.682441
v 0.007620 0.266436 -0.820925
v 0.007620 0.326722 -0.820925
v 0.067906 0.266436 -0.682441
v 0.067906 0.326722 -0.682441
v 0.067906 0.266436 -0.820925
v 0.067906 0.326722 -0.820925
v 0.000000 0.023337 0.962986
v -0.418727 0.023337 0.962986
v 0.000000 0.142454 0.919423
v -0.418727 0.142454 0.919423
v 0.000000 0.347937 0.570485
v -0.418727 0.347937 0.570485
v -0.418727 0.023337 0.662190
v -0.418727 0.232052 0.694171
v -0.418727 0.324573 0.558813
v -0.421669 0.121442 0.699121
v -0.418727 0.324573 0.408751
v -0.418727 0.212000 0.324116
v -0.418727 0.035854 0.324116
v 0.000000 0.347937 0.424183
v -0.418727 0.347937 0.275921
v -0.233248 0.347937 0.424183
v -0.418727 0.347937 -0.797583
v -0.233248 0.347937 -0.797583
v 0.000000 0.495223 0.164080
v -0.141763 0.495223 0.164080
v 0.000000 0.495224 -0.221128
v -0.141763 0.495224 -0.221128
v 0.000000 0.347937 -0.524331
v -0.233248 0.347937 -0.524292
v -0.418727 0.212000 -0.272083
v -0.418727 0.035854 -0.272083
v -0.418727 0.326374 -0.396694
v -0.418727 0.326374 -0.527788
v -0.418727 0.245818 -0.622509
v -0.418727 0.167188 -0.645197
v -0.418727 0.167188 -0.751801
v -0.418727 0.243964 -0.793578
v -0.418727 0.347937 -0.402293
v 0.000000 0.167188 -0.751801
v 0.000000 0.243964 -0.793578
v 0.000000 0.347937 -0.797583
v -0.418727 0.096334 -0.636750
v 0.000000 0.096334 -0.636750
v 0.000000 0.403401 -0.634056
v 0.000000 0.443348 -0.628959
v 0.000000 0.428950 -0.834287
v 0.000000 0.468898 -0.829189
v -0.394868 0.403401 -0.634056
v -0.394868 0.443348 -0.628959
v -0.394868 0.428950 -0.834287
v -0.394868 0.468898 -0.829189
v -0.102368 0.321292 -0.657233
v -0.102368 0.432770 -0.700726
v -0.102368 0.321292 -0.710625
v -0.102368 0.432770 -0.754118
v -0.155760 0.321292 -0.657233
v -0.155760 0.432770 -0.700726
v -0.155760 0.321292 -0.710625
v -0.155760 0.432770 -0.754118
v -0.256954 0.023337 0.662190
v -0.256954 0.232052 0.694171
v -0.256954 0.324573 0.558813
v -0.256954 0.121442 0.699121
v -0.256954 0.324573 0.408751
v -0.256954 0.212000 0.324116
v -0.256954 0.035854 0.324116
v -0.256464 0.212000 -0.272083
v -0.256464 0.035854 -0.272083
v -0.256464 0.326374 -0.396694
v -0.256464 0.326374 -0.527788
v -0.256464 0.245818 -0.622509
v -0.256464 0.167188 -0.645197
v -0.256464 0.096334 -0.636750
v 0.000000 0.035854 0.324116
v 0.000245 0.035854 -0.272083
v 0.000000 0.483438 0.184893
v -0.130062 0.483435 0.184897
v 0.000000 0.360297 0.402355
v -0.205832 0.360296 0.402358
v -0.151705 0.479218 0.162225
v -0.225032 0.361166 0.372262
v -0.225028 0.361171 -0.084157
v -0.151701 0.479223 -0.088641
v 0.000000 0.357920 -0.503779
v 0.000000 0.485592 -0.240955
v -0.127493 0.485587 -0.240963
v -0.206489 0.357904 -0.503778
v -0.418727 0.313405 0.190768
v -0.418727 0.306621 0.147432
v -0.418727 0.298728 0.097013
v -0.261285 0.300940 0.097013
v -0.257248 0.307723 0.147432
v -0.253777 0.313553 0.190768
v -0.236115 0.343226 0.275921
v -0.418727 0.329830 0.231271
v -0.245376 0.327667 0.231271
v -0.007620 0.266436 -0.682441
v -0.007620 0.326722 -0.682441
v -0.007620 0.266436 -0.820925
v -0.007620 0.326722 -0.820925
v -0.067906 0.266436 -0.682441
v -0.067906 0.326722 -0.682441
v -0.067906 0.266436 -0.820925
v -0.067906 0.326722 -0.820925
vt 0.177661 0.611588
vt 0.161293 0.601586
vt 0.161284 0.611578
vt 0.166966 0.534448
vt 0.145472 0.560627
vt 0.145472 0.534448
vt 0.145472 0.553926
vt 0.157445 0.561321
vt 0.145471 0.561321
vt 0.175166 0.569692
vt 0.176261 0.566585
vt 0.176308 0.570109
vt 0.173877 0.569767
vt 0.174883 0.567114
vt 0.141299 0.571234
vt 0.142627 0.569767
vt 0.141572 0.571367
vt 0.137483 0.611672
vt 0.135311 0.609994
vt 0.137450 0.610007
vt 0.166966 0.553926
vt 0.176481 0.622111
vt 0.174069 0.621828
vt 0.176481 0.621827
vt 0.152980 0.552742
vt 0.145989 0.558302
vt 0.145989 0.552742
vt 0.151851 0.589090
vt 0.150357 0.588894
vt 0.151851 0.588894
vt 0.182929 0.617650
vt 0.183154 0.618779
vt 0.182988 0.619387
vt 0.137487 0.600931
vt 0.135316 0.597836
vt 0.137489 0.597836
vt 0.176308 0.581055
vt 0.173801 0.574103
vt 0.176215 0.574071
vt 0.141596 0.573125
vt 0.142551 0.574103
vt 0.141345 0.574684
vt 0.135314 0.602313
vt 0.141700 0.582560
vt 0.141450 0.582629
vt 0.142644 0.581088
vt 0.141945 0.576772
vt 0.141721 0.584096
vt 0.141512 0.587260
vt 0.142454 0.585065
vt 0.174856 0.586695
vt 0.173704 0.585065
vt 0.174839 0.585447
vt 0.142482 0.587200
vt 0.175907 0.570626
vt 0.180814 0.571348
vt 0.175908 0.571348
vt 0.164062 0.512454
vt 0.143770 0.512454
vt 0.164062 0.503402
vt 0.127633 0.503402
vt 0.127633 0.512454
vt 0.140220 0.600930
vt 0.140221 0.597835
vt 0.165952 0.588419
vt 0.162946 0.586925
vt 0.165951 0.586925
vt 0.175662 0.585337
vt 0.130122 0.527850
vt 0.151750 0.529237
vt 0.130122 0.529237
vt 0.151137 0.581140
vt 0.150669 0.578775
vt 0.151137 0.578776
vt 0.151758 0.527922
vt 0.130143 0.526988
vt 0.151758 0.526988
vt 0.169645 0.567772
vt 0.165019 0.570128
vt 0.165019 0.567772
vt 0.145832 0.558784
vt 0.166968 0.551492
vt 0.166968 0.558784
vt 0.281386 0.923837
vt 0.280803 0.922662
vt 0.281386 0.922435
vt 0.274813 0.922673
vt 0.275439 0.923452
vt 0.274813 0.923450
vt 0.283046 0.922664
vt 0.282463 0.923827
vt 0.282463 0.922435
vt 0.290798 0.917144
vt 0.290172 0.916315
vt 0.290798 0.916317
vt 0.274737 0.928482
vt 0.276096 0.929716
vt 0.274736 0.929715
vt 0.259648 0.927618
vt 0.261012 0.927722
vt 0.259647 0.927722
vt 0.274737 0.927204
vt 0.276096 0.926965
vt 0.276097 0.927204
vt 0.259649 0.924794
vt 0.261014 0.925966
vt 0.259649 0.925966
vt 0.276095 0.930265
vt 0.274734 0.930264
vt 0.259646 0.924420
vt 0.261013 0.924794
vt 0.276097 0.928483
vt 0.261014 0.927043
vt 0.259649 0.927043
vt 0.276526 0.923001
vt 0.276079 0.924366
vt 0.276079 0.923005
vt 0.276818 0.918373
vt 0.276729 0.919732
vt 0.276729 0.918346
vt 0.261013 0.927618
vt 0.270627 0.931231
vt 0.270848 0.929866
vt 0.270848 0.931230
vt 0.274195 0.923282
vt 0.274195 0.926127
vt 0.273366 0.923001
vt 0.272464 0.926190
vt 0.272445 0.923077
vt 0.271762 0.925504
vt 0.271715 0.924243
vt 0.273937 0.926964
vt 0.273937 0.930072
vt 0.272227 0.927246
vt 0.273365 0.930238
vt 0.272518 0.930089
vt 0.271715 0.928392
vt 0.271894 0.929480
vt 0.261008 0.919522
vt 0.259648 0.919522
vt 0.261011 0.924420
vt 0.263167 0.919522
vt 0.263170 0.924420
vt 0.161046 0.588419
vt 0.161045 0.586925
vt 0.261009 0.916723
vt 0.259649 0.914252
vt 0.263170 0.914251
vt 0.263168 0.927525
vt 0.261011 0.927525
vt 0.174955 0.618995
vt 0.176478 0.618724
vt 0.176478 0.618995
vt 0.989590 0.878912
vt 0.991348 0.997303
vt 0.989590 0.997305
vt 0.174817 0.618724
vt 0.962198 0.882044
vt 0.961088 0.994969
vt 0.959869 0.882048
vt 0.184633 0.613379
vt 0.184833 0.616340
vt 0.184633 0.616318
vt 0.183154 0.614077
vt 0.184833 0.611827
vt 0.169256 0.533073
vt 0.176738 0.515925
vt 0.176738 0.533073
vt 0.150190 0.589090
vt 0.149436 0.586301
vt 0.151856 0.586098
vt 0.151855 0.586301
vt 0.137702 0.618602
vt 0.147861 0.613831
vt 0.148117 0.618573
vt 0.137718 0.618598
vt 0.147856 0.613842
vt 0.148114 0.618568
vt 0.137157 0.608108
vt 0.137705 0.618627
vt 0.147864 0.613821
vt 0.148111 0.618567
vt 0.137694 0.618660
vt 0.147871 0.613818
vt 0.148108 0.618573
vt 0.182558 0.616652
vt 0.182486 0.616145
vt 0.182401 0.615554
vt 0.182988 0.608275
vt 0.141760 0.575676
vt 0.141562 0.575204
vt 0.141845 0.576183
vt 0.135309 0.613329
vt 0.302833 0.984937
vt 0.307698 0.980072
vt 0.307698 0.984937
vt 0.236306 0.951208
vt 0.248159 0.939354
vt 0.248159 0.951208
vt 0.297482 0.984937
vt 0.302347 0.980072
vt 0.302347 0.984937
vt 0.297482 0.995640
vt 0.302347 0.990775
vt 0.302347 0.995640
vt 0.307698 0.990289
vt 0.302833 0.985424
vt 0.307698 0.985424
vt 0.177661 0.611588
vt 0.166966 0.534448
vt 0.157445 0.561321
vt 0.175166 0.569692
vt 0.176261 0.566585
vt 0.174883 0.567114
vt 0.173877 0.569767
vt 0.141299 0.571234
vt 0.142627 0.569767
vt 0.143633 0.567114
vt 0.137483 0.611672
vt 0.137450 0.610007
vt 0.135311 0.609994
vt 0.166966 0.553926
vt 0.174069 0.621828
vt 0.173748 0.622112
vt 0.152980 0.552742
vt 0.150357 0.588894
vt 0.150190 0.589090
vt 0.183154 0.618779
vt 0.182929 0.617650
vt 0.182988 0.619387
vt 0.137487 0.600931
vt 0.137489 0.597836
vt 0.135316 0.597836
vt 0.173801 0.574103
vt 0.176308 0.581055
vt 0.176215 0.574071
vt 0.141596 0.573125
vt 0.141345 0.574684
vt 0.142551 0.574103
vt 0.135314 0.602313
vt 0.141700 0.582560
vt 0.142644 0.581088
vt 0.141450 0.582629
vt 0.141945 0.576772
vt 0.141721 0.584096
vt 0.141512 0.587260
vt 0.142454 0.585065
vt 0.173704 0.585065
vt 0.174856 0.586695
vt 0.174839 0.585447
vt 0.142482 0.587200
vt 0.175907 0.570626
vt 0.175908 0.571348
vt 0.143770 0.512454
vt 0.127633 0.503402
vt 0.127633 0.512454
vt 0.162946 0.586925
vt 0.175662 0.585337
vt 0.151750 0.529237
vt 0.151137 0.581140
vt 0.150669 0.578775
vt 0.150669 0.581140
vt 0.151758 0.527922
vt 0.151758 0.526988
vt 0.169645 0.567772
vt 0.166968 0.551492
vt 0.166968 0.558784
vt 0.280803 0.922662
vt 0.281386 0.923837
vt 0.281386 0.922435
vt 0.275439 0.923452
vt 0.274813 0.922673
vt 0.274813 0.923450
vt 0.283046 0.922664
vt 0.282463 0.923827
vt 0.283046 0.924056
vt 0.290172 0.916315
vt 0.290798 0.917144
vt 0.290798 0.916317
vt 0.276096 0.929716
vt 0.274737 0.928482
vt 0.274736 0.929715
vt 0.261012 0.927722
vt 0.259648 0.927618
vt 0.259647 0.927722
vt 0.274737 0.927204
vt 0.276096 0.926965
vt 0.274711 0.926964
vt 0.261014 0.925966
vt 0.259649 0.924794
vt 0.259649 0.925966
vt 0.276095 0.930265
vt 0.274734 0.930264
vt 0.261013 0.924794
vt 0.259646 0.924420
vt 0.276097 0.928483
vt 0.261014 0.927043
vt 0.259649 0.927043
vt 0.276079 0.924366
vt 0.276526 0.923001
vt 0.276079 0.923005
vt 0.276729 0.919732
vt 0.276818 0.918373
vt 0.276729 0.918346
vt 0.261013 0.927618
vt 0.270848 0.929866
vt 0.270627 0.931231
vt 0.270848 0.931230
vt 0.274195 0.923282
vt 0.273366 0.923001
vt 0.274195 0.926127
vt 0.272464 0.926190
vt 0.272445 0.923077
vt 0.271762 0.925504
vt 0.271715 0.924243
vt 0.273937 0.926964
vt 0.272227 0.927246
vt 0.273937 0.930072
vt 0.273365 0.930238
vt 0.272518 0.930089
vt 0.271715 0.928392
vt 0.271894 0.929480
vt 0.261008 0.919522
vt 0.259648 0.919522
vt 0.261011 0.924420
vt 0.161046 0.588419
vt 0.259649 0.914252
vt 0.261009 0.916723
vt 0.261011 0.927525
vt 0.174955 0.618995
vt 0.991348 0.997303
vt 0.992371 0.878910
vt 0.174817 0.618724
vt 0.961088 0.994969
vt 0.962198 0.882044
vt 0.959869 0.882048
vt 0.184833 0.616340
vt 0.184633 0.613379
vt 0.184633 0.616318
vt 0.183154 0.614077
vt 0.184833 0.611827
vt 0.182988 0.608275
vt 0.169256 0.533073
vt 0.149436 0.586301
vt 0.149123 0.586099
vt 0.147861 0.613831
vt 0.137702 0.618602
vt 0.148117 0.618573
vt 0.147856 0.613842
vt 0.137718 0.618598
vt 0.148114 0.618568
vt 0.137157 0.608108
vt 0.135313 0.608115
vt 0.147864 0.613821
vt 0.137705 0.618627
vt 0.148111 0.618567
vt 0.147871 0.613818
vt 0.137694 0.618660
vt 0.148108 0.618573
vt 0.182558 0.616652
vt 0.182486 0.616145
vt 0.182401 0.615554
vt 0.141562 0.575204
vt 0.141760 0.575676
vt 0.141845 0.576183
vt 0.135309 0.613329
vt 0.307698 0.980072
vt 0.302833 0.984937
vt 0.307698 0.984937
vt 0.248159 0.939354
vt 0.236306 0.951208
vt 0.248159 0.951208
vt 0.302347 0.980072
vt 0.297482 0.984937
vt 0.302347 0.984937
vt 0.302347 0.990775
vt 0.297482 0.995640
vt 0.302347 0.995640
vt 0.302833 0.985424
vt 0.307698 0.990289
vt 0.307698 0.985424
vt 0.177670 0.601596
vt 0.166966 0.560627
vt 0.143633 0.567114
vt 0.173748 0.622112
vt 0.152980 0.558302
vt 0.173894 0.581088
vt 0.173732 0.587200
vt 0.180812 0.570626
vt 0.151750 0.527850
vt 0.150669 0.581140
vt 0.130143 0.527922
vt 0.169645 0.570128
vt 0.145832 0.551492
vt 0.280803 0.924064
vt 0.275439 0.922674
vt 0.283046 0.924056
vt 0.290172 0.917142
vt 0.274711 0.926964
vt 0.276526 0.924362
vt 0.276818 0.919734
vt 0.270627 0.929867
vt 0.259648 0.916723
vt 0.992371 0.878910
vt 0.962544 0.994969
vt 0.164620 0.515925
vt 0.149123 0.586099
vt 0.137707 0.613882
vt 0.137720 0.613901
vt 0.135313 0.608115
vt 0.137716 0.613869
vt 0.137705 0.613870
vt 0.182735 0.617127
vt 0.302833 0.980072
vt 0.236306 0.939354
vt 0.297482 0.980072
vt 0.297482 0.990775
vt 0.302833 0.990289
vt 0.177670 0.601596
vt 0.166966 0.560627
vt 0.176308 0.570109
vt 0.141572 0.571367
vt 0.152980 0.558302
vt 0.173894 0.581088
vt 0.173732 0.587200
vt 0.151750 0.527850
vt 0.151137 0.578776
vt 0.169645 0.570128
vt 0.280803 0.924064
vt 0.275439 0.922674
vt 0.282463 0.922435
vt 0.290172 0.917142
vt 0.276097 0.927204
vt 0.276526 0.924362
vt 0.276818 0.919734
vt 0.270627 0.929867
vt 0.263170 0.924420
vt 0.161045 0.586925
vt 0.259648 0.916723
vt 0.962544 0.994969
vt 0.164620 0.515925
vt 0.137707 0.613882
vt 0.137720 0.613901
vt 0.137716 0.613869
vt 0.137705 0.613870
vt 0.182735 0.617127
vt 0.302833 0.980072
vt 0.236306 0.939354
vt 0.297482 0.980072
vt 0.297482 0.990775
vt 0.302833 0.990289
vn 0.0000 0.3435 0.9392
vn 0.0000 0.8617 0.5074
vn 0.0000 0.9648 0.2630
vn -0.0039 0.9947 0.1028
vn 0.0000 0.9670 0.2548
vn 1.0000 -0.0011 0.0063
vn 0.9999 -0.0054 0.0091
vn 0.9996 -0.0300 -0.0000
vn 1.0000 0.0076 0.0030
vn 0.9999 0.0087 0.0117
vn 1.0000 0.0000 0.0000
vn -0.0111 0.9998 -0.0139
vn -0.0258 0.9991 -0.0322
vn 0.0000 0.8702 0.4927
vn 0.0000 1.0000 0.0000
vn 0.0000 0.8995 -0.4369
vn 0.0000 0.8995 -0.4370
vn 0.8517 0.5241 -0.0001
vn 0.8497 0.5272 -0.0001
vn 0.8498 0.5272 -0.0002
vn -0.0104 0.9998 0.0157
vn -0.0287 0.9981 0.0552
vn 0.0000 -0.4780 -0.8784
vn 0.0000 -0.0385 -0.9993
vn 0.0000 -0.8515 -0.5244
vn 0.0000 0.1266 -0.9920
vn 0.0000 -0.1266 0.9920
vn 0.0000 -0.9920 -0.1266
vn 0.0000 0.9920 0.1266
vn -1.0000 -0.0000 0.0000
vn 0.0000 -0.3635 -0.9316
vn 0.0000 0.3635 0.9316
vn 0.0000 -0.9554 -0.2953
vn 0.0000 -0.8947 0.4467
vn 0.0000 -0.2772 0.9608
vn 0.0000 -0.4827 -0.8758
vn 0.0000 0.1570 -0.9876
vn 0.0000 -0.4864 -0.8737
vn 0.0000 -0.7367 -0.6762
vn 0.0000 -0.6009 0.7993
vn 0.0000 0.0000 -1.0000
vn 0.0000 -1.0000 -0.0000
vn 0.0000 -0.9386 0.3451
vn 0.0000 -0.0000 1.0000
vn 0.0000 0.3523 -0.9359
vn 0.0000 0.1569 -0.9876
vn 0.0000 -0.7618 0.6478
vn 0.0000 0.1184 0.9930
vn 0.0000 -0.9993 -0.0370
vn 0.0000 -0.9865 -0.1636
vn 0.8528 0.5222 0.0002
vn 0.8495 0.5276 0.0000
vn 0.0001 0.8995 -0.4370
vn 0.0033 0.9642 -0.2652
vn 0.0042 0.9909 -0.1348
vn -0.0050 0.9694 -0.2455
vn 0.0096 0.9883 -0.1525
vn 0.0041 0.9997 -0.0230
vn -0.0137 0.9295 -0.3686
vn -0.0177 0.9416 -0.3362
vn -0.0243 0.9425 -0.3335
vn -0.0064 0.9281 -0.3722
vn 0.8516 0.5242 -0.0001
vn 0.8581 0.5134 -0.0008
vn 0.8575 0.5145 -0.0006
vn 0.8574 0.5147 -0.0005
vn 0.8508 0.5254 0.0001
vn 0.0039 0.9947 0.1028
vn -1.0000 -0.0011 0.0063
vn -0.9999 -0.0054 0.0091
vn -0.9999 0.0087 0.0117
vn -1.0000 0.0076 0.0030
vn 0.0258 0.9991 -0.0322
vn 0.0111 0.9998 -0.0139
vn -0.8497 0.5272 -0.0001
vn -0.8517 0.5241 -0.0001
vn -0.8498 0.5272 -0.0002
vn 0.0104 0.9998 0.0157
vn 0.0287 0.9981 0.0552
vn -0.8495 0.5276 0.0000
vn -0.8528 0.5222 0.0002
vn -0.8508 0.5254 0.0001
vn -0.0001 0.8995 -0.4370
vn -0.0042 0.9909 -0.1348
vn -0.0033 0.9642 -0.2652
vn 0.0050 0.9694 -0.2455
vn -0.0041 0.9997 -0.0230
vn -0.0096 0.9883 -0.1525
vn -0.0140 0.9995 -0.0285
vn 0.0177 0.9416 -0.3362
vn 0.0137 0.9295 -0.3686
vn 0.0243 0.9425 -0.3335
vn 0.0064 0.9281 -0.3722
vn -0.8582 0.5133 -0.0008
vn -0.8581 0.5135 -0.0008
vn -0.8575 0.5145 -0.0006
vn -0.8574 0.5147 -0.0005
vn -0.0229 -0.9995 -0.0196
vn 0.0140 0.9995 -0.0285
vn -0.5294 -0.8433 -0.0927
vn -0.1258 -0.9825 0.1375
vn 0.3896 -0.8447 0.3670
vn -0.9996 -0.0300 -0.0000
vn 0.0229 -0.9995 -0.0196
vn -0.4892 -0.7680 0.4133
vn 0.0862 -0.9812 0.1725
vn 0.5510 -0.8292 -0.0933
s 1
f 81/161/49 162/162/49 160/163/49
f 82/164/50 164/165/51 162/166/50
f 164/167/51 92/168/52 173/169/53
f 87/170/54 81/171/55 84/172/56
f 87/170/54 85/173/57 82/174/58
f 83/175/59 85/176/57 86/177/59
f 92/178/52 91/179/60 149/180/61
f 92/168/52 164/167/51 83/181/51
f 173/182/53 136/183/62 232/184/62
f 95/185/63 180/186/63 178/187/63
f 180/188/64 141/189/65 239/190/64
f 149/191/66 138/192/67 92/193/68
f 97/194/69 93/195/63 94/196/63
f 99/197/59 89/198/59 90/199/59
f 88/200/59 83/175/59 86/177/59
f 89/201/59 91/202/59 88/200/59
f 97/194/69 106/203/70 93/195/63
f 100/204/59 106/205/59 98/206/59
f 98/206/59 106/205/59 145/207/59
f 106/205/59 101/208/59 93/209/59
f 101/208/59 102/210/59 93/209/59
f 104/211/59 102/212/59 103/213/59
f 93/209/59 102/210/59 105/214/59
f 104/215/71 194/216/71 105/217/71
f 195/218/72 94/219/72 194/220/72
f 105/221/72 94/219/72 93/222/72
f 182/223/63 94/196/63 195/224/63
f 193/225/73 133/226/73 197/227/73
f 104/211/59 103/213/59 107/228/59
f 201/229/74 110/230/74 200/231/74
f 110/232/59 109/233/59 108/234/59
f 109/235/75 198/236/75 108/237/75
f 110/238/76 198/239/76 200/240/76
f 201/241/77 109/242/77 111/243/77
f 113/244/78 114/245/78 112/246/78
f 115/247/79 118/248/79 114/249/79
f 118/250/59 117/251/59 116/252/59
f 117/253/80 112/254/80 116/255/80
f 86/256/81 124/257/82 88/258/82
f 102/259/83 132/260/83 103/261/83
f 85/262/84 123/263/85 121/264/86
f 98/265/87 129/266/87 100/267/87
f 88/258/82 125/268/88 89/269/88
f 99/270/89 127/271/89 98/265/89
f 85/262/84 122/272/81 86/256/81
f 100/267/90 130/273/91 101/274/91
f 89/275/92 126/276/92 90/277/92
f 84/278/93 123/279/85 87/280/94
f 101/274/91 131/281/95 102/259/95
f 103/282/96 133/283/96 107/284/96
f 120/285/59 126/286/59 123/287/59
f 126/286/59 125/288/59 123/287/59
f 123/287/59 125/288/59 121/289/59
f 125/288/59 124/290/59 121/289/59
f 121/289/59 124/290/59 122/291/59
f 128/292/59 133/293/59 127/294/59
f 133/293/59 132/295/59 127/294/59
f 132/295/59 131/296/59 127/294/59
f 127/294/59 131/296/59 129/297/59
f 130/298/59 129/297/59 131/296/59
f 126/299/90 99/270/90 90/300/90
f 128/301/90 228/302/90 134/303/90
f 133/226/73 104/304/73 107/305/73
f 120/306/90 81/307/90 160/308/90
f 120/306/97 228/302/97 126/299/97
f 128/301/98 197/309/98 133/310/98
f 135/311/62 178/312/62 230/313/62
f 232/314/62 135/315/62 230/316/62
f 136/183/62 95/317/62 135/311/62
f 139/318/99 137/319/100 138/320/67
f 140/321/100 95/322/100 137/323/100
f 95/322/100 138/192/67 137/323/100
f 139/324/99 96/325/100 140/321/100
f 141/326/65 238/327/65 239/328/64
f 96/329/65 142/330/101 141/189/65
f 142/330/101 182/331/64 238/332/65
f 143/333/102 147/334/103 148/335/104
f 144/336/105 146/337/106 147/338/103
f 146/339/106 106/203/70 97/194/69
f 91/340/107 151/341/108 149/342/109
f 150/343/110 148/344/104 151/345/108
f 149/191/111 148/346/112 139/324/99
f 148/346/112 147/347/113 139/324/99
f 139/324/99 147/347/113 146/348/114
f 146/348/114 97/349/115 139/324/99
f 89/201/59 143/350/59 150/351/59
f 150/351/59 91/202/59 89/201/59
f 89/201/59 144/352/59 143/350/59
f 144/352/59 89/201/59 145/207/59
f 145/207/59 89/201/59 98/206/59
f 83/353/51 91/179/60 92/178/52
f 153/354/78 154/355/78 152/356/78
f 155/357/89 158/358/89 154/359/89
f 159/360/59 156/361/59 158/362/59
f 158/363/90 152/364/90 154/365/90
f 155/366/63 157/367/63 159/368/63
f 162/162/49 161/369/49 160/163/49
f 164/165/51 163/370/50 162/166/50
f 164/167/51 173/169/53 175/371/116
f 169/372/117 161/373/118 163/374/119
f 169/372/117 163/374/119 167/375/120
f 165/376/78 167/377/120 163/378/119
f 175/379/116 248/380/121 174/381/122
f 175/371/116 165/382/51 164/167/51
f 173/182/53 233/383/62 175/384/116
f 180/186/63 179/385/63 178/187/63
f 180/188/64 240/386/65 181/387/65
f 235/388/123 248/389/124 175/390/125
f 183/391/126 177/392/63 176/393/63
f 171/394/78 185/395/78 172/396/78
f 170/397/78 165/376/78 174/398/78
f 171/399/78 170/397/78 174/398/78
f 183/391/126 176/393/63 192/400/127
f 186/401/78 184/402/78 192/403/78
f 184/402/78 244/404/78 192/403/78
f 187/405/78 192/403/78 176/406/78
f 187/405/78 176/406/78 188/407/78
f 188/408/78 190/409/78 189/410/78
f 176/406/78 191/411/78 188/407/78
f 194/216/71 190/412/71 191/413/71
f 195/218/72 194/220/72 177/414/72
f 177/414/72 191/415/72 176/416/72
f 182/223/63 177/392/63 183/391/126
f 193/225/73 197/227/73 227/417/73
f 190/409/78 196/418/78 189/410/78
f 204/419/74 201/229/74 200/231/74
f 204/420/78 203/421/78 205/422/78
f 198/236/75 203/423/75 202/424/75
f 198/239/76 204/425/76 200/240/76
f 203/426/77 201/241/77 205/427/77
f 208/428/59 207/429/59 206/430/59
f 212/431/79 209/432/79 208/433/79
f 212/434/78 211/435/78 213/436/78
f 206/437/80 211/438/80 210/439/80
f 218/440/82 168/441/81 170/442/82
f 226/443/83 188/444/83 189/445/83
f 167/446/84 217/447/85 169/448/94
f 223/449/87 184/450/87 186/451/87
f 219/452/88 170/442/82 171/453/88
f 221/454/89 185/455/89 184/450/89
f 216/456/81 167/446/84 168/441/81
f 224/457/91 186/451/90 187/458/91
f 220/459/92 171/460/92 172/461/92
f 217/462/85 166/463/93 169/464/94
f 225/465/95 187/458/91 188/444/95
f 227/466/96 189/467/96 196/468/96
f 214/469/78 217/470/78 220/471/78
f 220/471/78 217/470/78 219/472/78
f 217/470/78 215/473/78 219/472/78
f 219/472/78 215/473/78 218/474/78
f 215/473/78 216/475/78 218/474/78
f 222/476/78 221/477/78 227/478/78
f 227/478/78 221/477/78 226/479/78
f 226/479/78 221/477/78 225/480/78
f 221/477/78 223/481/78 225/480/78
f 224/482/78 225/480/78 223/481/78
f 185/455/90 220/483/90 172/484/90
f 222/485/90 228/302/90 220/483/90
f 227/417/73 190/486/73 193/225/73
f 161/487/90 214/488/90 160/308/90
f 228/302/97 214/488/97 220/483/97
f 197/309/98 222/485/98 227/489/98
f 178/312/62 231/490/62 230/313/62
f 232/314/62 231/491/62 233/492/62
f 233/383/62 179/493/62 175/384/116
f 234/494/128 236/495/129 235/496/123
f 179/497/128 237/498/128 234/499/128
f 179/497/128 235/388/123 175/390/125
f 236/500/129 181/501/128 183/502/130
f 238/327/65 240/503/65 239/328/64
f 241/504/131 181/387/65 240/386/65
f 241/504/131 182/331/64 183/505/131
f 246/506/132 242/507/133 247/508/134
f 245/509/135 243/510/136 246/511/132
f 245/512/135 192/400/127 244/513/137
f 250/514/138 174/515/139 248/516/140
f 247/517/134 249/518/141 250/519/138
f 247/520/142 248/389/124 236/500/129
f 247/520/143 236/500/129 246/521/144
f 236/500/129 245/522/145 246/521/144
f 245/522/145 236/500/129 183/502/130
f 171/399/78 249/523/78 242/524/78
f 249/523/78 171/399/78 174/398/78
f 171/399/78 242/524/78 243/525/78
f 243/525/78 244/404/78 171/399/78
f 244/404/78 184/402/78 171/399/78
f 165/526/51 175/379/116 174/381/122
f 253/527/59 252/528/59 251/529/59
f 257/530/89 254/531/89 253/532/89
f 255/533/78 258/534/78 257/535/78
f 251/536/90 257/537/90 253/538/90
f 256/539/63 254/540/63 258/541/63
f 81/161/49 82/542/49 162/162/49
f 82/164/50 83/543/51 164/165/51
f 87/170/54 82/174/58 81/171/55
f 83/175/59 82/544/58 85/176/57
f 173/182/53 92/545/52 136/183/62
f 95/185/63 96/546/63 180/186/63
f 180/188/64 96/329/65 141/189/65
f 149/191/111 139/324/99 138/192/67
f 99/197/59 98/547/59 89/198/59
f 88/200/59 91/202/59 83/175/59
f 106/205/59 100/204/59 101/208/59
f 104/211/59 105/548/59 102/212/59
f 104/215/71 193/549/71 194/216/71
f 105/221/72 194/220/72 94/219/72
f 182/223/63 97/194/69 94/196/63
f 201/229/74 111/550/74 110/230/74
f 110/232/59 111/551/59 109/233/59
f 109/235/75 199/552/75 198/236/75
f 110/238/76 108/553/76 198/239/76
f 201/241/77 199/554/77 109/242/77
f 113/244/78 115/555/78 114/245/78
f 115/247/79 119/556/79 118/248/79
f 118/250/59 119/557/59 117/251/59
f 117/253/80 113/558/80 112/254/80
f 86/256/81 122/272/81 124/257/82
f 102/259/83 131/281/83 132/260/83
f 85/262/84 87/559/94 123/263/85
f 98/265/87 127/271/87 129/266/87
f 88/258/82 124/257/82 125/268/88
f 99/270/89 128/301/89 127/271/89
f 85/262/84 121/264/86 122/272/81
f 100/267/90 129/266/90 130/273/91
f 89/275/92 125/560/92 126/276/92
f 84/278/93 120/561/93 123/279/85
f 101/274/91 130/273/91 131/281/95
f 103/282/96 132/562/96 133/283/96
f 126/299/90 128/301/90 99/270/90
f 128/301/90 126/299/90 228/302/90
f 133/226/73 193/225/73 104/304/73
f 120/306/90 84/563/90 81/307/90
f 120/306/146 160/308/146 228/302/146
f 128/301/98 134/303/98 197/309/98
f 135/311/62 95/317/62 178/312/62
f 232/314/62 136/564/62 135/315/62
f 136/183/62 92/545/52 95/317/62
f 139/318/99 140/565/100 137/319/100
f 140/321/100 96/325/100 95/322/100
f 95/322/100 92/193/68 138/192/67
f 139/324/99 97/349/115 96/325/100
f 141/326/65 142/566/101 238/327/65
f 96/329/65 97/567/101 142/330/101
f 142/330/101 97/567/101 182/331/64
f 143/333/102 144/568/105 147/334/103
f 144/336/105 145/569/147 146/337/106
f 146/339/106 145/570/147 106/203/70
f 91/340/107 150/571/110 151/341/108
f 150/343/110 143/572/102 148/344/104
f 149/191/148 151/573/149 148/346/150
f 153/354/78 155/574/78 154/355/78
f 155/357/89 159/575/89 158/358/89
f 159/360/59 157/576/59 156/361/59
f 158/363/90 156/577/90 152/364/90
f 155/366/63 153/578/63 157/367/63
f 162/162/49 163/579/49 161/369/49
f 164/165/51 165/580/51 163/370/50
f 169/372/117 166/581/151 161/373/118
f 165/376/78 168/582/78 167/377/120
f 173/182/53 232/184/62 233/383/62
f 180/186/63 181/583/63 179/385/63
f 180/188/64 239/190/64 240/386/65
f 235/388/123 236/500/129 248/389/124
f 171/394/78 184/584/78 185/395/78
f 170/397/78 168/582/78 165/376/78
f 187/405/78 186/401/78 192/403/78
f 188/408/78 191/585/78 190/409/78
f 194/216/71 193/549/71 190/412/71
f 177/414/72 194/220/72 191/415/72
f 182/223/63 195/224/63 177/392/63
f 204/419/74 205/586/74 201/229/74
f 204/420/78 202/587/78 203/421/78
f 198/236/75 199/552/75 203/423/75
f 198/239/76 202/588/76 204/425/76
f 203/426/77 199/554/77 201/241/77
f 208/428/59 209/589/59 207/429/59
f 212/431/79 213/590/79 209/432/79
f 212/434/78 210/591/78 211/435/78
f 206/437/80 207/592/80 211/438/80
f 218/440/82 216/456/81 168/441/81
f 226/443/83 225/465/83 188/444/83
f 167/446/84 215/593/86 217/447/85
f 223/449/87 221/454/87 184/450/87
f 219/452/88 218/440/82 170/442/82
f 221/454/89 222/485/89 185/455/89
f 216/456/81 215/593/86 167/446/84
f 224/457/91 223/449/90 186/451/90
f 220/459/92 219/594/92 171/460/92
f 217/462/85 214/595/93 166/463/93
f 225/465/95 224/457/91 187/458/91
f 227/466/96 226/596/96 189/467/96
f 185/455/90 222/485/90 220/483/90
f 222/485/90 229/597/90 228/302/90
f 227/417/73 196/598/73 190/486/73
f 161/487/90 166/599/90 214/488/90
f 228/302/152 160/308/152 214/488/152
f 197/309/98 229/597/98 222/485/98
f 178/312/62 179/493/62 231/490/62
f 232/314/62 230/316/62 231/491/62
f 233/383/62 231/490/62 179/493/62
f 234/494/128 237/600/128 236/495/129
f 179/497/128 181/501/128 237/498/128
f 179/497/128 234/499/128 235/388/123
f 236/500/129 237/498/128 181/501/128
f 238/327/65 241/601/131 240/503/65
f 241/504/131 183/505/131 181/387/65
f 241/504/131 238/332/65 182/331/64
f 246/506/132 243/602/136 242/507/133
f 245/509/135 244/603/137 243/510/136
f 245/512/135 183/391/126 192/400/127
f 250/514/138 249/604/141 174/515/139
f 247/517/134 242/605/133 249/518/141
f 247/520/153 250/606/154 248/389/155
f 253/527/59 254/607/59 252/528/59
f 257/530/89 258/608/89 254/531/89
f 255/533/78 256/609/78 258/534/78
f 251/536/90 255/610/90 257/537/90
f 256/539/63 252/611/63 254/540/63
