texture textures/cars.png
v 0.311215 0.318116 0.571550
v 0.423467 0.318116 0.571550
v 0.311215 0.257383 0.487959
v 0.423467 0.257383 0.487959
v 0.311215 0.159116 0.456030
v 0.423467 0.159116 0.456030
v 0.311215 0.060848 0.487959
v 0.423467 0.060848 0.487959
v 0.311215 0.000116 0.571550
v 0.423467 0.000116 0.571550
v 0.311215 0.000116 0.674875
v 0.423467 0.000116 0.674875
v 0.311215 0.060848 0.758466
v 0.423467 0.060848 0.758466
v 0.311215 0.159116 0.790395
v 0.423467 0.159116 0.790395
v 0.311215 0.257383 0.758466
v 0.423467 0.257383 0.758466
v 0.311215 0.318116 0.674875
v 0.423467 0.318116 0.674875
vt 0.612156 0.971647
vt 0.524372 0.959848
vt 0.524372 0.971647
vt 0.612156 0.959848
vt 0.524372 0.940757
vt 0.612156 0.940757
vt 0.524372 0.921665
vt 0.612156 0.921665
vt 0.524372 0.909866
vt 0.612156 0.909866
vt 0.524372 0.909866
vt 0.612156 0.909866
vt 0.524372 0.921665
vt 0.612156 0.921665
vt 0.524372 0.940757
vt 0.612156 0.940757
vt 0.524372 0.959848
vt 0.612156 0.959848
vt 0.524372 0.971647
vt 0.612156 0.971647
vt 0.512421 0.891662
vt 0.519896 0.891662
vt 0.518469 0.897068
vt 0.250082 0.022727
vt 0.383670 0.433867
vt 0.033933 0.179769
vt 0.516159 0.897992
vt 0.513849 0.897068
vt 0.512421 0.894650
vt 0.513849 0.889244
vt 0.516159 0.888320
vt 0.518469 0.889244
vt 0.519896 0.894650
vt 0.116495 0.433868
vt 0.033933 0.320231
vt 0.116495 0.066133
vt 0.383670 0.066133
vt 0.466232 0.179769
vt 0.466232 0.320231
vt 0.250082 0.477273
vn 0.0000 0.9511 -0.3090
vn 0.0000 0.5878 -0.8090
vn 0.0000 0.0000 -1.0000
vn 0.0000 -0.5878 -0.8090
vn 0.0000 -0.9511 -0.3090
vn 0.0000 -0.9511 0.3090
vn 0.0000 -0.5878 0.8090
vn 0.0000 -0.0000 1.0000
vn 0.0000 0.5878 0.8090
vn 0.0000 0.9511 0.3090
vn -1.0000 0.0000 0.0000
vn 1.0000 0.0000 0.0000
s 1
f 2/1/1 3/2/2 1/3/1
f 4/4/2 5/5/3 3/2/2
f 6/6/3 7/7/4 5/5/3
f 8/8/4 9/9/5 7/7/4
f 10/10/5 11/11/6 9/9/5
f 12/12/6 13/13/7 11/11/6
f 14/14/7 15/15/8 13/13/7
f 16/16/8 17/17/9 15/15/8
f 18/18/9 19/19/10 17/17/9
f 20/20/10 1/3/1 19/19/10
f 7/21/11 15/22/11 19/23/11
f 18/24/12 10/25/12 2/26/12
f 2/1/1 4/4/2 3/2/2
f 4/4/2 6/6/3 5/5/3
f 6/6/3 8/8/4 7/7/4
f 8/8/4 10/10/5 9/9/5
f 10/10/5 12/12/6 11/11/6
f 12/12/6 14/14/7 13/13/7
f 14/14/7 16/16/8 15/15/8
f 16/16/8 18/18/9 17/17/9
f 18/18/9 20/20/10 19/19/10
f 20/20/10 2/1/1 1/3/1
f 19/23/11 1/27/11 3/28/11
f 3/28/11 5/29/11 19/23/11
f 7/21/11 9/30/11 11/31/11
f 11/31/11 13/32/11 15/22/11
f 15/22/11 17/33/11 19/23/11
f 19/23/11 5/29/11 7/21/11
f 7/21/11 11/31/11 15/22/11
f 6/34/12 4/35/12 2/26/12
f 2/26/12 20/36/12 18/24/12
f 18/24/12 16/37/12 14/38/12
f 14/38/12 12/39/12 18/24/12
f 10/25/12 8/40/12 6/34/12
f 6/34/12 2/26/12 10/25/12
f 18/24/12 12/39/12 10/25/12
o RLW_Cylinder.005
v 0.311215 0.318116 -0.466860
v 0.423467 0.318116 -0.466860
v 0.311215 0.257384 -0.550451
v 0.423467 0.257384 -0.550451
v 0.311215 0.159116 -0.582380
v 0.423467 0.159116 -0.582380
v 0.311215 0.060849 -0.550451
v 0.423467 0.060849 -0.550451
v 0.311215 0.000116 -0.466860
v 0.423467 0.000116 -0.466860
v 0.311215 0.000116 -0.363536
v 0.423467 0.000116 -0.363536
v 0.311215 0.060849 -0.279944
v 0.423467 0.060849 -0.279944
v 0.311215 0.159116 -0.248015
v 0.423467 0.159116 -0.248015
v 0.311215 0.257384 -0.279944
v 0.423467 0.257384 -0.279944
v 0.311215 0.318116 -0.363536
v 0.423467 0.318116 -0.363536
vt 0.612156 0.971647
vt 0.524372 0.959848
vt 0.524372 0.971647
vt 0.612156 0.940757
vt 0.524372 0.940757
vt 0.524372 0.921665
vt 0.612156 0.909866
vt 0.524372 0.909866
vt 0.612156 0.909866
vt 0.524372 0.909866
vt 0.612156 0.921665
vt 0.524372 0.921665
vt 0.524372 0.940757
vt 0.612156 0.959848
vt 0.524372 0.959848
vt 0.524372 0.971647
vt 0.612156 0.971647
vt 0.512421 0.891662
vt 0.519896 0.891662
vt 0.513849 0.897068
vt 0.250082 0.022727
vt 0.250082 0.477273
vt 0.116495 0.433868
vt 0.612156 0.959848
vt 0.612156 0.921665
vt 0.612156 0.940757
vt 0.518469 0.897068
vt 0.516159 0.897992
vt 0.512421 0.894650
vt 0.513849 0.889244
vt 0.516159 0.888320
vt 0.518469 0.889244
vt 0.519896 0.894650
vt 0.033933 0.320231
vt 0.033933 0.179769
vt 0.116495 0.066133
vt 0.383670 0.066133
vt 0.466232 0.179769
vt 0.466232 0.320231
vt 0.383670 0.433867
vn 0.0000 0.9511 -0.3090
vn 0.0000 0.5878 -0.8090
vn 0.0000 0.0000 -1.0000
vn 0.0000 -0.5878 -0.8090
vn -0.0000 -0.9511 -0.3090
vn 0.0000 -0.9511 0.3090
vn 0.0000 -0.5878 0.8090
vn 0.0000 -0.0000 1.0000
vn 0.0000 0.5878 0.8090
vn 0.0000 0.9511 0.3090
vn -1.0000 0.0000 0.0000
vn 1.0000 -0.0000 0.0000
s 1
f 22/41/13 23/42/14 21/43/13
f 23/42/14 26/44/15 25/45/15
f 26/44/15 27/46/16 25/45/15
f 27/46/16 30/47/17 29/48/17
f 29/48/17 32/49/18 31/50/18
f 31/50/18 34/51/19 33/52/19
f 34/51/19 35/53/20 33/52/19
f 35/53/20 38/54/21 37/55/21
f 38/54/21 39/56/22 37/55/21
f 40/57/22 21/43/13 39/56/22
f 27/58/23 35/59/23 23/60/23
f 38/61/24 28/62/24 26/63/24
f 22/41/13 24/64/14 23/42/14
f 23/42/14 24/64/14 26/44/15
f 26/44/15 28/65/16 27/46/16
f 27/46/16 28/65/16 30/47/17
f 29/48/17 30/47/17 32/49/18
f 31/50/18 32/49/18 34/51/19
f 34/51/19 36/66/20 35/53/20
f 35/53/20 36/66/20 38/54/21
f 38/54/21 40/57/22 39/56/22
f 40/57/22 22/41/13 21/43/13
f 39/67/23 21/68/23 23/60/23
f 23/60/23 25/69/23 27/58/23
f 27/58/23 29/70/23 31/71/23
f 31/71/23 33/72/23 35/59/23
f 35/59/23 37/73/23 39/67/23
f 39/67/23 23/60/23 35/59/23
f 27/58/23 31/71/23 35/59/23
f 26/63/24 24/74/24 22/75/24
f 22/75/24 40/76/24 38/61/24
f 38/61/24 36/77/24 34/78/24
f 34/78/24 32/79/24 38/61/24
f 30/80/24 28/62/24 38/61/24
f 26/63/24 22/75/24 38/61/24
f 38/61/24 32/79/24 30/80/24
o RRW_Cylinder.006
v -0.311215 0.318116 -0.363536
v -0.423467 0.318116 -0.363536
v -0.311215 0.257384 -0.279944
v -0.423467 0.257384 -0.279944
v -0.311215 0.159116 -0.248015
v -0.423467 0.159116 -0.248015
v -0.311215 0.060849 -0.279944
v -0.423467 0.060849 -0.279944
v -0.311215 0.000116 -0.363536
v -0.423467 0.000116 -0.363536
v -0.311215 0.000116 -0.466860
v -0.423467 0.000116 -0.466860
v -0.311215 0.060849 -0.550451
v -0.423467 0.060849 -0.550451
v -0.311215 0.159116 -0.582380
v -0.423467 0.159116 -0.582380
v -0.311215 0.257384 -0.550451
v -0.423467 0.257384 -0.550451
v -0.311215 0.318116 -0.466860
v -0.423467 0.318116 -0.466860
vt 0.612156 0.971647
vt 0.524372 0.959848
vt 0.524372 0.971647
vt 0.612156 0.940757
vt 0.524372 0.940757
vt 0.524372 0.921665
vt 0.612156 0.921665
vt 0.524372 0.909866
vt 0.612156 0.909866
vt 0.524372 0.909866
vt 0.612156 0.909866
vt 0.524372 0.921665
vt 0.612156 0.921665
vt 0.524372 0.940757
vt 0.612156 0.940757
vt 0.524372 0.959848
vt 0.612156 0.959848
vt 0.524372 0.971647
vt 0.612156 0.971647
vt 0.512421 0.891662
vt 0.519896 0.891662
vt 0.513849 0.897068
vt 0.250082 0.022727
vt 0.383670 0.433867
vt 0.033933 0.179769
vt 0.612156 0.959848
vt 0.518469 0.897068
vt 0.516159 0.897992
vt 0.512421 0.894650
vt 0.513849 0.889244
vt 0.516159 0.888320
vt 0.518469 0.889244
vt 0.519896 0.894650
vt 0.116495 0.433868
vt 0.033933 0.320231
vt 0.116495 0.066133
vt 0.383670 0.066133
vt 0.466232 0.179769
vt 0.466232 0.320231
vt 0.250082 0.477273
vn 0.0000 0.9511 0.3090
vn 0.0000 0.5878 0.8090
vn 0.0000 -0.0000 1.0000
vn 0.0000 -0.5878 0.8090
vn 0.0000 -0.9511 0.3090
vn 0.0000 -0.9511 -0.3090
vn 0.0000 -0.5878 -0.8090
vn -0.0000 0.0000 -1.0000
vn 0.0000 0.5878 -0.8090
vn 0.0000 0.9511 -0.3090
vn 1.0000 0.0000 0.0000
vn -1.0000 -0.0000 0.0000
s 1
f 42/81/25 43/82/26 41/83/25
f 43/82/26 46/84/27 45/85/27
f 46/84/27 47/86/28 45/85/27
f 48/87/28 49/88/29 47/86/28
f 50/89/29 51/90/30 49/88/29
f 52/91/30 53/92/31 51/90/30
f 54/93/31 55/94/32 53/92/31
f 56/95/32 57/96/33 55/94/32
f 58/97/33 59/98/34 57/96/33
f 60/99/34 41/83/25 59/98/34
f 47/100/35 55/101/35 43/102/35
f 58/103/36 50/104/36 42/105/36
f 42/81/25 44/106/26 43/82/26
f 43/82/26 44/106/26 46/84/27
f 46/84/27 48/87/28 47/86/28
f 48/87/28 50/89/29 49/88/29
f 50/89/29 52/91/30 51/90/30
f 52/91/30 54/93/31 53/92/31
f 54/93/31 56/95/32 55/94/32
f 56/95/32 58/97/33 57/96/33
f 58/97/33 60/99/34 59/98/34
f 60/99/34 42/81/25 41/83/25
f 59/107/35 41/108/35 43/102/35
f 43/102/35 45/109/35 47/100/35
f 47/100/35 49/110/35 55/101/35
f 51/111/35 53/112/35 55/101/35
f 55/101/35 57/113/35 59/107/35
f 59/107/35 43/102/35 55/101/35
f 49/110/35 51/111/35 55/101/35
f 46/114/36 44/115/36 42/105/36
f 42/105/36 60/116/36 58/103/36
f 58/103/36 56/117/36 54/118/36
f 54/118/36 52/119/36 58/103/36
f 50/104/36 48/120/36 46/114/36
f 46/114/36 42/105/36 50/104/36
f 58/103/36 52/119/36 50/104/36
o FRW_Cylinder.007
v -0.311215 0.318116 0.674875
v -0.423467 0.318116 0.674875
v -0.311215 0.257383 0.758466
v -0.423467 0.257383 0.758466
v -0.311215 0.159116 0.790395
v -0.423467 0.159116 0.790395
v -0.311215 0.060848 0.758466
v -0.423467 0.060848 0.758466
v -0.311215 0.000116 0.674875
v -0.423467 0.000116 0.674875
v -0.311215 0.000116 0.571550
v -0.423467 0.000116 0.571550
v -0.311215 0.060848 0.487959
v -0.423467 0.060848 0.487959
v -0.311215 0.159116 0.456030
v -0.423467 0.159116 0.456030
v -0.311215 0.257383 0.487959
v -0.423467 0.257383 0.487959
v -0.311215 0.318116 0.571550
v -0.423467 0.318116 0.571550
vt 0.612156 0.971647
vt 0.524372 0.959848
vt 0.524372 0.971647
vt 0.612156 0.959848
vt 0.524372 0.940757
vt 0.612156 0.940757
vt 0.524372 0.921665
vt 0.612156 0.921665
vt 0.524372 0.909866
vt 0.612156 0.909866
vt 0.524372 0.909866
vt 0.612156 0.909866
vt 0.524372 0.921665
vt 0.612156 0.921665
vt 0.524372 0.940757
vt 0.612156 0.940757
vt 0.524372 0.959848
vt 0.612156 0.959848
vt 0.524372 0.971647
vt 0.612156 0.971647
vt 0.512421 0.891662
vt 0.519896 0.891662
vt 0.518469 0.897068
vt 0.250082 0.022727
vt 0.383670 0.433867
vt 0.033933 0.179769
vt 0.516159 0.897992
vt 0.513849 0.897068
vt 0.512421 0.894650
vt 0.513849 0.889244
vt 0.516159 0.888320
vt 0.518469 0.889244
vt 0.519896 0.894650
vt 0.116495 0.433868
vt 0.033933 0.320231
vt 0.116495 0.066133
vt 0.383670 0.066133
vt 0.466232 0.179769
vt 0.466232 0.320231
vt 0.250082 0.477273
vn 0.0000 0.9511 0.3090
vn 0.0000 0.5878 0.8090
vn 0.0000 -0.0000 1.0000
vn 0.0000 -0.5878 0.8090
vn 0.0000 -0.9511 0.3090
vn 0.0000 -0.9511 -0.3090
vn 0.0000 -0.5878 -0.8090
vn 0.0000 0.0000 -1.0000
vn 0.0000 0.5878 -0.8090
vn 0.0000 0.9511 -0.3090
vn 1.0000 -0.0000 0.0000
vn -1.0000 0.0000 0.0000
s 1
f 62/121/37 63/122/38 61/123/37
f 64/124/38 65/125/39 63/122/38
f 66/126/39 67/127/40 65/125/39
f 68/128/40 69/129/41 67/127/40
f 70/130/41 71/131/42 69/129/41
f 72/132/42 73/133/43 71/131/42
f 74/134/43 75/135/44 73/133/43
f 76/136/44 77/137/45 75/135/44
f 78/138/45 79/139/46 77/137/45
f 80/140/46 61/123/37 79/139/46
f 67/141/47 75/142/47 79/143/47
f 78/144/48 70/145/48 62/146/48
f 62/121/37 64/124/38 63/122/38
f 64/124/38 66/126/39 65/125/39
f 66/126/39 68/128/40 67/127/40
f 68/128/40 70/130/41 69/129/41
f 70/130/41 72/132/42 71/131/42
f 72/132/42 74/134/43 73/133/43
f 74/134/43 76/136/44 75/135/44
f 76/136/44 78/138/45 77/137/45
f 78/138/45 80/140/46 79/139/46
f 80/140/46 62/121/37 61/123/37
f 79/143/47 61/147/47 67/141/47
f 63/148/47 65/149/47 67/141/47
f 67/141/47 69/150/47 75/142/47
f 71/151/47 73/152/47 75/142/47
f 75/142/47 77/153/47 79/143/47
f 61/147/47 63/148/47 67/141/47
f 69/150/47 71/151/47 75/142/47
f 66/154/48 64/155/48 62/146/48
f 62/146/48 80/156/48 78/144/48
f 78/144/48 76/157/48 74/158/48
f 74/158/48 72/159/48 78/144/48
f 70/145/48 68/160/48 66/154/48
f 66/154/48 62/146/48 70/145/48
f 78/144/48 72/159/48 70/145/48
o Body_Plane.002
v 0.344028 0.433287 0.810441
v 0.386400 0.465925 0.360942
v 0.302485 0.413035 0.889400
v 0.333126 0.306800 0.928169
v 0.297535 0.290741 0.945989
v 0.297535 0.156506 0.945989
v 0.390187 0.156506 0.823303
v 0.419602 0.290692 0.773780
v 0.419375 0.290741 0.461674
v 0.419375 0.356058 0.625274
v 0.347284 0.334938 -0.869722
v 0.311834 0.317565 -0.900072
v 0.311834 0.219099 -0.900072
v 0.347284 0.201726 -0.869722
v 0.347284 0.156506 -0.629810
v 0.418135 0.304955 -0.565137
v 0.418135 0.356058 -0.424669
v 0.418135 0.290741 -0.255477
v 0.375084 0.128252 0.407499
v 0.375084 0.128253 -0.187753
v 0.276063 0.156506 0.823303
v 0.276063 0.290741 0.773714
v 0.276063 0.356058 0.625274
v 0.276063 0.156506 -0.629810
v 0.276063 0.304955 -0.565137
v 0.276063 0.356058 -0.424669
v 0.276063 0.290741 -0.255477
v 0.276063 0.290741 0.461674
v 0.276063 0.128252 0.407499
v 0.276063 0.128253 -0.187753
v 0.332357 0.156506 0.928169
v 0.288512 0.693250 0.168246
v 0.288512 0.693251 -0.314821
v 0.386400 0.478841 -0.490942
v 0.338974 0.421681 -0.865855
v 0.340543 0.463308 -0.827639
v 0.276923 0.677249 0.182067
v 0.358911 0.482531 0.347148
v 0.274507 0.675815 -0.328838
v 0.356879 0.497493 -0.475396
v 0.297246 0.673355 0.159970
v 0.297596 0.673355 -0.302442
v 0.377885 0.497493 -0.450012
v 0.378299 0.485195 0.314925
v 0.297419 0.673355 -0.068773
v 0.297460 0.673355 -0.122939
v 0.378062 0.492235 -0.122939
v 0.378091 0.491364 -0.068773
v 0.192159 0.169954 -0.594299
v 0.192159 0.225012 -0.605370
v 0.192159 0.124553 -0.845789
v 0.192159 0.185790 -0.856860
v 0.254389 0.169954 -0.594299
v 0.254389 0.225012 -0.605370
v 0.254389 0.124553 -0.845789
v 0.254389 0.185790 -0.856860
v 0.000000 0.433287 0.820287
v -0.344028 0.433287 0.810441
v 0.000000 0.465925 0.366308
v -0.386400 0.465925 0.360942
v 0.000000 0.413035 0.910645
v -0.302485 0.413035 0.889400
v 0.000000 0.306800 0.949414
v -0.333126 0.306800 0.928169
v 0.000000 0.290741 0.967234
v -0.297535 0.290741 0.945989
v 0.000000 0.156506 0.967234
v -0.297535 0.156506 0.945989
v 0.000000 0.156506 0.823303
v -0.390187 0.156506 0.823303
v -0.419602 0.290692 0.773780
v -0.419375 0.290741 0.461674
v -0.419375 0.356058 0.625274
v 0.000000 0.334938 -0.892231
v -0.347284 0.334938 -0.869722
v 0.000000 0.317565 -0.922581
v -0.311834 0.317565 -0.900072
v 0.000000 0.219099 -0.922581
v -0.311834 0.219099 -0.900072
v 0.000000 0.201726 -0.869724
v -0.347284 0.201726 -0.869722
v 0.000000 0.156506 -0.629812
v -0.347284 0.156506 -0.629810
v -0.418135 0.304955 -0.565137
v -0.418135 0.356058 -0.424669
v -0.418135 0.290741 -0.255477
v -0.375084 0.128252 0.407499
v -0.375084 0.128253 -0.187753
v -0.276063 0.156506 0.823303
v -0.276063 0.290741 0.773714
v -0.276063 0.356058 0.625274
v -0.276063 0.156506 -0.629810
v -0.276063 0.304955 -0.565137
v -0.276063 0.356058 -0.424669
v -0.276063 0.290741 -0.255477
v -0.276063 0.290741 0.461674
v -0.276063 0.128252 0.407499
v -0.276063 0.128253 -0.187753
v 0.000000 0.128252 0.407499
v 0.000000 0.128253 -0.221165
v -0.332357 0.156506 0.928169
v 0.000000 0.693250 0.172253
v -0.288512 0.693250 0.168246
v 0.000000 0.693251 -0.310814
v -0.288512 0.693251 -0.314821
v 0.000000 0.478841 -0.486936
v -0.386400 0.478841 -0.490942
v -0.338974 0.421681 -0.865855
v -0.340543 0.463308 -0.827639
v 0.000000 0.463257 -0.827635
v 0.000000 0.421681 -0.888364
v 0.000000 0.677249 0.185912
v -0.276923 0.677249 0.182067
v 0.000000 0.482531 0.352132
v -0.358911 0.482531 0.347148
v 0.000000 0.675814 -0.325137
v -0.274507 0.675815 -0.328838
v 0.000000 0.497493 -0.471614
v -0.356879 0.497493 -0.475396
v -0.297246 0.673355 0.159970
v -0.297596 0.673355 -0.302442
v -0.377885 0.497493 -0.450012
v -0.378299 0.485195 0.314925
v -0.297419 0.673355 -0.068773
v -0.297460 0.673355 -0.122939
v -0.378062 0.492235 -0.122939
v -0.378091 0.491364 -0.068773
v -0.192159 0.169954 -0.594299
v -0.192159 0.225012 -0.605370
v -0.192159 0.124553 -0.845789
v -0.192159 0.185790 -0.856860
v -0.254389 0.169954 -0.594299
v -0.254389 0.225012 -0.605370
v -0.254389 0.124553 -0.845789
v -0.254389 0.185790 -0.856860
vt 0.637084 0.039916
vt 0.636650 0.040472
vt 0.636650 0.039905
vt 0.637032 0.039819
vt 0.740503 0.027207
vt 0.715789 0.020104
vt 0.742775 0.020104
vt 0.637488 0.040338
vt 0.637461 0.039964
vt 0.637486 0.039917
vt 0.725797 0.044066
vt 0.747164 0.034450
vt 0.747164 0.044066
vt 0.300009 0.915875
vt 0.300384 0.915848
vt 0.300036 0.916030
vt 0.693236 0.041396
vt 0.693139 0.041156
vt 0.693237 0.041216
vt 0.693193 0.041718
vt 0.693237 0.041608
vt 0.693541 0.041158
vt 0.693735 0.041132
vt 0.693684 0.041192
vt 0.636655 0.042067
vt 0.637049 0.042078
vt 0.636655 0.042107
vt 0.643767 0.043640
vt 0.643376 0.043679
vt 0.643374 0.043670
vt 0.674575 0.042774
vt 0.674968 0.042735
vt 0.674968 0.042802
vt 0.300384 0.918165
vt 0.300036 0.917862
vt 0.300384 0.917862
vt 0.692057 0.041673
vt 0.692113 0.042489
vt 0.692058 0.042577
vt 0.692081 0.043187
vt 0.689660 0.033995
vt 0.710440 0.036675
vt 0.706454 0.033445
vt 0.643814 0.043613
vt 0.643812 0.043600
vt 0.630857 0.027413
vt 0.668936 0.017685
vt 0.668908 0.027411
vt 0.692148 0.043047
vt 0.692148 0.043350
vt 0.692058 0.042968
vt 0.693150 0.043291
vt 0.693148 0.043278
vt 0.693237 0.042898
vt 0.712035 0.043187
vt 0.299855 0.916283
vt 0.300036 0.916488
vt 0.299855 0.916488
vt 0.299911 0.917304
vt 0.300036 0.917393
vt 0.299856 0.917393
vt 0.299856 0.917607
vt 0.300035 0.917783
vt 0.299856 0.917783
vt 0.301633 0.917242
vt 0.301480 0.917404
vt 0.301510 0.917229
vt 0.300036 0.916095
vt 0.300035 0.916283
vt 0.300035 0.917607
vt 0.299892 0.916030
vt 0.299855 0.916095
vt 0.301214 0.917278
vt 0.301329 0.917132
vt 0.301303 0.917287
vt 0.301482 0.917114
vt 0.301463 0.917293
vt 0.301461 0.917424
vt 0.301345 0.917260
vt 0.301345 0.917121
vt 0.300384 0.916030
vt 0.300036 0.916553
vt 0.299911 0.916553
vt 0.300036 0.917304
vt 0.300384 0.916554
vt 0.300384 0.917346
vt 0.299946 0.918165
vt 0.299946 0.917862
vt 0.693137 0.043213
vt 0.693236 0.042716
vt 0.693359 0.041159
vt 0.693516 0.041204
vt 0.693353 0.041204
vt 0.693393 0.041075
vt 0.299965 0.915898
vt 0.660336 0.042564
vt 0.660311 0.043017
vt 0.660311 0.042565
vt 0.637011 0.040698
vt 0.636648 0.041301
vt 0.636647 0.040694
vt 0.659342 0.043410
vt 0.659689 0.043433
vt 0.659343 0.043429
vt 0.637082 0.041972
vt 0.636652 0.041544
vt 0.637139 0.041547
vt 0.659706 0.043414
vt 0.659823 0.043602
vt 0.659834 0.043656
vt 0.693136 0.043265
vt 0.654581 0.044524
vt 0.654153 0.044473
vt 0.654582 0.044472
vt 0.693194 0.042788
vt 0.660017 0.042925
vt 0.659993 0.042578
vt 0.660017 0.042577
vt 0.988040 0.879959
vt 0.990739 0.997302
vt 0.988063 0.997302
vt 0.659993 0.042941
vt 0.968277 0.993852
vt 0.970475 0.881764
vt 0.970488 0.994096
vt 0.659796 0.043634
vt 0.659347 0.043652
vt 0.659346 0.043631
vt 0.929760 0.995404
vt 0.928554 0.886755
vt 0.930751 0.889909
vt 0.659822 0.043192
vt 0.659705 0.042806
vt 0.659822 0.042642
vt 0.659717 0.042819
vt 0.659718 0.043400
vt 0.659718 0.043174
vt 0.659717 0.043106
vt 0.659822 0.043124
vt 0.928191 0.886232
vt 0.926654 0.995404
vt 0.925614 0.882532
vt 0.659833 0.042586
vt 0.302833 0.984937
vt 0.307698 0.980072
vt 0.307698 0.984937
vt 0.236306 0.951208
vt 0.248159 0.939354
vt 0.248159 0.951208
vt 0.302347 0.984937
vt 0.297482 0.980072
vt 0.302347 0.980072
vt 0.297482 0.995640
vt 0.302347 0.990775
vt 0.302347 0.995640
vt 0.307698 0.990289
vt 0.302833 0.985424
vt 0.307698 0.985424
vt 0.637138 0.040478
vt 0.636650 0.039793
vt 0.715989 0.027164
vt 0.637462 0.040340
vt 0.725797 0.034450
vt 0.693572 0.041033
vt 0.637093 0.042038
vt 0.643769 0.043650
vt 0.674530 0.042735
vt 0.692113 0.041738
vt 0.629956 0.017685
vt 0.301659 0.917424
vt 0.301151 0.917114
vt 0.301324 0.917479
vt 0.660336 0.043051
vt 0.637011 0.041305
vt 0.636653 0.041973
vt 0.654154 0.044554
vt 0.991510 0.879959
vt 0.967601 0.881764
vt 0.928554 0.995404
vt 0.928191 0.995404
vt 0.302833 0.980072
vt 0.236306 0.939354
vt 0.297482 0.984937
vt 0.297482 0.990775
vt 0.302833 0.990289
vt 0.637084 0.039916
vt 0.637032 0.039819
vt 0.740503 0.027207
vt 0.742775 0.020104
vt 0.637486 0.039917
vt 0.637461 0.039964
vt 0.747164 0.044066
vt 0.747164 0.034450
vt 0.300009 0.915875
vt 0.300036 0.916030
vt 0.693236 0.041396
vt 0.693237 0.041216
vt 0.693139 0.041156
vt 0.693193 0.041718
vt 0.693237 0.041608
vt 0.693541 0.041158
vt 0.693684 0.041192
vt 0.693735 0.041132
vt 0.637049 0.042078
vt 0.643767 0.043640
vt 0.674575 0.042774
vt 0.300036 0.917862
vt 0.692057 0.041673
vt 0.692058 0.042577
vt 0.692113 0.042489
vt 0.692081 0.043187
vt 0.710440 0.036675
vt 0.689660 0.033995
vt 0.706454 0.033445
vt 0.643814 0.043613
vt 0.643812 0.043600
vt 0.630857 0.027413
vt 0.692148 0.043047
vt 0.692058 0.042968
vt 0.692148 0.043350
vt 0.693150 0.043291
vt 0.693237 0.042898
vt 0.693148 0.043278
vt 0.712035 0.043187
vt 0.299855 0.916283
vt 0.299855 0.916488
vt 0.300036 0.916488
vt 0.299911 0.917304
vt 0.299856 0.917393
vt 0.300036 0.917393
vt 0.299856 0.917607
vt 0.299856 0.917783
vt 0.300035 0.917783
vt 0.301633 0.917242
vt 0.301510 0.917229
vt 0.301480 0.917404
vt 0.300035 0.916283
vt 0.300036 0.916095
vt 0.300035 0.917607
vt 0.299892 0.916030
vt 0.299855 0.916095
vt 0.301214 0.917278
vt 0.301303 0.917287
vt 0.301329 0.917132
vt 0.301482 0.917114
vt 0.301463 0.917293
vt 0.301461 0.917424
vt 0.301345 0.917260
vt 0.301345 0.917121
vt 0.300036 0.916553
vt 0.299911 0.916553
vt 0.300036 0.917304
vt 0.299946 0.917862
vt 0.299946 0.918165
vt 0.693236 0.042716
vt 0.693137 0.043213
vt 0.693359 0.041159
vt 0.693353 0.041204
vt 0.693516 0.041204
vt 0.693393 0.041075
vt 0.299965 0.915898
vt 0.660311 0.043017
vt 0.637011 0.040698
vt 0.659689 0.043433
vt 0.637082 0.041972
vt 0.637139 0.041547
vt 0.659706 0.043414
vt 0.659834 0.043656
vt 0.659823 0.043602
vt 0.693136 0.043265
vt 0.654581 0.044524
vt 0.654582 0.044472
vt 0.693194 0.042788
vt 0.660017 0.042925
vt 0.990739 0.997302
vt 0.659993 0.042941
vt 0.968277 0.993852
vt 0.659796 0.043634
vt 0.929760 0.995404
vt 0.930751 0.889909
vt 0.928554 0.886755
vt 0.659822 0.043192
vt 0.659705 0.042806
vt 0.659717 0.042819
vt 0.659822 0.042642
vt 0.659718 0.043400
vt 0.659718 0.043174
vt 0.659822 0.043124
vt 0.659717 0.043106
vt 0.928191 0.886232
vt 0.925614 0.882532
vt 0.926654 0.995404
vt 0.659833 0.042586
vt 0.302833 0.984937
vt 0.307698 0.984937
vt 0.307698 0.980072
vt 0.236306 0.951208
vt 0.248159 0.951208
vt 0.248159 0.939354
vt 0.302347 0.984937
vt 0.302347 0.980072
vt 0.297482 0.980072
vt 0.297482 0.995640
vt 0.302347 0.995640
vt 0.302347 0.990775
vt 0.307698 0.990289
vt 0.307698 0.985424
vt 0.302833 0.985424
vt 0.637138 0.040478
vt 0.693572 0.041033
vt 0.637093 0.042038
vt 0.643769 0.043650
vt 0.674530 0.042735
vt 0.692113 0.041738
vt 0.629956 0.017685
vt 0.301659 0.917424
vt 0.301151 0.917114
vt 0.301324 0.917479
vt 0.660336 0.043051
vt 0.637011 0.041305
vt 0.991510 0.879959
vt 0.967601 0.881764
vt 0.928554 0.995404
vt 0.928191 0.995404
vt 0.302833 0.980072
vt 0.236306 0.939354
vt 0.297482 0.984937
vt 0.297482 0.990775
vt 0.302833 0.990289
vn 0.0016 0.9974 0.0721
vn -0.0000 0.9974 0.0722
vn 0.0000 0.9974 0.0717
vn -0.0000 0.9745 0.2242
vn 0.0084 0.9689 0.2473
vn 0.0072 0.9677 0.2520
vn 0.0607 0.3543 0.9331
vn -0.0000 0.3463 0.9381
vn 0.0594 0.3573 0.9321
vn -0.0000 0.7407 0.6718
vn 0.0458 0.6964 0.7162
vn 0.0458 0.6949 0.7176
vn -0.0000 -0.0000 1.0000
vn 0.0712 -0.0000 0.9975
vn -0.0000 -1.0000 -0.0000
vn 0.0000 -0.9997 0.0226
vn 0.8928 0.4395 0.0985
vn 0.8474 0.4119 0.3350
vn 0.8738 0.3876 0.2935
vn 0.9730 0.2305 0.0101
vn 0.9993 0.0298 -0.0231
vn 0.8131 0.3575 0.4594
vn 0.7626 0.4042 0.5049
vn 0.0000 0.8667 -0.4987
vn 0.0342 0.8505 -0.5249
vn 0.0000 0.8679 -0.4968
vn 0.4110 0.0000 -0.9116
vn -0.0000 0.0000 -1.0000
vn 0.0017 -0.8751 -0.4840
vn 0.0000 -0.9454 -0.3258
vn 0.0000 -0.9500 -0.3123
vn 0.0000 -0.9827 -0.1852
vn 0.0000 -0.9743 0.2251
vn 0.9663 -0.2576 -0.0015
vn 0.9967 -0.0807 -0.0017
vn 0.9743 0.2207 -0.0443
vn 0.6503 0.0000 -0.7596
vn 0.0648 0.0497 -0.9967
vn 0.0000 0.0455 -0.9990
vn 0.0000 0.0445 -0.9990
vn 0.9123 -0.4024 -0.0758
vn 0.9748 -0.1259 -0.1841
vn 0.9866 0.0996 -0.1290
vn 0.9737 0.0542 -0.2212
vn 0.9750 0.2028 -0.0911
vn -0.0000 -0.9998 -0.0175
vn 0.0000 -0.6863 0.7273
vn 0.0000 -0.7153 0.6988
vn 0.0000 -0.3847 -0.9230
vn 0.0000 -0.7164 -0.6977
vn 0.0000 -0.7406 -0.6720
vn 0.0000 -1.0000 -0.0098
vn 0.0000 -0.7287 0.6849
vn 0.0000 -0.7715 0.6363
vn 0.0000 -0.3163 0.9487
vn 0.0001 -0.6854 -0.7282
vn 0.0000 -0.9998 -0.0173
vn 0.0002 -0.3464 -0.9381
vn 0.0001 -0.7060 -0.7082
vn 0.0000 -0.8370 0.5473
vn 1.0000 -0.0000 0.0000
vn 0.0000 -0.9994 0.0339
vn 0.0024 -0.9998 -0.0196
vn 0.0000 -0.9994 -0.0353
vn 0.0029 -0.9977 -0.0670
vn 0.0000 -0.9976 -0.0690
vn 0.7326 0.4611 -0.5007
vn 0.6951 -0.0026 0.7189
vn 0.4496 -0.0020 0.8932
vn 0.4556 -0.0000 0.8902
vn 0.8736 -0.0078 0.4865
vn 0.7163 -0.0056 0.6977
vn 0.0000 0.6493 0.7606
vn 0.0106 0.6492 0.7605
vn 0.0000 1.0000 0.0000
vn -0.0000 0.6346 -0.7729
vn -0.0103 0.6323 -0.7746
vn 0.0000 0.6347 -0.7727
vn -0.0003 0.9989 -0.0459
vn 0.0000 0.9989 -0.0459
vn -0.0005 0.9989 -0.0460
vn 0.9097 0.4152 0.0003
vn 0.9121 0.4100 0.0035
vn 0.9122 0.4096 0.0031
vn 0.7298 0.4461 -0.5180
vn -0.0000 0.8115 -0.5844
vn -0.0000 0.6343 -0.7731
vn -0.0082 0.6326 -0.7744
vn 0.0000 0.6347 -0.7728
vn -0.0108 0.6318 -0.7750
vn -0.0081 0.6326 -0.7744
vn 0.9106 0.4133 0.0017
vn 0.9140 0.4058 0.0052
vn 0.9160 0.4011 0.0031
vn 0.9166 0.3997 0.0060
vn 0.9161 0.4010 0.0038
vn 0.9116 0.4111 0.0007
vn 0.9133 0.4072 0.0006
vn 0.9152 0.4030 0.0053
vn 0.9166 0.3998 0.0060
vn -1.0000 0.0000 0.0000
vn 0.0000 -0.1779 -0.9840
vn 0.0000 -0.9841 0.1777
vn 0.0000 0.9881 -0.1541
vn 0.0010 0.9974 0.0725
vn 0.0000 0.9758 0.2187
vn 0.0000 0.3428 0.9394
vn 0.0000 0.7429 0.6694
vn 0.0341 0.8497 -0.5262
vn 0.0000 -0.8679 -0.4968
vn 0.9648 -0.2630 -0.0000
vn 0.0646 0.0506 -0.9966
vn 0.0000 -0.3465 -0.9380
vn 0.8719 -0.0105 0.4895
vn 0.0000 0.9990 -0.0457
vn 0.0000 0.8251 -0.5649
vn -0.0016 0.9974 0.0721
vn -0.0072 0.9677 0.2520
vn -0.0084 0.9689 0.2473
vn -0.0607 0.3543 0.9331
vn -0.0594 0.3573 0.9321
vn -0.0458 0.6949 0.7176
vn -0.0458 0.6964 0.7162
vn -0.0712 -0.0000 0.9975
vn -0.8928 0.4395 0.0985
vn -0.8738 0.3876 0.2935
vn -0.8474 0.4119 0.3350
vn -0.9730 0.2305 0.0101
vn -0.9993 0.0298 -0.0231
vn -0.8131 0.3575 0.4594
vn -0.7626 0.4042 0.5049
vn -0.0342 0.8505 -0.5249
vn -0.4110 0.0000 -0.9116
vn -0.0017 -0.8751 -0.4840
vn -0.9967 -0.0807 -0.0017
vn -0.9663 -0.2576 -0.0015
vn -0.9743 0.2207 -0.0443
vn -0.6503 0.0000 -0.7596
vn -0.0648 0.0497 -0.9967
vn -0.9123 -0.4024 -0.0758
vn -0.9866 0.0996 -0.1290
vn -0.9748 -0.1259 -0.1841
vn -0.9737 0.0542 -0.2212
vn -0.9750 0.2028 -0.0911
vn -0.0001 -0.6854 -0.7282
vn -0.0002 -0.3464 -0.9381
vn -0.0001 -0.7060 -0.7082
vn -0.0024 -0.9998 -0.0196
vn -0.0029 -0.9977 -0.0670
vn -0.7326 0.4611 -0.5007
vn -0.6951 -0.0026 0.7189
vn -0.4556 -0.0000 0.8902
vn -0.4496 -0.0020 0.8932
vn -0.8736 -0.0078 0.4865
vn -0.7163 -0.0056 0.6977
vn -0.0106 0.6492 0.7605
vn 0.0103 0.6323 -0.7746
vn 0.0003 0.9989 -0.0459
vn 0.0005 0.9989 -0.0460
vn -0.9097 0.4152 0.0003
vn -0.9122 0.4096 0.0031
vn -0.9121 0.4100 0.0035
vn -0.7298 0.4461 -0.5180
vn 0.0082 0.6326 -0.7744
vn 0.0081 0.6326 -0.7744
vn 0.0108 0.6318 -0.7750
vn -0.9106 0.4133 0.0017
vn -0.9140 0.4058 0.0052
vn -0.9160 0.4011 0.0031
vn -0.9161 0.4010 0.0038
vn -0.9166 0.3997 0.0060
vn -0.9116 0.4111 0.0007
vn -0.9152 0.4030 0.0053
vn -0.9133 0.4072 0.0006
vn -0.9166 0.3998 0.0060
vn -0.0010 0.9974 0.0725
vn -0.0341 0.8497 -0.5262
vn -0.9648 -0.2630 -0.0000
vn -0.0646 0.0506 -0.9966
vn -0.8719 -0.0105 0.4895
s 1
f 81/161/49 139/162/50 137/163/51
f 137/163/52 83/164/53 81/161/54
f 83/165/55 143/166/56 84/167/57
f 143/168/58 85/169/59 84/170/60
f 145/171/61 86/172/62 85/173/62
f 86/174/63 147/175/63 101/176/64
f 90/177/65 81/178/66 88/179/67
f 82/180/68 90/177/65 89/181/69
f 84/182/70 81/183/66 83/184/71
f 154/185/72 92/186/73 156/187/74
f 92/188/75 158/189/76 156/190/76
f 93/191/77 160/192/78 158/193/79
f 160/194/80 104/195/81 162/196/80
f 89/197/69 100/198/82 98/199/83
f 82/200/68 89/201/69 97/202/84
f 97/202/84 89/201/69 98/203/83
f 94/204/85 92/188/75 91/205/85
f 115/206/86 154/207/87 191/208/88
f 95/209/89 94/210/90 96/211/91
f 94/212/90 91/213/92 96/214/91
f 82/200/68 97/202/84 114/215/93
f 90/216/94 108/217/95 89/218/96
f 100/219/97 107/220/98 98/221/99
f 97/222/100 105/223/101 96/224/102
f 99/225/103 108/226/95 109/227/103
f 90/216/94 102/228/104 103/229/105
f 97/222/100 107/220/98 106/230/100
f 87/231/106 102/228/104 88/232/107
f 95/233/108 105/234/101 104/235/81
f 101/236/109 108/226/109 102/237/109
f 103/238/109 102/237/109 108/226/109
f 107/239/109 104/235/109 105/234/109
f 106/240/109 107/239/109 105/234/109
f 101/176/64 147/175/63 149/241/110
f 109/242/64 100/219/63 99/243/63
f 110/244/111 179/245/110 180/246/112
f 104/195/81 94/247/80 95/248/108
f 101/176/64 179/245/110 109/242/64
f 104/195/113 180/246/112 162/196/114
f 96/214/91 116/249/115 97/250/84
f 111/251/116 85/252/117 86/253/118
f 87/254/119 84/182/120 111/251/116
f 101/176/64 87/231/63 111/255/63
f 111/255/63 86/174/63 101/176/64
f 139/256/121 118/257/122 194/258/121
f 112/259/123 184/260/123 182/261/123
f 184/262/124 119/263/125 196/264/126
f 116/265/127 186/266/128 114/267/129
f 113/268/130 123/269/131 114/270/132
f 96/214/91 91/213/92 115/271/133
f 115/272/133 190/273/134 116/274/115
f 114/275/93 97/250/84 116/249/115
f 117/276/122 182/277/121 192/278/121
f 194/279/121 117/280/122 192/281/121
f 118/257/122 112/282/122 117/276/122
f 119/283/125 198/284/135 196/285/126
f 120/286/136 186/287/137 198/288/135
f 120/286/136 113/268/138 114/270/139
f 122/289/140 127/290/141 123/291/131
f 123/269/131 127/292/141 114/270/132
f 112/293/142 124/294/143 121/295/144
f 122/296/140 113/268/130 126/297/145
f 127/292/141 125/298/146 128/299/147
f 128/300/147 121/301/144 124/302/143
f 113/268/130 125/298/146 126/297/145
f 125/298/146 112/293/142 121/295/144
f 114/270/132 128/299/147 82/303/148
f 82/303/148 128/299/147 124/294/143
f 130/304/149 131/305/149 129/306/149
f 132/307/150 135/308/150 131/309/150
f 135/310/109 134/311/109 133/312/109
f 135/313/151 129/314/151 131/315/151
f 132/316/152 134/317/152 136/318/152
f 81/161/49 82/319/153 139/162/50
f 137/163/52 141/320/154 83/164/53
f 83/165/55 141/321/155 143/166/56
f 143/168/58 145/322/156 85/169/59
f 145/171/61 147/323/61 86/172/62
f 82/180/68 81/178/66 90/177/65
f 84/182/70 88/324/67 81/183/66
f 154/185/72 91/325/157 92/186/73
f 92/188/75 93/326/75 158/189/76
f 93/191/77 94/327/158 160/192/78
f 89/197/69 99/328/159 100/198/82
f 94/204/85 93/326/75 92/188/75
f 115/206/86 91/329/160 154/207/87
f 90/216/94 103/229/105 108/217/95
f 100/219/97 110/244/97 107/220/98
f 97/222/100 106/230/100 105/223/101
f 99/225/103 89/330/96 108/226/95
f 90/216/94 88/232/107 102/228/104
f 97/222/100 98/221/99 107/220/98
f 87/231/106 101/176/161 102/228/104
f 95/233/108 96/331/102 105/234/101
f 101/236/109 109/227/109 108/226/109
f 107/239/109 110/332/109 104/235/109
f 109/242/64 110/244/111 100/219/63
f 110/244/111 109/242/64 179/245/110
f 104/195/81 160/194/80 94/247/80
f 101/176/64 149/241/110 179/245/110
f 104/195/113 110/244/111 180/246/112
f 96/214/91 115/271/133 116/249/115
f 111/251/116 84/182/120 85/252/117
f 87/254/119 88/324/162 84/182/120
f 139/256/121 82/333/122 118/257/122
f 112/259/123 113/334/123 184/260/123
f 184/262/124 113/268/138 119/263/125
f 116/265/127 190/335/163 186/266/128
f 113/268/130 122/296/140 123/269/131
f 115/272/133 191/336/164 190/273/134
f 117/276/122 112/282/122 182/277/121
f 194/279/121 118/337/122 117/280/122
f 118/257/122 82/333/122 112/282/122
f 119/283/125 120/338/136 198/284/135
f 120/286/136 114/270/139 186/287/137
f 120/286/136 119/263/125 113/268/138
f 122/289/140 126/339/145 127/290/141
f 112/293/142 82/303/148 124/294/143
f 127/292/141 126/297/145 125/298/146
f 128/300/147 125/340/146 121/301/144
f 113/268/130 112/293/142 125/298/146
f 114/270/132 127/292/141 128/299/147
f 130/304/149 132/341/149 131/305/149
f 132/307/150 136/342/150 135/308/150
f 135/310/109 136/343/109 134/311/109
f 135/313/151 133/344/151 129/314/151
f 132/316/152 130/345/152 134/317/152
f 138/346/165 137/163/51 139/162/50
f 137/163/52 138/346/166 142/347/167
f 142/348/168 144/349/169 143/166/56
f 143/168/58 144/350/170 146/351/171
f 145/171/61 146/352/172 148/353/172
f 148/354/63 169/355/64 147/175/63
f 153/356/173 151/357/174 138/358/175
f 140/359/176 152/360/177 153/356/173
f 144/361/178 142/362/179 138/363/175
f 154/185/72 156/187/74 157/364/180
f 157/365/181 156/190/76 158/189/76
f 159/366/182 158/193/79 160/192/78
f 160/194/80 162/196/80 172/367/81
f 152/368/177 166/369/183 168/370/184
f 140/371/176 165/372/185 152/373/177
f 165/372/185 166/374/183 152/373/177
f 161/375/186 155/376/186 157/365/181
f 188/377/187 191/208/88 154/207/87
f 163/378/188 164/379/189 161/380/190
f 161/381/190 164/382/189 155/383/191
f 140/371/176 187/384/192 165/372/185
f 153/385/94 152/386/96 176/387/95
f 168/388/97 166/389/99 175/390/98
f 165/391/100 164/392/102 173/393/101
f 167/394/103 177/395/103 176/396/95
f 153/385/94 171/397/105 170/398/193
f 165/391/100 174/399/100 175/390/98
f 150/400/194 151/401/195 170/398/193
f 163/402/108 172/403/81 173/404/101
f 169/405/149 170/406/149 176/396/149
f 171/407/149 176/396/149 170/406/149
f 175/408/149 173/404/149 172/403/149
f 174/409/149 173/404/149 175/408/149
f 169/355/64 149/241/110 147/175/63
f 177/410/64 167/411/63 168/388/63
f 178/412/196 180/246/112 179/245/110
f 172/367/81 163/413/108 161/414/80
f 169/355/64 177/410/64 179/245/110
f 172/367/197 162/196/114 180/246/112
f 164/382/189 165/415/185 189/416/198
f 181/417/199 148/418/200 146/419/201
f 150/420/202 181/417/199 144/361/203
f 169/355/64 181/421/63 150/400/63
f 181/421/63 169/355/64 148/354/63
f 139/256/121 194/258/121 195/422/204
f 183/423/123 182/261/123 184/260/123
f 184/262/124 196/264/126 197/424/205
f 189/425/206 187/426/207 186/266/128
f 185/427/208 187/428/209 202/429/210
f 164/382/189 188/430/211 155/383/191
f 188/431/211 189/432/198 190/273/134
f 187/433/192 189/416/198 165/415/185
f 193/434/204 192/278/121 182/277/121
f 194/279/121 192/281/121 193/435/204
f 195/422/204 193/434/204 183/436/204
f 197/437/205 196/285/126 198/284/135
f 199/438/212 198/288/135 186/287/137
f 199/438/212 187/428/213 185/427/214
f 201/439/215 202/440/210 206/441/216
f 202/429/210 187/428/209 206/442/216
f 183/443/217 200/444/218 203/445/219
f 201/446/215 205/447/220 185/427/208
f 206/442/216 207/448/221 204/449/222
f 207/450/221 203/451/219 200/452/218
f 185/427/208 205/447/220 204/449/222
f 204/449/222 200/444/218 183/443/217
f 187/428/209 140/453/223 207/448/221
f 140/453/223 203/445/219 207/448/221
f 209/454/109 208/455/109 210/456/109
f 211/457/150 210/458/150 214/459/150
f 214/460/149 212/461/149 213/462/149
f 214/463/151 210/464/151 208/465/151
f 211/466/152 215/467/152 213/468/152
f 138/346/165 139/162/50 140/469/224
f 137/163/52 142/347/167 141/320/154
f 142/348/168 143/166/56 141/321/155
f 143/168/58 146/351/171 145/322/156
f 145/171/61 148/353/172 147/323/61
f 140/359/176 153/356/173 138/358/175
f 144/361/178 138/363/175 151/470/174
f 154/185/72 157/364/180 155/471/225
f 157/365/181 158/189/76 159/472/181
f 159/366/182 160/192/78 161/473/158
f 152/368/177 168/370/184 167/474/226
f 161/375/186 157/365/181 159/472/181
f 188/377/187 154/207/87 155/475/227
f 153/385/94 176/387/95 171/397/105
f 168/388/97 175/390/98 178/412/97
f 165/391/100 173/393/101 174/399/100
f 167/394/103 176/396/95 152/476/96
f 153/385/94 170/398/193 151/401/195
f 165/391/100 175/390/98 166/389/99
f 150/400/194 170/398/193 169/355/161
f 163/402/108 173/404/101 164/477/102
f 169/405/149 176/396/149 177/395/149
f 175/408/149 172/403/149 178/478/149
f 177/410/64 168/388/63 178/412/196
f 178/412/196 179/245/110 177/410/64
f 172/367/81 161/414/80 160/194/80
f 169/355/64 179/245/110 149/241/110
f 172/367/197 180/246/112 178/412/196
f 164/382/189 189/416/198 188/430/211
f 181/417/199 146/419/201 144/361/203
f 150/420/202 144/361/203 151/470/228
f 139/256/121 195/422/204 140/479/204
f 183/423/123 184/260/123 185/480/123
f 184/262/124 197/424/205 185/427/214
f 189/425/206 186/266/128 190/335/163
f 185/427/208 202/429/210 201/446/215
f 188/431/211 190/273/134 191/336/164
f 193/434/204 182/277/121 183/436/204
f 194/279/121 193/435/204 195/481/204
f 195/422/204 183/436/204 140/479/204
f 197/437/205 198/284/135 199/482/212
f 199/438/212 186/287/137 187/428/213
f 199/438/212 185/427/214 197/424/205
f 201/439/215 206/441/216 205/483/220
f 183/443/217 203/445/219 140/453/223
f 206/442/216 204/449/222 205/447/220
f 207/450/221 200/452/218 204/484/222
f 185/427/208 204/449/222 183/443/217
f 187/428/209 207/448/221 206/442/216
f 209/454/109 210/456/109 211/485/109
f 211/457/150 214/459/150 215/486/150
f 214/460/149 213/462/149 215/487/149
f 214/463/151 208/465/151 212/488/151
f 211/466/152 213/468/152 209/489/152
