texture textures/cars.png
v 0.338277 0.345778 0.522146
v 0.460290 0.345778 0.522146
v 0.338277 0.279765 0.431286
v 0.460290 0.279765 0.431286
v 0.338277 0.172952 0.396581
v 0.460290 0.172952 0.396581
v 0.338277 0.066140 0.431286
v 0.460290 0.066140 0.431286
v 0.338277 0.000126 0.522146
v 0.460290 0.000126 0.522146
v 0.338277 0.000126 0.634455
v 0.460290 0.000126 0.634455
v 0.338277 0.066140 0.725315
v 0.460290 0.066140 0.725315
v 0.338277 0.172952 0.760021
v 0.460290 0.172952 0.760021
v 0.338277 0.279765 0.725315
v 0.460290 0.279765 0.725315
v 0.338277 0.345778 0.634455
v 0.460290 0.345778 0.634455
vt 0.612156 0.971647
vt 0.524372 0.959848
vt 0.524372 0.971647
vt 0.612156 0.959848
vt 0.524372 0.940757
vt 0.612156 0.940757
vt 0.524372 0.921665
vt 0.612156 0.921665
vt 0.524372 0.909866
vt 0.612156 0.909866
vt 0.524372 0.909866
vt 0.612156 0.909866
vt 0.524372 0.921665
vt 0.612156 0.921665
vt 0.524372 0.940757
vt 0.612156 0.940757
vt 0.524372 0.959848
vt 0.612156 0.959848
vt 0.524372 0.971647
vt 0.612156 0.971647
vt 0.512421 0.891662
vt 0.519896 0.891662
vt 0.518469 0.897068
vt 0.250082 0.022727
vt 0.383670 0.433867
vt 0.033933 0.179769
vt 0.516159 0.897992
vt 0.513849 0.897068
vt 0.512421 0.894650
vt 0.513849 0.889244
vt 0.516159 0.888320
vt 0.518469 0.889244
vt 0.519896 0.894650
vt 0.116495 0.433868
vt 0.033933 0.320231
vt 0.116495 0.066133
vt 0.383670 0.066133
vt 0.466232 0.179769
vt 0.466232 0.320231
vt 0.250082 0.477273
vn 0.0000 0.9511 -0.3090
vn 0.0000 0.5878 -0.8090
vn 0.0000 0.0000 -1.0000
vn 0.0000 -0.5878 -0.8090
vn 0.0000 -0.9511 -0.3090
vn 0.0000 -0.9511 0.3090
vn 0.0000 -0.5878 0.8090
vn -0.0000 -0.0000 1.0000
vn 0.0000 0.5878 0.8090
vn 0.0000 0.9511 0.3090
vn -1.0000 0.0000 0.0000
vn 1.0000 -0.0000 -0.0000
s 1
f 2/1/1 3/2/2 1/3/1
f 4/4/2 5/5/3 3/2/2
f 6/6/3 7/7/4 5/5/3
f 8/8/4 9/9/5 7/7/4
f 10/10/5 11/11/6 9/9/5
f 12/12/6 13/13/7 11/11/6
f 14/14/7 15/15/8 13/13/7
f 16/16/8 17/17/9 15/15/8
f 18/18/9 19/19/10 17/17/9
f 20/20/10 1/3/1 19/19/10
f 7/21/11 15/22/11 19/23/11
f 18/24/12 10/25/12 2/26/12
f 2/1/1 4/4/2 3/2/2
f 4/4/2 6/6/3 5/5/3
f 6/6/3 8/8/4 7/7/4
f 8/8/4 10/10/5 9/9/5
f 10/10/5 12/12/6 11/11/6
f 12/12/6 14/14/7 13/13/7
f 14/14/7 16/16/8 15/15/8
f 16/16/8 18/18/9 17/17/9
f 18/18/9 20/20/10 19/19/10
f 20/20/10 2/1/1 1/3/1
f 19/23/11 1/27/11 3/28/11
f 3/28/11 5/29/11 19/23/11
f 7/21/11 9/30/11 11/31/11
f 11/31/11 13/32/11 15/22/11
f 15/22/11 17/33/11 19/23/11
f 19/23/11 5/29/11 7/21/11
f 7/21/11 11/31/11 15/22/11
f 6/34/12 4/35/12 2/26/12
f 2/26/12 20/36/12 18/24/12
f 18/24/12 16/37/12 14/38/12
f 14/38/12 12/39/12 18/24/12
f 10/25/12 8/40/12 6/34/12
f 6/34/12 2/26/12 10/25/12
f 18/24/12 12/39/12 10/25/12
o RLW_Cylinder.005
v 0.338277 0.345778 -0.606561
v 0.460290 0.345778 -0.606561
v 0.338277 0.279765 -0.697421
v 0.460290 0.279765 -0.697421
v 0.338277 0.172952 -0.732126
v 0.460290 0.172952 -0.732126
v 0.338277 0.066140 -0.697421
v 0.460290 0.066140 -0.697421
v 0.338277 0.000126 -0.606561
v 0.460290 0.000126 -0.606561
v 0.338277 0.000126 -0.494252
v 0.460290 0.000126 -0.494252
v 0.338277 0.066140 -0.403391
v 0.460290 0.066140 -0.403391
v 0.338277 0.172952 -0.368686
v 0.460290 0.172952 -0.368686
v 0.338277 0.279765 -0.403391
v 0.460290 0.279765 -0.403391
v 0.338277 0.345778 -0.494252
v 0.460290 0.345778 -0.494252
vt 0.612156 0.971647
vt 0.524372 0.959848
vt 0.524372 0.971647
vt 0.612156 0.940757
vt 0.524372 0.940757
vt 0.524372 0.921665
vt 0.612156 0.909866
vt 0.524372 0.909866
vt 0.612156 0.909866
vt 0.524372 0.909866
vt 0.612156 0.921665
vt 0.524372 0.921665
vt 0.524372 0.940757
vt 0.612156 0.959848
vt 0.524372 0.959848
vt 0.524372 0.971647
vt 0.612156 0.971647
vt 0.512421 0.891662
vt 0.519896 0.891662
vt 0.513849 0.897068
vt 0.250082 0.022727
vt 0.250082 0.477273
vt 0.116495 0.433868
vt 0.612156 0.959848
vt 0.612156 0.921665
vt 0.612156 0.940757
vt 0.518469 0.897068
vt 0.516159 0.897992
vt 0.512421 0.894650
vt 0.513849 0.889244
vt 0.516159 0.888320
vt 0.518469 0.889244
vt 0.519896 0.894650
vt 0.033933 0.320231
vt 0.033933 0.179769
vt 0.116495 0.066133
vt 0.383670 0.066133
vt 0.466232 0.179769
vt 0.466232 0.320231
vt 0.383670 0.433867
vn 0.0000 0.9511 -0.3090
vn 0.0000 0.5878 -0.8090
vn 0.0000 0.0000 -1.0000
vn 0.0000 -0.5878 -0.8090
vn 0.0000 -0.9511 -0.3090
vn 0.0000 -0.9511 0.3090
vn -0.0000 -0.5878 0.8090
vn -0.0000 -0.0000 1.0000
vn 0.0000 0.5878 0.8090
vn 0.0000 0.9511 0.3090
vn -1.0000 -0.0000 0.0000
vn 1.0000 -0.0000 -0.0000
s 1
f 22/41/13 23/42/14 21/43/13
f 23/42/14 26/44/15 25/45/15
f 26/44/15 27/46/16 25/45/15
f 27/46/16 30/47/17 29/48/17
f 29/48/17 32/49/18 31/50/18
f 31/50/18 34/51/19 33/52/19
f 34/51/19 35/53/20 33/52/19
f 35/53/20 38/54/21 37/55/21
f 38/54/21 39/56/22 37/55/21
f 40/57/22 21/43/13 39/56/22
f 27/58/23 35/59/23 23/60/23
f 38/61/24 28/62/24 26/63/24
f 22/41/13 24/64/14 23/42/14
f 23/42/14 24/64/14 26/44/15
f 26/44/15 28/65/16 27/46/16
f 27/46/16 28/65/16 30/47/17
f 29/48/17 30/47/17 32/49/18
f 31/50/18 32/49/18 34/51/19
f 34/51/19 36/66/20 35/53/20
f 35/53/20 36/66/20 38/54/21
f 38/54/21 40/57/22 39/56/22
f 40/57/22 22/41/13 21/43/13
f 39/67/23 21/68/23 23/60/23
f 23/60/23 25/69/23 27/58/23
f 27/58/23 29/70/23 31/71/23
f 31/71/23 33/72/23 35/59/23
f 35/59/23 37/73/23 39/67/23
f 39/67/23 23/60/23 35/59/23
f 27/58/23 31/71/23 35/59/23
f 26/63/24 24/74/24 22/75/24
f 22/75/24 40/76/24 38/61/24
f 38/61/24 36/77/24 34/78/24
f 34/78/24 32/79/24 38/61/24
f 30/80/24 28/62/24 38/61/24
f 26/63/24 22/75/24 38/61/24
f 38/61/24 32/79/24 30/80/24
o RRW_Cylinder.006
v -0.338277 0.345778 -0.494251
v -0.460290 0.345778 -0.494251
v -0.338277 0.279765 -0.403391
v -0.460290 0.279765 -0.403391
v -0.338277 0.172952 -0.368686
v -0.460290 0.172952 -0.368686
v -0.338277 0.066140 -0.403391
v -0.460290 0.066140 -0.403391
v -0.338277 0.000126 -0.494252
v -0.460290 0.000126 -0.494252
v -0.338277 0.000126 -0.606561
v -0.460290 0.000126 -0.606561
v -0.338277 0.066140 -0.697421
v -0.460290 0.066140 -0.697421
v -0.338277 0.172952 -0.732126
v -0.460290 0.172952 -0.732126
v -0.338277 0.279765 -0.697421
v -0.460290 0.279765 -0.697421
v -0.338277 0.345779 -0.606561
v -0.460290 0.345779 -0.606561
vt 0.612156 0.971647
vt 0.524372 0.959848
vt 0.524372 0.971647
vt 0.612156 0.940757
vt 0.524372 0.940757
vt 0.524372 0.921665
vt 0.612156 0.921665
vt 0.524372 0.909866
vt 0.612156 0.909866
vt 0.524372 0.909866
vt 0.612156 0.909866
vt 0.524372 0.921665
vt 0.612156 0.921665
vt 0.524372 0.940757
vt 0.612156 0.940757
vt 0.524372 0.959848
vt 0.612156 0.959848
vt 0.524372 0.971647
vt 0.612156 0.971647
vt 0.512421 0.891662
vt 0.519896 0.891662
vt 0.513849 0.897068
vt 0.250082 0.022727
vt 0.383670 0.433867
vt 0.033933 0.179769
vt 0.612156 0.959848
vt 0.518469 0.897068
vt 0.516159 0.897992
vt 0.512421 0.894650
vt 0.513849 0.889244
vt 0.516159 0.888320
vt 0.518469 0.889244
vt 0.519896 0.894650
vt 0.116495 0.433868
vt 0.033933 0.320231
vt 0.116495 0.066133
vt 0.383670 0.066133
vt 0.466232 0.179769
vt 0.466232 0.320231
vt 0.250082 0.477273
vn 0.0000 0.9511 0.3090
vn 0.0000 0.5878 0.8090
vn 0.0000 -0.0000 1.0000
vn 0.0000 -0.5878 0.8090
vn 0.0000 -0.9511 0.3090
vn 0.0000 -0.9511 -0.3090
vn 0.0000 -0.5878 -0.8090
vn 0.0000 0.0000 -1.0000
vn 0.0000 0.5878 -0.8090
vn 0.0000 0.9511 -0.3090
vn 1.0000 0.0000 -0.0000
vn -1.0000 -0.0000 0.0000
s 1
f 42/81/25 43/82/26 41/83/25
f 43/82/26 46/84/27 45/85/27
f 46/84/27 47/86/28 45/85/27
f 48/87/28 49/88/29 47/86/28
f 50/89/29 51/90/30 49/88/29
f 52/91/30 53/92/31 51/90/30
f 54/93/31 55/94/32 53/92/31
f 56/95/32 57/96/33 55/94/32
f 58/97/33 59/98/34 57/96/33
f 60/99/34 41/83/25 59/98/34
f 47/100/35 55/101/35 43/102/35
f 58/103/36 50/104/36 42/105/36
f 42/81/25 44/106/26 43/82/26
f 43/82/26 44/106/26 46/84/27
f 46/84/27 48/87/28 47/86/28
f 48/87/28 50/89/29 49/88/29
f 50/89/29 52/91/30 51/90/30
f 52/91/30 54/93/31 53/92/31
f 54/93/31 56/95/32 55/94/32
f 56/95/32 58/97/33 57/96/33
f 58/97/33 60/99/34 59/98/34
f 60/99/34 42/81/25 41/83/25
f 59/107/35 41/108/35 43/102/35
f 43/102/35 45/109/35 47/100/35
f 47/100/35 49/110/35 55/101/35
f 51/111/35 53/112/35 55/101/35
f 55/101/35 57/113/35 59/107/35
f 59/107/35 43/102/35 55/101/35
f 49/110/35 51/111/35 55/101/35
f 46/114/36 44/115/36 42/105/36
f 42/105/36 60/116/36 58/103/36
f 58/103/36 56/117/36 54/118/36
f 54/118/36 52/119/36 58/103/36
f 50/104/36 48/120/36 46/114/36
f 46/114/36 42/105/36 50/104/36
f 58/103/36 52/119/36 50/104/36
o FRW_Cylinder.007
v -0.338277 0.345778 0.634455
v -0.460290 0.345778 0.634455
v -0.338277 0.279765 0.725315
v -0.460290 0.279765 0.725315
v -0.338277 0.172952 0.760021
v -0.460290 0.172952 0.760021
v -0.338277 0.066140 0.725315
v -0.460290 0.066140 0.725315
v -0.338277 0.000126 0.634455
v -0.460290 0.000126 0.634455
v -0.338277 0.000126 0.522146
v -0.460290 0.000126 0.522146
v -0.338277 0.066140 0.431286
v -0.460290 0.066140 0.431286
v -0.338277 0.172952 0.396581
v -0.460290 0.172952 0.396581
v -0.338277 0.279765 0.431286
v -0.460290 0.279765 0.431286
v -0.338277 0.345778 0.522146
v -0.460290 0.345778 0.522146
vt 0.612156 0.971647
vt 0.524372 0.959848
vt 0.524372 0.971647
vt 0.612156 0.959848
vt 0.524372 0.940757
vt 0.612156 0.940757
vt 0.524372 0.921665
vt 0.612156 0.921665
vt 0.524372 0.909866
vt 0.612156 0.909866
vt 0.524372 0.909866
vt 0.612156 0.909866
vt 0.524372 0.921665
vt 0.612156 0.921665
vt 0.524372 0.940757
vt 0.612156 0.940757
vt 0.524372 0.959848
vt 0.612156 0.959848
vt 0.524372 0.971647
vt 0.612156 0.971647
vt 0.512421 0.891662
vt 0.519896 0.891662
vt 0.518469 0.897068
vt 0.250082 0.022727
vt 0.383670 0.433867
vt 0.033933 0.179769
vt 0.516159 0.897992
vt 0.513849 0.897068
vt 0.512421 0.894650
vt 0.513849 0.889244
vt 0.516159 0.888320
vt 0.518469 0.889244
vt 0.519896 0.894650
vt 0.116495 0.433868
vt 0.033933 0.320231
vt 0.116495 0.066133
vt 0.383670 0.066133
vt 0.466232 0.179769
vt 0.466232 0.320231
vt 0.250082 0.477273
vn 0.0000 0.9511 0.3090
vn 0.0000 0.5878 0.8090
vn 0.0000 -0.0000 1.0000
vn 0.0000 -0.5878 0.8090
vn 0.0000 -0.9511 0.3090
vn 0.0000 -0.9511 -0.3090
vn 0.0000 -0.5878 -0.8090
vn 0.0000 0.0000 -1.0000
vn 0.0000 0.5878 -0.8090
vn 0.0000 0.9511 -0.3090
vn 1.0000 0.0000 -0.0000
vn -1.0000 -0.0000 0.0000
s 1
f 62/121/37 63/122/38 61/123/37
f 64/124/38 65/125/39 63/122/38
f 66/126/39 67/127/40 65/125/39
f 68/128/40 69/129/41 67/127/40
f 70/130/41 71/131/42 69/129/41
f 72/132/42 73/133/43 71/131/42
f 74/134/43 75/135/44 73/133/43
f 76/136/44 77/137/45 75/135/44
f 78/138/45 79/139/46 77/137/45
f 80/140/46 61/123/37 79/139/46
f 67/141/47 75/142/47 79/143/47
f 78/144/48 70/145/48 62/146/48
f 62/121/37 64/124/38 63/122/38
f 64/124/38 66/126/39 65/125/39
f 66/126/39 68/128/40 67/127/40
f 68/128/40 70/130/41 69/129/41
f 70/130/41 72/132/42 71/131/42
f 72/132/42 74/134/43 73/133/43
f 74/134/43 76/136/44 75/135/44
f 76/136/44 78/138/45 77/137/45
f 78/138/45 80/140/46 79/139/46
f 80/140/46 62/121/37 61/123/37
f 79/143/47 61/147/47 67/141/47
f 63/148/47 65/149/47 67/141/47
f 67/141/47 69/150/47 75/142/47
f 71/151/47 73/152/47 75/142/47
f 75/142/47 77/153/47 79/143/47
f 61/147/47 63/148/47 67/141/47
f 69/150/47 71/151/47 75/142/47
f 66/154/48 64/155/48 62/146/48
f 62/146/48 80/156/48 78/144/48
f 78/144/48 76/157/48 74/158/48
f 74/158/48 72/159/48 78/144/48
f 70/145/48 68/160/48 66/154/48
f 66/154/48 62/146/48 70/145/48
f 78/144/48 72/159/48 70/145/48
o Body_Plane.001
v 0.302404 0.561874 0.792512
v 0.377482 0.615501 0.267831
v 0.328788 0.518538 0.867635
v 0.362094 0.333478 0.909775
v 0.323408 0.316022 0.929145
v 0.323408 0.154988 0.929145
v 0.424116 0.154988 0.795790
v 0.373943 0.522280 0.781811
v 0.420000 0.546882 0.261999
v 0.447131 0.333479 0.755128
v 0.455635 0.387019 0.259982
v 0.455842 0.387019 0.580541
v 0.292313 0.883428 0.067330
v 0.292313 0.883428 -0.689992
v 0.377482 0.615501 -0.892095
v 0.377482 0.372770 -0.931622
v 0.338950 0.353886 -0.974406
v 0.338950 0.254744 -0.974406
v 0.377482 0.235860 -0.931622
v 0.377482 0.154988 -0.783680
v 0.454494 0.331473 -0.713383
v 0.454494 0.387019 -0.560701
v 0.454494 0.316023 -0.376797
v 0.455842 0.316022 0.402715
v 0.407700 0.124277 0.343829
v 0.420000 0.546882 -0.830660
v 0.407700 0.124277 -0.303183
v 0.395812 0.538140 -0.925633
v 0.300068 0.154988 0.795790
v 0.300068 0.316022 0.741890
v 0.300068 0.387019 0.580541
v 0.300068 0.154988 -0.783680
v 0.300068 0.331473 -0.713383
v 0.300068 0.387019 -0.560701
v 0.300068 0.316023 -0.376797
v 0.300068 0.316022 0.402715
v 0.300068 0.124277 0.343829
v 0.300068 0.124277 -0.303183
v 0.277426 0.861563 0.083693
v 0.349416 0.635873 0.252586
v 0.279288 0.863509 -0.705018
v 0.345444 0.637819 -0.875261
v 0.299882 0.859617 0.057022
v 0.370388 0.637819 0.221425
v 0.370388 0.637819 -0.848659
v 0.300501 0.857672 -0.677442
v 0.370388 0.637819 -0.218299
v 0.300114 0.858888 -0.218299
v 0.370388 0.637819 -0.274716
v 0.300162 0.858739 -0.274716
v 0.208868 0.161968 -0.776071
v 0.208868 0.229609 -0.776070
v 0.208868 0.161968 -0.944345
v 0.208868 0.229609 -0.944345
v 0.276509 0.161968 -0.776071
v 0.276509 0.229609 -0.776070
v 0.276509 0.161968 -0.944345
v 0.276509 0.229609 -0.944345
v 0.448818 0.382293 -0.742441
v 0.361258 0.154988 0.909775
v 0.000000 0.561874 0.792512
v -0.302404 0.561874 0.792512
v 0.000000 0.615501 0.267831
v -0.377482 0.615501 0.267831
v 0.000000 0.518538 0.867635
v -0.328788 0.518538 0.867635
v 0.000000 0.333478 0.909775
v -0.362094 0.333478 0.909775
v 0.000000 0.316022 0.929145
v -0.323408 0.316022 0.929145
v 0.000000 0.154988 0.929145
v -0.323408 0.154988 0.929145
v 0.000000 0.154988 0.795790
v -0.424116 0.154988 0.795790
v -0.373943 0.522280 0.781811
v -0.420000 0.546882 0.261999
v -0.447131 0.333479 0.755128
v -0.455635 0.387019 0.259982
v -0.455842 0.387019 0.580541
v 0.000000 0.883428 0.067330
v -0.292313 0.883428 0.067330
v 0.000000 0.883428 -0.689992
v -0.292313 0.883428 -0.689992
v 0.000000 0.615501 -0.892097
v -0.377482 0.615501 -0.892095
v 0.000000 0.372770 -0.931624
v -0.377482 0.372770 -0.931622
v 0.000000 0.353886 -0.974408
v -0.338950 0.353886 -0.974406
v 0.000000 0.254744 -0.974408
v -0.338950 0.254744 -0.974406
v 0.000000 0.235860 -0.931624
v -0.377482 0.235860 -0.931622
v 0.000000 0.154988 -0.783683
v -0.377482 0.154988 -0.783680
v -0.454494 0.331473 -0.713383
v -0.454494 0.387019 -0.560701
v -0.454494 0.316023 -0.376797
v -0.455842 0.316022 0.402715
v -0.407700 0.124277 0.343829
v -0.420000 0.546882 -0.830660
v -0.407700 0.124277 -0.303183
v 0.000000 0.538140 -0.925635
v -0.395812 0.538140 -0.925633
v -0.300068 0.154988 0.795790
v -0.300068 0.316022 0.741890
v -0.300068 0.387019 0.580541
v -0.300068 0.154988 -0.783680
v -0.300068 0.331473 -0.713383
v -0.300068 0.387019 -0.560701
v -0.300068 0.316023 -0.376797
v -0.300068 0.316022 0.402715
v -0.300068 0.124277 0.343829
v -0.300068 0.124277 -0.303183
v 0.000000 0.124277 0.343829
v 0.000000 0.124277 -0.339501
v 0.000000 0.861563 0.083693
v -0.277426 0.861563 0.083693
v 0.000000 0.635873 0.252586
v -0.349416 0.635873 0.252586
v 0.000000 0.863509 -0.705018
v -0.279288 0.863509 -0.705018
v 0.000000 0.637819 -0.875263
v -0.345444 0.637819 -0.875261
v -0.299882 0.859617 0.057022
v -0.370388 0.637819 0.221425
v -0.370388 0.637819 -0.848659
v -0.300501 0.857672 -0.677442
v -0.370388 0.637819 -0.218299
v -0.300114 0.858888 -0.218299
v -0.370388 0.637819 -0.274716
v -0.300162 0.858739 -0.274716
v -0.208868 0.161968 -0.776071
v -0.208868 0.229609 -0.776070
v -0.208868 0.161968 -0.944345
v -0.208868 0.229609 -0.944345
v -0.276509 0.161968 -0.776071
v -0.276509 0.229609 -0.776070
v -0.276509 0.161968 -0.944345
v -0.276509 0.229609 -0.944345
v -0.448818 0.382293 -0.742441
v -0.361258 0.154988 0.909775
vt 0.756687 0.491765
vt 0.756386 0.492394
vt 0.756394 0.491752
vt 0.768731 0.491765
vt 0.768458 0.491646
vt 0.768852 0.491663
vt 0.868122 0.473133
vt 0.845592 0.457442
vt 0.868122 0.457442
vt 0.756468 0.491553
vt 0.756893 0.491525
vt 0.756862 0.491571
vt 0.843629 0.497034
vt 0.862604 0.487717
vt 0.863912 0.497034
vt 0.298181 0.918244
vt 0.297748 0.918244
vt 0.298118 0.918059
vt 0.768495 0.496631
vt 0.768466 0.495968
vt 0.768544 0.496624
vt 0.768344 0.495981
vt 0.768465 0.495880
vt 0.787391 0.497563
vt 0.787567 0.497818
vt 0.787323 0.497838
vt 0.787583 0.497149
vt 0.787390 0.497149
vt 0.787323 0.497981
vt 0.787562 0.497926
vt 0.793908 0.496122
vt 0.794321 0.496164
vt 0.793902 0.496145
vt 0.825633 0.485650
vt 0.813518 0.498884
vt 0.813518 0.485650
vt 0.799455 0.497341
vt 0.799795 0.497370
vt 0.799461 0.497355
vt 0.784947 0.476317
vt 0.757753 0.461315
vt 0.784947 0.461315
vt 0.791875 0.491489
vt 0.791639 0.491881
vt 0.791827 0.491470
vt 0.808289 0.491470
vt 0.807824 0.491484
vt 0.807824 0.491470
vt 0.808289 0.491484
vt 0.807824 0.491537
vt 0.365466 0.921466
vt 0.365836 0.921631
vt 0.365466 0.921631
vt 0.794616 0.497334
vt 0.794366 0.496421
vt 0.794614 0.496327
vt 0.787388 0.496090
vt 0.767364 0.495226
vt 0.786050 0.491222
vt 0.787095 0.495226
vt 0.787331 0.497264
vt 0.787297 0.496327
vt 0.794360 0.496142
vt 0.794345 0.496804
vt 0.794345 0.496736
vt 0.808574 0.491949
vt 0.808513 0.491881
vt 0.808561 0.491901
vt 0.787382 0.495855
vt 0.787580 0.495740
vt 0.787088 0.495798
vt 0.787192 0.495633
vt 0.787316 0.495893
vt 0.787369 0.495633
vt 0.792245 0.498036
vt 0.791816 0.498038
vt 0.791793 0.498015
vt 0.768495 0.498036
vt 0.768544 0.497947
vt 0.768517 0.498059
vt 0.787583 0.495614
vt 0.298310 0.917771
vt 0.298118 0.917560
vt 0.298310 0.917560
vt 0.298309 0.916668
vt 0.298118 0.916598
vt 0.298309 0.916598
vt 0.298309 0.916371
vt 0.298118 0.916187
vt 0.298309 0.916187
vt 0.298309 0.917508
vt 0.298118 0.917508
vt 0.298301 0.917976
vt 0.298118 0.917771
vt 0.298118 0.916371
vt 0.298271 0.918059
vt 0.298118 0.917976
vt 0.298214 0.916119
vt 0.298118 0.916119
vt 0.298858 0.916634
vt 0.298802 0.917145
vt 0.298809 0.916734
vt 0.275162 0.907496
vt 0.275187 0.907285
vt 0.275180 0.907696
vt 0.298792 0.917396
vt 0.298851 0.917847
vt 0.298799 0.917801
vt 0.275162 0.908176
vt 0.275170 0.907947
vt 0.275176 0.908352
vt 0.297748 0.918059
vt 0.298118 0.916668
vt 0.297748 0.917508
vt 0.297748 0.916668
vt 0.365932 0.921466
vt 0.365932 0.921631
vt 0.297748 0.916119
vt 0.794168 0.496414
vt 0.793830 0.496424
vt 0.793836 0.496399
vt 0.986855 0.881189
vt 0.988321 0.995230
vt 0.986855 0.995230
vt 0.967750 0.995636
vt 0.969965 0.880959
vt 0.969965 0.995636
vt 0.799940 0.497530
vt 0.799533 0.497527
vt 0.799527 0.497511
vt 0.799805 0.497357
vt 0.799985 0.497547
vt 0.926882 0.880459
vt 0.923775 0.995141
vt 0.921920 0.880459
vt 0.794196 0.496448
vt 0.794196 0.496781
vt 0.794180 0.496440
vt 0.794345 0.496203
vt 0.794180 0.497357
vt 0.794345 0.497499
vt 0.794360 0.497547
vt 0.794196 0.496849
vt 0.927519 0.880459
vt 0.932064 0.994135
vt 0.927519 0.994686
vt 0.794197 0.497337
vt 0.302833 0.984937
vt 0.307698 0.980072
vt 0.307698 0.984937
vt 0.236306 0.951208
vt 0.248159 0.939354
vt 0.248159 0.951208
vt 0.297482 0.984937
vt 0.302347 0.980072
vt 0.302347 0.984937
vt 0.297482 0.995640
vt 0.302347 0.990775
vt 0.302347 0.995640
vt 0.307698 0.990289
vt 0.302833 0.985424
vt 0.307698 0.985424
vt 0.787299 0.497334
vt 0.768997 0.491516
vt 0.768937 0.491525
vt 0.768985 0.491489
vt 0.769073 0.491675
vt 0.768963 0.491581
vt 0.298194 0.918217
vt 0.756838 0.492414
vt 0.768438 0.491752
vt 0.845592 0.473133
vt 0.756474 0.491506
vt 0.843629 0.487717
vt 0.825633 0.498884
vt 0.757753 0.476317
vt 0.791687 0.491901
vt 0.808289 0.491537
vt 0.794368 0.497256
vt 0.767463 0.491222
vt 0.808526 0.491930
vt 0.792268 0.498059
vt 0.298858 0.917174
vt 0.298851 0.917302
vt 0.988702 0.881189
vt 0.967225 0.880959
vt 0.926882 0.994764
vt 0.933996 0.880459
vt 0.302833 0.980072
vt 0.236306 0.939354
vt 0.297482 0.980072
vt 0.297482 0.990775
vt 0.302833 0.990289
vt 0.769054 0.491777
vt 0.756687 0.491765
vt 0.768731 0.491765
vt 0.768852 0.491663
vt 0.868122 0.473133
vt 0.868122 0.457442
vt 0.756862 0.491571
vt 0.756893 0.491525
vt 0.863912 0.497034
vt 0.862604 0.487717
vt 0.298181 0.918244
vt 0.298118 0.918059
vt 0.768495 0.496631
vt 0.768544 0.496624
vt 0.768466 0.495968
vt 0.768344 0.495981
vt 0.768465 0.495880
vt 0.787391 0.497563
vt 0.787323 0.497838
vt 0.787567 0.497818
vt 0.787583 0.497149
vt 0.787390 0.497149
vt 0.787323 0.497981
vt 0.787562 0.497926
vt 0.794321 0.496164
vt 0.825633 0.485650
vt 0.799795 0.497370
vt 0.757753 0.461315
vt 0.791639 0.491881
vt 0.808289 0.491470
vt 0.808289 0.491484
vt 0.365836 0.921631
vt 0.794616 0.497334
vt 0.794614 0.496327
vt 0.794366 0.496421
vt 0.787388 0.496090
vt 0.767364 0.495226
vt 0.787095 0.495226
vt 0.786050 0.491222
vt 0.787297 0.496327
vt 0.787331 0.497264
vt 0.794360 0.496142
vt 0.794345 0.496736
vt 0.794345 0.496804
vt 0.808574 0.491949
vt 0.808561 0.491901
vt 0.808513 0.491881
vt 0.787580 0.495740
vt 0.787382 0.495855
vt 0.787088 0.495798
vt 0.787316 0.495893
vt 0.787192 0.495633
vt 0.787369 0.495633
vt 0.792245 0.498036
vt 0.768495 0.498036
vt 0.768517 0.498059
vt 0.768544 0.497947
vt 0.787583 0.495614
vt 0.298310 0.917771
vt 0.298310 0.917560
vt 0.298118 0.917560
vt 0.298309 0.916668
vt 0.298309 0.916598
vt 0.298118 0.916598
vt 0.298309 0.916371
vt 0.298309 0.916187
vt 0.298118 0.916187
vt 0.298309 0.917508
vt 0.298118 0.917508
vt 0.298301 0.917976
vt 0.298118 0.917771
vt 0.298118 0.916371
vt 0.298271 0.918059
vt 0.298118 0.917976
vt 0.298214 0.916119
vt 0.298118 0.916119
vt 0.298858 0.916634
vt 0.298809 0.916734
vt 0.298802 0.917145
vt 0.275162 0.907496
vt 0.275180 0.907696
vt 0.275187 0.907285
vt 0.298792 0.917396
vt 0.298799 0.917801
vt 0.298851 0.917847
vt 0.275162 0.908176
vt 0.275176 0.908352
vt 0.275170 0.907947
vt 0.298118 0.916668
vt 0.365932 0.921631
vt 0.365932 0.921466
vt 0.794168 0.496414
vt 0.988321 0.995230
vt 0.967750 0.995636
vt 0.799940 0.497530
vt 0.799985 0.497547
vt 0.799805 0.497357
vt 0.926882 0.880459
vt 0.921920 0.880459
vt 0.923775 0.995141
vt 0.794196 0.496448
vt 0.794180 0.496440
vt 0.794196 0.496781
vt 0.794345 0.496203
vt 0.794180 0.497357
vt 0.794360 0.497547
vt 0.794345 0.497499
vt 0.794196 0.496849
vt 0.927519 0.880459
vt 0.927519 0.994686
vt 0.932064 0.994135
vt 0.794197 0.497337
vt 0.302833 0.984937
vt 0.307698 0.984937
vt 0.307698 0.980072
vt 0.236306 0.951208
vt 0.248159 0.951208
vt 0.248159 0.939354
vt 0.297482 0.984937
vt 0.302347 0.984937
vt 0.302347 0.980072
vt 0.297482 0.995640
vt 0.302347 0.995640
vt 0.302347 0.990775
vt 0.307698 0.990289
vt 0.307698 0.985424
vt 0.302833 0.985424
vt 0.787299 0.497334
vt 0.768997 0.491516
vt 0.768985 0.491489
vt 0.768937 0.491525
vt 0.769073 0.491675
vt 0.768963 0.491581
vt 0.298194 0.918217
vt 0.756838 0.492414
vt 0.825633 0.498884
vt 0.757753 0.476317
vt 0.791687 0.491901
vt 0.808289 0.491537
vt 0.794368 0.497256
vt 0.767463 0.491222
vt 0.808526 0.491930
vt 0.792268 0.498059
vt 0.298858 0.917174
vt 0.298851 0.917302
vt 0.988702 0.881189
vt 0.967225 0.880959
vt 0.926882 0.994764
vt 0.933996 0.880459
vt 0.302833 0.980072
vt 0.236306 0.939354
vt 0.297482 0.980072
vt 0.297482 0.990775
vt 0.302833 0.990289
vt 0.769054 0.491777
vn 0.0000 0.9948 0.1017
vn 0.0000 0.8662 0.4997
vn 0.0000 0.2220 0.9750
vn 0.0000 0.7429 0.6694
vn 0.0000 -0.0000 1.0000
vn -0.0000 -1.0000 -0.0000
vn -0.0000 -0.9997 0.0226
vn 0.8382 0.5425 0.0556
vn 0.5200 0.8284 0.2082
vn 0.8509 0.5232 0.0476
vn 0.4974 0.8384 0.2231
vn 0.4960 0.8161 0.2966
vn 0.9408 0.3269 0.0901
vn 0.8949 0.3129 0.3182
vn 0.9023 0.3070 0.3025
vn 0.9694 0.2450 0.0138
vn 0.9940 0.1093 -0.0013
vn 0.8471 0.2607 0.4631
vn 0.8505 0.2575 0.4587
vn 0.0000 0.5992 0.8006
vn 0.0000 1.0000 0.0000
vn 0.0000 0.6022 -0.7983
vn 0.0000 0.0362 -0.9993
vn 0.0000 0.9149 -0.4038
vn 0.0000 0.9148 -0.4038
vn 0.4436 0.0000 -0.8962
vn 0.0000 0.0000 -1.0000
vn 0.0000 -0.9148 -0.4038
vn 0.0000 -0.8775 -0.4797
vn 0.9702 -0.2423 -0.0004
vn 0.9711 -0.2385 -0.0014
vn 0.9713 -0.2377 -0.0017
vn 0.9849 0.1729 -0.0081
vn 0.8766 0.4753 -0.0758
vn 0.8937 0.4249 -0.1439
vn 1.0000 -0.0035 -0.0014
vn 0.9530 0.3029 0.0000
vn 0.7431 0.0000 -0.6692
vn 0.9801 0.0315 -0.1961
vn 0.9788 0.0265 -0.2033
vn 0.9258 -0.3317 -0.1813
vn 0.9511 -0.1505 -0.2697
vn 0.9830 -0.0432 -0.1786
vn 0.9453 -0.0304 -0.3249
vn 0.0000 0.3977 -0.9175
vn 0.9077 0.3284 -0.2614
vn 0.9665 -0.0985 -0.2371
vn 0.0000 -0.9989 0.0466
vn 0.0000 -0.6776 0.7355
vn 0.0000 -0.7056 0.7086
vn 0.0000 -0.3584 -0.9336
vn 0.0000 -0.7064 -0.7078
vn 0.0000 -0.7302 -0.6833
vn 0.0000 -1.0000 -0.0098
vn 0.0000 -0.7177 0.6964
vn 0.0000 -0.7598 0.6501
vn 0.0000 -0.2936 0.9559
vn 0.1071 -0.6883 -0.7174
vn 0.0335 -0.9993 0.0160
vn 0.0515 -0.2811 -0.9583
vn 0.1181 -0.6430 -0.7567
vn 0.0000 -0.3700 0.9290
vn 1.0000 0.0000 0.0000
vn 0.0000 -0.9994 0.0339
vn 0.0024 -0.9998 -0.0196
vn 0.0000 -0.9994 -0.0353
vn 0.0029 -0.9977 -0.0670
vn 0.0000 -0.9976 -0.0690
vn -1.0000 0.0000 0.0000
vn 1.0000 0.0013 -0.0008
vn 0.6952 -0.0023 0.7189
vn 0.4494 -0.0018 0.8933
vn 0.4556 -0.0000 0.8902
vn 0.8760 -0.0037 0.4824
vn 0.7244 -0.0031 0.6893
vn 0.9699 -0.2435 -0.0000
vn 0.0000 -0.3174 -0.9483
vn 0.8763 -0.0032 0.4818
vn -0.8382 0.5425 0.0556
vn -0.8509 0.5232 0.0476
vn -0.5200 0.8284 0.2082
vn -0.4974 0.8384 0.2231
vn -0.4960 0.8161 0.2966
vn -0.9408 0.3269 0.0901
vn -0.9023 0.3070 0.3025
vn -0.8949 0.3129 0.3182
vn -0.9694 0.2450 0.0138
vn -0.9940 0.1093 -0.0013
vn -0.8471 0.2607 0.4631
vn -0.8505 0.2575 0.4587
vn -0.4436 0.0000 -0.8962
vn -0.9702 -0.2423 -0.0004
vn -0.9713 -0.2377 -0.0017
vn -0.9711 -0.2385 -0.0014
vn -0.9849 0.1729 -0.0081
vn -0.8937 0.4249 -0.1439
vn -0.8766 0.4753 -0.0758
vn -1.0000 -0.0035 -0.0014
vn -0.9530 0.3029 0.0000
vn -0.7431 0.0000 -0.6692
vn -0.9788 0.0265 -0.2033
vn -0.9801 0.0315 -0.1961
vn -0.9258 -0.3317 -0.1813
vn -0.9830 -0.0432 -0.1786
vn -0.9511 -0.1505 -0.2697
vn -0.9453 -0.0304 -0.3249
vn -0.9077 0.3284 -0.2614
vn -0.9665 -0.0985 -0.2371
vn -0.1071 -0.6883 -0.7174
vn -0.0335 -0.9993 0.0160
vn -0.0515 -0.2811 -0.9583
vn -0.1181 -0.6430 -0.7567
vn -0.0024 -0.9998 -0.0196
vn -0.0029 -0.9977 -0.0670
vn -1.0000 0.0013 -0.0008
vn -0.6952 -0.0023 0.7189
vn -0.4556 -0.0000 0.8902
vn -0.4494 -0.0018 0.8933
vn -0.8760 -0.0037 0.4824
vn -0.7244 -0.0031 0.6893
vn -0.9699 -0.2435 -0.0000
vn -0.8763 -0.0032 0.4818
s 1
f 81/161/49 143/162/49 141/163/49
f 81/164/50 145/165/50 83/166/50
f 83/167/51 147/168/51 84/169/51
f 147/170/52 85/171/52 84/172/52
f 149/173/53 86/174/53 85/175/53
f 86/176/54 151/177/54 109/178/55
f 82/179/56 88/180/57 89/181/58
f 81/182/59 83/183/60 88/180/57
f 92/184/61 88/185/62 90/186/63
f 89/187/64 92/184/61 91/188/65
f 84/189/66 88/185/62 83/190/67
f 143/191/68 120/192/68 199/193/68
f 93/194/69 162/195/69 160/196/69
f 162/197/70 121/198/70 201/199/70
f 183/200/71 96/201/71 166/202/71
f 166/203/72 97/204/73 168/205/72
f 97/206/74 170/207/75 168/208/75
f 98/209/76 172/210/76 170/207/76
f 172/211/77 112/212/77 174/213/77
f 104/214/78 107/215/79 103/216/80
f 89/187/64 91/188/65 102/217/81
f 82/218/56 106/219/82 95/220/83
f 102/217/81 91/221/65 103/222/84
f 82/223/85 129/224/85 127/225/85
f 99/226/86 97/227/74 96/228/86
f 102/217/81 139/229/87 106/230/88
f 100/231/89 99/232/90 101/233/91
f 99/232/90 96/234/92 101/233/91
f 101/233/91 96/234/92 139/229/87
f 95/235/93 183/236/93 164/237/93
f 95/238/83 106/239/82 108/240/94
f 108/241/95 106/230/88 96/234/92
f 89/187/64 102/217/81 106/230/88
f 92/242/96 116/243/97 104/244/98
f 107/245/99 115/246/100 103/247/101
f 102/248/102 113/249/103 101/250/104
f 105/251/105 116/243/97 117/252/105
f 90/253/106 111/254/107 92/242/96
f 102/248/102 115/246/100 114/255/102
f 87/256/108 110/257/109 90/253/106
f 100/258/110 113/249/103 112/259/110
f 109/260/111 116/261/111 110/262/111
f 111/263/111 110/264/111 116/265/111
f 115/266/111 112/267/111 113/268/111
f 114/269/111 115/270/111 113/271/111
f 109/178/55 151/177/54 153/272/112
f 117/252/55 107/245/54 105/251/54
f 118/273/113 195/274/112 196/275/114
f 112/212/77 99/276/77 100/277/77
f 109/178/55 195/274/112 117/252/55
f 112/259/115 196/275/114 174/278/116
f 119/279/68 160/280/68 197/281/68
f 199/282/68 119/283/68 197/284/68
f 121/285/70 203/286/70 201/287/70
f 122/288/70 164/289/70 203/290/70
f 122/288/70 94/291/70 95/292/70
f 127/293/85 123/294/85 124/295/85
f 123/296/85 128/297/85 93/298/85
f 93/298/85 124/299/85 123/296/85
f 94/300/85 125/301/85 95/302/85
f 127/225/85 130/303/85 128/297/85
f 129/304/85 126/305/85 130/306/85
f 127/225/85 124/299/85 82/223/85
f 129/224/85 95/302/85 125/301/85
f 94/300/85 130/303/85 126/307/85
f 93/298/85 130/303/85 94/300/85
f 120/192/68 93/298/68 119/279/68
f 132/308/117 133/309/117 131/310/117
f 134/311/75 137/312/75 133/313/75
f 138/314/111 135/315/111 137/316/111
f 137/317/54 131/318/54 133/319/54
f 134/320/69 136/321/69 138/322/69
f 139/229/87 96/234/92 106/230/88
f 139/229/87 102/217/81 101/233/91
f 91/188/65 92/184/61 104/323/118
f 103/222/84 91/221/65 104/323/118
f 140/324/119 85/325/120 86/326/121
f 87/327/122 84/328/123 140/324/119
f 109/178/55 87/256/54 140/329/54
f 140/329/54 86/176/54 109/178/55
f 81/161/49 82/330/49 143/162/49
f 81/164/50 141/331/50 145/165/50
f 83/167/51 145/332/51 147/168/51
f 147/170/52 149/333/52 85/171/52
f 149/173/53 151/334/53 86/174/53
f 82/179/56 81/182/59 88/180/57
f 89/187/64 88/185/62 92/184/61
f 84/189/66 90/186/63 88/185/62
f 143/191/68 82/223/68 120/192/68
f 93/194/69 94/335/69 162/195/69
f 162/197/70 94/291/70 121/198/70
f 183/200/71 108/336/71 96/201/71
f 166/203/72 96/337/73 97/204/73
f 97/206/74 98/209/74 170/207/75
f 98/209/76 99/338/76 172/210/76
f 104/214/78 105/339/124 107/215/79
f 82/218/56 89/340/58 106/219/82
f 82/223/85 95/302/85 129/224/85
f 99/226/86 98/341/74 97/227/74
f 95/235/93 108/342/93 183/236/93
f 92/242/96 111/254/107 116/243/97
f 107/245/99 118/273/99 115/246/100
f 102/248/102 114/255/102 113/249/103
f 105/251/105 104/244/98 116/243/97
f 90/253/106 110/257/109 111/254/107
f 102/248/102 103/247/101 115/246/100
f 87/256/108 109/178/125 110/257/109
f 100/258/110 101/250/104 113/249/103
f 109/260/111 117/343/111 116/261/111
f 115/266/111 118/344/111 112/267/111
f 117/252/55 118/273/113 107/245/54
f 118/273/113 117/252/55 195/274/112
f 112/212/77 172/211/77 99/276/77
f 109/178/55 153/272/112 195/274/112
f 112/259/115 118/273/113 196/275/114
f 119/279/68 93/298/68 160/280/68
f 199/282/68 120/345/68 119/283/68
f 121/285/70 122/346/70 203/286/70
f 122/288/70 95/292/70 164/289/70
f 122/288/70 121/198/70 94/291/70
f 127/293/85 128/347/85 123/294/85
f 93/298/85 82/223/85 124/299/85
f 94/300/85 126/307/85 125/301/85
f 127/225/85 129/224/85 130/303/85
f 129/304/85 125/348/85 126/305/85
f 93/298/85 128/297/85 130/303/85
f 120/192/68 82/223/68 93/298/68
f 132/308/117 134/349/117 133/309/117
f 134/311/75 138/350/75 137/312/75
f 138/314/111 136/351/111 135/315/111
f 137/317/54 135/352/54 131/318/54
f 134/320/69 132/353/69 136/321/69
f 140/324/119 84/328/123 85/325/120
f 87/327/122 90/354/126 84/328/123
f 142/355/49 141/163/49 143/162/49
f 142/356/50 146/357/50 145/165/50
f 146/358/51 148/359/51 147/168/51
f 147/170/52 148/360/52 150/361/52
f 149/173/53 150/362/53 152/363/53
f 152/364/54 185/365/55 151/177/54
f 144/366/127 156/367/128 155/368/129
f 142/369/130 155/368/129 146/370/131
f 159/371/132 157/372/133 155/373/134
f 156/374/135 158/375/136 159/371/132
f 148/376/137 146/377/138 155/373/134
f 143/191/68 199/193/68 200/378/68
f 161/379/69 160/196/69 162/195/69
f 162/197/70 201/199/70 202/380/70
f 183/200/71 166/202/71 167/381/71
f 166/203/72 168/205/72 169/382/73
f 169/383/139 168/208/75 170/207/75
f 171/384/76 170/207/76 172/210/76
f 172/211/77 174/213/77 188/385/77
f 179/386/140 178/387/141 182/388/142
f 156/374/135 177/389/143 158/375/136
f 144/390/127 165/391/144 181/392/145
f 177/389/143 178/393/146 158/394/136
f 144/395/147 209/396/147 211/397/147
f 173/398/148 167/399/148 169/400/139
f 177/389/143 181/401/149 221/402/150
f 175/403/151 176/404/152 173/405/153
f 173/405/153 176/404/152 167/406/154
f 176/404/152 221/402/150 167/406/154
f 165/407/93 164/237/93 183/236/93
f 165/408/144 184/409/155 181/410/145
f 184/411/156 167/406/154 181/401/149
f 156/374/135 181/401/149 177/389/143
f 159/412/96 179/413/98 192/414/97
f 182/415/99 178/416/101 191/417/100
f 177/418/102 176/419/104 189/420/103
f 180/421/105 193/422/105 192/414/97
f 157/423/157 159/412/96 187/424/158
f 177/418/102 190/425/102 191/417/100
f 154/426/159 157/423/157 186/427/160
f 175/428/110 188/429/110 189/420/103
f 185/430/117 186/431/117 192/432/117
f 187/433/117 192/434/117 186/435/117
f 191/436/117 189/437/117 188/438/117
f 190/439/117 189/440/117 191/441/117
f 185/365/55 153/272/112 151/177/54
f 193/422/55 180/421/54 182/415/54
f 194/442/161 196/275/114 195/274/112
f 188/385/77 175/443/77 173/444/77
f 185/365/55 193/422/55 195/274/112
f 188/429/162 174/278/116 196/275/114
f 198/445/68 197/281/68 160/280/68
f 199/282/68 197/284/68 198/446/68
f 202/447/70 201/287/70 203/286/70
f 204/448/70 203/290/70 164/289/70
f 204/448/70 165/449/70 163/450/70
f 209/451/147 206/452/147 205/453/147
f 205/454/147 161/455/147 210/456/147
f 161/455/147 205/454/147 206/457/147
f 163/458/147 165/459/147 207/460/147
f 209/396/147 210/456/147 212/461/147
f 211/462/147 212/463/147 208/464/147
f 209/396/147 144/395/147 206/457/147
f 211/397/147 207/460/147 165/459/147
f 163/458/147 208/465/147 212/461/147
f 161/455/147 163/458/147 212/461/147
f 200/378/68 198/445/68 161/455/68
f 214/466/111 213/467/111 215/468/111
f 216/469/75 215/470/75 219/471/75
f 220/472/117 219/473/117 217/474/117
f 219/475/54 215/476/54 213/477/54
f 216/478/69 220/479/69 218/480/69
f 221/402/150 181/401/149 167/406/154
f 221/402/150 176/404/152 177/389/143
f 158/375/136 179/481/163 159/371/132
f 178/393/146 179/481/163 158/394/136
f 222/482/164 152/483/165 150/484/166
f 154/485/167 222/482/164 148/486/168
f 185/365/55 222/487/54 154/426/54
f 222/487/54 185/365/55 152/364/54
f 142/355/49 143/162/49 144/488/49
f 142/356/50 145/165/50 141/331/50
f 146/358/51 147/168/51 145/332/51
f 147/170/52 150/361/52 149/333/52
f 149/173/53 152/363/53 151/334/53
f 144/366/127 155/368/129 142/369/130
f 156/374/135 159/371/132 155/373/134
f 148/376/137 155/373/134 157/372/133
f 143/191/68 200/378/68 144/395/68
f 161/379/69 162/195/69 163/489/69
f 162/197/70 202/380/70 163/450/70
f 183/200/71 167/381/71 184/490/71
f 166/203/72 169/382/73 167/491/73
f 169/383/139 170/207/75 171/384/139
f 171/384/76 172/210/76 173/492/76
f 179/386/140 182/388/142 180/493/169
f 144/390/127 181/392/145 156/494/128
f 144/395/147 211/397/147 165/459/147
f 173/398/148 169/400/139 171/495/139
f 165/407/93 183/236/93 184/496/93
f 159/412/96 192/414/97 187/424/158
f 182/415/99 191/417/100 194/442/99
f 177/418/102 189/420/103 190/425/102
f 180/421/105 192/414/97 179/413/98
f 157/423/157 187/424/158 186/427/160
f 177/418/102 191/417/100 178/416/101
f 154/426/159 186/427/160 185/365/125
f 175/428/110 189/420/103 176/419/104
f 185/430/117 192/432/117 193/497/117
f 191/436/117 188/438/117 194/498/117
f 193/422/55 182/415/54 194/442/161
f 194/442/161 195/274/112 193/422/55
f 188/385/77 173/444/77 172/211/77
f 185/365/55 195/274/112 153/272/112
f 188/429/162 196/275/114 194/442/161
f 198/445/68 160/280/68 161/455/68
f 199/282/68 198/446/68 200/499/68
f 202/447/70 203/286/70 204/500/70
f 204/448/70 164/289/70 165/449/70
f 204/448/70 163/450/70 202/380/70
f 209/451/147 205/453/147 210/501/147
f 161/455/147 206/457/147 144/395/147
f 163/458/147 207/460/147 208/465/147
f 209/396/147 212/461/147 211/397/147
f 211/462/147 208/464/147 207/502/147
f 161/455/147 212/461/147 210/456/147
f 200/378/68 161/455/68 144/395/68
f 214/466/111 215/468/111 216/503/111
f 216/469/75 219/471/75 220/504/75
f 220/472/117 217/474/117 218/505/117
f 219/475/54 213/477/54 217/506/54
f 216/478/69 218/480/69 214/507/69
f 222/482/164 150/484/166 148/486/168
f 154/485/167 148/486/168 157/508/170
