texture textures/cars.png
v 0.313695 0.320651 0.630910
v 0.426841 0.320651 0.630910
v 0.313695 0.259434 0.546652
v 0.426841 0.259434 0.546652
v 0.313695 0.160384 0.514469
v 0.426841 0.160384 0.514469
v 0.313695 0.061333 0.546652
v 0.426841 0.061333 0.546652
v 0.313695 0.000117 0.630910
v 0.426841 0.000117 0.630910
v 0.313695 0.000117 0.735058
v 0.426841 0.000117 0.735058
v 0.313695 0.061333 0.819315
v 0.426841 0.061333 0.819315
v 0.313695 0.160384 0.851499
v 0.426841 0.160384 0.851499
v 0.313695 0.259434 0.819315
v 0.426841 0.259434 0.819315
v 0.313695 0.320651 0.735058
v 0.426841 0.320651 0.735058
vt 0.524372 0.971647
vt 0.612156 0.959848
vt 0.524372 0.959848
vt 0.612156 0.940757
vt 0.524372 0.940757
vt 0.612156 0.921665
vt 0.524372 0.921665
vt 0.524372 0.909866
vt 0.612156 0.909866
vt 0.524372 0.909866
vt 0.612156 0.909866
vt 0.524372 0.921665
vt 0.612156 0.921665
vt 0.524372 0.940757
vt 0.612156 0.940757
vt 0.524372 0.959848
vt 0.612156 0.959848
vt 0.524372 0.971647
vt 0.612156 0.971647
vt 0.512421 0.891662
vt 0.519896 0.891662
vt 0.518469 0.897068
vt 0.250082 0.022727
vt 0.383670 0.433867
vt 0.116495 0.433868
vt 0.612156 0.971647
vt 0.516159 0.897992
vt 0.513849 0.897068
vt 0.512421 0.894650
vt 0.513849 0.889244
vt 0.516159 0.888320
vt 0.518469 0.889244
vt 0.519896 0.894650
vt 0.033933 0.320231
vt 0.033933 0.179769
vt 0.116495 0.066133
vt 0.383670 0.066133
vt 0.466232 0.179769
vt 0.466232 0.320231
vt 0.250082 0.477273
vn 0.0000 0.9511 -0.3090
vn 0.0000 0.5878 -0.8090
vn 0.0000 0.0000 -1.0000
vn 0.0000 -0.5878 -0.8090
vn 0.0000 -0.9511 -0.3090
vn 0.0000 -0.9511 0.3090
vn 0.0000 -0.5878 0.8090
vn 0.0000 -0.0000 1.0000
vn 0.0000 0.5878 0.8090
vn 0.0000 0.9511 0.3090
vn -1.0000 0.0000 0.0000
vn 1.0000 0.0000 -0.0000
s 1
f 1/1/1 4/2/2 3/3/2
f 3/3/2 6/4/3 5/5/3
f 5/5/3 8/6/4 7/7/4
f 8/6/4 9/8/5 7/7/4
f 10/9/5 11/10/6 9/8/5
f 12/11/6 13/12/7 11/10/6
f 14/13/7 15/14/8 13/12/7
f 16/15/8 17/16/9 15/14/8
f 18/17/9 19/18/10 17/16/9
f 19/18/10 2/19/1 1/1/1
f 7/20/11 15/21/11 19/22/11
f 18/23/12 10/24/12 6/25/12
f 1/1/1 2/19/1 4/2/2
f 3/3/2 4/2/2 6/4/3
f 5/5/3 6/4/3 8/6/4
f 8/6/4 10/9/5 9/8/5
f 10/9/5 12/11/6 11/10/6
f 12/11/6 14/13/7 13/12/7
f 14/13/7 16/15/8 15/14/8
f 16/15/8 18/17/9 17/16/9
f 18/17/9 20/26/10 19/18/10
f 19/18/10 20/26/10 2/19/1
f 19/22/11 1/27/11 3/28/11
f 3/28/11 5/29/11 7/20/11
f 7/20/11 9/30/11 15/21/11
f 11/31/11 13/32/11 15/21/11
f 15/21/11 17/33/11 19/22/11
f 19/22/11 3/28/11 7/20/11
f 9/30/11 11/31/11 15/21/11
f 6/25/12 4/34/12 2/35/12
f 2/35/12 20/36/12 18/23/12
f 18/23/12 16/37/12 14/38/12
f 14/38/12 12/39/12 10/24/12
f 10/24/12 8/40/12 6/25/12
f 6/25/12 2/35/12 18/23/12
f 18/23/12 14/38/12 10/24/12
o RLW_Cylinder.005
v 0.313695 0.320651 -0.598721
v 0.426841 0.320651 -0.598721
v 0.313695 0.259435 -0.682978
v 0.426841 0.259435 -0.682978
v 0.313695 0.160384 -0.715162
v 0.426841 0.160384 -0.715162
v 0.313695 0.061334 -0.682978
v 0.426841 0.061334 -0.682978
v 0.313695 0.000117 -0.598721
v 0.426841 0.000117 -0.598721
v 0.313695 0.000117 -0.494573
v 0.426841 0.000117 -0.494573
v 0.313695 0.061333 -0.410316
v 0.426841 0.061333 -0.410316
v 0.313695 0.160384 -0.378132
v 0.426841 0.160384 -0.378132
v 0.313695 0.259434 -0.410316
v 0.426841 0.259434 -0.410316
v 0.313695 0.320651 -0.494573
v 0.426841 0.320651 -0.494573
vt 0.524372 0.971647
vt 0.612156 0.959848
vt 0.524372 0.959848
vt 0.612156 0.940757
vt 0.524372 0.940757
vt 0.524372 0.921665
vt 0.612156 0.909866
vt 0.524372 0.909866
vt 0.612156 0.909866
vt 0.524372 0.909866
vt 0.524372 0.921665
vt 0.612156 0.921665
vt 0.524372 0.940757
vt 0.612156 0.959848
vt 0.524372 0.959848
vt 0.524372 0.971647
vt 0.612156 0.971647
vt 0.512421 0.891662
vt 0.519896 0.891662
vt 0.518469 0.897068
vt 0.250082 0.022727
vt 0.383670 0.433867
vt 0.033933 0.179769
vt 0.612156 0.971647
vt 0.612156 0.921665
vt 0.612156 0.940757
vt 0.516159 0.897992
vt 0.513849 0.897068
vt 0.512421 0.894650
vt 0.513849 0.889244
vt 0.516159 0.888320
vt 0.518469 0.889244
vt 0.519896 0.894650
vt 0.116495 0.433868
vt 0.033933 0.320231
vt 0.116495 0.066133
vt 0.383670 0.066133
vt 0.466232 0.179769
vt 0.466232 0.320231
vt 0.250082 0.477273
vn 0.0000 0.9511 -0.3090
vn 0.0000 0.5878 -0.8090
vn 0.0000 0.0000 -1.0000
vn 0.0000 -0.5878 -0.8090
vn 0.0000 -0.9511 -0.3090
vn 0.0000 -0.9511 0.3090
vn 0.0000 -0.5878 0.8090
vn 0.0000 -0.0000 1.0000
vn 0.0000 0.5878 0.8090
vn 0.0000 0.9511 0.3090
vn -1.0000 -0.0000 0.0000
vn 1.0000 0.0000 0.0000
s 1
f 21/41/13 24/42/14 23/43/14
f 23/43/14 26/44/15 25/45/15
f 26/44/15 27/46/16 25/45/15
f 27/46/16 30/47/17 29/48/17
f 29/48/17 32/49/18 31/50/18
f 32/49/18 33/51/19 31/50/18
f 34/52/19 35/53/20 33/51/19
f 35/53/20 38/54/21 37/55/21
f 38/54/21 39/56/22 37/55/21
f 40/57/22 21/41/13 39/56/22
f 27/58/23 35/59/23 39/60/23
f 38/61/24 30/62/24 22/63/24
f 21/41/13 22/64/13 24/42/14
f 23/43/14 24/42/14 26/44/15
f 26/44/15 28/65/16 27/46/16
f 27/46/16 28/65/16 30/47/17
f 29/48/17 30/47/17 32/49/18
f 32/49/18 34/52/19 33/51/19
f 34/52/19 36/66/20 35/53/20
f 35/53/20 36/66/20 38/54/21
f 38/54/21 40/57/22 39/56/22
f 40/57/22 22/64/13 21/41/13
f 39/60/23 21/67/23 23/68/23
f 23/68/23 25/69/23 27/58/23
f 27/58/23 29/70/23 31/71/23
f 31/71/23 33/72/23 35/59/23
f 35/59/23 37/73/23 39/60/23
f 39/60/23 23/68/23 27/58/23
f 27/58/23 31/71/23 35/59/23
f 26/74/24 24/75/24 22/63/24
f 22/63/24 40/76/24 38/61/24
f 38/61/24 36/77/24 34/78/24
f 34/78/24 32/79/24 38/61/24
f 30/62/24 28/80/24 26/74/24
f 26/74/24 22/63/24 30/62/24
f 38/61/24 32/79/24 30/62/24
o RRW_Cylinder.006
v -0.313695 0.320651 -0.494573
v -0.426841 0.320651 -0.494573
v -0.313695 0.259434 -0.410316
v -0.426841 0.259434 -0.410316
v -0.313695 0.160384 -0.378132
v -0.426841 0.160384 -0.378132
v -0.313695 0.061333 -0.410316
v -0.426841 0.061333 -0.410316
v -0.313695 0.000117 -0.494573
v -0.426841 0.000117 -0.494573
v -0.313695 0.000117 -0.598721
v -0.426841 0.000117 -0.598721
v -0.313695 0.061334 -0.682978
v -0.426841 0.061334 -0.682978
v -0.313695 0.160384 -0.715162
v -0.426841 0.160384 -0.715162
v -0.313695 0.259435 -0.682978
v -0.426841 0.259435 -0.682978
v -0.313695 0.320651 -0.598721
v -0.426841 0.320651 -0.598721
vt 0.612156 0.971647
vt 0.524372 0.959848
vt 0.524372 0.971647
vt 0.612156 0.940757
vt 0.524372 0.940757
vt 0.612156 0.921665
vt 0.524372 0.921665
vt 0.524372 0.909866
vt 0.612156 0.909866
vt 0.524372 0.909866
vt 0.612156 0.909866
vt 0.524372 0.921665
vt 0.612156 0.921665
vt 0.524372 0.940757
vt 0.612156 0.940757
vt 0.524372 0.959848
vt 0.612156 0.959848
vt 0.524372 0.971647
vt 0.612156 0.971647
vt 0.512421 0.891662
vt 0.519896 0.891662
vt 0.518469 0.897068
vt 0.250082 0.022727
vt 0.383670 0.433867
vt 0.033933 0.179769
vt 0.612156 0.959848
vt 0.516159 0.897992
vt 0.513849 0.897068
vt 0.512421 0.894650
vt 0.513849 0.889244
vt 0.516159 0.888320
vt 0.518469 0.889244
vt 0.519896 0.894650
vt 0.116495 0.433868
vt 0.033933 0.320231
vt 0.116495 0.066133
vt 0.383670 0.066133
vt 0.466232 0.179769
vt 0.466232 0.320231
vt 0.250082 0.477273
vn 0.0000 0.9511 0.3090
vn 0.0000 0.5878 0.8090
vn 0.0000 -0.0000 1.0000
vn 0.0000 -0.5878 0.8090
vn 0.0000 -0.9511 0.3090
vn 0.0000 -0.9511 -0.3090
vn 0.0000 -0.5878 -0.8090
vn 0.0000 0.0000 -1.0000
vn 0.0000 0.5878 -0.8090
vn 0.0000 0.9511 -0.3090
vn 1.0000 -0.0000 0.0000
vn -1.0000 0.0000 0.0000
s 1
f 42/81/25 43/82/26 41/83/25
f 43/82/26 46/84/27 45/85/27
f 45/85/27 48/86/28 47/87/28
f 48/86/28 49/88/29 47/87/28
f 50/89/29 51/90/30 49/88/29
f 52/91/30 53/92/31 51/90/30
f 54/93/31 55/94/32 53/92/31
f 56/95/32 57/96/33 55/94/32
f 58/97/33 59/98/34 57/96/33
f 60/99/34 41/83/25 59/98/34
f 47/100/35 55/101/35 59/102/35
f 58/103/36 50/104/36 42/105/36
f 42/81/25 44/106/26 43/82/26
f 43/82/26 44/106/26 46/84/27
f 45/85/27 46/84/27 48/86/28
f 48/86/28 50/89/29 49/88/29
f 50/89/29 52/91/30 51/90/30
f 52/91/30 54/93/31 53/92/31
f 54/93/31 56/95/32 55/94/32
f 56/95/32 58/97/33 57/96/33
f 58/97/33 60/99/34 59/98/34
f 60/99/34 42/81/25 41/83/25
f 59/102/35 41/107/35 43/108/35
f 43/108/35 45/109/35 47/100/35
f 47/100/35 49/110/35 55/101/35
f 51/111/35 53/112/35 55/101/35
f 55/101/35 57/113/35 59/102/35
f 59/102/35 43/108/35 47/100/35
f 49/110/35 51/111/35 55/101/35
f 46/114/36 44/115/36 42/105/36
f 42/105/36 60/116/36 58/103/36
f 58/103/36 56/117/36 54/118/36
f 54/118/36 52/119/36 50/104/36
f 50/104/36 48/120/36 46/114/36
f 46/114/36 42/105/36 50/104/36
f 58/103/36 54/118/36 50/104/36
o FRW_Cylinder.007
v -0.313695 0.320651 0.735058
v -0.426841 0.320651 0.735058
v -0.313695 0.259434 0.819315
v -0.426841 0.259434 0.819315
v -0.313695 0.160384 0.851499
v -0.426841 0.160384 0.851499
v -0.313695 0.061333 0.819315
v -0.426841 0.061333 0.819315
v -0.313695 0.000117 0.735058
v -0.426841 0.000117 0.735058
v -0.313695 0.000117 0.630910
v -0.426841 0.000117 0.630910
v -0.313695 0.061333 0.546652
v -0.426841 0.061333 0.546652
v -0.313695 0.160384 0.514469
v -0.426841 0.160384 0.514469
v -0.313695 0.259434 0.546652
v -0.426841 0.259434 0.546652
v -0.313695 0.320651 0.630910
v -0.426841 0.320651 0.630910
vt 0.524372 0.971647
vt 0.612156 0.959848
vt 0.524372 0.959848
vt 0.612156 0.940757
vt 0.524372 0.940757
vt 0.612156 0.921665
vt 0.524372 0.921665
vt 0.612156 0.909866
vt 0.524372 0.909866
vt 0.524372 0.909866
vt 0.612156 0.909866
vt 0.524372 0.921665
vt 0.612156 0.921665
vt 0.524372 0.940757
vt 0.612156 0.940757
vt 0.524372 0.959848
vt 0.612156 0.959848
vt 0.524372 0.971647
vt 0.612156 0.971647
vt 0.512421 0.891662
vt 0.519896 0.891662
vt 0.518469 0.897068
vt 0.250082 0.022727
vt 0.383670 0.433867
vt 0.033933 0.179769
vt 0.612156 0.971647
vt 0.516159 0.897992
vt 0.513849 0.897068
vt 0.512421 0.894650
vt 0.513849 0.889244
vt 0.516159 0.888320
vt 0.518469 0.889244
vt 0.519896 0.894650
vt 0.116495 0.433868
vt 0.033933 0.320231
vt 0.116495 0.066133
vt 0.383670 0.066133
vt 0.466232 0.179769
vt 0.466232 0.320231
vt 0.250082 0.477273
vn 0.0000 0.9511 0.3090
vn 0.0000 0.5878 0.8090
vn 0.0000 -0.0000 1.0000
vn 0.0000 -0.5878 0.8090
vn 0.0000 -0.9511 0.3090
vn 0.0000 -0.9511 -0.3090
vn 0.0000 -0.5878 -0.8090
vn -0.0000 0.0000 -1.0000
vn 0.0000 0.5878 -0.8090
vn 0.0000 0.9511 -0.3090
vn 1.0000 0.0000 -0.0000
vn -1.0000 0.0000 0.0000
s 1
f 61/121/37 64/122/38 63/123/38
f 63/123/38 66/124/39 65/125/39
f 65/125/39 68/126/40 67/127/40
f 67/127/40 70/128/41 69/129/41
f 70/128/41 71/130/42 69/129/41
f 72/131/42 73/132/43 71/130/42
f 74/133/43 75/134/44 73/132/43
f 76/135/44 77/136/45 75/134/44
f 78/137/45 79/138/46 77/136/45
f 80/139/46 61/121/37 79/138/46
f 67/140/47 75/141/47 79/142/47
f 78/143/48 70/144/48 62/145/48
f 61/121/37 62/146/37 64/122/38
f 63/123/38 64/122/38 66/124/39
f 65/125/39 66/124/39 68/126/40
f 67/127/40 68/126/40 70/128/41
f 70/128/41 72/131/42 71/130/42
f 72/131/42 74/133/43 73/132/43
f 74/133/43 76/135/44 75/134/44
f 76/135/44 78/137/45 77/136/45
f 78/137/45 80/139/46 79/138/46
f 80/139/46 62/146/37 61/121/37
f 79/142/47 61/147/47 63/148/47
f 63/148/47 65/149/47 67/140/47
f 67/140/47 69/150/47 75/141/47
f 71/151/47 73/152/47 75/141/47
f 75/141/47 77/153/47 79/142/47
f 79/142/47 63/148/47 67/140/47
f 69/150/47 71/151/47 75/141/47
f 66/154/48 64/155/48 62/145/48
f 62/145/48 80/156/48 78/143/48
f 78/143/48 76/157/48 74/158/48
f 74/158/48 72/159/48 70/144/48
f 70/144/48 68/160/48 66/154/48
f 66/154/48 62/145/48 70/144/48
f 78/143/48 74/158/48 70/144/48
o Body_Plane.003
v 0.293551 0.521009 0.886456
v 0.348383 0.592474 0.496154
v 0.348428 0.486348 0.912092
v 0.348428 0.270546 0.912092
v 0.348428 0.258995 0.976644
v 0.348428 0.139437 0.976644
v 0.348428 0.112182 0.909759
v 0.408802 0.112182 0.857023
v 0.408802 0.139437 0.908513
v 0.408802 0.258218 0.908583
v 0.408802 0.269980 0.857024
v 0.408802 0.351133 0.741797
v 0.408802 0.351133 0.616079
v 0.408802 0.269980 0.500332
v 0.374079 0.112182 0.476055
v 0.381936 0.526285 0.496521
v 0.391292 0.437471 0.846898
v 0.279426 0.847812 0.368485
v 0.279426 0.847813 -0.723555
v 0.348383 0.592476 -0.825927
v 0.381936 0.294903 -0.825927
v 0.370242 0.289581 -0.892556
v 0.370242 0.194847 -0.892556
v 0.381936 0.189525 -0.823423
v 0.381936 0.117036 -0.781809
v 0.407480 0.269980 -0.377834
v 0.374079 0.112182 -0.337583
v 0.381936 0.526286 -0.825927
v 0.392898 0.117036 -0.735907
v 0.407480 0.244465 -0.721519
v 0.407480 0.329418 -0.650268
v 0.407480 0.350397 -0.518425
v 0.271790 0.112182 0.857023
v 0.271790 0.269980 0.857024
v 0.271790 0.351133 0.741797
v 0.271790 0.351133 0.616079
v 0.271790 0.269980 0.500332
v 0.271790 0.112182 0.476055
v 0.269142 0.269980 -0.377834
v 0.269142 0.112182 -0.337583
v 0.269142 0.117036 -0.735907
v 0.269142 0.244465 -0.721519
v 0.269142 0.329418 -0.650268
v 0.269142 0.350397 -0.518425
v 0.264687 0.828323 0.378230
v 0.327723 0.610691 0.487046
v 0.015010 0.824905 -0.732672
v 0.260536 0.824905 -0.732672
v 0.317514 0.616971 -0.820257
v 0.013704 0.616971 -0.820257
v 0.285108 0.826774 0.355732
v 0.285108 0.826774 -0.704122
v 0.342651 0.613703 -0.796391
v 0.342650 0.613703 0.456732
v 0.285108 0.826774 0.055714
v 0.342650 0.613703 0.055714
v 0.114081 0.122687 -0.740109
v 0.114081 0.182973 -0.740109
v 0.114081 0.122687 -0.878594
v 0.114081 0.182973 -0.878594
v 0.174367 0.122687 -0.740109
v 0.174367 0.182973 -0.740109
v 0.174367 0.122687 -0.878594
v 0.174367 0.182973 -0.878594
v 0.330376 0.462481 0.912092
v 0.330376 0.290903 0.912092
v 0.000000 0.521009 0.886456
v -0.293551 0.521009 0.886456
v 0.000000 0.592474 0.496154
v -0.348383 0.592474 0.496154
v 0.000000 0.486348 0.912092
v -0.348428 0.486348 0.912092
v 0.000000 0.270546 0.912092
v -0.348428 0.270546 0.912092
v 0.000000 0.258995 0.976644
v -0.348428 0.258995 0.976644
v 0.000000 0.139437 0.976644
v -0.348428 0.139437 0.976644
v 0.000000 0.112182 0.909759
v -0.348428 0.112182 0.909759
v -0.408802 0.112182 0.857023
v -0.408802 0.139437 0.908513
v -0.408802 0.258218 0.908583
v -0.408802 0.269980 0.857024
v -0.408802 0.351133 0.741797
v -0.408802 0.351133 0.616079
v -0.408802 0.269980 0.500332
v -0.374079 0.112182 0.476055
v -0.381936 0.526285 0.496521
v -0.391292 0.437471 0.846898
v 0.000000 0.847812 0.368485
v -0.279426 0.847812 0.368485
v 0.000000 0.847813 -0.723555
v -0.279426 0.847813 -0.723555
v 0.000000 0.592476 -0.825927
v -0.348383 0.592476 -0.825927
v 0.000000 0.294903 -0.825927
v -0.381936 0.294903 -0.825927
v 0.000000 0.289581 -0.892556
v -0.370242 0.289581 -0.892556
v 0.000000 0.194847 -0.892556
v -0.370242 0.194847 -0.892556
v 0.000000 0.189525 -0.823423
v -0.381936 0.189525 -0.823423
v 0.000000 0.117036 -0.781809
v -0.381936 0.117036 -0.781809
v -0.407480 0.269980 -0.377834
v -0.374079 0.112182 -0.337583
v -0.381936 0.526286 -0.825927
v -0.392898 0.117036 -0.735907
v -0.407480 0.244465 -0.721519
v -0.407480 0.329418 -0.650268
v -0.407480 0.350397 -0.518425
v -0.271790 0.112182 0.857023
v -0.271790 0.269980 0.857024
v -0.271790 0.351133 0.741797
v -0.271790 0.351133 0.616079
v -0.271790 0.269980 0.500332
v -0.271790 0.112182 0.476055
v -0.269142 0.269980 -0.377834
v -0.269142 0.112182 -0.337583
v -0.269142 0.117036 -0.735907
v -0.269142 0.244465 -0.721519
v -0.269142 0.329418 -0.650268
v -0.269142 0.350397 -0.518425
v 0.000000 0.112182 0.476055
v 0.000000 0.112182 -0.271139
v 0.000000 0.828324 0.378230
v -0.264687 0.828323 0.378230
v 0.000000 0.610691 0.487046
v -0.327723 0.610691 0.487046
v -0.015010 0.824905 -0.732672
v -0.260536 0.824905 -0.732672
v -0.317514 0.616971 -0.820257
v -0.013704 0.616971 -0.820257
v -0.285108 0.826774 0.355732
v -0.285108 0.826774 -0.704122
v -0.342651 0.613703 -0.796391
v -0.342650 0.613703 0.456732
v -0.285108 0.826774 0.055714
v -0.342650 0.613703 0.055714
v -0.114081 0.122687 -0.740109
v -0.114081 0.182973 -0.740109
v -0.114081 0.122687 -0.878594
v -0.114081 0.182973 -0.878594
v -0.174367 0.122687 -0.740109
v -0.174367 0.182973 -0.740109
v -0.174367 0.122687 -0.878594
v -0.174367 0.182973 -0.878594
v 0.000000 0.462481 0.912092
v 0.000000 0.290903 0.912092
v -0.330376 0.462481 0.912092
v -0.330376 0.290903 0.912092
vt 0.616602 0.674192
vt 0.615179 0.676113
vt 0.615180 0.674196
vt 0.615186 0.674056
vt 0.616874 0.674052
vt 0.629565 0.667840
vt 0.629691 0.667752
vt 0.629648 0.667851
vt 0.364702 0.886736
vt 0.366390 0.886414
vt 0.366389 0.886731
vt 0.298261 0.923946
vt 0.299973 0.923886
vt 0.299949 0.923941
vt 0.302744 0.923886
vt 0.301059 0.924214
vt 0.301056 0.923887
vt 0.300763 0.924217
vt 0.300766 0.924470
vt 0.300243 0.924269
vt 0.617042 0.676075
vt 0.616866 0.676108
vt 0.680655 0.676006
vt 0.680716 0.676143
vt 0.680640 0.676041
vt 0.366685 0.886742
vt 0.366684 0.886996
vt 0.300243 0.924523
vt 0.300267 0.924214
vt 0.300274 0.924450
vt 0.680753 0.676306
vt 0.680758 0.676099
vt 0.680755 0.676517
vt 0.680762 0.676699
vt 0.680698 0.676747
vt 0.679941 0.681804
vt 0.680494 0.681821
vt 0.679940 0.681823
vt 0.576566 0.663706
vt 0.612405 0.677836
vt 0.576607 0.677836
vt 0.682376 0.682157
vt 0.682352 0.681764
vt 0.682376 0.681722
vt 0.629667 0.649146
vt 0.661952 0.631522
vt 0.661952 0.654187
vt 0.363684 0.894063
vt 0.364004 0.892267
vt 0.364004 0.894060
vt 0.301547 0.919782
vt 0.303342 0.919323
vt 0.303342 0.919782
vt 0.301701 0.924768
vt 0.301366 0.922972
vt 0.301701 0.922973
vt 0.680261 0.664005
vt 0.682113 0.663661
vt 0.682113 0.664005
vt 0.680765 0.678316
vt 0.680713 0.678862
vt 0.651233 0.661800
vt 0.651419 0.665555
vt 0.651239 0.665735
vt 0.632503 0.654187
vt 0.680768 0.678535
vt 0.680769 0.678066
vt 0.301490 0.919819
vt 0.301547 0.919323
vt 0.681837 0.676175
vt 0.681794 0.676243
vt 0.681794 0.676096
vt 0.681837 0.675997
vt 0.681818 0.675879
vt 0.624283 0.658750
vt 0.577684 0.663386
vt 0.577431 0.658750
vt 0.680544 0.683917
vt 0.680524 0.682548
vt 0.680530 0.681803
vt 0.263789 0.921787
vt 0.264470 0.922140
vt 0.263799 0.922140
vt 0.263780 0.915359
vt 0.264444 0.915968
vt 0.263780 0.915968
vt 0.263884 0.922222
vt 0.264484 0.922222
vt 0.263796 0.920472
vt 0.264457 0.921145
vt 0.263787 0.921146
vt 0.264454 0.916537
vt 0.263790 0.916537
vt 0.267717 0.921326
vt 0.267052 0.920562
vt 0.267717 0.920562
vt 0.267997 0.918247
vt 0.268506 0.919005
vt 0.267835 0.919005
vt 0.263976 0.916670
vt 0.264472 0.916670
vt 0.263790 0.914808
vt 0.264444 0.915358
vt 0.264460 0.921787
vt 0.269019 0.918247
vt 0.268987 0.920041
vt 0.268987 0.918320
vt 0.268970 0.919520
vt 0.268970 0.918913
vt 0.268709 0.914506
vt 0.268741 0.916165
vt 0.268715 0.916154
vt 0.268693 0.915222
vt 0.268698 0.915849
vt 0.263976 0.920292
vt 0.265789 0.920291
vt 0.264485 0.920292
vt 0.265789 0.922444
vt 0.263938 0.922445
vt 0.264472 0.914823
vt 0.265789 0.916669
vt 0.265789 0.914567
vt 0.263808 0.914823
vt 0.264101 0.914567
vt 0.680373 0.682040
vt 0.679924 0.682060
vt 0.679926 0.682041
vt 0.986778 0.881277
vt 0.988743 0.993239
vt 0.986715 0.993239
vt 0.681839 0.681764
vt 0.681786 0.681722
vt 0.937390 0.882079
vt 0.935475 0.994874
vt 0.935032 0.882079
vt 0.681935 0.682118
vt 0.682350 0.682118
vt 0.681903 0.682157
vt 0.952268 0.881007
vt 0.950421 0.993114
vt 0.949799 0.881007
vt 0.680411 0.682582
vt 0.680409 0.683859
vt 0.680397 0.682059
vt 0.680519 0.681872
vt 0.680408 0.682077
vt 0.680533 0.683871
vt 0.649452 0.672558
vt 0.672251 0.684999
vt 0.653279 0.684999
vt 0.302833 0.984937
vt 0.307698 0.980072
vt 0.307698 0.984937
vt 0.236306 0.951208
vt 0.248159 0.939354
vt 0.248159 0.951208
vt 0.297482 0.984937
vt 0.302347 0.980072
vt 0.302347 0.984937
vt 0.297482 0.995640
vt 0.302347 0.990775
vt 0.302347 0.995640
vt 0.307698 0.990289
vt 0.302833 0.985424
vt 0.307698 0.985424
vt 0.578595 0.631433
vt 0.610139 0.647637
vt 0.578595 0.647637
vt 0.627960 0.667856
vt 0.627965 0.667845
vt 0.629600 0.667761
vt 0.628003 0.667756
vt 0.364702 0.886419
vt 0.298285 0.923891
vt 0.302748 0.924213
vt 0.612365 0.663706
vt 0.629667 0.631522
vt 0.363684 0.892213
vt 0.301366 0.924824
vt 0.680261 0.663661
vt 0.651419 0.661933
vt 0.301490 0.919309
vt 0.681837 0.676566
vt 0.681837 0.675876
vt 0.624522 0.663386
vt 0.680526 0.682857
vt 0.264467 0.920472
vt 0.267052 0.921326
vt 0.268506 0.918247
vt 0.264454 0.914808
vt 0.269019 0.920086
vt 0.268741 0.914240
vt 0.989289 0.881277
vt 0.937380 0.994874
vt 0.952268 0.993114
vt 0.680420 0.683823
vt 0.672251 0.672558
vt 0.302833 0.980072
vt 0.236306 0.939354
vt 0.297482 0.980072
vt 0.297482 0.990775
vt 0.302833 0.990289
vt 0.610139 0.631433
vt 0.627999 0.667766
vt 0.616602 0.674192
vt 0.616874 0.674052
vt 0.629565 0.667840
vt 0.629648 0.667851
vt 0.629691 0.667752
vt 0.366389 0.886731
vt 0.366390 0.886414
vt 0.299949 0.923941
vt 0.299973 0.923886
vt 0.301056 0.923887
vt 0.301059 0.924214
vt 0.300763 0.924217
vt 0.300766 0.924470
vt 0.300243 0.924269
vt 0.616866 0.676108
vt 0.617042 0.676075
vt 0.680655 0.676006
vt 0.680640 0.676041
vt 0.680716 0.676143
vt 0.366684 0.886996
vt 0.366685 0.886742
vt 0.300243 0.924523
vt 0.300274 0.924450
vt 0.300267 0.924214
vt 0.680753 0.676306
vt 0.680758 0.676099
vt 0.680755 0.676517
vt 0.680762 0.676699
vt 0.680698 0.676747
vt 0.680494 0.681821
vt 0.576566 0.663706
vt 0.682352 0.681764
vt 0.629667 0.649146
vt 0.364004 0.892267
vt 0.301547 0.919782
vt 0.301701 0.924768
vt 0.680261 0.664005
vt 0.680713 0.678862
vt 0.680765 0.678316
vt 0.651233 0.661800
vt 0.651239 0.665735
vt 0.651419 0.665555
vt 0.632503 0.654187
vt 0.680768 0.678535
vt 0.680769 0.678066
vt 0.301490 0.919819
vt 0.301547 0.919323
vt 0.681837 0.676175
vt 0.681794 0.676096
vt 0.681794 0.676243
vt 0.681837 0.675997
vt 0.681818 0.675879
vt 0.624283 0.658750
vt 0.577431 0.658750
vt 0.577684 0.663386
vt 0.680544 0.683917
vt 0.680530 0.681803
vt 0.680524 0.682548
vt 0.263789 0.921787
vt 0.263799 0.922140
vt 0.264470 0.922140
vt 0.263780 0.915359
vt 0.263780 0.915968
vt 0.264444 0.915968
vt 0.263884 0.922222
vt 0.264484 0.922222
vt 0.263796 0.920472
vt 0.263787 0.921146
vt 0.264457 0.921145
vt 0.263790 0.916537
vt 0.264454 0.916537
vt 0.267717 0.921326
vt 0.267717 0.920562
vt 0.267052 0.920562
vt 0.267997 0.918247
vt 0.267835 0.919005
vt 0.268506 0.919005
vt 0.263976 0.916670
vt 0.264472 0.916670
vt 0.263790 0.914808
vt 0.264444 0.915358
vt 0.264460 0.921787
vt 0.269019 0.918247
vt 0.268987 0.918320
vt 0.268987 0.920041
vt 0.268970 0.918913
vt 0.268970 0.919520
vt 0.268709 0.914506
vt 0.268715 0.916154
vt 0.268741 0.916165
vt 0.268693 0.915222
vt 0.268698 0.915849
vt 0.263976 0.920292
vt 0.264485 0.920292
vt 0.263938 0.922445
vt 0.264472 0.914823
vt 0.263808 0.914823
vt 0.264101 0.914567
vt 0.680373 0.682040
vt 0.988743 0.993239
vt 0.681786 0.681722
vt 0.681839 0.681764
vt 0.937390 0.882079
vt 0.935032 0.882079
vt 0.935475 0.994874
vt 0.682350 0.682118
vt 0.681935 0.682118
vt 0.681903 0.682157
vt 0.952268 0.881007
vt 0.949799 0.881007
vt 0.950421 0.993114
vt 0.680411 0.682582
vt 0.680397 0.682059
vt 0.680409 0.683859
vt 0.680408 0.682077
vt 0.680519 0.681872
vt 0.680533 0.683871
vt 0.649452 0.672558
vt 0.653279 0.684999
vt 0.672251 0.684999
vt 0.302833 0.984937
vt 0.307698 0.984937
vt 0.307698 0.980072
vt 0.236306 0.951208
vt 0.248159 0.951208
vt 0.248159 0.939354
vt 0.297482 0.984937
vt 0.302347 0.984937
vt 0.302347 0.980072
vt 0.297482 0.995640
vt 0.302347 0.995640
vt 0.302347 0.990775
vt 0.307698 0.990289
vt 0.307698 0.985424
vt 0.302833 0.985424
vt 0.610139 0.647637
vt 0.629600 0.667761
vt 0.612365 0.663706
vt 0.629667 0.631522
vt 0.363684 0.892213
vt 0.301366 0.924824
vt 0.680261 0.663661
vt 0.651419 0.661933
vt 0.301490 0.919309
vt 0.681837 0.676566
vt 0.681837 0.675876
vt 0.624522 0.663386
vt 0.680526 0.682857
vt 0.264467 0.920472
vt 0.267052 0.921326
vt 0.268506 0.918247
vt 0.264454 0.914808
vt 0.269019 0.920086
vt 0.268741 0.914240
vt 0.989289 0.881277
vt 0.937380 0.994874
vt 0.952268 0.993114
vt 0.680420 0.683823
vt 0.672251 0.672558
vt 0.302833 0.980072
vt 0.236306 0.939354
vt 0.297482 0.980072
vt 0.297482 0.990775
vt 0.302833 0.990289
vt 0.610139 0.631433
vn 0.0000 0.9836 0.1801
vn 0.2594 0.7803 0.5690
vn 0.0000 0.5946 0.8040
vn 0.3479 0.8474 0.4011
vn -0.0000 0.0000 1.0000
vn 0.0000 0.9844 0.1761
vn 0.0668 0.9822 0.1757
vn 0.1235 0.9753 0.1831
vn 0.0000 -0.9261 0.3774
vn 0.2316 -0.8932 0.3853
vn 0.1352 -0.9176 0.3739
vn 0.3840 -0.8323 0.3997
vn 0.3783 -0.8181 0.4331
vn 0.7483 -0.0002 0.6634
vn 0.9432 -0.0001 0.3321
vn 0.7481 -0.0000 0.6636
vn 0.8739 0.4754 0.1018
vn 0.8874 0.4504 0.0988
vn 0.7209 0.0836 0.6880
vn 0.9241 0.2628 0.2775
vn 0.8849 0.2657 0.3826
vn 0.2072 0.9571 0.2024
vn 0.2074 0.9538 0.2176
vn 1.0000 -0.0000 0.0000
vn 0.9518 -0.0002 0.3066
vn 0.9855 0.1675 0.0266
vn 0.8436 0.1198 0.5234
vn 0.9898 0.1405 -0.0235
vn 0.9942 0.1038 -0.0288
vn 0.9893 0.1456 -0.0029
vn 0.0000 0.4472 0.8944
vn 0.0000 1.0000 0.0000
vn 0.0000 0.3756 -0.9268
vn -0.1119 0.3260 -0.9387
vn -0.0000 0.2729 -0.9620
vn 0.0000 0.0000 -1.0000
vn 0.0000 0.9968 -0.0796
vn 0.0000 -0.9971 -0.0768
vn 0.0000 -0.4979 -0.8673
vn 0.9930 0.1184 0.0003
vn 0.9950 0.0710 -0.0708
vn 0.9782 -0.2074 -0.0015
vn 0.9929 0.0884 -0.0790
vn 0.9990 0.0415 0.0170
vn 0.9854 -0.0016 -0.1705
vn 0.9856 -0.0025 -0.1692
vn 0.9849 0.0000 -0.1729
vn 0.9826 0.0271 -0.1839
vn 0.9797 0.0456 -0.1953
vn 0.9737 -0.0605 -0.2198
vn 0.9718 -0.1070 -0.2103
vn 0.8919 0.4521 0.0000
vn 0.9654 0.2607 -0.0000
vn 0.0000 -0.8701 0.4928
vn 0.0000 -0.3942 0.9190
vn 0.0000 -0.4045 0.9145
vn 0.0000 -0.9533 -0.3020
vn 0.0000 -0.9536 0.3010
vn 0.0000 -0.1122 0.9937
vn 0.0000 -0.8680 -0.4965
vn 0.0000 -0.9837 -0.1799
vn 0.0000 -0.8188 0.5741
vn 0.0000 -0.4605 -0.8876
vn 0.0000 -0.2472 -0.9690
vn 0.0000 -0.1521 0.9884
vn 0.0000 -1.0000 -0.0000
vn -0.0030 -0.9999 -0.0122
vn 0.0016 -1.0000 -0.0095
vn 0.0590 0.3324 -0.9413
vn 0.0760 0.3148 -0.9461
vn -0.0070 0.3801 -0.9249
vn 0.0133 0.3819 -0.9241
vn -0.0005 0.3779 -0.9258
vn -1.0000 -0.0000 0.0000
vn 0.9766 -0.2149 -0.0000
vn 0.9859 -0.0040 -0.1671
vn 0.9641 -0.1322 -0.2302
vn -0.2594 0.7803 0.5690
vn -0.3479 0.8474 0.4011
vn -0.1235 0.9753 0.1831
vn -0.0668 0.9822 0.1757
vn -0.1352 -0.9176 0.3739
vn -0.2316 -0.8932 0.3853
vn -0.3840 -0.8323 0.3997
vn -0.3783 -0.8181 0.4331
vn -0.7483 -0.0002 0.6634
vn -0.7481 -0.0000 0.6636
vn -0.9432 -0.0001 0.3321
vn -0.8874 0.4504 0.0988
vn -0.8739 0.4754 0.1018
vn -0.7209 0.0836 0.6880
vn -0.8849 0.2657 0.3826
vn -0.9241 0.2628 0.2775
vn -0.2074 0.9538 0.2176
vn -0.2072 0.9571 0.2024
vn -0.9518 -0.0002 0.3066
vn -0.9855 0.1675 0.0266
vn -0.8436 0.1198 0.5234
vn -0.9898 0.1405 -0.0235
vn -0.9942 0.1038 -0.0288
vn -0.9893 0.1456 -0.0029
vn 0.1119 0.3260 -0.9387
vn -0.9950 0.0710 -0.0708
vn -0.9930 0.1184 0.0003
vn -0.9782 -0.2074 -0.0015
vn -0.9929 0.0884 -0.0790
vn -0.9990 0.0415 0.0170
vn -0.9854 -0.0016 -0.1705
vn -0.9849 0.0000 -0.1729
vn -0.9856 -0.0025 -0.1692
vn -0.9826 0.0271 -0.1839
vn -0.9797 0.0456 -0.1953
vn -0.9737 -0.0605 -0.2198
vn -0.9718 -0.1070 -0.2103
vn -0.8919 0.4521 0.0000
vn -0.9654 0.2607 -0.0000
vn 0.0030 -0.9999 -0.0122
vn -0.0016 -1.0000 -0.0095
vn -0.0760 0.3148 -0.9461
vn -0.0590 0.3324 -0.9413
vn 0.0070 0.3801 -0.9249
vn -0.0133 0.3819 -0.9241
vn 0.0005 0.3779 -0.9258
vn -0.9766 -0.2149 -0.0000
vn -0.9859 -0.0040 -0.1671
vn -0.9641 -0.1322 -0.2302
s 1
f 81/161/49 149/162/49 147/163/49
f 81/161/50 151/164/51 83/165/52
f 145/166/53 84/167/53 83/168/53
f 153/169/54 85/170/55 84/171/56
f 155/172/53 86/173/53 85/174/53
f 157/175/57 87/176/58 86/177/59
f 89/178/60 87/176/58 88/179/61
f 86/173/62 90/180/63 85/174/64
f 81/161/50 96/181/65 82/182/66
f 84/183/67 97/184/68 83/185/69
f 84/171/56 90/186/70 91/187/71
f 91/188/72 89/189/73 88/190/72
f 92/191/74 97/184/68 91/192/75
f 93/193/76 97/184/68 92/191/74
f 94/194/77 96/195/78 93/193/76
f 96/195/78 83/185/69 97/184/68
f 149/196/79 126/197/79 210/198/79
f 98/199/80 173/200/80 171/201/80
f 173/202/81 130/203/82 175/204/83
f 108/205/84 177/206/84 175/207/84
f 177/208/85 102/209/85 179/210/85
f 102/211/84 181/212/84 179/213/84
f 103/214/86 183/215/86 181/216/86
f 104/217/87 185/218/87 183/219/87
f 96/195/78 112/220/88 108/221/89
f 94/222/90 107/223/90 106/224/90
f 175/207/84 100/225/84 108/205/84
f 112/220/88 111/226/91 108/221/89
f 96/195/78 106/227/92 112/220/88
f 101/228/93 103/229/94 102/211/95
f 101/230/96 111/231/91 110/232/97
f 101/230/96 110/232/97 104/233/98
f 109/234/99 104/233/98 110/232/97
f 108/235/100 82/236/66 96/237/65
f 100/238/101 136/239/101 82/240/101
f 111/241/102 122/242/103 110/243/104
f 92/244/105 116/245/106 93/246/106
f 109/247/107 122/242/103 121/248/107
f 106/249/108 124/250/109 112/251/109
f 93/246/106 117/252/110 94/253/110
f 88/254/84 114/255/111 91/256/111
f 107/257/112 119/258/112 106/259/112
f 95/260/113 117/252/113 118/261/113
f 91/262/111 115/263/105 92/244/105
f 112/251/109 123/264/102 111/241/102
f 113/265/72 117/266/72 114/267/72
f 114/267/72 116/268/72 115/269/72
f 119/270/72 121/271/72 122/272/72
f 124/273/72 122/272/72 123/274/72
f 118/261/114 107/275/114 95/260/114
f 118/261/114 207/276/114 120/277/114
f 120/277/115 207/276/115 121/248/115
f 207/276/116 185/278/116 121/248/116
f 105/279/114 121/248/114 185/278/114
f 118/261/114 113/280/114 206/281/114
f 159/282/114 206/281/114 113/280/114
f 88/283/114 87/284/114 113/280/114
f 159/282/114 113/280/114 87/284/114
f 125/285/79 171/286/79 208/287/79
f 210/288/79 125/289/79 208/290/79
f 175/204/83 129/291/117 100/292/118
f 130/293/82 128/294/119 129/295/117
f 173/202/81 128/296/119 127/297/120
f 99/298/121 129/291/117 128/296/119
f 136/299/101 131/300/101 134/301/101
f 135/302/101 99/303/101 98/304/101
f 98/304/101 134/305/101 131/306/101
f 99/303/101 133/307/101 100/238/101
f 136/308/101 132/309/101 135/310/101
f 138/311/122 139/312/122 137/313/122
f 140/314/84 143/315/84 139/316/84
f 144/317/72 141/318/72 143/319/72
f 143/320/114 137/321/114 139/322/114
f 140/323/80 142/324/80 144/325/80
f 126/197/79 98/304/79 125/285/79
f 231/326/53 145/327/53 230/328/53
f 145/166/53 151/329/53 230/330/53
f 146/331/53 153/332/53 84/167/53
f 81/161/49 82/182/49 149/162/49
f 81/161/50 147/163/51 151/164/51
f 145/166/53 146/331/53 84/167/53
f 153/169/54 155/333/54 85/170/55
f 155/172/53 157/334/53 86/173/53
f 157/175/57 159/335/57 87/176/58
f 89/178/60 86/177/59 87/176/58
f 86/173/62 89/189/73 90/180/63
f 81/161/50 83/165/52 96/181/65
f 84/183/67 91/192/75 97/184/68
f 84/171/56 85/170/55 90/186/70
f 91/188/72 90/180/63 89/189/73
f 93/193/76 96/195/78 97/184/68
f 149/196/79 82/240/79 126/197/79
f 98/199/80 99/336/80 173/200/80
f 173/202/81 127/297/120 130/203/82
f 108/205/84 101/337/84 177/206/84
f 177/208/85 101/338/85 102/209/85
f 102/211/84 103/229/84 181/212/84
f 103/214/86 104/339/86 183/215/86
f 104/217/87 105/340/87 185/218/87
f 94/222/123 95/341/123 107/223/123
f 96/195/78 94/194/77 106/227/92
f 101/228/93 104/342/124 103/229/94
f 101/230/96 108/343/89 111/231/91
f 109/234/99 105/344/125 104/233/98
f 108/235/100 100/345/100 82/236/66
f 134/305/101 82/240/101 136/239/101
f 100/238/101 133/346/101 136/239/101
f 111/241/102 123/264/102 122/242/103
f 92/244/105 115/263/105 116/245/106
f 109/247/107 110/243/104 122/242/103
f 106/249/108 119/347/108 124/250/109
f 93/246/106 116/245/106 117/252/110
f 88/254/84 113/348/84 114/255/111
f 107/257/112 120/349/112 119/258/112
f 95/260/113 94/253/113 117/252/113
f 91/262/111 114/350/111 115/263/105
f 112/251/109 124/250/109 123/264/102
f 113/265/72 118/351/72 117/266/72
f 114/267/72 117/266/72 116/268/72
f 119/270/72 120/352/72 121/271/72
f 124/273/72 119/270/72 122/272/72
f 118/261/114 120/277/114 107/275/114
f 118/261/114 206/281/114 207/276/114
f 105/279/114 109/247/114 121/248/114
f 125/285/79 98/304/79 171/286/79
f 210/288/79 126/353/79 125/289/79
f 175/204/83 130/203/82 129/291/117
f 130/293/82 127/354/120 128/294/119
f 173/202/81 99/298/121 128/296/119
f 99/298/121 100/292/118 129/291/117
f 136/299/101 135/355/101 131/300/101
f 98/304/101 131/306/101 135/302/101
f 135/302/101 132/356/101 99/303/101
f 98/304/101 82/240/101 134/305/101
f 99/303/101 132/356/101 133/307/101
f 136/308/101 133/357/101 132/309/101
f 138/311/122 140/358/122 139/312/122
f 140/314/84 144/359/84 143/315/84
f 144/317/72 142/360/72 141/318/72
f 143/320/114 141/361/114 137/321/114
f 140/323/80 138/362/80 142/324/80
f 126/197/79 82/240/79 98/304/79
f 231/326/53 146/363/53 145/327/53
f 145/166/53 83/168/53 151/329/53
f 146/331/53 231/364/53 153/332/53
f 148/365/49 147/163/49 149/162/49
f 148/365/126 152/366/127 151/164/51
f 232/367/53 152/368/53 154/369/53
f 153/169/54 154/370/128 156/371/129
f 155/172/53 156/372/53 158/373/53
f 157/175/57 158/374/130 160/375/131
f 162/376/132 161/377/133 160/375/131
f 158/373/134 156/372/135 163/378/136
f 148/365/126 150/379/137 169/380/138
f 154/381/139 152/382/140 170/383/141
f 154/370/128 164/384/142 163/385/143
f 164/386/122 161/387/122 162/388/144
f 165/389/145 164/390/146 170/383/141
f 166/391/147 165/389/145 170/383/141
f 167/392/148 166/391/147 169/393/149
f 169/393/149 170/383/141 152/382/140
f 149/196/79 210/198/79 211/394/79
f 172/395/80 171/201/80 173/200/80
f 173/202/81 175/204/83 215/396/150
f 189/397/84 175/207/84 177/206/84
f 177/208/85 179/210/85 180/398/85
f 180/399/84 179/213/84 181/212/84
f 182/400/86 181/216/86 183/215/86
f 184/401/87 183/219/87 185/218/87
f 169/393/149 189/402/151 193/403/152
f 167/404/153 187/405/153 188/406/153
f 175/207/84 189/397/84 176/407/84
f 193/403/152 189/402/151 192/408/154
f 169/393/149 193/403/152 187/409/155
f 178/410/156 180/399/157 182/411/158
f 178/412/159 191/413/160 192/414/154
f 178/412/159 184/415/161 191/413/160
f 190/416/162 191/413/160 184/415/161
f 189/417/163 169/418/138 150/419/137
f 176/420/164 150/421/164 221/422/164
f 192/423/102 191/424/104 203/425/103
f 165/426/105 166/427/106 197/428/106
f 190/429/107 202/430/107 203/425/103
f 187/431/108 193/432/109 205/433/109
f 166/427/106 167/434/110 198/435/110
f 161/436/84 164/437/111 195/438/111
f 188/439/112 187/440/112 200/441/112
f 168/442/113 199/443/113 198/435/113
f 164/444/111 165/426/105 196/445/105
f 193/432/109 192/423/102 204/446/102
f 194/447/122 195/448/122 198/449/122
f 195/448/122 196/450/122 197/451/122
f 200/452/122 203/453/122 202/454/122
f 205/455/122 204/456/122 203/453/122
f 199/443/114 168/442/114 188/457/114
f 199/443/114 201/458/114 207/276/114
f 201/458/165 202/430/165 207/276/165
f 207/276/166 202/430/166 185/278/166
f 186/459/114 185/278/114 202/430/114
f 199/443/114 206/281/114 194/460/114
f 159/282/114 194/460/114 206/281/114
f 161/461/114 194/460/114 160/462/114
f 159/282/114 160/462/114 194/460/114
f 209/463/79 208/287/79 171/286/79
f 210/288/79 208/290/79 209/464/79
f 175/204/83 176/465/167 214/466/168
f 215/467/150 214/468/168 213/469/169
f 173/202/81 212/470/170 213/471/169
f 174/472/171 213/471/169 214/466/168
f 221/473/164 219/474/164 216/475/164
f 220/476/164 172/477/164 174/478/164
f 172/477/164 216/479/164 219/480/164
f 174/478/164 176/420/164 218/481/164
f 221/482/164 220/483/164 217/484/164
f 223/485/72 222/486/72 224/487/72
f 225/488/84 224/489/84 228/490/84
f 229/491/122 228/492/122 226/493/122
f 228/494/114 224/495/114 222/496/114
f 225/497/80 229/498/80 227/499/80
f 211/394/79 209/463/79 172/477/79
f 231/326/53 230/328/53 232/500/53
f 232/367/53 230/330/53 151/329/53
f 233/501/53 154/369/53 153/332/53
f 148/365/49 149/162/49 150/379/49
f 148/365/126 151/164/51 147/163/51
f 232/367/53 154/369/53 233/501/53
f 153/169/54 156/371/129 155/333/54
f 155/172/53 158/373/53 157/334/53
f 157/175/57 160/375/131 159/335/57
f 162/376/132 160/375/131 158/374/130
f 158/373/134 163/378/136 162/388/144
f 148/365/126 169/380/138 152/366/127
f 154/381/139 170/383/141 164/390/146
f 154/370/128 163/385/143 156/371/129
f 164/386/122 162/388/144 163/378/136
f 166/391/147 170/383/141 169/393/149
f 149/196/79 211/394/79 150/421/79
f 172/395/80 173/200/80 174/502/80
f 173/202/81 215/396/150 212/470/170
f 189/397/84 177/206/84 178/503/84
f 177/208/85 180/398/85 178/504/85
f 180/399/84 181/212/84 182/411/84
f 182/400/86 183/215/86 184/505/86
f 184/401/87 185/218/87 186/506/87
f 167/404/172 188/406/172 168/507/172
f 169/393/149 187/409/155 167/392/148
f 178/410/156 182/411/158 184/508/173
f 178/412/159 192/414/154 189/509/151
f 190/416/162 184/415/161 186/510/174
f 189/417/163 150/419/137 176/511/163
f 219/480/164 221/422/164 150/421/164
f 176/420/164 221/422/164 218/512/164
f 192/423/102 203/425/103 204/446/102
f 165/426/105 197/428/106 196/445/105
f 190/429/107 203/425/103 191/424/104
f 187/431/108 205/433/109 200/513/108
f 166/427/106 198/435/110 197/428/106
f 161/436/84 195/438/111 194/514/84
f 188/439/112 200/441/112 201/515/112
f 168/442/113 198/435/113 167/434/113
f 164/444/111 196/445/105 195/516/111
f 193/432/109 204/446/102 205/433/109
f 194/447/122 198/449/122 199/517/122
f 195/448/122 197/451/122 198/449/122
f 200/452/122 202/454/122 201/518/122
f 205/455/122 203/453/122 200/452/122
f 199/443/114 188/457/114 201/458/114
f 199/443/114 207/276/114 206/281/114
f 186/459/114 202/430/114 190/429/114
f 209/463/79 171/286/79 172/477/79
f 210/288/79 209/464/79 211/519/79
f 175/204/83 214/466/168 215/396/150
f 215/467/150 213/469/169 212/520/170
f 173/202/81 213/471/169 174/472/171
f 174/472/171 214/466/168 176/465/167
f 221/473/164 216/475/164 220/521/164
f 172/477/164 220/476/164 216/479/164
f 220/476/164 174/478/164 217/522/164
f 172/477/164 219/480/164 150/421/164
f 174/478/164 218/481/164 217/522/164
f 221/482/164 217/484/164 218/523/164
f 223/485/72 224/487/72 225/524/72
f 225/488/84 228/490/84 229/525/84
f 229/491/122 226/493/122 227/526/122
f 228/494/114 222/496/114 226/527/114
f 225/497/80 227/499/80 223/528/80
f 211/394/79 172/477/79 150/421/79
f 231/326/53 232/500/53 233/529/53
f 232/367/53 151/329/53 152/368/53
f 233/501/53 153/332/53 231/364/53
