texture textures/cars.png
v 0.374464 0.402183 0.607320
v 0.469360 0.402183 0.607320
v 0.374464 0.325401 0.501638
v 0.469360 0.325401 0.501638
v 0.374464 0.201165 0.461272
v 0.469360 0.201165 0.461272
v 0.374464 0.076929 0.501638
v 0.469360 0.076929 0.501638
v 0.374464 0.000146 0.607320
v 0.469360 0.000146 0.607320
v 0.374464 0.000146 0.737949
v 0.469360 0.000146 0.737949
v 0.374464 0.076928 0.843631
v 0.469360 0.076928 0.843631
v 0.374464 0.201164 0.883997
v 0.469360 0.201164 0.883997
v 0.374464 0.325400 0.843631
v 0.469360 0.325400 0.843631
v 0.374464 0.402183 0.737949
v 0.469360 0.402183 0.737949
vt 0.612156 0.971647
vt 0.524372 0.959848
vt 0.524372 0.971647
vt 0.612156 0.959848
vt 0.524372 0.940757
vt 0.612156 0.921665
vt 0.524372 0.921665
vt 0.524372 0.909866
vt 0.612156 0.909866
vt 0.524372 0.909866
vt 0.612156 0.909866
vt 0.524372 0.921665
vt 0.612156 0.940757
vt 0.524372 0.940757
vt 0.524372 0.959848
vt 0.612156 0.959848
vt 0.524372 0.971647
vt 0.512421 0.891662
vt 0.519896 0.891662
vt 0.518469 0.897068
vt 0.250082 0.022727
vt 0.250082 0.477273
vt 0.116495 0.433868
vt 0.612156 0.940757
vt 0.612156 0.921665
vt 0.612156 0.971647
vt 0.516159 0.897992
vt 0.513849 0.897068
vt 0.512421 0.894650
vt 0.513849 0.889244
vt 0.516159 0.888320
vt 0.518469 0.889244
vt 0.519896 0.894650
vt 0.033933 0.320231
vt 0.033933 0.179769
vt 0.116495 0.066133
vt 0.383670 0.066133
vt 0.466232 0.179769
vt 0.466232 0.320231
vt 0.383670 0.433867
vn 0.0000 0.9511 -0.3090
vn 0.0000 0.5878 -0.8090
vn 0.0000 0.0000 -1.0000
vn 0.0000 -0.5878 -0.8090
vn 0.0000 -0.9511 -0.3090
vn 0.0000 -0.9511 0.3090
vn 0.0000 -0.5878 0.8090
vn 0.0000 -0.0000 1.0000
vn 0.0000 0.5878 0.8090
vn 0.0000 0.9511 0.3090
vn -1.0000 -0.0000 0.0000
vn 1.0000 -0.0000 -0.0000
s 1
f 2/1/1 3/2/2 1/3/1
f 4/4/2 5/5/3 3/2/2
f 5/5/3 8/6/4 7/7/4
f 8/6/4 9/8/5 7/7/4
f 10/9/5 11/10/6 9/8/5
f 12/11/6 13/12/7 11/10/6
f 13/12/7 16/13/8 15/14/8
f 16/13/8 17/15/9 15/14/8
f 18/16/9 19/17/10 17/15/9
f 19/17/10 2/1/1 1/3/1
f 7/18/11 15/19/11 19/20/11
f 18/21/12 8/22/12 6/23/12
f 2/1/1 4/4/2 3/2/2
f 4/4/2 6/24/3 5/5/3
f 5/5/3 6/24/3 8/6/4
f 8/6/4 10/9/5 9/8/5
f 10/9/5 12/11/6 11/10/6
f 12/11/6 14/25/7 13/12/7
f 13/12/7 14/25/7 16/13/8
f 16/13/8 18/16/9 17/15/9
f 18/16/9 20/26/10 19/17/10
f 19/17/10 20/26/10 2/1/1
f 19/20/11 1/27/11 3/28/11
f 3/28/11 5/29/11 7/18/11
f 7/18/11 9/30/11 11/31/11
f 11/31/11 13/32/11 7/18/11
f 15/19/11 17/33/11 19/20/11
f 19/20/11 3/28/11 7/18/11
f 7/18/11 13/32/11 15/19/11
f 6/23/12 4/34/12 18/21/12
f 2/35/12 20/36/12 18/21/12
f 18/21/12 16/37/12 14/38/12
f 14/38/12 12/39/12 10/40/12
f 10/40/12 8/22/12 18/21/12
f 4/34/12 2/35/12 18/21/12
f 18/21/12 14/38/12 10/40/12
o RLW_Cylinder.007
v 0.374464 0.402183 -0.705504
v 0.469360 0.402183 -0.705504
v 0.374464 0.325401 -0.811186
v 0.469360 0.325401 -0.811186
v 0.374464 0.201165 -0.851552
v 0.469360 0.201165 -0.851552
v 0.374464 0.076929 -0.811186
v 0.469360 0.076929 -0.811186
v 0.374464 0.000147 -0.705504
v 0.469360 0.000147 -0.705504
v 0.374464 0.000147 -0.574875
v 0.469360 0.000147 -0.574875
v 0.374464 0.076929 -0.469194
v 0.469360 0.076929 -0.469194
v 0.374464 0.201165 -0.428827
v 0.469360 0.201165 -0.428827
v 0.374464 0.325401 -0.469194
v 0.469360 0.325401 -0.469194
v 0.374464 0.402183 -0.574875
v 0.469360 0.402183 -0.574875
vt 0.612156 0.971647
vt 0.524372 0.959848
vt 0.524372 0.971647
vt 0.612156 0.959848
vt 0.524372 0.940757
vt 0.612156 0.940757
vt 0.524372 0.921665
vt 0.612156 0.921665
vt 0.524372 0.909866
vt 0.612156 0.909866
vt 0.524372 0.909866
vt 0.612156 0.921665
vt 0.524372 0.921665
vt 0.524372 0.940757
vt 0.612156 0.959848
vt 0.524372 0.959848
vt 0.524372 0.971647
vt 0.612156 0.971647
vt 0.512421 0.891662
vt 0.519896 0.891662
vt 0.518469 0.897068
vt 0.250082 0.022727
vt 0.250082 0.477273
vt 0.116495 0.433868
vt 0.612156 0.909866
vt 0.612156 0.940757
vt 0.516159 0.897992
vt 0.513849 0.897068
vt 0.512421 0.894650
vt 0.513849 0.889244
vt 0.516159 0.888320
vt 0.518469 0.889244
vt 0.519896 0.894650
vt 0.033933 0.320231
vt 0.033933 0.179769
vt 0.116495 0.066133
vt 0.383670 0.066133
vt 0.466232 0.179769
vt 0.466232 0.320231
vt 0.383670 0.433867
vn 0.0000 0.9511 -0.3090
vn 0.0000 0.5878 -0.8090
vn -0.0000 0.0000 -1.0000
vn 0.0000 -0.5878 -0.8090
vn 0.0000 -0.9511 -0.3090
vn 0.0000 -0.9511 0.3090
vn 0.0000 -0.5878 0.8090
vn 0.0000 -0.0000 1.0000
vn 0.0000 0.5878 0.8090
vn 0.0000 0.9511 0.3090
vn -1.0000 0.0000 0.0000
vn 1.0000 -0.0000 0.0000
s 1
f 22/41/13 23/42/14 21/43/13
f 24/44/14 25/45/15 23/42/14
f 26/46/15 27/47/16 25/45/15
f 28/48/16 29/49/17 27/47/16
f 29/49/17 32/50/18 31/51/18
f 31/51/18 34/52/19 33/53/19
f 34/52/19 35/54/20 33/53/19
f 35/54/20 38/55/21 37/56/21
f 38/55/21 39/57/22 37/56/21
f 40/58/22 21/43/13 39/57/22
f 27/59/23 35/60/23 39/61/23
f 38/62/24 28/63/24 26/64/24
f 22/41/13 24/44/14 23/42/14
f 24/44/14 26/46/15 25/45/15
f 26/46/15 28/48/16 27/47/16
f 28/48/16 30/65/17 29/49/17
f 29/49/17 30/65/17 32/50/18
f 31/51/18 32/50/18 34/52/19
f 34/52/19 36/66/20 35/54/20
f 35/54/20 36/66/20 38/55/21
f 38/55/21 40/58/22 39/57/22
f 40/58/22 22/41/13 21/43/13
f 39/61/23 21/67/23 23/68/23
f 23/68/23 25/69/23 27/59/23
f 27/59/23 29/70/23 31/71/23
f 31/71/23 33/72/23 27/59/23
f 35/60/23 37/73/23 39/61/23
f 39/61/23 23/68/23 27/59/23
f 27/59/23 33/72/23 35/60/23
f 26/64/24 24/74/24 38/62/24
f 22/75/24 40/76/24 38/62/24
f 38/62/24 36/77/24 34/78/24
f 34/78/24 32/79/24 30/80/24
f 30/80/24 28/63/24 38/62/24
f 24/74/24 22/75/24 38/62/24
f 38/62/24 34/78/24 30/80/24
o RRW_Cylinder.008
v -0.374464 0.402183 -0.574875
v -0.469360 0.402183 -0.574875
v -0.374464 0.325401 -0.469194
v -0.469360 0.325401 -0.469194
v -0.374464 0.201165 -0.428827
v -0.469360 0.201165 -0.428827
v -0.374464 0.076929 -0.469194
v -0.469360 0.076929 -0.469194
v -0.374464 0.000147 -0.574875
v -0.469360 0.000147 -0.574875
v -0.374464 0.000147 -0.705504
v -0.469360 0.000147 -0.705504
v -0.374464 0.076929 -0.811186
v -0.469360 0.076929 -0.811186
v -0.374464 0.201165 -0.851552
v -0.469360 0.201165 -0.851552
v -0.374464 0.325401 -0.811186
v -0.469360 0.325401 -0.811186
v -0.374464 0.402183 -0.705504
v -0.469360 0.402183 -0.705504
vt 0.612156 0.971647
vt 0.524372 0.959848
vt 0.524372 0.971647
vt 0.612156 0.959848
vt 0.524372 0.940757
vt 0.612156 0.940757
vt 0.524372 0.921665
vt 0.612156 0.921665
vt 0.524372 0.909866
vt 0.612156 0.909866
vt 0.524372 0.909866
vt 0.612156 0.909866
vt 0.524372 0.921665
vt 0.612156 0.921665
vt 0.524372 0.940757
vt 0.612156 0.959848
vt 0.524372 0.959848
vt 0.524372 0.971647
vt 0.612156 0.971647
vt 0.512421 0.891662
vt 0.519896 0.891662
vt 0.518469 0.897068
vt 0.250082 0.022727
vt 0.250082 0.477273
vt 0.116495 0.433868
vt 0.612156 0.940757
vt 0.516159 0.897992
vt 0.513849 0.897068
vt 0.512421 0.894650
vt 0.513849 0.889244
vt 0.516159 0.888320
vt 0.518469 0.889244
vt 0.519896 0.894650
vt 0.033933 0.320231
vt 0.033933 0.179769
vt 0.116495 0.066133
vt 0.383670 0.066133
vt 0.466232 0.179769
vt 0.466232 0.320231
vt 0.383670 0.433867
vn 0.0000 0.9511 0.3090
vn 0.0000 0.5878 0.8090
vn -0.0000 -0.0000 1.0000
vn -0.0000 -0.5878 0.8090
vn 0.0000 -0.9511 0.3090
vn 0.0000 -0.9511 -0.3090
vn 0.0000 -0.5878 -0.8090
vn -0.0000 0.0000 -1.0000
vn 0.0000 0.5878 -0.8090
vn 0.0000 0.9511 -0.3090
vn 1.0000 0.0000 0.0000
vn -1.0000 -0.0000 0.0000
s 1
f 42/81/25 43/82/26 41/83/25
f 44/84/26 45/85/27 43/82/26
f 46/86/27 47/87/28 45/85/27
f 48/88/28 49/89/29 47/87/28
f 50/90/29 51/91/30 49/89/29
f 52/92/30 53/93/31 51/91/30
f 54/94/31 55/95/32 53/93/31
f 55/95/32 58/96/33 57/97/33
f 58/96/33 59/98/34 57/97/33
f 60/99/34 41/83/25 59/98/34
f 47/100/35 55/101/35 59/102/35
f 58/103/36 48/104/36 46/105/36
f 42/81/25 44/84/26 43/82/26
f 44/84/26 46/86/27 45/85/27
f 46/86/27 48/88/28 47/87/28
f 48/88/28 50/90/29 49/89/29
f 50/90/29 52/92/30 51/91/30
f 52/92/30 54/94/31 53/93/31
f 54/94/31 56/106/32 55/95/32
f 55/95/32 56/106/32 58/96/33
f 58/96/33 60/99/34 59/98/34
f 60/99/34 42/81/25 41/83/25
f 59/102/35 41/107/35 43/108/35
f 43/108/35 45/109/35 47/100/35
f 47/100/35 49/110/35 51/111/35
f 51/111/35 53/112/35 47/100/35
f 55/101/35 57/113/35 59/102/35
f 59/102/35 43/108/35 47/100/35
f 47/100/35 53/112/35 55/101/35
f 46/105/36 44/114/36 58/103/36
f 42/115/36 60/116/36 58/103/36
f 58/103/36 56/117/36 54/118/36
f 54/118/36 52/119/36 50/120/36
f 50/120/36 48/104/36 58/103/36
f 44/114/36 42/115/36 58/103/36
f 58/103/36 54/118/36 50/120/36
o FRW_Cylinder.009
v -0.374464 0.402183 0.737949
v -0.469360 0.402183 0.737949
v -0.374464 0.325400 0.843631
v -0.469360 0.325400 0.843631
v -0.374464 0.201164 0.883997
v -0.469360 0.201164 0.883997
v -0.374464 0.076928 0.843630
v -0.469360 0.076928 0.843630
v -0.374464 0.000146 0.737949
v -0.469360 0.000146 0.737949
v -0.374464 0.000146 0.607320
v -0.469360 0.000146 0.607320
v -0.374464 0.076929 0.501638
v -0.469360 0.076929 0.501638
v -0.374464 0.201165 0.461272
v -0.469360 0.201164 0.461272
v -0.374464 0.325401 0.501638
v -0.469360 0.325401 0.501638
v -0.374464 0.402183 0.607320
v -0.469360 0.402183 0.607320
vt 0.524372 0.971647
vt 0.612156 0.959848
vt 0.524372 0.959848
vt 0.524372 0.940757
vt 0.612156 0.940757
vt 0.524372 0.921665
vt 0.612156 0.909866
vt 0.524372 0.909866
vt 0.524372 0.909866
vt 0.612156 0.909866
vt 0.524372 0.921665
vt 0.612156 0.940757
vt 0.524372 0.940757
vt 0.612156 0.959848
vt 0.524372 0.959848
vt 0.524372 0.971647
vt 0.612156 0.971647
vt 0.512421 0.891662
vt 0.519896 0.891662
vt 0.518469 0.897068
vt 0.250082 0.022727
vt 0.250082 0.477273
vt 0.116495 0.433868
vt 0.612156 0.971647
vt 0.612156 0.921665
vt 0.612156 0.921665
vt 0.516159 0.897992
vt 0.513849 0.897068
vt 0.512421 0.894650
vt 0.513849 0.889244
vt 0.516159 0.888320
vt 0.518469 0.889244
vt 0.519896 0.894650
vt 0.033933 0.320231
vt 0.033933 0.179769
vt 0.116495 0.066133
vt 0.383670 0.066133
vt 0.466232 0.179769
vt 0.466232 0.320231
vt 0.383670 0.433867
vn 0.0000 0.9511 0.3090
vn 0.0000 0.5878 0.8090
vn 0.0000 -0.0000 1.0000
vn 0.0000 -0.5878 0.8090
vn 0.0000 -0.9511 0.3090
vn 0.0000 -0.9511 -0.3090
vn 0.0000 -0.5878 -0.8090
vn 0.0000 0.0000 -1.0000
vn 0.0000 0.5878 -0.8090
vn 0.0000 0.9511 -0.3090
vn 1.0000 0.0000 -0.0000
vn -1.0000 -0.0000 0.0000
s 1
f 61/121/37 64/122/38 63/123/38
f 64/122/38 65/124/39 63/123/38
f 66/125/39 67/126/40 65/124/39
f 67/126/40 70/127/41 69/128/41
f 70/127/41 71/129/42 69/128/41
f 72/130/42 73/131/43 71/129/42
f 73/131/43 76/132/44 75/133/44
f 75/133/44 78/134/45 77/135/45
f 78/134/45 79/136/46 77/135/45
f 80/137/46 61/121/37 79/136/46
f 67/138/47 75/139/47 79/140/47
f 78/141/48 68/142/48 66/143/48
f 61/121/37 62/144/37 64/122/38
f 64/122/38 66/125/39 65/124/39
f 66/125/39 68/145/40 67/126/40
f 67/126/40 68/145/40 70/127/41
f 70/127/41 72/130/42 71/129/42
f 72/130/42 74/146/43 73/131/43
f 73/131/43 74/146/43 76/132/44
f 75/133/44 76/132/44 78/134/45
f 78/134/45 80/137/46 79/136/46
f 80/137/46 62/144/37 61/121/37
f 79/140/47 61/147/47 63/148/47
f 63/148/47 65/149/47 67/138/47
f 67/138/47 69/150/47 71/151/47
f 71/151/47 73/152/47 67/138/47
f 75/139/47 77/153/47 79/140/47
f 79/140/47 63/148/47 67/138/47
f 67/138/47 73/152/47 75/139/47
f 66/143/48 64/154/48 78/141/48
f 62/155/48 80/156/48 78/141/48
f 78/141/48 76/157/48 74/158/48
f 74/158/48 72/159/48 70/160/48
f 70/160/48 68/142/48 78/141/48
f 64/154/48 62/155/48 78/141/48
f 78/141/48 74/158/48 70/160/48
o Body_Cylinder.005
v 0.073649 0.369251 -0.979524
v 0.069282 0.362189 0.979524
v 0.177804 0.299487 -0.979524
v 0.167261 0.296561 0.979524
v 0.177804 0.200825 -0.979524
v 0.167261 0.203750 0.979524
v 0.073649 0.131060 -0.979524
v 0.069282 0.138122 0.979524
v -0.073649 0.131060 -0.979524
v -0.069282 0.138122 0.979524
v -0.177804 0.200825 -0.979524
v -0.167261 0.203750 0.979524
v -0.177804 0.299487 -0.979524
v -0.167261 0.296562 0.979524
v -0.073649 0.369251 -0.979524
v -0.069282 0.362189 0.979524
v 0.124686 0.451783 -0.489762
v 0.124686 0.451783 0.000000
v 0.107259 0.423602 0.489762
v 0.258947 0.321999 0.489762
v 0.301019 0.333672 0.000000
v 0.301019 0.333672 -0.489762
v 0.258947 0.178312 0.489762
v 0.301019 0.166639 0.000000
v 0.301019 0.166639 -0.489762
v 0.107259 0.076709 0.489762
v 0.124686 0.048529 0.000000
v 0.124686 0.048529 -0.489762
v -0.107259 0.076709 0.489762
v -0.124686 0.048529 0.000000
v -0.124686 0.048529 -0.489762
v -0.258947 0.178312 0.489762
v -0.301019 0.166639 0.000000
v -0.301019 0.166639 -0.489762
v -0.258947 0.321999 0.489762
v -0.301019 0.333672 0.000000
v -0.301019 0.333672 -0.489762
v -0.107259 0.423602 0.489762
v -0.124686 0.451783 0.000000
v -0.124686 0.451783 -0.489762
v 0.127229 0.285455 0.979524
v 0.052700 0.335375 0.979524
v 0.127229 0.214856 0.979524
v 0.052700 0.164936 0.979524
v -0.052700 0.164936 0.979524
v -0.127229 0.214856 0.979524
v -0.127229 0.285455 0.979524
v -0.052700 0.335375 0.979524
v 0.127229 0.285455 0.933453
v 0.052700 0.335375 0.933453
v 0.127229 0.214856 0.933453
v 0.052700 0.164936 0.933453
v -0.052700 0.164936 0.933453
v -0.127229 0.214856 0.933453
v -0.127229 0.285455 0.933454
v -0.052700 0.335375 0.933454
v -0.037231 0.595155 -0.489761
v -0.035624 0.504062 -0.814390
v 0.035623 0.504062 -0.814390
v 0.037231 0.595155 -0.489761
v 0.074865 0.524743 -0.064541
v -0.074865 0.524743 -0.064541
v 0.032413 0.606269 -0.218533
v -0.032413 0.606269 -0.218533
v 0.084362 0.526210 -0.489762
v -0.080878 0.526210 -0.489761
v 0.036889 0.595944 -0.470494
v 0.083932 0.526144 -0.470487
v -0.036889 0.595944 -0.470484
v 0.115256 0.465593 -0.012216
v -0.115263 0.465582 -0.012207
v 0.116384 0.466245 -0.470486
v -0.080605 0.526144 -0.470484
v -0.115444 0.466245 -0.470482
v 0.075386 0.372060 0.900806
v 0.181997 0.300650 0.900806
v 0.181997 0.199661 0.900806
v 0.075386 0.128251 0.900806
v -0.075386 0.128251 0.900806
v -0.181997 0.199661 0.900806
v -0.181997 0.300650 0.900806
v -0.075386 0.372060 0.900806
v 0.360936 0.108600 0.156188
v 0.313128 0.108600 0.156188
v 0.360936 0.108600 -0.294463
v 0.313128 0.108600 -0.339576
v 0.360936 0.156408 0.156188
v 0.313128 0.156408 0.156188
v 0.360936 0.156408 -0.294463
v 0.313128 0.156408 -0.339576
v 0.334411 0.108600 0.409148
v 0.289503 0.108600 0.381713
v 0.334411 0.156408 0.409148
v 0.289503 0.156408 0.381713
v 0.098799 0.131208 0.659880
v 0.053892 0.131208 0.632444
v 0.053892 0.179016 0.632444
v 0.098799 0.179016 0.659880
v 0.297785 0.150382 0.371951
v 0.223528 0.307839 0.419780
v 0.297785 0.150382 0.334664
v 0.223528 0.307839 0.382494
v 0.335071 0.150382 0.371951
v 0.260814 0.307839 0.419780
v 0.335071 0.150382 0.334664
v 0.260814 0.307839 0.382494
v 0.307601 0.150382 0.278721
v 0.232341 0.307839 0.326550
v 0.307601 0.150382 0.241435
v 0.232341 0.307839 0.289264
v 0.344887 0.150382 0.278721
v 0.269628 0.307839 0.326550
v 0.344887 0.150382 0.241435
v 0.269628 0.307839 0.289264
v 0.317719 0.150382 0.193886
v 0.239287 0.307839 0.241715
v 0.317719 0.150382 0.156599
v 0.239287 0.307839 0.204428
v 0.355006 0.150382 0.193886
v 0.276574 0.307839 0.241715
v 0.355006 0.150382 0.156599
v 0.276574 0.307839 0.204428
v -0.360936 0.108600 0.156188
v -0.313128 0.108600 0.156188
v -0.360936 0.108600 -0.294463
v -0.313128 0.108600 -0.339576
v -0.360936 0.156408 0.156188
v -0.313128 0.156408 0.156188
v -0.360936 0.156408 -0.294463
v -0.313128 0.156408 -0.339576
v -0.334411 0.108600 0.409148
v -0.289503 0.108600 0.381713
v -0.334411 0.156408 0.409148
v -0.289503 0.156408 0.381713
v -0.098799 0.131208 0.659880
v -0.053892 0.131208 0.632444
v -0.053892 0.179016 0.632444
v -0.098799 0.179016 0.659880
v -0.297785 0.150382 0.371951
v -0.223528 0.307839 0.419780
v -0.297785 0.150382 0.334664
v -0.223528 0.307839 0.382494
v -0.335071 0.150382 0.371951
v -0.260814 0.307839 0.419780
v -0.335071 0.150382 0.334664
v -0.260814 0.307839 0.382494
v -0.307601 0.150382 0.278721
v -0.232341 0.307839 0.326550
v -0.307601 0.150382 0.241435
v -0.232341 0.307839 0.289264
v -0.344887 0.150382 0.278721
v -0.269628 0.307839 0.326550
v -0.344887 0.150382 0.241435
v -0.269628 0.307839 0.289264
v -0.317719 0.150382 0.193886
v -0.239287 0.307839 0.241715
v -0.317719 0.150382 0.156599
v -0.239287 0.307839 0.204428
v -0.355006 0.150382 0.193886
v -0.276574 0.307839 0.241715
v -0.355006 0.150382 0.156599
v -0.276574 0.307839 0.204428
v 0.420419 0.116739 -0.619592
v 0.420419 0.157939 -0.619592
v 0.420419 0.116739 -0.660792
v 0.420419 0.157939 -0.660792
v -0.420419 0.116739 -0.619592
v -0.420419 0.157939 -0.619592
v -0.420419 0.116739 -0.660792
v -0.420419 0.157939 -0.660792
v 0.420419 0.282683 0.693233
v 0.420419 0.323882 0.693233
v 0.420419 0.282683 0.652033
v 0.420419 0.323882 0.652033
v 0.000000 0.241124 0.693233
v 0.000000 0.282324 0.693233
v 0.000000 0.241124 0.652033
v 0.000000 0.282324 0.652033
v -0.420419 0.282683 0.693233
v -0.420419 0.323882 0.693233
v -0.420419 0.282683 0.652033
v -0.420419 0.323882 0.652033
v 0.420419 0.116739 0.693233
v 0.420419 0.157939 0.693233
v 0.420419 0.116739 0.652033
v 0.420419 0.157939 0.652033
v -0.420419 0.116739 0.693233
v -0.420419 0.157939 0.693233
v -0.420419 0.116739 0.652033
v -0.420419 0.157939 0.652033
v 0.420419 0.282683 -0.619592
v 0.420419 0.323883 -0.619592
v 0.420419 0.282683 -0.660792
v 0.420419 0.323883 -0.660792
v 0.000000 0.241124 -0.619592
v 0.000000 0.282324 -0.619592
v 0.000000 0.241124 -0.660792
v 0.000000 0.282324 -0.660792
v -0.420419 0.282683 -0.619592
v -0.420419 0.323883 -0.619592
v -0.420419 0.282683 -0.660792
v -0.420419 0.323883 -0.660792
vt 0.821656 0.539021
vt 0.821614 0.538939
vt 0.821654 0.538944
vt 0.835544 0.539688
vt 0.835505 0.539614
vt 0.835546 0.539600
vt 0.849658 0.537229
vt 0.849617 0.537185
vt 0.849681 0.537187
vt 0.867352 0.540409
vt 0.867271 0.540452
vt 0.867261 0.540409
vt 0.849527 0.537185
vt 0.849486 0.537229
vt 0.849463 0.537187
vt 0.835902 0.539890
vt 0.835940 0.539817
vt 0.835942 0.539905
vt 0.832690 0.542379
vt 0.832711 0.542441
vt 0.832690 0.542450
vt 0.822010 0.539077
vt 0.822053 0.538996
vt 0.822051 0.539073
vt 0.822512 0.539423
vt 0.822431 0.539449
vt 0.822421 0.539423
vt 0.767693 0.079954
vt 0.767765 0.079968
vt 0.767787 0.080100
vt 0.762744 0.090370
vt 0.762758 0.090460
vt 0.762713 0.090390
vt 0.807364 0.092432
vt 0.811499 0.076962
vt 0.811810 0.092432
vt 0.792719 0.089416
vt 0.792771 0.089546
vt 0.792702 0.089488
vt 0.793086 0.089156
vt 0.793172 0.089047
vt 0.793170 0.089156
vt 0.793004 0.089161
vt 0.793089 0.089048
vt 0.769249 0.090433
vt 0.769334 0.090319
vt 0.769335 0.090393
vt 0.769166 0.090434
vt 0.769246 0.090309
vt 0.769083 0.090421
vt 0.769163 0.090310
vt 0.762146 0.073463
vt 0.762119 0.073383
vt 0.762172 0.073382
vt 0.762146 0.073547
vt 0.762056 0.073466
vt 0.762077 0.073633
vt 0.762056 0.073549
vt 0.778520 0.075447
vt 0.778418 0.075366
vt 0.778494 0.075366
vt 0.778520 0.075531
vt 0.778392 0.075447
vt 0.778511 0.075615
vt 0.778392 0.075531
vt 0.762301 0.073383
vt 0.762274 0.073463
vt 0.762248 0.073382
vt 0.762364 0.073549
vt 0.762364 0.073466
vt 0.762343 0.073633
vt 0.762274 0.073547
vt 0.768850 0.090200
vt 0.768939 0.090116
vt 0.768937 0.090190
vt 0.768766 0.090199
vt 0.768853 0.090075
vt 0.768684 0.090195
vt 0.768769 0.090075
vt 0.792663 0.089615
vt 0.792566 0.089516
vt 0.792639 0.089529
vt 0.792692 0.089155
vt 0.792773 0.089047
vt 0.792776 0.089155
vt 0.792608 0.089041
vt 0.792690 0.089046
vt 0.869603 0.534925
vt 0.869610 0.534963
vt 0.869602 0.534963
vt 0.832811 0.542500
vt 0.832841 0.542441
vt 0.832862 0.542450
vt 0.832811 0.542329
vt 0.832749 0.542349
vt 0.832740 0.542329
vt 0.832711 0.542388
vt 0.832740 0.542500
vt 0.832749 0.542480
vt 0.832862 0.542379
vt 0.832841 0.542388
vt 0.832803 0.542480
vt 0.832803 0.542349
vt 0.304608 0.918453
vt 0.304701 0.918491
vt 0.304570 0.918491
vt 0.869680 0.534978
vt 0.869673 0.535024
vt 0.869672 0.534978
vt 0.869214 0.535551
vt 0.869205 0.535597
vt 0.869206 0.535551
vt 0.869602 0.535017
vt 0.869611 0.535056
vt 0.869603 0.535056
vt 0.869610 0.535017
vt 0.869673 0.534925
vt 0.869681 0.534925
vt 0.869276 0.535605
vt 0.869278 0.535551
vt 0.869278 0.535605
vt 0.869214 0.535650
vt 0.869213 0.535597
vt 0.762776 0.089937
vt 0.762833 0.089987
vt 0.762776 0.089997
vt 0.762702 0.090269
vt 0.762639 0.090310
vt 0.763172 0.089828
vt 0.763229 0.089778
vt 0.763259 0.089883
vt 0.297419 0.951443
vt 0.297296 0.951432
vt 0.297414 0.951432
vt 0.970637 0.930112
vt 0.970914 0.994175
vt 0.969750 0.930112
vt 0.296765 0.951638
vt 0.296734 0.951660
vt 0.296733 0.951658
vt 0.296751 0.951195
vt 0.296748 0.951147
vt 0.296751 0.951135
vt 0.762776 0.090054
vt 0.297064 0.951027
vt 0.297144 0.951015
vt 0.297148 0.951027
vt 0.763172 0.089767
vt 0.763172 0.089711
vt 0.972122 0.931213
vt 0.973097 0.931213
vt 0.971298 0.994175
vt 0.933099 0.995899
vt 0.933597 0.995287
vt 0.933629 0.995899
vt 0.973289 0.884144
vt 0.970567 0.883632
vt 0.969200 0.883623
vt 0.296748 0.951195
vt 0.296751 0.951252
vt 0.296748 0.951253
vt 0.297144 0.950966
vt 0.297148 0.950909
vt 0.297148 0.950966
vt 0.971915 0.884144
vt 0.296668 0.951134
vt 0.807675 0.076962
vt 0.810931 0.063979
vt 0.792964 0.089165
vt 0.793007 0.089067
vt 0.769043 0.090407
vt 0.769081 0.090314
vt 0.762155 0.073631
vt 0.762101 0.073675
vt 0.778501 0.075658
vt 0.778401 0.075615
vt 0.762319 0.073675
vt 0.762265 0.073631
vt 0.768646 0.090102
vt 0.768687 0.090087
vt 0.792610 0.089135
vt 0.792567 0.089037
vt 0.364902 0.924422
vt 0.364923 0.924585
vt 0.364886 0.924426
vt 0.236534 0.939583
vt 0.248066 0.951115
vt 0.248066 0.939583
vt 0.462489 0.803648
vt 0.462469 0.803811
vt 0.462452 0.803807
vt 0.462708 0.803636
vt 0.462688 0.803799
vt 0.462691 0.803636
vt 0.462625 0.804037
vt 0.462638 0.803857
vt 0.462642 0.804037
vt 0.462705 0.803799
vt 0.462686 0.803891
vt 0.462621 0.803858
vt 0.462637 0.803776
vt 0.462459 0.803892
vt 0.462441 0.803898
vt 0.364892 0.924341
vt 0.462625 0.803636
vt 0.462642 0.803636
vt 0.462492 0.804053
vt 0.462703 0.803891
vt 0.462691 0.804030
vt 0.364925 0.924179
vt 0.364943 0.924185
vt 0.303234 0.925102
vt 0.303295 0.924812
vt 0.303295 0.925119
vt 0.541883 0.769450
vt 0.541870 0.769509
vt 0.541870 0.769445
vt 0.463020 0.804134
vt 0.463007 0.804078
vt 0.463020 0.804074
vt 0.541759 0.769450
vt 0.541771 0.769510
vt 0.541759 0.769515
vt 0.302997 0.924602
vt 0.303058 0.924312
vt 0.303058 0.924619
vt 0.541592 0.769510
vt 0.541604 0.769450
vt 0.541604 0.769515
vt 0.463007 0.804292
vt 0.463020 0.804348
vt 0.463007 0.804352
vt 0.541477 0.769450
vt 0.541490 0.769510
vt 0.541477 0.769515
vt 0.302522 0.924605
vt 0.302583 0.924312
vt 0.302583 0.924621
vt 0.542004 0.769494
vt 0.542017 0.769434
vt 0.542017 0.769500
vt 0.463020 0.804241
vt 0.463007 0.804185
vt 0.463020 0.804181
vt 0.541941 0.769494
vt 0.541928 0.769434
vt 0.541941 0.769428
vt 0.365148 0.924191
vt 0.365128 0.924354
vt 0.365111 0.924350
vt 0.236554 0.951115
vt 0.248086 0.939583
vt 0.236554 0.939583
vt 0.462264 0.804042
vt 0.462244 0.803879
vt 0.462284 0.804053
vt 0.462754 0.803868
vt 0.462774 0.804030
vt 0.462757 0.804031
vt 0.462572 0.803816
vt 0.462559 0.803636
vt 0.462576 0.803636
vt 0.462752 0.803776
vt 0.462771 0.803867
vt 0.462571 0.803897
vt 0.462555 0.803815
vt 0.462227 0.803883
vt 0.462233 0.803797
vt 0.365118 0.924435
vt 0.462559 0.804037
vt 0.462553 0.803897
vt 0.462266 0.803636
vt 0.462215 0.803791
vt 0.462757 0.803636
vt 0.462769 0.803776
vt 0.365151 0.924597
vt 0.365100 0.924441
vt 0.303058 0.925102
vt 0.302997 0.924812
vt 0.303058 0.924796
vt 0.551189 0.762888
vt 0.551202 0.762947
vt 0.551189 0.762953
vt 0.463007 0.803802
vt 0.463020 0.803747
vt 0.463020 0.803806
vt 0.551078 0.762947
vt 0.551090 0.762888
vt 0.551090 0.762953
vt 0.303295 0.924602
vt 0.303234 0.924312
vt 0.303295 0.924295
vt 0.551022 0.762888
vt 0.551035 0.762947
vt 0.551022 0.762953
vt 0.463007 0.803695
vt 0.463020 0.803640
vt 0.463020 0.803699
vt 0.550911 0.762947
vt 0.550923 0.762888
vt 0.550923 0.762953
vt 0.302759 0.924312
vt 0.302820 0.924605
vt 0.302759 0.924621
vt 0.551717 0.762925
vt 0.551705 0.762865
vt 0.551717 0.762859
vt 0.462686 0.804480
vt 0.462709 0.804428
vt 0.462698 0.804487
vt 0.551649 0.762925
vt 0.551661 0.762865
vt 0.551661 0.762931
vt 0.462553 0.804558
vt 0.462568 0.804543
vt 0.462568 0.804558
vt 0.353755 0.922031
vt 0.353740 0.921726
vt 0.353755 0.921726
vt 0.462642 0.804543
vt 0.462627 0.804558
vt 0.462627 0.804543
vt 0.353813 0.922469
vt 0.353798 0.922164
vt 0.353813 0.922164
vt 0.291873 0.916192
vt 0.291888 0.915888
vt 0.291888 0.916192
vt 0.365660 0.920917
vt 0.365675 0.920612
vt 0.365675 0.920917
vt 0.517191 0.733597
vt 0.517191 0.733749
vt 0.517176 0.733597
vt 0.462817 0.804545
vt 0.462832 0.804530
vt 0.462832 0.804545
vt 0.517323 0.733006
vt 0.517323 0.733158
vt 0.517308 0.733158
vt 0.303456 0.924934
vt 0.303471 0.925086
vt 0.303456 0.925086
vt 0.353681 0.922317
vt 0.353696 0.922469
vt 0.353681 0.922469
vt 0.516403 0.735019
vt 0.516403 0.735172
vt 0.516389 0.735172
vt 0.462914 0.804552
vt 0.462899 0.804537
vt 0.462914 0.804537
vt 0.516536 0.734886
vt 0.516535 0.734733
vt 0.516550 0.734886
vt 0.303456 0.925238
vt 0.343459 0.917440
vt 0.343444 0.917592
vt 0.343445 0.917440
vt 0.462686 0.804545
vt 0.462701 0.804530
vt 0.462701 0.804545
vt 0.517396 0.733749
vt 0.517381 0.733445
vt 0.517396 0.733445
vt 0.462954 0.803999
vt 0.462939 0.803984
vt 0.462954 0.803984
vt 0.517454 0.733311
vt 0.517439 0.733006
vt 0.517454 0.733006
vt 0.303515 0.925238
vt 0.303530 0.924934
vt 0.303530 0.925238
vt 0.353119 0.922492
vt 0.353134 0.922187
vt 0.353134 0.922492
vt 0.353623 0.922317
vt 0.353623 0.922469
vt 0.353608 0.922317
vt 0.462440 0.804573
vt 0.462454 0.804559
vt 0.462454 0.804573
vt 0.353418 0.922171
vt 0.353418 0.922323
vt 0.353403 0.922323
vt 0.291531 0.915888
vt 0.291546 0.916040
vt 0.291531 0.916040
vt 0.366075 0.920748
vt 0.366090 0.920900
vt 0.366075 0.920900
vt 0.343386 0.917440
vt 0.343386 0.917592
vt 0.343371 0.917592
vt 0.462774 0.804545
vt 0.462759 0.804530
vt 0.462774 0.804530
vt 0.343181 0.917750
vt 0.343181 0.917598
vt 0.343196 0.917750
vt 0.291531 0.916192
vt 0.355853 0.915871
vt 0.355838 0.916023
vt 0.355838 0.915871
vt 0.462708 0.804031
vt 0.462774 0.803636
vt 0.821615 0.539000
vt 0.835504 0.539684
vt 0.849608 0.537227
vt 0.867342 0.540452
vt 0.849537 0.537227
vt 0.835900 0.539821
vt 0.822012 0.539017
vt 0.822502 0.539449
vt 0.767723 0.080141
vt 0.767629 0.079995
vt 0.767651 0.080128
vt 0.767612 0.080067
vt 0.767804 0.080028
vt 0.762790 0.090439
vt 0.792800 0.089425
vt 0.792541 0.089592
vt 0.869611 0.534925
vt 0.304662 0.918583
vt 0.304608 0.918583
vt 0.304570 0.918545
vt 0.304662 0.918453
vt 0.304701 0.918545
vt 0.869681 0.535024
vt 0.869276 0.535551
vt 0.869206 0.535650
vt 0.762862 0.089882
vt 0.297291 0.951443
vt 0.296766 0.951639
vt 0.297066 0.951016
vt 0.972381 0.986063
vt 0.972818 0.986062
vt 0.933131 0.995287
vt 0.297144 0.950909
vt 0.296670 0.951146
vt 0.808243 0.063979
vt 0.792966 0.089088
vt 0.769041 0.090319
vt 0.762165 0.073673
vt 0.778411 0.075658
vt 0.762255 0.073673
vt 0.768644 0.090190
vt 0.792569 0.089114
vt 0.364943 0.924597
vt 0.236534 0.951115
vt 0.462510 0.803636
vt 0.462620 0.803776
vt 0.364874 0.924335
vt 0.462510 0.804047
vt 0.303234 0.924796
vt 0.541883 0.769515
vt 0.463007 0.804138
vt 0.541771 0.769445
vt 0.302997 0.924295
vt 0.541592 0.769445
vt 0.463020 0.804288
vt 0.541490 0.769445
vt 0.302522 0.924295
vt 0.542004 0.769428
vt 0.463007 0.804245
vt 0.541928 0.769500
vt 0.365169 0.924179
vt 0.248086 0.951115
vt 0.462576 0.804037
vt 0.462284 0.803642
vt 0.365169 0.924591
vt 0.302997 0.925119
vt 0.551202 0.762882
vt 0.463007 0.803743
vt 0.551078 0.762882
vt 0.303234 0.924619
vt 0.551035 0.762882
vt 0.463007 0.803636
vt 0.550911 0.762882
vt 0.302820 0.924295
vt 0.551705 0.762931
vt 0.462698 0.804422
vt 0.551649 0.762859
vt 0.462553 0.804543
vt 0.353740 0.922031
vt 0.462642 0.804558
vt 0.353798 0.922469
vt 0.291873 0.915888
vt 0.365660 0.920612
vt 0.517206 0.733749
vt 0.462817 0.804530
vt 0.517338 0.733006
vt 0.303471 0.924934
vt 0.353696 0.922317
vt 0.516418 0.735019
vt 0.462899 0.804552
vt 0.516521 0.734733
vt 0.303471 0.925238
vt 0.343459 0.917592
vt 0.462686 0.804530
vt 0.517381 0.733749
vt 0.462939 0.803999
vt 0.517439 0.733311
vt 0.303515 0.924934
vt 0.353119 0.922187
vt 0.353638 0.922469
vt 0.462440 0.804559
vt 0.353432 0.922171
vt 0.291546 0.915888
vt 0.366090 0.920748
vt 0.343401 0.917440
vt 0.462759 0.804545
vt 0.343166 0.917598
vt 0.291546 0.916192
vt 0.355853 0.916023
vn 0.5506 0.8220 0.1458
vn 0.9829 -0.0000 0.1840
vn 0.5506 -0.8220 0.1458
vn 0.0000 -0.9922 0.1244
vn -0.5506 -0.8220 0.1458
vn -0.9829 0.0000 0.1840
vn -0.0000 0.0000 1.0000
vn -0.5506 0.8220 0.1458
vn 0.0000 0.9922 0.1244
vn -0.0000 0.0000 -1.0000
vn -0.0000 0.9628 -0.2702
vn -0.0000 0.9876 -0.1571
vn 0.0000 0.9276 0.3737
vn 0.0000 0.9960 0.0898
vn -0.5459 0.8150 -0.1942
vn -0.5539 0.8269 -0.0974
vn -0.5562 0.8304 0.0331
vn -0.5541 0.8273 -0.0922
vn -0.5535 0.8263 0.1044
vn -0.5562 0.8304 0.0337
vn -0.9927 0.0000 -0.1202
vn -0.9698 0.0000 -0.2440
vn -0.9991 -0.0000 0.0425
vn -0.9910 0.0000 0.1338
vn -0.5539 -0.8269 -0.0974
vn -0.5459 -0.8150 -0.1942
vn -0.5562 -0.8304 0.0337
vn -0.5541 -0.8273 -0.0922
vn -0.5535 -0.8263 0.1044
vn -0.5562 -0.8304 0.0331
vn -0.0000 -0.9967 -0.0806
vn -0.0000 -0.9861 -0.1662
vn -0.0000 -0.9996 0.0284
vn -0.0000 -0.9960 0.0898
vn 0.5459 -0.8150 -0.1942
vn 0.5539 -0.8269 -0.0974
vn 0.5562 -0.8304 0.0331
vn 0.5541 -0.8273 -0.0922
vn 0.5535 -0.8263 0.1044
vn 0.5562 -0.8304 0.0337
vn 0.9927 -0.0000 -0.1202
vn 0.9698 0.0000 -0.2440
vn 0.9991 0.0000 0.0425
vn 0.9910 0.0000 0.1338
vn 0.5539 0.8269 -0.0974
vn 0.5459 0.8150 -0.1942
vn 0.5562 0.8304 0.0337
vn 0.5541 0.8273 -0.0922
vn 0.5535 0.8263 0.1044
vn 0.5562 0.8304 0.0331
vn 0.8822 -0.4709 -0.0000
vn 0.2908 -0.9568 -0.0000
vn 0.8822 0.4709 -0.0000
vn 0.2908 0.9568 0.0000
vn -0.2908 0.9568 0.0000
vn -0.8822 0.4709 0.0000
vn -0.2908 -0.9568 0.0000
vn -0.8822 -0.4709 0.0000
vn 0.8750 0.4777 -0.0788
vn 0.8701 0.4639 -0.1665
vn 0.8516 0.5194 -0.0704
vn 0.0000 0.7746 -0.6324
vn -0.8584 0.5078 -0.0720
vn -0.8703 0.4640 -0.1648
vn -0.8760 0.4523 -0.1675
vn 0.0000 0.6626 0.7490
vn 0.0000 0.7616 0.6481
vn 0.0000 0.9712 0.2383
vn 0.0000 0.9992 -0.0409
vn 0.8730 0.4876 0.0126
vn 0.8249 0.5602 -0.0755
vn -0.8260 0.5636 0.0011
vn -0.8541 0.5199 0.0143
vn -0.8521 0.5189 -0.0688
vn -0.8440 0.5316 -0.0715
vn -0.8725 0.4885 0.0115
vn -0.8571 0.5150 0.0092
vn -0.8384 0.5450 0.0045
vn 0.8567 0.5157 0.0144
vn 0.8651 0.5012 0.0175
vn 0.8376 0.5462 0.0076
vn 0.0000 0.9712 0.2382
vn 0.8247 0.5656 0.0028
vn 0.8292 0.5589 -0.0082
vn 0.8264 0.5631 0.0027
vn -0.5533 0.8261 0.1066
vn -0.5533 -0.8261 0.1066
vn 0.5533 -0.8261 0.1066
vn 0.5533 0.8261 0.1066
vn 0.0000 -1.0000 -0.0000
vn 0.6863 0.0000 -0.7273
vn 0.0000 1.0000 0.0000
vn 1.0000 0.0000 0.0000
vn -1.0000 0.0000 0.0000
vn 0.9945 0.0000 0.1043
vn -0.9946 0.0000 -0.1042
vn -0.7287 0.0000 -0.6848
vn 0.0349 0.9978 -0.0572
vn 0.7287 0.0000 0.6848
vn -0.0349 -0.9978 0.0572
vn -0.9045 -0.4265 0.0000
vn 0.0000 0.2906 -0.9568
vn 0.9045 0.4265 0.0000
vn 0.0000 -0.2906 0.9568
vn -0.9022 -0.4312 0.0000
vn 0.9022 0.4312 0.0000
vn -0.8951 -0.4459 0.0000
vn 0.8951 0.4459 0.0000
vn -0.6863 0.0000 -0.7273
vn -0.9945 0.0000 0.1043
vn 0.9946 -0.0000 -0.1042
vn 0.7287 0.0000 -0.6848
vn -0.0349 0.9978 -0.0572
vn -0.7287 0.0000 0.6848
vn 0.0349 -0.9978 0.0572
vn 0.9045 -0.4265 0.0000
vn -0.9045 0.4265 0.0000
vn 0.9022 -0.4312 0.0000
vn -0.9022 0.4312 0.0000
vn 0.8951 -0.4459 0.0000
vn -0.8951 0.4459 0.0000
vn 0.0984 -0.9951 -0.0000
vn -0.0984 0.9951 0.0000
vn -0.0984 -0.9951 -0.0000
vn 0.0984 0.9951 0.0000
vn -0.5213 0.0000 0.8534
vn 0.5213 0.0000 0.8534
vn 0.8760 0.4523 -0.1675
vn -0.8254 0.5646 0.0011
vn -0.8475 0.5308 -0.0067
s 1
f 155/161/49 84/162/49 156/163/49
f 156/164/50 86/165/50 157/166/50
f 86/167/51 158/168/51 157/169/51
f 158/170/52 90/171/52 159/172/52
f 159/173/53 92/174/53 160/175/53
f 92/176/54 161/177/54 160/178/54
f 84/179/55 123/180/55 86/181/55
f 94/182/56 162/183/56 161/184/56
f 162/185/57 82/186/57 155/187/57
f 89/188/58 91/189/58 95/190/58
f 138/191/59 140/192/60 139/193/59
f 119/194/61 99/195/62 98/196/61
f 93/197/63 120/198/64 95/199/63
f 116/200/65 120/201/64 117/202/66
f 115/203/67 119/204/68 116/200/65
f 114/205/69 93/206/70 91/207/70
f 113/208/71 117/209/69 114/205/69
f 112/210/72 116/211/71 113/208/71
f 111/212/73 91/213/74 89/214/74
f 110/215/75 114/216/76 111/212/73
f 110/215/75 112/217/77 113/218/78
f 108/219/79 89/220/80 87/221/80
f 107/222/81 111/223/79 108/219/79
f 106/224/82 110/225/81 107/222/81
f 85/226/83 108/227/84 87/228/83
f 104/229/85 108/227/84 105/230/86
f 103/231/87 107/232/88 104/229/85
f 102/233/89 85/234/90 83/235/90
f 101/236/91 105/237/89 102/233/89
f 100/238/92 104/239/91 101/236/91
f 97/240/93 83/241/94 81/242/94
f 98/243/95 102/244/96 97/245/93
f 98/243/95 100/246/97 101/247/98
f 127/248/99 136/249/100 128/250/100
f 90/251/55 126/252/55 92/253/55
f 96/254/55 122/255/55 82/256/55
f 82/256/55 121/257/55 84/179/55
f 88/258/55 123/180/55 124/259/55
f 94/260/55 126/252/55 127/261/55
f 90/251/55 124/259/55 125/262/55
f 96/254/55 127/261/55 128/263/55
f 135/264/55 133/265/55 136/266/55
f 126/267/101 133/268/102 134/269/101
f 124/270/103 131/271/104 132/272/103
f 122/273/105 129/274/106 121/275/106
f 122/273/105 136/249/100 130/276/105
f 126/267/101 135/277/99 127/278/99
f 125/279/102 132/280/103 133/281/102
f 121/282/106 131/271/104 123/283/104
f 97/284/107 139/285/108 145/286/109
f 95/287/110 139/193/110 81/288/110
f 120/289/111 138/290/112 95/291/113
f 119/292/61 150/293/114 151/294/114
f 141/295/115 144/296/116 142/297/115
f 137/298/60 147/299/117 140/300/60
f 145/301/109 152/302/118 97/303/107
f 145/286/109 139/285/108 140/304/119
f 119/305/120 154/306/121 120/307/111
f 138/290/112 146/308/122 137/309/123
f 144/296/124 153/310/125 142/297/126
f 148/311/127 143/312/128 141/295/129
f 149/313/117 143/314/130 147/315/117
f 152/316/118 141/295/129 150/317/131
f 150/317/114 142/297/115 151/318/114
f 148/319/127 140/320/119 147/321/132
f 153/322/125 137/323/123 146/324/122
f 154/325/121 142/297/126 153/310/125
f 154/306/121 146/324/122 120/307/111
f 152/302/118 98/326/133 97/303/107
f 118/327/62 155/328/57 99/195/62
f 161/329/56 118/330/134 115/203/67
f 160/331/54 115/332/72 112/210/72
f 109/333/135 160/334/53 112/217/77
f 158/335/52 109/336/82 106/224/82
f 157/337/51 106/338/136 103/231/87
f 100/238/92 157/339/50 103/340/92
f 99/341/137 156/342/49 100/246/97
f 164/343/138 165/344/138 163/345/138
f 166/346/139 169/347/139 165/348/139
f 169/349/140 168/350/140 167/351/140
f 169/352/141 163/353/141 165/354/141
f 166/355/142 168/356/142 170/357/142
f 167/358/143 171/359/143 163/353/143
f 164/360/144 174/361/144 168/356/144
f 167/351/140 174/362/140 173/363/140
f 163/345/138 172/364/138 164/343/138
f 174/361/145 176/365/145 177/366/145
f 174/362/146 178/367/146 173/363/146
f 173/368/147 175/369/147 171/359/147
f 172/364/148 175/370/148 176/371/148
f 179/372/149 182/373/149 181/374/149
f 181/375/150 186/376/150 185/377/150
f 186/378/151 183/379/151 185/380/151
f 184/381/152 179/382/152 183/383/152
f 187/384/153 190/385/153 189/386/153
f 189/387/150 194/388/150 193/389/150
f 194/390/154 191/391/154 193/392/154
f 192/393/152 187/394/152 191/395/152
f 195/396/155 198/397/155 197/398/155
f 197/399/150 202/400/150 201/401/150
f 202/402/156 199/403/156 201/404/156
f 200/405/152 195/406/152 199/407/152
f 205/408/138 204/409/138 203/410/138
f 209/411/157 206/412/157 205/413/157
f 209/414/140 208/415/140 210/416/140
f 203/417/142 209/418/142 205/419/142
f 208/420/141 206/421/141 210/422/141
f 211/423/158 207/424/158 203/417/158
f 214/425/159 204/426/159 208/420/159
f 207/427/140 214/428/140 208/415/140
f 212/429/138 203/410/138 204/409/138
f 214/425/160 216/430/160 212/431/160
f 218/432/161 214/428/161 213/433/161
f 215/434/162 213/435/162 211/423/162
f 212/429/163 215/436/163 211/437/163
f 219/438/164 222/439/164 220/440/164
f 221/441/150 226/442/150 222/443/150
f 223/444/165 226/445/165 225/446/165
f 219/447/152 224/448/152 223/449/152
f 227/450/166 230/451/166 228/452/166
f 229/453/150 234/454/150 230/455/150
f 231/456/167 234/457/167 233/458/167
f 227/459/152 232/460/152 231/461/152
f 235/462/168 238/463/168 236/464/168
f 237/465/150 242/466/150 238/467/150
f 239/468/169 242/469/169 241/470/169
f 235/471/152 240/472/152 239/473/152
f 246/474/141 243/475/141 245/476/141
f 249/477/58 246/478/58 245/479/58
f 247/480/142 250/481/142 249/482/142
f 243/483/55 248/484/55 247/485/55
f 243/486/138 249/487/138 245/488/138
f 248/489/140 246/490/140 250/491/140
f 258/492/58 253/493/58 257/494/58
f 254/495/141 251/496/141 253/497/141
f 251/498/55 256/499/55 255/500/55
f 253/501/170 255/502/170 257/503/170
f 258/504/171 252/505/171 254/506/171
f 261/507/58 258/508/58 257/509/58
f 259/510/142 262/511/142 261/512/142
f 259/513/55 256/514/55 260/515/55
f 255/502/172 261/516/172 257/503/172
f 260/517/173 258/518/173 262/519/173
f 266/520/141 263/521/141 265/522/141
f 269/523/58 266/524/58 265/525/58
f 267/526/142 270/527/142 269/528/142
f 263/529/55 268/530/55 267/531/55
f 263/532/138 269/533/138 265/534/138
f 268/535/140 266/536/140 270/537/140
f 278/538/58 273/539/58 277/540/58
f 274/541/141 271/542/141 273/543/141
f 271/544/55 276/545/55 275/546/55
f 273/547/170 275/548/170 277/549/170
f 278/550/171 272/551/171 274/552/171
f 281/553/58 278/554/58 277/555/58
f 279/556/142 282/557/142 281/558/142
f 279/559/55 276/560/55 280/561/55
f 275/548/172 281/562/172 277/549/172
f 280/563/173 278/564/173 282/565/173
f 178/566/174 176/365/174 175/369/174
f 216/430/175 218/567/175 215/434/175
f 155/161/49 82/568/49 84/162/49
f 156/164/50 84/569/50 86/165/50
f 86/167/51 88/570/51 158/168/51
f 158/170/52 88/571/52 90/171/52
f 159/173/53 90/572/53 92/174/53
f 92/176/54 94/573/54 161/177/54
f 84/179/55 121/257/55 123/180/55
f 94/182/56 96/574/56 162/183/56
f 162/185/57 96/575/57 82/186/57
f 95/190/58 81/576/58 87/577/58
f 83/578/58 85/579/58 87/577/58
f 87/577/58 89/188/58 95/190/58
f 91/189/58 93/580/58 95/190/58
f 81/576/58 83/578/58 87/577/58
f 138/191/59 137/581/60 140/192/60
f 119/194/61 118/327/62 99/195/62
f 93/197/63 117/582/66 120/198/64
f 116/200/65 119/204/68 120/201/64
f 115/203/67 118/330/134 119/204/68
f 114/205/69 117/209/69 93/206/70
f 113/208/71 116/211/71 117/209/69
f 112/210/72 115/332/72 116/211/71
f 111/212/73 114/216/76 91/213/74
f 110/215/75 113/218/78 114/216/76
f 110/215/75 109/333/135 112/217/77
f 108/219/79 111/223/79 89/220/80
f 107/222/81 110/225/81 111/223/79
f 106/224/82 109/336/82 110/225/81
f 85/226/83 105/230/86 108/227/84
f 104/229/85 107/232/88 108/227/84
f 103/231/87 106/338/136 107/232/88
f 102/233/89 105/237/89 85/234/90
f 101/236/91 104/239/91 105/237/89
f 100/238/92 103/340/92 104/239/91
f 97/240/93 102/583/96 83/241/94
f 98/243/95 101/247/98 102/244/96
f 98/243/95 99/341/137 100/246/97
f 127/248/99 135/584/99 136/249/100
f 90/251/55 125/262/55 126/252/55
f 96/254/55 128/263/55 122/255/55
f 82/256/55 122/255/55 121/257/55
f 88/258/55 86/181/55 123/180/55
f 94/260/55 92/253/55 126/252/55
f 90/251/55 88/258/55 124/259/55
f 96/254/55 94/260/55 127/261/55
f 131/585/55 129/586/55 130/587/55
f 130/587/55 136/266/55 133/265/55
f 135/264/55 134/588/55 133/265/55
f 133/265/55 132/589/55 130/587/55
f 131/585/55 130/587/55 132/589/55
f 126/267/101 125/590/102 133/268/102
f 124/270/103 123/283/104 131/271/104
f 122/273/105 130/276/105 129/274/106
f 122/273/105 128/250/100 136/249/100
f 126/267/101 134/269/101 135/277/99
f 125/279/102 124/591/103 132/280/103
f 121/282/106 129/592/106 131/271/104
f 97/284/107 81/593/176 139/285/108
f 95/287/110 138/191/110 139/193/110
f 120/289/111 146/308/122 138/290/112
f 119/292/61 98/594/61 150/293/114
f 141/295/115 143/312/130 144/296/116
f 137/298/60 149/595/117 147/299/117
f 145/301/109 148/319/127 152/302/118
f 119/305/120 151/596/177 154/306/121
f 144/296/124 149/597/178 153/310/125
f 148/311/127 147/598/132 143/312/128
f 149/313/117 144/599/116 143/314/130
f 152/316/118 148/311/127 141/295/129
f 150/317/114 141/295/115 142/297/115
f 148/319/127 145/301/109 140/320/119
f 153/322/125 149/600/178 137/323/123
f 154/325/121 151/318/177 142/297/126
f 154/306/121 153/322/125 146/324/122
f 152/302/118 150/601/131 98/326/133
f 118/327/62 162/602/57 155/328/57
f 161/329/56 162/603/56 118/330/134
f 160/331/54 161/604/54 115/332/72
f 109/333/135 159/605/53 160/334/53
f 158/335/52 159/606/52 109/336/82
f 157/337/51 158/607/51 106/338/136
f 100/238/92 156/608/50 157/339/50
f 99/341/137 155/609/49 156/342/49
f 164/343/138 166/610/138 165/344/138
f 166/346/139 170/611/139 169/347/139
f 169/349/140 170/612/140 168/350/140
f 169/352/141 167/358/141 163/353/141
f 166/355/142 164/360/142 168/356/142
f 167/358/143 173/368/143 171/359/143
f 164/360/144 172/613/144 174/361/144
f 167/351/140 168/350/140 174/362/140
f 163/345/138 171/614/138 172/364/138
f 174/361/145 172/613/145 176/365/145
f 174/362/146 177/615/146 178/367/146
f 173/368/147 178/566/147 175/369/147
f 172/364/148 171/614/148 175/370/148
f 179/372/149 180/616/149 182/373/149
f 181/375/150 182/617/150 186/376/150
f 186/378/151 184/618/151 183/379/151
f 184/381/152 180/619/152 179/382/152
f 187/384/153 188/620/153 190/385/153
f 189/387/150 190/621/150 194/388/150
f 194/390/154 192/622/154 191/391/154
f 192/393/152 188/623/152 187/394/152
f 195/396/155 196/624/155 198/397/155
f 197/399/150 198/625/150 202/400/150
f 202/402/156 200/626/156 199/403/156
f 200/405/152 196/627/152 195/406/152
f 205/408/138 206/628/138 204/409/138
f 209/411/157 210/629/157 206/412/157
f 209/414/140 207/427/140 208/415/140
f 203/417/142 207/424/142 209/418/142
f 208/420/141 204/426/141 206/421/141
f 211/423/158 213/435/158 207/424/158
f 214/425/159 212/431/159 204/426/159
f 207/427/140 213/433/140 214/428/140
f 212/429/138 211/437/138 203/410/138
f 214/425/160 217/630/160 216/430/160
f 218/432/161 217/631/161 214/428/161
f 215/434/162 218/567/162 213/435/162
f 212/429/163 216/632/163 215/436/163
f 219/438/164 221/633/164 222/439/164
f 221/441/150 225/634/150 226/442/150
f 223/444/165 224/635/165 226/445/165
f 219/447/152 220/636/152 224/448/152
f 227/450/166 229/637/166 230/451/166
f 229/453/150 233/638/150 234/454/150
f 231/456/167 232/639/167 234/457/167
f 227/459/152 228/640/152 232/460/152
f 235/462/168 237/641/168 238/463/168
f 237/465/150 241/642/150 242/466/150
f 239/468/169 240/643/169 242/469/169
f 235/471/152 236/644/152 240/472/152
f 246/474/141 244/645/141 243/475/141
f 249/477/58 250/646/58 246/478/58
f 247/480/142 248/647/142 250/481/142
f 243/483/55 244/648/55 248/484/55
f 243/486/138 247/649/138 249/487/138
f 248/489/140 244/650/140 246/490/140
f 258/492/58 254/651/58 253/493/58
f 254/495/141 252/652/141 251/496/141
f 251/498/55 252/653/55 256/499/55
f 253/501/170 251/654/170 255/502/170
f 258/504/171 256/655/171 252/505/171
f 261/507/58 262/656/58 258/508/58
f 259/510/142 260/657/142 262/511/142
f 259/513/55 255/658/55 256/514/55
f 255/502/172 259/659/172 261/516/172
f 260/517/173 256/660/173 258/518/173
f 266/520/141 264/661/141 263/521/141
f 269/523/58 270/662/58 266/524/58
f 267/526/142 268/663/142 270/527/142
f 263/529/55 264/664/55 268/530/55
f 263/532/138 267/665/138 269/533/138
f 268/535/140 264/666/140 266/536/140
f 278/538/58 274/667/58 273/539/58
f 274/541/141 272/668/141 271/542/141
f 271/544/55 272/669/55 276/545/55
f 273/547/170 271/670/170 275/548/170
f 278/550/171 276/671/171 272/551/171
f 281/553/58 282/672/58 278/554/58
f 279/556/142 280/673/142 282/557/142
f 279/559/55 275/674/55 276/560/55
f 275/548/172 279/675/172 281/562/172
f 280/563/173 276/676/173 278/564/173
f 178/566/174 177/615/174 176/365/174
f 216/430/175 217/631/175 218/567/175
