texture textures/cars.png
v 0.337687 0.337657 0.509883
v 0.456834 0.337657 0.509883
v 0.337687 0.273194 0.421157
v 0.456834 0.273194 0.421157
v 0.337687 0.168890 0.387266
v 0.456834 0.168890 0.387266
v 0.337687 0.064586 0.421157
v 0.456834 0.064586 0.421157
v 0.337687 0.000123 0.509883
v 0.456834 0.000123 0.509883
v 0.337687 0.000123 0.619554
v 0.456834 0.000123 0.619554
v 0.337687 0.064586 0.708280
v 0.456834 0.064586 0.708280
v 0.337687 0.168890 0.742171
v 0.456834 0.168890 0.742171
v 0.337687 0.273194 0.708280
v 0.456834 0.273194 0.708280
v 0.337687 0.337657 0.619554
v 0.456834 0.337657 0.619554
vt 0.524372 0.971647
vt 0.612156 0.959848
vt 0.524372 0.959848
vt 0.612156 0.940757
vt 0.524372 0.940757
vt 0.612156 0.921665
vt 0.524372 0.921665
vt 0.524372 0.909866
vt 0.612156 0.909866
vt 0.524372 0.909866
vt 0.612156 0.909866
vt 0.524372 0.921665
vt 0.612156 0.921665
vt 0.524372 0.940757
vt 0.612156 0.940757
vt 0.524372 0.959848
vt 0.612156 0.959848
vt 0.524372 0.971647
vt 0.612156 0.971647
vt 0.516159 0.888320
vt 0.519896 0.891662
vt 0.518469 0.897068
vt 0.466232 0.179769
vt 0.383670 0.433867
vt 0.116495 0.433868
vt 0.612156 0.971647
vt 0.516159 0.897992
vt 0.513849 0.897068
vt 0.512421 0.894650
vt 0.512421 0.891662
vt 0.513849 0.889244
vt 0.518469 0.889244
vt 0.519896 0.894650
vt 0.033933 0.320231
vt 0.033933 0.179769
vt 0.116495 0.066133
vt 0.250082 0.022727
vt 0.383670 0.066133
vt 0.466232 0.320231
vt 0.250082 0.477273
vn 0.0000 0.9511 -0.3090
vn 0.0000 0.5878 -0.8090
vn 0.0000 0.0000 -1.0000
vn 0.0000 -0.5878 -0.8090
vn 0.0000 -0.9511 -0.3090
vn 0.0000 -0.9511 0.3090
vn 0.0000 -0.5878 0.8090
vn -0.0000 -0.0000 1.0000
vn 0.0000 0.5878 0.8090
vn 0.0000 0.9511 0.3090
vn -1.0000 -0.0000 0.0000
vn 1.0000 0.0000 0.0000
s 1
f 1/1/1 4/2/2 3/3/2
f 3/3/2 6/4/3 5/5/3
f 5/5/3 8/6/4 7/7/4
f 8/6/4 9/8/5 7/7/4
f 10/9/5 11/10/6 9/8/5
f 12/11/6 13/12/7 11/10/6
f 14/13/7 15/14/8 13/12/7
f 16/15/8 17/16/9 15/14/8
f 18/17/9 19/18/10 17/16/9
f 19/18/10 2/19/1 1/1/1
f 11/20/11 15/21/11 19/22/11
f 14/23/12 10/24/12 6/25/12
f 1/1/1 2/19/1 4/2/2
f 3/3/2 4/2/2 6/4/3
f 5/5/3 6/4/3 8/6/4
f 8/6/4 10/9/5 9/8/5
f 10/9/5 12/11/6 11/10/6
f 12/11/6 14/13/7 13/12/7
f 14/13/7 16/15/8 15/14/8
f 16/15/8 18/17/9 17/16/9
f 18/17/9 20/26/10 19/18/10
f 19/18/10 20/26/10 2/19/1
f 19/22/11 1/27/11 3/28/11
f 3/28/11 5/29/11 7/30/11
f 7/30/11 9/31/11 11/20/11
f 11/20/11 13/32/11 15/21/11
f 15/21/11 17/33/11 19/22/11
f 19/22/11 3/28/11 7/30/11
f 7/30/11 11/20/11 19/22/11
f 6/25/12 4/34/12 2/35/12
f 2/35/12 20/36/12 18/37/12
f 18/37/12 16/38/12 14/23/12
f 14/23/12 12/39/12 10/24/12
f 10/24/12 8/40/12 6/25/12
f 6/25/12 2/35/12 18/37/12
f 18/37/12 14/23/12 6/25/12
o RLW_Cylinder.005
v 0.332694 0.337657 -0.559996
v 0.478198 0.337657 -0.559996
v 0.332694 0.273194 -0.648722
v 0.478198 0.273194 -0.648722
v 0.332694 0.168890 -0.682613
v 0.478198 0.168890 -0.682613
v 0.332694 0.064586 -0.648722
v 0.478198 0.064586 -0.648722
v 0.332694 0.000123 -0.559996
v 0.478198 0.000123 -0.559996
v 0.332694 0.000123 -0.450325
v 0.478198 0.000123 -0.450325
v 0.332694 0.064586 -0.361599
v 0.478198 0.064586 -0.361599
v 0.332694 0.168890 -0.327708
v 0.478198 0.168890 -0.327708
v 0.332694 0.273194 -0.361599
v 0.478198 0.273194 -0.361599
v 0.332694 0.337657 -0.450325
v 0.478198 0.337657 -0.450325
vt 0.612156 0.971647
vt 0.524372 0.959848
vt 0.524372 0.971647
vt 0.612156 0.959848
vt 0.524372 0.940757
vt 0.612156 0.940757
vt 0.524372 0.921665
vt 0.612156 0.909866
vt 0.524372 0.909866
vt 0.612156 0.909866
vt 0.524372 0.909866
vt 0.524372 0.921665
vt 0.612156 0.940757
vt 0.524372 0.940757
vt 0.524372 0.959848
vt 0.612156 0.959848
vt 0.524372 0.971647
vt 0.612156 0.971647
vt 0.516159 0.888320
vt 0.519896 0.891662
vt 0.518469 0.897068
vt 0.466232 0.179769
vt 0.383670 0.433867
vt 0.116495 0.433868
vt 0.612156 0.921665
vt 0.612156 0.921665
vt 0.516159 0.897992
vt 0.513849 0.897068
vt 0.512421 0.894650
vt 0.512421 0.891662
vt 0.513849 0.889244
vt 0.518469 0.889244
vt 0.519896 0.894650
vt 0.033933 0.320231
vt 0.033933 0.179769
vt 0.116495 0.066133
vt 0.250082 0.022727
vt 0.383670 0.066133
vt 0.466232 0.320231
vt 0.250082 0.477273
vn 0.0000 0.9511 -0.3090
vn 0.0000 0.5878 -0.8090
vn 0.0000 0.0000 -1.0000
vn -0.0000 -0.5878 -0.8090
vn -0.0000 -0.9511 -0.3090
vn -0.0000 -0.9511 0.3090
vn -0.0000 -0.5878 0.8090
vn -0.0000 -0.0000 1.0000
vn 0.0000 0.5878 0.8090
vn 0.0000 0.9511 0.3090
vn -1.0000 -0.0000 0.0000
vn 1.0000 -0.0000 -0.0000
s 1
f 22/41/13 23/42/14 21/43/13
f 24/44/14 25/45/15 23/42/14
f 26/46/15 27/47/16 25/45/15
f 27/47/16 30/48/17 29/49/17
f 29/49/17 32/50/18 31/51/18
f 32/50/18 33/52/19 31/51/18
f 33/52/19 36/53/20 35/54/20
f 36/53/20 37/55/21 35/54/20
f 38/56/21 39/57/22 37/55/21
f 40/58/22 21/43/13 39/57/22
f 31/59/23 35/60/23 39/61/23
f 34/62/24 30/63/24 26/64/24
f 22/41/13 24/44/14 23/42/14
f 24/44/14 26/46/15 25/45/15
f 26/46/15 28/65/16 27/47/16
f 27/47/16 28/65/16 30/48/17
f 29/49/17 30/48/17 32/50/18
f 32/50/18 34/66/19 33/52/19
f 33/52/19 34/66/19 36/53/20
f 36/53/20 38/56/21 37/55/21
f 38/56/21 40/58/22 39/57/22
f 40/58/22 22/41/13 21/43/13
f 39/61/23 21/67/23 23/68/23
f 23/68/23 25/69/23 27/70/23
f 27/70/23 29/71/23 31/59/23
f 31/59/23 33/72/23 35/60/23
f 35/60/23 37/73/23 39/61/23
f 39/61/23 23/68/23 27/70/23
f 27/70/23 31/59/23 39/61/23
f 26/64/24 24/74/24 22/75/24
f 22/75/24 40/76/24 38/77/24
f 38/77/24 36/78/24 34/62/24
f 34/62/24 32/79/24 30/63/24
f 30/63/24 28/80/24 26/64/24
f 26/64/24 22/75/24 38/77/24
f 38/77/24 34/62/24 26/64/24
o RRW_Cylinder.006
v -0.332694 0.337657 -0.450325
v -0.478198 0.337657 -0.450325
v -0.332694 0.273194 -0.361599
v -0.478198 0.273194 -0.361599
v -0.332694 0.168890 -0.327708
v -0.478198 0.168890 -0.327708
v -0.332694 0.064586 -0.361599
v -0.478198 0.064586 -0.361599
v -0.332694 0.000123 -0.450325
v -0.478198 0.000123 -0.450325
v -0.332694 0.000123 -0.559996
v -0.478198 0.000123 -0.559996
v -0.332694 0.064586 -0.648722
v -0.478198 0.064586 -0.648722
v -0.332694 0.168890 -0.682613
v -0.478198 0.168890 -0.682613
v -0.332694 0.273194 -0.648722
v -0.478198 0.273194 -0.648722
v -0.332694 0.337657 -0.559996
v -0.478198 0.337657 -0.559996
vt 0.612156 0.971647
vt 0.524372 0.959848
vt 0.524372 0.971647
vt 0.612156 0.959848
vt 0.524372 0.940757
vt 0.612156 0.940757
vt 0.524372 0.921665
vt 0.612156 0.921665
vt 0.524372 0.909866
vt 0.612156 0.909866
vt 0.524372 0.909866
vt 0.612156 0.909866
vt 0.524372 0.921665
vt 0.612156 0.940757
vt 0.524372 0.940757
vt 0.524372 0.959848
vt 0.612156 0.959848
vt 0.524372 0.971647
vt 0.612156 0.971647
vt 0.516159 0.888320
vt 0.519896 0.891662
vt 0.518469 0.897068
vt 0.466232 0.179769
vt 0.383670 0.433867
vt 0.116495 0.433868
vt 0.612156 0.921665
vt 0.516159 0.897992
vt 0.513849 0.897068
vt 0.512421 0.894650
vt 0.512421 0.891662
vt 0.513849 0.889244
vt 0.518469 0.889244
vt 0.519896 0.894650
vt 0.033933 0.320231
vt 0.033933 0.179769
vt 0.116495 0.066133
vt 0.250082 0.022727
vt 0.383670 0.066133
vt 0.466232 0.320231
vt 0.250082 0.477273
vn 0.0000 0.9511 0.3090
vn 0.0000 0.5878 0.8090
vn 0.0000 -0.0000 1.0000
vn 0.0000 -0.5878 0.8090
vn 0.0000 -0.9511 0.3090
vn 0.0000 -0.9511 -0.3090
vn -0.0000 -0.5878 -0.8090
vn -0.0000 0.0000 -1.0000
vn 0.0000 0.5878 -0.8090
vn 0.0000 0.9511 -0.3090
vn 1.0000 -0.0000 0.0000
vn -1.0000 -0.0000 0.0000
s 1
f 42/81/25 43/82/26 41/83/25
f 44/84/26 45/85/27 43/82/26
f 46/86/27 47/87/28 45/85/27
f 48/88/28 49/89/29 47/87/28
f 50/90/29 51/91/30 49/89/29
f 52/92/30 53/93/31 51/91/30
f 53/93/31 56/94/32 55/95/32
f 56/94/32 57/96/33 55/95/32
f 58/97/33 59/98/34 57/96/33
f 60/99/34 41/83/25 59/98/34
f 51/100/35 55/101/35 59/102/35
f 54/103/36 50/104/36 46/105/36
f 42/81/25 44/84/26 43/82/26
f 44/84/26 46/86/27 45/85/27
f 46/86/27 48/88/28 47/87/28
f 48/88/28 50/90/29 49/89/29
f 50/90/29 52/92/30 51/91/30
f 52/92/30 54/106/31 53/93/31
f 53/93/31 54/106/31 56/94/32
f 56/94/32 58/97/33 57/96/33
f 58/97/33 60/99/34 59/98/34
f 60/99/34 42/81/25 41/83/25
f 59/102/35 41/107/35 43/108/35
f 43/108/35 45/109/35 47/110/35
f 47/110/35 49/111/35 51/100/35
f 51/100/35 53/112/35 55/101/35
f 55/101/35 57/113/35 59/102/35
f 59/102/35 43/108/35 47/110/35
f 47/110/35 51/100/35 59/102/35
f 46/105/36 44/114/36 42/115/36
f 42/115/36 60/116/36 58/117/36
f 58/117/36 56/118/36 54/103/36
f 54/103/36 52/119/36 50/104/36
f 50/104/36 48/120/36 46/105/36
f 46/105/36 42/115/36 58/117/36
f 58/117/36 54/103/36 46/105/36
o FRW_Cylinder.007
v -0.337687 0.337657 0.619554
v -0.456834 0.337657 0.619554
v -0.337687 0.273194 0.708280
v -0.456834 0.273194 0.708280
v -0.337687 0.168890 0.742171
v -0.456834 0.168890 0.742171
v -0.337687 0.064586 0.708280
v -0.456834 0.064586 0.708280
v -0.337687 0.000123 0.619554
v -0.456834 0.000123 0.619554
v -0.337687 0.000123 0.509883
v -0.456834 0.000123 0.509883
v -0.337687 0.064586 0.421157
v -0.456834 0.064586 0.421157
v -0.337687 0.168890 0.387266
v -0.456834 0.168890 0.387266
v -0.337687 0.273194 0.421157
v -0.456834 0.273194 0.421157
v -0.337687 0.337657 0.509883
v -0.456834 0.337657 0.509883
vt 0.524372 0.971647
vt 0.612156 0.959848
vt 0.524372 0.959848
vt 0.612156 0.940757
vt 0.524372 0.940757
vt 0.612156 0.921665
vt 0.524372 0.921665
vt 0.612156 0.909866
vt 0.524372 0.909866
vt 0.524372 0.909866
vt 0.612156 0.909866
vt 0.524372 0.921665
vt 0.612156 0.921665
vt 0.524372 0.940757
vt 0.612156 0.940757
vt 0.524372 0.959848
vt 0.612156 0.959848
vt 0.524372 0.971647
vt 0.612156 0.971647
vt 0.516159 0.888320
vt 0.519896 0.891662
vt 0.518469 0.897068
vt 0.466232 0.179769
vt 0.383670 0.433867
vt 0.116495 0.433868
vt 0.612156 0.971647
vt 0.516159 0.897992
vt 0.513849 0.897068
vt 0.512421 0.894650
vt 0.512421 0.891662
vt 0.513849 0.889244
vt 0.518469 0.889244
vt 0.519896 0.894650
vt 0.033933 0.320231
vt 0.033933 0.179769
vt 0.116495 0.066133
vt 0.250082 0.022727
vt 0.383670 0.066133
vt 0.466232 0.320231
vt 0.250082 0.477273
vn 0.0000 0.9511 0.3090
vn 0.0000 0.5878 0.8090
vn 0.0000 -0.0000 1.0000
vn 0.0000 -0.5878 0.8090
vn 0.0000 -0.9511 0.3090
vn 0.0000 -0.9511 -0.3090
vn 0.0000 -0.5878 -0.8090
vn 0.0000 0.0000 -1.0000
vn 0.0000 0.5878 -0.8090
vn 0.0000 0.9511 -0.3090
vn 1.0000 -0.0000 0.0000
vn -1.0000 -0.0000 0.0000
s 1
f 61/121/37 64/122/38 63/123/38
f 63/123/38 66/124/39 65/125/39
f 65/125/39 68/126/40 67/127/40
f 67/127/40 70/128/41 69/129/41
f 70/128/41 71/130/42 69/129/41
f 72/131/42 73/132/43 71/130/42
f 74/133/43 75/134/44 73/132/43
f 76/135/44 77/136/45 75/134/44
f 78/137/45 79/138/46 77/136/45
f 80/139/46 61/121/37 79/138/46
f 71/140/47 75/141/47 79/142/47
f 74/143/48 70/144/48 66/145/48
f 61/121/37 62/146/37 64/122/38
f 63/123/38 64/122/38 66/124/39
f 65/125/39 66/124/39 68/126/40
f 67/127/40 68/126/40 70/128/41
f 70/128/41 72/131/42 71/130/42
f 72/131/42 74/133/43 73/132/43
f 74/133/43 76/135/44 75/134/44
f 76/135/44 78/137/45 77/136/45
f 78/137/45 80/139/46 79/138/46
f 80/139/46 62/146/37 61/121/37
f 79/142/47 61/147/47 63/148/47
f 63/148/47 65/149/47 67/150/47
f 67/150/47 69/151/47 71/140/47
f 71/140/47 73/152/47 75/141/47
f 75/141/47 77/153/47 79/142/47
f 79/142/47 63/148/47 67/150/47
f 67/150/47 71/140/47 79/142/47
f 66/145/48 64/154/48 62/155/48
f 62/155/48 80/156/48 78/157/48
f 78/157/48 76/158/48 74/143/48
f 74/143/48 72/159/48 70/144/48
f 70/144/48 68/160/48 66/145/48
f 66/145/48 62/155/48 78/157/48
f 78/157/48 74/143/48 66/145/48
o Body_Plane.001
v 0.379012 0.378592 0.931149
v 0.473565 0.361703 0.458376
v 0.361397 0.425212 0.886368
v 0.385606 0.488701 0.323699
v 0.392706 0.205511 0.931149
v 0.414464 0.070843 0.785198
v 0.462925 0.191150 0.770598
v 0.473565 0.347528 0.662540
v 0.462925 0.212979 0.359458
v 0.397179 0.052291 0.359458
v 0.462925 0.212979 -0.295721
v 0.397179 0.052291 -0.295721
v 0.473565 0.361703 -0.395543
v 0.472265 0.361704 -0.603393
v 0.462925 0.260229 -0.694691
v 0.403223 0.083168 -0.736034
v 0.369479 0.503951 -0.857318
v 0.401015 0.470771 -0.880972
v 0.439956 0.290940 -0.898686
v 0.386744 0.089406 -0.768975
v 0.385606 0.488702 -0.483649
v 0.288168 0.070843 0.785198
v 0.288168 0.205742 0.770598
v 0.288168 0.347528 0.662540
v 0.288168 0.361703 0.458376
v 0.288168 0.227572 0.359458
v 0.288168 0.052291 0.359458
v 0.288168 0.227572 -0.295721
v 0.288168 0.052291 -0.295721
v 0.288168 0.361703 -0.395543
v 0.288168 0.361704 -0.603393
v 0.288168 0.274821 -0.694691
v 0.288168 0.083041 -0.736034
v 0.236998 0.123425 -0.754490
v 0.236998 0.195760 -0.754490
v 0.236998 0.123425 -0.892913
v 0.236998 0.195760 -0.892913
v 0.309333 0.123425 -0.754490
v 0.309333 0.195760 -0.754490
v 0.309333 0.123425 -0.892913
v 0.309333 0.195760 -0.892913
v 0.268641 0.822440 0.187351
v 0.268641 0.822440 -0.550528
v 0.380489 0.205511 0.981549
v 0.380489 0.144508 0.981549
v 0.392706 0.144508 0.931149
v 0.380489 0.069680 0.902573
v 0.253134 0.800674 0.196244
v 0.360255 0.505417 0.316870
v 0.279323 0.791961 0.171959
v 0.377866 0.510786 0.287098
v 0.377866 0.510786 -0.167991
v 0.278151 0.795307 -0.167991
v 0.376408 0.514945 -0.488908
v 0.278417 0.794548 -0.503723
v 0.377105 0.512956 -0.249943
v 0.278417 0.794548 -0.242293
v 0.369911 0.522330 -0.766735
v 0.252671 0.801815 -0.570546
v 0.339383 0.523628 -0.838221
v 0.421691 0.221764 -0.854163
v 0.439956 0.290940 -0.932889
v 0.426667 0.221764 -0.932889
v 0.000000 0.425212 0.886368
v -0.379012 0.378592 0.931149
v 0.000000 0.488701 0.323699
v -0.473565 0.361703 0.458376
v -0.361397 0.425212 0.886368
v -0.385606 0.488701 0.323699
v -0.392706 0.205511 0.931149
v 0.000000 0.205511 0.931149
v 0.000000 0.378592 0.931149
v 0.000000 0.069680 0.902573
v -0.414464 0.070843 0.785198
v -0.462925 0.191150 0.770598
v -0.473565 0.347528 0.662540
v -0.462925 0.212979 0.359458
v -0.397179 0.052291 0.359458
v -0.462925 0.212979 -0.295721
v -0.397179 0.052291 -0.295721
v -0.473565 0.361703 -0.395543
v -0.472265 0.361704 -0.603393
v -0.462925 0.260229 -0.694691
v -0.403223 0.083168 -0.736034
v 0.000000 0.503951 -0.857318
v -0.369479 0.503951 -0.857318
v 0.000000 0.470771 -0.880972
v -0.401015 0.470771 -0.880972
v 0.000000 0.290940 -0.898686
v -0.439956 0.290940 -0.898686
v 0.000000 0.089406 -0.768975
v -0.386744 0.089406 -0.768975
v -0.385606 0.488702 -0.483649
v -0.288168 0.070843 0.785198
v -0.288168 0.205742 0.770598
v -0.288168 0.347528 0.662540
v -0.288168 0.361703 0.458376
v -0.288168 0.227572 0.359458
v -0.288168 0.052291 0.359458
v -0.288168 0.227572 -0.295721
v -0.288168 0.052291 -0.295721
v -0.288168 0.361703 -0.395543
v -0.288168 0.361704 -0.603393
v -0.288168 0.274821 -0.694691
v -0.288168 0.083041 -0.736034
v 0.000000 0.052291 0.359458
v 0.000000 0.052291 -0.295721
v -0.236998 0.123425 -0.754490
v -0.236998 0.195760 -0.754490
v -0.236998 0.123425 -0.892913
v -0.236998 0.195760 -0.892913
v -0.309333 0.123425 -0.754490
v -0.309333 0.195760 -0.754490
v -0.309333 0.123425 -0.892913
v -0.309333 0.195760 -0.892913
v 0.000000 0.822440 0.187351
v -0.268641 0.822440 0.187351
v 0.000000 0.822440 -0.550528
v -0.268641 0.822440 -0.550528
v -0.380489 0.205511 0.981549
v 0.000000 0.205511 0.981549
v -0.380489 0.144508 0.981549
v 0.000000 0.144508 0.981549
v -0.392706 0.144508 0.931149
v 0.000000 0.144508 0.931149
v -0.380489 0.069680 0.902573
v 0.000000 0.800689 0.196238
v -0.253134 0.800674 0.196244
v 0.000000 0.505428 0.316865
v -0.360255 0.505417 0.316870
v -0.279323 0.791961 0.171959
v -0.377866 0.510786 0.287098
v -0.377866 0.510786 -0.167991
v -0.278151 0.795307 -0.167991
v -0.376408 0.514945 -0.488908
v -0.278417 0.794548 -0.503723
v -0.377105 0.512956 -0.249943
v -0.278417 0.794548 -0.242293
v -0.369911 0.522330 -0.766735
v 0.000000 0.523630 -0.838218
v 0.000000 0.801809 -0.570552
v -0.252671 0.801815 -0.570546
v -0.339383 0.523628 -0.838221
v -0.421691 0.221764 -0.854163
v 0.000000 0.221764 -0.854163
v -0.439956 0.290940 -0.932889
v 0.000000 0.290940 -0.932889
v 0.000000 0.221764 -0.932889
v -0.426667 0.221764 -0.932889
vt 0.180344 0.848231
vt 0.181419 0.852091
vt 0.180776 0.855971
vt 0.133149 0.863875
vt 0.129189 0.866055
vt 0.129189 0.863521
vt 0.173822 0.863785
vt 0.170750 0.863495
vt 0.174109 0.863712
vt 0.176895 0.849654
vt 0.177957 0.852338
vt 0.177670 0.853693
vt 0.179631 0.836628
vt 0.179463 0.838279
vt 0.179463 0.836625
vt 0.177670 0.855971
vt 0.177957 0.864806
vt 0.177670 0.865906
vt 0.167814 0.864504
vt 0.163962 0.865596
vt 0.163962 0.864504
vt 0.183306 0.851755
vt 0.160796 0.857493
vt 0.158172 0.851755
vt 0.180776 0.865387
vt 0.181415 0.869819
vt 0.180868 0.867706
vt 0.181394 0.865422
vt 0.181978 0.866733
vt 0.177957 0.869718
vt 0.177494 0.871130
vt 0.177518 0.868225
vt 0.181466 0.835906
vt 0.181350 0.835874
vt 0.181626 0.835828
vt 0.287049 0.913262
vt 0.289892 0.909930
vt 0.289830 0.913312
vt 0.291533 0.909877
vt 0.294547 0.913198
vt 0.291533 0.913199
vt 0.287111 0.915434
vt 0.289892 0.915485
vt 0.281426 0.917792
vt 0.284443 0.919907
vt 0.281658 0.919907
vt 0.272188 0.922795
vt 0.273837 0.924668
vt 0.272186 0.924668
vt 0.290444 0.891583
vt 0.292154 0.893996
vt 0.289369 0.893996
vt 0.286879 0.922415
vt 0.289896 0.919824
vt 0.289896 0.922415
vt 0.282669 0.922758
vt 0.284443 0.922758
vt 0.288122 0.917125
vt 0.287111 0.919824
vt 0.289137 0.896708
vt 0.292154 0.896708
vt 0.181462 0.855215
vt 0.181356 0.848162
vt 0.181955 0.869638
vt 0.292995 0.917157
vt 0.292995 0.924089
vt 0.292246 0.917125
vt 0.292157 0.924053
vt 0.291579 0.919094
vt 0.291537 0.922416
vt 0.292808 0.900698
vt 0.292808 0.907862
vt 0.292322 0.907871
vt 0.291969 0.900714
vt 0.291574 0.905727
vt 0.291407 0.902349
vt 0.273329 0.901288
vt 0.275101 0.912548
vt 0.273329 0.912548
vt 0.275101 0.901288
vt 0.279785 0.912547
vt 0.288693 0.894643
vt 0.289975 0.894643
vt 0.288873 0.895010
vt 0.293183 0.895009
vt 0.275045 0.919707
vt 0.279725 0.920241
vt 0.299144 0.883343
vt 0.299144 0.886725
vt 0.297447 0.886725
vt 0.297447 0.884217
vt 0.302833 0.984937
vt 0.307698 0.980072
vt 0.307698 0.984937
vt 0.236306 0.951208
vt 0.248159 0.939354
vt 0.248159 0.951208
vt 0.297482 0.984937
vt 0.302347 0.980072
vt 0.302347 0.984937
vt 0.297482 0.995640
vt 0.302347 0.990775
vt 0.302347 0.995640
vt 0.307698 0.990289
vt 0.302833 0.985424
vt 0.307698 0.985424
vt 0.179383 0.858403
vt 0.180216 0.858451
vt 0.179256 0.858458
vt 0.135968 0.852133
vt 0.135252 0.858094
vt 0.135252 0.852138
vt 0.176841 0.865457
vt 0.177684 0.865614
vt 0.177010 0.865618
vt 0.177557 0.865452
vt 0.180041 0.865904
vt 0.180053 0.867576
vt 0.132915 0.776413
vt 0.171294 0.757282
vt 0.171294 0.776413
vt 0.132332 0.787950
vt 0.175566 0.807693
vt 0.132332 0.807693
vt 0.327475 0.928538
vt 0.326454 0.920828
vt 0.327475 0.920580
vt 0.299496 0.928538
vt 0.298260 0.920828
vt 0.299496 0.920828
vt 0.326183 0.952720
vt 0.325162 0.960429
vt 0.325162 0.952472
vt 0.178209 0.833769
vt 0.180832 0.833769
vt 0.180832 0.833769
vt 0.173627 0.836039
vt 0.177763 0.834477
vt 0.178215 0.837432
vt 0.173529 0.837432
vt 0.299496 0.920580
vt 0.296904 0.883343
vt 0.296704 0.884217
vt 0.177681 0.859425
vt 0.176841 0.859501
vt 0.177006 0.859430
vt 0.975448 0.879720
vt 0.979399 0.995804
vt 0.975448 0.995806
vt 0.177557 0.859496
vt 0.180204 0.863026
vt 0.180222 0.862364
vt 0.180411 0.864912
vt 0.955084 0.881477
vt 0.950916 0.993215
vt 0.949504 0.881477
vt 0.180222 0.858691
vt 0.177818 0.859621
vt 0.955995 0.994243
vt 0.959019 0.883130
vt 0.959200 0.994243
vt 0.960462 0.892839
vt 0.177795 0.862964
vt 0.177789 0.862364
vt 0.933914 0.997342
vt 0.936145 0.879203
vt 0.936145 0.997339
vt 0.179811 0.867422
vt 0.179068 0.867582
vt 0.178906 0.867428
vt 0.295792 0.928100
vt 0.296624 0.921043
vt 0.296624 0.928100
vt 0.178641 0.831244
vt 0.178991 0.830320
vt 0.178991 0.831244
vt 0.324473 0.953897
vt 0.325574 0.946841
vt 0.325574 0.953897
vt 0.293559 0.928100
vt 0.294125 0.927880
vt 0.294125 0.928100
vt 0.322301 0.933246
vt 0.321735 0.925970
vt 0.322301 0.925970
vt 0.180344 0.848231
vt 0.180776 0.855971
vt 0.181419 0.852091
vt 0.133149 0.863875
vt 0.173822 0.863785
vt 0.174109 0.863712
vt 0.176895 0.849654
vt 0.177957 0.852338
vt 0.177441 0.850121
vt 0.179463 0.838279
vt 0.179631 0.836628
vt 0.179463 0.836625
vt 0.177670 0.855971
vt 0.177957 0.864806
vt 0.177957 0.857088
vt 0.167814 0.864504
vt 0.324800 0.925970
vt 0.323968 0.926535
vt 0.324800 0.927071
vt 0.183306 0.851755
vt 0.160796 0.857493
vt 0.187316 0.857493
vt 0.181415 0.869819
vt 0.180776 0.865387
vt 0.180868 0.867706
vt 0.181394 0.865422
vt 0.181978 0.866733
vt 0.177957 0.869718
vt 0.177518 0.868225
vt 0.177494 0.871130
vt 0.181626 0.835828
vt 0.181466 0.835906
vt 0.181816 0.836002
vt 0.287049 0.913262
vt 0.289892 0.909930
vt 0.286879 0.909876
vt 0.294547 0.913198
vt 0.291533 0.909877
vt 0.291533 0.913199
vt 0.287111 0.915434
vt 0.289830 0.913312
vt 0.284443 0.919907
vt 0.281426 0.917792
vt 0.281658 0.919907
vt 0.272188 0.922795
vt 0.273837 0.924668
vt 0.273837 0.921883
vt 0.292154 0.893996
vt 0.290444 0.891583
vt 0.289369 0.893996
vt 0.286879 0.922415
vt 0.289896 0.919824
vt 0.287111 0.919824
vt 0.282669 0.922758
vt 0.288122 0.917125
vt 0.289137 0.896708
vt 0.181462 0.855215
vt 0.181356 0.848162
vt 0.181955 0.869638
vt 0.292995 0.917157
vt 0.292246 0.917125
vt 0.292995 0.924089
vt 0.292157 0.924053
vt 0.291579 0.919094
vt 0.291537 0.922416
vt 0.292808 0.900698
vt 0.292322 0.907871
vt 0.292808 0.907862
vt 0.291969 0.900714
vt 0.291574 0.905727
vt 0.291407 0.902349
vt 0.275101 0.912548
vt 0.273329 0.901288
vt 0.273329 0.912548
vt 0.275101 0.901288
vt 0.288693 0.894643
vt 0.288873 0.895010
vt 0.289975 0.894643
vt 0.275045 0.919707
vt 0.297447 0.886725
vt 0.297447 0.884217
vt 0.307698 0.980072
vt 0.302833 0.984937
vt 0.307698 0.984937
vt 0.248159 0.939354
vt 0.236306 0.951208
vt 0.248159 0.951208
vt 0.302347 0.980072
vt 0.297482 0.984937
vt 0.302347 0.984937
vt 0.302347 0.990775
vt 0.297482 0.995640
vt 0.302347 0.995640
vt 0.302833 0.985424
vt 0.307698 0.990289
vt 0.307698 0.985424
vt 0.180216 0.858451
vt 0.180411 0.858396
vt 0.135968 0.852133
vt 0.177684 0.865614
vt 0.177557 0.865452
vt 0.180041 0.865904
vt 0.180053 0.867576
vt 0.132915 0.776413
vt 0.175566 0.807693
vt 0.177129 0.787950
vt 0.326454 0.920828
vt 0.327475 0.920580
vt 0.298260 0.920828
vt 0.299496 0.920828
vt 0.326183 0.952720
vt 0.326183 0.960429
vt 0.180832 0.833769
vt 0.180832 0.833769
vt 0.177763 0.834477
vt 0.173627 0.836039
vt 0.178215 0.837432
vt 0.173529 0.837432
vt 0.299496 0.920580
vt 0.296904 0.883343
vt 0.296704 0.884217
vt 0.177681 0.859425
vt 0.979399 0.995804
vt 0.981072 0.879720
vt 0.177557 0.859496
vt 0.180222 0.862364
vt 0.180411 0.864912
vt 0.955084 0.881477
vt 0.950916 0.993215
vt 0.955084 0.994545
vt 0.180222 0.858691
vt 0.177818 0.859621
vt 0.959019 0.883130
vt 0.955995 0.994243
vt 0.959200 0.994243
vt 0.960462 0.892839
vt 0.177795 0.862964
vt 0.180204 0.863026
vt 0.177789 0.862364
vt 0.180187 0.864954
vt 0.933914 0.997342
vt 0.179811 0.867422
vt 0.296624 0.921043
vt 0.295792 0.920824
vt 0.178991 0.830320
vt 0.178641 0.830225
vt 0.324473 0.953897
vt 0.324473 0.946841
vt 0.293559 0.928100
vt 0.294125 0.927880
vt 0.293023 0.927880
vt 0.322301 0.933246
vt 0.133415 0.866055
vt 0.170750 0.863511
vt 0.177441 0.850121
vt 0.179631 0.838282
vt 0.177957 0.857088
vt 0.168356 0.865596
vt 0.187316 0.857493
vt 0.181855 0.835962
vt 0.181816 0.836002
vt 0.286879 0.909876
vt 0.294547 0.909876
vt 0.284443 0.917792
vt 0.273837 0.921883
vt 0.292154 0.891583
vt 0.289896 0.917125
vt 0.279785 0.901286
vt 0.302833 0.980072
vt 0.236306 0.939354
vt 0.297482 0.980072
vt 0.297482 0.990775
vt 0.302833 0.990289
vt 0.180411 0.858396
vt 0.135968 0.858089
vt 0.178379 0.865296
vt 0.129188 0.757282
vt 0.177129 0.787950
vt 0.326454 0.928538
vt 0.298260 0.928538
vt 0.178209 0.833769
vt 0.174278 0.834301
vt 0.298260 0.920580
vt 0.981072 0.879720
vt 0.180187 0.864954
vt 0.955084 0.994545
vt 0.956089 0.882339
vt 0.177795 0.865074
vt 0.933149 0.879202
vt 0.295792 0.920824
vt 0.178641 0.830225
vt 0.293023 0.927880
vt 0.321735 0.933246
vt 0.133415 0.866055
vt 0.177670 0.853693
vt 0.179631 0.838282
vt 0.177670 0.865906
vt 0.168356 0.865596
vt 0.323968 0.925970
vt 0.158172 0.851755
vt 0.181855 0.835962
vt 0.181350 0.835874
vt 0.294547 0.909876
vt 0.289892 0.915485
vt 0.284443 0.917792
vt 0.272186 0.924668
vt 0.292154 0.891583
vt 0.289896 0.922415
vt 0.284443 0.922758
vt 0.289896 0.917125
vt 0.292154 0.896708
vt 0.302833 0.980072
vt 0.236306 0.939354
vt 0.297482 0.980072
vt 0.297482 0.990775
vt 0.302833 0.990289
vt 0.135968 0.858089
vt 0.178379 0.865296
vt 0.129188 0.757282
vt 0.325162 0.952472
vt 0.174278 0.834301
vt 0.298260 0.920580
vt 0.949504 0.881477
vt 0.956089 0.882339
vt 0.177795 0.865074
vt 0.933149 0.879202
vt 0.325574 0.953897
vt 0.294125 0.928100
vt 0.321735 0.933246
vn 0.5117 0.7100 0.4838
vn 0.8186 0.5476 0.1733
vn 0.8061 0.5915 0.0194
vn 0.0000 0.9937 0.1121
vn 0.0000 0.6927 0.7212
vn 0.6860 0.5052 0.5236
vn 0.9396 -0.0267 0.3412
vn 0.9255 -0.3787 -0.0000
vn 0.9791 -0.2032 0.0000
vn 0.9791 -0.2034 -0.0000
vn 0.8903 0.4547 0.0243
vn 0.9014 0.4329 0.0008
vn 0.0000 0.5805 -0.8143
vn 0.0000 0.3511 -0.9363
vn 0.8175 0.5759 0.0037
vn 0.8783 0.4722 -0.0748
vn 0.7237 0.6901 -0.0031
vn 0.9075 0.4175 -0.0466
vn 0.9806 -0.1291 -0.1475
vn 0.9877 -0.0101 -0.1561
vn 0.9256 -0.3449 -0.1561
vn 0.0000 -0.9178 0.3970
vn 0.0000 -0.8936 -0.4489
vn -0.0190 -0.9222 0.3862
vn -0.0127 -0.8784 -0.4777
vn 0.0000 -0.9077 0.4196
vn -0.0134 -0.9067 0.4216
vn -0.0218 -0.4931 0.8697
vn -0.0389 -0.5035 0.8631
vn -0.0124 -0.3149 0.9491
vn -0.0265 -0.3176 0.9479
vn -0.0082 -0.2155 0.9765
vn 0.0002 -0.2107 0.9775
vn -0.0056 -0.1128 -0.9936
vn -0.0154 -0.3725 -0.9279
vn -0.0313 -0.3746 -0.9266
vn -0.0132 -0.8916 -0.4526
vn -0.0125 -0.3170 -0.9484
vn -0.0000 -0.0000 1.0000
vn 0.0000 0.0000 -1.0000
vn -0.0267 -0.3198 -0.9471
vn 0.0000 -0.8802 -0.4745
vn 1.0000 0.0000 0.0000
vn 0.0000 -1.0000 -0.0000
vn -0.0016 -0.9997 -0.0251
vn 0.0023 -0.9999 0.0119
vn 0.0000 -0.9992 -0.0391
vn 0.0011 -0.9824 -0.1866
vn -0.0050 -0.9892 -0.1468
vn 0.0009 -0.9823 -0.1871
vn 0.0000 -0.9967 -0.0815
vn 0.0000 -0.9996 0.0268
vn 0.0000 -0.9999 0.0160
vn 0.0090 -0.9999 0.0123
vn -1.0000 -0.0000 0.0000
vn 0.0000 1.0000 0.0000
vn 0.0000 0.3782 0.9257
vn 0.0000 0.6965 -0.7176
vn 0.0021 0.6947 -0.7193
vn -0.0000 0.6949 -0.7191
vn 0.9447 0.3279 -0.0085
vn 0.9622 0.2679 -0.0485
vn 0.9476 0.3122 -0.0679
vn 0.0000 0.2694 -0.9630
vn 0.0000 0.0980 -0.9952
vn 0.0000 -0.3568 0.9342
vn 0.9470 -0.1026 0.3045
vn 0.9069 -0.3060 0.2896
vn 0.9382 0.0258 0.3451
vn 0.9719 -0.0000 0.2356
vn 0.0000 -1.0000 -0.0099
vn 0.9437 0.3307 0.0000
vn 0.9455 0.3255 -0.0063
vn 0.9440 0.3299 -0.0070
vn 0.9443 0.3290 -0.0028
vn -0.0017 0.6944 -0.7196
vn 0.0019 0.6955 -0.7185
vn 0.0000 -0.5412 -0.8409
vn 0.4652 -0.8847 0.0294
vn 0.6432 -0.7651 0.0290
vn 0.9788 -0.2025 0.0292
vn 0.9820 -0.1887 0.0000
vn -0.5117 0.7100 0.4838
vn -0.8061 0.5915 0.0194
vn -0.8186 0.5476 0.1733
vn -0.6860 0.5052 0.5236
vn -0.9396 -0.0267 0.3412
vn -0.9382 0.0258 0.3451
vn -0.9791 -0.2032 0.0000
vn -0.9255 -0.3787 -0.0000
vn -0.9791 -0.2034 -0.0000
vn -0.8903 0.4547 0.0243
vn -0.9014 0.4329 0.0008
vn -0.8783 0.4722 -0.0748
vn -0.8175 0.5759 0.0037
vn -0.7237 0.6901 -0.0031
vn -0.9075 0.4175 -0.0466
vn -0.9806 -0.1291 -0.1475
vn -0.9877 -0.0101 -0.1561
vn -0.9256 -0.3449 -0.1561
vn -0.9058 -0.2578 -0.3361
vn 0.0132 -0.8916 -0.4526
vn 0.0127 -0.8784 -0.4777
vn 0.0134 -0.9067 0.4216
vn 0.0218 -0.4931 0.8697
vn 0.0190 -0.9222 0.3862
vn 0.0124 -0.3149 0.9491
vn 0.0265 -0.3176 0.9479
vn 0.0082 -0.2155 0.9765
vn 0.0389 -0.5035 0.8631
vn 0.0154 -0.3725 -0.9279
vn 0.0056 -0.1128 -0.9936
vn 0.0313 -0.3746 -0.9266
vn 0.0125 -0.3170 -0.9484
vn 0.0267 -0.3198 -0.9471
vn 0.0016 -0.9997 -0.0251
vn -0.0023 -0.9999 0.0119
vn -0.0011 -0.9824 -0.1866
vn -0.0009 -0.9823 -0.1871
vn 0.0050 -0.9892 -0.1468
vn -0.0090 -0.9999 0.0123
vn -0.0021 0.6947 -0.7193
vn -0.0019 0.6955 -0.7185
vn -0.9622 0.2679 -0.0485
vn -0.9447 0.3279 -0.0085
vn -0.9476 0.3122 -0.0679
vn -0.9069 -0.3060 0.2896
vn -0.9470 -0.1026 0.3045
vn -0.9719 -0.0000 0.2356
vn -0.9437 0.3307 0.0000
vn -0.9455 0.3255 -0.0063
vn -0.9440 0.3299 -0.0070
vn -0.9443 0.3290 -0.0028
vn 0.0017 0.6944 -0.7196
vn 0.0020 0.6949 -0.7191
vn -0.4652 -0.8847 0.0294
vn -0.9788 -0.2025 0.0292
vn -0.6433 -0.7651 0.0290
vn 0.8650 -0.1826 -0.4673
vn 0.9058 -0.2578 -0.3361
vn 0.0000 -0.1076 -0.9942
vn 0.9298 -0.2536 0.2666
vn -0.0020 0.6949 -0.7191
vn -0.8650 -0.1826 -0.4673
vn -0.0002 -0.2107 0.9775
vn -0.9298 -0.2536 0.2666
vn -0.9820 -0.1887 0.0000
vn -0.6432 -0.7651 0.0290
s 1
f 83/161/49 88/162/50 84/163/51
f 83/164/52 146/165/52 144/166/52
f 83/167/49 152/168/53 81/169/54
f 81/170/54 87/171/55 88/172/50
f 90/173/56 91/174/57 89/175/58
f 82/176/59 91/177/57 93/178/60
f 97/179/61 167/180/62 165/181/61
f 84/182/51 93/183/60 101/184/63
f 101/185/63 98/186/64 97/187/65
f 93/188/60 94/189/66 98/186/64
f 95/190/67 99/191/68 94/192/66
f 141/193/69 99/194/68 95/195/67
f 94/196/70 110/197/71 111/198/72
f 88/199/73 105/200/74 82/201/75
f 95/202/76 111/198/72 112/203/77
f 82/204/75 106/205/78 89/206/79
f 96/207/80 112/208/77 113/209/81
f 86/210/82 103/211/83 87/212/84
f 93/213/85 108/214/86 110/215/71
f 90/216/87 106/205/78 107/217/87
f 92/218/88 108/214/86 91/219/89
f 88/220/73 103/211/83 104/221/90
f 84/163/51 88/162/50 82/222/59
f 88/162/50 83/161/49 81/223/54
f 94/189/66 99/224/68 98/186/64
f 102/225/91 107/226/91 103/227/91
f 107/226/91 106/228/91 103/227/91
f 103/227/91 106/228/91 104/229/91
f 105/230/91 104/229/91 106/228/91
f 109/231/91 113/232/91 112/233/91
f 109/231/91 112/233/91 108/234/91
f 112/233/91 111/235/91 108/234/91
f 108/234/91 111/235/91 110/236/91
f 90/237/92 109/238/93 92/239/92
f 107/240/94 187/241/95 109/238/93
f 96/242/96 113/243/97 100/244/98
f 171/245/99 100/244/98 113/243/97
f 113/246/97 109/238/93 171/247/99
f 109/238/93 187/241/95 171/247/99
f 153/248/100 186/249/101 107/250/94
f 107/250/94 102/251/102 153/248/100
f 115/252/103 116/253/103 114/254/103
f 117/255/88 120/256/88 116/257/88
f 121/258/91 118/259/91 120/260/91
f 120/261/92 114/262/92 116/263/92
f 117/264/104 119/265/104 121/266/104
f 146/267/105 129/268/105 209/269/105
f 122/270/104 198/271/104 196/272/104
f 198/273/106 139/274/107 221/275/108
f 123/276/109 138/277/110 97/278/111
f 98/279/112 169/280/113 167/281/62
f 151/282/87 81/283/87 152/284/87
f 151/285/104 124/286/104 85/287/104
f 201/288/87 125/289/87 124/290/87
f 125/291/92 205/292/92 126/293/92
f 205/294/114 127/295/114 126/296/114
f 126/297/115 86/298/116 87/299/55
f 87/299/55 85/300/117 126/297/115
f 125/289/118 85/301/117 124/290/118
f 153/248/100 102/251/102 127/302/119
f 102/251/102 86/303/119 127/302/119
f 128/304/105 196/305/105 207/306/105
f 209/307/105 128/308/105 207/309/105
f 129/268/105 122/310/105 128/304/105
f 136/311/120 132/312/120 101/313/121
f 132/314/120 130/315/120 131/316/120
f 122/310/120 131/317/120 130/318/120
f 137/319/120 134/320/122 135/321/123
f 134/320/122 138/322/110 135/321/123
f 132/312/120 137/323/120 133/324/120
f 133/324/120 123/276/109 122/310/120
f 138/277/110 101/313/121 97/278/111
f 139/325/107 220/326/108 221/327/108
f 140/328/124 165/329/106 220/330/108
f 123/276/125 140/328/124 139/274/107
f 227/331/88 143/332/88 228/333/88
f 225/334/126 100/335/126 171/336/126
f 141/337/127 228/338/92 143/339/128
f 99/340/129 143/341/128 142/342/130
f 99/343/104 227/344/104 169/345/104
f 148/346/131 149/347/132 156/348/133
f 146/165/52 148/349/52 144/166/52
f 152/168/53 148/350/131 145/351/134
f 145/352/134 155/353/135 150/354/136
f 159/355/137 158/356/138 157/357/139
f 147/358/140 159/359/137 157/360/139
f 167/180/62 166/361/61 165/181/61
f 228/362/91 169/363/91 225/364/91
f 149/365/132 161/366/141 147/367/140
f 168/368/142 173/369/143 166/370/144
f 161/371/141 168/368/142 162/372/145
f 163/373/146 162/374/145 170/375/147
f 163/376/146 224/377/148 172/378/149
f 162/379/70 182/380/71 161/381/150
f 177/382/74 156/383/151 147/384/152
f 163/385/153 183/386/154 162/379/70
f 178/387/155 147/388/152 157/389/156
f 164/390/157 184/391/158 163/392/153
f 175/393/159 154/394/160 155/395/161
f 161/396/150 180/397/162 159/398/163
f 158/399/87 178/387/155 157/389/156
f 180/397/162 160/400/88 159/398/163
f 156/401/151 175/393/159 155/395/161
f 149/347/132 147/402/140 156/348/133
f 156/348/133 145/403/134 148/346/131
f 162/372/145 168/368/142 170/404/147
f 174/405/103 175/406/103 179/407/103
f 179/407/103 175/406/103 178/408/103
f 175/406/103 176/409/103 178/408/103
f 177/410/103 178/408/103 176/409/103
f 181/411/103 184/412/103 185/413/103
f 181/411/103 180/414/103 184/412/103
f 184/412/103 180/414/103 183/415/103
f 180/414/103 182/416/103 183/415/103
f 181/417/164 158/418/92 160/419/92
f 187/241/95 179/420/165 181/417/164
f 164/421/166 172/422/167 185/423/168
f 171/245/99 185/423/168 172/422/167
f 185/424/168 171/247/99 181/417/164
f 181/417/164 171/247/99 187/241/95
f 153/248/100 179/425/165 186/249/101
f 179/425/165 153/248/100 174/426/169
f 190/427/91 189/428/91 188/429/91
f 194/430/88 191/431/88 190/432/88
f 192/433/103 195/434/103 194/435/103
f 188/436/92 194/437/92 190/438/92
f 193/439/104 191/440/104 195/441/104
f 146/267/105 210/442/105 149/443/105
f 198/271/104 197/444/104 196/272/104
f 198/273/106 222/445/170 199/446/171
f 219/447/172 199/446/173 166/448/174
f 169/280/113 168/449/112 167/281/62
f 151/282/87 145/450/87 150/451/87
f 200/452/104 151/285/104 150/453/104
f 202/454/87 201/288/87 200/455/87
f 202/456/92 205/292/92 203/457/92
f 206/458/114 205/294/114 204/459/114
f 154/460/175 204/461/176 155/462/135
f 155/462/135 204/461/176 150/463/136
f 150/464/136 202/454/177 200/455/177
f 153/248/100 206/465/119 174/426/169
f 174/426/169 206/465/119 154/466/119
f 196/305/105 208/467/105 207/306/105
f 209/307/105 208/468/105 210/469/105
f 210/442/105 197/470/105 149/443/105
f 149/443/178 213/471/178 173/472/179
f 213/473/178 211/474/178 214/475/178
f 212/476/178 197/470/178 211/477/178
f 215/478/180 218/479/178 216/480/181
f 215/478/180 216/480/181 219/481/172
f 213/471/178 218/482/178 217/483/178
f 214/484/178 199/446/173 218/482/178
f 219/447/172 173/472/179 215/485/180
f 220/326/108 222/486/170 221/327/108
f 223/487/182 165/329/106 166/448/183
f 223/487/182 199/446/171 222/445/170
f 227/331/88 229/488/88 226/489/88
f 225/334/126 172/490/126 224/491/126
f 224/492/184 228/338/92 225/493/92
f 170/494/185 229/495/186 224/496/184
f 227/344/104 170/497/104 169/345/104
f 83/164/52 84/498/52 146/165/52
f 83/167/49 144/499/53 152/168/53
f 81/170/54 85/500/117 87/171/55
f 90/173/56 92/501/56 91/174/57
f 82/176/59 89/502/58 91/177/57
f 97/179/61 98/503/112 167/180/62
f 84/182/51 82/504/59 93/183/60
f 101/185/63 93/188/60 98/186/64
f 95/195/67 96/505/187 100/506/188
f 100/506/188 141/193/69 95/195/67
f 94/196/70 93/507/85 110/197/71
f 88/199/73 104/508/90 105/200/74
f 95/202/76 94/196/70 111/198/72
f 82/204/75 105/509/74 106/205/78
f 96/207/80 95/510/76 112/208/77
f 86/210/82 102/511/189 103/211/83
f 93/213/85 91/219/89 108/214/86
f 90/216/87 89/206/79 106/205/78
f 92/218/88 109/512/88 108/214/86
f 88/220/73 87/212/84 103/211/83
f 90/237/92 107/240/94 109/238/93
f 107/240/94 186/513/101 187/241/95
f 115/252/103 117/514/103 116/253/103
f 117/255/88 121/515/88 120/256/88
f 121/258/91 119/516/91 118/259/91
f 120/261/92 118/517/92 114/262/92
f 117/264/104 115/518/104 119/265/104
f 146/267/105 84/519/105 129/268/105
f 122/270/104 123/520/104 198/271/104
f 198/273/106 123/276/125 139/274/107
f 123/276/109 135/521/123 138/277/110
f 98/279/112 99/522/113 169/280/113
f 151/282/87 85/523/87 81/283/87
f 151/285/104 201/524/104 124/286/104
f 201/288/87 203/525/87 125/289/87
f 125/291/92 203/457/92 205/292/92
f 205/294/114 153/526/114 127/295/114
f 126/297/115 127/527/190 86/298/116
f 125/289/118 126/528/115 85/301/117
f 128/304/105 122/310/105 196/305/105
f 209/307/105 129/529/105 128/308/105
f 129/268/105 84/519/105 122/310/105
f 84/519/120 101/313/121 132/312/120
f 134/530/122 136/311/120 101/313/121
f 132/312/120 131/317/120 84/519/120
f 132/314/120 133/531/120 130/315/120
f 122/310/120 84/519/120 131/317/120
f 137/319/120 136/532/120 134/320/122
f 132/312/120 136/311/120 137/323/120
f 133/324/120 137/323/120 123/276/109
f 135/533/123 123/276/109 137/323/120
f 122/310/120 130/318/120 133/324/120
f 138/277/110 134/530/122 101/313/121
f 139/325/107 140/534/124 220/326/108
f 140/328/124 97/278/191 165/329/106
f 123/276/125 97/278/191 140/328/124
f 227/331/88 142/535/88 143/332/88
f 225/334/126 141/536/126 100/335/126
f 141/337/127 225/493/92 228/338/92
f 99/340/129 141/537/127 143/341/128
f 99/343/104 142/538/104 227/344/104
f 146/165/52 149/539/52 148/349/52
f 152/168/53 144/499/53 148/350/131
f 145/352/134 156/540/133 155/353/135
f 159/355/137 160/541/138 158/356/138
f 147/358/140 161/542/141 159/359/137
f 167/180/62 168/543/112 166/361/61
f 228/362/91 227/544/91 169/363/91
f 149/365/132 173/545/143 161/366/141
f 168/368/142 161/371/141 173/369/143
f 172/378/149 164/546/192 163/376/146
f 163/376/146 170/547/147 224/377/148
f 162/379/70 183/386/154 182/380/71
f 177/382/74 176/548/90 156/383/151
f 163/385/153 184/549/158 183/386/154
f 178/387/155 177/550/74 147/388/152
f 164/390/157 185/551/193 184/391/158
f 175/393/159 174/552/189 154/394/160
f 161/396/150 182/553/71 180/397/162
f 158/399/87 179/554/87 178/387/155
f 180/397/162 181/555/88 160/400/88
f 156/401/151 176/556/90 175/393/159
f 181/417/164 179/420/165 158/418/92
f 187/241/95 186/513/101 179/420/165
f 190/427/91 191/557/91 189/428/91
f 194/430/88 195/558/88 191/431/88
f 192/433/103 193/559/103 195/434/103
f 188/436/92 192/560/92 194/437/92
f 193/439/104 189/561/104 191/440/104
f 146/267/105 209/269/105 210/442/105
f 198/271/104 199/562/104 197/444/104
f 198/273/106 221/275/108 222/445/170
f 219/447/172 216/563/181 199/446/173
f 169/280/113 170/564/113 168/449/112
f 151/282/87 152/284/87 145/450/87
f 200/452/104 201/524/104 151/285/104
f 202/454/87 203/525/87 201/288/87
f 202/456/92 204/565/92 205/292/92
f 206/458/114 153/526/114 205/294/114
f 154/460/175 206/566/194 204/461/176
f 150/464/136 204/567/176 202/454/177
f 196/305/105 197/470/105 208/467/105
f 209/307/105 207/309/105 208/468/105
f 210/442/105 208/467/105 197/470/105
f 215/485/180 173/472/179 217/483/178
f 149/443/178 212/476/178 213/471/178
f 213/471/178 217/483/178 173/472/179
f 213/473/178 212/568/178 211/474/178
f 212/476/178 149/443/178 197/470/178
f 215/478/180 217/569/178 218/479/178
f 213/471/178 214/484/178 218/482/178
f 214/484/178 211/477/178 197/470/178
f 197/470/178 199/446/173 214/484/178
f 216/570/181 218/482/178 199/446/173
f 219/447/172 166/448/174 173/472/179
f 220/326/108 223/571/182 222/486/170
f 223/487/182 220/330/108 165/329/106
f 223/487/182 166/448/183 199/446/171
f 227/331/88 228/333/88 229/488/88
f 225/334/126 171/336/126 172/490/126
f 224/492/184 229/572/186 228/338/92
f 170/494/185 226/573/195 229/495/196
f 227/344/104 226/574/104 170/497/104
