texture textures/cars.png
v 0.274817 0.305097 0.461539
v 0.443090 0.305097 0.461539
v 0.274817 0.246850 0.381368
v 0.443090 0.246850 0.381368
v 0.274817 0.152604 0.350746
v 0.443090 0.152604 0.350746
v 0.274817 0.058358 0.381368
v 0.443090 0.058358 0.381368
v 0.274817 0.000111 0.461539
v 0.443090 0.000111 0.461539
v 0.274817 0.000111 0.560635
v 0.443090 0.000111 0.560635
v 0.274817 0.058358 0.640805
v 0.443090 0.058358 0.640805
v 0.274817 0.152604 0.671428
v 0.443090 0.152604 0.671428
v 0.274817 0.246850 0.640805
v 0.443090 0.246850 0.640805
v 0.274817 0.305097 0.560635
v 0.443090 0.305097 0.560635
vt 0.524372 0.971647
vt 0.612156 0.959848
vt 0.524372 0.959848
vt 0.612156 0.940757
vt 0.524372 0.940757
vt 0.612156 0.921665
vt 0.524372 0.921665
vt 0.524372 0.909866
vt 0.612156 0.909866
vt 0.524372 0.909866
vt 0.612156 0.909866
vt 0.524372 0.921665
vt 0.612156 0.921665
vt 0.524372 0.940757
vt 0.612156 0.940757
vt 0.524372 0.959848
vt 0.612156 0.959848
vt 0.524372 0.971647
vt 0.612156 0.971647
vt 0.512421 0.891662
vt 0.519896 0.891662
vt 0.518469 0.897068
vt 0.250082 0.022727
vt 0.383670 0.433867
vt 0.116495 0.433868
vt 0.612156 0.971647
vt 0.516159 0.897992
vt 0.513849 0.897068
vt 0.512421 0.894650
vt 0.513849 0.889244
vt 0.516159 0.888320
vt 0.518469 0.889244
vt 0.519896 0.894650
vt 0.033933 0.320231
vt 0.033933 0.179769
vt 0.116495 0.066133
vt 0.383670 0.066133
vt 0.466232 0.179769
vt 0.466232 0.320231
vt 0.250082 0.477273
vn 0.0000 0.9511 -0.3090
vn 0.0000 0.5878 -0.8090
vn 0.0000 0.0000 -1.0000
vn 0.0000 -0.5878 -0.8090
vn 0.0000 -0.9511 -0.3090
vn 0.0000 -0.9511 0.3090
vn 0.0000 -0.5878 0.8090
vn 0.0000 -0.0000 1.0000
vn 0.0000 0.5878 0.8090
vn 0.0000 0.9511 0.3090
vn -1.0000 0.0000 0.0000
vn 1.0000 -0.0000 -0.0000
s 1
f 1/1/1 4/2/2 3/3/2
f 3/3/2 6/4/3 5/5/3
f 5/5/3 8/6/4 7/7/4
f 8/6/4 9/8/5 7/7/4
f 10/9/5 11/10/6 9/8/5
f 12/11/6 13/12/7 11/10/6
f 14/13/7 15/14/8 13/12/7
f 16/15/8 17/16/9 15/14/8
f 18/17/9 19/18/10 17/16/9
f 19/18/10 2/19/1 1/1/1
f 7/20/11 15/21/11 19/22/11
f 18/23/12 10/24/12 6/25/12
f 1/1/1 2/19/1 4/2/2
f 3/3/2 4/2/2 6/4/3
f 5/5/3 6/4/3 8/6/4
f 8/6/4 10/9/5 9/8/5
f 10/9/5 12/11/6 11/10/6
f 12/11/6 14/13/7 13/12/7
f 14/13/7 16/15/8 15/14/8
f 16/15/8 18/17/9 17/16/9
f 18/17/9 20/26/10 19/18/10
f 19/18/10 20/26/10 2/19/1
f 19/22/11 1/27/11 3/28/11
f 3/28/11 5/29/11 7/20/11
f 7/20/11 9/30/11 11/31/11
f 11/31/11 13/32/11 7/20/11
f 15/21/11 17/33/11 19/22/11
f 19/22/11 3/28/11 7/20/11
f 7/20/11 13/32/11 15/21/11
f 6/25/12 4/34/12 2/35/12
f 2/35/12 20/36/12 18/23/12
f 18/23/12 16/37/12 14/38/12
f 14/38/12 12/39/12 10/24/12
f 10/24/12 8/40/12 6/25/12
f 6/25/12 2/35/12 18/23/12
f 18/23/12 14/38/12 10/24/12
o RLW_Cylinder.007
v 0.282213 0.305098 -0.617703
v 0.450486 0.305098 -0.617703
v 0.282213 0.246850 -0.697873
v 0.450486 0.246850 -0.697873
v 0.282213 0.152604 -0.728496
v 0.450486 0.152604 -0.728496
v 0.282213 0.058358 -0.697873
v 0.450486 0.058358 -0.697873
v 0.282213 0.000111 -0.617703
v 0.450486 0.000111 -0.617703
v 0.282213 0.000111 -0.518607
v 0.450486 0.000111 -0.518607
v 0.282213 0.058358 -0.438437
v 0.450486 0.058358 -0.438437
v 0.282213 0.152604 -0.407814
v 0.450486 0.152604 -0.407814
v 0.282213 0.246850 -0.438437
v 0.450486 0.246850 -0.438437
v 0.282213 0.305098 -0.518607
v 0.450486 0.305098 -0.518607
vt 0.524372 0.971647
vt 0.612156 0.959848
vt 0.524372 0.959848
vt 0.612156 0.940757
vt 0.524372 0.940757
vt 0.524372 0.921665
vt 0.612156 0.921665
vt 0.524372 0.909866
vt 0.612156 0.909866
vt 0.524372 0.909866
vt 0.524372 0.921665
vt 0.612156 0.921665
vt 0.524372 0.940757
vt 0.612156 0.940757
vt 0.524372 0.959848
vt 0.612156 0.959848
vt 0.524372 0.971647
vt 0.612156 0.971647
vt 0.512421 0.891662
vt 0.519896 0.891662
vt 0.518469 0.897068
vt 0.250082 0.022727
vt 0.383670 0.433867
vt 0.116495 0.433868
vt 0.612156 0.971647
vt 0.612156 0.909866
vt 0.516159 0.897992
vt 0.513849 0.897068
vt 0.512421 0.894650
vt 0.513849 0.889244
vt 0.516159 0.888320
vt 0.518469 0.889244
vt 0.519896 0.894650
vt 0.033933 0.320231
vt 0.033933 0.179769
vt 0.116495 0.066133
vt 0.383670 0.066133
vt 0.466232 0.179769
vt 0.466232 0.320231
vt 0.250082 0.477273
vn 0.0000 0.9511 -0.3090
vn 0.0000 0.5878 -0.8090
vn 0.0000 -0.0000 -1.0000
vn 0.0000 -0.5878 -0.8090
vn 0.0000 -0.9511 -0.3090
vn 0.0000 -0.9511 0.3090
vn 0.0000 -0.5878 0.8090
vn 0.0000 -0.0000 1.0000
vn 0.0000 0.5878 0.8090
vn 0.0000 0.9511 0.3090
vn -1.0000 0.0000 0.0000
vn 1.0000 -0.0000 -0.0000
s 1
f 21/41/13 24/42/14 23/43/14
f 23/43/14 26/44/15 25/45/15
f 26/44/15 27/46/16 25/45/15
f 28/47/16 29/48/17 27/46/16
f 29/48/17 32/49/18 31/50/18
f 32/49/18 33/51/19 31/50/18
f 34/52/19 35/53/20 33/51/19
f 36/54/20 37/55/21 35/53/20
f 38/56/21 39/57/22 37/55/21
f 40/58/22 21/41/13 39/57/22
f 27/59/23 35/60/23 39/61/23
f 38/62/24 30/63/24 26/64/24
f 21/41/13 22/65/13 24/42/14
f 23/43/14 24/42/14 26/44/15
f 26/44/15 28/47/16 27/46/16
f 28/47/16 30/66/17 29/48/17
f 29/48/17 30/66/17 32/49/18
f 32/49/18 34/52/19 33/51/19
f 34/52/19 36/54/20 35/53/20
f 36/54/20 38/56/21 37/55/21
f 38/56/21 40/58/22 39/57/22
f 40/58/22 22/65/13 21/41/13
f 39/61/23 21/67/23 23/68/23
f 23/68/23 25/69/23 27/59/23
f 27/59/23 29/70/23 31/71/23
f 31/71/23 33/72/23 27/59/23
f 35/60/23 37/73/23 39/61/23
f 39/61/23 23/68/23 27/59/23
f 27/59/23 33/72/23 35/60/23
f 26/64/24 24/74/24 22/75/24
f 22/75/24 40/76/24 38/62/24
f 38/62/24 36/77/24 34/78/24
f 34/78/24 32/79/24 30/63/24
f 30/63/24 28/80/24 26/64/24
f 26/64/24 22/75/24 38/62/24
f 38/62/24 34/78/24 30/63/24
o RRW_Cylinder.008
v -0.282213 0.305098 -0.518607
v -0.450486 0.305098 -0.518607
v -0.282213 0.246850 -0.438437
v -0.450486 0.246850 -0.438437
v -0.282213 0.152604 -0.407814
v -0.450486 0.152604 -0.407814
v -0.282213 0.058358 -0.438437
v -0.450486 0.058358 -0.438437
v -0.282213 0.000111 -0.518607
v -0.450486 0.000111 -0.518607
v -0.282213 0.000111 -0.617703
v -0.450486 0.000111 -0.617703
v -0.282213 0.058358 -0.697873
v -0.450486 0.058358 -0.697873
v -0.282213 0.152604 -0.728496
v -0.450486 0.152604 -0.728496
v -0.282213 0.246850 -0.697873
v -0.450486 0.246850 -0.697873
v -0.282213 0.305098 -0.617703
v -0.450486 0.305098 -0.617703
vt 0.612156 0.971647
vt 0.524372 0.959848
vt 0.524372 0.971647
vt 0.612156 0.940757
vt 0.524372 0.940757
vt 0.612156 0.921665
vt 0.524372 0.921665
vt 0.524372 0.909866
vt 0.612156 0.909866
vt 0.524372 0.909866
vt 0.612156 0.909866
vt 0.524372 0.921665
vt 0.612156 0.921665
vt 0.524372 0.940757
vt 0.612156 0.940757
vt 0.524372 0.959848
vt 0.612156 0.959848
vt 0.524372 0.971647
vt 0.612156 0.971647
vt 0.512421 0.891662
vt 0.519896 0.891662
vt 0.518469 0.897068
vt 0.250082 0.022727
vt 0.383670 0.433867
vt 0.116495 0.433868
vt 0.612156 0.959848
vt 0.516159 0.897992
vt 0.513849 0.897068
vt 0.512421 0.894650
vt 0.513849 0.889244
vt 0.516159 0.888320
vt 0.518469 0.889244
vt 0.519896 0.894650
vt 0.033933 0.320231
vt 0.033933 0.179769
vt 0.116495 0.066133
vt 0.383670 0.066133
vt 0.466232 0.179769
vt 0.466232 0.320231
vt 0.250082 0.477273
vn 0.0000 0.9511 0.3090
vn 0.0000 0.5878 0.8090
vn 0.0000 -0.0000 1.0000
vn 0.0000 -0.5878 0.8090
vn 0.0000 -0.9511 0.3090
vn 0.0000 -0.9511 -0.3090
vn 0.0000 -0.5878 -0.8090
vn 0.0000 0.0000 -1.0000
vn 0.0000 0.5878 -0.8090
vn 0.0000 0.9511 -0.3090
vn 1.0000 -0.0000 -0.0000
vn -1.0000 -0.0000 0.0000
s 1
f 42/81/25 43/82/26 41/83/25
f 43/82/26 46/84/27 45/85/27
f 45/85/27 48/86/28 47/87/28
f 48/86/28 49/88/29 47/87/28
f 50/89/29 51/90/30 49/88/29
f 52/91/30 53/92/31 51/90/30
f 54/93/31 55/94/32 53/92/31
f 56/95/32 57/96/33 55/94/32
f 58/97/33 59/98/34 57/96/33
f 60/99/34 41/83/25 59/98/34
f 47/100/35 55/101/35 59/102/35
f 58/103/36 50/104/36 46/105/36
f 42/81/25 44/106/26 43/82/26
f 43/82/26 44/106/26 46/84/27
f 45/85/27 46/84/27 48/86/28
f 48/86/28 50/89/29 49/88/29
f 50/89/29 52/91/30 51/90/30
f 52/91/30 54/93/31 53/92/31
f 54/93/31 56/95/32 55/94/32
f 56/95/32 58/97/33 57/96/33
f 58/97/33 60/99/34 59/98/34
f 60/99/34 42/81/25 41/83/25
f 59/102/35 41/107/35 43/108/35
f 43/108/35 45/109/35 47/100/35
f 47/100/35 49/110/35 51/111/35
f 51/111/35 53/112/35 47/100/35
f 55/101/35 57/113/35 59/102/35
f 59/102/35 43/108/35 47/100/35
f 47/100/35 53/112/35 55/101/35
f 46/105/36 44/114/36 42/115/36
f 42/115/36 60/116/36 46/105/36
f 58/103/36 56/117/36 54/118/36
f 54/118/36 52/119/36 50/104/36
f 50/104/36 48/120/36 46/105/36
f 46/105/36 60/116/36 58/103/36
f 58/103/36 54/118/36 50/104/36
o FRW_Cylinder.009
v -0.274817 0.305097 0.560635
v -0.443090 0.305097 0.560635
v -0.274817 0.246850 0.640805
v -0.443090 0.246850 0.640805
v -0.274817 0.152604 0.671428
v -0.443090 0.152604 0.671428
v -0.274817 0.058358 0.640805
v -0.443090 0.058358 0.640805
v -0.274817 0.000111 0.560635
v -0.443090 0.000111 0.560635
v -0.274817 0.000111 0.461539
v -0.443090 0.000111 0.461539
v -0.274817 0.058358 0.381368
v -0.443090 0.058358 0.381368
v -0.274817 0.152604 0.350746
v -0.443090 0.152604 0.350746
v -0.274817 0.246850 0.381368
v -0.443090 0.246850 0.381368
v -0.274817 0.305097 0.461539
v -0.443090 0.305097 0.461539
vt 0.524372 0.971647
vt 0.612156 0.959848
vt 0.524372 0.959848
vt 0.612156 0.940757
vt 0.524372 0.940757
vt 0.612156 0.921665
vt 0.524372 0.921665
vt 0.612156 0.909866
vt 0.524372 0.909866
vt 0.524372 0.909866
vt 0.612156 0.909866
vt 0.524372 0.921665
vt 0.612156 0.921665
vt 0.524372 0.940757
vt 0.612156 0.940757
vt 0.524372 0.959848
vt 0.612156 0.959848
vt 0.524372 0.971647
vt 0.612156 0.971647
vt 0.512421 0.891662
vt 0.519896 0.891662
vt 0.518469 0.897068
vt 0.250082 0.022727
vt 0.383670 0.433867
vt 0.116495 0.433868
vt 0.612156 0.971647
vt 0.516159 0.897992
vt 0.513849 0.897068
vt 0.512421 0.894650
vt 0.513849 0.889244
vt 0.516159 0.888320
vt 0.518469 0.889244
vt 0.519896 0.894650
vt 0.033933 0.320231
vt 0.033933 0.179769
vt 0.116495 0.066133
vt 0.383670 0.066133
vt 0.466232 0.179769
vt 0.466232 0.320231
vt 0.250082 0.477273
vn 0.0000 0.9511 0.3090
vn 0.0000 0.5878 0.8090
vn 0.0000 -0.0000 1.0000
vn 0.0000 -0.5878 0.8090
vn 0.0000 -0.9511 0.3090
vn 0.0000 -0.9511 -0.3090
vn 0.0000 -0.5878 -0.8090
vn -0.0000 0.0000 -1.0000
vn -0.0000 0.5878 -0.8090
vn 0.0000 0.9511 -0.3090
vn 1.0000 0.0000 0.0000
vn -1.0000 -0.0000 0.0000
s 1
f 61/121/37 64/122/38 63/123/38
f 63/123/38 66/124/39 65/125/39
f 65/125/39 68/126/40 67/127/40
f 67/127/40 70/128/41 69/129/41
f 70/128/41 71/130/42 69/129/41
f 72/131/42 73/132/43 71/130/42
f 74/133/43 75/134/44 73/132/43
f 76/135/44 77/136/45 75/134/44
f 78/137/45 79/138/46 77/136/45
f 80/139/46 61/121/37 79/138/46
f 67/140/47 75/141/47 79/142/47
f 78/143/48 70/144/48 66/145/48
f 61/121/37 62/146/37 64/122/38
f 63/123/38 64/122/38 66/124/39
f 65/125/39 66/124/39 68/126/40
f 67/127/40 68/126/40 70/128/41
f 70/128/41 72/131/42 71/130/42
f 72/131/42 74/133/43 73/132/43
f 74/133/43 76/135/44 75/134/44
f 76/135/44 78/137/45 77/136/45
f 78/137/45 80/139/46 79/138/46
f 80/139/46 62/146/37 61/121/37
f 79/142/47 61/147/47 63/148/47
f 63/148/47 65/149/47 67/140/47
f 67/140/47 69/150/47 71/151/47
f 71/151/47 73/152/47 67/140/47
f 75/141/47 77/153/47 79/142/47
f 79/142/47 63/148/47 67/140/47
f 67/140/47 73/152/47 75/141/47
f 66/145/48 64/154/48 62/155/48
f 62/155/48 80/156/48 66/145/48
f 78/143/48 76/157/48 74/158/48
f 74/158/48 72/159/48 70/144/48
f 70/144/48 68/160/48 66/145/48
f 66/145/48 80/156/48 78/143/48
f 78/143/48 74/158/48 70/144/48
o Body_Plane.001
v 0.427461 0.066587 0.965995
v 0.427461 0.086946 0.740436
v 0.427461 0.033299 0.965995
v 0.427461 0.033299 0.740436
v 0.414073 0.014540 0.976759
v 0.414073 0.113596 0.976759
v 0.414073 0.014540 0.717002
v 0.414073 0.166835 0.717002
v 0.447175 0.014540 0.976759
v 0.447175 0.113596 0.976759
v 0.447175 0.014540 0.717002
v 0.447175 0.166835 0.717002
v 0.053276 0.183403 0.955307
v 0.053276 0.248995 0.955307
v 0.074886 0.180938 0.750062
v 0.074886 0.266942 0.747566
v 0.022103 0.236787 0.988398
v 0.022103 0.199424 0.988398
v 0.096821 0.144688 0.449379
v 0.239346 0.010620 0.265480
v 0.171810 0.010620 -0.750211
v 0.094827 0.284014 0.447943
v 0.239346 0.284014 0.265480
v 0.076597 0.284014 0.265839
v 0.076597 0.372753 0.181088
v 0.076597 0.372753 -0.037269
v 0.432314 0.010620 0.118522
v 0.432314 0.172847 0.118522
v 0.432314 0.010620 -0.189537
v 0.432314 0.172847 -0.189537
v 0.239941 0.010620 -0.377547
v 0.240287 0.284014 -0.377624
v 0.040823 0.448735 -0.037269
v 0.040823 0.448735 -0.225356
v 0.087353 0.284014 -0.465130
v 0.132567 0.284014 0.181088
v 0.132567 0.284014 -0.037269
v 0.171810 0.157504 -0.750925
v 0.087353 0.208507 -0.696772
v 0.027741 0.059952 0.886245
v 0.027741 0.218996 0.886245
v 0.027741 0.059952 0.830763
v 0.027741 0.218996 0.830763
v 0.076597 0.294847 0.255493
v 0.125290 0.295551 0.181088
v 0.076597 0.372753 -0.019123
v 0.124585 0.296669 -0.019111
v 0.218225 0.210216 -0.658145
v 0.218225 0.438055 -0.658145
v 0.218225 0.210216 -0.887684
v 0.218225 0.438055 -0.887684
v 0.247147 0.210216 -0.658145
v 0.247147 0.438055 -0.658145
v 0.247147 0.210216 -0.887684
v 0.247147 0.438055 -0.887684
v 0.234802 0.351840 -0.684534
v 0.234802 0.378683 -0.863101
v 0.234802 0.380289 -0.679319
v 0.234802 0.407132 -0.857886
v 0.234802 0.255903 -0.684534
v 0.234802 0.282746 -0.863101
v 0.234802 0.284352 -0.679319
v 0.234802 0.311195 -0.857886
v 0.022309 0.164135 -0.630856
v 0.022309 0.282913 -0.723817
v 0.022309 0.142797 -0.658120
v 0.022309 0.283340 -0.768116
v 0.056931 0.164135 -0.630856
v 0.056931 0.282913 -0.723817
v 0.056931 0.142797 -0.658120
v 0.056931 0.283340 -0.768116
v 0.067786 0.024103 -0.652592
v 0.067786 0.084389 -0.652592
v 0.067786 0.024103 -0.791077
v 0.067786 0.084389 -0.791077
v 0.128072 0.024103 -0.652592
v 0.128072 0.084389 -0.652592
v 0.128072 0.024103 -0.791077
v 0.128072 0.084389 -0.791077
v 0.070921 0.237970 0.484789
v 0.353553 0.124038 0.484789
v 0.062406 0.216849 0.497937
v 0.345039 0.102916 0.497937
v 0.062406 0.216849 0.524233
v 0.345039 0.102916 0.524233
v 0.070921 0.237970 0.537381
v 0.353553 0.124038 0.537381
v 0.079435 0.259092 0.524233
v 0.362068 0.145160 0.524233
v 0.079435 0.259092 0.497937
v 0.362068 0.145160 0.497937
v 0.109650 0.138831 -0.586703
v 0.349295 0.138801 -0.586703
v 0.109647 0.116058 -0.573555
v 0.349293 0.116028 -0.573555
v 0.109647 0.116058 -0.547259
v 0.349293 0.116028 -0.547259
v 0.109650 0.138831 -0.534111
v 0.349295 0.138801 -0.534111
v 0.109652 0.161604 -0.547259
v 0.349298 0.161575 -0.547259
v 0.109652 0.161604 -0.573555
v 0.349298 0.161575 -0.573555
v 0.000000 0.066587 0.965995
v -0.427461 0.066587 0.965995
v 0.000000 0.086946 0.740436
v -0.427461 0.086946 0.740436
v 0.000000 0.033299 0.965995
v -0.427461 0.033299 0.965995
v 0.000000 0.033299 0.740436
v -0.427461 0.033299 0.740436
v -0.414073 0.014540 0.976759
v -0.414073 0.113596 0.976759
v -0.414073 0.014540 0.717002
v -0.414073 0.166835 0.717002
v -0.447175 0.014540 0.976759
v -0.447175 0.113596 0.976759
v -0.447175 0.014540 0.717002
v -0.447175 0.166835 0.717002
v 0.000000 0.183403 0.955307
v 0.000000 0.248995 0.955307
v 0.000000 0.180938 0.750062
v 0.000000 0.266942 0.747566
v -0.053276 0.183403 0.955307
v -0.053276 0.248995 0.955307
v -0.074886 0.180938 0.750062
v -0.074886 0.266942 0.747566
v 0.000000 0.199424 0.988398
v 0.000000 0.236787 0.988398
v -0.022103 0.236787 0.988398
v -0.022103 0.199424 0.988398
v 0.000000 0.144688 0.449379
v -0.096821 0.144688 0.449379
v 0.000000 0.010620 0.265121
v -0.239346 0.010620 0.265480
v 0.000000 0.010620 -0.750211
v -0.171810 0.010620 -0.750211
v 0.000000 0.284014 0.447943
v -0.094827 0.284014 0.447943
v 0.000000 0.284014 0.265839
v -0.239346 0.284014 0.265480
v -0.076597 0.284014 0.265839
v 0.000000 0.372753 0.181088
v -0.076597 0.372753 0.181088
v 0.000000 0.372753 -0.037269
v -0.076597 0.372753 -0.037269
v -0.432314 0.010620 0.118522
v -0.432314 0.172847 0.118522
v -0.432314 0.010620 -0.189537
v -0.432314 0.172847 -0.189537
v -0.239941 0.010620 -0.377547
v -0.240287 0.284014 -0.377624
v 0.000000 0.448735 -0.037269
v -0.040823 0.448735 -0.037269
v 0.000000 0.448735 -0.225356
v -0.040823 0.448735 -0.225356
v 0.000000 0.284014 -0.465130
v -0.087353 0.284014 -0.465130
v -0.132567 0.284014 0.181088
v -0.132567 0.284014 -0.037269
v -0.171810 0.157504 -0.750925
v 0.000000 0.208507 -0.696772
v -0.087353 0.208507 -0.696772
v 0.000000 0.157504 -0.750925
v 0.000000 0.059952 0.886245
v 0.000000 0.218996 0.886245
v 0.000000 0.059952 0.830763
v 0.000000 0.218996 0.830763
v -0.027741 0.059952 0.886245
v -0.027741 0.218996 0.886245
v -0.027741 0.059952 0.830763
v -0.027741 0.218996 0.830763
v 0.000000 0.294841 0.255498
v 0.000000 0.372753 -0.019110
v -0.076597 0.294847 0.255493
v -0.125290 0.295551 0.181088
v -0.076597 0.372753 -0.019123
v -0.124585 0.296669 -0.019111
v -0.218225 0.210216 -0.658145
v -0.218225 0.438055 -0.658145
v -0.218225 0.210216 -0.887684
v -0.218225 0.438055 -0.887684
v -0.247147 0.210216 -0.658145
v -0.247147 0.438055 -0.658145
v -0.247147 0.210216 -0.887684
v -0.247147 0.438055 -0.887684
v -0.234802 0.351840 -0.684534
v 0.000000 0.351840 -0.684534
v -0.234802 0.378683 -0.863101
v 0.000000 0.378683 -0.863101
v -0.234802 0.380289 -0.679319
v 0.000000 0.380289 -0.679319
v -0.234802 0.407132 -0.857886
v 0.000000 0.407132 -0.857886
v -0.234802 0.255903 -0.684534
v 0.000000 0.255903 -0.684534
v -0.234802 0.282746 -0.863101
v 0.000000 0.282746 -0.863101
v -0.234802 0.284352 -0.679319
v 0.000000 0.284352 -0.679319
v -0.234802 0.311195 -0.857886
v 0.000000 0.311195 -0.857886
v -0.022309 0.164135 -0.630856
v -0.022309 0.282913 -0.723817
v -0.022309 0.142797 -0.658120
v -0.022309 0.283340 -0.768116
v -0.056931 0.164135 -0.630856
v -0.056931 0.282913 -0.723817
v -0.056931 0.142797 -0.658120
v -0.056931 0.283340 -0.768116
v -0.067786 0.024103 -0.652592
v -0.067786 0.084389 -0.652592
v -0.067786 0.024103 -0.791077
v -0.067786 0.084389 -0.791077
v -0.128072 0.024103 -0.652592
v -0.128072 0.084389 -0.652592
v -0.128072 0.024103 -0.791077
v -0.128072 0.084389 -0.791077
v -0.070921 0.237970 0.484789
v -0.353553 0.124038 0.484789
v -0.062406 0.216849 0.497937
v -0.345039 0.102916 0.497937
v -0.062406 0.216849 0.524233
v -0.345039 0.102916 0.524233
v -0.070921 0.237970 0.537381
v -0.353553 0.124038 0.537381
v -0.079435 0.259092 0.524233
v -0.362068 0.145160 0.524233
v -0.079435 0.259092 0.497937
v -0.362068 0.145160 0.497937
v -0.109650 0.138831 -0.586703
v -0.349295 0.138801 -0.586703
v -0.109647 0.116058 -0.573555
v -0.349293 0.116028 -0.573555
v -0.109647 0.116058 -0.547259
v -0.349293 0.116028 -0.547259
v -0.109650 0.138831 -0.534111
v -0.349295 0.138801 -0.534111
v -0.109652 0.161604 -0.547259
v -0.349298 0.161575 -0.547259
v -0.109652 0.161604 -0.573555
v -0.349298 0.161575 -0.573555
vt 0.258136 0.679736
vt 0.259343 0.682048
vt 0.258136 0.682040
vt 0.256095 0.666417
vt 0.256114 0.668708
vt 0.256095 0.668721
vt 0.272132 0.678717
vt 0.272163 0.681023
vt 0.272132 0.681023
vt 0.276077 0.676471
vt 0.276612 0.675069
vt 0.276612 0.676471
vt 0.262422 0.664742
vt 0.262636 0.664794
vt 0.262457 0.664795
vt 0.272714 0.678718
vt 0.272691 0.677285
vt 0.272714 0.677320
vt 0.273369 0.678717
vt 0.273548 0.678807
vt 0.273369 0.678807
vt 0.272097 0.666828
vt 0.272275 0.665447
vt 0.272275 0.666828
vt 0.259299 0.677711
vt 0.259489 0.676331
vt 0.259477 0.677711
vt 0.283969 0.628767
vt 0.284088 0.628801
vt 0.283969 0.628801
vt 0.255443 0.630053
vt 0.255866 0.630069
vt 0.255463 0.630070
vt 0.284773 0.628819
vt 0.284640 0.627690
vt 0.284656 0.627713
vt 0.260661 0.615077
vt 0.260374 0.613983
vt 0.260661 0.613983
vt 0.255734 0.628940
vt 0.255846 0.630052
vt 0.260542 0.613793
vt 0.260661 0.613793
vt 0.255447 0.628941
vt 0.255569 0.628767
vt 0.289280 0.627681
vt 0.289448 0.627551
vt 0.289280 0.627742
vt 0.260257 0.615077
vt 0.260661 0.616708
vt 0.260139 0.616708
vt 0.288378 0.615919
vt 0.288901 0.617021
vt 0.287609 0.617019
vt 0.303077 0.918224
vt 0.301783 0.921640
vt 0.301786 0.918222
vt 0.255439 0.631660
vt 0.255852 0.632639
vt 0.255439 0.632641
vt 0.260011 0.920953
vt 0.258967 0.921086
vt 0.258974 0.920956
vt 0.255950 0.631659
vt 0.256729 0.632639
vt 0.954105 0.991673
vt 0.953067 0.994385
vt 0.953067 0.991676
vt 0.284856 0.630409
vt 0.284899 0.630450
vt 0.288276 0.631317
vt 0.289045 0.630467
vt 0.288276 0.631567
vt 0.291054 0.633263
vt 0.302755 0.641340
vt 0.291054 0.643750
vt 0.286739 0.632272
vt 0.286701 0.633874
vt 0.286701 0.632216
vt 0.285702 0.634946
vt 0.285640 0.634851
vt 0.257795 0.635124
vt 0.257795 0.633466
vt 0.295782 0.632466
vt 0.301822 0.643411
vt 0.295782 0.643411
vt 0.255620 0.634214
vt 0.255400 0.635228
vt 0.255400 0.634215
vt 0.277343 0.618244
vt 0.277161 0.619593
vt 0.277123 0.618245
vt 0.259959 0.924977
vt 0.260654 0.924796
vt 0.260769 0.925052
vt 0.991460 0.996736
vt 0.991204 0.878935
vt 0.991627 0.878935
vt 0.256153 0.633095
vt 0.256153 0.634270
vt 0.256734 0.636101
vt 0.285301 0.636906
vt 0.285335 0.636953
vt 0.303077 0.923621
vt 0.302151 0.923621
vt 0.306385 0.628316
vt 0.306175 0.629303
vt 0.306175 0.628290
vt 0.306708 0.628346
vt 0.306464 0.630650
vt 0.255910 0.636575
vt 0.287309 0.642301
vt 0.286855 0.643576
vt 0.286838 0.642303
vt 0.256394 0.638156
vt 0.276430 0.768566
vt 0.265260 0.752089
vt 0.276430 0.752089
vt 0.255927 0.637848
vt 0.255468 0.638159
vt 0.255456 0.637849
vt 0.299344 0.886374
vt 0.299530 0.886429
vt 0.299380 0.886429
vt 0.299493 0.886374
vt 0.299531 0.886131
vt 0.300135 0.883307
vt 0.300281 0.883158
vt 0.300281 0.883307
vt 0.260005 0.921084
vt 0.260769 0.922098
vt 0.260664 0.922088
vt 0.991197 0.996736
vt 0.990941 0.878935
vt 0.992312 0.878935
vt 0.259959 0.924731
vt 0.258922 0.924980
vt 0.258922 0.924734
vt 0.254241 0.668777
vt 0.258644 0.664341
vt 0.258644 0.668777
vt 0.274625 0.677565
vt 0.275183 0.681936
vt 0.274625 0.681936
vt 0.272346 0.677925
vt 0.267943 0.682361
vt 0.267943 0.677925
vt 0.272288 0.677029
vt 0.272847 0.681400
vt 0.272288 0.681400
vt 0.272683 0.662583
vt 0.273242 0.662047
vt 0.273242 0.662583
vt 0.256851 0.679934
vt 0.257410 0.679399
vt 0.257410 0.679934
vt 0.259845 0.667744
vt 0.259746 0.663206
vt 0.259845 0.663206
vt 0.276401 0.678056
vt 0.275843 0.673519
vt 0.276401 0.673519
vt 0.259057 0.683152
vt 0.258958 0.678614
vt 0.259057 0.678614
vt 0.259221 0.665851
vt 0.258664 0.661313
vt 0.259221 0.661313
vt 0.262280 0.667744
vt 0.262181 0.663206
vt 0.262280 0.663206
vt 0.278836 0.678056
vt 0.278278 0.673519
vt 0.278836 0.673519
vt 0.255080 0.683247
vt 0.254981 0.678710
vt 0.255080 0.678710
vt 0.261656 0.665851
vt 0.261098 0.661313
vt 0.261656 0.661313
vt 0.000000 0.000000
vt 0.000000 0.000000
vt 0.000000 0.000000
vt 0.000000 0.000000
vt 0.000000 0.000000
vt 0.000000 0.000000
vt 0.000000 0.000000
vt 0.302833 0.984937
vt 0.307698 0.980072
vt 0.307698 0.984937
vt 0.236306 0.951208
vt 0.248159 0.939354
vt 0.248159 0.951208
vt 0.297482 0.984937
vt 0.302347 0.980072
vt 0.302347 0.984937
vt 0.297482 0.995640
vt 0.302347 0.990775
vt 0.302347 0.995640
vt 0.307698 0.990289
vt 0.302833 0.985424
vt 0.307698 0.985424
vt 0.300249 0.920585
vt 0.300249 0.918926
vt 0.272086 0.662950
vt 0.270890 0.667663
vt 0.270890 0.665356
vt 0.297839 0.918656
vt 0.298209 0.927220
vt 0.297839 0.927220
vt 0.298209 0.918656
vt 0.298948 0.927220
vt 0.299317 0.918656
vt 0.299317 0.927220
vt 0.301903 0.927220
vt 0.302273 0.918656
vt 0.302273 0.927220
vt 0.303012 0.927220
vt 0.303012 0.918656
vt 0.303381 0.927220
vt 0.266578 0.915770
vt 0.266777 0.919383
vt 0.266578 0.919383
vt 0.266777 0.915770
vt 0.267173 0.919383
vt 0.267371 0.915770
vt 0.267371 0.919383
vt 0.264399 0.919383
vt 0.264597 0.915770
vt 0.264597 0.919383
vt 0.264993 0.919383
vt 0.264993 0.915770
vt 0.265191 0.919383
vt 0.258136 0.679736
vt 0.256095 0.666417
vt 0.272163 0.681023
vt 0.272132 0.681023
vt 0.276612 0.675069
vt 0.276077 0.676471
vt 0.276612 0.676471
vt 0.262636 0.664794
vt 0.262422 0.664742
vt 0.262457 0.664795
vt 0.272714 0.678718
vt 0.272691 0.677285
vt 0.272678 0.678665
vt 0.273548 0.678807
vt 0.273369 0.678717
vt 0.273369 0.678807
vt 0.272275 0.665447
vt 0.272097 0.666828
vt 0.272275 0.666828
vt 0.259489 0.676331
vt 0.259299 0.677711
vt 0.259477 0.677711
vt 0.283969 0.628767
vt 0.283969 0.628801
vt 0.255866 0.630069
vt 0.284773 0.628819
vt 0.284640 0.627690
vt 0.284753 0.628802
vt 0.262395 0.635799
vt 0.262573 0.635532
vt 0.262395 0.635445
vt 0.260374 0.613983
vt 0.260257 0.615077
vt 0.255734 0.628940
vt 0.255846 0.630052
vt 0.260542 0.613793
vt 0.255569 0.628767
vt 0.289448 0.627551
vt 0.289280 0.627681
vt 0.289280 0.627742
vt 0.288378 0.615919
vt 0.288901 0.615919
vt 0.301783 0.921640
vt 0.301786 0.918222
vt 0.255852 0.632639
vt 0.260011 0.920953
vt 0.255950 0.631659
vt 0.954105 0.991673
vt 0.284856 0.630409
vt 0.289045 0.630467
vt 0.288276 0.631317
vt 0.288276 0.631567
vt 0.302755 0.641340
vt 0.291054 0.633263
vt 0.291054 0.643750
vt 0.286701 0.633874
vt 0.286739 0.632272
vt 0.286701 0.632216
vt 0.285702 0.634946
vt 0.286739 0.633931
vt 0.256729 0.632639
vt 0.257795 0.635124
vt 0.257795 0.633466
vt 0.301822 0.643411
vt 0.304012 0.632466
vt 0.255620 0.634214
vt 0.277343 0.618244
vt 0.259959 0.924977
vt 0.260654 0.924796
vt 0.259959 0.924731
vt 0.991460 0.996736
vt 0.991627 0.878935
vt 0.991204 0.878935
vt 0.256153 0.633095
vt 0.256153 0.634270
vt 0.256734 0.636101
vt 0.285301 0.636906
vt 0.285640 0.634851
vt 0.302151 0.923621
vt 0.306385 0.628316
vt 0.306175 0.629303
vt 0.306464 0.630650
vt 0.306708 0.628346
vt 0.255910 0.636575
vt 0.287309 0.642301
vt 0.256394 0.638156
vt 0.255927 0.637848
vt 0.265260 0.752089
vt 0.299530 0.886429
vt 0.299531 0.886131
vt 0.299493 0.886374
vt 0.300135 0.883307
vt 0.300281 0.883307
vt 0.260769 0.922098
vt 0.260005 0.921084
vt 0.260664 0.922088
vt 0.992312 0.878935
vt 0.260769 0.925052
vt 0.258644 0.664341
vt 0.254241 0.668777
vt 0.258644 0.668777
vt 0.275183 0.681936
vt 0.274625 0.677565
vt 0.274625 0.681936
vt 0.267943 0.682361
vt 0.272346 0.677925
vt 0.267943 0.677925
vt 0.272847 0.681400
vt 0.272288 0.677029
vt 0.272288 0.681400
vt 0.273242 0.662047
vt 0.272683 0.662583
vt 0.273242 0.662583
vt 0.257410 0.679399
vt 0.256851 0.679934
vt 0.257410 0.679934
vt 0.259746 0.663206
vt 0.259845 0.663206
vt 0.275843 0.673519
vt 0.276401 0.673519
vt 0.258958 0.678614
vt 0.259057 0.678614
vt 0.258664 0.661313
vt 0.259221 0.661313
vt 0.262181 0.663206
vt 0.262280 0.663206
vt 0.278278 0.673519
vt 0.278836 0.673519
vt 0.254981 0.678710
vt 0.255080 0.678710
vt 0.261098 0.661313
vt 0.261656 0.661313
vt 0.000000 0.000000
vt 0.000000 0.000000
vt 0.000000 0.000000
vt 0.000000 0.000000
vt 0.000000 0.000000
vt 0.000000 0.000000
vt 0.000000 0.000000
vt 0.000000 0.000000
vt 0.307698 0.980072
vt 0.302833 0.984937
vt 0.307698 0.984937
vt 0.248159 0.939354
vt 0.236306 0.951208
vt 0.248159 0.951208
vt 0.302347 0.980072
vt 0.297482 0.984937
vt 0.302347 0.984937
vt 0.302347 0.990775
vt 0.297482 0.995640
vt 0.302347 0.995640
vt 0.302833 0.985424
vt 0.307698 0.990289
vt 0.307698 0.985424
vt 0.300249 0.920585
vt 0.270890 0.667663
vt 0.298209 0.927220
vt 0.297839 0.918656
vt 0.297839 0.927220
vt 0.298948 0.927220
vt 0.298209 0.918656
vt 0.299317 0.918656
vt 0.298948 0.918656
vt 0.301903 0.927220
vt 0.302273 0.918656
vt 0.301903 0.918656
vt 0.303012 0.927220
vt 0.302273 0.927220
vt 0.303381 0.927220
vt 0.303012 0.918656
vt 0.266777 0.919383
vt 0.266578 0.915770
vt 0.266578 0.919383
vt 0.267173 0.919383
vt 0.266777 0.915770
vt 0.267371 0.915770
vt 0.267173 0.915770
vt 0.264399 0.919383
vt 0.264597 0.915770
vt 0.264399 0.915770
vt 0.264993 0.919383
vt 0.264597 0.919383
vt 0.265191 0.919383
vt 0.264993 0.915770
vt 0.259343 0.679745
vt 0.256114 0.666404
vt 0.272163 0.678717
vt 0.275790 0.675069
vt 0.262600 0.664741
vt 0.272678 0.678665
vt 0.273548 0.678717
vt 0.272097 0.665447
vt 0.259311 0.676331
vt 0.284088 0.628767
vt 0.284753 0.628802
vt 0.255450 0.628767
vt 0.289448 0.627517
vt 0.954105 0.994382
vt 0.289056 0.630347
vt 0.302755 0.633263
vt 0.286739 0.633931
vt 0.304012 0.632466
vt 0.255620 0.635227
vt 0.277632 0.619591
vt 0.287326 0.643575
vt 0.265260 0.768566
vt 0.299494 0.886075
vt 0.300135 0.883157
vt 0.992147 0.996736
vt 0.254241 0.664341
vt 0.275183 0.677565
vt 0.272346 0.682361
vt 0.272847 0.677029
vt 0.272683 0.662047
vt 0.256851 0.679399
vt 0.259746 0.667744
vt 0.275843 0.678056
vt 0.258958 0.683152
vt 0.258664 0.665851
vt 0.262181 0.667744
vt 0.278278 0.678056
vt 0.254981 0.683247
vt 0.261098 0.665851
vt 0.000000 0.000000
vt 0.302833 0.980072
vt 0.236306 0.939354
vt 0.297482 0.980072
vt 0.297482 0.990775
vt 0.302833 0.990289
vt 0.272086 0.660646
vt 0.298948 0.918656
vt 0.301903 0.918656
vt 0.303381 0.918656
vt 0.267173 0.915770
vt 0.264399 0.915770
vt 0.265191 0.915770
vt 0.259343 0.679745
vt 0.256114 0.666404
vt 0.275790 0.675069
vt 0.262600 0.664741
vt 0.272714 0.677320
vt 0.273548 0.678717
vt 0.272097 0.665447
vt 0.259311 0.676331
vt 0.284656 0.627713
vt 0.262573 0.635733
vt 0.289448 0.627517
vt 0.260139 0.616708
vt 0.287609 0.617019
vt 0.954105 0.994382
vt 0.284899 0.630450
vt 0.289056 0.630347
vt 0.302755 0.633263
vt 0.255620 0.635227
vt 0.277632 0.619591
vt 0.285335 0.636953
vt 0.306175 0.628290
vt 0.287326 0.643575
vt 0.265260 0.768566
vt 0.299494 0.886075
vt 0.992147 0.996736
vt 0.254241 0.664341
vt 0.275183 0.677565
vt 0.272346 0.682361
vt 0.272847 0.677029
vt 0.272683 0.662047
vt 0.256851 0.679399
vt 0.302833 0.980072
vt 0.236306 0.939354
vt 0.297482 0.980072
vt 0.297482 0.990775
vt 0.302833 0.990289
vt 0.300249 0.918926
vt 0.272086 0.660646
vt 0.299317 0.927220
vt 0.303381 0.918656
vt 0.267371 0.919383
vt 0.265191 0.915770
vn 0.0000 0.9960 0.0899
vn 0.0000 0.0000 -1.0000
vn 0.0000 0.0000 1.0000
vn -1.0000 0.0000 0.0000
vn 1.0000 0.0000 0.0000
vn 0.0000 -1.0000 -0.0000
vn 0.0000 0.9796 0.2008
vn 0.0000 -0.0290 -0.9996
vn 0.9946 0.0024 0.1039
vn 0.9247 0.0004 0.3807
vn 0.9256 0.0000 0.3785
vn 0.0000 -0.9999 0.0120
vn 0.0000 -0.9871 0.1600
vn 0.0000 -0.9733 0.2294
vn 0.0000 0.9963 0.0861
vn 0.0000 0.9846 0.1748
vn 0.0000 -0.9001 0.4358
vn 0.0000 0.9759 0.2180
vn 0.0000 0.9382 0.3461
vn 0.7279 0.0000 0.6857
vn 0.0000 -0.9928 0.1197
vn -0.0004 -0.8085 0.5885
vn 0.0000 -0.8084 0.5886
vn -0.0009 -0.8084 0.5887
vn 0.0000 0.9984 0.0569
vn 0.0000 0.9996 0.0285
vn -0.0000 1.0000 -0.0000
vn 0.3037 0.6580 0.6890
vn -0.0000 0.6907 0.7232
vn 0.0000 0.9997 0.0229
vn 0.1465 0.9892 0.0001
vn 0.9975 0.0126 0.0702
vn 0.9977 0.0055 0.0677
vn 0.9974 0.0150 0.0710
vn 0.7882 0.0061 0.6154
vn 0.7872 0.0087 0.6167
vn 0.7904 -0.0000 0.6126
vn 0.6059 -0.0000 0.7956
vn 0.6992 -0.0005 -0.7150
vn 0.6993 -0.0007 -0.7149
vn 0.6994 -0.0011 -0.7147
vn 0.5002 0.8659 0.0006
vn 0.4992 0.8665 0.0000
vn 0.0000 0.8242 -0.5662
vn 0.0000 0.8967 -0.4426
vn 0.8754 0.4823 -0.0321
vn 0.8458 0.5335 -0.0000
vn 0.8450 0.5330 -0.0437
vn 0.5775 0.6772 0.4560
vn 0.4035 0.6319 0.6617
vn 0.8185 0.5163 0.2520
vn 0.1646 0.9827 -0.0844
vn 0.9837 -0.0010 -0.1799
vn 0.9837 -0.0012 -0.1800
vn 0.9837 -0.0009 -0.1798
vn 0.9368 0.3478 -0.0377
vn 0.9047 0.4260 0.0000
vn 0.9111 0.4075 -0.0616
vn 0.1536 0.9592 -0.2374
vn 0.0000 0.9001 -0.4357
vn 0.0000 0.8601 -0.5101
vn 0.1800 0.8602 -0.4771
vn 0.0000 -0.0049 -1.0000
vn 0.1302 0.8747 -0.4668
vn 0.0000 0.7280 -0.6856
vn 0.8240 0.5197 0.2254
vn 0.0000 -0.9889 -0.1487
vn 0.0000 0.1803 -0.9836
vn 0.0000 0.9889 0.1487
vn 0.0000 -0.1803 0.9836
vn 0.0000 -0.6163 -0.7875
vn 0.0000 0.6163 0.7875
vn -0.1869 -0.4637 -0.8660
vn -0.3739 -0.9275 -0.0000
vn -0.1869 -0.4637 0.8660
vn 0.1869 0.4637 0.8660
vn 0.3739 0.9275 0.0000
vn 0.1869 0.4637 -0.8660
vn -0.0001 -0.5000 -0.8660
vn -0.0001 -1.0000 -0.0000
vn -0.0001 -0.5000 0.8660
vn 0.0001 0.5000 0.8660
vn 0.0001 1.0000 -0.0000
vn 0.0001 0.5000 -0.8660
vn -0.9946 0.0024 0.1039
vn -0.9247 0.0004 0.3807
vn -0.9946 0.0030 0.1037
vn -0.7279 0.0000 0.6857
vn -0.9256 0.0000 0.3785
vn 0.0004 -0.8085 0.5885
vn 0.0000 -0.8086 0.5884
vn -0.3037 0.6580 0.6890
vn -0.9975 0.0126 0.0702
vn -0.9977 0.0055 0.0677
vn -0.9978 0.0019 0.0665
vn -0.7872 0.0087 0.6167
vn -0.7882 0.0061 0.6154
vn -0.7904 -0.0000 0.6126
vn -0.6059 -0.0000 0.7956
vn -0.6992 -0.0005 -0.7150
vn -0.6993 -0.0007 -0.7149
vn -0.6990 0.0000 -0.7152
vn -0.1465 0.9892 0.0001
vn -0.5002 0.8659 0.0006
vn -0.4992 0.8665 0.0000
vn -0.8754 0.4823 -0.0321
vn -0.8458 0.5335 -0.0000
vn -0.5775 0.6772 0.4560
vn -0.8185 0.5163 0.2520
vn -0.4035 0.6319 0.6617
vn -0.1646 0.9827 -0.0844
vn -0.9837 -0.0010 -0.1799
vn -0.9837 -0.0012 -0.1800
vn -0.9837 -0.0013 -0.1800
vn -0.9368 0.3478 -0.0377
vn -0.9111 0.4075 -0.0616
vn -0.8450 0.5330 -0.0437
vn -0.1536 0.9592 -0.2374
vn -0.1800 0.8602 -0.4771
vn -0.1302 0.8747 -0.4668
vn -0.8240 0.5197 0.2254
vn 0.1869 -0.4637 -0.8660
vn 0.3739 -0.9275 -0.0000
vn 0.1869 -0.4637 0.8660
vn -0.1869 0.4637 0.8660
vn -0.3739 0.9275 0.0000
vn -0.1869 0.4637 -0.8660
vn 0.0001 -0.5000 -0.8660
vn 0.0001 -1.0000 -0.0000
vn 0.0001 -0.5000 0.8660
vn -0.0001 0.5000 0.8660
vn -0.0001 1.0000 0.0000
vn -0.0001 0.5000 -0.8660
vn 0.9946 0.0030 0.1037
vn 0.9978 0.0019 0.0665
vn 0.7838 0.0176 0.6208
vn 0.6990 0.0000 -0.7152
vn 0.9837 -0.0013 -0.1800
vn 0.0009 -0.8084 0.5887
vn -0.9974 0.0150 0.0710
vn -0.7838 0.0176 0.6208
vn -0.6994 -0.0011 -0.7147
vn -0.9837 -0.0009 -0.1798
vn -0.9047 0.4260 0.0000
s 1
f 81/161/49 186/162/49 184/163/49
f 82/164/50 190/165/50 186/166/50
f 184/167/51 83/168/51 81/169/51
f 86/170/52 87/171/52 85/172/52
f 88/173/50 91/174/50 87/175/50
f 91/176/53 90/177/53 89/178/53
f 90/179/51 85/180/51 89/181/51
f 91/182/54 85/183/54 87/184/54
f 88/185/55 90/186/55 92/187/55
f 97/188/51 208/189/51 98/190/51
f 203/191/56 95/192/56 202/193/56
f 95/194/57 94/195/58 93/196/59
f 202/197/60 93/198/61 200/199/62
f 203/191/63 94/200/64 96/201/63
f 200/199/62 98/202/65 208/203/65
f 201/204/66 97/205/67 94/200/64
f 94/206/58 98/207/68 93/208/59
f 95/209/69 212/210/69 99/211/69
f 99/212/70 214/213/71 100/214/72
f 214/215/54 111/216/54 100/217/54
f 96/201/73 218/218/74 203/191/73
f 218/218/74 104/219/75 220/220/75
f 104/221/76 253/222/77 220/223/77
f 104/219/75 102/224/78 103/225/79
f 105/226/75 254/227/75 223/228/75
f 102/229/80 95/194/81 99/230/82
f 103/231/83 99/232/84 100/233/85
f 100/234/86 108/235/86 103/236/86
f 107/237/53 110/238/53 108/239/53
f 110/238/87 111/240/88 112/241/89
f 110/242/90 103/225/79 108/243/91
f 225/244/51 113/245/51 233/246/51
f 113/247/75 235/248/75 233/249/75
f 114/250/92 237/251/93 235/252/92
f 106/253/94 127/254/95 117/255/96
f 105/256/97 124/257/98 125/258/99
f 103/225/79 116/259/75 104/219/75
f 117/260/75 103/225/79 112/261/100
f 118/262/101 111/240/102 101/263/103
f 111/216/54 216/264/54 101/265/54
f 106/266/94 114/267/104 113/268/105
f 106/266/94 117/269/96 115/270/106
f 117/260/75 112/261/100 115/271/107
f 115/272/108 242/273/109 237/274/93
f 118/275/110 115/271/107 112/261/100
f 244/276/111 101/277/111 216/278/111
f 119/279/112 244/280/113 242/281/109
f 248/282/50 122/283/50 247/284/50
f 123/285/53 120/286/53 122/283/53
f 121/287/51 245/288/51 120/289/51
f 124/290/98 116/291/114 125/292/99
f 124/257/98 223/293/77 253/294/77
f 127/295/95 105/256/97 125/258/99
f 126/296/75 225/297/75 254/298/75
f 127/254/95 116/291/114 117/255/96
f 129/299/52 130/300/52 128/301/52
f 131/302/50 134/303/50 130/304/50
f 135/305/53 132/306/53 134/307/53
f 133/308/51 128/309/51 132/310/51
f 134/311/54 128/312/54 130/313/54
f 131/314/75 133/315/75 135/316/75
f 268/317/115 137/318/115 136/319/115
f 270/320/116 139/321/116 137/322/116
f 274/323/117 138/324/117 139/325/117
f 272/326/118 136/327/118 138/328/118
f 276/329/115 141/330/115 140/331/115
f 278/332/116 143/333/116 141/334/116
f 282/335/117 142/336/117 143/337/117
f 280/338/118 140/339/118 142/340/118
f 145/341/52 146/342/52 144/343/52
f 147/344/119 150/345/119 146/342/119
f 150/345/53 149/346/53 148/347/53
f 149/346/120 144/343/120 148/347/120
f 153/348/52 154/349/52 152/350/52
f 155/351/50 158/352/50 154/353/50
f 159/354/53 156/355/53 158/356/53
f 158/357/54 152/358/54 154/359/54
f 155/360/75 157/361/75 159/362/75
f 100/217/54 109/363/54 107/364/54
f 190/365/54 83/366/54 188/367/54
f 161/368/121 162/369/121 160/370/121
f 163/371/122 164/372/122 162/369/122
f 164/372/123 167/373/123 166/374/123
f 166/375/124 169/376/124 168/377/124
f 169/376/125 170/378/125 168/377/125
f 171/379/126 160/380/126 170/378/126
f 173/381/127 174/382/127 172/383/127
f 175/384/128 176/385/128 174/382/128
f 176/385/129 179/386/129 178/387/129
f 178/388/130 181/389/130 180/390/130
f 181/389/131 182/391/131 180/390/131
f 183/392/132 172/393/132 182/391/132
f 186/162/49 185/394/49 184/163/49
f 190/165/50 187/395/50 186/166/50
f 189/396/51 184/167/51 185/397/51
f 194/398/53 193/399/53 192/400/53
f 198/401/50 195/402/50 194/403/50
f 198/404/52 197/405/52 199/406/52
f 192/407/51 197/408/51 196/409/51
f 192/410/54 198/411/54 194/412/54
f 197/413/55 195/414/55 199/415/55
f 208/189/51 210/416/51 211/417/51
f 206/418/56 203/191/56 202/193/56
f 206/419/133 205/420/134 207/421/135
f 201/422/53 208/423/53 200/424/53
f 202/197/60 204/425/61 206/426/60
f 205/427/64 203/191/63 207/428/63
f 200/199/62 211/429/65 204/425/61
f 210/430/67 201/204/66 205/427/64
f 211/431/136 205/432/134 204/433/137
f 206/426/69 212/210/69 202/197/69
f 213/434/138 214/213/71 212/435/139
f 231/436/54 214/215/54 215/437/54
f 218/218/74 207/428/73 203/191/73
f 218/218/74 220/220/75 222/438/75
f 253/222/77 222/439/140 220/223/77
f 222/438/75 219/440/78 218/218/74
f 254/227/75 224/441/75 223/228/75
f 219/442/141 206/419/142 207/421/143
f 213/443/144 221/444/145 215/445/146
f 228/446/147 215/447/147 221/448/147
f 230/449/52 227/450/52 228/451/52
f 230/449/148 231/452/149 229/453/150
f 221/454/151 230/455/152 228/456/153
f 225/244/51 234/457/51 226/458/51
f 235/248/75 234/459/75 233/249/75
f 237/251/93 236/460/92 235/252/92
f 226/461/154 258/462/155 257/463/155
f 224/464/156 256/465/157 255/466/158
f 221/454/151 222/438/75 239/467/75
f 221/454/151 240/468/75 232/469/159
f 241/470/160 231/452/161 232/471/162
f 231/436/54 217/472/54 216/264/54
f 226/473/154 236/474/163 238/475/164
f 226/473/154 238/475/164 240/476/165
f 240/468/75 238/477/166 232/469/159
f 242/273/109 238/478/108 237/274/93
f 241/479/167 238/477/166 243/480/168
f 217/481/111 244/276/111 216/278/111
f 244/280/113 243/480/168 242/281/109
f 251/482/50 248/282/50 247/284/50
f 249/483/52 252/484/52 251/482/52
f 245/288/51 250/485/51 249/486/51
f 239/487/169 255/488/158 256/489/157
f 223/293/77 255/466/158 253/294/77
f 224/464/156 258/490/155 256/465/157
f 225/297/75 257/463/75 254/298/75
f 239/487/169 258/462/155 240/491/165
f 261/492/53 260/493/53 259/494/53
f 265/495/50 262/496/50 261/497/50
f 263/498/52 266/499/52 265/500/52
f 259/501/51 264/502/51 263/503/51
f 259/504/54 265/505/54 261/506/54
f 264/507/75 262/508/75 266/509/75
f 269/510/115 268/317/115 267/511/115
f 273/512/116 270/320/116 269/513/116
f 271/514/117 274/323/117 273/515/117
f 267/516/118 272/326/118 271/517/118
f 277/518/115 276/329/115 275/519/115
f 281/520/116 278/332/116 277/521/116
f 279/522/117 282/335/117 281/523/117
f 275/524/118 280/338/118 279/525/118
f 285/526/53 284/527/53 283/528/53
f 289/529/119 286/530/119 285/526/119
f 289/529/52 288/531/52 290/532/52
f 283/528/120 288/531/120 287/533/120
f 293/534/53 292/535/53 291/536/53
f 297/537/50 294/538/50 293/539/50
f 295/540/52 298/541/52 297/542/52
f 291/543/54 297/544/54 293/545/54
f 296/546/75 294/547/75 298/548/75
f 215/437/54 229/549/54 231/436/54
f 189/550/54 190/365/54 188/367/54
f 301/551/170 300/552/170 299/553/170
f 303/554/171 302/555/171 301/551/171
f 303/554/172 306/556/172 304/557/172
f 305/558/173 308/559/173 306/560/173
f 309/561/174 308/559/174 307/562/174
f 299/563/175 310/564/175 309/561/175
f 313/565/176 312/566/176 311/567/176
f 315/568/177 314/569/177 313/565/177
f 315/568/178 318/570/178 316/571/178
f 317/572/179 320/573/179 318/574/179
f 321/575/180 320/573/180 319/576/180
f 311/577/181 322/578/181 321/575/181
f 81/161/49 82/579/49 186/162/49
f 82/164/50 84/580/50 190/165/50
f 184/167/51 188/581/51 83/168/51
f 86/170/52 88/582/52 87/171/52
f 88/173/50 92/583/50 91/174/50
f 91/176/53 92/584/53 90/177/53
f 90/179/51 86/585/51 85/180/51
f 91/182/54 89/586/54 85/183/54
f 88/185/55 86/587/55 90/186/55
f 97/188/51 209/588/51 208/189/51
f 203/191/56 96/201/56 95/192/56
f 95/194/57 96/589/182 94/195/58
f 202/197/60 95/209/60 93/198/61
f 203/191/63 201/204/66 94/200/64
f 200/199/62 93/198/61 98/202/65
f 201/204/66 209/590/67 97/205/67
f 94/206/58 97/591/68 98/207/68
f 95/209/69 202/197/69 212/210/69
f 99/212/70 212/435/139 214/213/71
f 214/215/54 216/264/54 111/216/54
f 96/201/73 102/224/78 218/218/74
f 104/221/76 124/290/98 253/222/77
f 104/219/75 218/218/74 102/224/78
f 105/226/75 126/592/75 254/227/75
f 102/229/80 96/589/183 95/194/81
f 103/231/83 102/593/184 99/232/84
f 100/234/86 107/594/86 108/235/86
f 107/237/53 109/595/53 110/238/53
f 110/238/87 109/595/185 111/240/88
f 110/242/90 112/261/100 103/225/79
f 225/244/51 106/596/51 113/245/51
f 113/247/75 114/597/75 235/248/75
f 114/250/92 115/598/108 237/251/93
f 106/253/94 126/296/95 127/254/95
f 117/260/75 116/259/75 103/225/79
f 118/262/101 112/241/186 111/240/102
f 106/266/94 115/270/106 114/267/104
f 115/272/108 119/599/112 242/273/109
f 118/275/110 119/279/112 115/271/107
f 244/276/111 118/600/111 101/277/111
f 119/279/112 118/275/110 244/280/113
f 248/282/50 123/285/50 122/283/50
f 123/285/53 121/601/53 120/286/53
f 121/287/51 246/602/51 245/288/51
f 124/290/98 104/221/76 116/291/114
f 124/257/98 105/256/97 223/293/77
f 127/295/95 126/603/95 105/256/97
f 126/296/75 106/253/75 225/297/75
f 127/254/95 125/292/99 116/291/114
f 129/299/52 131/604/52 130/300/52
f 131/302/50 135/605/50 134/303/50
f 135/305/53 133/606/53 132/306/53
f 133/308/51 129/607/51 128/309/51
f 134/311/54 132/608/54 128/312/54
f 131/314/75 129/609/75 133/315/75
f 268/317/115 270/610/115 137/318/115
f 270/320/116 274/611/116 139/321/116
f 274/323/117 272/612/117 138/324/117
f 272/326/118 268/613/118 136/327/118
f 276/329/115 278/614/115 141/330/115
f 278/332/116 282/615/116 143/333/116
f 282/335/117 280/616/117 142/336/117
f 280/338/118 276/617/118 140/339/118
f 145/341/52 147/344/52 146/342/52
f 147/344/119 151/618/119 150/345/119
f 150/345/53 151/618/53 149/346/53
f 149/346/120 145/341/120 144/343/120
f 153/348/52 155/619/52 154/349/52
f 155/351/50 159/620/50 158/352/50
f 159/354/53 157/621/53 156/355/53
f 158/357/54 156/622/54 152/358/54
f 155/360/75 153/623/75 157/361/75
f 100/217/54 111/216/54 109/363/54
f 190/365/54 84/624/54 83/366/54
f 161/368/121 163/371/121 162/369/121
f 163/371/122 165/625/122 164/372/122
f 164/372/123 165/625/123 167/373/123
f 166/375/124 167/626/124 169/376/124
f 169/376/125 171/379/125 170/378/125
f 171/379/126 161/627/126 160/380/126
f 173/381/127 175/384/127 174/382/127
f 175/384/128 177/628/128 176/385/128
f 176/385/129 177/628/129 179/386/129
f 178/388/130 179/629/130 181/389/130
f 181/389/131 183/392/131 182/391/131
f 183/392/132 173/630/132 172/393/132
f 186/162/49 187/631/49 185/394/49
f 190/165/50 191/632/50 187/395/50
f 189/396/51 188/581/51 184/167/51
f 194/398/53 195/633/53 193/399/53
f 198/401/50 199/634/50 195/402/50
f 198/404/52 196/635/52 197/405/52
f 192/407/51 193/636/51 197/408/51
f 192/410/54 196/637/54 198/411/54
f 197/413/55 193/638/55 195/414/55
f 208/189/51 209/588/51 210/416/51
f 206/418/56 207/428/56 203/191/56
f 206/419/133 204/639/137 205/420/134
f 201/422/53 209/640/53 208/423/53
f 202/197/60 200/199/62 204/425/61
f 205/427/64 201/204/66 203/191/63
f 200/199/62 208/203/65 211/429/65
f 210/430/67 209/590/67 201/204/66
f 211/431/136 210/641/136 205/432/134
f 206/426/69 213/642/69 212/210/69
f 213/434/138 215/643/187 214/213/71
f 231/436/54 216/264/54 214/215/54
f 218/218/74 219/440/78 207/428/73
f 253/222/77 255/488/158 222/439/140
f 222/438/75 221/454/151 219/440/78
f 254/227/75 257/644/75 224/441/75
f 219/442/141 213/645/188 206/419/142
f 213/443/144 219/646/189 221/444/145
f 228/446/147 227/647/147 215/447/147
f 230/449/52 229/453/52 227/450/52
f 230/449/148 232/471/190 231/452/149
f 221/454/151 232/469/159 230/455/152
f 225/244/51 233/246/51 234/457/51
f 235/248/75 236/648/75 234/459/75
f 237/251/93 238/649/108 236/460/92
f 226/461/154 240/491/165 258/462/155
f 221/454/151 239/467/75 240/468/75
f 241/470/160 217/650/191 231/452/161
f 226/473/154 234/651/192 236/474/163
f 242/273/109 243/652/168 238/478/108
f 241/479/167 232/469/159 238/477/166
f 217/481/111 241/653/111 244/276/111
f 244/280/113 241/479/167 243/480/168
f 251/482/50 252/484/50 248/282/50
f 249/483/52 250/654/52 252/484/52
f 245/288/51 246/602/51 250/485/51
f 239/487/169 222/439/140 255/488/158
f 223/293/77 224/464/156 255/466/158
f 224/464/156 257/655/155 258/490/155
f 225/297/75 226/461/75 257/463/75
f 239/487/169 256/489/157 258/462/155
f 261/492/53 262/656/53 260/493/53
f 265/495/50 266/657/50 262/496/50
f 263/498/52 264/658/52 266/499/52
f 259/501/51 260/659/51 264/502/51
f 259/504/54 263/660/54 265/505/54
f 264/507/75 260/661/75 262/508/75
f 269/510/115 270/610/115 268/317/115
f 273/512/116 274/611/116 270/320/116
f 271/514/117 272/612/117 274/323/117
f 267/516/118 268/613/118 272/326/118
f 277/518/115 278/614/115 276/329/115
f 281/520/116 282/615/116 278/332/116
f 279/522/117 280/616/117 282/335/117
f 275/524/118 276/617/118 280/338/118
f 285/526/53 286/530/53 284/527/53
f 289/529/119 290/532/119 286/530/119
f 289/529/52 287/533/52 288/531/52
f 283/528/120 284/527/120 288/531/120
f 293/534/53 294/662/53 292/535/53
f 297/537/50 298/663/50 294/538/50
f 295/540/52 296/664/52 298/541/52
f 291/543/54 295/665/54 297/544/54
f 296/546/75 292/666/75 294/547/75
f 215/437/54 227/667/54 229/549/54
f 189/550/54 191/668/54 190/365/54
f 301/551/170 302/555/170 300/552/170
f 303/554/171 304/557/171 302/555/171
f 303/554/172 305/669/172 306/556/172
f 305/558/173 307/562/173 308/559/173
f 309/561/174 310/564/174 308/559/174
f 299/563/175 300/670/175 310/564/175
f 313/565/176 314/569/176 312/566/176
f 315/568/177 316/571/177 314/569/177
f 315/568/178 317/671/178 318/570/178
f 317/572/179 319/576/179 320/573/179
f 321/575/180 322/578/180 320/573/180
f 311/577/181 312/672/181 322/578/181
