texture textures/cars.png
v 0.394411 0.403156 0.667238
v 0.536670 0.403156 0.667238
v 0.394411 0.326188 0.561301
v 0.536670 0.326188 0.561301
v 0.394411 0.201652 0.520836
v 0.536670 0.201652 0.520836
v 0.394411 0.077115 0.561301
v 0.536670 0.077115 0.561301
v 0.394411 0.000147 0.667238
v 0.536670 0.000147 0.667238
v 0.394411 0.000147 0.798184
v 0.536670 0.000147 0.798184
v 0.394411 0.077115 0.904121
v 0.536670 0.077115 0.904121
v 0.394411 0.201652 0.944586
v 0.536670 0.201652 0.944586
v 0.394411 0.326188 0.904121
v 0.536670 0.326188 0.904121
v 0.394411 0.403156 0.798184
v 0.536670 0.403156 0.798184
vt 0.612156 0.971647
vt 0.524372 0.959848
vt 0.524372 0.971647
vt 0.612156 0.959848
vt 0.524372 0.940757
vt 0.612156 0.940757
vt 0.524372 0.921665
vt 0.612156 0.921665
vt 0.524372 0.909866
vt 0.612156 0.909866
vt 0.524372 0.909866
vt 0.612156 0.909866
vt 0.524372 0.921665
vt 0.612156 0.921665
vt 0.524372 0.940757
vt 0.612156 0.940757
vt 0.524372 0.959848
vt 0.612156 0.959848
vt 0.524372 0.971647
vt 0.612156 0.971647
vt 0.512421 0.891662
vt 0.519896 0.891662
vt 0.518469 0.897068
vt 0.250082 0.022727
vt 0.383670 0.433867
vt 0.033933 0.179769
vt 0.516159 0.897992
vt 0.513849 0.897068
vt 0.512421 0.894650
vt 0.513849 0.889244
vt 0.516159 0.888320
vt 0.518469 0.889244
vt 0.519896 0.894650
vt 0.116495 0.433868
vt 0.033933 0.320231
vt 0.116495 0.066133
vt 0.383670 0.066133
vt 0.466232 0.179769
vt 0.466232 0.320231
vt 0.250082 0.477273
vn 0.0000 0.9511 -0.3090
vn 0.0000 0.5878 -0.8090
vn -0.0000 0.0000 -1.0000
vn 0.0000 -0.5878 -0.8090
vn 0.0000 -0.9511 -0.3090
vn 0.0000 -0.9511 0.3090
vn 0.0000 -0.5878 0.8090
vn 0.0000 -0.0000 1.0000
vn 0.0000 0.5878 0.8090
vn 0.0000 0.9511 0.3090
vn -1.0000 0.0000 0.0000
vn 1.0000 0.0000 0.0000
s 1
f 2/1/1 3/2/2 1/3/1
f 4/4/2 5/5/3 3/2/2
f 6/6/3 7/7/4 5/5/3
f 8/8/4 9/9/5 7/7/4
f 10/10/5 11/11/6 9/9/5
f 12/12/6 13/13/7 11/11/6
f 14/14/7 15/15/8 13/13/7
f 16/16/8 17/17/9 15/15/8
f 18/18/9 19/19/10 17/17/9
f 20/20/10 1/3/1 19/19/10
f 7/21/11 15/22/11 19/23/11
f 18/24/12 10/25/12 2/26/12
f 2/1/1 4/4/2 3/2/2
f 4/4/2 6/6/3 5/5/3
f 6/6/3 8/8/4 7/7/4
f 8/8/4 10/10/5 9/9/5
f 10/10/5 12/12/6 11/11/6
f 12/12/6 14/14/7 13/13/7
f 14/14/7 16/16/8 15/15/8
f 16/16/8 18/18/9 17/17/9
f 18/18/9 20/20/10 19/19/10
f 20/20/10 2/1/1 1/3/1
f 19/23/11 1/27/11 3/28/11
f 3/28/11 5/29/11 7/21/11
f 7/21/11 9/30/11 11/31/11
f 11/31/11 13/32/11 7/21/11
f 15/22/11 17/33/11 19/23/11
f 19/23/11 3/28/11 7/21/11
f 7/21/11 13/32/11 15/22/11
f 6/34/12 4/35/12 2/26/12
f 2/26/12 20/36/12 18/24/12
f 18/24/12 16/37/12 14/38/12
f 14/38/12 12/39/12 10/25/12
f 10/25/12 8/40/12 6/34/12
f 6/34/12 2/26/12 10/25/12
f 18/24/12 14/38/12 10/25/12
o RLW_Cylinder.005
v 0.361789 0.403157 -0.648765
v 0.588839 0.403157 -0.648765
v 0.361789 0.326189 -0.754702
v 0.588839 0.326189 -0.754702
v 0.361789 0.201652 -0.795167
v 0.588839 0.201652 -0.795167
v 0.361789 0.077115 -0.754702
v 0.588839 0.077115 -0.754702
v 0.361789 0.000147 -0.648765
v 0.588839 0.000147 -0.648765
v 0.361789 0.000147 -0.517819
v 0.588839 0.000147 -0.517819
v 0.361789 0.077115 -0.411882
v 0.588839 0.077115 -0.411882
v 0.361789 0.201652 -0.371417
v 0.588839 0.201652 -0.371417
v 0.361789 0.326189 -0.411882
v 0.588839 0.326189 -0.411882
v 0.361789 0.403157 -0.517819
v 0.588839 0.403157 -0.517819
vt 0.612156 0.971647
vt 0.524372 0.959848
vt 0.524372 0.971647
vt 0.612156 0.959848
vt 0.524372 0.940757
vt 0.612156 0.940757
vt 0.524372 0.921665
vt 0.612156 0.909866
vt 0.524372 0.909866
vt 0.612156 0.909866
vt 0.524372 0.909866
vt 0.524372 0.921665
vt 0.612156 0.921665
vt 0.524372 0.940757
vt 0.612156 0.940757
vt 0.524372 0.959848
vt 0.612156 0.959848
vt 0.524372 0.971647
vt 0.612156 0.971647
vt 0.516159 0.888320
vt 0.519896 0.891662
vt 0.518469 0.897068
vt 0.250082 0.022727
vt 0.250082 0.477273
vt 0.116495 0.433868
vt 0.612156 0.921665
vt 0.516159 0.897992
vt 0.512421 0.891662
vt 0.513849 0.897068
vt 0.512421 0.894650
vt 0.513849 0.889244
vt 0.518469 0.889244
vt 0.519896 0.894650
vt 0.033933 0.320231
vt 0.033933 0.179769
vt 0.116495 0.066133
vt 0.383670 0.066133
vt 0.466232 0.179769
vt 0.466232 0.320231
vt 0.383670 0.433867
vn 0.0000 0.9511 -0.3090
vn 0.0000 0.5878 -0.8090
vn -0.0000 0.0000 -1.0000
vn -0.0000 -0.5878 -0.8090
vn 0.0000 -0.9511 -0.3090
vn 0.0000 -0.9511 0.3090
vn 0.0000 -0.5878 0.8090
vn 0.0000 -0.0000 1.0000
vn 0.0000 0.5878 0.8090
vn 0.0000 0.9511 0.3090
vn -1.0000 0.0000 0.0000
vn 1.0000 -0.0000 -0.0000
s 1
f 22/41/13 23/42/14 21/43/13
f 24/44/14 25/45/15 23/42/14
f 26/46/15 27/47/16 25/45/15
f 27/47/16 30/48/17 29/49/17
f 29/49/17 32/50/18 31/51/18
f 32/50/18 33/52/19 31/51/18
f 34/53/19 35/54/20 33/52/19
f 36/55/20 37/56/21 35/54/20
f 38/57/21 39/58/22 37/56/21
f 40/59/22 21/43/13 39/58/22
f 31/60/23 35/61/23 39/62/23
f 38/63/24 28/64/24 26/65/24
f 22/41/13 24/44/14 23/42/14
f 24/44/14 26/46/15 25/45/15
f 26/46/15 28/66/16 27/47/16
f 27/47/16 28/66/16 30/48/17
f 29/49/17 30/48/17 32/50/18
f 32/50/18 34/53/19 33/52/19
f 34/53/19 36/55/20 35/54/20
f 36/55/20 38/57/21 37/56/21
f 38/57/21 40/59/22 39/58/22
f 40/59/22 22/41/13 21/43/13
f 39/62/23 21/67/23 27/68/23
f 23/69/23 25/70/23 27/68/23
f 27/68/23 29/71/23 31/60/23
f 31/60/23 33/72/23 35/61/23
f 35/61/23 37/73/23 39/62/23
f 21/67/23 23/69/23 27/68/23
f 27/68/23 31/60/23 39/62/23
f 26/65/24 24/74/24 22/75/24
f 22/75/24 40/76/24 38/63/24
f 38/63/24 36/77/24 34/78/24
f 34/78/24 32/79/24 30/80/24
f 30/80/24 28/64/24 38/63/24
f 26/65/24 22/75/24 38/63/24
f 38/63/24 34/78/24 30/80/24
o RRW_Cylinder.006
v -0.361789 0.403157 -0.517819
v -0.588840 0.403157 -0.517819
v -0.361789 0.326189 -0.411882
v -0.588840 0.326189 -0.411882
v -0.361789 0.201652 -0.371417
v -0.588840 0.201652 -0.371417
v -0.361789 0.077115 -0.411882
v -0.588839 0.077115 -0.411882
v -0.361789 0.000147 -0.517819
v -0.588839 0.000147 -0.517819
v -0.361789 0.000147 -0.648765
v -0.588839 0.000147 -0.648765
v -0.361789 0.077115 -0.754702
v -0.588839 0.077115 -0.754702
v -0.361789 0.201652 -0.795167
v -0.588840 0.201652 -0.795167
v -0.361789 0.326189 -0.754702
v -0.588840 0.326189 -0.754702
v -0.361789 0.403157 -0.648765
v -0.588840 0.403157 -0.648765
vt 0.612156 0.971647
vt 0.524372 0.959848
vt 0.524372 0.971647
vt 0.612156 0.959848
vt 0.524372 0.940757
vt 0.612156 0.921665
vt 0.524372 0.921665
vt 0.524372 0.909866
vt 0.612156 0.909866
vt 0.524372 0.909866
vt 0.612156 0.909866
vt 0.524372 0.921665
vt 0.612156 0.921665
vt 0.524372 0.940757
vt 0.612156 0.940757
vt 0.524372 0.959848
vt 0.612156 0.959848
vt 0.524372 0.971647
vt 0.612156 0.971647
vt 0.512421 0.891662
vt 0.519896 0.891662
vt 0.518469 0.897068
vt 0.250082 0.022727
vt 0.383670 0.433867
vt 0.033933 0.179769
vt 0.612156 0.940757
vt 0.516159 0.897992
vt 0.513849 0.897068
vt 0.512421 0.894650
vt 0.513849 0.889244
vt 0.516159 0.888320
vt 0.518469 0.889244
vt 0.519896 0.894650
vt 0.116495 0.433868
vt 0.033933 0.320231
vt 0.116495 0.066133
vt 0.383670 0.066133
vt 0.466232 0.179769
vt 0.466232 0.320231
vt 0.250082 0.477273
vn 0.0000 0.9511 0.3090
vn 0.0000 0.5878 0.8090
vn 0.0000 -0.0000 1.0000
vn 0.0000 -0.5878 0.8090
vn 0.0000 -0.9511 0.3090
vn 0.0000 -0.9511 -0.3090
vn 0.0000 -0.5878 -0.8090
vn 0.0000 0.0000 -1.0000
vn 0.0000 0.5878 -0.8090
vn 0.0000 0.9511 -0.3090
vn 1.0000 0.0000 -0.0000
vn -1.0000 -0.0000 0.0000
s 1
f 42/81/25 43/82/26 41/83/25
f 44/84/26 45/85/27 43/82/26
f 45/85/27 48/86/28 47/87/28
f 48/86/28 49/88/29 47/87/28
f 50/89/29 51/90/30 49/88/29
f 52/91/30 53/92/31 51/90/30
f 54/93/31 55/94/32 53/92/31
f 56/95/32 57/96/33 55/94/32
f 58/97/33 59/98/34 57/96/33
f 60/99/34 41/83/25 59/98/34
f 47/100/35 55/101/35 59/102/35
f 58/103/36 50/104/36 42/105/36
f 42/81/25 44/84/26 43/82/26
f 44/84/26 46/106/27 45/85/27
f 45/85/27 46/106/27 48/86/28
f 48/86/28 50/89/29 49/88/29
f 50/89/29 52/91/30 51/90/30
f 52/91/30 54/93/31 53/92/31
f 54/93/31 56/95/32 55/94/32
f 56/95/32 58/97/33 57/96/33
f 58/97/33 60/99/34 59/98/34
f 60/99/34 42/81/25 41/83/25
f 59/102/35 41/107/35 43/108/35
f 43/108/35 45/109/35 47/100/35
f 47/100/35 49/110/35 51/111/35
f 51/111/35 53/112/35 47/100/35
f 55/101/35 57/113/35 59/102/35
f 59/102/35 43/108/35 47/100/35
f 47/100/35 53/112/35 55/101/35
f 46/114/36 44/115/36 42/105/36
f 42/105/36 60/116/36 58/103/36
f 58/103/36 56/117/36 54/118/36
f 54/118/36 52/119/36 50/104/36
f 50/104/36 48/120/36 46/114/36
f 46/114/36 42/105/36 50/104/36
f 58/103/36 54/118/36 50/104/36
o FRW_Cylinder.007
v -0.394411 0.403156 0.798184
v -0.536670 0.403156 0.798184
v -0.394411 0.326188 0.904121
v -0.536670 0.326188 0.904121
v -0.394411 0.201652 0.944586
v -0.536670 0.201652 0.944586
v -0.394411 0.077115 0.904121
v -0.536670 0.077115 0.904121
v -0.394411 0.000147 0.798184
v -0.536670 0.000147 0.798184
v -0.394411 0.000147 0.667238
v -0.536670 0.000147 0.667238
v -0.394411 0.077115 0.561301
v -0.536670 0.077115 0.561301
v -0.394411 0.201652 0.520836
v -0.536670 0.201652 0.520836
v -0.394411 0.326188 0.561301
v -0.536670 0.326188 0.561301
v -0.394411 0.403156 0.667238
v -0.536670 0.403156 0.667238
vt 0.612156 0.971647
vt 0.524372 0.959848
vt 0.524372 0.971647
vt 0.612156 0.959848
vt 0.524372 0.940757
vt 0.612156 0.940757
vt 0.524372 0.921665
vt 0.612156 0.921665
vt 0.524372 0.909866
vt 0.612156 0.909866
vt 0.524372 0.909866
vt 0.612156 0.909866
vt 0.524372 0.921665
vt 0.612156 0.921665
vt 0.524372 0.940757
vt 0.612156 0.940757
vt 0.524372 0.959848
vt 0.612156 0.959848
vt 0.524372 0.971647
vt 0.612156 0.971647
vt 0.512421 0.891662
vt 0.519896 0.891662
vt 0.518469 0.897068
vt 0.250082 0.022727
vt 0.383670 0.433867
vt 0.033933 0.179769
vt 0.516159 0.897992
vt 0.513849 0.897068
vt 0.512421 0.894650
vt 0.513849 0.889244
vt 0.516159 0.888320
vt 0.518469 0.889244
vt 0.519896 0.894650
vt 0.116495 0.433868
vt 0.033933 0.320231
vt 0.116495 0.066133
vt 0.383670 0.066133
vt 0.466232 0.179769
vt 0.466232 0.320231
vt 0.250082 0.477273
vn 0.0000 0.9511 0.3090
vn 0.0000 0.5878 0.8090
vn 0.0000 -0.0000 1.0000
vn 0.0000 -0.5878 0.8090
vn 0.0000 -0.9511 0.3090
vn 0.0000 -0.9511 -0.3090
vn 0.0000 -0.5878 -0.8090
vn -0.0000 0.0000 -1.0000
vn 0.0000 0.5878 -0.8090
vn 0.0000 0.9511 -0.3090
vn 1.0000 0.0000 -0.0000
vn -1.0000 0.0000 0.0000
s 1
f 62/121/37 63/122/38 61/123/37
f 64/124/38 65/125/39 63/122/38
f 66/126/39 67/127/40 65/125/39
f 68/128/40 69/129/41 67/127/40
f 70/130/41 71/131/42 69/129/41
f 72/132/42 73/133/43 71/131/42
f 74/134/43 75/135/44 73/133/43
f 76/136/44 77/137/45 75/135/44
f 78/138/45 79/139/46 77/137/45
f 80/140/46 61/123/37 79/139/46
f 67/141/47 75/142/47 79/143/47
f 78/144/48 70/145/48 62/146/48
f 62/121/37 64/124/38 63/122/38
f 64/124/38 66/126/39 65/125/39
f 66/126/39 68/128/40 67/127/40
f 68/128/40 70/130/41 69/129/41
f 70/130/41 72/132/42 71/131/42
f 72/132/42 74/134/43 73/133/43
f 74/134/43 76/136/44 75/135/44
f 76/136/44 78/138/45 77/137/45
f 78/138/45 80/140/46 79/139/46
f 80/140/46 62/121/37 61/123/37
f 79/143/47 61/147/47 63/148/47
f 63/148/47 65/149/47 67/141/47
f 67/141/47 69/150/47 71/151/47
f 71/151/47 73/152/47 67/141/47
f 75/142/47 77/153/47 79/143/47
f 79/143/47 63/148/47 67/141/47
f 67/141/47 73/152/47 75/142/47
f 66/154/48 64/155/48 62/146/48
f 62/146/48 80/156/48 78/144/48
f 78/144/48 76/157/48 74/158/48
f 74/158/48 72/159/48 70/145/48
f 70/145/48 68/160/48 66/154/48
f 66/154/48 62/146/48 70/145/48
f 78/144/48 74/158/48 70/145/48
o Body_Plane.003
v 0.347126 0.073049 0.344757
v 0.347126 0.506086 -0.751217
v 0.250160 0.713340 -0.559078
v 0.250160 0.713340 0.057197
v 0.347127 0.506086 0.191188
v 0.347127 0.456142 0.344757
v 0.347126 0.456142 -0.785593
v 0.263020 0.685853 0.036518
v 0.332638 0.537053 0.128632
v 0.332638 0.537053 -0.433275
v 0.263962 0.683841 -0.433275
v 0.231156 0.689497 -0.581182
v 0.305250 0.536445 -0.723072
v 0.236654 0.694963 0.069078
v 0.314621 0.528954 0.176403
v 0.347126 0.073049 -0.768608
v 0.347126 0.184574 -0.867615
v 0.181565 0.169873 0.953972
v 0.181565 0.289118 0.953972
v 0.181565 0.169873 0.839215
v 0.181565 0.289118 0.839215
v 0.300811 0.169873 0.953972
v 0.300811 0.289118 0.953972
v 0.300811 0.169873 0.839215
v 0.300811 0.289118 0.839215
v 0.302974 0.179115 0.734890
v 0.302974 0.224189 0.734890
v 0.246105 0.179115 0.734890
v 0.246105 0.224189 0.734890
v 0.302974 0.268731 0.318817
v 0.302974 0.313806 0.318817
v 0.246105 0.268731 0.318817
v 0.246105 0.313806 0.318817
v 0.043141 0.342818 0.779916
v 0.043141 0.342818 0.410556
v 0.127844 0.235300 0.779916
v 0.127844 0.235300 0.410556
v 0.163695 0.409609 0.757779
v 0.115303 0.399667 0.779916
v 0.163695 0.409609 0.432693
v 0.115303 0.399667 0.410556
v 0.220999 0.336869 0.757779
v 0.200006 0.292149 0.779916
v 0.220999 0.336869 0.432693
v 0.200006 0.292149 0.410556
v 0.000000 0.073049 0.344757
v -0.347126 0.073049 0.344757
v 0.000000 0.506086 -0.751215
v -0.347126 0.506086 -0.751217
v 0.000000 0.713340 -0.559078
v -0.250160 0.713340 -0.559078
v 0.000000 0.713340 0.057197
v -0.250160 0.713340 0.057197
v 0.000000 0.506086 0.191188
v -0.347127 0.506086 0.191188
v 0.000000 0.456142 0.344757
v -0.347127 0.456142 0.344757
v -0.347126 0.456142 -0.785593
v -0.263020 0.685853 0.036518
v -0.332638 0.537053 0.128632
v -0.332638 0.537053 -0.433275
v -0.263962 0.683841 -0.433275
v 0.000000 0.689497 -0.581182
v 0.000000 0.536445 -0.723070
v -0.231156 0.689497 -0.581182
v -0.305250 0.536445 -0.723072
v 0.000000 0.694963 0.069078
v -0.236654 0.694963 0.069078
v 0.000000 0.528955 0.176403
v -0.314621 0.528954 0.176403
v 0.000000 0.456142 -0.784583
v 0.000000 0.184539 -0.867408
v 0.000000 0.073049 -0.768608
v -0.347126 0.073049 -0.768608
v -0.347126 0.184574 -0.867615
v -0.181565 0.169873 0.953972
v -0.181565 0.289118 0.953972
v -0.181565 0.169873 0.839215
v -0.181565 0.289118 0.839215
v -0.300811 0.169873 0.953972
v -0.300811 0.289118 0.953972
v -0.300811 0.169873 0.839215
v -0.300811 0.289118 0.839215
v -0.302974 0.179115 0.734890
v -0.302974 0.224189 0.734890
v -0.246105 0.179115 0.734890
v -0.246105 0.224189 0.734890
v -0.302974 0.268731 0.318817
v -0.302974 0.313806 0.318817
v -0.246105 0.268731 0.318817
v -0.246105 0.313806 0.318817
v -0.043141 0.342818 0.779916
v -0.043141 0.342818 0.410556
v -0.127844 0.235300 0.779916
v -0.127844 0.235300 0.410556
v -0.163695 0.409609 0.757779
v -0.115303 0.399667 0.779916
v -0.163695 0.409609 0.432693
v -0.115303 0.399667 0.410556
v -0.220999 0.336869 0.757779
v -0.200006 0.292149 0.779916
v -0.220999 0.336869 0.432693
v -0.200006 0.292149 0.410556
v -0.056570 0.329942 0.486517
v -0.056570 0.329942 0.373376
v 0.056570 0.329942 0.486517
v 0.056570 0.329942 0.373376
v -0.041363 0.477958 0.471310
v -0.056570 0.458063 0.486517
v -0.041363 0.477958 0.388584
v -0.056570 0.458063 0.373376
v 0.041363 0.477958 0.471310
v 0.056570 0.458063 0.486517
v 0.041363 0.477958 0.388584
v 0.056570 0.458063 0.373376
v -0.056570 0.329942 0.656228
v -0.056570 0.329942 0.543087
v 0.056570 0.329942 0.656228
v 0.056570 0.329942 0.543087
v -0.041363 0.477958 0.641020
v -0.056570 0.458063 0.656228
v -0.041363 0.477958 0.558295
v -0.056570 0.458063 0.543087
v 0.041363 0.477958 0.641020
v 0.056570 0.458063 0.656228
v 0.041363 0.477958 0.558295
v 0.056570 0.458063 0.543087
v -0.056570 0.329942 0.825939
v -0.056570 0.329942 0.712798
v 0.056570 0.329942 0.825939
v 0.056570 0.329942 0.712798
v -0.041363 0.477958 0.810731
v -0.056570 0.458063 0.825939
v -0.041363 0.477958 0.728005
v -0.056570 0.458063 0.712798
v 0.041363 0.477958 0.810731
v 0.056570 0.458063 0.825939
v 0.041363 0.477958 0.728005
v 0.056570 0.458063 0.712798
v -0.504111 0.173218 0.761143
v -0.504111 0.230086 0.761143
v -0.504111 0.173218 0.704275
v -0.504111 0.230086 0.704275
v 0.504111 0.173218 0.761143
v 0.504111 0.230086 0.761143
v 0.504111 0.173218 0.704275
v 0.504111 0.230086 0.704275
v -0.504111 0.173218 -0.554860
v -0.504111 0.230086 -0.554860
v -0.504111 0.173218 -0.611728
v -0.504111 0.230086 -0.611728
v 0.504111 0.173218 -0.554860
v 0.504111 0.230086 -0.554860
v 0.504111 0.173218 -0.611728
v 0.504111 0.230086 -0.611728
v -0.184422 0.034178 0.929624
v -0.184422 0.034178 0.845235
v 0.184422 0.034178 0.929624
v 0.184422 0.034178 0.845235
v -0.117026 0.403023 0.929624
v -0.184422 0.335626 0.929624
v -0.184422 0.335626 0.845235
v -0.117026 0.403023 0.845235
v 0.184422 0.335626 0.929624
v 0.117026 0.403023 0.929624
v 0.117026 0.403023 0.845235
v 0.184422 0.335626 0.845235
v 0.133562 0.095796 0.845235
v -0.133562 0.095796 0.845235
v -0.084753 0.362921 0.845235
v -0.133562 0.314111 0.845235
v 0.133562 0.314111 0.845235
v 0.084753 0.362921 0.845235
v 0.133562 0.095796 0.278231
v -0.133562 0.095796 0.278231
v -0.084753 0.362921 0.278231
v -0.133562 0.314111 0.278231
v 0.133562 0.314111 0.278231
v 0.084753 0.362921 0.278231
v -0.146475 0.071656 0.929624
v 0.146475 0.071656 0.929624
v -0.146475 0.311078 0.929624
v -0.092946 0.364607 0.929624
v 0.092946 0.364607 0.929624
v 0.146475 0.311078 0.929624
v -0.125621 0.096922 0.929624
v 0.125621 0.096922 0.929624
v -0.125621 0.302255 0.929624
v -0.079713 0.348163 0.929624
v 0.079713 0.348163 0.929624
v 0.125621 0.302255 0.929624
v 0.141219 0.085378 -0.716981
v 0.141219 0.164244 -0.716981
v 0.141219 0.085378 -0.915077
v 0.141219 0.164244 -0.915077
v 0.220085 0.085378 -0.716981
v 0.220085 0.164244 -0.716981
v 0.220085 0.085378 -0.915077
v 0.220085 0.164244 -0.915077
v -0.141219 0.085378 -0.716981
v -0.141219 0.164244 -0.716981
v -0.141219 0.085378 -0.915077
v -0.141219 0.164244 -0.915077
v -0.220085 0.085378 -0.716981
v -0.220085 0.164244 -0.716981
v -0.220085 0.085378 -0.915077
v -0.220085 0.164244 -0.915077
vt 0.547889 0.147530
vt 0.547890 0.164906
vt 0.538223 0.164890
vt 0.538222 0.147530
vt 0.528092 0.185809
vt 0.528153 0.185770
vt 0.528208 0.185809
vt 0.513040 0.182611
vt 0.512693 0.182933
vt 0.512693 0.182611
vt 0.529745 0.184607
vt 0.529655 0.184907
vt 0.529610 0.184944
vt 0.527896 0.184685
vt 0.527940 0.185367
vt 0.527896 0.185542
vt 0.518187 0.185440
vt 0.517704 0.185584
vt 0.517704 0.185440
vt 0.552846 0.174397
vt 0.551782 0.181072
vt 0.551782 0.174397
vt 0.517981 0.182273
vt 0.530566 0.179064
vt 0.530123 0.182273
vt 0.544384 0.174397
vt 0.544474 0.181072
vt 0.538469 0.181072
vt 0.943501 0.884124
vt 0.941145 0.993603
vt 0.940684 0.884124
vt 0.528161 0.185367
vt 0.528208 0.184498
vt 0.528161 0.184585
vt 0.527937 0.184713
vt 0.967318 0.995133
vt 0.969672 0.882383
vt 0.969672 0.995133
vt 0.527921 0.185572
vt 0.527812 0.185542
vt 0.529763 0.184637
vt 0.530093 0.184607
vt 0.530093 0.184637
vt 0.989659 0.880731
vt 0.991824 0.994426
vt 0.989659 0.994425
vt 0.530093 0.184944
vt 0.519726 0.184615
vt 0.519775 0.184569
vt 0.519842 0.184617
vt 0.299482 0.913164
vt 0.299965 0.913337
vt 0.299482 0.913337
vt 0.301140 0.912233
vt 0.300658 0.910736
vt 0.301140 0.910736
vt 0.296701 0.919592
vt 0.296861 0.919757
vt 0.296701 0.919757
vt 0.300766 0.918492
vt 0.300931 0.918534
vt 0.300766 0.918534
vt 0.297188 0.919752
vt 0.297028 0.919592
vt 0.297188 0.919592
vt 0.508246 0.150811
vt 0.521094 0.163622
vt 0.508246 0.163622
vt 0.296534 0.919634
vt 0.296368 0.919788
vt 0.296368 0.919634
vt 0.355952 0.921774
vt 0.355786 0.921834
vt 0.355786 0.921774
vt 0.298096 0.915838
vt 0.298157 0.915259
vt 0.298157 0.915851
vt 0.298384 0.915837
vt 0.298325 0.915258
vt 0.298384 0.915246
vt 0.297850 0.915837
vt 0.297929 0.915246
vt 0.297929 0.915837
vt 0.364388 0.919051
vt 0.364309 0.918718
vt 0.364388 0.918718
vt 0.821488 0.726561
vt 0.821461 0.726970
vt 0.821461 0.726561
vt 0.862923 0.729185
vt 0.862811 0.728720
vt 0.862923 0.728720
vt 0.833111 0.722623
vt 0.833224 0.722158
vt 0.833224 0.722623
vt 0.848700 0.723156
vt 0.848872 0.723268
vt 0.848700 0.723268
vt 0.833050 0.722186
vt 0.833050 0.722595
vt 0.848728 0.723095
vt 0.848872 0.723156
vt 0.862750 0.728748
vt 0.862811 0.729185
vt 0.862750 0.729157
vt 0.848168 0.723712
vt 0.848024 0.723772
vt 0.848051 0.723712
vt 0.848024 0.723885
vt 0.848196 0.723772
vt 0.848196 0.723885
vt 0.538223 0.164890
vt 0.538222 0.147530
vt 0.528153 0.185770
vt 0.528051 0.185770
vt 0.512693 0.182933
vt 0.512693 0.182611
vt 0.529745 0.184607
vt 0.529655 0.184907
vt 0.529763 0.184637
vt 0.527940 0.185367
vt 0.527896 0.184685
vt 0.527896 0.185542
vt 0.517704 0.185584
vt 0.517704 0.185440
vt 0.552846 0.174397
vt 0.530566 0.179064
vt 0.517981 0.182273
vt 0.530123 0.182273
vt 0.544474 0.181072
vt 0.544910 0.176340
vt 0.544384 0.174397
vt 0.943501 0.884124
vt 0.941145 0.993603
vt 0.943501 0.992123
vt 0.528161 0.185367
vt 0.528208 0.184498
vt 0.528161 0.184585
vt 0.527937 0.184713
vt 0.967318 0.995133
vt 0.527921 0.185572
vt 0.528208 0.185809
vt 0.991824 0.994426
vt 0.992537 0.880731
vt 0.529610 0.184944
vt 0.519775 0.184569
vt 0.519842 0.184617
vt 0.299482 0.913164
vt 0.299965 0.913164
vt 0.300658 0.910736
vt 0.296861 0.919757
vt 0.296701 0.919592
vt 0.296701 0.919757
vt 0.300931 0.918534
vt 0.300766 0.918492
vt 0.300766 0.918534
vt 0.297028 0.919592
vt 0.297188 0.919752
vt 0.297188 0.919592
vt 0.521094 0.163622
vt 0.508246 0.150811
vt 0.508246 0.163622
vt 0.296368 0.919788
vt 0.296534 0.919634
vt 0.296368 0.919634
vt 0.355786 0.921834
vt 0.355952 0.921774
vt 0.355786 0.921774
vt 0.298157 0.915259
vt 0.298096 0.915838
vt 0.298157 0.915851
vt 0.298384 0.915837
vt 0.298325 0.915258
vt 0.298325 0.915850
vt 0.297850 0.915837
vt 0.297929 0.915246
vt 0.297850 0.915246
vt 0.364309 0.918718
vt 0.364388 0.919051
vt 0.364388 0.918718
vt 0.821461 0.726970
vt 0.821488 0.726561
vt 0.821461 0.726561
vt 0.862923 0.729185
vt 0.862811 0.728720
vt 0.862811 0.729185
vt 0.833224 0.722158
vt 0.833111 0.722623
vt 0.833224 0.722623
vt 0.848872 0.723268
vt 0.848700 0.723156
vt 0.848700 0.723268
vt 0.833050 0.722186
vt 0.833050 0.722595
vt 0.848728 0.723095
vt 0.848872 0.723156
vt 0.848844 0.723095
vt 0.862750 0.728748
vt 0.862750 0.729157
vt 0.848024 0.723772
vt 0.848168 0.723712
vt 0.848051 0.723712
vt 0.848024 0.723885
vt 0.848196 0.723772
vt 0.235882 0.951910
vt 0.248903 0.938890
vt 0.248903 0.951910
vt 0.851956 0.724511
vt 0.851754 0.724336
vt 0.851956 0.724336
vt 0.852399 0.723846
vt 0.852198 0.723671
vt 0.852399 0.723671
vt 0.851734 0.724289
vt 0.851533 0.724115
vt 0.851734 0.724115
vt 0.833522 0.722385
vt 0.833347 0.722358
vt 0.833549 0.722358
vt 0.832709 0.722828
vt 0.832884 0.722801
vt 0.832857 0.722828
vt 0.832931 0.723050
vt 0.833105 0.723023
vt 0.833078 0.723050
vt 0.833078 0.722183
vt 0.832904 0.722210
vt 0.832931 0.722183
vt 0.851754 0.723698
vt 0.851956 0.723873
vt 0.851754 0.723873
vt 0.235882 0.951910
vt 0.248903 0.938890
vt 0.248903 0.951910
vt 0.851754 0.723920
vt 0.851956 0.724095
vt 0.851754 0.724095
vt 0.852177 0.723846
vt 0.851976 0.723671
vt 0.852177 0.723671
vt 0.851976 0.723920
vt 0.852177 0.724095
vt 0.851976 0.724095
vt 0.833300 0.722385
vt 0.833126 0.722358
vt 0.833327 0.722358
vt 0.833300 0.722405
vt 0.833153 0.722405
vt 0.833078 0.722405
vt 0.832904 0.722432
vt 0.832931 0.722405
vt 0.832857 0.722848
vt 0.832682 0.722875
vt 0.832709 0.722848
vt 0.851533 0.724364
vt 0.851734 0.724538
vt 0.851533 0.724538
vt 0.235882 0.951910
vt 0.248903 0.938890
vt 0.248903 0.951910
vt 0.851533 0.723698
vt 0.851734 0.723873
vt 0.851533 0.723873
vt 0.851734 0.724068
vt 0.851533 0.723893
vt 0.851734 0.723893
vt 0.851781 0.724316
vt 0.851956 0.724115
vt 0.851956 0.724316
vt 0.832857 0.722606
vt 0.832682 0.722579
vt 0.832884 0.722579
vt 0.832904 0.722654
vt 0.832931 0.722828
vt 0.832904 0.722801
vt 0.832857 0.722183
vt 0.832682 0.722210
vt 0.832709 0.722183
vt 0.833300 0.722627
vt 0.833126 0.722654
vt 0.833153 0.722627
vt 0.851976 0.724142
vt 0.852177 0.724316
vt 0.851976 0.724316
vt 0.304771 0.928564
vt 0.305225 0.928109
vt 0.305225 0.928564
vt 0.305271 0.928109
vt 0.305725 0.928564
vt 0.305271 0.928564
vt 0.305271 0.929064
vt 0.305725 0.929064
vt 0.334288 0.925626
vt 0.333833 0.925172
vt 0.334288 0.925172
vt 0.262169 0.907158
vt 0.262623 0.906704
vt 0.262623 0.907158
vt 0.262669 0.906704
vt 0.263123 0.907158
vt 0.262669 0.907158
vt 0.262669 0.907658
vt 0.263123 0.907658
vt 0.328248 0.911408
vt 0.327794 0.910954
vt 0.328248 0.910954
vt 0.320672 0.929868
vt 0.320765 0.929722
vt 0.320765 0.929868
vt 0.306448 0.928498
vt 0.306595 0.928618
vt 0.306448 0.928618
vt 0.306475 0.928457
vt 0.306595 0.928310
vt 0.306595 0.928457
vt 0.306609 0.928457
vt 0.306756 0.928310
vt 0.306756 0.928457
vt 0.306568 0.928633
vt 0.306574 0.928668
vt 0.306555 0.928649
vt 0.326136 0.929248
vt 0.326162 0.929395
vt 0.326136 0.929395
vt 0.320657 0.929722
vt 0.320511 0.929748
vt 0.320511 0.929722
vt 0.331606 0.924813
vt 0.331693 0.923827
vt 0.331693 0.924813
vt 0.306595 0.928660
vt 0.306574 0.928755
vt 0.306475 0.928633
vt 0.306468 0.928668
vt 0.306448 0.928660
vt 0.306468 0.928755
vt 0.306448 0.928780
vt 0.306488 0.928649
vt 0.306595 0.928780
vt 0.849058 0.724921
vt 0.849077 0.723935
vt 0.849077 0.724921
vt 0.830367 0.730381
vt 0.830299 0.731367
vt 0.830299 0.730381
vt 0.851692 0.723436
vt 0.851673 0.724422
vt 0.851673 0.723436
vt 0.293545 0.916003
vt 0.293651 0.915017
vt 0.293651 0.916003
vt 0.351615 0.917985
vt 0.351528 0.918970
vt 0.351528 0.917985
vt 0.321257 0.922777
vt 0.321257 0.922897
vt 0.321257 0.922897
vt 0.321272 0.922589
vt 0.321418 0.922589
vt 0.321418 0.922589
vt 0.321137 0.922735
vt 0.321257 0.922735
vt 0.321137 0.922735
vt 0.320672 0.929722
vt 0.320765 0.929722
vt 0.326136 0.929395
vt 0.320657 0.929748
vt 0.320657 0.929722
vt 0.320657 0.929748
vt 0.606905 0.219983
vt 0.606919 0.219983
vt 0.606905 0.219983
vt 0.603405 0.214825
vt 0.582344 0.214825
vt 0.582344 0.197616
vt 0.604205 0.220148
vt 0.604158 0.220148
vt 0.604205 0.220148
vt 0.599081 0.223204
vt 0.599142 0.223204
vt 0.599081 0.223204
vt 0.599149 0.223130
vt 0.599223 0.223130
vt 0.599223 0.223130
vt 0.599142 0.223225
vt 0.599142 0.223285
vt 0.599142 0.223285
vt 0.604151 0.220161
vt 0.604151 0.220161
vt 0.302833 0.984937
vt 0.307698 0.980072
vt 0.307698 0.984937
vt 0.236306 0.951208
vt 0.248159 0.939354
vt 0.248159 0.951208
vt 0.297482 0.984937
vt 0.302347 0.980072
vt 0.302347 0.984937
vt 0.297482 0.995640
vt 0.302347 0.990775
vt 0.302347 0.995640
vt 0.307698 0.990289
vt 0.302833 0.985424
vt 0.307698 0.985424
vt 0.307698 0.980072
vt 0.302833 0.984937
vt 0.307698 0.984937
vt 0.248159 0.939354
vt 0.236306 0.951208
vt 0.248159 0.951208
vt 0.302347 0.980072
vt 0.297482 0.984937
vt 0.302347 0.984937
vt 0.302347 0.990775
vt 0.297482 0.995640
vt 0.302347 0.995640
vt 0.302833 0.985424
vt 0.307698 0.990289
vt 0.307698 0.985424
vt 0.513040 0.182932
vt 0.518187 0.185584
vt 0.552846 0.181072
vt 0.516002 0.179064
vt 0.538469 0.174397
vt 0.544910 0.176340
vt 0.943501 0.992123
vt 0.966564 0.882383
vt 0.527844 0.185572
vt 0.992537 0.880731
vt 0.530093 0.184907
vt 0.519658 0.184569
vt 0.300658 0.912233
vt 0.296861 0.919592
vt 0.300931 0.918492
vt 0.297028 0.919752
vt 0.521094 0.150811
vt 0.296534 0.919788
vt 0.355952 0.921834
vt 0.298096 0.915246
vt 0.298325 0.915850
vt 0.297850 0.915246
vt 0.364309 0.919051
vt 0.821488 0.726970
vt 0.833111 0.722158
vt 0.848844 0.723095
vt 0.552846 0.181072
vt 0.516002 0.179064
vt 0.538469 0.174397
vt 0.538469 0.181072
vt 0.940684 0.884124
vt 0.966564 0.882383
vt 0.299482 0.913337
vt 0.300658 0.912233
vt 0.296861 0.919592
vt 0.300931 0.918492
vt 0.297028 0.919752
vt 0.521094 0.150811
vt 0.296534 0.919788
vt 0.355952 0.921834
vt 0.298096 0.915246
vt 0.298384 0.915246
vt 0.297929 0.915837
vt 0.364309 0.919051
vt 0.821488 0.726970
vt 0.862923 0.728720
vt 0.833111 0.722158
vt 0.848196 0.723885
vt 0.235882 0.938890
vt 0.851754 0.724511
vt 0.852198 0.723846
vt 0.851533 0.724289
vt 0.833374 0.722385
vt 0.832682 0.722801
vt 0.832904 0.723023
vt 0.833105 0.722210
vt 0.851956 0.723698
vt 0.235882 0.938890
vt 0.851956 0.723920
vt 0.851976 0.723846
vt 0.852177 0.723920
vt 0.833327 0.722432
vt 0.833105 0.722432
vt 0.832884 0.722875
vt 0.851734 0.724364
vt 0.235882 0.938890
vt 0.851734 0.723698
vt 0.851533 0.724068
vt 0.851781 0.724115
vt 0.832709 0.722606
vt 0.832931 0.722627
vt 0.832884 0.722210
vt 0.833327 0.722654
vt 0.852177 0.724142
vt 0.304771 0.928109
vt 0.305725 0.928109
vt 0.333833 0.925626
vt 0.262169 0.906704
vt 0.263123 0.906704
vt 0.327794 0.911408
vt 0.306595 0.928498
vt 0.306475 0.928310
vt 0.306609 0.928310
vt 0.326162 0.929248
vt 0.331606 0.923827
vt 0.849058 0.723935
vt 0.830367 0.731367
vt 0.851692 0.724422
vt 0.293545 0.915017
vt 0.351615 0.918970
vt 0.321257 0.922777
vt 0.321272 0.922589
vt 0.321257 0.922735
vt 0.320672 0.929722
vt 0.326162 0.929395
vt 0.606919 0.219983
vt 0.603405 0.197616
vt 0.599557 0.218677
vt 0.586193 0.218677
vt 0.604158 0.220148
vt 0.599142 0.223204
vt 0.599149 0.223130
vt 0.599142 0.223225
vt 0.302833 0.980072
vt 0.236306 0.939354
vt 0.297482 0.980072
vt 0.297482 0.990775
vt 0.302833 0.990289
vt 0.302833 0.980072
vt 0.236306 0.939354
vt 0.297482 0.980072
vt 0.297482 0.990775
vt 0.302833 0.990289
vn -0.0028 0.2917 -0.9565
vn -0.0006 0.2891 -0.9573
vn -0.0000 0.6799 -0.7333
vn 0.0000 1.0000 0.0000
vn -0.0000 0.5429 0.8398
vn 0.9058 0.4238 0.0000
vn 0.0000 0.9510 0.3093
vn 0.0000 -0.0000 1.0000
vn 1.0000 0.0000 -0.0000
vn -0.0024 0.5670 -0.8237
vn -0.0004 -0.6639 -0.7478
vn -0.0000 -1.0000 -0.0000
vn -1.0000 0.0000 0.0000
vn 0.0000 0.0000 -1.0000
vn 0.0000 -0.9776 -0.2106
vn 0.0000 0.9776 0.2106
vn 0.7855 0.6188 0.0000
vn 0.6188 -0.7855 -0.0000
vn -0.6188 0.7855 0.0000
vn -0.2012 0.9795 0.0000
vn 0.3520 0.2773 -0.8940
vn 0.9052 -0.4249 -0.0000
vn 0.3520 0.2773 0.8940
vn 0.0028 0.2917 -0.9565
vn 0.0006 0.2891 -0.9573
vn -0.9058 0.4238 0.0000
vn 0.0024 0.5670 -0.8237
vn 0.0000 -0.6632 -0.7484
vn -0.7855 0.6188 0.0000
vn -0.6188 -0.7855 -0.0000
vn 0.6188 0.7855 0.0000
vn 0.2012 0.9795 0.0000
vn -0.3520 0.2773 -0.8940
vn -0.9052 -0.4249 -0.0000
vn -0.3520 0.2773 0.8940
vn -0.7945 0.6073 0.0000
vn 0.0000 0.6073 -0.7945
vn 0.7945 0.6073 0.0000
vn 0.0000 0.6073 0.7945
vn -0.7071 0.7071 0.0000
vn 0.7071 0.7071 0.0000
vn -0.0000 0.5555 -0.8315
vn 0.0004 -0.6639 -0.7478
s 1
f 152/161/49 151/162/49 87/163/49
f 87/163/50 97/164/50 152/161/50
f 128/165/51 93/166/51 82/167/51
f 130/168/52 84/169/52 83/170/52
f 84/171/53 95/172/53 85/173/53
f 84/174/54 91/175/54 83/176/54
f 134/177/55 86/178/55 85/179/55
f 81/180/56 136/181/56 126/182/56
f 85/183/57 87/184/57 82/185/57
f 96/186/57 87/187/57 86/188/57
f 90/189/54 88/190/54 89/191/54
f 90/192/54 85/193/54 82/167/54
f 84/174/54 89/194/54 88/195/54
f 90/192/54 83/176/54 91/175/54
f 92/196/51 144/197/51 143/198/51
f 92/199/51 130/200/51 83/176/51
f 93/166/51 83/176/51 82/167/51
f 94/201/53 132/202/53 147/203/53
f 149/204/53 94/205/53 147/206/53
f 95/172/53 134/207/53 85/173/53
f 151/208/58 82/209/58 87/210/58
f 96/211/59 152/212/59 97/213/59
f 153/214/60 81/215/60 126/216/60
f 99/217/61 100/218/61 98/219/61
f 101/220/62 104/221/62 100/222/62
f 105/223/57 102/224/57 104/225/57
f 103/226/56 98/227/56 102/228/56
f 104/229/60 98/230/60 100/231/60
f 101/232/52 103/233/52 105/234/52
f 109/235/61 112/236/61 108/237/61
f 110/238/57 107/239/57 106/240/57
f 108/241/63 110/242/63 106/243/63
f 109/244/64 111/245/64 113/246/64
f 120/247/65 122/248/65 124/249/65
f 117/250/66 123/251/66 116/252/66
f 119/253/67 115/254/67 114/255/67
f 121/256/62 117/257/62 115/258/62
f 120/259/68 119/253/68 118/260/68
f 120/261/69 125/262/69 121/256/69
f 122/263/70 125/264/70 124/265/70
f 118/266/71 123/267/71 122/268/71
f 116/269/56 119/270/56 114/271/56
f 152/161/72 138/272/72 151/162/72
f 138/272/73 152/161/73 155/273/73
f 128/165/51 146/274/51 144/275/51
f 133/276/52 130/168/52 131/277/52
f 133/278/53 150/279/53 148/280/53
f 142/281/74 133/282/74 131/283/74
f 137/284/55 134/177/55 135/285/55
f 136/181/56 127/286/56 126/182/56
f 138/287/61 135/288/61 129/289/61
f 138/290/61 155/291/61 154/292/61
f 141/293/74 139/294/74 142/295/74
f 141/296/74 135/297/74 140/298/74
f 140/298/74 133/282/74 139/299/74
f 131/283/74 141/296/74 142/281/74
f 144/197/51 145/300/51 143/198/51
f 130/200/51 145/301/51 131/283/51
f 131/283/51 146/274/51 129/302/51
f 132/202/53 148/280/53 147/203/53
f 149/204/53 148/303/53 150/304/53
f 134/207/53 150/279/53 135/305/53
f 129/306/75 151/208/75 138/307/75
f 154/308/76 152/212/76 153/309/76
f 127/310/60 153/214/60 126/216/60
f 158/311/57 157/312/57 156/313/57
f 162/314/62 159/315/62 158/316/62
f 160/317/61 163/318/61 162/319/61
f 156/320/56 161/321/56 160/322/56
f 156/323/60 162/324/60 158/325/60
f 161/326/52 159/327/52 163/328/52
f 170/329/57 167/330/57 166/331/57
f 168/332/61 165/333/61 169/334/61
f 166/335/63 168/336/63 170/337/63
f 169/338/64 167/339/64 171/340/64
f 180/341/77 178/342/77 182/343/77
f 175/344/78 181/345/78 183/346/78
f 173/347/79 177/348/79 172/349/79
f 175/350/62 179/351/62 173/352/62
f 177/348/80 178/353/80 176/354/80
f 178/355/81 183/356/81 182/357/81
f 183/346/82 180/358/82 182/359/82
f 181/360/83 176/361/83 180/362/83
f 174/363/56 177/364/56 181/360/56
f 190/365/52 192/366/52 194/367/52
f 195/368/57 186/369/57 187/370/57
f 189/371/61 185/372/61 184/373/61
f 191/374/62 187/375/62 185/376/62
f 188/377/84 191/378/84 189/379/84
f 194/380/85 191/381/85 190/382/85
f 192/383/86 195/384/86 194/385/86
f 188/386/87 193/387/87 192/388/87
f 193/389/56 184/390/56 186/391/56
f 202/392/52 204/393/52 206/394/52
f 207/395/57 198/396/57 199/397/57
f 201/398/61 197/399/61 196/400/61
f 203/401/62 199/402/62 197/403/62
f 200/404/84 203/405/84 201/406/84
f 206/407/85 203/405/85 202/408/85
f 204/409/86 207/410/86 206/411/86
f 200/412/87 205/413/87 204/414/87
f 205/415/56 196/416/56 198/417/56
f 214/418/52 216/419/52 218/420/52
f 219/421/57 210/422/57 211/423/57
f 213/424/61 209/425/61 208/426/61
f 215/427/62 211/428/62 209/429/62
f 212/430/84 215/431/84 213/432/84
f 218/433/85 215/434/85 214/435/85
f 216/436/86 219/437/86 218/438/86
f 212/439/87 217/440/87 216/441/87
f 217/442/56 208/443/56 210/444/56
f 223/445/62 226/446/62 222/447/62
f 225/448/56 220/449/56 224/450/56
f 226/451/60 220/449/60 222/452/60
f 223/453/52 225/454/52 227/455/52
f 231/456/62 234/457/62 230/458/62
f 233/459/56 228/460/56 232/461/56
f 234/462/60 228/460/60 230/463/60
f 231/464/52 233/465/52 235/466/52
f 243/467/52 245/468/52 246/469/52
f 247/470/57 238/471/57 239/472/57
f 241/473/61 237/474/61 236/475/61
f 239/476/60 236/477/60 237/478/60
f 246/479/62 252/480/62 253/481/62
f 243/482/88 241/483/88 240/484/88
f 245/485/89 247/486/89 246/487/89
f 251/488/61 255/489/61 249/490/61
f 247/491/62 248/492/62 252/480/62
f 243/493/62 251/494/62 242/495/62
f 242/495/62 249/496/62 237/497/62
f 246/479/62 250/498/62 243/493/62
f 237/497/62 248/492/62 239/499/62
f 250/500/88 257/501/88 251/502/88
f 253/503/52 256/504/52 250/505/52
f 252/506/89 259/507/89 253/508/89
f 249/509/60 254/510/60 248/511/60
f 248/512/57 258/513/57 252/514/57
f 244/515/56 261/516/56 238/517/56
f 238/518/56 260/519/56 236/520/56
f 241/521/56 260/522/56 262/523/56
f 240/524/56 264/525/56 245/468/56
f 241/483/56 263/526/56 240/484/56
f 244/527/56 264/528/56 265/529/56
f 263/530/56 268/531/56 269/532/56
f 271/533/56 268/534/56 266/535/56
f 264/536/56 269/537/56 270/538/56
f 262/539/56 266/540/56 268/541/56
f 261/542/56 266/543/56 260/544/56
f 265/545/56 267/546/56 261/547/56
f 264/536/56 271/548/56 265/549/56
f 273/550/61 274/551/61 272/552/61
f 275/553/62 278/554/62 274/555/62
f 279/556/57 276/557/57 278/558/57
f 278/559/60 272/560/60 274/561/60
f 275/562/52 277/563/52 279/564/52
f 282/565/57 281/566/57 280/567/57
f 286/568/62 283/569/62 282/570/62
f 284/571/61 287/572/61 286/573/61
f 280/574/60 286/575/60 282/576/60
f 285/577/52 283/578/52 287/579/52
f 128/165/51 144/275/51 93/166/51
f 130/168/52 132/580/52 84/169/52
f 84/171/53 94/201/53 95/172/53
f 84/174/54 88/195/54 91/175/54
f 134/177/55 136/581/55 86/178/55
f 81/180/56 86/582/56 136/181/56
f 85/183/57 86/583/57 87/184/57
f 86/188/57 81/584/57 96/186/57
f 96/186/57 97/585/57 87/187/57
f 90/189/54 91/586/54 88/190/54
f 90/192/54 89/194/54 85/193/54
f 84/174/54 85/193/54 89/194/54
f 90/192/54 82/167/54 83/176/54
f 92/196/51 93/587/51 144/197/51
f 92/199/51 143/588/51 130/200/51
f 93/166/51 92/199/51 83/176/51
f 94/201/53 84/171/53 132/202/53
f 149/204/53 95/589/53 94/205/53
f 95/172/53 149/590/53 134/207/53
f 151/208/90 128/591/90 82/209/90
f 96/211/76 153/309/76 152/212/76
f 153/214/60 96/592/60 81/215/60
f 99/217/61 101/593/61 100/218/61
f 101/220/62 105/594/62 104/221/62
f 105/223/57 103/595/57 102/224/57
f 103/226/56 99/596/56 98/227/56
f 104/229/60 102/597/60 98/230/60
f 101/232/52 99/598/52 103/233/52
f 109/235/61 113/599/61 112/236/61
f 110/238/57 111/600/57 107/239/57
f 108/241/63 112/601/63 110/242/63
f 109/244/64 107/602/64 111/245/64
f 120/247/65 118/603/65 122/248/65
f 117/250/66 125/264/66 123/251/66
f 119/253/67 121/604/67 115/254/67
f 121/256/62 125/262/62 117/257/62
f 120/259/68 121/604/68 119/253/68
f 120/261/69 124/605/69 125/262/69
f 122/263/70 123/251/70 125/264/70
f 118/266/71 119/270/71 123/267/71
f 116/269/56 123/267/56 119/270/56
f 128/165/51 129/302/51 146/274/51
f 133/276/52 132/580/52 130/168/52
f 133/278/53 135/305/53 150/279/53
f 142/281/74 139/299/74 133/282/74
f 137/284/55 136/581/55 134/177/55
f 136/181/56 137/606/56 127/286/56
f 138/287/61 137/607/61 135/288/61
f 154/292/61 127/608/61 137/609/61
f 137/609/61 138/290/61 154/292/61
f 141/293/74 140/610/74 139/294/74
f 141/296/74 129/302/74 135/297/74
f 140/298/74 135/297/74 133/282/74
f 131/283/74 129/302/74 141/296/74
f 144/197/51 146/611/51 145/300/51
f 130/200/51 143/588/51 145/301/51
f 131/283/51 145/301/51 146/274/51
f 132/202/53 133/278/53 148/280/53
f 149/204/53 147/206/53 148/303/53
f 134/207/53 149/590/53 150/279/53
f 129/306/90 128/591/90 151/208/90
f 154/308/91 155/612/91 152/212/91
f 127/310/60 154/613/60 153/214/60
f 158/311/57 159/614/57 157/312/57
f 162/314/62 163/615/62 159/315/62
f 160/317/61 161/616/61 163/318/61
f 156/320/56 157/617/56 161/321/56
f 156/323/60 160/618/60 162/324/60
f 161/326/52 157/619/52 159/327/52
f 170/329/57 171/620/57 167/330/57
f 168/332/61 164/621/61 165/333/61
f 166/335/63 164/622/63 168/336/63
f 169/338/64 165/623/64 167/339/64
f 180/341/77 176/624/77 178/342/77
f 175/344/78 174/625/78 181/345/78
f 173/347/79 179/626/79 177/348/79
f 175/350/62 183/356/62 179/351/62
f 177/348/80 179/626/80 178/353/80
f 178/355/81 179/351/81 183/356/81
f 183/346/82 181/345/82 180/358/82
f 181/360/83 177/364/83 176/361/83
f 174/363/56 172/627/56 177/364/56
f 190/365/52 188/628/52 192/366/52
f 195/368/57 193/629/57 186/369/57
f 189/371/61 191/630/61 185/372/61
f 191/374/62 195/631/62 187/375/62
f 188/377/84 190/632/84 191/378/84
f 194/380/85 195/633/85 191/381/85
f 192/383/86 193/634/86 195/384/86
f 188/386/87 189/635/87 193/387/87
f 193/389/56 189/636/56 184/390/56
f 202/392/52 200/637/52 204/393/52
f 207/395/57 205/638/57 198/396/57
f 201/398/61 203/639/61 197/399/61
f 203/401/62 207/640/62 199/402/62
f 200/404/84 202/408/84 203/405/84
f 206/407/85 207/641/85 203/405/85
f 204/409/86 205/642/86 207/410/86
f 200/412/87 201/643/87 205/413/87
f 205/415/56 201/644/56 196/416/56
f 214/418/52 212/645/52 216/419/52
f 219/421/57 217/646/57 210/422/57
f 213/424/61 215/647/61 209/425/61
f 215/427/62 219/648/62 211/428/62
f 212/430/84 214/649/84 215/431/84
f 218/433/85 219/650/85 215/434/85
f 216/436/86 217/651/86 219/437/86
f 212/439/87 213/652/87 217/440/87
f 217/442/56 213/653/56 208/443/56
f 223/445/62 227/654/62 226/446/62
f 225/448/56 221/655/56 220/449/56
f 226/451/60 224/450/60 220/449/60
f 223/453/52 221/656/52 225/454/52
f 231/456/62 235/657/62 234/457/62
f 233/459/56 229/658/56 228/460/56
f 234/462/60 232/461/60 228/460/60
f 231/464/52 229/659/52 233/465/52
f 243/467/52 240/524/52 245/468/52
f 247/470/57 244/660/57 238/471/57
f 241/473/61 242/661/61 237/474/61
f 239/476/60 238/662/60 236/477/60
f 246/479/62 247/491/62 252/480/62
f 243/482/88 242/663/88 241/483/88
f 245/485/89 244/527/89 247/486/89
f 251/488/61 257/664/61 255/489/61
f 247/491/62 239/499/62 248/492/62
f 243/493/62 250/498/62 251/494/62
f 242/495/62 251/494/62 249/496/62
f 246/479/62 253/481/62 250/498/62
f 237/497/62 249/496/62 248/492/62
f 250/500/88 256/665/88 257/501/88
f 253/503/52 259/666/52 256/504/52
f 252/506/89 258/667/89 259/507/89
f 249/509/60 255/668/60 254/510/60
f 248/512/57 254/669/57 258/513/57
f 244/515/56 265/670/56 261/516/56
f 238/518/56 261/671/56 260/519/56
f 241/521/56 236/672/56 260/522/56
f 240/524/56 263/673/56 264/525/56
f 241/483/56 262/674/56 263/526/56
f 244/527/56 245/485/56 264/528/56
f 263/530/56 262/675/56 268/531/56
f 266/535/56 267/676/56 271/533/56
f 271/533/56 270/677/56 269/678/56
f 269/678/56 268/534/56 271/533/56
f 264/536/56 263/679/56 269/537/56
f 262/539/56 260/680/56 266/540/56
f 261/542/56 267/681/56 266/543/56
f 265/545/56 271/682/56 267/546/56
f 264/536/56 270/538/56 271/548/56
f 273/550/61 275/683/61 274/551/61
f 275/553/62 279/684/62 278/554/62
f 279/556/57 277/685/57 276/557/57
f 278/559/60 276/686/60 272/560/60
f 275/562/52 273/687/52 277/563/52
f 282/565/57 283/688/57 281/566/57
f 286/568/62 287/689/62 283/569/62
f 284/571/61 285/690/61 287/572/61
f 280/574/60 284/691/60 286/575/60
f 285/577/52 281/692/52 283/578/52
