texture textures/cars.png
v 0.294940 0.301480 0.502186
v 0.401321 0.301480 0.502186
v 0.294940 0.243923 0.422966
v 0.401321 0.243923 0.422966
v 0.294940 0.150795 0.392707
v 0.401321 0.150795 0.392707
v 0.294940 0.057666 0.422966
v 0.401321 0.057666 0.422966
v 0.294940 0.000110 0.502186
v 0.401321 0.000110 0.502186
v 0.294940 0.000110 0.600107
v 0.401321 0.000110 0.600107
v 0.294940 0.057666 0.679326
v 0.401321 0.057666 0.679326
v 0.294940 0.150795 0.709586
v 0.401321 0.150795 0.709586
v 0.294940 0.243923 0.679326
v 0.401321 0.243923 0.679326
v 0.294940 0.301480 0.600107
v 0.401321 0.301480 0.600107
vt 0.612156 0.971647
vt 0.524372 0.959848
vt 0.524372 0.971647
vt 0.612156 0.959848
vt 0.524372 0.940757
vt 0.612156 0.940757
vt 0.524372 0.921665
vt 0.612156 0.921665
vt 0.524372 0.909866
vt 0.612156 0.909866
vt 0.524372 0.909866
vt 0.612156 0.909866
vt 0.524372 0.921665
vt 0.612156 0.921665
vt 0.524372 0.940757
vt 0.612156 0.940757
vt 0.524372 0.959848
vt 0.612156 0.959848
vt 0.524372 0.971647
vt 0.612156 0.971647
vt 0.512421 0.891662
vt 0.519896 0.891662
vt 0.518469 0.897068
vt 0.250082 0.022727
vt 0.383670 0.433867
vt 0.116495 0.433868
vt 0.516159 0.897992
vt 0.513849 0.897068
vt 0.512421 0.894650
vt 0.513849 0.889244
vt 0.516159 0.888320
vt 0.518469 0.889244
vt 0.519896 0.894650
vt 0.033933 0.320231
vt 0.033933 0.179769
vt 0.116495 0.066133
vt 0.383670 0.066133
vt 0.466232 0.179769
vt 0.466232 0.320231
vt 0.250082 0.477273
vn 0.0000 0.9511 -0.3090
vn 0.0000 0.5878 -0.8090
vn 0.0000 0.0000 -1.0000
vn 0.0000 -0.5878 -0.8090
vn 0.0000 -0.9511 -0.3090
vn 0.0000 -0.9511 0.3090
vn 0.0000 -0.5878 0.8090
vn 0.0000 -0.0000 1.0000
vn 0.0000 0.5878 0.8090
vn 0.0000 0.9511 0.3090
vn -1.0000 0.0000 0.0000
vn 1.0000 -0.0000 0.0000
s 1
f 2/1/1 3/2/2 1/3/1
f 4/4/2 5/5/3 3/2/2
f 6/6/3 7/7/4 5/5/3
f 8/8/4 9/9/5 7/7/4
f 10/10/5 11/11/6 9/9/5
f 12/12/6 13/13/7 11/11/6
f 14/14/7 15/15/8 13/13/7
f 16/16/8 17/17/9 15/15/8
f 18/18/9 19/19/10 17/17/9
f 20/20/10 1/3/1 19/19/10
f 7/21/11 15/22/11 19/23/11
f 18/24/12 10/25/12 6/26/12
f 2/1/1 4/4/2 3/2/2
f 4/4/2 6/6/3 5/5/3
f 6/6/3 8/8/4 7/7/4
f 8/8/4 10/10/5 9/9/5
f 10/10/5 12/12/6 11/11/6
f 12/12/6 14/14/7 13/13/7
f 14/14/7 16/16/8 15/15/8
f 16/16/8 18/18/9 17/17/9
f 18/18/9 20/20/10 19/19/10
f 20/20/10 2/1/1 1/3/1
f 19/23/11 1/27/11 7/21/11
f 3/28/11 5/29/11 7/21/11
f 7/21/11 9/30/11 11/31/11
f 11/31/11 13/32/11 15/22/11
f 15/22/11 17/33/11 19/23/11
f 1/27/11 3/28/11 7/21/11
f 7/21/11 11/31/11 15/22/11
f 6/26/12 4/34/12 2/35/12
f 2/35/12 20/36/12 6/26/12
f 18/24/12 16/37/12 14/38/12
f 14/38/12 12/39/12 18/24/12
f 10/25/12 8/40/12 6/26/12
f 6/26/12 20/36/12 18/24/12
f 18/24/12 12/39/12 10/25/12
o RLW_Cylinder.005
v 0.290482 0.301480 -0.592129
v 0.420396 0.301480 -0.592129
v 0.290482 0.243923 -0.671349
v 0.420396 0.243923 -0.671349
v 0.290482 0.150795 -0.701608
v 0.420396 0.150795 -0.701608
v 0.290482 0.057666 -0.671349
v 0.420396 0.057666 -0.671349
v 0.290482 0.000110 -0.592129
v 0.420396 0.000110 -0.592129
v 0.290482 0.000110 -0.494208
v 0.420396 0.000110 -0.494208
v 0.290482 0.057666 -0.414988
v 0.420396 0.057666 -0.414988
v 0.290482 0.150795 -0.384729
v 0.420396 0.150795 -0.384729
v 0.290482 0.243923 -0.414988
v 0.420396 0.243923 -0.414988
v 0.290482 0.301480 -0.494208
v 0.420396 0.301480 -0.494208
vt 0.612156 0.971647
vt 0.524372 0.959848
vt 0.524372 0.971647
vt 0.612156 0.959848
vt 0.524372 0.940757
vt 0.612156 0.940757
vt 0.524372 0.921665
vt 0.612156 0.921665
vt 0.524372 0.909866
vt 0.612156 0.909866
vt 0.524372 0.909866
vt 0.524372 0.921665
vt 0.612156 0.921665
vt 0.524372 0.940757
vt 0.612156 0.940757
vt 0.524372 0.959848
vt 0.612156 0.959848
vt 0.524372 0.971647
vt 0.612156 0.971647
vt 0.516159 0.888320
vt 0.519896 0.891662
vt 0.518469 0.897068
vt 0.250082 0.022727
vt 0.383670 0.433867
vt 0.116495 0.433868
vt 0.612156 0.909866
vt 0.516159 0.897992
vt 0.512421 0.891662
vt 0.513849 0.897068
vt 0.512421 0.894650
vt 0.513849 0.889244
vt 0.518469 0.889244
vt 0.519896 0.894650
vt 0.033933 0.320231
vt 0.033933 0.179769
vt 0.116495 0.066133
vt 0.383670 0.066133
vt 0.466232 0.179769
vt 0.466232 0.320231
vt 0.250082 0.477273
vn 0.0000 0.9511 -0.3090
vn 0.0000 0.5878 -0.8090
vn 0.0000 0.0000 -1.0000
vn 0.0000 -0.5878 -0.8090
vn 0.0000 -0.9511 -0.3090
vn 0.0000 -0.9511 0.3090
vn 0.0000 -0.5878 0.8090
vn 0.0000 -0.0000 1.0000
vn 0.0000 0.5878 0.8090
vn 0.0000 0.9511 0.3090
vn -1.0000 -0.0000 0.0000
vn 1.0000 -0.0000 0.0000
s 1
f 22/41/13 23/42/14 21/43/13
f 24/44/14 25/45/15 23/42/14
f 26/46/15 27/47/16 25/45/15
f 28/48/16 29/49/17 27/47/16
f 29/49/17 32/50/18 31/51/18
f 32/50/18 33/52/19 31/51/18
f 34/53/19 35/54/20 33/52/19
f 36/55/20 37/56/21 35/54/20
f 38/57/21 39/58/22 37/56/21
f 40/59/22 21/43/13 39/58/22
f 31/60/23 35/61/23 39/62/23
f 38/63/24 30/64/24 26/65/24
f 22/41/13 24/44/14 23/42/14
f 24/44/14 26/46/15 25/45/15
f 26/46/15 28/48/16 27/47/16
f 28/48/16 30/66/17 29/49/17
f 29/49/17 30/66/17 32/50/18
f 32/50/18 34/53/19 33/52/19
f 34/53/19 36/55/20 35/54/20
f 36/55/20 38/57/21 37/56/21
f 38/57/21 40/59/22 39/58/22
f 40/59/22 22/41/13 21/43/13
f 39/62/23 21/67/23 27/68/23
f 23/69/23 25/70/23 27/68/23
f 27/68/23 29/71/23 31/60/23
f 31/60/23 33/72/23 35/61/23
f 35/61/23 37/73/23 39/62/23
f 21/67/23 23/69/23 27/68/23
f 27/68/23 31/60/23 39/62/23
f 26/65/24 24/74/24 22/75/24
f 22/75/24 40/76/24 38/63/24
f 38/63/24 36/77/24 34/78/24
f 34/78/24 32/79/24 38/63/24
f 30/64/24 28/80/24 26/65/24
f 26/65/24 22/75/24 38/63/24
f 38/63/24 32/79/24 30/64/24
o RRW_Cylinder.006
v -0.290482 0.301480 -0.494208
v -0.420396 0.301480 -0.494208
v -0.290482 0.243923 -0.414988
v -0.420396 0.243923 -0.414988
v -0.290482 0.150795 -0.384729
v -0.420396 0.150795 -0.384729
v -0.290482 0.057666 -0.414988
v -0.420396 0.057666 -0.414988
v -0.290482 0.000110 -0.494208
v -0.420396 0.000110 -0.494208
v -0.290482 0.000110 -0.592129
v -0.420396 0.000110 -0.592129
v -0.290482 0.057666 -0.671349
v -0.420396 0.057666 -0.671349
v -0.290482 0.150795 -0.701608
v -0.420396 0.150795 -0.701608
v -0.290482 0.243923 -0.671349
v -0.420396 0.243923 -0.671349
v -0.290482 0.301480 -0.592129
v -0.420396 0.301480 -0.592129
vt 0.612156 0.971647
vt 0.524372 0.959848
vt 0.524372 0.971647
vt 0.612156 0.959848
vt 0.524372 0.940757
vt 0.612156 0.940757
vt 0.524372 0.921665
vt 0.612156 0.921665
vt 0.524372 0.909866
vt 0.612156 0.909866
vt 0.524372 0.909866
vt 0.612156 0.909866
vt 0.524372 0.921665
vt 0.612156 0.921665
vt 0.524372 0.940757
vt 0.612156 0.940757
vt 0.524372 0.959848
vt 0.612156 0.959848
vt 0.524372 0.971647
vt 0.612156 0.971647
vt 0.512421 0.891662
vt 0.519896 0.891662
vt 0.518469 0.897068
vt 0.250082 0.022727
vt 0.250082 0.477273
vt 0.116495 0.433868
vt 0.516159 0.897992
vt 0.513849 0.897068
vt 0.512421 0.894650
vt 0.513849 0.889244
vt 0.516159 0.888320
vt 0.518469 0.889244
vt 0.519896 0.894650
vt 0.033933 0.320231
vt 0.033933 0.179769
vt 0.116495 0.066133
vt 0.383670 0.066133
vt 0.466232 0.179769
vt 0.466232 0.320231
vt 0.383670 0.433867
vn 0.0000 0.9511 0.3090
vn 0.0000 0.5878 0.8090
vn 0.0000 -0.0000 1.0000
vn 0.0000 -0.5878 0.8090
vn 0.0000 -0.9511 0.3090
vn 0.0000 -0.9511 -0.3090
vn 0.0000 -0.5878 -0.8090
vn 0.0000 0.0000 -1.0000
vn 0.0000 0.5878 -0.8090
vn 0.0000 0.9511 -0.3090
vn 1.0000 0.0000 0.0000
vn -1.0000 0.0000 0.0000
s 1
f 42/81/25 43/82/26 41/83/25
f 44/84/26 45/85/27 43/82/26
f 46/86/27 47/87/28 45/85/27
f 48/88/28 49/89/29 47/87/28
f 50/90/29 51/91/30 49/89/29
f 52/92/30 53/93/31 51/91/30
f 54/94/31 55/95/32 53/93/31
f 56/96/32 57/97/33 55/95/32
f 58/98/33 59/99/34 57/97/33
f 60/100/34 41/83/25 59/99/34
f 47/101/35 55/102/35 59/103/35
f 58/104/36 48/105/36 46/106/36
f 42/81/25 44/84/26 43/82/26
f 44/84/26 46/86/27 45/85/27
f 46/86/27 48/88/28 47/87/28
f 48/88/28 50/90/29 49/89/29
f 50/90/29 52/92/30 51/91/30
f 52/92/30 54/94/31 53/93/31
f 54/94/31 56/96/32 55/95/32
f 56/96/32 58/98/33 57/97/33
f 58/98/33 60/100/34 59/99/34
f 60/100/34 42/81/25 41/83/25
f 59/103/35 41/107/35 47/101/35
f 43/108/35 45/109/35 47/101/35
f 47/101/35 49/110/35 51/111/35
f 51/111/35 53/112/35 47/101/35
f 55/102/35 57/113/35 59/103/35
f 41/107/35 43/108/35 47/101/35
f 47/101/35 53/112/35 55/102/35
f 46/106/36 44/114/36 42/115/36
f 42/115/36 60/116/36 46/106/36
f 58/104/36 56/117/36 54/118/36
f 54/118/36 52/119/36 58/104/36
f 50/120/36 48/105/36 58/104/36
f 46/106/36 60/116/36 58/104/36
f 58/104/36 52/119/36 50/120/36
o FRW_Cylinder.007
v -0.294940 0.301480 0.600107
v -0.401321 0.301480 0.600107
v -0.294940 0.243923 0.679326
v -0.401321 0.243923 0.679326
v -0.294940 0.150795 0.709586
v -0.401321 0.150795 0.709586
v -0.294940 0.057666 0.679326
v -0.401321 0.057666 0.679326
v -0.294940 0.000110 0.600107
v -0.401321 0.000110 0.600107
v -0.294940 0.000110 0.502186
v -0.401321 0.000110 0.502186
v -0.294940 0.057666 0.422966
v -0.401321 0.057666 0.422966
v -0.294940 0.150795 0.392707
v -0.401321 0.150795 0.392707
v -0.294940 0.243923 0.422966
v -0.401321 0.243923 0.422966
v -0.294940 0.301480 0.502186
v -0.401321 0.301480 0.502186
vt 0.612156 0.971647
vt 0.524372 0.959848
vt 0.524372 0.971647
vt 0.612156 0.959848
vt 0.524372 0.940757
vt 0.612156 0.940757
vt 0.524372 0.921665
vt 0.612156 0.921665
vt 0.524372 0.909866
vt 0.612156 0.909866
vt 0.524372 0.909866
vt 0.612156 0.909866
vt 0.524372 0.921665
vt 0.612156 0.921665
vt 0.524372 0.940757
vt 0.612156 0.940757
vt 0.524372 0.959848
vt 0.612156 0.959848
vt 0.524372 0.971647
vt 0.612156 0.971647
vt 0.516159 0.888320
vt 0.519896 0.891662
vt 0.518469 0.897068
vt 0.250082 0.022727
vt 0.383670 0.433867
vt 0.116495 0.433868
vt 0.516159 0.897992
vt 0.512421 0.891662
vt 0.513849 0.897068
vt 0.512421 0.894650
vt 0.513849 0.889244
vt 0.518469 0.889244
vt 0.519896 0.894650
vt 0.033933 0.320231
vt 0.033933 0.179769
vt 0.116495 0.066133
vt 0.383670 0.066133
vt 0.466232 0.179769
vt 0.466232 0.320231
vt 0.250082 0.477273
vn 0.0000 0.9511 0.3090
vn 0.0000 0.5878 0.8090
vn 0.0000 -0.0000 1.0000
vn 0.0000 -0.5878 0.8090
vn 0.0000 -0.9511 0.3090
vn 0.0000 -0.9511 -0.3090
vn 0.0000 -0.5878 -0.8090
vn 0.0000 0.0000 -1.0000
vn 0.0000 0.5878 -0.8090
vn 0.0000 0.9511 -0.3090
vn 1.0000 0.0000 0.0000
vn -1.0000 0.0000 0.0000
s 1
f 62/121/37 63/122/38 61/123/37
f 64/124/38 65/125/39 63/122/38
f 66/126/39 67/127/40 65/125/39
f 68/128/40 69/129/41 67/127/40
f 70/130/41 71/131/42 69/129/41
f 72/132/42 73/133/43 71/131/42
f 74/134/43 75/135/44 73/133/43
f 76/136/44 77/137/45 75/135/44
f 78/138/45 79/139/46 77/137/45
f 80/140/46 61/123/37 79/139/46
f 71/141/47 75/142/47 79/143/47
f 78/144/48 70/145/48 66/146/48
f 62/121/37 64/124/38 63/122/38
f 64/124/38 66/126/39 65/125/39
f 66/126/39 68/128/40 67/127/40
f 68/128/40 70/130/41 69/129/41
f 70/130/41 72/132/42 71/131/42
f 72/132/42 74/134/43 73/133/43
f 74/134/43 76/136/44 75/135/44
f 76/136/44 78/138/45 77/137/45
f 78/138/45 80/140/46 79/139/46
f 80/140/46 62/121/37 61/123/37
f 79/143/47 61/147/47 67/148/47
f 63/149/47 65/150/47 67/148/47
f 67/148/47 69/151/47 71/141/47
f 71/141/47 73/152/47 75/142/47
f 75/142/47 77/153/47 79/143/47
f 61/147/47 63/149/47 67/148/47
f 67/148/47 71/141/47 79/143/47
f 66/146/48 64/154/48 62/155/48
f 62/155/48 80/156/48 66/146/48
f 78/144/48 76/157/48 74/158/48
f 74/158/48 72/159/48 78/144/48
f 70/145/48 68/160/48 66/146/48
f 66/146/48 80/156/48 78/144/48
f 78/144/48 72/159/48 70/145/48
o Body_Plane.003
v 0.400382 0.323428 0.458577
v 0.400382 0.323428 0.641030
v 0.339598 0.444089 0.289159
v 0.340970 0.184440 0.842858
v 0.311506 0.184440 0.886069
v 0.311506 0.128266 0.886069
v 0.340970 0.128266 0.842857
v 0.384886 0.216710 0.726405
v 0.384886 0.128266 0.726404
v 0.316069 0.408553 0.797456
v 0.314231 0.369534 0.867171
v 0.400851 0.216710 0.375957
v 0.357375 0.123074 0.354614
v 0.284008 0.665642 0.193488
v 0.284008 0.665643 -0.155627
v 0.339598 0.444089 -0.155627
v 0.308727 0.458958 -0.180608
v 0.308727 0.458958 -0.864595
v 0.240270 0.444089 -0.241349
v 0.400382 0.323428 -0.450343
v 0.400851 0.216710 -0.359097
v 0.357375 0.123074 -0.357129
v 0.400382 0.323428 -0.644606
v 0.391479 0.216710 -0.732834
v 0.357483 0.123846 -0.737691
v 0.273520 0.458958 -0.213244
v 0.273520 0.458958 -0.864595
v 0.240270 0.444089 -0.864594
v 0.339598 0.444089 -0.864596
v 0.361030 0.289585 -0.864596
v 0.339598 0.268164 -0.986152
v 0.367375 0.217201 -0.864596
v 0.339598 0.123846 -0.839225
v 0.240270 0.280587 -0.241349
v 0.240270 0.280587 -0.864594
v 0.240270 0.460882 -0.897599
v 0.240270 0.460882 -0.927619
v 0.240270 0.444089 -0.954302
v 0.339598 0.444089 -0.954303
v 0.240270 0.268164 -0.954302
v 0.339598 0.268164 -0.954303
v 0.339598 0.217785 -0.986152
v 0.339598 0.217785 -0.954304
v 0.273519 0.457190 -0.897599
v 0.308727 0.451606 -0.927618
v 0.250204 0.323428 0.458577
v 0.250204 0.323428 0.641030
v 0.250204 0.216710 0.726405
v 0.250204 0.128266 0.726404
v 0.250204 0.216710 0.375957
v 0.250204 0.123074 0.354614
v 0.248782 0.323428 -0.450343
v 0.248782 0.216710 -0.359097
v 0.248782 0.123074 -0.357129
v 0.248782 0.323428 -0.644606
v 0.248782 0.216710 -0.732834
v 0.248782 0.123846 -0.737691
v 0.000711 0.123074 0.354614
v -0.000711 0.123074 -0.357129
v 0.269859 0.648040 0.201089
v 0.318143 0.461498 0.281641
v 0.288891 0.646179 0.183855
v 0.335350 0.461018 0.261887
v 0.335350 0.461018 -0.136228
v 0.288887 0.646198 -0.136228
v 0.272510 0.647619 -0.155627
v 0.315487 0.474418 -0.155627
v 0.141844 0.138512 -0.831920
v 0.141844 0.197487 -0.831920
v 0.141844 0.138512 -0.967394
v 0.141844 0.197487 -0.967394
v 0.200819 0.138512 -0.831920
v 0.200819 0.197487 -0.831920
v 0.200819 0.138512 -0.967394
v 0.200819 0.197487 -0.967394
v -0.400382 0.323428 0.458577
v -0.400382 0.323428 0.641030
v 0.000000 0.444089 0.289159
v -0.339598 0.444089 0.289159
v 0.000000 0.184440 0.888292
v -0.340970 0.184440 0.842858
v 0.000000 0.184440 0.931503
v -0.311506 0.184440 0.886069
v 0.000000 0.128266 0.931503
v -0.311506 0.128266 0.886069
v 0.000000 0.128266 0.842857
v -0.340970 0.128266 0.842857
v -0.384886 0.216710 0.726405
v -0.384886 0.128266 0.726404
v 0.000000 0.369534 0.912605
v 0.000000 0.408553 0.842890
v -0.316069 0.408553 0.797456
v -0.314231 0.369534 0.867171
v -0.400851 0.216710 0.375957
v -0.357375 0.123074 0.354614
v 0.000000 0.665642 0.193488
v -0.284008 0.665642 0.193488
v 0.000000 0.665643 -0.155627
v -0.284008 0.665643 -0.155627
v 0.000000 0.444089 -0.155627
v -0.339598 0.444089 -0.155627
v 0.000000 0.458958 -0.180608
v -0.308727 0.458958 -0.180608
v 0.000000 0.458958 -0.213244
v 0.000000 0.444089 -0.241349
v -0.308727 0.458958 -0.864595
v -0.240270 0.444089 -0.241349
v -0.400382 0.323428 -0.450343
v -0.400851 0.216710 -0.359097
v -0.357375 0.123074 -0.357129
v -0.400382 0.323428 -0.644606
v -0.391479 0.216710 -0.732834
v -0.357483 0.123846 -0.737691
v -0.273520 0.458958 -0.213244
v -0.273520 0.458958 -0.864595
v -0.240270 0.444089 -0.864594
v -0.339598 0.444089 -0.864596
v -0.361030 0.289585 -0.864596
v 0.000000 0.268164 -0.986150
v -0.339598 0.268164 -0.986152
v -0.367375 0.217201 -0.864596
v -0.339598 0.123846 -0.839225
v -0.240270 0.280587 -0.241349
v -0.240270 0.280587 -0.864594
v 0.000000 0.280587 -0.241348
v 0.000000 0.280587 -0.864593
v 0.000000 0.444089 -0.864593
v -0.240270 0.460882 -0.897599
v 0.000000 0.460882 -0.897599
v -0.240270 0.460882 -0.927619
v 0.000000 0.460882 -0.927618
v -0.240270 0.444089 -0.954302
v 0.000000 0.444089 -0.954301
v -0.339598 0.444089 -0.954303
v -0.240270 0.268164 -0.954302
v 0.000000 0.268164 -0.954301
v -0.339598 0.268164 -0.954303
v 0.000000 0.217785 -0.986150
v -0.339598 0.217785 -0.986152
v 0.000000 0.123698 -0.839640
v 0.000000 0.217785 -0.954302
v -0.339598 0.217785 -0.954304
v -0.273519 0.457190 -0.897599
v -0.308727 0.451606 -0.927618
v -0.250204 0.323428 0.458577
v -0.250204 0.323428 0.641030
v -0.250204 0.216710 0.726405
v -0.250204 0.128266 0.726404
v -0.250204 0.216710 0.375957
v -0.250204 0.123074 0.354614
v -0.248782 0.323428 -0.450343
v -0.248782 0.216710 -0.359097
v -0.248782 0.123074 -0.357129
v -0.248782 0.323428 -0.644606
v -0.248782 0.216710 -0.732834
v -0.248782 0.123846 -0.737691
v -0.000711 0.123074 0.354614
v 0.000711 0.123074 -0.357129
v 0.000000 0.648043 0.201088
v -0.269859 0.648040 0.201089
v 0.000000 0.461501 0.281640
v -0.318143 0.461498 0.281641
v -0.288891 0.646179 0.183855
v -0.335350 0.461018 0.261887
v -0.335350 0.461018 -0.136228
v -0.288887 0.646198 -0.136228
v 0.000000 0.474425 -0.155627
v 0.000000 0.647639 -0.155627
v -0.272510 0.647619 -0.155627
v -0.315487 0.474418 -0.155627
v -0.141844 0.138512 -0.831920
v -0.141844 0.197487 -0.831920
v -0.141844 0.138512 -0.967394
v -0.141844 0.197487 -0.967394
v -0.200819 0.138512 -0.831920
v -0.200819 0.197487 -0.831920
v -0.200819 0.138512 -0.967394
v -0.200819 0.197487 -0.967394
vt 0.429319 0.681550
vt 0.395699 0.661628
vt 0.432497 0.661628
vt 0.304835 0.946225
vt 0.305209 0.948922
vt 0.304872 0.949232
vt 0.052261 0.668892
vt 0.052747 0.671627
vt 0.052255 0.671626
vt 0.262026 0.924999
vt 0.260176 0.924742
vt 0.262201 0.924742
vt 0.070623 0.678778
vt 0.070133 0.679044
vt 0.070132 0.678776
vt 0.430837 0.724846
vt 0.431333 0.725259
vt 0.430560 0.725257
vt 0.431137 0.723860
vt 0.429517 0.723973
vt 0.429520 0.723751
vt 0.390141 0.727459
vt 0.387373 0.731714
vt 0.387378 0.727062
vt 0.433197 0.726285
vt 0.433034 0.726398
vt 0.432244 0.726218
vt 0.432046 0.726228
vt 0.432487 0.726440
vt 0.431583 0.724839
vt 0.431143 0.724082
vt 0.431583 0.724401
vt 0.413502 0.721363
vt 0.413423 0.722813
vt 0.413423 0.721364
vt 0.389827 0.732577
vt 0.387344 0.735629
vt 0.387344 0.732576
vt 0.412194 0.726881
vt 0.412190 0.728122
vt 0.412190 0.726881
vt 0.410295 0.726234
vt 0.410274 0.724333
vt 0.410295 0.724208
vt 0.430167 0.723215
vt 0.432864 0.723436
vt 0.430165 0.723435
vt 0.387371 0.735823
vt 0.389763 0.736109
vt 0.387371 0.736108
vt 0.411021 0.722313
vt 0.413123 0.722557
vt 0.411022 0.722557
vt 0.390070 0.741803
vt 0.389763 0.741803
vt 0.433351 0.680921
vt 0.433473 0.680654
vt 0.433480 0.680909
vt 0.416116 0.708987
vt 0.416497 0.702714
vt 0.416497 0.709134
vt 0.404598 0.731086
vt 0.426355 0.738985
vt 0.410640 0.738986
vt 0.413412 0.728008
vt 0.413123 0.728006
vt 0.433136 0.729414
vt 0.432864 0.729416
vt 0.431261 0.728016
vt 0.431583 0.727018
vt 0.431583 0.727484
vt 0.431546 0.727692
vt 0.431402 0.728010
vt 0.415961 0.698561
vt 0.416415 0.699450
vt 0.416117 0.699447
vt 0.431422 0.728008
vt 0.297243 0.949550
vt 0.297243 0.948682
vt 0.297521 0.948682
vt 0.391818 0.698143
vt 0.393248 0.703592
vt 0.391818 0.703592
vt 0.394265 0.706481
vt 0.394196 0.704379
vt 0.394265 0.704380
vt 0.391677 0.731703
vt 0.393777 0.726255
vt 0.393777 0.731704
vt 0.388580 0.702496
vt 0.390009 0.704596
vt 0.388580 0.704596
vt 0.411020 0.728296
vt 0.411022 0.728006
vt 0.389472 0.742092
vt 0.387371 0.742354
vt 0.387371 0.742092
vt 0.432266 0.729967
vt 0.430167 0.730198
vt 0.430165 0.729966
vt 0.415094 0.724065
vt 0.415383 0.724355
vt 0.415092 0.724355
vt 0.389763 0.742092
vt 0.432865 0.729966
vt 0.395660 0.646635
vt 0.405950 0.634911
vt 0.405950 0.646635
vt 0.430841 0.634911
vt 0.430841 0.646635
vt 0.297521 0.951651
vt 0.297243 0.951651
vt 0.012468 0.668913
vt 0.009498 0.668934
vt 0.009499 0.668912
vt 0.434052 0.695210
vt 0.431082 0.696251
vt 0.431082 0.695210
vt 0.358093 0.892392
vt 0.361062 0.892670
vt 0.358093 0.892670
vt 0.415961 0.697516
vt 0.416204 0.698299
vt 0.021018 0.673108
vt 0.021011 0.672669
vt 0.021018 0.672668
vt 0.431275 0.728225
vt 0.431261 0.728231
vt 0.389472 0.742355
vt 0.432268 0.730198
vt 0.415383 0.724066
vt 0.266943 0.923563
vt 0.266077 0.924194
vt 0.266096 0.923557
vt 0.268936 0.922328
vt 0.268292 0.922881
vt 0.268299 0.922324
vt 0.262298 0.917624
vt 0.261654 0.917585
vt 0.262557 0.917585
vt 0.266746 0.923010
vt 0.266101 0.923006
vt 0.269166 0.923523
vt 0.269187 0.922886
vt 0.262554 0.923488
vt 0.261662 0.922406
vt 0.262554 0.922406
vt 0.262554 0.917013
vt 0.261654 0.917013
vt 0.262462 0.924026
vt 0.261662 0.923488
vt 0.261654 0.915861
vt 0.262554 0.915861
vt 0.262462 0.924051
vt 0.261662 0.924026
vt 0.271488 0.900019
vt 0.271409 0.899262
vt 0.271499 0.899199
vt 0.271418 0.900964
vt 0.271462 0.900956
vt 0.268170 0.900214
vt 0.268255 0.901015
vt 0.268165 0.901033
vt 0.268181 0.901962
vt 0.261662 0.921847
vt 0.261653 0.917624
vt 0.260180 0.921847
vt 0.260171 0.917624
vt 0.261662 0.924051
vt 0.262299 0.915366
vt 0.261653 0.915366
vt 0.262193 0.914764
vt 0.260176 0.914761
vt 0.412575 0.722603
vt 0.412495 0.721375
vt 0.412575 0.721374
vt 0.983988 0.880447
vt 0.986377 0.996881
vt 0.984008 0.996881
vt 0.412495 0.722668
vt 0.965882 0.879449
vt 0.959878 0.995774
vt 0.958356 0.879449
vt 0.410050 0.726158
vt 0.410026 0.724657
vt 0.410050 0.724700
vt 0.410275 0.726147
vt 0.953687 0.996043
vt 0.955014 0.878169
vt 0.955014 0.996234
vt 0.412152 0.728318
vt 0.412145 0.726880
vt 0.412152 0.726880
vt 0.412194 0.728175
vt 0.302833 0.984937
vt 0.307698 0.980072
vt 0.307698 0.984937
vt 0.236306 0.951208
vt 0.248159 0.939354
vt 0.248159 0.951208
vt 0.297482 0.984937
vt 0.302347 0.980072
vt 0.302347 0.984937
vt 0.297482 0.995640
vt 0.302347 0.990775
vt 0.302347 0.995640
vt 0.307698 0.990289
vt 0.302833 0.985424
vt 0.307698 0.985424
vt 0.395354 0.681595
vt 0.305209 0.946170
vt 0.052752 0.668893
vt 0.260176 0.925268
vt 0.070625 0.679046
vt 0.431328 0.724847
vt 0.390342 0.731714
vt 0.431261 0.725249
vt 0.413502 0.722909
vt 0.389827 0.735629
vt 0.433136 0.723215
vt 0.390070 0.735823
vt 0.413412 0.722313
vt 0.433368 0.680664
vt 0.416116 0.702771
vt 0.436710 0.731086
vt 0.431261 0.726315
vt 0.393248 0.698143
vt 0.394196 0.706480
vt 0.391677 0.726254
vt 0.390009 0.702496
vt 0.413121 0.728297
vt 0.390071 0.742354
vt 0.433136 0.730198
vt 0.395660 0.634911
vt 0.012468 0.668934
vt 0.434051 0.696255
vt 0.361062 0.892392
vt 0.021011 0.673110
vt 0.431279 0.728224
vt 0.266978 0.924200
vt 0.268275 0.923517
vt 0.271404 0.900035
vt 0.268262 0.900203
vt 0.268228 0.901952
vt 0.262298 0.921847
vt 0.986781 0.880442
vt 0.965929 0.995790
vt 0.410026 0.726248
vt 0.953478 0.878169
vt 0.412145 0.728428
vt 0.302833 0.980072
vt 0.236306 0.939354
vt 0.297482 0.980072
vt 0.297482 0.990775
vt 0.302833 0.990289
vt 0.429319 0.681550
vt 0.432497 0.661628
vt 0.304872 0.949232
vt 0.305209 0.948922
vt 0.052255 0.671626
vt 0.052747 0.671627
vt 0.262026 0.924999
vt 0.262201 0.924742
vt 0.070623 0.678778
vt 0.070132 0.678776
vt 0.070133 0.679044
vt 0.430837 0.724846
vt 0.430560 0.725257
vt 0.431333 0.725259
vt 0.431137 0.723860
vt 0.390141 0.727459
vt 0.433197 0.726285
vt 0.432244 0.726218
vt 0.433034 0.726398
vt 0.432046 0.726228
vt 0.432487 0.726440
vt 0.431583 0.724839
vt 0.431583 0.724401
vt 0.431143 0.724082
vt 0.413423 0.722813
vt 0.389827 0.732577
vt 0.412190 0.728122
vt 0.410295 0.726234
vt 0.410295 0.724208
vt 0.410274 0.724333
vt 0.432864 0.723436
vt 0.389763 0.736109
vt 0.413123 0.722557
vt 0.389763 0.741803
vt 0.390070 0.741803
vt 0.433351 0.680921
vt 0.433480 0.680909
vt 0.433473 0.680654
vt 0.416116 0.708987
vt 0.416497 0.709134
vt 0.416497 0.702714
vt 0.404598 0.731086
vt 0.410640 0.738986
vt 0.426355 0.738985
vt 0.413123 0.728006
vt 0.413412 0.728008
vt 0.432864 0.729416
vt 0.433136 0.729414
vt 0.431261 0.728016
vt 0.431583 0.727484
vt 0.431583 0.727018
vt 0.431546 0.727692
vt 0.431402 0.728010
vt 0.415961 0.698561
vt 0.416117 0.699447
vt 0.416415 0.699450
vt 0.431422 0.728008
vt 0.297243 0.949550
vt 0.297521 0.948682
vt 0.297243 0.948682
vt 0.391818 0.698143
vt 0.391818 0.703592
vt 0.393248 0.703592
vt 0.394265 0.706481
vt 0.391677 0.731703
vt 0.388580 0.702496
vt 0.389472 0.742092
vt 0.432266 0.729967
vt 0.415094 0.724065
vt 0.415092 0.724355
vt 0.415383 0.724355
vt 0.389763 0.742092
vt 0.432865 0.729966
vt 0.395660 0.646635
vt 0.405950 0.646635
vt 0.405950 0.634911
vt 0.012468 0.668913
vt 0.434052 0.695210
vt 0.361062 0.892670
vt 0.416204 0.698299
vt 0.415961 0.697516
vt 0.021018 0.673108
vt 0.021018 0.672668
vt 0.021011 0.672669
vt 0.431275 0.728225
vt 0.431261 0.728231
vt 0.389472 0.742355
vt 0.432268 0.730198
vt 0.415383 0.724066
vt 0.266943 0.923563
vt 0.266096 0.923557
vt 0.266077 0.924194
vt 0.268936 0.922328
vt 0.268299 0.922324
vt 0.268292 0.922881
vt 0.262298 0.917624
vt 0.262557 0.917585
vt 0.261654 0.917585
vt 0.266746 0.923010
vt 0.266101 0.923006
vt 0.269166 0.923523
vt 0.269187 0.922886
vt 0.262554 0.923488
vt 0.262554 0.922406
vt 0.261662 0.922406
vt 0.262554 0.917013
vt 0.261654 0.917013
vt 0.262462 0.924026
vt 0.261662 0.923488
vt 0.262554 0.915861
vt 0.261654 0.915861
vt 0.262462 0.924051
vt 0.261662 0.924026
vt 0.271488 0.900019
vt 0.271499 0.899199
vt 0.271409 0.899262
vt 0.271418 0.900964
vt 0.271462 0.900956
vt 0.268170 0.900214
vt 0.268165 0.901033
vt 0.268255 0.901015
vt 0.268181 0.901962
vt 0.261653 0.917624
vt 0.261662 0.921847
vt 0.260171 0.917624
vt 0.260180 0.921847
vt 0.261662 0.924051
vt 0.262299 0.915366
vt 0.262193 0.914764
vt 0.261653 0.915366
vt 0.412575 0.722603
vt 0.986377 0.996881
vt 0.412495 0.722668
vt 0.965882 0.879449
vt 0.958356 0.879449
vt 0.959878 0.995774
vt 0.410050 0.726158
vt 0.410050 0.724700
vt 0.410026 0.724657
vt 0.410275 0.726147
vt 0.953687 0.996043
vt 0.412152 0.728318
vt 0.412194 0.728175
vt 0.302833 0.984937
vt 0.307698 0.984937
vt 0.307698 0.980072
vt 0.236306 0.951208
vt 0.248159 0.951208
vt 0.248159 0.939354
vt 0.297482 0.984937
vt 0.302347 0.984937
vt 0.302347 0.980072
vt 0.297482 0.995640
vt 0.302347 0.995640
vt 0.302347 0.990775
vt 0.307698 0.990289
vt 0.307698 0.985424
vt 0.302833 0.985424
vt 0.070625 0.679046
vt 0.431328 0.724847
vt 0.390342 0.731714
vt 0.431261 0.725249
vt 0.413502 0.722909
vt 0.389827 0.735629
vt 0.433136 0.723215
vt 0.390070 0.735823
vt 0.413412 0.722313
vt 0.433368 0.680664
vt 0.416116 0.702771
vt 0.436710 0.731086
vt 0.431261 0.726315
vt 0.393248 0.698143
vt 0.394196 0.706480
vt 0.391677 0.726254
vt 0.390009 0.702496
vt 0.413121 0.728297
vt 0.390071 0.742354
vt 0.433136 0.730198
vt 0.395660 0.634911
vt 0.012468 0.668934
vt 0.434051 0.696255
vt 0.361062 0.892392
vt 0.021011 0.673110
vt 0.431279 0.728224
vt 0.266978 0.924200
vt 0.268275 0.923517
vt 0.271404 0.900035
vt 0.268262 0.900203
vt 0.268228 0.901952
vt 0.262298 0.921847
vt 0.986781 0.880442
vt 0.965929 0.995790
vt 0.410026 0.726248
vt 0.953478 0.878169
vt 0.412145 0.728428
vt 0.302833 0.980072
vt 0.236306 0.939354
vt 0.297482 0.980072
vt 0.297482 0.990775
vt 0.302833 0.990289
vn 0.1346 -0.1162 0.9841
vn 0.1383 -0.1227 0.9828
vn 0.1313 -0.1104 0.9852
vn 0.0000 1.0000 0.0000
vn 0.1443 -0.0000 0.9895
vn -0.0000 -1.0000 -0.0000
vn 0.0000 -1.0000 0.0038
vn 0.8262 -0.0000 0.5634
vn 0.9029 0.0260 0.4292
vn 0.9357 -0.0000 0.3529
vn 0.9298 0.1019 0.3537
vn 0.0703 0.8698 0.4884
vn 0.0704 0.8703 0.4874
vn 0.0704 0.8705 0.4872
vn 0.0061 0.9978 0.0660
vn 0.0000 0.9977 0.0677
vn 0.0000 0.9979 0.0640
vn 0.9463 0.2151 0.2414
vn 0.9182 0.3417 0.2005
vn 0.8236 0.5481 0.1456
vn 0.8432 0.5351 0.0520
vn 0.0000 0.3964 0.9181
vn 0.0000 0.0000 -1.0000
vn 0.9699 0.2434 -0.0000
vn 0.0000 0.8593 0.5115
vn 0.2210 0.9335 0.2825
vn 0.0000 0.8839 -0.4676
vn -0.2077 0.9446 -0.2540
vn 1.0000 0.0044 0.0000
vn 0.9070 -0.4211 -0.0000
vn 0.8931 0.4499 0.0000
vn 0.8840 0.4673 0.0156
vn -0.4081 0.9126 -0.0243
vn -0.1982 0.9524 0.2315
vn 0.4055 0.9133 -0.0371
vn 0.4334 0.8997 -0.0515
vn 0.9790 0.1931 -0.0653
vn 0.9396 0.3356 -0.0672
vn 0.9799 0.0753 -0.1848
vn 0.9772 0.0828 -0.1953
vn 0.9221 -0.3316 -0.1993
vn 0.9298 -0.3276 -0.1675
vn 0.9291 -0.3316 -0.1637
vn 0.9725 0.0721 -0.2217
vn -1.0000 -0.0000 0.0000
vn 0.0000 0.0000 1.0000
vn -0.0000 0.8913 0.4535
vn 0.0553 0.9985 0.0000
vn 0.0557 0.8450 -0.5318
vn -0.0000 0.8463 -0.5326
vn -0.1627 0.9623 0.2181
vn 0.0485 0.8902 0.4529
vn 0.0306 0.9958 -0.0860
vn 0.0840 0.9949 -0.0550
vn 0.0000 0.9986 -0.0535
vn 0.1494 0.9724 -0.1794
vn 0.0008 -0.7742 -0.6329
vn 0.0000 -0.7735 -0.6338
vn 0.0000 -0.7731 -0.6343
vn 0.8967 -0.3429 -0.2799
vn 0.9131 -0.3349 -0.2325
vn 1.0000 0.0000 0.0000
vn 0.9658 0.0196 -0.2585
vn 0.9926 0.0916 -0.0795
vn 0.0609 0.9981 -0.0063
vn 0.0436 0.8635 -0.5024
vn 0.0000 -0.4073 0.9133
vn 0.0000 -0.9048 0.4259
vn 0.0000 -0.3631 0.9318
vn 0.0000 -0.2222 0.9750
vn 0.0000 -0.4273 0.9041
vn 0.0000 -0.0210 -0.9998
vn 0.0000 -0.3562 -0.9344
vn 0.0000 -0.4088 -0.9126
vn 0.0000 -0.0522 0.9986
vn 0.0000 -0.8976 0.4408
vn 0.0000 -0.4580 0.8889
vn 0.0000 -0.9089 -0.4170
vn 0.0000 -0.8978 0.4404
vn 0.0000 -0.9081 -0.4189
vn 0.0000 -0.9083 -0.4184
vn 0.0000 -0.3425 -0.9395
vn 0.0000 -0.9013 -0.4332
vn 0.0000 -0.9089 0.4170
vn 0.0000 -0.3310 -0.9436
vn 0.0000 -1.0000 0.0047
vn 0.0000 -1.0000 -0.0007
vn 0.0009 -1.0000 0.0064
vn 0.0002 -1.0000 -0.0009
vn 0.0015 -1.0000 0.0049
vn 0.0005 -1.0000 -0.0005
vn 0.0002 -1.0000 0.0002
vn 0.0010 -1.0000 -0.0009
vn 0.1419 -0.1289 0.9814
vn 0.8872 -0.0000 0.4614
vn 0.0702 0.8697 0.4886
vn 0.0000 0.9976 0.0697
vn 0.2554 0.9362 0.2417
vn -0.2339 0.9461 -0.2238
vn 0.0928 0.9928 -0.0759
vn 0.1308 0.9834 -0.1257
vn 0.0011 -0.7747 -0.6324
vn 0.9553 0.0000 -0.2958
vn -0.1346 -0.1162 0.9841
vn -0.1313 -0.1104 0.9852
vn -0.1383 -0.1227 0.9828
vn -0.1443 -0.0000 0.9895
vn -0.8262 -0.0000 0.5634
vn -0.9029 0.0260 0.4292
vn -0.9298 0.1019 0.3537
vn -0.9357 -0.0000 0.3529
vn -0.0703 0.8698 0.4884
vn -0.0704 0.8705 0.4872
vn -0.0704 0.8703 0.4874
vn -0.0061 0.9978 0.0660
vn -0.9463 0.2151 0.2414
vn -0.9182 0.3417 0.2005
vn -0.8236 0.5481 0.1456
vn -0.8432 0.5351 0.0520
vn -0.9699 0.2434 -0.0000
vn -0.2210 0.9335 0.2825
vn 0.2077 0.9446 -0.2540
vn -1.0000 0.0044 0.0000
vn -0.9070 -0.4211 -0.0000
vn -0.8840 0.4673 0.0156
vn -0.8931 0.4499 0.0000
vn 0.1982 0.9524 0.2315
vn 0.4081 0.9126 -0.0243
vn -0.4334 0.8997 -0.0515
vn -0.4055 0.9133 -0.0371
vn -0.9790 0.1931 -0.0653
vn -0.9396 0.3356 -0.0672
vn -0.9799 0.0753 -0.1848
vn -0.9772 0.0828 -0.1953
vn -0.9221 -0.3316 -0.1993
vn -0.9291 -0.3316 -0.1637
vn -0.9298 -0.3276 -0.1675
vn -0.9725 0.0721 -0.2217
vn -0.0553 0.9985 0.0000
vn -0.0557 0.8450 -0.5318
vn -0.0485 0.8902 0.4529
vn 0.1627 0.9623 0.2181
vn -0.0306 0.9958 -0.0860
vn -0.0840 0.9949 -0.0550
vn -0.1494 0.9724 -0.1794
vn -0.0008 -0.7742 -0.6329
vn -0.9131 -0.3349 -0.2325
vn -0.8967 -0.3429 -0.2799
vn -0.9658 0.0196 -0.2585
vn -0.9926 0.0916 -0.0795
vn -0.0609 0.9981 -0.0063
vn -0.0436 0.8635 -0.5024
vn -0.0002 -1.0000 -0.0009
vn -0.0009 -1.0000 0.0064
vn -0.0015 -1.0000 0.0049
vn -0.0002 -1.0000 0.0002
vn -0.0005 -1.0000 -0.0005
vn -0.0010 -1.0000 -0.0009
vn -0.1419 -0.1289 0.9814
vn -0.8872 -0.0000 0.4614
vn -0.0702 0.8697 0.4886
vn -0.2554 0.9362 0.2417
vn 0.2339 0.9461 -0.2238
vn -0.0928 0.9928 -0.0759
vn -0.1308 0.9834 -0.1257
vn -0.0011 -0.7747 -0.6324
vn -0.9553 0.0000 -0.2958
s 1
f 91/161/49 160/162/50 84/163/51
f 160/164/52 85/165/52 84/166/52
f 162/167/53 86/168/53 85/169/53
f 86/170/54 166/171/55 87/172/54
f 86/173/56 84/174/57 85/175/56
f 84/176/57 89/177/58 88/178/59
f 91/179/60 171/180/61 170/181/62
f 90/182/63 158/183/64 171/184/65
f 84/185/57 88/186/59 91/187/66
f 90/188/67 88/186/59 82/189/68
f 81/190/69 90/191/67 82/192/68
f 158/193/70 141/194/70 241/195/70
f 94/196/52 178/197/52 176/198/52
f 178/199/71 146/200/71 248/201/71
f 96/202/72 143/203/72 83/204/72
f 180/205/73 97/206/74 182/207/73
f 182/208/52 106/209/52 184/210/52
f 184/211/75 99/212/76 185/213/75
f 106/209/52 98/214/52 107/215/52
f 81/216/77 101/217/77 100/218/77
f 93/219/78 101/220/78 92/221/78
f 81/222/69 96/223/79 83/224/80
f 99/212/76 107/225/81 108/226/82
f 97/206/74 109/227/83 98/228/84
f 109/229/85 100/230/79 103/231/86
f 104/232/87 110/233/88 103/231/86
f 113/234/89 104/235/90 105/236/91
f 110/233/88 104/232/87 112/237/92
f 120/238/52 121/239/52 111/240/52
f 108/241/93 114/242/93 99/243/93
f 99/244/71 205/245/71 185/246/71
f 114/247/52 206/248/52 205/249/52
f 115/250/94 207/251/94 206/252/94
f 108/226/82 209/253/95 207/254/95
f 116/255/96 211/256/52 209/257/52
f 117/258/97 213/259/98 211/260/98
f 108/261/82 124/262/99 116/263/100
f 98/214/101 124/264/102 107/215/103
f 109/227/83 125/265/104 98/228/84
f 119/266/71 120/267/71 118/268/71
f 118/268/71 216/269/71 213/270/71
f 120/238/52 199/271/52 216/272/52
f 111/273/71 218/274/71 199/275/71
f 123/276/105 220/277/106 221/278/107
f 218/279/54 123/280/54 221/281/54
f 113/234/89 123/282/108 112/283/109
f 111/284/110 123/285/110 122/286/110
f 112/237/92 121/287/111 110/233/88
f 110/233/88 119/288/112 109/229/85
f 124/264/102 117/289/113 116/255/96
f 125/265/104 118/290/114 117/258/97
f 124/262/99 108/261/82 107/291/81
f 104/292/115 135/293/116 136/294/117
f 93/295/118 130/296/119 131/297/118
f 102/298/120 133/299/121 101/300/122
f 105/301/123 136/294/117 137/302/123
f 81/303/124 130/296/119 92/304/125
f 82/305/126 126/306/127 81/307/124
f 100/308/128 133/299/121 132/309/129
f 88/310/130 127/311/131 82/305/126
f 100/308/128 135/312/116 103/313/132
f 89/314/71 128/315/133 88/310/130
f 130/316/110 129/317/110 131/318/110
f 127/319/110 130/316/110 126/320/110
f 134/321/110 136/322/110 133/323/110
f 136/322/110 132/324/110 133/323/110
f 102/298/54 131/325/134 134/326/135
f 134/326/135 138/327/136 139/328/137
f 89/314/54 87/172/54 129/329/138
f 87/172/54 166/171/55 129/329/138
f 129/329/138 138/327/136 131/325/134
f 105/330/54 137/331/139 113/332/140
f 220/333/141 113/332/140 137/331/139
f 137/331/139 139/328/137 220/333/141
f 140/334/70 176/335/70 239/336/70
f 241/337/70 140/338/70 239/339/70
f 141/194/70 94/340/70 140/334/70
f 144/341/72 142/342/72 143/343/72
f 145/344/72 94/345/72 142/346/72
f 94/345/72 143/203/72 142/346/72
f 96/202/72 145/344/72 144/347/72
f 146/348/71 247/349/71 248/350/71
f 147/351/71 180/352/71 247/353/71
f 95/354/71 147/351/71 146/200/71
f 149/355/93 150/356/93 148/357/93
f 151/358/71 154/359/71 150/360/71
f 155/361/110 152/362/110 154/363/110
f 154/364/54 148/365/54 150/366/54
f 151/367/52 153/368/52 155/369/52
f 103/231/86 110/233/88 109/229/85
f 91/161/49 170/370/142 160/162/50
f 160/164/52 162/371/52 85/165/52
f 162/167/53 164/372/53 86/168/53
f 86/170/54 164/373/54 166/171/55
f 86/173/56 87/374/143 84/174/57
f 84/176/57 87/375/143 89/177/58
f 91/179/60 90/191/144 171/180/61
f 90/182/63 83/376/145 158/183/64
f 90/188/67 91/187/66 88/186/59
f 81/190/69 83/377/80 90/191/67
f 158/193/70 83/378/70 141/194/70
f 94/196/52 95/379/52 178/197/52
f 178/199/71 95/354/71 146/200/71
f 96/202/72 144/347/72 143/203/72
f 180/205/73 96/380/146 97/206/74
f 182/208/52 97/381/52 106/209/52
f 184/211/75 106/382/147 99/212/76
f 106/209/52 97/381/52 98/214/52
f 81/216/77 92/383/77 101/217/77
f 93/219/78 102/384/78 101/220/78
f 81/222/69 100/385/79 96/223/79
f 99/212/76 106/382/147 107/225/81
f 97/206/74 96/380/146 109/227/83
f 109/229/85 96/386/79 100/230/79
f 113/234/89 112/283/109 104/235/90
f 108/241/93 115/387/93 114/242/93
f 99/244/71 114/388/71 205/245/71
f 114/247/52 115/389/52 206/248/52
f 115/250/94 108/390/94 207/251/94
f 108/226/82 116/391/100 209/253/95
f 116/255/96 117/289/113 211/256/52
f 117/258/97 118/290/114 213/259/98
f 98/214/101 125/392/148 124/264/102
f 109/227/83 119/393/149 125/265/104
f 119/266/71 121/394/71 120/267/71
f 118/268/71 120/267/71 216/269/71
f 120/238/52 111/240/52 199/271/52
f 111/273/71 122/395/71 218/274/71
f 123/276/105 113/396/150 220/277/106
f 218/279/54 122/397/54 123/280/54
f 111/284/110 121/398/110 123/285/110
f 112/237/92 123/399/151 121/287/111
f 110/233/88 121/287/111 119/288/112
f 124/264/102 125/392/148 117/289/113
f 125/265/104 119/393/149 118/290/114
f 104/292/115 103/400/132 135/293/116
f 93/295/118 92/304/125 130/296/119
f 102/298/120 134/326/120 133/299/121
f 105/301/123 104/292/115 136/294/117
f 81/303/124 126/401/127 130/296/119
f 82/305/126 127/311/131 126/306/127
f 100/308/128 101/300/122 133/299/121
f 88/310/130 128/315/133 127/311/131
f 100/308/128 132/309/129 135/312/116
f 89/314/71 129/329/71 128/315/133
f 130/316/110 128/402/110 129/317/110
f 127/319/110 128/402/110 130/316/110
f 134/321/110 137/403/110 136/322/110
f 136/322/110 135/404/110 132/324/110
f 102/298/54 93/405/54 131/325/134
f 134/326/135 131/325/134 138/327/136
f 129/329/138 166/171/55 138/327/136
f 137/331/139 134/326/135 139/328/137
f 140/334/70 94/340/70 176/335/70
f 241/337/70 141/406/70 140/338/70
f 141/194/70 83/378/70 94/340/70
f 144/341/72 145/407/72 142/342/72
f 145/344/72 95/408/72 94/345/72
f 94/345/72 83/204/72 143/203/72
f 96/202/72 95/408/72 145/344/72
f 146/348/71 147/409/71 247/349/71
f 147/351/71 96/410/71 180/352/71
f 95/354/71 96/410/71 147/351/71
f 149/355/93 151/411/93 150/356/93
f 151/358/71 155/412/71 154/359/71
f 155/361/110 153/413/110 152/362/110
f 154/364/54 152/414/54 148/365/54
f 151/367/52 149/415/52 153/368/52
f 173/416/152 161/417/153 160/162/154
f 160/164/52 161/418/52 163/419/52
f 162/167/155 163/420/155 165/421/155
f 165/422/54 167/423/54 166/171/55
f 165/424/156 163/425/156 161/426/157
f 161/427/157 168/428/158 169/429/159
f 173/430/160 170/181/161 171/180/162
f 172/431/163 171/184/65 158/183/64
f 161/432/157 173/433/164 168/434/158
f 172/435/165 157/436/166 168/434/158
f 156/437/167 157/438/166 172/439/165
f 158/193/70 241/195/70 242/440/70
f 177/441/52 176/198/52 178/197/52
f 178/199/71 248/201/71 249/442/71
f 181/443/168 159/444/168 244/445/168
f 180/205/73 182/207/73 183/446/169
f 182/208/52 184/210/52 194/447/52
f 184/211/75 185/213/75 187/448/170
f 194/447/52 195/449/52 186/450/52
f 156/451/171 188/452/171 189/453/171
f 175/454/172 174/455/172 189/456/172
f 156/457/167 159/458/173 181/459/174
f 187/448/170 196/460/175 195/461/176
f 183/446/169 186/462/177 197/463/178
f 197/464/179 191/465/180 188/466/174
f 192/467/181 191/465/180 198/468/182
f 202/469/183 193/470/184 192/471/185
f 198/468/182 201/472/186 192/467/181
f 215/473/52 200/474/52 217/475/52
f 196/476/110 187/477/110 203/478/110
f 187/479/71 185/246/71 205/245/71
f 203/480/52 205/249/52 206/248/52
f 204/481/94 206/252/94 207/251/94
f 196/460/175 207/254/95 209/253/95
f 208/482/187 209/257/52 211/256/52
f 210/483/188 211/260/98 213/259/98
f 196/484/175 208/485/189 223/486/190
f 186/450/191 195/449/103 223/487/192
f 197/463/178 186/462/177 224/488/193
f 214/489/71 212/490/71 215/491/71
f 212/490/71 213/270/71 216/269/71
f 215/473/52 216/272/52 199/271/52
f 200/492/71 199/275/71 218/274/71
f 222/493/194 221/278/107 220/277/106
f 218/279/54 221/281/54 222/494/54
f 202/469/183 201/495/195 222/496/196
f 200/497/93 219/498/93 222/499/93
f 201/472/186 198/468/182 217/500/197
f 198/468/182 197/464/179 214/501/198
f 223/487/192 208/482/187 210/502/199
f 224/488/193 210/483/188 212/503/200
f 223/486/190 195/504/176 196/484/175
f 192/505/115 235/506/117 234/507/116
f 175/508/118 230/509/118 229/510/119
f 190/511/120 189/512/122 232/513/121
f 193/514/123 236/515/123 235/506/117
f 156/516/124 174/517/125 229/510/119
f 157/518/126 156/519/124 225/520/127
f 188/521/128 231/522/129 232/513/121
f 168/523/130 157/518/126 226/524/131
f 188/521/128 191/525/132 234/526/116
f 169/527/71 168/523/130 227/528/133
f 229/529/93 230/530/93 228/531/93
f 226/532/93 225/533/93 229/529/93
f 233/534/93 232/535/93 235/536/93
f 235/536/93 232/535/93 231/537/93
f 190/511/54 233/538/135 230/539/134
f 233/538/135 238/540/201 237/541/202
f 169/527/54 228/542/203 167/423/54
f 167/423/54 228/542/203 166/171/55
f 228/542/203 230/539/134 237/541/202
f 193/543/54 202/544/204 236/545/205
f 220/333/206 236/545/205 202/544/204
f 236/545/205 220/333/206 238/540/201
f 240/546/70 239/336/70 176/335/70
f 241/337/70 239/339/70 240/547/70
f 242/440/70 240/546/70 177/548/70
f 245/549/168 244/550/168 243/551/168
f 246/552/168 243/553/168 177/554/168
f 177/554/168 243/553/168 244/445/168
f 181/443/168 245/555/168 246/552/168
f 249/556/71 248/350/71 247/349/71
f 250/557/71 247/353/71 180/352/71
f 179/558/71 249/442/71 250/557/71
f 252/559/110 251/560/110 253/561/110
f 254/562/71 253/563/71 257/564/71
f 258/565/93 257/566/93 255/567/93
f 257/568/54 253/569/54 251/570/54
f 254/571/52 258/572/52 256/573/52
f 191/465/180 197/464/179 198/468/182
f 173/416/152 160/162/154 170/370/207
f 160/164/52 163/419/52 162/371/52
f 162/167/155 165/421/155 164/372/155
f 165/422/54 166/171/55 164/373/54
f 165/424/156 161/426/157 167/574/208
f 161/427/157 169/429/159 167/575/208
f 173/430/160 171/180/162 172/439/209
f 172/431/163 158/183/64 159/576/145
f 172/435/165 168/434/158 173/433/164
f 156/437/167 172/439/165 159/577/173
f 158/193/70 242/440/70 159/578/70
f 177/441/52 178/197/52 179/579/52
f 178/199/71 249/442/71 179/558/71
f 181/443/168 244/445/168 245/555/168
f 180/205/73 183/446/169 181/580/210
f 182/208/52 194/447/52 183/581/52
f 184/211/75 187/448/170 194/582/211
f 194/447/52 186/450/52 183/581/52
f 156/451/171 189/453/171 174/583/171
f 175/454/172 189/456/172 190/584/172
f 156/457/167 181/459/174 188/585/174
f 187/448/170 195/461/176 194/582/211
f 183/446/169 197/463/178 181/580/210
f 197/464/179 188/466/174 181/586/174
f 202/469/183 192/471/185 201/495/195
f 196/476/110 203/478/110 204/587/110
f 187/479/71 205/245/71 203/588/71
f 203/480/52 206/248/52 204/589/52
f 204/481/94 207/251/94 196/590/94
f 196/460/175 209/253/95 208/591/189
f 208/482/187 211/256/52 210/502/199
f 210/483/188 213/259/98 212/503/200
f 186/450/191 223/487/192 224/592/212
f 197/463/178 224/488/193 214/593/213
f 214/489/71 215/491/71 217/594/71
f 212/490/71 216/269/71 215/491/71
f 215/473/52 199/271/52 200/474/52
f 200/492/71 218/274/71 219/595/71
f 222/493/194 220/277/106 202/596/214
f 218/279/54 222/494/54 219/597/54
f 200/497/93 222/499/93 217/598/93
f 201/472/186 217/500/197 222/599/215
f 198/468/182 214/501/198 217/500/197
f 223/487/192 210/502/199 224/592/212
f 224/488/193 212/503/200 214/593/213
f 192/505/115 234/507/116 191/600/132
f 175/508/118 229/510/119 174/517/125
f 190/511/120 232/513/121 233/538/120
f 193/514/123 235/506/117 192/505/115
f 156/516/124 229/510/119 225/601/127
f 157/518/126 225/520/127 226/524/131
f 188/521/128 232/513/121 189/512/122
f 168/523/130 226/524/131 227/528/133
f 188/521/128 234/526/116 231/522/129
f 169/527/71 227/528/133 228/542/71
f 229/529/93 228/531/93 227/602/93
f 226/532/93 229/529/93 227/602/93
f 233/534/93 235/536/93 236/603/93
f 235/536/93 231/537/93 234/604/93
f 190/511/54 230/539/134 175/605/54
f 233/538/135 237/541/202 230/539/134
f 228/542/203 237/541/202 166/171/55
f 236/545/205 238/540/201 233/538/135
f 240/546/70 176/335/70 177/548/70
f 241/337/70 240/547/70 242/606/70
f 242/440/70 177/548/70 159/578/70
f 245/549/168 243/551/168 246/607/168
f 246/552/168 177/554/168 179/608/168
f 177/554/168 244/445/168 159/444/168
f 181/443/168 246/552/168 179/608/168
f 249/556/71 247/349/71 250/609/71
f 250/557/71 180/352/71 181/610/71
f 179/558/71 250/557/71 181/610/71
f 252/559/110 253/561/110 254/611/110
f 254/562/71 257/564/71 258/612/71
f 258/565/93 255/567/93 256/613/93
f 257/568/54 251/570/54 255/614/54
f 254/571/52 256/573/52 252/615/52
