texture textures/cars.png
v 0.290940 0.302588 0.435821
v 0.412524 0.302588 0.435821
v 0.290940 0.244737 0.356197
v 0.412524 0.244737 0.356197
v 0.290940 0.151133 0.325783
v 0.412524 0.151133 0.325783
v 0.290940 0.057530 0.356197
v 0.412524 0.057530 0.356197
v 0.290940 -0.000321 0.435821
v 0.412524 -0.000321 0.435821
v 0.290940 -0.000321 0.534242
v 0.412524 -0.000321 0.534242
v 0.290940 0.057530 0.613866
v 0.412524 0.057530 0.613866
v 0.290940 0.151133 0.644280
v 0.412524 0.151133 0.644280
v 0.290940 0.244737 0.613866
v 0.412524 0.244737 0.613866
v 0.290940 0.302588 0.534242
v 0.412524 0.302588 0.534242
vt 0.524372 0.971647
vt 0.612156 0.959848
vt 0.524372 0.959848
vt 0.612156 0.940757
vt 0.524372 0.940757
vt 0.524372 0.921665
vt 0.612156 0.921665
vt 0.524372 0.909866
vt 0.612156 0.909866
vt 0.524372 0.909866
vt 0.612156 0.909866
vt 0.524372 0.921665
vt 0.612156 0.921665
vt 0.524372 0.940757
vt 0.612156 0.940757
vt 0.524372 0.959848
vt 0.612156 0.959848
vt 0.524372 0.971647
vt 0.612156 0.971647
vt 0.512421 0.891662
vt 0.519896 0.891662
vt 0.518469 0.897068
vt 0.250082 0.022727
vt 0.383670 0.433867
vt 0.033933 0.179769
vt 0.612156 0.971647
vt 0.516159 0.897992
vt 0.513849 0.897068
vt 0.512421 0.894650
vt 0.513849 0.889244
vt 0.516159 0.888320
vt 0.518469 0.889244
vt 0.519896 0.894650
vt 0.116495 0.433868
vt 0.033933 0.320231
vt 0.116495 0.066133
vt 0.383670 0.066133
vt 0.466232 0.179769
vt 0.466232 0.320231
vt 0.250082 0.477273
vn 0.0000 0.9511 -0.3090
vn 0.0000 0.5878 -0.8090
vn 0.0000 0.0000 -1.0000
vn 0.0000 -0.5878 -0.8090
vn 0.0000 -0.9511 -0.3090
vn 0.0000 -0.9511 0.3090
vn 0.0000 -0.5878 0.8090
vn 0.0000 -0.0000 1.0000
vn 0.0000 0.5878 0.8090
vn 0.0000 0.9511 0.3090
vn -1.0000 -0.0000 0.0000
vn 1.0000 -0.0000 0.0000
s 1
f 1/1/1 4/2/2 3/3/2
f 3/3/2 6/4/3 5/5/3
f 6/4/3 7/6/4 5/5/3
f 8/7/4 9/8/5 7/6/4
f 10/9/5 11/10/6 9/8/5
f 12/11/6 13/12/7 11/10/6
f 14/13/7 15/14/8 13/12/7
f 16/15/8 17/16/9 15/14/8
f 18/17/9 19/18/10 17/16/9
f 20/19/10 1/1/1 19/18/10
f 7/20/11 15/21/11 19/22/11
f 18/23/12 10/24/12 2/25/12
f 1/1/1 2/26/1 4/2/2
f 3/3/2 4/2/2 6/4/3
f 6/4/3 8/7/4 7/6/4
f 8/7/4 10/9/5 9/8/5
f 10/9/5 12/11/6 11/10/6
f 12/11/6 14/13/7 13/12/7
f 14/13/7 16/15/8 15/14/8
f 16/15/8 18/17/9 17/16/9
f 18/17/9 20/19/10 19/18/10
f 20/19/10 2/26/1 1/1/1
f 19/22/11 1/27/11 3/28/11
f 3/28/11 5/29/11 7/20/11
f 7/20/11 9/30/11 11/31/11
f 11/31/11 13/32/11 15/21/11
f 15/21/11 17/33/11 19/22/11
f 19/22/11 3/28/11 7/20/11
f 7/20/11 11/31/11 15/21/11
f 6/34/12 4/35/12 2/25/12
f 2/25/12 20/36/12 18/23/12
f 18/23/12 16/37/12 14/38/12
f 14/38/12 12/39/12 10/24/12
f 10/24/12 8/40/12 6/34/12
f 6/34/12 2/25/12 10/24/12
f 18/23/12 14/38/12 10/24/12
o RLW_Cylinder.005
v 0.291965 0.302588 -0.564298
v 0.422542 0.302588 -0.564298
v 0.291965 0.244737 -0.643922
v 0.422542 0.244737 -0.643922
v 0.291965 0.151134 -0.674336
v 0.422542 0.151134 -0.674336
v 0.291965 0.057530 -0.643923
v 0.422542 0.057530 -0.643923
v 0.291965 -0.000321 -0.564298
v 0.422542 -0.000321 -0.564298
v 0.291965 -0.000321 -0.465877
v 0.422542 -0.000321 -0.465877
v 0.291965 0.057530 -0.386253
v 0.422542 0.057530 -0.386253
v 0.291965 0.151134 -0.355840
v 0.422542 0.151134 -0.355840
v 0.291965 0.244737 -0.386253
v 0.422542 0.244737 -0.386253
v 0.291965 0.302588 -0.465877
v 0.422542 0.302588 -0.465878
vt 0.524372 0.971647
vt 0.612156 0.959848
vt 0.524372 0.959848
vt 0.612156 0.940757
vt 0.524372 0.940757
vt 0.524372 0.921665
vt 0.612156 0.909866
vt 0.524372 0.909866
vt 0.612156 0.909866
vt 0.524372 0.909866
vt 0.524372 0.921665
vt 0.612156 0.921665
vt 0.524372 0.940757
vt 0.612156 0.940757
vt 0.524372 0.959848
vt 0.612156 0.959848
vt 0.524372 0.971647
vt 0.612156 0.971647
vt 0.512421 0.891662
vt 0.519896 0.891662
vt 0.518469 0.897068
vt 0.250082 0.022727
vt 0.383670 0.433867
vt 0.033933 0.179769
vt 0.612156 0.971647
vt 0.612156 0.921665
vt 0.516159 0.897992
vt 0.513849 0.897068
vt 0.512421 0.894650
vt 0.513849 0.889244
vt 0.516159 0.888320
vt 0.518469 0.889244
vt 0.519896 0.894650
vt 0.116495 0.433868
vt 0.033933 0.320231
vt 0.116495 0.066133
vt 0.383670 0.066133
vt 0.466232 0.179769
vt 0.466232 0.320231
vt 0.250082 0.477273
vn 0.0000 0.9511 -0.3090
vn 0.0000 0.5878 -0.8090
vn 0.0000 0.0000 -1.0000
vn 0.0000 -0.5878 -0.8090
vn 0.0000 -0.9511 -0.3090
vn 0.0000 -0.9511 0.3090
vn 0.0000 -0.5878 0.8090
vn 0.0000 -0.0000 1.0000
vn 0.0000 0.5878 0.8090
vn 0.0000 0.9511 0.3090
vn -1.0000 0.0000 0.0000
vn 1.0000 0.0000 -0.0000
s 1
f 21/41/13 24/42/14 23/43/14
f 23/43/14 26/44/15 25/45/15
f 26/44/15 27/46/16 25/45/15
f 27/46/16 30/47/17 29/48/17
f 29/48/17 32/49/18 31/50/18
f 32/49/18 33/51/19 31/50/18
f 34/52/19 35/53/20 33/51/19
f 36/54/20 37/55/21 35/53/20
f 38/56/21 39/57/22 37/55/21
f 40/58/22 21/41/13 39/57/22
f 27/59/23 35/60/23 39/61/23
f 38/62/24 30/63/24 22/64/24
f 21/41/13 22/65/13 24/42/14
f 23/43/14 24/42/14 26/44/15
f 26/44/15 28/66/16 27/46/16
f 27/46/16 28/66/16 30/47/17
f 29/48/17 30/47/17 32/49/18
f 32/49/18 34/52/19 33/51/19
f 34/52/19 36/54/20 35/53/20
f 36/54/20 38/56/21 37/55/21
f 38/56/21 40/58/22 39/57/22
f 40/58/22 22/65/13 21/41/13
f 39/61/23 21/67/23 27/59/23
f 23/68/23 25/69/23 27/59/23
f 27/59/23 29/70/23 31/71/23
f 31/71/23 33/72/23 27/59/23
f 35/60/23 37/73/23 39/61/23
f 21/67/23 23/68/23 27/59/23
f 27/59/23 33/72/23 35/60/23
f 26/74/24 24/75/24 22/64/24
f 22/64/24 40/76/24 38/62/24
f 38/62/24 36/77/24 34/78/24
f 34/78/24 32/79/24 30/63/24
f 30/63/24 28/80/24 26/74/24
f 26/74/24 22/64/24 30/63/24
f 38/62/24 34/78/24 30/63/24
o RRW_Cylinder.006
v -0.291965 0.302588 -0.465877
v -0.422542 0.302588 -0.465877
v -0.291965 0.244737 -0.386253
v -0.422542 0.244737 -0.386253
v -0.291965 0.151134 -0.355840
v -0.422542 0.151134 -0.355840
v -0.291965 0.057530 -0.386253
v -0.422542 0.057530 -0.386253
v -0.291965 -0.000321 -0.465878
v -0.422542 -0.000321 -0.465878
v -0.291965 -0.000321 -0.564298
v -0.422542 -0.000321 -0.564298
v -0.291965 0.057530 -0.643923
v -0.422542 0.057530 -0.643923
v -0.291965 0.151134 -0.674336
v -0.422542 0.151134 -0.674336
v -0.291965 0.244737 -0.643922
v -0.422542 0.244737 -0.643922
v -0.291965 0.302588 -0.564298
v -0.422542 0.302588 -0.564298
vt 0.612156 0.971647
vt 0.524372 0.959848
vt 0.524372 0.971647
vt 0.612156 0.940757
vt 0.524372 0.940757
vt 0.612156 0.921665
vt 0.524372 0.921665
vt 0.524372 0.909866
vt 0.612156 0.909866
vt 0.524372 0.909866
vt 0.612156 0.909866
vt 0.524372 0.921665
vt 0.612156 0.921665
vt 0.524372 0.940757
vt 0.612156 0.940757
vt 0.524372 0.959848
vt 0.612156 0.959848
vt 0.524372 0.971647
vt 0.612156 0.971647
vt 0.512421 0.891662
vt 0.519896 0.891662
vt 0.518469 0.897068
vt 0.250082 0.022727
vt 0.383670 0.433867
vt 0.033933 0.179769
vt 0.612156 0.959848
vt 0.516159 0.897992
vt 0.513849 0.897068
vt 0.512421 0.894650
vt 0.513849 0.889244
vt 0.516159 0.888320
vt 0.518469 0.889244
vt 0.519896 0.894650
vt 0.116495 0.433868
vt 0.033933 0.320231
vt 0.116495 0.066133
vt 0.383670 0.066133
vt 0.466232 0.179769
vt 0.466232 0.320231
vt 0.250082 0.477273
vn 0.0000 0.9511 0.3090
vn 0.0000 0.5878 0.8090
vn 0.0000 -0.0000 1.0000
vn 0.0000 -0.5878 0.8090
vn 0.0000 -0.9511 0.3090
vn 0.0000 -0.9511 -0.3090
vn 0.0000 -0.5878 -0.8090
vn 0.0000 0.0000 -1.0000
vn 0.0000 0.5878 -0.8090
vn 0.0000 0.9511 -0.3090
vn 1.0000 0.0000 -0.0000
vn -1.0000 0.0000 0.0000
s 1
f 42/81/25 43/82/26 41/83/25
f 43/82/26 46/84/27 45/85/27
f 45/85/27 48/86/28 47/87/28
f 48/86/28 49/88/29 47/87/28
f 50/89/29 51/90/30 49/88/29
f 52/91/30 53/92/31 51/90/30
f 54/93/31 55/94/32 53/92/31
f 56/95/32 57/96/33 55/94/32
f 58/97/33 59/98/34 57/96/33
f 60/99/34 41/83/25 59/98/34
f 47/100/35 55/101/35 59/102/35
f 58/103/36 50/104/36 42/105/36
f 42/81/25 44/106/26 43/82/26
f 43/82/26 44/106/26 46/84/27
f 45/85/27 46/84/27 48/86/28
f 48/86/28 50/89/29 49/88/29
f 50/89/29 52/91/30 51/90/30
f 52/91/30 54/93/31 53/92/31
f 54/93/31 56/95/32 55/94/32
f 56/95/32 58/97/33 57/96/33
f 58/97/33 60/99/34 59/98/34
f 60/99/34 42/81/25 41/83/25
f 59/102/35 41/107/35 47/100/35
f 43/108/35 45/109/35 47/100/35
f 47/100/35 49/110/35 51/111/35
f 51/111/35 53/112/35 47/100/35
f 55/101/35 57/113/35 59/102/35
f 41/107/35 43/108/35 47/100/35
f 47/100/35 53/112/35 55/101/35
f 46/114/36 44/115/36 42/105/36
f 42/105/36 60/116/36 58/103/36
f 58/103/36 56/117/36 54/118/36
f 54/118/36 52/119/36 50/104/36
f 50/104/36 48/120/36 46/114/36
f 46/114/36 42/105/36 50/104/36
f 58/103/36 54/118/36 50/104/36
o FRW_Cylinder.007
v -0.290940 0.302588 0.534242
v -0.412524 0.302588 0.534242
v -0.290940 0.244737 0.613866
v -0.412524 0.244737 0.613866
v -0.290940 0.151133 0.644280
v -0.412524 0.151133 0.644280
v -0.290940 0.057530 0.613866
v -0.412524 0.057530 0.613866
v -0.290940 -0.000321 0.534242
v -0.412524 -0.000321 0.534242
v -0.290940 -0.000321 0.435821
v -0.412524 -0.000321 0.435821
v -0.290940 0.057530 0.356197
v -0.412524 0.057530 0.356197
v -0.290940 0.151133 0.325783
v -0.412524 0.151133 0.325783
v -0.290940 0.244737 0.356197
v -0.412524 0.244737 0.356197
v -0.290940 0.302588 0.435821
v -0.412524 0.302588 0.435821
vt 0.524372 0.971647
vt 0.612156 0.959848
vt 0.524372 0.959848
vt 0.612156 0.940757
vt 0.524372 0.940757
vt 0.612156 0.921665
vt 0.524372 0.921665
vt 0.612156 0.909866
vt 0.524372 0.909866
vt 0.524372 0.909866
vt 0.612156 0.909866
vt 0.524372 0.921665
vt 0.612156 0.921665
vt 0.524372 0.940757
vt 0.612156 0.940757
vt 0.524372 0.959848
vt 0.612156 0.959848
vt 0.524372 0.971647
vt 0.612156 0.971647
vt 0.512421 0.891662
vt 0.519896 0.891662
vt 0.518469 0.897068
vt 0.250082 0.022727
vt 0.383670 0.433867
vt 0.033933 0.179769
vt 0.612156 0.971647
vt 0.516159 0.897992
vt 0.513849 0.897068
vt 0.512421 0.894650
vt 0.513849 0.889244
vt 0.516159 0.888320
vt 0.518469 0.889244
vt 0.519896 0.894650
vt 0.116495 0.433868
vt 0.033933 0.320231
vt 0.116495 0.066133
vt 0.383670 0.066133
vt 0.466232 0.179769
vt 0.466232 0.320231
vt 0.250082 0.477273
vn 0.0000 0.9511 0.3090
vn 0.0000 0.5878 0.8090
vn 0.0000 -0.0000 1.0000
vn 0.0000 -0.5878 0.8090
vn 0.0000 -0.9511 0.3090
vn 0.0000 -0.9511 -0.3090
vn 0.0000 -0.5878 -0.8090
vn -0.0000 0.0000 -1.0000
vn 0.0000 0.5878 -0.8090
vn 0.0000 0.9511 -0.3090
vn 1.0000 0.0000 0.0000
vn -1.0000 0.0000 -0.0000
s 1
f 61/121/37 64/122/38 63/123/38
f 63/123/38 66/124/39 65/125/39
f 65/125/39 68/126/40 67/127/40
f 67/127/40 70/128/41 69/129/41
f 70/128/41 71/130/42 69/129/41
f 72/131/42 73/132/43 71/130/42
f 74/133/43 75/134/44 73/132/43
f 76/135/44 77/136/45 75/134/44
f 78/137/45 79/138/46 77/136/45
f 80/139/46 61/121/37 79/138/46
f 67/140/47 75/141/47 79/142/47
f 78/143/48 70/144/48 62/145/48
f 61/121/37 62/146/37 64/122/38
f 63/123/38 64/122/38 66/124/39
f 65/125/39 66/124/39 68/126/40
f 67/127/40 68/126/40 70/128/41
f 70/128/41 72/131/42 71/130/42
f 72/131/42 74/133/43 73/132/43
f 74/133/43 76/135/44 75/134/44
f 76/135/44 78/137/45 77/136/45
f 78/137/45 80/139/46 79/138/46
f 80/139/46 62/146/37 61/121/37
f 79/142/47 61/147/47 67/140/47
f 63/148/47 65/149/47 67/140/47
f 67/140/47 69/150/47 71/151/47
f 71/151/47 73/152/47 75/141/47
f 75/141/47 77/153/47 79/142/47
f 61/147/47 63/148/47 67/140/47
f 67/140/47 71/151/47 75/141/47
f 66/154/48 64/155/48 62/145/48
f 62/145/48 80/156/48 78/143/48
f 78/143/48 76/157/48 74/158/48
f 74/158/48 72/159/48 70/144/48
f 70/144/48 68/160/48 66/154/48
f 66/154/48 62/145/48 70/144/48
f 78/143/48 74/158/48 70/144/48
o Body_Plane.000
v 0.327763 0.384890 0.929809
v 0.355622 0.442937 0.302572
v 0.326519 0.353197 0.949427
v 0.293943 0.177492 0.905774
v 0.326519 0.131183 0.688962
v 0.391886 0.287926 0.780293
v 0.415514 0.243800 0.305282
v 0.415514 0.320460 0.542012
v 0.415514 0.320459 0.425999
v 0.401576 0.251850 0.647266
v 0.366741 0.120921 0.270791
v 0.241320 0.630037 0.088257
v 0.241320 0.618130 -0.370988
v 0.355622 0.492263 -0.686403
v 0.300079 0.501081 -0.912719
v 0.331286 0.477470 -0.949458
v 0.355622 0.322419 -0.900472
v 0.355622 0.154977 -0.724938
v 0.394302 0.457168 -0.366973
v 0.415514 0.243801 -0.364263
v 0.366741 0.120921 -0.313708
v 0.415514 0.319633 -0.465845
v 0.415514 0.319633 -0.574514
v 0.409818 0.256085 -0.665702
v 0.268841 0.131183 0.688962
v 0.268841 0.243800 0.305282
v 0.268841 0.320460 0.542012
v 0.268841 0.320459 0.425999
v 0.268841 0.251850 0.647266
v 0.268841 0.107301 0.270791
v 0.270612 0.154977 -0.724938
v 0.270612 0.243801 -0.364263
v 0.270612 0.107301 -0.313708
v 0.270612 0.319633 -0.465845
v 0.270612 0.319633 -0.574514
v 0.270612 0.256085 -0.665702
v 0.398697 0.415863 0.303134
v 0.360820 0.361390 0.812574
v 0.388021 0.471294 -0.683220
v 0.230993 0.613754 0.106909
v 0.326946 0.458392 0.284868
v 0.230736 0.608166 -0.395960
v 0.323166 0.503380 -0.658545
v 0.251956 0.611948 0.081991
v 0.250503 0.607248 -0.193743
v 0.343540 0.482658 -0.193744
v 0.344242 0.460764 0.250408
v 0.252908 0.604768 -0.244530
v 0.254503 0.603462 -0.367252
v 0.341156 0.507503 -0.607475
v 0.343214 0.486055 -0.250314
v 0.308805 0.339038 0.945344
v 0.287425 0.214140 0.915287
v 0.314431 0.453392 -0.942022
v 0.331824 0.346862 -0.908360
v 0.322292 0.143695 0.796797
v 0.000000 0.368175 0.942964
v -0.327763 0.384890 0.929809
v 0.000000 0.442937 0.302572
v -0.355622 0.442937 0.302572
v 0.000000 0.338910 0.962583
v -0.326519 0.353197 0.949427
v 0.000000 0.162032 0.918929
v -0.293943 0.177492 0.905774
v 0.000000 0.131183 0.688962
v -0.326519 0.131183 0.688962
v -0.391886 0.287926 0.780293
v -0.415514 0.243800 0.305282
v -0.415514 0.320460 0.542012
v -0.415514 0.320459 0.425999
v -0.401576 0.251850 0.647266
v 0.000000 0.630037 0.088257
v -0.366741 0.120921 0.270791
v -0.241320 0.630037 0.088257
v 0.000000 0.618130 -0.370988
v -0.241320 0.618130 -0.370988
v 0.000000 0.492263 -0.686403
v -0.355622 0.492263 -0.686403
v 0.000000 0.501081 -0.912719
v -0.300079 0.501081 -0.912719
v 0.000000 0.468756 -0.949458
v -0.331286 0.477470 -0.949458
v 0.000000 0.322419 -0.900472
v -0.355622 0.322419 -0.900472
v 0.000000 0.154977 -0.724938
v -0.355622 0.154977 -0.724938
v -0.394302 0.457168 -0.366973
v -0.415514 0.243801 -0.364263
v -0.366741 0.120921 -0.313708
v -0.415514 0.319633 -0.465845
v -0.415514 0.319633 -0.574514
v -0.409818 0.256085 -0.665702
v -0.268841 0.131183 0.688962
v -0.268841 0.243800 0.305282
v -0.268841 0.320460 0.542012
v -0.268841 0.320459 0.425999
v -0.268841 0.251850 0.647266
v -0.268841 0.107301 0.270791
v -0.270612 0.154977 -0.724938
v -0.270612 0.243801 -0.364263
v -0.270612 0.107301 -0.313708
v -0.270612 0.319633 -0.465845
v -0.270612 0.319633 -0.574514
v -0.270612 0.256085 -0.665702
v 0.000000 0.107301 0.270791
v 0.000000 0.107301 -0.313708
v -0.398697 0.415863 0.303134
v -0.360820 0.361390 0.812574
v -0.388021 0.471294 -0.683220
v 0.000000 0.613754 0.106909
v -0.230993 0.613754 0.106909
v 0.000000 0.458392 0.284868
v -0.326946 0.458392 0.284868
v 0.000000 0.608165 -0.395962
v -0.230736 0.608166 -0.395960
v 0.000000 0.503379 -0.658546
v -0.323166 0.503380 -0.658545
v -0.251956 0.611948 0.081991
v -0.250503 0.607248 -0.193743
v -0.343540 0.482658 -0.193744
v -0.344242 0.460764 0.250408
v -0.252908 0.604768 -0.244530
v -0.254503 0.603462 -0.367252
v -0.341156 0.507503 -0.607475
v -0.343214 0.486055 -0.250314
v 0.000000 0.324751 0.958499
v -0.308805 0.339038 0.945344
v 0.000000 0.197948 0.928442
v -0.287425 0.214140 0.915287
v 0.000000 0.345775 -0.908291
v 0.000000 0.444696 -0.941404
v -0.314431 0.453392 -0.942022
v -0.331824 0.346862 -0.908360
v -0.322292 0.143695 0.796797
v -0.114315 0.369580 0.660218
v -0.114315 0.369580 0.431589
v 0.114315 0.369580 0.660218
v 0.114315 0.369580 0.431589
v -0.087287 0.465889 0.633191
v -0.114315 0.454504 0.660218
v -0.087287 0.465889 0.458616
v -0.114315 0.454504 0.431589
v 0.087287 0.465889 0.633191
v 0.114315 0.454504 0.660218
v 0.087287 0.465889 0.458616
v 0.114315 0.454504 0.431589
v 0.000000 0.369580 0.692567
v 0.000000 0.465889 0.657928
v 0.000000 0.454504 0.692567
v 0.013491 0.203304 -0.728399
v 0.013491 0.265159 -0.728399
v 0.013491 0.203304 -0.870488
v 0.013491 0.265159 -0.870488
v 0.075346 0.203304 -0.728399
v 0.075346 0.265159 -0.728399
v 0.075346 0.203304 -0.870488
v 0.075346 0.265159 -0.870488
v -0.013963 0.203304 -0.728399
v -0.013963 0.265159 -0.728399
v -0.013963 0.203304 -0.870488
v -0.013963 0.265159 -0.870488
v -0.075818 0.203304 -0.728399
v -0.075818 0.265159 -0.728399
v -0.075818 0.203304 -0.870488
v -0.075818 0.265159 -0.870488
vt 0.514614 0.065578
vt 0.507532 0.069491
vt 0.507532 0.066036
vt 0.519509 0.075111
vt 0.519754 0.075099
vt 0.519750 0.075114
vt 0.544496 0.076445
vt 0.544112 0.075172
vt 0.544204 0.075037
vt 0.293892 0.908151
vt 0.293873 0.907991
vt 0.293904 0.908071
vt 0.519388 0.074615
vt 0.519391 0.074600
vt 0.519416 0.074703
vt 0.518492 0.075237
vt 0.518462 0.075056
vt 0.518490 0.075153
vt 0.518446 0.075037
vt 0.518467 0.075421
vt 0.518492 0.075323
vt 0.518828 0.076358
vt 0.518803 0.076334
vt 0.518860 0.076235
vt 0.518827 0.076174
vt 0.518815 0.076254
vt 0.523157 0.069491
vt 0.530248 0.069588
vt 0.523157 0.069588
vt 0.512766 0.070667
vt 0.507532 0.073188
vt 0.507532 0.070667
vt 0.523157 0.073188
vt 0.528162 0.073325
vt 0.523157 0.073325
vt 0.507532 0.074920
vt 0.514041 0.076162
vt 0.507532 0.076162
vt 0.529666 0.076162
vt 0.523157 0.076364
vt 0.523157 0.076162
vt 0.528742 0.075429
vt 0.528978 0.075436
vt 0.528742 0.075437
vt 0.550103 0.076009
vt 0.550306 0.076148
vt 0.550103 0.076148
vt 0.534693 0.075837
vt 0.534680 0.075380
vt 0.534693 0.075399
vt 0.535028 0.075085
vt 0.535029 0.074945
vt 0.535069 0.075125
vt 0.518459 0.075925
vt 0.518501 0.075910
vt 0.518492 0.075991
vt 0.518447 0.076316
vt 0.518492 0.076072
vt 0.518495 0.076136
vt 0.518410 0.076362
vt 0.518453 0.076163
vt 0.519354 0.076002
vt 0.519422 0.075830
vt 0.519380 0.076029
vt 0.519429 0.075592
vt 0.519402 0.075090
vt 0.519437 0.075088
vt 0.293983 0.907241
vt 0.293875 0.907197
vt 0.293984 0.907197
vt 0.293938 0.906931
vt 0.293875 0.906971
vt 0.293875 0.906931
vt 0.293916 0.907991
vt 0.293874 0.907954
vt 0.293973 0.907954
vt 0.293983 0.907678
vt 0.293874 0.907699
vt 0.293873 0.907679
vt 0.293875 0.907117
vt 0.293984 0.907117
vt 0.293874 0.907872
vt 0.293984 0.907872
vt 0.293874 0.907785
vt 0.293984 0.907785
vt 0.293875 0.907036
vt 0.293984 0.907036
vt 0.293984 0.907699
vt 0.293979 0.906971
vt 0.294075 0.906746
vt 0.294061 0.907039
vt 0.294062 0.906784
vt 0.294052 0.906953
vt 0.294060 0.907171
vt 0.294073 0.907436
vt 0.294063 0.907397
vt 0.294052 0.907252
vt 0.293874 0.907241
vt 0.550370 0.076009
vt 0.550370 0.076148
vt 0.293671 0.908151
vt 0.293671 0.907991
vt 0.293671 0.907241
vt 0.293671 0.907679
vt 0.518501 0.075409
vt 0.518422 0.074933
vt 0.569491 0.072707
vt 0.581267 0.063152
vt 0.581267 0.075078
vt 0.519396 0.075833
vt 0.519383 0.075775
vt 0.519387 0.075506
vt 0.528167 0.070565
vt 0.523157 0.070667
vt 0.523157 0.070565
vt 0.986557 0.882122
vt 0.989476 0.994528
vt 0.986557 0.994528
vt 0.528391 0.070667
vt 0.977099 0.993813
vt 0.979527 0.884985
vt 0.979527 0.993812
vt 0.530166 0.074767
vt 0.523157 0.074920
vt 0.523157 0.074767
vt 0.934997 0.899543
vt 0.933894 0.994057
vt 0.933221 0.883538
vt 0.519304 0.075264
vt 0.519304 0.075470
vt 0.519294 0.075261
vt 0.519391 0.075130
vt 0.519388 0.075463
vt 0.519306 0.075508
vt 0.935223 0.902026
vt 0.935691 0.987853
vt 0.935200 0.988808
vt 0.519296 0.075603
vt 0.519307 0.075600
vt 0.544337 0.076314
vt 0.541576 0.076445
vt 0.541576 0.076314
vt 0.616602 0.049629
vt 0.595199 0.059263
vt 0.595199 0.049629
vt 0.541576 0.075037
vt 0.505738 0.058908
vt 0.535808 0.048693
vt 0.535776 0.058908
vt 0.528991 0.075429
vt 0.528991 0.075467
vt 0.528741 0.075474
vt 0.528742 0.075467
vt 0.528391 0.073188
vt 0.530870 0.074920
vt 0.514614 0.065578
vt 0.519754 0.075099
vt 0.519750 0.075114
vt 0.544496 0.076445
vt 0.544112 0.075172
vt 0.544337 0.076314
vt 0.293892 0.908151
vt 0.293873 0.907991
vt 0.519388 0.074615
vt 0.519416 0.074703
vt 0.519391 0.074600
vt 0.518492 0.075237
vt 0.518490 0.075153
vt 0.518462 0.075056
vt 0.518446 0.075037
vt 0.518467 0.075421
vt 0.518492 0.075323
vt 0.518828 0.076358
vt 0.518860 0.076235
vt 0.518803 0.076334
vt 0.518827 0.076174
vt 0.518884 0.076138
vt 0.530248 0.069588
vt 0.530870 0.069491
vt 0.512766 0.070667
vt 0.528162 0.073325
vt 0.528391 0.073188
vt 0.514041 0.076162
vt 0.515245 0.074920
vt 0.529666 0.076162
vt 0.528978 0.075436
vt 0.528991 0.075429
vt 0.550306 0.076148
vt 0.534680 0.075380
vt 0.534693 0.075837
vt 0.534693 0.075399
vt 0.535028 0.075085
vt 0.535069 0.075125
vt 0.535029 0.074945
vt 0.518459 0.075925
vt 0.518492 0.075991
vt 0.518501 0.075910
vt 0.518447 0.076316
vt 0.518492 0.076072
vt 0.518410 0.076362
vt 0.518453 0.076163
vt 0.519354 0.076002
vt 0.519422 0.075830
vt 0.519396 0.075833
vt 0.519402 0.075090
vt 0.519429 0.075592
vt 0.519437 0.075088
vt 0.293875 0.907197
vt 0.293983 0.907241
vt 0.293984 0.907197
vt 0.293938 0.906931
vt 0.293875 0.906971
vt 0.293979 0.906971
vt 0.293874 0.907954
vt 0.293916 0.907991
vt 0.293973 0.907954
vt 0.293983 0.907678
vt 0.293874 0.907699
vt 0.293984 0.907699
vt 0.293875 0.907117
vt 0.293984 0.907117
vt 0.293874 0.907872
vt 0.293984 0.907872
vt 0.293874 0.907785
vt 0.293984 0.907785
vt 0.293875 0.907036
vt 0.293984 0.907036
vt 0.294075 0.906746
vt 0.294061 0.907039
vt 0.294075 0.907058
vt 0.294062 0.906784
vt 0.294052 0.906953
vt 0.294060 0.907171
vt 0.294073 0.907436
vt 0.294073 0.907126
vt 0.294052 0.907252
vt 0.294063 0.907397
vt 0.293874 0.907241
vt 0.293873 0.907679
vt 0.550370 0.076009
vt 0.293875 0.906931
vt 0.293671 0.906931
vt 0.518501 0.075409
vt 0.518422 0.074933
vt 0.581267 0.063152
vt 0.569491 0.072707
vt 0.581267 0.075078
vt 0.519387 0.075506
vt 0.519383 0.075775
vt 0.528167 0.070565
vt 0.989476 0.994528
vt 0.990688 0.882122
vt 0.528391 0.070667
vt 0.977099 0.993813
vt 0.530166 0.074767
vt 0.933894 0.994057
vt 0.934997 0.899543
vt 0.933221 0.883538
vt 0.519304 0.075264
vt 0.519294 0.075261
vt 0.519304 0.075470
vt 0.519391 0.075130
vt 0.519388 0.075463
vt 0.519306 0.075508
vt 0.935223 0.902026
vt 0.935691 0.987853
vt 0.936651 0.917705
vt 0.519296 0.075603
vt 0.519307 0.075600
vt 0.616602 0.049629
vt 0.544204 0.075037
vt 0.505738 0.058908
vt 0.528991 0.075467
vt 0.529008 0.075474
vt 0.530870 0.074920
vt 0.518815 0.076254
vt 0.293904 0.908071
vt 0.355751 0.919756
vt 0.355751 0.919441
vt 0.355917 0.919397
vt 0.264433 0.892827
vt 0.264818 0.892391
vt 0.264818 0.892827
vt 0.264913 0.892286
vt 0.265297 0.891850
vt 0.265297 0.892286
vt 0.264382 0.892347
vt 0.264600 0.891850
vt 0.264818 0.892347
vt 0.264433 0.893306
vt 0.264818 0.892870
vt 0.264818 0.893306
vt 0.356658 0.919578
vt 0.356710 0.919194
vt 0.356710 0.919629
vt 0.356179 0.920266
vt 0.356230 0.920650
vt 0.356179 0.920599
vt 0.356179 0.919786
vt 0.356230 0.920171
vt 0.356179 0.920119
vt 0.355917 0.919318
vt 0.264120 0.891974
vt 0.263902 0.891908
vt 0.264120 0.891850
vt 0.264338 0.892032
vt 0.264338 0.891908
vt 0.356084 0.919441
vt 0.356135 0.919376
vt 0.264818 0.891912
vt 0.356084 0.919756
vt 0.302833 0.984937
vt 0.307698 0.980072
vt 0.307698 0.984937
vt 0.236306 0.951208
vt 0.248159 0.939354
vt 0.248159 0.951208
vt 0.297482 0.984937
vt 0.302347 0.980072
vt 0.302347 0.984937
vt 0.297482 0.995640
vt 0.302347 0.990775
vt 0.302347 0.995640
vt 0.307698 0.990289
vt 0.302833 0.985424
vt 0.307698 0.985424
vt 0.307698 0.980072
vt 0.302833 0.984937
vt 0.307698 0.984937
vt 0.248159 0.939354
vt 0.236306 0.951208
vt 0.248159 0.951208
vt 0.302347 0.980072
vt 0.297482 0.984937
vt 0.302347 0.984937
vt 0.302347 0.990775
vt 0.297482 0.995640
vt 0.302347 0.995640
vt 0.302833 0.985424
vt 0.307698 0.990289
vt 0.307698 0.985424
vt 0.515245 0.069491
vt 0.519512 0.075096
vt 0.518884 0.076138
vt 0.530870 0.069491
vt 0.512766 0.073188
vt 0.515245 0.074920
vt 0.530342 0.076364
vt 0.534680 0.075881
vt 0.294075 0.907058
vt 0.294053 0.906866
vt 0.294073 0.907126
vt 0.294054 0.907333
vt 0.569491 0.063152
vt 0.990688 0.882122
vt 0.976126 0.884985
vt 0.934997 0.990621
vt 0.936651 0.917705
vt 0.618502 0.059263
vt 0.541576 0.075172
vt 0.504111 0.048693
vt 0.529008 0.075474
vt 0.515245 0.069491
vt 0.512766 0.073188
vt 0.530342 0.076364
vt 0.534680 0.075881
vt 0.518495 0.076136
vt 0.519380 0.076029
vt 0.294053 0.906866
vt 0.294054 0.907333
vt 0.550370 0.076148
vt 0.569491 0.063152
vt 0.976126 0.884985
vt 0.934997 0.990621
vt 0.935200 0.988808
vt 0.618502 0.059263
vt 0.504111 0.048693
vt 0.264433 0.892391
vt 0.264913 0.891850
vt 0.264382 0.891912
vt 0.264433 0.892870
vt 0.356658 0.919245
vt 0.356230 0.919735
vt 0.355699 0.919376
vt 0.263902 0.892032
vt 0.302833 0.980072
vt 0.236306 0.939354
vt 0.297482 0.980072
vt 0.297482 0.990775
vt 0.302833 0.990289
vt 0.302833 0.980072
vt 0.236306 0.939354
vt 0.297482 0.980072
vt 0.297482 0.990775
vt 0.302833 0.990289
vn -0.0315 0.9936 0.1084
vn 0.0000 0.9950 0.0994
vn 0.0000 0.9933 0.1160
vn 0.0090 0.5547 0.8320
vn 0.0074 0.5281 0.8491
vn 0.0073 0.5261 0.8504
vn 0.0083 -0.2825 0.9592
vn 0.0425 -0.2430 0.9691
vn 0.0509 -0.2424 0.9688
vn 0.0006 -0.9780 0.2088
vn -0.0087 -0.9871 0.1596
vn -0.2019 -0.9564 0.2111
vn 0.9515 0.2016 0.2323
vn 0.9618 0.1158 0.2480
vn 0.8414 0.5239 0.1322
vn 0.9314 0.3494 0.1023
vn 0.9695 -0.0649 0.2365
vn 0.9646 -0.2282 0.1321
vn 0.9277 0.3124 0.2044
vn 0.9903 0.1387 -0.0064
vn 0.9888 0.1481 -0.0203
vn 0.9103 -0.1173 0.3971
vn 0.8627 -0.3205 0.3913
vn 0.8852 -0.4461 0.1320
vn 0.8893 -0.4048 0.2128
vn 0.0000 0.7533 0.6577
vn 0.0000 0.9997 -0.0259
vn 0.0000 0.9288 -0.3706
vn 0.0000 0.9992 0.0389
vn -0.0203 0.8270 -0.5618
vn 0.0000 0.7590 -0.6510
vn 0.0000 0.7508 -0.6606
vn -0.0000 -0.3166 -0.9486
vn 0.0063 -0.3015 -0.9535
vn -0.0000 -0.3174 -0.9483
vn 0.0000 -0.7236 -0.6902
vn 0.9295 -0.3689 -0.0000
vn 0.9032 -0.3106 -0.2963
vn 0.9927 0.1199 0.0124
vn 0.9947 0.0991 0.0271
vn 0.9910 0.1303 0.0313
vn 0.9782 0.1056 -0.1788
vn 0.9867 0.1393 -0.0838
vn 0.9700 0.1668 -0.1768
vn 0.9792 0.0765 -0.1878
vn 0.9859 0.0698 -0.1519
vn 0.5301 0.8428 -0.0937
vn 0.5440 0.8386 -0.0287
vn 0.5287 0.8437 -0.0931
vn 0.4495 0.8922 0.0441
vn 0.5282 0.8458 0.0745
vn 0.5374 0.8399 0.0762
vn 0.0000 -0.3805 -0.9248
vn 0.0000 -0.5055 0.8628
vn 0.0000 -0.6788 0.7344
vn 0.0000 -0.3266 -0.9452
vn 0.0000 -0.6154 -0.7882
vn 0.0000 -0.6770 -0.7360
vn 0.0341 -0.2448 0.9690
vn 0.0000 -0.8013 -0.5982
vn 0.0000 -0.9490 -0.3152
vn 0.0000 -0.9586 -0.2848
vn 0.0000 -0.9616 -0.2744
vn 0.0000 -0.9603 0.2791
vn 0.0000 -0.9541 0.2996
vn 0.0000 -0.9556 0.2947
vn 0.0000 -0.8442 0.5361
vn 0.0000 -0.7065 0.7077
vn 1.0000 0.0000 0.0000
vn 0.1403 -0.9901 -0.0000
vn 0.0000 -0.9865 0.1635
vn 0.0000 -0.9911 0.1330
vn 0.0000 -1.0000 -0.0000
vn 0.0000 -0.9984 0.0570
vn 0.0000 -0.9933 -0.1152
vn 0.9950 0.0969 -0.0242
vn 0.5422 0.8391 -0.0450
vn 0.7793 0.6262 0.0226
vn 0.7782 0.6277 0.0222
vn 0.7966 0.6039 0.0285
vn 0.7928 0.6090 0.0220
vn 0.8501 0.5266 -0.0022
vn 0.8335 0.5525 0.0099
vn 0.8297 0.5581 -0.0079
vn 0.8600 0.5102 -0.0132
vn 0.7720 0.6356 0.0058
vn 0.7622 0.6472 0.0108
vn 0.7488 0.6628 0.0016
vn 0.8343 0.5513 0.0057
vn 0.0156 -0.2739 0.9616
vn 0.0536 -0.2785 0.9589
vn 0.0549 -0.2547 0.9655
vn 0.0580 -0.2433 0.9682
vn 0.0584 -0.2544 0.9653
vn -0.0000 -0.3157 -0.9489
vn 0.0079 -0.3001 -0.9539
vn 0.0034 -0.3031 -0.9530
vn 0.0000 -0.3169 -0.9485
vn 0.0000 -0.9933 0.1153
vn 0.0315 0.9936 0.1084
vn -0.0074 0.5281 0.8491
vn -0.0090 0.5547 0.8320
vn -0.0073 0.5261 0.8504
vn -0.0083 -0.2825 0.9592
vn -0.0425 -0.2430 0.9691
vn -0.0156 -0.2739 0.9616
vn -0.0006 -0.9780 0.2088
vn 0.0087 -0.9871 0.1596
vn -0.9515 0.2016 0.2323
vn -0.8414 0.5239 0.1322
vn -0.9618 0.1158 0.2480
vn -0.9314 0.3494 0.1023
vn -0.9646 -0.2282 0.1321
vn -0.9695 -0.0649 0.2365
vn -0.9277 0.3124 0.2044
vn -0.9903 0.1387 -0.0064
vn -0.9888 0.1481 -0.0203
vn -0.9103 -0.1173 0.3971
vn -0.8627 -0.3205 0.3913
vn -0.8852 -0.4461 0.1320
vn 0.0203 0.8270 -0.5618
vn -0.0063 -0.3015 -0.9535
vn -0.0079 -0.3001 -0.9539
vn -0.9295 -0.3689 -0.0000
vn -0.9032 -0.3106 -0.2963
vn -0.9927 0.1199 0.0124
vn -0.9910 0.1303 0.0313
vn -0.9947 0.0991 0.0271
vn -0.9782 0.1056 -0.1788
vn -0.9867 0.1393 -0.0838
vn -0.9792 0.0765 -0.1878
vn -0.9859 0.0698 -0.1519
vn -0.5301 0.8428 -0.0937
vn -0.5440 0.8386 -0.0287
vn -0.5422 0.8391 -0.0450
vn -0.5282 0.8458 0.0745
vn -0.4495 0.8922 0.0441
vn -0.5374 0.8399 0.0762
vn 0.0000 -0.2702 0.9628
vn -1.0000 0.0000 0.0000
vn -0.1378 -0.9905 0.0004
vn -0.9950 0.0969 -0.0242
vn -0.7793 0.6262 0.0226
vn -0.7966 0.6039 0.0285
vn -0.7782 0.6277 0.0222
vn -0.8501 0.5266 -0.0022
vn -0.7928 0.6090 0.0220
vn -0.8335 0.5525 0.0099
vn -0.8600 0.5102 -0.0132
vn -0.8297 0.5581 -0.0079
vn -0.8343 0.5513 0.0057
vn -0.7720 0.6356 0.0058
vn -0.7622 0.6472 0.0108
vn -0.7488 0.6628 0.0016
vn -0.0536 -0.2785 0.9589
vn -0.0549 -0.2547 0.9655
vn -0.0580 -0.2433 0.9682
vn -0.0584 -0.2544 0.9653
vn -0.0509 -0.2424 0.9688
vn -0.0034 -0.3031 -0.9530
vn -0.0033 -0.3042 -0.9526
vn -0.8893 -0.4048 0.2128
vn 0.2019 -0.9564 0.2111
vn 0.0000 1.0000 0.0000
vn 0.0000 0.0000 -1.0000
vn -0.3882 0.9216 0.0000
vn 0.0000 0.9216 -0.3882
vn 0.3882 0.9216 0.0000
vn -0.0881 0.9463 0.3110
vn -0.2723 0.0000 0.9622
vn 0.2723 0.0000 0.9622
vn 0.0879 0.9464 0.3107
vn 0.0000 0.9957 0.0921
vn 0.0091 0.5568 0.8306
vn -0.0219 0.8325 -0.5536
vn 0.0491 -0.3469 -0.9366
vn 0.1378 -0.9905 0.0004
vn 0.0033 -0.3042 -0.9526
vn -0.0091 0.5568 0.8306
vn 0.0219 0.8325 -0.5536
vn -0.9700 0.1668 -0.1768
vn -0.5287 0.8437 -0.0931
vn -0.0491 -0.3469 -0.9366
vn -0.0341 -0.2448 0.9690
vn -0.1403 -0.9901 -0.0000
vn -0.0879 0.9464 0.3107
vn 0.0881 0.9463 0.3110
s 1
f 81/161/49 139/162/50 137/163/51
f 137/164/52 83/165/53 81/166/54
f 83/167/55 133/168/56 84/169/57
f 84/170/58 105/171/59 136/172/60
f 81/173/61 83/174/62 118/175/63
f 88/176/64 86/177/65 90/178/66
f 88/176/64 118/179/67 86/177/65
f 117/180/68 88/176/64 89/181/69
f 83/182/70 84/183/71 86/184/65
f 85/185/72 86/184/65 136/186/73
f 139/187/74 121/188/74 192/189/74
f 92/190/75 155/191/75 152/192/75
f 155/193/76 122/194/76 194/195/76
f 157/196/77 95/197/77 159/198/77
f 95/199/78 161/200/79 159/201/80
f 161/202/81 134/203/82 211/204/83
f 163/205/84 111/206/84 165/207/84
f 101/208/85 87/209/85 91/210/85
f 98/211/86 97/212/86 104/213/86
f 99/214/87 100/215/88 102/216/89
f 97/217/90 103/218/91 104/219/92
f 103/218/91 96/220/93 119/221/94
f 95/222/95 119/223/96 96/224/97
f 99/225/98 82/226/99 117/227/100
f 101/228/101 112/229/101 100/230/101
f 98/231/102 116/232/103 111/233/102
f 85/234/104 109/235/105 90/236/106
f 91/237/107 106/238/107 110/239/107
f 100/230/108 114/240/109 102/241/109
f 90/236/106 107/242/110 88/243/111
f 88/243/111 108/244/112 89/245/112
f 102/241/109 115/246/113 103/247/114
f 89/245/112 106/238/115 87/248/115
f 104/249/116 115/246/113 116/232/103
f 105/250/117 106/251/117 109/252/117
f 108/253/117 109/252/117 106/251/117
f 112/254/117 111/255/117 116/256/117
f 116/256/117 114/257/117 112/254/117
f 91/237/118 113/258/118 101/228/118
f 111/206/84 97/259/84 98/260/84
f 105/171/59 143/261/119 145/262/120
f 110/239/121 186/263/121 113/258/121
f 105/171/122 185/264/122 110/239/122
f 186/263/123 111/233/123 113/258/123
f 117/180/68 89/181/69 87/265/124
f 118/175/63 117/227/100 81/173/61
f 118/179/67 83/266/70 86/177/65
f 117/267/68 100/268/88 99/269/87
f 99/214/87 103/218/91 119/221/94
f 119/223/96 94/270/125 99/225/98
f 94/270/126 130/271/127 131/272/128
f 120/273/74 152/274/74 190/275/74
f 192/276/74 120/277/74 190/278/74
f 121/188/74 92/279/74 120/273/74
f 122/280/76 196/281/76 194/282/76
f 123/283/76 157/284/76 196/285/76
f 126/286/129 124/287/130 127/288/131
f 124/289/130 125/290/132 92/291/133
f 92/291/133 127/292/131 124/289/130
f 126/293/129 128/294/134 125/290/132
f 131/295/128 129/296/135 128/297/134
f 126/293/129 94/270/126 131/272/128
f 93/298/136 130/271/127 94/270/126
f 93/298/136 128/294/134 129/299/135
f 125/290/132 93/298/136 92/291/133
f 82/226/137 126/293/129 127/292/131
f 132/300/138 141/301/139 206/302/140
f 133/303/56 206/304/140 208/305/141
f 133/168/56 143/306/142 84/169/57
f 134/307/82 210/308/143 211/309/83
f 96/310/144 135/311/145 134/203/82
f 135/311/145 163/312/146 210/313/143
f 123/283/76 93/314/76 94/315/76
f 81/173/61 117/227/100 82/226/99
f 136/186/73 86/184/65 84/183/71
f 136/172/60 105/171/59 85/234/147
f 139/162/50 138/316/148 137/163/51
f 142/317/149 137/164/150 138/318/151
f 142/319/152 209/320/153 207/321/154
f 144/322/155 173/323/156 143/261/119
f 138/324/157 188/325/158 142/326/159
f 149/327/160 151/328/161 147/329/162
f 149/327/160 147/329/162 188/330/163
f 149/327/160 187/331/164 150/332/165
f 142/333/166 147/334/162 144/335/167
f 146/336/168 147/334/162 151/337/161
f 139/187/74 193/338/74 140/339/74
f 155/191/75 154/340/75 152/192/75
f 155/193/76 195/341/76 156/342/76
f 157/196/77 160/343/77 158/344/77
f 161/200/79 160/345/169 159/201/80
f 161/202/81 212/346/170 162/347/171
f 163/205/84 165/207/84 179/348/84
f 148/349/172 169/350/172 153/351/172
f 166/352/173 172/353/173 164/354/173
f 167/355/174 170/356/175 168/357/176
f 164/358/177 171/359/178 162/360/179
f 171/359/178 189/361/180 162/360/179
f 160/362/181 189/363/182 158/364/183
f 140/365/184 167/366/185 187/367/186
f 180/368/101 169/369/101 168/370/101
f 166/371/102 184/372/103 172/373/116
f 177/374/105 146/375/104 151/376/106
f 153/377/187 174/378/187 148/379/187
f 182/380/109 168/370/108 170/381/109
f 175/382/110 151/376/106 149/383/111
f 176/384/112 149/383/111 150/385/112
f 183/386/113 170/381/109 171/387/114
f 174/378/115 150/385/112 148/379/115
f 172/373/116 183/386/113 171/387/114
f 173/388/188 174/389/188 178/390/188
f 177/391/188 176/392/188 174/389/188
f 180/393/188 179/394/188 181/395/188
f 182/396/188 184/397/188 180/393/188
f 153/377/189 181/398/189 178/399/189
f 179/348/84 164/400/84 163/205/84
f 173/323/156 145/262/120 143/261/119
f 186/263/121 178/399/121 181/398/121
f 185/264/122 173/323/122 178/399/122
f 186/263/123 179/401/123 165/402/123
f 187/331/164 148/403/190 150/332/165
f 188/325/158 138/324/157 187/367/186
f 188/330/163 147/329/162 142/404/166
f 168/405/176 187/406/164 167/407/174
f 171/359/178 167/355/174 189/361/180
f 189/363/182 167/366/185 158/364/183
f 158/364/191 205/408/192 204/409/193
f 152/274/74 191/410/74 190/275/74
f 192/276/74 191/411/74 193/412/74
f 193/338/74 154/413/74 140/339/74
f 196/281/76 195/414/76 194/282/76
f 157/284/76 197/415/76 196/285/76
f 198/416/194 200/417/195 201/418/196
f 198/419/194 154/420/197 199/421/198
f 154/420/197 201/422/196 140/365/199
f 200/423/195 202/424/200 205/408/192
f 205/425/192 203/426/201 204/427/193
f 158/364/191 200/423/195 205/408/192
f 156/428/202 204/409/193 203/429/201
f 156/428/202 203/429/201 202/424/200
f 156/428/202 199/421/198 154/420/197
f 140/365/199 201/422/196 200/423/195
f 141/301/203 207/321/154 206/302/204
f 206/304/204 209/430/153 208/305/205
f 143/306/206 209/320/153 144/431/207
f 210/308/143 212/432/170 211/309/83
f 213/433/208 162/347/171 212/346/170
f 213/433/208 163/312/146 164/434/209
f 156/342/76 197/415/76 158/435/76
f 138/324/157 140/365/184 187/367/186
f 214/436/210 144/335/167 147/334/162
f 214/437/211 146/375/147 173/323/156
f 221/438/212 219/439/212 228/440/212
f 226/441/117 217/442/117 218/443/117
f 220/444/188 216/445/188 215/446/188
f 218/447/121 227/448/121 216/449/121
f 222/450/213 218/451/213 216/452/213
f 219/453/214 222/454/214 220/455/214
f 225/456/215 222/457/215 221/458/215
f 223/459/216 226/460/216 225/461/216
f 219/439/217 229/462/217 228/440/217
f 229/463/218 215/464/218 227/465/218
f 224/466/219 227/465/219 217/467/219
f 223/468/220 229/462/220 224/469/220
f 216/449/121 227/448/121 215/470/121
f 225/471/212 228/440/212 223/468/212
f 231/472/188 232/473/188 230/474/188
f 233/475/213 236/476/213 232/477/213
f 237/478/117 234/479/117 236/480/117
f 236/481/121 230/482/121 232/483/121
f 233/484/212 235/485/212 237/486/212
f 240/487/117 239/488/117 238/489/117
f 244/490/213 241/491/213 240/492/213
f 242/493/188 245/494/188 244/495/188
f 238/496/121 244/497/121 240/498/121
f 243/499/212 241/500/212 245/501/212
f 81/161/49 82/502/221 139/162/50
f 137/164/52 141/503/222 83/165/53
f 83/167/55 132/300/138 133/168/56
f 84/170/58 143/261/119 105/171/59
f 117/180/68 118/179/67 88/176/64
f 85/185/72 90/504/66 86/184/65
f 139/187/74 82/505/74 121/188/74
f 92/190/75 93/506/75 155/191/75
f 155/193/76 93/314/76 122/194/76
f 157/196/77 94/507/77 95/197/77
f 95/199/78 96/508/223 161/200/79
f 161/202/81 96/310/144 134/203/82
f 101/208/85 100/509/85 87/209/85
f 97/217/90 96/220/93 103/218/91
f 95/222/95 94/270/125 119/223/96
f 99/225/98 94/270/125 82/226/99
f 101/228/224 113/258/224 112/229/224
f 98/231/102 104/249/116 116/232/103
f 85/234/104 105/171/104 109/235/105
f 91/237/187 87/248/187 106/238/187
f 100/230/108 112/229/108 114/240/109
f 90/236/106 109/235/105 107/242/110
f 88/243/111 107/242/110 108/244/112
f 102/241/109 114/240/109 115/246/113
f 89/245/112 108/244/112 106/238/115
f 104/249/116 103/247/114 115/246/113
f 105/250/117 110/510/117 106/251/117
f 108/253/117 107/511/117 109/252/117
f 112/254/117 113/512/117 111/255/117
f 116/256/117 115/513/117 114/257/117
f 91/237/225 110/239/225 113/258/225
f 111/206/84 163/205/84 97/259/84
f 110/239/121 185/264/121 186/263/121
f 105/171/122 145/262/122 185/264/122
f 186/263/123 165/402/123 111/233/123
f 117/267/68 87/514/124 100/268/88
f 99/214/87 102/216/89 103/218/91
f 120/273/74 92/279/74 152/274/74
f 192/276/74 121/515/74 120/277/74
f 121/188/74 82/505/74 92/279/74
f 122/280/76 123/516/76 196/281/76
f 123/283/76 94/315/76 157/284/76
f 126/286/129 125/517/132 124/287/130
f 92/291/133 82/226/137 127/292/131
f 126/293/129 131/272/128 128/294/134
f 131/295/128 130/518/127 129/296/135
f 126/293/129 82/226/137 94/270/126
f 93/298/136 129/299/135 130/271/127
f 125/290/132 128/294/134 93/298/136
f 132/300/138 83/167/55 141/301/139
f 133/303/56 132/519/138 206/304/140
f 133/168/56 208/520/141 143/306/142
f 134/307/82 135/521/145 210/308/143
f 96/310/144 97/522/226 135/311/145
f 135/311/145 97/522/226 163/312/146
f 123/283/76 122/194/76 93/314/76
f 139/162/50 140/523/221 138/316/148
f 142/317/149 141/503/227 137/164/150
f 142/319/152 144/431/207 209/320/153
f 144/322/155 214/437/211 173/323/156
f 149/327/160 188/330/163 187/331/164
f 146/336/168 214/436/210 147/334/162
f 139/187/74 192/189/74 193/338/74
f 155/191/75 156/524/75 154/340/75
f 155/193/76 194/195/76 195/341/76
f 157/196/77 159/198/77 160/343/77
f 161/200/79 162/525/228 160/345/169
f 161/202/81 211/204/83 212/346/170
f 148/349/172 168/526/172 169/350/172
f 164/358/177 172/527/229 171/359/178
f 160/362/181 162/528/230 189/363/182
f 140/365/184 158/364/183 167/366/185
f 180/368/231 181/398/231 169/369/231
f 166/371/102 179/401/102 184/372/103
f 177/374/105 173/323/104 146/375/104
f 153/377/232 178/399/232 174/378/232
f 182/380/109 180/368/108 168/370/108
f 175/382/110 177/374/105 151/376/106
f 176/384/112 175/382/110 149/383/111
f 183/386/113 182/380/109 170/381/109
f 174/378/115 176/384/112 150/385/112
f 172/373/116 184/372/103 183/386/113
f 173/388/188 177/391/188 174/389/188
f 177/391/188 175/529/188 176/392/188
f 180/393/188 184/397/188 179/394/188
f 182/396/188 183/530/188 184/397/188
f 153/377/233 169/369/233 181/398/233
f 179/348/84 166/531/84 164/400/84
f 186/263/121 185/264/121 178/399/121
f 185/264/122 145/262/122 173/323/122
f 186/263/123 181/398/123 179/401/123
f 168/405/176 148/532/190 187/406/164
f 171/359/178 170/356/175 167/355/174
f 152/274/74 154/413/74 191/410/74
f 192/276/74 190/278/74 191/411/74
f 193/338/74 191/410/74 154/413/74
f 196/281/76 197/533/76 195/414/76
f 157/284/76 158/435/76 197/415/76
f 198/416/194 199/534/198 200/417/195
f 154/420/197 198/419/194 201/422/196
f 200/423/195 199/421/198 202/424/200
f 205/425/192 202/535/200 203/426/201
f 158/364/191 140/365/199 200/423/195
f 156/428/202 158/364/191 204/409/193
f 156/428/202 202/424/200 199/421/198
f 141/301/203 142/319/152 207/321/154
f 206/304/204 207/536/154 209/430/153
f 143/306/206 208/520/205 209/320/153
f 210/308/143 213/537/208 212/432/170
f 213/433/208 164/434/209 162/347/171
f 213/433/208 210/313/143 163/312/146
f 156/342/76 195/341/76 197/415/76
f 226/441/117 224/538/117 217/442/117
f 220/444/188 222/539/188 216/445/188
f 218/447/121 217/540/121 227/448/121
f 222/450/213 226/541/213 218/451/213
f 219/453/214 221/542/214 222/454/214
f 225/456/215 226/460/215 222/457/215
f 223/459/216 224/543/216 226/460/216
f 219/439/234 220/544/234 229/462/234
f 229/463/218 220/545/218 215/464/218
f 224/466/219 229/463/219 227/465/219
f 223/468/235 228/440/235 229/462/235
f 225/471/212 221/438/212 228/440/212
f 231/472/188 233/546/188 232/473/188
f 233/475/213 237/547/213 236/476/213
f 237/478/117 235/548/117 234/479/117
f 236/481/121 234/549/121 230/482/121
f 233/484/212 231/550/212 235/485/212
f 240/487/117 241/551/117 239/488/117
f 244/490/213 245/552/213 241/491/213
f 242/493/188 243/553/188 245/494/188
f 238/496/121 242/554/121 244/497/121
f 243/499/212 239/555/212 241/500/212
