texture textures/cars.png
v 0.300488 0.273235 0.468324
v 0.396903 0.273235 0.468324
v 0.300488 0.221070 0.396527
v 0.396903 0.221070 0.396527
v 0.300488 0.136667 0.369102
v 0.396903 0.136667 0.369102
v 0.300488 0.052264 0.396527
v 0.396903 0.052264 0.396527
v 0.300488 0.000099 0.468324
v 0.396903 0.000099 0.468324
v 0.300488 0.000099 0.557071
v 0.396903 0.000099 0.557071
v 0.300488 0.052264 0.628869
v 0.396903 0.052264 0.628869
v 0.300488 0.136667 0.656293
v 0.396903 0.136667 0.656293
v 0.300488 0.221070 0.628869
v 0.396903 0.221070 0.628869
v 0.300488 0.273235 0.557071
v 0.396903 0.273235 0.557071
vt 0.612156 0.971647
vt 0.524372 0.959848
vt 0.524372 0.971647
vt 0.612156 0.959848
vt 0.524372 0.940757
vt 0.612156 0.940757
vt 0.524372 0.921665
vt 0.612156 0.921665
vt 0.524372 0.909866
vt 0.612156 0.909866
vt 0.524372 0.909866
vt 0.612156 0.909866
vt 0.524372 0.921665
vt 0.612156 0.940757
vt 0.524372 0.940757
vt 0.612156 0.959848
vt 0.524372 0.959848
vt 0.524372 0.971647
vt 0.612156 0.971647
vt 0.512421 0.891662
vt 0.519896 0.891662
vt 0.518469 0.897068
vt 0.250082 0.022727
vt 0.383670 0.433867
vt 0.116495 0.433868
vt 0.612156 0.921665
vt 0.516159 0.897992
vt 0.513849 0.897068
vt 0.512421 0.894650
vt 0.513849 0.889244
vt 0.516159 0.888320
vt 0.518469 0.889244
vt 0.519896 0.894650
vt 0.033933 0.320231
vt 0.033933 0.179769
vt 0.116495 0.066133
vt 0.383670 0.066133
vt 0.466232 0.179769
vt 0.466232 0.320231
vt 0.250082 0.477273
vn 0.0000 0.9511 -0.3090
vn 0.0000 0.5878 -0.8090
vn 0.0000 0.0000 -1.0000
vn 0.0000 -0.5878 -0.8090
vn 0.0000 -0.9511 -0.3090
vn 0.0000 -0.9511 0.3090
vn 0.0000 -0.5878 0.8090
vn 0.0000 -0.0000 1.0000
vn 0.0000 0.5878 0.8090
vn 0.0000 0.9511 0.3090
vn -1.0000 0.0000 0.0000
vn 1.0000 -0.0000 0.0000
s 1
f 2/1/1 3/2/2 1/3/1
f 4/4/2 5/5/3 3/2/2
f 6/6/3 7/7/4 5/5/3
f 8/8/4 9/9/5 7/7/4
f 10/10/5 11/11/6 9/9/5
f 12/12/6 13/13/7 11/11/6
f 13/13/7 16/14/8 15/15/8
f 15/15/8 18/16/9 17/17/9
f 18/16/9 19/18/10 17/17/9
f 20/19/10 1/3/1 19/18/10
f 7/20/11 15/21/11 19/22/11
f 18/23/12 10/24/12 6/25/12
f 2/1/1 4/4/2 3/2/2
f 4/4/2 6/6/3 5/5/3
f 6/6/3 8/8/4 7/7/4
f 8/8/4 10/10/5 9/9/5
f 10/10/5 12/12/6 11/11/6
f 12/12/6 14/26/7 13/13/7
f 13/13/7 14/26/7 16/14/8
f 15/15/8 16/14/8 18/16/9
f 18/16/9 20/19/10 19/18/10
f 20/19/10 2/1/1 1/3/1
f 19/22/11 1/27/11 7/20/11
f 3/28/11 5/29/11 7/20/11
f 7/20/11 9/30/11 11/31/11
f 11/31/11 13/32/11 15/21/11
f 15/21/11 17/33/11 19/22/11
f 1/27/11 3/28/11 7/20/11
f 7/20/11 11/31/11 15/21/11
f 6/25/12 4/34/12 2/35/12
f 2/35/12 20/36/12 18/23/12
f 18/23/12 16/37/12 10/24/12
f 14/38/12 12/39/12 10/24/12
f 10/24/12 8/40/12 6/25/12
f 6/25/12 2/35/12 18/23/12
f 16/37/12 14/38/12 10/24/12
o RLW_Cylinder.005
v 0.300488 0.273235 -0.423581
v 0.396903 0.273235 -0.423581
v 0.300488 0.221071 -0.495379
v 0.396903 0.221071 -0.495379
v 0.300488 0.136667 -0.522804
v 0.396903 0.136667 -0.522804
v 0.300488 0.052264 -0.495379
v 0.396903 0.052264 -0.495379
v 0.300488 0.000100 -0.423581
v 0.396903 0.000100 -0.423581
v 0.300488 0.000100 -0.334834
v 0.396903 0.000100 -0.334834
v 0.300488 0.052264 -0.263037
v 0.396903 0.052264 -0.263037
v 0.300488 0.136667 -0.235612
v 0.396903 0.136667 -0.235612
v 0.300488 0.221070 -0.263037
v 0.396903 0.221070 -0.263037
v 0.300488 0.273235 -0.334834
v 0.396903 0.273235 -0.334834
vt 0.612156 0.971647
vt 0.524372 0.959848
vt 0.524372 0.971647
vt 0.612156 0.959848
vt 0.524372 0.940757
vt 0.612156 0.940757
vt 0.524372 0.921665
vt 0.612156 0.921665
vt 0.524372 0.909866
vt 0.612156 0.909866
vt 0.524372 0.909866
vt 0.524372 0.921665
vt 0.612156 0.921665
vt 0.524372 0.940757
vt 0.612156 0.940757
vt 0.524372 0.959848
vt 0.612156 0.959848
vt 0.524372 0.971647
vt 0.612156 0.971647
vt 0.512421 0.891662
vt 0.519896 0.891662
vt 0.518469 0.897068
vt 0.250082 0.022727
vt 0.383670 0.433867
vt 0.116495 0.433868
vt 0.612156 0.909866
vt 0.516159 0.897992
vt 0.513849 0.897068
vt 0.512421 0.894650
vt 0.513849 0.889244
vt 0.516159 0.888320
vt 0.518469 0.889244
vt 0.519896 0.894650
vt 0.033933 0.320231
vt 0.033933 0.179769
vt 0.116495 0.066133
vt 0.383670 0.066133
vt 0.466232 0.179769
vt 0.466232 0.320231
vt 0.250082 0.477273
vn 0.0000 0.9511 -0.3090
vn 0.0000 0.5878 -0.8090
vn 0.0000 -0.0000 -1.0000
vn 0.0000 -0.5878 -0.8090
vn 0.0000 -0.9511 -0.3090
vn 0.0000 -0.9511 0.3090
vn 0.0000 -0.5878 0.8090
vn 0.0000 -0.0000 1.0000
vn 0.0000 0.5878 0.8090
vn 0.0000 0.9511 0.3090
vn -1.0000 0.0000 0.0000
vn 1.0000 0.0000 0.0000
s 1
f 22/41/13 23/42/14 21/43/13
f 24/44/14 25/45/15 23/42/14
f 26/46/15 27/47/16 25/45/15
f 28/48/16 29/49/17 27/47/16
f 29/49/17 32/50/18 31/51/18
f 32/50/18 33/52/19 31/51/18
f 34/53/19 35/54/20 33/52/19
f 36/55/20 37/56/21 35/54/20
f 38/57/21 39/58/22 37/56/21
f 40/59/22 21/43/13 39/58/22
f 27/60/23 35/61/23 39/62/23
f 38/63/24 30/64/24 26/65/24
f 22/41/13 24/44/14 23/42/14
f 24/44/14 26/46/15 25/45/15
f 26/46/15 28/48/16 27/47/16
f 28/48/16 30/66/17 29/49/17
f 29/49/17 30/66/17 32/50/18
f 32/50/18 34/53/19 33/52/19
f 34/53/19 36/55/20 35/54/20
f 36/55/20 38/57/21 37/56/21
f 38/57/21 40/59/22 39/58/22
f 40/59/22 22/41/13 21/43/13
f 39/62/23 21/67/23 27/60/23
f 23/68/23 25/69/23 27/60/23
f 27/60/23 29/70/23 31/71/23
f 31/71/23 33/72/23 35/61/23
f 35/61/23 37/73/23 39/62/23
f 21/67/23 23/68/23 27/60/23
f 27/60/23 31/71/23 35/61/23
f 26/65/24 24/74/24 22/75/24
f 22/75/24 40/76/24 38/63/24
f 38/63/24 36/77/24 30/64/24
f 34/78/24 32/79/24 30/64/24
f 30/64/24 28/80/24 26/65/24
f 26/65/24 22/75/24 38/63/24
f 36/77/24 34/78/24 30/64/24
o RRW_Cylinder.006
v -0.300488 0.273235 -0.334834
v -0.396903 0.273235 -0.334834
v -0.300488 0.221070 -0.263037
v -0.396903 0.221070 -0.263037
v -0.300488 0.136667 -0.235612
v -0.396903 0.136667 -0.235612
v -0.300488 0.052264 -0.263037
v -0.396903 0.052264 -0.263037
v -0.300488 0.000100 -0.334834
v -0.396903 0.000100 -0.334834
v -0.300488 0.000100 -0.423581
v -0.396903 0.000100 -0.423581
v -0.300488 0.052264 -0.495379
v -0.396903 0.052264 -0.495379
v -0.300488 0.136667 -0.522804
v -0.396903 0.136667 -0.522804
v -0.300488 0.221071 -0.495379
v -0.396903 0.221071 -0.495379
v -0.300488 0.273235 -0.423581
v -0.396903 0.273235 -0.423581
vt 0.612156 0.971647
vt 0.524372 0.959848
vt 0.524372 0.971647
vt 0.612156 0.959848
vt 0.524372 0.940757
vt 0.612156 0.921665
vt 0.524372 0.921665
vt 0.524372 0.909866
vt 0.612156 0.909866
vt 0.524372 0.909866
vt 0.612156 0.909866
vt 0.524372 0.921665
vt 0.612156 0.921665
vt 0.524372 0.940757
vt 0.612156 0.940757
vt 0.524372 0.959848
vt 0.612156 0.959848
vt 0.524372 0.971647
vt 0.612156 0.971647
vt 0.512421 0.891662
vt 0.519896 0.891662
vt 0.518469 0.897068
vt 0.250082 0.022727
vt 0.383670 0.433867
vt 0.116495 0.433868
vt 0.612156 0.940757
vt 0.516159 0.897992
vt 0.513849 0.897068
vt 0.512421 0.894650
vt 0.513849 0.889244
vt 0.516159 0.888320
vt 0.518469 0.889244
vt 0.519896 0.894650
vt 0.033933 0.320231
vt 0.033933 0.179769
vt 0.116495 0.066133
vt 0.383670 0.066133
vt 0.466232 0.179769
vt 0.466232 0.320231
vt 0.250082 0.477273
vn 0.0000 0.9511 0.3090
vn 0.0000 0.5878 0.8090
vn -0.0000 -0.0000 1.0000
vn 0.0000 -0.5878 0.8090
vn 0.0000 -0.9511 0.3090
vn 0.0000 -0.9511 -0.3090
vn 0.0000 -0.5878 -0.8090
vn 0.0000 0.0000 -1.0000
vn 0.0000 0.5878 -0.8090
vn 0.0000 0.9511 -0.3090
vn 1.0000 -0.0000 0.0000
vn -1.0000 -0.0000 0.0000
s 1
f 42/81/25 43/82/26 41/83/25
f 44/84/26 45/85/27 43/82/26
f 45/85/27 48/86/28 47/87/28
f 48/86/28 49/88/29 47/87/28
f 50/89/29 51/90/30 49/88/29
f 52/91/30 53/92/31 51/90/30
f 54/93/31 55/94/32 53/92/31
f 56/95/32 57/96/33 55/94/32
f 58/97/33 59/98/34 57/96/33
f 60/99/34 41/83/25 59/98/34
f 47/100/35 55/101/35 59/102/35
f 58/103/36 50/104/36 46/105/36
f 42/81/25 44/84/26 43/82/26
f 44/84/26 46/106/27 45/85/27
f 45/85/27 46/106/27 48/86/28
f 48/86/28 50/89/29 49/88/29
f 50/89/29 52/91/30 51/90/30
f 52/91/30 54/93/31 53/92/31
f 54/93/31 56/95/32 55/94/32
f 56/95/32 58/97/33 57/96/33
f 58/97/33 60/99/34 59/98/34
f 60/99/34 42/81/25 41/83/25
f 59/102/35 41/107/35 47/100/35
f 43/108/35 45/109/35 47/100/35
f 47/100/35 49/110/35 51/111/35
f 51/111/35 53/112/35 55/101/35
f 55/101/35 57/113/35 59/102/35
f 41/107/35 43/108/35 47/100/35
f 47/100/35 51/111/35 55/101/35
f 46/105/36 44/114/36 42/115/36
f 42/115/36 60/116/36 58/103/36
f 58/103/36 56/117/36 50/104/36
f 54/118/36 52/119/36 50/104/36
f 50/104/36 48/120/36 46/105/36
f 46/105/36 42/115/36 58/103/36
f 56/117/36 54/118/36 50/104/36
o FRW_Cylinder.007
v -0.300488 0.273235 0.557071
v -0.396903 0.273235 0.557071
v -0.300488 0.221070 0.628869
v -0.396903 0.221070 0.628869
v -0.300488 0.136667 0.656294
v -0.396903 0.136667 0.656294
v -0.300488 0.052264 0.628869
v -0.396903 0.052264 0.628869
v -0.300488 0.000099 0.557071
v -0.396903 0.000099 0.557071
v -0.300488 0.000099 0.468324
v -0.396903 0.000099 0.468324
v -0.300488 0.052264 0.396527
v -0.396903 0.052264 0.396527
v -0.300488 0.136667 0.369102
v -0.396903 0.136667 0.369102
v -0.300488 0.221070 0.396527
v -0.396903 0.221070 0.396527
v -0.300488 0.273235 0.468324
v -0.396903 0.273235 0.468324
vt 0.612156 0.971647
vt 0.524372 0.959848
vt 0.524372 0.971647
vt 0.612156 0.959848
vt 0.524372 0.940757
vt 0.612156 0.940757
vt 0.524372 0.921665
vt 0.612156 0.921665
vt 0.524372 0.909866
vt 0.612156 0.909866
vt 0.524372 0.909866
vt 0.612156 0.909866
vt 0.524372 0.921665
vt 0.612156 0.940757
vt 0.524372 0.940757
vt 0.612156 0.959848
vt 0.524372 0.959848
vt 0.524372 0.971647
vt 0.612156 0.971647
vt 0.512421 0.891662
vt 0.519896 0.891662
vt 0.518469 0.897068
vt 0.250082 0.022727
vt 0.383670 0.433867
vt 0.116495 0.433868
vt 0.612156 0.921665
vt 0.516159 0.897992
vt 0.513849 0.897068
vt 0.512421 0.894650
vt 0.513849 0.889244
vt 0.516159 0.888320
vt 0.518469 0.889244
vt 0.519896 0.894650
vt 0.033933 0.320231
vt 0.033933 0.179769
vt 0.116495 0.066133
vt 0.383670 0.066133
vt 0.466232 0.179769
vt 0.466232 0.320231
vt 0.250082 0.477273
vn 0.0000 0.9511 0.3090
vn 0.0000 0.5878 0.8090
vn 0.0000 -0.0000 1.0000
vn 0.0000 -0.5878 0.8090
vn 0.0000 -0.9511 0.3090
vn 0.0000 -0.9511 -0.3090
vn 0.0000 -0.5878 -0.8090
vn 0.0000 0.0000 -1.0000
vn 0.0000 0.5878 -0.8090
vn 0.0000 0.9511 -0.3090
vn 1.0000 0.0000 0.0000
vn -1.0000 0.0000 0.0000
s 1
f 62/121/37 63/122/38 61/123/37
f 64/124/38 65/125/39 63/122/38
f 66/126/39 67/127/40 65/125/39
f 68/128/40 69/129/41 67/127/40
f 70/130/41 71/131/42 69/129/41
f 72/132/42 73/133/43 71/131/42
f 73/133/43 76/134/44 75/135/44
f 75/135/44 78/136/45 77/137/45
f 78/136/45 79/138/46 77/137/45
f 80/139/46 61/123/37 79/138/46
f 67/140/47 75/141/47 79/142/47
f 78/143/48 70/144/48 66/145/48
f 62/121/37 64/124/38 63/122/38
f 64/124/38 66/126/39 65/125/39
f 66/126/39 68/128/40 67/127/40
f 68/128/40 70/130/41 69/129/41
f 70/130/41 72/132/42 71/131/42
f 72/132/42 74/146/43 73/133/43
f 73/133/43 74/146/43 76/134/44
f 75/135/44 76/134/44 78/136/45
f 78/136/45 80/139/46 79/138/46
f 80/139/46 62/121/37 61/123/37
f 79/142/47 61/147/47 67/140/47
f 63/148/47 65/149/47 67/140/47
f 67/140/47 69/150/47 71/151/47
f 71/151/47 73/152/47 75/141/47
f 75/141/47 77/153/47 79/142/47
f 61/147/47 63/148/47 67/140/47
f 67/140/47 71/151/47 75/141/47
f 66/145/48 64/154/48 62/155/48
f 62/155/48 80/156/48 78/143/48
f 78/143/48 76/157/48 70/144/48
f 74/158/48 72/159/48 70/144/48
f 70/144/48 68/160/48 66/145/48
f 66/145/48 62/155/48 78/143/48
f 76/157/48 74/158/48 70/144/48
o Body_Plane.000
v 0.361851 0.294011 0.897086
v 0.380956 0.382937 0.313569
v 0.370279 0.156218 0.897086
v 0.354988 0.147460 0.933727
v 0.354988 0.097753 0.933727
v 0.370279 0.088996 0.897086
v 0.395034 0.088996 0.691887
v 0.395034 0.254990 0.645687
v 0.395034 0.304217 0.512981
v 0.395034 0.254990 0.360840
v 0.360726 0.069530 0.333757
v 0.380956 0.382937 -0.411579
v 0.360726 0.069530 -0.216274
v 0.387385 0.255385 -0.249052
v 0.296024 0.566081 0.175616
v 0.296024 0.566081 -0.252220
v 0.387385 0.307825 -0.395087
v 0.387385 0.244101 -0.525891
v 0.387385 0.088996 -0.547797
v 0.380956 0.341292 -0.882495
v 0.296694 0.341292 -0.888304
v 0.380956 0.185327 -0.882495
v 0.352722 0.167149 -0.930070
v 0.352722 0.128761 -0.930070
v 0.380956 0.110583 -0.882493
v 0.256599 0.088996 0.691887
v 0.256599 0.254990 0.645687
v 0.256599 0.304217 0.512981
v 0.256599 0.254990 0.360840
v 0.256599 0.069530 0.333757
v 0.256599 0.069530 -0.216274
v 0.256599 0.255385 -0.249052
v 0.256599 0.307825 -0.395087
v 0.256599 0.244101 -0.525891
v 0.256599 0.088996 -0.547797
v 0.282654 0.550868 0.187075
v 0.359039 0.396998 0.302977
v 0.284405 0.552645 -0.263910
v 0.356677 0.396853 -0.399470
v 0.303709 0.549510 0.164574
v 0.303709 0.549510 -0.239557
v 0.374040 0.397850 -0.375918
v 0.374040 0.397850 0.278000
v 0.303709 0.549510 -0.016016
v 0.374040 0.397850 -0.016016
v 0.374040 0.397850 -0.073700
v 0.303709 0.549510 -0.073700
v 0.322539 0.382937 -0.411579
v 0.204241 0.055074 -0.723067
v 0.204241 0.105893 -0.739630
v 0.204241 0.051008 -0.909674
v 0.204241 0.104458 -0.909674
v 0.263146 0.055074 -0.723067
v 0.263146 0.105893 -0.739630
v 0.263146 0.051008 -0.909674
v 0.263146 0.104458 -0.909674
v 0.204241 0.097004 -0.619361
v 0.204241 0.147823 -0.635924
v 0.263146 0.097004 -0.619361
v 0.263146 0.147823 -0.635924
v 0.197519 0.294011 0.897087
v 0.223479 0.382937 0.313569
v 0.242021 0.378884 0.897086
v 0.323033 0.378884 0.897086
v 0.337985 0.395729 0.343730
v 0.254383 0.395729 0.343730
v 0.363217 0.404231 -0.614799
v 0.351847 0.430367 -0.904653
v 0.325803 0.431669 -0.910314
v 0.329822 0.404715 -0.616905
v 0.212794 0.280837 0.925027
v 0.345800 0.287855 0.925027
v 0.354227 0.176400 0.925027
v 0.252755 0.356505 0.925027
v 0.315189 0.356505 0.925027
v -0.361851 0.294011 0.897086
v -0.380956 0.382937 0.313569
v -0.370279 0.156218 0.897086
v -0.354988 0.147460 0.933727
v -0.354988 0.097753 0.933727
v -0.370279 0.088996 0.897086
v -0.395034 0.088996 0.691887
v -0.395034 0.254990 0.645687
v -0.395034 0.304217 0.512981
v -0.395034 0.254990 0.360840
v -0.360726 0.069530 0.333757
v -0.380956 0.382937 -0.411579
v -0.360726 0.069530 -0.216274
v -0.387385 0.255385 -0.249052
v -0.296024 0.566081 0.175616
v -0.296024 0.566081 -0.252220
v -0.387385 0.307825 -0.395087
v -0.387385 0.244101 -0.525891
v -0.387385 0.088996 -0.547797
v -0.380956 0.341292 -0.882495
v -0.296694 0.341292 -0.888304
v -0.380956 0.185327 -0.882495
v -0.352722 0.167149 -0.930070
v -0.352722 0.128761 -0.930070
v -0.380956 0.110583 -0.882493
v -0.256599 0.088996 0.691887
v -0.256599 0.254990 0.645687
v -0.256599 0.304217 0.512981
v -0.256599 0.254990 0.360840
v -0.256599 0.069530 0.333757
v -0.256599 0.069530 -0.216274
v -0.256599 0.255385 -0.249052
v -0.256599 0.307825 -0.395087
v -0.256599 0.244101 -0.525891
v -0.256599 0.088996 -0.547797
v -0.282654 0.550868 0.187075
v -0.359039 0.396998 0.302977
v -0.284405 0.552645 -0.263910
v -0.356677 0.396853 -0.399470
v -0.303709 0.549510 0.164574
v -0.303709 0.549510 -0.239557
v -0.374040 0.397850 -0.375918
v -0.374040 0.397850 0.278000
v -0.303709 0.549510 -0.016016
v -0.374040 0.397850 -0.016016
v -0.374040 0.397850 -0.073700
v -0.303709 0.549510 -0.073700
v 0.000000 0.294011 0.897087
v 0.000000 0.382937 0.313569
v 0.000000 0.156218 0.897087
v 0.000000 0.147460 0.933729
v 0.000000 0.097753 0.933729
v 0.000000 0.088996 0.897086
v 0.000000 0.578276 0.166635
v 0.000000 0.578276 -0.241813
v 0.000000 0.382937 -0.411579
v 0.000000 0.341292 -0.925133
v -0.322539 0.382937 -0.411579
v 0.000000 0.185327 -0.925133
v 0.000000 0.167149 -0.972707
v 0.000000 0.128761 -0.972707
v 0.000000 0.110583 -0.882493
v 0.000000 0.069530 0.333757
v 0.000000 0.069530 -0.216274
v 0.000000 0.563067 0.178091
v 0.000000 0.396994 0.302980
v 0.000000 0.564846 -0.253498
v 0.000000 0.396857 -0.399466
v -0.204241 0.055074 -0.723067
v -0.204241 0.105893 -0.739630
v -0.204241 0.051008 -0.909674
v -0.204241 0.104458 -0.909674
v -0.263146 0.055074 -0.723067
v -0.263146 0.105893 -0.739630
v -0.263146 0.051008 -0.909674
v -0.263146 0.104458 -0.909674
v -0.204241 0.097004 -0.619361
v -0.204241 0.147823 -0.635924
v -0.263146 0.097004 -0.619361
v -0.263146 0.147823 -0.635924
v -0.197519 0.294011 0.897087
v -0.223479 0.382937 0.313569
v -0.242021 0.378884 0.897086
v -0.323033 0.378884 0.897086
v -0.337985 0.395729 0.343730
v -0.254383 0.395729 0.343730
v -0.363217 0.404231 -0.614799
v -0.351847 0.430367 -0.904653
v -0.325803 0.431669 -0.910314
v -0.329822 0.404715 -0.616905
v -0.212794 0.280837 0.925027
v -0.345800 0.287855 0.925027
v -0.354227 0.176400 0.925027
v 0.000000 0.176400 0.925028
v 0.000000 0.280837 0.925028
v -0.252755 0.356505 0.925027
v -0.315189 0.356505 0.925027
v -0.105736 0.561539 0.124188
v -0.080944 0.649480 0.097357
v -0.105736 0.561539 0.034901
v -0.080944 0.649480 0.061731
v 0.105736 0.561539 0.124188
v 0.080944 0.649480 0.097357
v 0.105736 0.561539 0.034901
v 0.080944 0.649480 0.061731
v -0.078196 0.590612 0.116230
v -0.064026 0.637882 0.100896
v 0.064026 0.637882 0.100896
v 0.078196 0.590612 0.116230
v -0.064906 0.633577 0.056879
v -0.077515 0.591841 0.043233
v 0.077515 0.591841 0.043233
v 0.064906 0.633577 0.056879
vt 0.296583 0.915448
vt 0.296585 0.915261
vt 0.296594 0.915208
vt 0.294653 0.916691
vt 0.294489 0.916873
vt 0.294489 0.916691
vt 0.412182 0.725218
vt 0.412267 0.725257
vt 0.412222 0.725256
vt 0.527151 0.402386
vt 0.527114 0.402133
vt 0.527117 0.402129
vt 0.527097 0.402142
vt 0.527144 0.402455
vt 0.527143 0.402625
vt 0.527125 0.402881
vt 0.527148 0.402813
vt 0.526038 0.402798
vt 0.526082 0.403530
vt 0.526048 0.403566
vt 0.660629 0.403916
vt 0.717103 0.391112
vt 0.733418 0.403916
vt 0.517647 0.402886
vt 0.518098 0.402896
vt 0.517646 0.402900
vt 0.502953 0.403068
vt 0.502585 0.403597
vt 0.502580 0.403083
vt 0.518738 0.402562
vt 0.518773 0.402204
vt 0.518759 0.402562
vt 0.518136 0.403793
vt 0.518126 0.403749
vt 0.518122 0.403369
vt 0.412225 0.725702
vt 0.294977 0.915963
vt 0.294654 0.916655
vt 0.294654 0.915963
vt 0.307698 0.984937
vt 0.302833 0.984937
vt 0.307698 0.984937
vt 0.294653 0.917039
vt 0.294489 0.917071
vt 0.294489 0.917039
vt 0.527795 0.402999
vt 0.527988 0.403004
vt 0.528012 0.403028
vt 0.527143 0.404382
vt 0.527135 0.403793
vt 0.527146 0.403767
vt 0.731762 0.396376
vt 0.567848 0.383580
vt 0.567848 0.363017
vt 0.577532 0.383557
vt 0.388310 0.740142
vt 0.388364 0.739701
vt 0.388364 0.740183
vt 0.295971 0.917108
vt 0.295973 0.916938
vt 0.295981 0.916869
vt 0.296207 0.915789
vt 0.296342 0.915996
vt 0.296178 0.915996
vt 0.295694 0.917047
vt 0.295868 0.916873
vt 0.295868 0.917051
vt 0.527151 0.403927
vt 0.294654 0.915565
vt 0.294479 0.915730
vt 0.294479 0.915565
vt 0.386510 0.733256
vt 0.386975 0.733206
vt 0.386976 0.733252
vt 0.294654 0.915512
vt 0.294511 0.915254
vt 0.294977 0.915297
vt 0.408839 0.728336
vt 0.408871 0.728466
vt 0.408839 0.728537
vt 0.294653 0.916873
vt 0.297482 0.980072
vt 0.302347 0.980072
vt 0.302347 0.980072
vt 0.407813 0.727745
vt 0.407811 0.727795
vt 0.407810 0.727749
vt 0.508305 0.397430
vt 0.508268 0.396879
vt 0.508301 0.396878
vt 0.294654 0.917071
vt 0.294977 0.916655
vt 0.294977 0.917492
vt 0.517996 0.403053
vt 0.517640 0.403083
vt 0.517640 0.403068
vt 0.989838 0.879734
vt 0.991840 0.996960
vt 0.989838 0.996966
vt 0.518013 0.403068
vt 0.920100 0.997063
vt 0.924568 0.880587
vt 0.924568 0.997065
vt 0.519013 0.402113
vt 0.519041 0.402562
vt 0.519019 0.402562
vt 0.518752 0.402189
vt 0.519034 0.402083
vt 0.518117 0.402927
vt 0.518126 0.402881
vt 0.962824 0.995787
vt 0.959701 0.880827
vt 0.965810 0.880827
vt 0.958808 0.880827
vt 0.954853 0.995787
vt 0.952369 0.880827
vt 0.518026 0.403308
vt 0.518121 0.403297
vt 0.518018 0.403606
vt 0.518023 0.403081
vt 0.518026 0.403380
vt 0.518029 0.403589
vt 0.518537 0.402149
vt 0.518450 0.402113
vt 0.518528 0.402112
vt 0.526082 0.402838
vt 0.655884 0.391073
vt 0.517928 0.402883
vt 0.502958 0.403606
vt 0.571413 0.387827
vt 0.294523 0.915963
vt 0.294654 0.915923
vt 0.992381 0.879734
vt 0.918965 0.880587
vt 0.519036 0.402189
vt 0.959701 0.995787
vt 0.958808 0.995787
vt 0.294653 0.915731
vt 0.294479 0.915923
vt 0.236306 0.951208
vt 0.248159 0.939354
vt 0.248159 0.951208
vt 0.371568 0.693380
vt 0.372012 0.693321
vt 0.372012 0.693434
vt 0.297482 0.995640
vt 0.302347 0.990775
vt 0.302347 0.995640
vt 0.307698 0.990289
vt 0.302833 0.985424
vt 0.307698 0.985424
vt 0.297482 0.990775
vt 0.302347 0.990775
vt 0.302833 0.990289
vt 0.302833 0.985424
vt 0.294497 0.917492
vt 0.502831 0.402144
vt 0.502587 0.402886
vt 0.502583 0.402147
vt 0.502985 0.402149
vt 0.502906 0.402846
vt 0.502883 0.402149
vt 0.543340 0.402778
vt 0.543534 0.402105
vt 0.543580 0.402083
vt 0.528278 0.402142
vt 0.528306 0.402881
vt 0.528225 0.402149
vt 0.502868 0.402883
vt 0.503011 0.402845
vt 0.503066 0.402881
vt 0.518590 0.402142
vt 0.518585 0.402100
vt 0.518607 0.402133
vt 0.503194 0.403043
vt 0.503568 0.403641
vt 0.503194 0.403640
vt 0.611810 0.363079
vt 0.611810 0.383641
vt 0.522603 0.399256
vt 0.522611 0.399845
vt 0.522567 0.399328
vt 0.508122 0.397363
vt 0.508192 0.397433
vt 0.508159 0.397434
vt 0.538080 0.399166
vt 0.538195 0.398651
vt 0.538195 0.399205
vt 0.558651 0.379198
vt 0.544319 0.389772
vt 0.538164 0.378117
vt 0.559949 0.362031
vt 0.505388 0.362031
vt 0.518383 0.402144
vt 0.518135 0.402111
vt 0.518403 0.402108
vt 0.518887 0.402778
vt 0.518780 0.402766
vt 0.518780 0.402723
vt 0.527644 0.404082
vt 0.527679 0.403636
vt 0.527679 0.404082
vt 0.518570 0.402107
vt 0.302347 0.984937
vt 0.307698 0.980072
vt 0.528251 0.402845
vt 0.431394 0.694506
vt 0.430928 0.694460
vt 0.431394 0.694460
vt 0.522571 0.399879
vt 0.538177 0.398583
vt 0.296594 0.915208
vt 0.296583 0.915448
vt 0.296594 0.915625
vt 0.294489 0.916873
vt 0.294653 0.916691
vt 0.294489 0.916691
vt 0.412182 0.725218
vt 0.412267 0.725257
vt 0.412270 0.725219
vt 0.527151 0.402386
vt 0.527117 0.402129
vt 0.527114 0.402133
vt 0.527097 0.402142
vt 0.527144 0.402455
vt 0.527125 0.402881
vt 0.527143 0.402625
vt 0.527148 0.402813
vt 0.526038 0.402798
vt 0.526048 0.403566
vt 0.526082 0.403530
vt 0.660629 0.403916
vt 0.733418 0.403916
vt 0.717103 0.391112
vt 0.518098 0.402896
vt 0.502953 0.403068
vt 0.518773 0.402204
vt 0.518136 0.403793
vt 0.518122 0.403369
vt 0.518126 0.403749
vt 0.412222 0.725256
vt 0.294523 0.915963
vt 0.294654 0.916655
vt 0.294654 0.915963
vt 0.302833 0.984937
vt 0.307698 0.984937
vt 0.307698 0.984937
vt 0.294489 0.917071
vt 0.294653 0.917039
vt 0.294489 0.917039
vt 0.527988 0.403004
vt 0.527795 0.402999
vt 0.528012 0.403028
vt 0.527143 0.404382
vt 0.527146 0.403767
vt 0.527135 0.403793
vt 0.731762 0.396376
vt 0.567848 0.383580
vt 0.577532 0.383557
vt 0.567848 0.363017
vt 0.388310 0.740142
vt 0.388364 0.740183
vt 0.295981 0.916869
vt 0.295971 0.917108
vt 0.295981 0.917318
vt 0.296207 0.915789
vt 0.296342 0.915996
vt 0.296338 0.915789
vt 0.295868 0.916873
vt 0.295694 0.917047
vt 0.295868 0.917051
vt 0.527151 0.403927
vt 0.294479 0.915730
vt 0.294654 0.915565
vt 0.294479 0.915565
vt 0.386975 0.733206
vt 0.386510 0.733210
vt 0.294511 0.915254
vt 0.294654 0.915512
vt 0.408871 0.728466
vt 0.408871 0.728266
vt 0.294653 0.916873
vt 0.297482 0.980072
vt 0.302347 0.980072
vt 0.297482 0.980072
vt 0.407813 0.727745
vt 0.407811 0.727795
vt 0.407814 0.727791
vt 0.508268 0.396879
vt 0.508305 0.397430
vt 0.508301 0.396878
vt 0.294654 0.917071
vt 0.517996 0.403053
vt 0.991840 0.996960
vt 0.518013 0.403068
vt 0.920100 0.997063
vt 0.519013 0.402113
vt 0.519034 0.402083
vt 0.518752 0.402189
vt 0.518117 0.402927
vt 0.518126 0.402881
vt 0.962824 0.995787
vt 0.965810 0.880827
vt 0.959701 0.880827
vt 0.958808 0.880827
vt 0.952369 0.880827
vt 0.954853 0.995787
vt 0.518121 0.403297
vt 0.518026 0.403308
vt 0.518018 0.403606
vt 0.518023 0.403081
vt 0.518029 0.403589
vt 0.518026 0.403380
vt 0.518537 0.402149
vt 0.518450 0.402113
vt 0.518435 0.402149
vt 0.526082 0.402838
vt 0.655884 0.391073
vt 0.517928 0.402883
vt 0.502958 0.403606
vt 0.571413 0.387827
vt 0.294654 0.915923
vt 0.294479 0.915923
vt 0.992381 0.879734
vt 0.918965 0.880587
vt 0.519036 0.402189
vt 0.959701 0.995787
vt 0.958808 0.995787
vt 0.294653 0.915731
vt 0.248159 0.939354
vt 0.236306 0.951208
vt 0.248159 0.951208
vt 0.371568 0.693380
vt 0.371533 0.693321
vt 0.302347 0.990775
vt 0.297482 0.995640
vt 0.302347 0.995640
vt 0.302833 0.985424
vt 0.307698 0.990289
vt 0.307698 0.985424
vt 0.302347 0.990775
vt 0.297482 0.990775
vt 0.302833 0.985424
vt 0.302833 0.990289
vt 0.294497 0.917492
vt 0.502831 0.402144
vt 0.502868 0.402883
vt 0.502985 0.402149
vt 0.502906 0.402846
vt 0.503011 0.402845
vt 0.543534 0.402105
vt 0.543340 0.402778
vt 0.543580 0.402083
vt 0.528278 0.402142
vt 0.528225 0.402149
vt 0.528306 0.402881
vt 0.503066 0.402881
vt 0.518585 0.402100
vt 0.518590 0.402142
vt 0.518607 0.402133
vt 0.503194 0.403043
vt 0.503194 0.403640
vt 0.522603 0.399256
vt 0.522567 0.399328
vt 0.522611 0.399845
vt 0.508122 0.397363
vt 0.508192 0.397433
vt 0.508228 0.397362
vt 0.538080 0.399166
vt 0.538195 0.399205
vt 0.538195 0.398651
vt 0.544319 0.389772
vt 0.558651 0.379198
vt 0.538164 0.378117
vt 0.559949 0.362031
vt 0.518383 0.402144
vt 0.518135 0.402147
vt 0.518780 0.402766
vt 0.518887 0.402778
vt 0.518780 0.402723
vt 0.527679 0.403636
vt 0.527644 0.403616
vt 0.518528 0.402112
vt 0.302347 0.984937
vt 0.302347 0.980072
vt 0.307698 0.980072
vt 0.302833 0.980072
vt 0.528251 0.402845
vt 0.430928 0.694460
vt 0.430928 0.694506
vt 0.522571 0.399879
vt 0.538177 0.398583
vt 0.256537 0.928901
vt 0.257332 0.928768
vt 0.257674 0.928901
vt 0.257332 0.927898
vt 0.257568 0.927916
vt 0.257394 0.927984
vt 0.256537 0.927765
vt 0.257674 0.927765
vt 0.256879 0.928768
vt 0.256639 0.928753
vt 0.256834 0.928677
vt 0.256537 0.930151
vt 0.257674 0.929015
vt 0.257674 0.930151
vt 0.323895 0.928768
vt 0.323441 0.927898
vt 0.323895 0.927898
vt 0.658387 0.372190
vt 0.647634 0.368390
vt 0.659458 0.368390
vt 0.256834 0.927989
vt 0.256879 0.927898
vt 0.256639 0.927913
vt 0.648639 0.371865
vt 0.659406 0.368483
vt 0.647686 0.368483
vt 0.257394 0.928682
vt 0.257568 0.928749
vt 0.296594 0.915625
vt 0.296587 0.915608
vt 0.412270 0.725219
vt 0.412270 0.725703
vt 0.294523 0.916655
vt 0.302833 0.984937
vt 0.528101 0.403030
vt 0.527827 0.403024
vt 0.388306 0.739695
vt 0.295981 0.917318
vt 0.295973 0.917296
vt 0.296338 0.915789
vt 0.295694 0.916869
vt 0.294480 0.915512
vt 0.297482 0.980072
vt 0.407814 0.727791
vt 0.508273 0.397437
vt 0.518435 0.402149
vt 0.574449 0.388030
vt 0.236306 0.939354
vt 0.371533 0.693321
vt 0.297482 0.990775
vt 0.302833 0.990289
vt 0.543233 0.402723
vt 0.503568 0.402999
vt 0.508228 0.397362
vt 0.553936 0.389772
vt 0.505388 0.378117
vt 0.518875 0.402816
vt 0.527644 0.403616
vt 0.297482 0.984937
vt 0.302833 0.980072
vt 0.430928 0.694506
vt 0.296587 0.915608
vt 0.296585 0.915261
vt 0.294523 0.916655
vt 0.302833 0.984937
vt 0.527827 0.403024
vt 0.528101 0.403030
vt 0.295973 0.917296
vt 0.295973 0.916938
vt 0.296178 0.915996
vt 0.295694 0.916869
vt 0.386976 0.733252
vt 0.294480 0.915512
vt 0.408839 0.728537
vt 0.407810 0.727749
vt 0.508273 0.397437
vt 0.574449 0.388030
vt 0.236306 0.939354
vt 0.297482 0.990775
vt 0.302833 0.990289
vt 0.502883 0.402149
vt 0.543233 0.402723
vt 0.518570 0.402107
vt 0.508159 0.397434
vt 0.553936 0.389772
vt 0.518403 0.402108
vt 0.518875 0.402816
vt 0.297482 0.984937
vt 0.256537 0.929015
vt 0.323441 0.928768
vt 0.648705 0.372190
vt 0.658453 0.371865
vn 1.0000 0.0000 0.0000
vn 0.0000 -0.6445 -0.7646
vn 0.0000 -0.9985 0.0543
vn 0.0000 -0.6650 -0.7469
vn 0.9866 0.0003 -0.1632
vn 0.8600 -0.0000 -0.5104
vn 0.9934 0.0253 0.1115
vn 0.9925 0.0299 0.1183
vn 0.9928 0.0000 0.1198
vn 0.9623 0.2501 0.1068
vn 0.9802 0.1714 0.0990
vn 0.9427 0.3266 0.0680
vn 0.9360 0.3521 0.0061
vn 0.9946 0.1008 -0.0234
vn 0.9848 -0.1736 -0.0028
vn 0.9885 -0.1510 -0.0102
vn 0.9895 -0.1441 -0.0125
vn 0.9982 0.0596 0.0028
vn 0.9950 0.1003 0.0008
vn 0.0000 0.6017 0.7988
vn 0.0000 0.6015 0.7989
vn 0.0412 0.9992 0.0000
vn 0.0000 1.0000 0.0000
vn -0.0000 0.6564 -0.7544
vn 0.0002 0.6563 -0.7545
vn 0.0000 0.6562 -0.7546
vn 0.9072 0.4207 0.0000
vn 0.1200 0.0000 -0.9928
vn 0.0000 -0.9997 0.0232
vn 0.0000 -0.9998 -0.0195
vn 0.0000 -0.9998 0.0181
vn -1.0000 0.0000 0.0000
vn 0.0000 -0.5882 0.8087
vn 0.0000 -0.1398 0.9902
vn 0.9998 0.0148 -0.0144
vn 0.9998 0.0023 -0.0186
vn 0.9855 0.1692 -0.0142
vn 0.9967 0.0805 0.0140
vn 0.0684 -0.0981 -0.9928
vn 0.0978 0.0158 -0.9951
vn 0.0970 -0.0600 -0.9935
vn 0.0424 0.9252 -0.3770
vn 0.0000 0.9335 -0.3587
vn 0.0424 0.9247 -0.3784
vn 0.0000 -0.1737 -0.9848
vn 0.0000 -0.2681 -0.9634
vn 0.0000 -0.6769 -0.7361
vn 0.0000 -0.9998 -0.0211
vn 0.0000 0.9726 0.2325
vn 0.0095 -0.9998 0.0191
vn 0.0000 -0.9953 0.0964
vn 0.0000 -0.9919 0.1268
vn 0.0000 0.0000 1.0000
vn 0.9229 0.0000 0.3851
vn 0.0287 0.9954 0.0909
vn 0.0100 0.9959 0.0895
vn 0.0088 0.9960 0.0895
vn -0.0015 -0.9980 -0.0625
vn 0.0000 -0.9996 -0.0299
vn 0.0000 -0.9980 -0.0632
vn 0.0002 0.6015 0.7989
vn -0.0000 0.6016 0.7988
vn 0.0000 0.6014 0.7990
vn 0.0003 0.6015 0.7989
vn 0.0000 0.6563 -0.7545
vn 0.0003 0.6563 -0.7545
vn 0.3896 0.6624 0.6399
vn -0.4082 0.6301 0.6606
vn 0.4689 0.6187 0.6304
vn 0.9833 -0.1819 -0.0000
vn 0.1368 -0.2602 -0.9558
vn 0.0000 -0.1445 0.9895
vn 0.0000 -0.6453 0.7639
vn 0.0000 -0.6739 0.7388
vn 0.0000 0.0000 -1.0000
vn 0.0028 -0.9409 -0.3386
vn 0.0000 -0.9772 -0.2123
vn 0.0000 -0.9803 -0.1975
vn 0.0000 -0.9998 0.0218
vn 0.0000 1.0000 -0.0084
vn 0.0000 -0.9271 0.3748
vn 0.0000 0.9271 -0.3748
vn 0.0000 -0.9979 -0.0644
vn 0.0000 0.9886 0.1507
vn 0.0000 0.9995 0.0304
vn -0.8736 0.4866 -0.0003
vn -0.5084 0.8547 0.1049
vn -0.4716 0.8746 0.1123
vn 0.8904 0.4458 0.0915
vn 0.0000 0.9206 -0.3905
vn 0.8635 0.0629 0.5004
vn 0.8794 0.0553 0.4729
vn 0.8822 0.0540 0.4678
vn 0.0065 0.9965 -0.0830
vn 0.0000 0.9964 -0.0848
vn 0.0000 0.9962 -0.0870
vn 0.1195 0.0071 -0.9928
vn 0.1232 0.0000 -0.9924
vn 0.9157 0.4005 -0.0335
vn 0.0008 0.9945 0.1044
vn 0.0065 0.9944 0.1055
vn 0.0078 0.9944 0.1057
vn -0.9448 0.3254 0.0393
vn -0.9122 0.4095 0.0156
vn -0.9480 0.3156 0.0420
vn 0.0000 0.9045 0.4265
vn -0.7228 0.3811 0.5765
vn -0.3771 0.6468 0.6629
vn 0.0000 -0.8106 0.5855
vn 0.7797 0.3500 0.5192
vn 0.7782 0.3470 0.5235
vn 0.3091 0.9503 0.0373
vn 0.0000 -0.9726 0.2325
vn 0.0000 -0.9726 0.2324
vn 0.9512 0.3085 -0.0095
vn -0.9072 0.4206 0.0124
vn -0.9866 0.0003 -0.1632
vn -0.8600 -0.0000 -0.5104
vn -0.9707 -0.0000 -0.2401
vn -0.9934 0.0253 0.1115
vn -0.9928 0.0000 0.1198
vn -0.9925 0.0299 0.1183
vn -0.9623 0.2501 0.1068
vn -0.9802 0.1714 0.0990
vn -0.9360 0.3521 0.0061
vn -0.9427 0.3266 0.0680
vn -0.9946 0.1008 -0.0234
vn -0.9848 -0.1736 -0.0028
vn -0.9895 -0.1441 -0.0125
vn -0.9885 -0.1510 -0.0102
vn -0.9950 0.1003 0.0008
vn -0.9982 0.0596 0.0028
vn -0.0412 0.9992 0.0000
vn -0.0002 0.6563 -0.7545
vn -0.9072 0.4207 0.0000
vn -0.1200 0.0000 -0.9928
vn 0.0000 -1.0000 -0.0000
vn -0.9998 0.0023 -0.0186
vn -0.9998 0.0148 -0.0144
vn -0.9855 0.1692 -0.0142
vn -0.9967 0.0805 0.0140
vn -0.0684 -0.0981 -0.9928
vn -0.0970 -0.0600 -0.9935
vn -0.0978 0.0158 -0.9951
vn -0.0424 0.9252 -0.3770
vn -0.0424 0.9247 -0.3784
vn -0.0095 -0.9998 0.0191
vn -0.9229 0.0000 0.3851
vn -0.0100 0.9959 0.0895
vn -0.0287 0.9954 0.0909
vn -0.0088 0.9960 0.0895
vn 0.0015 -0.9980 -0.0625
vn -0.0002 0.6015 0.7989
vn -0.0003 0.6015 0.7989
vn -0.0003 0.6563 -0.7545
vn -0.3896 0.6624 0.6399
vn 0.4082 0.6301 0.6606
vn 0.3771 0.6468 0.6629
vn -0.9833 -0.1819 -0.0000
vn -0.1368 -0.2602 -0.9558
vn -0.0028 -0.9409 -0.3386
vn 0.0000 -0.9341 -0.3569
vn 0.5084 0.8547 0.1049
vn 0.8736 0.4866 -0.0003
vn 0.4716 0.8746 0.1123
vn -0.8904 0.4458 0.0915
vn -0.8794 0.0553 0.4729
vn -0.8635 0.0629 0.5004
vn -0.8822 0.0540 0.4678
vn -0.0065 0.9965 -0.0830
vn -0.1195 0.0071 -0.9928
vn -0.9157 0.4005 -0.0335
vn -0.0008 0.9945 0.1044
vn -0.0065 0.9944 0.1055
vn 0.0000 0.9946 0.1042
vn 0.9448 0.3254 0.0393
vn 0.9480 0.3156 0.0420
vn 0.9122 0.4095 0.0156
vn 0.7228 0.3811 0.5765
vn -0.7797 0.3500 0.5192
vn -0.4689 0.6187 0.6304
vn -0.3091 0.9503 0.0373
vn -0.9512 0.3085 -0.0095
vn 0.9072 0.4206 0.0124
vn -0.9625 0.2713 0.0000
vn -0.0159 0.3064 -0.9518
vn 0.9625 0.2713 0.0000
vn 0.0105 0.3057 0.9521
vn 0.0000 0.3086 0.9512
vn 0.0000 0.2640 0.9645
vn 0.0000 0.2918 0.9565
vn 0.0449 0.3031 0.9519
vn 0.0000 0.3108 -0.9505
vn 0.0000 0.2651 -0.9642
vn 0.0000 0.2918 -0.9565
vn -0.0441 0.3029 -0.9520
vn 0.9707 -0.0000 -0.2401
vn 0.0000 0.9341 -0.3569
vn 0.0300 0.9954 0.0910
vn 0.1894 -0.2895 -0.9382
vn -0.8856 0.4644 -0.0056
vn 0.8590 0.0650 0.5078
vn 0.0000 0.9967 -0.0808
vn -0.7232 0.3819 0.5754
vn -0.0300 0.9954 0.0910
vn -0.1894 -0.2895 -0.9382
vn 0.8856 0.4644 -0.0056
vn -0.8590 0.0650 0.5078
vn -0.1232 0.0000 -0.9924
vn -0.0078 0.9944 0.1057
vn 0.7232 0.3819 0.5754
vn -0.7782 0.3470 0.5235
vn 0.0441 0.3029 -0.9520
vn -0.0449 0.3031 0.9519
vn -0.0105 0.3057 0.9521
vn 0.0159 0.3064 -0.9518
s 1
f 113/161/49 112/162/49 111/163/49
f 112/164/50 97/165/51 94/166/52
f 102/167/53 104/168/54 103/169/54
f 87/170/55 83/171/56 86/172/57
f 81/173/58 83/171/56 88/174/59
f 81/173/58 89/175/60 82/176/61
f 89/175/60 90/177/62 82/176/61
f 90/178/63 93/179/64 94/180/65
f 82/181/61 94/182/66 92/183/67
f 204/184/68 117/185/68 221/186/69
f 95/187/70 210/188/71 209/189/71
f 210/190/72 118/191/73 222/192/74
f 92/193/75 122/194/75 126/195/75
f 104/168/76 215/196/76 103/169/76
f 218/197/77 111/198/78 110/199/79
f 137/200/80 130/201/80 129/202/80
f 114/203/81 99/204/82 98/205/81
f 98/206/83 99/207/84 102/208/53
f 100/209/85 92/210/67 97/211/86
f 92/183/67 94/182/66 97/212/86
f 100/213/87 102/214/88 101/215/89
f 103/216/90 214/217/91 102/218/92
f 108/219/49 107/220/49 106/221/49
f 93/222/93 112/223/50 94/224/52
f 106/225/94 88/226/95 87/227/94
f 98/228/83 100/209/85 97/211/86
f 107/229/95 89/230/96 88/231/95
f 205/232/97 84/233/97 83/234/97
f 106/235/98 86/236/99 208/237/100
f 206/238/101 85/239/101 84/240/101
f 113/241/51 98/205/81 97/165/51
f 134/242/49 139/243/49 133/244/49
f 85/245/102 83/246/102 84/247/102
f 110/199/79 106/235/98 218/197/77
f 106/235/98 208/237/100 218/197/77
f 148/248/103 150/249/104 147/250/105
f 115/251/106 219/252/107 217/253/108
f 111/198/78 219/252/107 115/251/106
f 116/254/109 209/255/110 220/256/111
f 221/257/69 116/258/109 220/259/111
f 117/185/68 95/260/112 116/254/109
f 118/261/73 223/262/113 222/263/74
f 119/264/72 211/265/72 223/266/113
f 119/264/72 96/267/114 92/268/72
f 123/269/75 95/260/75 82/270/75
f 121/271/75 126/272/75 122/273/75
f 125/274/75 120/275/75 123/276/75
f 126/195/75 124/277/75 125/278/75
f 96/279/75 122/194/75 92/193/75
f 95/260/75 120/280/75 124/277/75
f 82/270/75 125/278/75 123/269/75
f 125/278/75 92/193/75 126/195/75
f 96/279/75 127/281/75 121/282/75
f 124/277/75 96/279/75 95/260/75
f 144/283/115 154/284/116 155/285/117
f 87/170/55 88/174/59 83/171/56
f 81/173/58 88/174/59 89/175/60
f 90/178/63 91/286/118 93/179/64
f 82/181/61 90/287/62 94/182/66
f 204/184/68 142/288/68 117/185/68
f 95/187/70 96/289/70 210/188/71
f 210/190/72 96/267/114 118/191/73
f 101/215/89 148/290/119 100/213/87
f 91/291/120 109/292/121 110/199/120
f 116/254/109 95/260/112 209/255/110
f 221/257/69 117/293/68 116/258/109
f 117/185/68 82/270/68 95/260/112
f 118/261/73 119/294/72 223/262/113
f 119/264/72 128/295/72 211/265/72
f 119/264/72 118/191/73 96/267/114
f 123/269/75 120/280/75 95/260/75
f 121/271/75 127/296/75 126/272/75
f 125/274/75 124/297/75 120/275/75
f 126/195/75 127/281/75 124/277/75
f 96/279/75 121/282/75 122/194/75
f 125/278/75 82/270/75 92/193/75
f 124/277/75 127/281/75 96/279/75
f 108/298/96 90/299/122 89/230/96
f 132/300/123 135/301/123 131/302/123
f 104/303/124 217/304/125 216/305/126
f 135/306/127 129/307/127 131/308/127
f 132/309/128 134/310/128 136/311/128
f 133/312/129 137/313/129 129/307/129
f 130/314/130 140/315/130 134/310/130
f 105/316/131 115/251/106 217/253/108
f 141/317/132 204/318/132 203/319/132
f 117/185/68 142/288/68 82/270/68
f 144/320/133 146/321/133 143/322/133
f 141/323/134 146/324/135 142/325/136
f 81/326/58 82/327/61 144/328/137
f 142/329/138 145/330/138 82/331/138
f 81/332/139 153/333/140 83/334/141
f 101/335/142 211/336/143 128/337/144
f 101/215/89 214/338/145 212/339/146
f 128/295/72 119/264/72 92/268/72
f 92/340/67 100/341/85 147/342/147
f 128/343/148 147/344/149 150/345/150
f 101/346/151 150/347/152 149/348/153
f 152/349/101 154/350/101 151/351/101
f 152/349/101 151/351/101 153/352/101
f 151/351/101 249/353/101 153/352/101
f 141/354/154 250/355/154 151/356/154
f 141/357/155 154/358/116 143/359/156
f 205/360/157 153/361/157 249/362/157
f 81/332/158 155/285/117 152/363/159
f 135/364/49 134/242/49 133/244/49
f 130/201/80 131/365/80 129/202/80
f 144/328/137 82/327/61 145/366/160
f 208/367/100 85/368/161 207/369/162
f 147/342/147 100/341/85 148/370/163
f 150/347/152 101/346/151 128/371/164
f 186/372/80 188/373/80 190/374/80
f 172/375/51 187/376/50 169/377/52
f 177/378/165 179/379/166 180/380/167
f 162/381/168 161/382/169 158/383/170
f 156/384/171 163/385/172 158/383/170
f 156/384/171 157/386/173 164/387/174
f 164/387/174 157/386/173 165/388/175
f 165/389/176 169/390/177 168/391/178
f 157/392/173 167/393/179 169/394/180
f 204/184/68 221/186/69 192/395/68
f 170/396/181 209/189/71 210/188/71
f 210/190/72 222/192/74 193/397/182
f 167/398/183 201/399/183 197/400/183
f 215/196/184 179/379/184 178/401/184
f 166/402/185 186/403/78 185/404/79
f 225/405/49 232/406/49 224/407/49
f 174/408/82 189/409/81 173/410/81
f 174/411/186 173/412/187 177/413/165
f 175/414/188 172/415/189 167/416/179
f 167/393/179 172/417/189 169/394/180
f 175/418/190 176/419/191 177/420/192
f 214/217/91 178/421/193 177/422/194
f 181/423/80 183/424/80 185/425/80
f 168/426/93 187/427/50 186/428/93
f 163/429/95 181/430/94 162/431/94
f 173/432/187 172/415/189 175/414/188
f 164/433/96 182/434/95 163/435/95
f 205/232/97 159/436/97 206/437/97
f 161/438/99 181/439/195 208/237/100
f 206/238/101 160/440/101 207/441/101
f 173/410/81 188/442/51 172/375/51
f 229/443/80 234/444/80 235/445/80
f 160/446/196 158/447/196 161/448/196
f 185/404/79 218/197/77 181/439/195
f 181/439/195 218/197/77 208/237/100
f 245/449/197 243/450/198 242/451/199
f 190/452/200 217/253/108 219/252/107
f 186/403/78 190/452/200 219/252/107
f 191/453/201 220/256/111 209/255/110
f 221/257/69 220/259/111 191/454/201
f 192/395/68 191/453/201 170/455/202
f 193/456/182 222/263/74 223/262/113
f 194/457/72 223/266/113 211/265/72
f 194/457/72 167/458/72 171/459/203
f 198/460/183 157/461/183 170/455/183
f 196/462/183 197/463/183 201/464/183
f 200/465/183 198/466/183 195/467/183
f 201/399/183 200/468/183 199/469/183
f 171/470/183 167/398/183 197/400/183
f 170/455/183 199/469/183 195/471/183
f 157/461/183 198/460/183 200/468/183
f 200/468/183 201/399/183 167/398/183
f 171/470/183 196/472/183 202/473/183
f 199/469/183 170/455/183 171/470/183
f 239/474/204 251/475/205 238/476/206
f 162/381/168 158/383/170 163/385/172
f 156/384/171 164/387/174 163/385/172
f 165/389/176 168/391/178 166/477/207
f 157/392/173 169/394/180 165/478/175
f 204/184/68 192/395/68 237/479/68
f 170/396/181 210/188/71 171/480/181
f 210/190/72 193/397/182 171/459/203
f 243/481/208 176/419/191 175/418/190
f 166/402/120 184/482/121 165/483/122
f 191/453/201 209/255/110 170/455/202
f 221/257/69 191/454/201 192/484/68
f 192/395/68 170/455/202 157/461/68
f 193/456/182 223/262/113 194/485/72
f 194/457/72 211/265/72 213/486/72
f 194/457/72 171/459/203 193/397/182
f 198/460/183 170/455/183 195/471/183
f 196/462/183 201/464/183 202/487/183
f 200/465/183 195/467/183 199/488/183
f 201/399/183 199/469/183 202/473/183
f 171/470/183 197/400/183 196/472/183
f 200/468/183 167/398/183 157/461/183
f 199/469/183 171/470/183 202/473/183
f 165/483/122 183/489/96 164/433/96
f 230/490/123 227/491/123 226/492/123
f 179/493/209 217/304/125 180/494/210
f 224/495/127 230/496/127 226/497/127
f 229/498/128 227/499/128 231/500/128
f 232/501/129 228/502/129 224/495/129
f 235/503/130 225/504/130 229/498/130
f 180/505/131 190/452/200 174/408/131
f 236/506/132 204/318/132 237/507/132
f 192/395/68 157/461/68 237/479/68
f 239/508/133 241/509/133 240/510/133
f 241/511/211 236/512/212 237/513/213
f 156/514/171 239/515/214 157/516/173
f 240/510/138 237/507/138 157/517/138
f 248/518/215 156/519/216 158/520/217
f 211/336/143 176/521/218 213/522/144
f 176/419/191 214/338/219 177/420/192
f 213/486/72 167/458/72 194/457/72
f 167/523/179 242/524/220 175/525/188
f 213/526/221 242/527/222 167/528/223
f 176/529/224 244/530/225 245/531/226
f 251/532/101 247/533/101 246/534/101
f 247/533/101 248/535/101 246/534/101
f 249/353/101 246/534/101 248/535/101
f 236/536/154 250/355/154 203/537/154
f 251/538/205 236/539/227 238/540/206
f 205/360/157 248/541/157 158/542/157
f 156/519/228 252/543/229 239/474/204
f 229/443/80 230/544/80 228/545/80
f 225/405/49 226/546/49 227/547/49
f 239/515/214 240/548/230 157/516/173
f 208/367/100 160/549/161 161/550/99
f 242/524/220 243/551/231 175/525/188
f 245/531/226 213/552/232 176/529/224
f 253/553/233 256/554/233 255/555/233
f 260/556/234 267/557/234 268/558/234
f 260/556/235 257/559/235 259/560/235
f 254/561/236 261/562/236 262/563/236
f 259/564/185 253/565/185 255/566/185
f 256/567/71 258/568/71 260/569/71
f 263/570/237 261/571/237 264/572/237
f 257/559/238 261/562/238 253/553/238
f 254/561/239 263/573/239 258/574/239
f 258/574/240 264/575/240 257/559/240
f 265/576/241 267/577/241 266/578/241
f 255/555/242 267/557/242 259/560/242
f 260/556/243 265/579/243 256/554/243
f 256/554/244 266/580/244 255/555/244
f 111/163/49 115/581/49 113/161/49
f 114/582/49 113/161/49 115/581/49
f 112/164/50 113/241/51 97/165/51
f 102/167/53 105/583/245 104/168/54
f 104/168/76 216/584/76 215/196/76
f 91/291/185 110/199/79 111/198/78
f 218/197/77 219/252/107 111/198/78
f 111/198/78 93/585/185 91/291/185
f 137/200/80 138/586/80 130/201/80
f 114/203/81 115/251/82 99/204/82
f 105/587/245 102/208/53 99/207/84
f 100/588/85 98/206/83 102/208/53
f 103/216/90 215/589/246 214/217/91
f 106/221/49 110/590/49 108/219/49
f 109/591/49 108/219/49 110/590/49
f 93/222/93 111/592/93 112/223/50
f 106/225/94 107/593/95 88/226/95
f 107/229/95 108/298/96 89/230/96
f 205/232/97 206/437/97 84/233/97
f 106/235/98 87/594/185 86/236/99
f 206/238/101 207/441/101 85/239/101
f 113/241/51 114/203/81 98/205/81
f 134/242/49 140/595/49 139/243/49
f 85/245/102 86/596/102 83/246/102
f 148/248/103 149/597/247 150/249/104
f 144/283/115 143/598/156 154/284/116
f 101/215/89 149/599/248 148/290/119
f 91/291/120 90/299/122 109/292/121
f 108/298/96 109/292/121 90/299/122
f 132/300/123 136/600/123 135/301/123
f 104/303/124 105/601/210 217/304/125
f 135/306/127 133/312/127 129/307/127
f 132/309/128 130/314/128 134/310/128
f 133/312/129 139/602/129 137/313/129
f 130/314/130 138/603/130 140/315/130
f 105/316/131 99/204/131 115/251/106
f 141/317/132 142/329/132 204/318/132
f 144/320/133 145/330/133 146/321/133
f 141/323/134 143/604/249 146/324/135
f 142/329/138 146/321/138 145/330/138
f 81/332/139 152/363/250 153/333/140
f 101/335/142 212/605/251 211/336/143
f 101/215/89 102/214/88 214/338/145
f 128/343/148 92/606/223 147/344/149
f 152/349/101 155/607/101 154/350/101
f 151/351/101 250/608/101 249/353/101
f 141/354/154 203/537/154 250/355/154
f 141/357/155 151/609/252 154/358/116
f 205/360/157 83/610/157 153/361/157
f 81/332/158 144/283/115 155/285/117
f 135/364/49 136/611/49 134/242/49
f 130/201/80 132/612/80 131/365/80
f 208/367/100 86/613/99 85/368/161
f 189/614/80 190/374/80 188/373/80
f 186/372/80 187/615/80 188/373/80
f 172/375/51 188/442/51 187/376/50
f 177/378/165 178/401/166 179/379/166
f 215/196/184 216/584/184 179/379/184
f 218/197/77 185/404/79 186/403/78
f 166/402/185 168/616/185 186/403/78
f 186/403/78 219/252/107 218/197/77
f 225/405/49 233/617/49 232/406/49
f 174/408/82 190/452/82 189/409/81
f 175/618/188 177/413/165 173/412/187
f 180/619/167 174/411/186 177/413/165
f 214/217/91 215/589/246 178/421/193
f 184/620/80 185/425/80 183/424/80
f 181/423/80 182/621/80 183/424/80
f 168/426/93 169/622/52 187/427/50
f 163/429/95 182/623/95 181/430/94
f 164/433/96 183/489/96 182/434/95
f 205/232/97 158/624/97 159/436/97
f 161/438/99 162/625/185 181/439/195
f 206/238/101 159/626/101 160/440/101
f 173/410/81 189/409/81 188/442/51
f 229/443/80 228/545/80 234/444/80
f 160/446/196 159/627/196 158/447/196
f 245/449/197 244/628/253 243/450/198
f 239/474/204 252/543/229 251/475/205
f 243/481/208 244/629/254 176/419/191
f 166/402/120 185/404/120 184/482/121
f 165/483/122 184/482/121 183/489/96
f 230/490/123 231/630/123 227/491/123
f 179/493/209 216/305/126 217/304/125
f 224/495/127 228/502/127 230/496/127
f 229/498/128 225/504/128 227/499/128
f 232/501/129 234/631/129 228/502/129
f 235/503/130 233/632/130 225/504/130
f 180/505/131 217/253/108 190/452/200
f 236/506/132 203/319/132 204/318/132
f 239/508/133 238/633/133 241/509/133
f 241/511/211 238/634/255 236/512/212
f 240/510/138 241/509/138 237/507/138
f 248/518/215 247/635/256 156/519/216
f 211/336/143 212/605/251 176/521/218
f 176/419/191 212/339/257 214/338/219
f 213/526/221 245/636/258 242/527/222
f 251/532/101 252/637/101 247/533/101
f 249/353/101 250/608/101 246/534/101
f 236/536/154 246/638/154 250/355/154
f 251/538/205 246/639/259 236/539/227
f 205/360/157 249/362/157 248/541/157
f 156/519/228 247/635/260 252/543/229
f 229/443/80 231/640/80 230/544/80
f 225/405/49 224/407/49 226/546/49
f 208/367/100 207/369/162 160/549/161
f 253/553/233 254/561/233 256/554/233
f 260/556/261 259/560/261 267/557/261
f 260/556/235 258/574/235 257/559/235
f 254/561/262 253/553/262 261/562/262
f 259/564/185 257/641/185 253/565/185
f 256/567/71 254/642/71 258/568/71
f 263/570/237 262/643/237 261/571/237
f 257/559/238 264/575/238 261/562/238
f 254/561/239 262/563/239 263/573/239
f 258/574/263 263/573/263 264/575/263
f 265/576/241 268/644/241 267/577/241
f 255/555/242 266/580/242 267/557/242
f 260/556/243 268/558/243 265/579/243
f 256/554/264 265/579/264 266/580/264
