texture textures/cars.png
v 0.275277 0.281381 0.424902
v 0.374566 0.281381 0.424902
v 0.275277 0.227662 0.350964
v 0.374566 0.227662 0.350964
v 0.275277 0.140742 0.322722
v 0.374566 0.140742 0.322722
v 0.275277 0.053822 0.350964
v 0.374566 0.053822 0.350964
v 0.275277 0.000102 0.424902
v 0.374566 0.000102 0.424902
v 0.275277 0.000102 0.516295
v 0.374566 0.000102 0.516295
v 0.275277 0.053822 0.590234
v 0.374566 0.053822 0.590234
v 0.275277 0.140742 0.618475
v 0.374566 0.140742 0.618475
v 0.275277 0.227662 0.590234
v 0.374566 0.227662 0.590234
v 0.275277 0.281381 0.516295
v 0.374566 0.281381 0.516295
vt 0.612156 0.971647
vt 0.524372 0.959848
vt 0.524372 0.971647
vt 0.612156 0.959848
vt 0.524372 0.940757
vt 0.612156 0.940757
vt 0.524372 0.921665
vt 0.612156 0.921665
vt 0.524372 0.909866
vt 0.612156 0.909866
vt 0.524372 0.909866
vt 0.612156 0.909866
vt 0.524372 0.921665
vt 0.612156 0.921665
vt 0.524372 0.940757
vt 0.612156 0.940757
vt 0.524372 0.959848
vt 0.612156 0.959848
vt 0.524372 0.971647
vt 0.612156 0.971647
vt 0.512421 0.891662
vt 0.519896 0.891662
vt 0.518469 0.897068
vt 0.250082 0.022727
vt 0.383670 0.433867
vt 0.116495 0.433868
vt 0.516159 0.897992
vt 0.513849 0.897068
vt 0.512421 0.894650
vt 0.513849 0.889244
vt 0.516159 0.888320
vt 0.518469 0.889244
vt 0.519896 0.894650
vt 0.033933 0.320231
vt 0.033933 0.179769
vt 0.116495 0.066133
vt 0.383670 0.066133
vt 0.466232 0.179769
vt 0.466232 0.320231
vt 0.250082 0.477273
vn 0.0000 0.9511 -0.3090
vn 0.0000 0.5878 -0.8090
vn 0.0000 0.0000 -1.0000
vn 0.0000 -0.5878 -0.8090
vn 0.0000 -0.9511 -0.3090
vn 0.0000 -0.9511 0.3090
vn 0.0000 -0.5878 0.8090
vn 0.0000 -0.0000 1.0000
vn 0.0000 0.5878 0.8090
vn 0.0000 0.9511 0.3090
vn -1.0000 0.0000 0.0000
vn 1.0000 -0.0000 0.0000
s 1
f 2/1/1 3/2/2 1/3/1
f 4/4/2 5/5/3 3/2/2
f 6/6/3 7/7/4 5/5/3
f 8/8/4 9/9/5 7/7/4
f 10/10/5 11/11/6 9/9/5
f 12/12/6 13/13/7 11/11/6
f 14/14/7 15/15/8 13/13/7
f 16/16/8 17/17/9 15/15/8
f 18/18/9 19/19/10 17/17/9
f 20/20/10 1/3/1 19/19/10
f 7/21/11 15/22/11 19/23/11
f 18/24/12 10/25/12 6/26/12
f 2/1/1 4/4/2 3/2/2
f 4/4/2 6/6/3 5/5/3
f 6/6/3 8/8/4 7/7/4
f 8/8/4 10/10/5 9/9/5
f 10/10/5 12/12/6 11/11/6
f 12/12/6 14/14/7 13/13/7
f 14/14/7 16/16/8 15/15/8
f 16/16/8 18/18/9 17/17/9
f 18/18/9 20/20/10 19/19/10
f 20/20/10 2/1/1 1/3/1
f 19/23/11 1/27/11 7/21/11
f 3/28/11 5/29/11 7/21/11
f 7/21/11 9/30/11 11/31/11
f 11/31/11 13/32/11 15/22/11
f 15/22/11 17/33/11 19/23/11
f 1/27/11 3/28/11 7/21/11
f 7/21/11 11/31/11 15/22/11
f 6/26/12 4/34/12 2/35/12
f 2/35/12 20/36/12 6/26/12
f 18/24/12 16/37/12 14/38/12
f 14/38/12 12/39/12 18/24/12
f 10/25/12 8/40/12 6/26/12
f 6/26/12 20/36/12 18/24/12
f 18/24/12 12/39/12 10/25/12
o RLW_Cylinder.005
v 0.275277 0.281381 -0.493596
v 0.374566 0.281381 -0.493596
v 0.275277 0.227662 -0.567534
v 0.374566 0.227662 -0.567534
v 0.275277 0.140742 -0.595776
v 0.374566 0.140742 -0.595776
v 0.275277 0.053822 -0.567534
v 0.374566 0.053822 -0.567534
v 0.275277 0.000103 -0.493596
v 0.374566 0.000103 -0.493596
v 0.275277 0.000103 -0.402203
v 0.374566 0.000103 -0.402203
v 0.275277 0.053822 -0.328264
v 0.374566 0.053822 -0.328264
v 0.275277 0.140742 -0.300022
v 0.374566 0.140742 -0.300022
v 0.275277 0.227662 -0.328264
v 0.374566 0.227662 -0.328264
v 0.275277 0.281381 -0.402203
v 0.374566 0.281381 -0.402203
vt 0.612156 0.971647
vt 0.524372 0.959848
vt 0.524372 0.971647
vt 0.612156 0.959848
vt 0.524372 0.940757
vt 0.612156 0.940757
vt 0.524372 0.921665
vt 0.612156 0.921665
vt 0.524372 0.909866
vt 0.612156 0.909866
vt 0.524372 0.909866
vt 0.524372 0.921665
vt 0.612156 0.921665
vt 0.524372 0.940757
vt 0.612156 0.940757
vt 0.524372 0.959848
vt 0.612156 0.959848
vt 0.524372 0.971647
vt 0.612156 0.971647
vt 0.512421 0.891662
vt 0.519896 0.891662
vt 0.518469 0.897068
vt 0.250082 0.022727
vt 0.383670 0.433867
vt 0.116495 0.433868
vt 0.612156 0.909866
vt 0.516159 0.897992
vt 0.513849 0.897068
vt 0.512421 0.894650
vt 0.513849 0.889244
vt 0.516159 0.888320
vt 0.518469 0.889244
vt 0.519896 0.894650
vt 0.033933 0.320231
vt 0.033933 0.179769
vt 0.116495 0.066133
vt 0.383670 0.066133
vt 0.466232 0.179769
vt 0.466232 0.320231
vt 0.250082 0.477273
vn 0.0000 0.9511 -0.3090
vn 0.0000 0.5878 -0.8090
vn -0.0000 -0.0000 -1.0000
vn 0.0000 -0.5878 -0.8090
vn 0.0000 -0.9511 -0.3090
vn 0.0000 -0.9511 0.3090
vn 0.0000 -0.5878 0.8090
vn 0.0000 -0.0000 1.0000
vn 0.0000 0.5878 0.8090
vn 0.0000 0.9511 0.3090
vn -1.0000 -0.0000 0.0000
vn 1.0000 0.0000 0.0000
s 1
f 22/41/13 23/42/14 21/43/13
f 24/44/14 25/45/15 23/42/14
f 26/46/15 27/47/16 25/45/15
f 28/48/16 29/49/17 27/47/16
f 29/49/17 32/50/18 31/51/18
f 32/50/18 33/52/19 31/51/18
f 34/53/19 35/54/20 33/52/19
f 36/55/20 37/56/21 35/54/20
f 38/57/21 39/58/22 37/56/21
f 40/59/22 21/43/13 39/58/22
f 27/60/23 35/61/23 39/62/23
f 38/63/24 30/64/24 26/65/24
f 22/41/13 24/44/14 23/42/14
f 24/44/14 26/46/15 25/45/15
f 26/46/15 28/48/16 27/47/16
f 28/48/16 30/66/17 29/49/17
f 29/49/17 30/66/17 32/50/18
f 32/50/18 34/53/19 33/52/19
f 34/53/19 36/55/20 35/54/20
f 36/55/20 38/57/21 37/56/21
f 38/57/21 40/59/22 39/58/22
f 40/59/22 22/41/13 21/43/13
f 39/62/23 21/67/23 27/60/23
f 23/68/23 25/69/23 27/60/23
f 27/60/23 29/70/23 31/71/23
f 31/71/23 33/72/23 35/61/23
f 35/61/23 37/73/23 39/62/23
f 21/67/23 23/68/23 27/60/23
f 27/60/23 31/71/23 35/61/23
f 26/65/24 24/74/24 22/75/24
f 22/75/24 40/76/24 38/63/24
f 38/63/24 36/77/24 34/78/24
f 34/78/24 32/79/24 38/63/24
f 30/64/24 28/80/24 26/65/24
f 26/65/24 22/75/24 38/63/24
f 38/63/24 32/79/24 30/64/24
o RRW_Cylinder.006
v -0.275277 0.281381 -0.402203
v -0.374566 0.281381 -0.402203
v -0.275277 0.227662 -0.328264
v -0.374566 0.227662 -0.328264
v -0.275277 0.140742 -0.300022
v -0.374566 0.140742 -0.300022
v -0.275277 0.053822 -0.328264
v -0.374566 0.053822 -0.328264
v -0.275277 0.000103 -0.402203
v -0.374566 0.000103 -0.402203
v -0.275277 0.000103 -0.493596
v -0.374566 0.000103 -0.493596
v -0.275277 0.053822 -0.567534
v -0.374566 0.053822 -0.567534
v -0.275277 0.140742 -0.595776
v -0.374566 0.140742 -0.595776
v -0.275277 0.227662 -0.567534
v -0.374566 0.227662 -0.567534
v -0.275277 0.281381 -0.493595
v -0.374566 0.281381 -0.493595
vt 0.612156 0.971647
vt 0.524372 0.959848
vt 0.524372 0.971647
vt 0.612156 0.959848
vt 0.524372 0.940757
vt 0.612156 0.921665
vt 0.524372 0.921665
vt 0.524372 0.909866
vt 0.612156 0.909866
vt 0.524372 0.909866
vt 0.612156 0.909866
vt 0.524372 0.921665
vt 0.612156 0.921665
vt 0.524372 0.940757
vt 0.612156 0.940757
vt 0.524372 0.959848
vt 0.612156 0.959848
vt 0.524372 0.971647
vt 0.612156 0.971647
vt 0.512421 0.891662
vt 0.519896 0.891662
vt 0.518469 0.897068
vt 0.250082 0.022727
vt 0.383670 0.433867
vt 0.116495 0.433868
vt 0.612156 0.940757
vt 0.516159 0.897992
vt 0.513849 0.897068
vt 0.512421 0.894650
vt 0.513849 0.889244
vt 0.516159 0.888320
vt 0.518469 0.889244
vt 0.519896 0.894650
vt 0.033933 0.320231
vt 0.033933 0.179769
vt 0.116495 0.066133
vt 0.383670 0.066133
vt 0.466232 0.179769
vt 0.466232 0.320231
vt 0.250082 0.477273
vn 0.0000 0.9511 0.3090
vn 0.0000 0.5878 0.8090
vn -0.0000 -0.0000 1.0000
vn 0.0000 -0.5878 0.8090
vn 0.0000 -0.9511 0.3090
vn 0.0000 -0.9511 -0.3090
vn 0.0000 -0.5878 -0.8090
vn -0.0000 0.0000 -1.0000
vn 0.0000 0.5878 -0.8090
vn 0.0000 0.9511 -0.3090
vn 1.0000 -0.0000 0.0000
vn -1.0000 -0.0000 0.0000
s 1
f 42/81/25 43/82/26 41/83/25
f 44/84/26 45/85/27 43/82/26
f 45/85/27 48/86/28 47/87/28
f 48/86/28 49/88/29 47/87/28
f 50/89/29 51/90/30 49/88/29
f 52/91/30 53/92/31 51/90/30
f 54/93/31 55/94/32 53/92/31
f 56/95/32 57/96/33 55/94/32
f 58/97/33 59/98/34 57/96/33
f 60/99/34 41/83/25 59/98/34
f 47/100/35 55/101/35 59/102/35
f 58/103/36 50/104/36 46/105/36
f 42/81/25 44/84/26 43/82/26
f 44/84/26 46/106/27 45/85/27
f 45/85/27 46/106/27 48/86/28
f 48/86/28 50/89/29 49/88/29
f 50/89/29 52/91/30 51/90/30
f 52/91/30 54/93/31 53/92/31
f 54/93/31 56/95/32 55/94/32
f 56/95/32 58/97/33 57/96/33
f 58/97/33 60/99/34 59/98/34
f 60/99/34 42/81/25 41/83/25
f 59/102/35 41/107/35 47/100/35
f 43/108/35 45/109/35 47/100/35
f 47/100/35 49/110/35 51/111/35
f 51/111/35 53/112/35 55/101/35
f 55/101/35 57/113/35 59/102/35
f 41/107/35 43/108/35 47/100/35
f 47/100/35 51/111/35 55/101/35
f 46/105/36 44/114/36 42/115/36
f 42/115/36 60/116/36 46/105/36
f 58/103/36 56/117/36 54/118/36
f 54/118/36 52/119/36 58/103/36
f 50/104/36 48/120/36 46/105/36
f 46/105/36 60/116/36 58/103/36
f 58/103/36 52/119/36 50/104/36
o FRW_Cylinder.007
v -0.275277 0.281381 0.516295
v -0.374566 0.281381 0.516295
v -0.275277 0.227662 0.590234
v -0.374566 0.227662 0.590234
v -0.275277 0.140742 0.618475
v -0.374566 0.140742 0.618475
v -0.275277 0.053822 0.590234
v -0.374566 0.053822 0.590234
v -0.275277 0.000102 0.516295
v -0.374566 0.000102 0.516295
v -0.275277 0.000102 0.424902
v -0.374566 0.000102 0.424902
v -0.275277 0.053822 0.350964
v -0.374566 0.053822 0.350964
v -0.275277 0.140742 0.322722
v -0.374566 0.140742 0.322722
v -0.275277 0.227662 0.350964
v -0.374566 0.227662 0.350964
v -0.275277 0.281381 0.424902
v -0.374566 0.281381 0.424902
vt 0.612156 0.971647
vt 0.524372 0.959848
vt 0.524372 0.971647
vt 0.612156 0.959848
vt 0.524372 0.940757
vt 0.612156 0.940757
vt 0.524372 0.921665
vt 0.612156 0.921665
vt 0.524372 0.909866
vt 0.612156 0.909866
vt 0.524372 0.909866
vt 0.612156 0.909866
vt 0.524372 0.921665
vt 0.612156 0.921665
vt 0.524372 0.940757
vt 0.612156 0.940757
vt 0.524372 0.959848
vt 0.612156 0.959848
vt 0.524372 0.971647
vt 0.612156 0.971647
vt 0.516159 0.888320
vt 0.519896 0.891662
vt 0.518469 0.897068
vt 0.250082 0.022727
vt 0.383670 0.433867
vt 0.116495 0.433868
vt 0.516159 0.897992
vt 0.512421 0.891662
vt 0.513849 0.897068
vt 0.512421 0.894650
vt 0.513849 0.889244
vt 0.518469 0.889244
vt 0.519896 0.894650
vt 0.033933 0.320231
vt 0.033933 0.179769
vt 0.116495 0.066133
vt 0.383670 0.066133
vt 0.466232 0.179769
vt 0.466232 0.320231
vt 0.250082 0.477273
vn 0.0000 0.9511 0.3090
vn 0.0000 0.5878 0.8090
vn 0.0000 -0.0000 1.0000
vn 0.0000 -0.5878 0.8090
vn 0.0000 -0.9511 0.3090
vn 0.0000 -0.9511 -0.3090
vn 0.0000 -0.5878 -0.8090
vn 0.0000 0.0000 -1.0000
vn 0.0000 0.5878 -0.8090
vn 0.0000 0.9511 -0.3090
vn 1.0000 0.0000 -0.0000
vn -1.0000 -0.0000 -0.0000
s 1
f 62/121/37 63/122/38 61/123/37
f 64/124/38 65/125/39 63/122/38
f 66/126/39 67/127/40 65/125/39
f 68/128/40 69/129/41 67/127/40
f 70/130/41 71/131/42 69/129/41
f 72/132/42 73/133/43 71/131/42
f 74/134/43 75/135/44 73/133/43
f 76/136/44 77/137/45 75/135/44
f 78/138/45 79/139/46 77/137/45
f 80/140/46 61/123/37 79/139/46
f 71/141/47 75/142/47 79/143/47
f 78/144/48 70/145/48 66/146/48
f 62/121/37 64/124/38 63/122/38
f 64/124/38 66/126/39 65/125/39
f 66/126/39 68/128/40 67/127/40
f 68/128/40 70/130/41 69/129/41
f 70/130/41 72/132/42 71/131/42
f 72/132/42 74/134/43 73/133/43
f 74/134/43 76/136/44 75/135/44
f 76/136/44 78/138/45 77/137/45
f 78/138/45 80/140/46 79/139/46
f 80/140/46 62/121/37 61/123/37
f 79/143/47 61/147/47 67/148/47
f 63/149/47 65/150/47 67/148/47
f 67/148/47 69/151/47 71/141/47
f 71/141/47 73/152/47 75/142/47
f 75/142/47 77/153/47 79/143/47
f 61/147/47 63/149/47 67/148/47
f 67/148/47 71/141/47 79/143/47
f 66/146/48 64/154/48 62/155/48
f 62/155/48 80/156/48 66/146/48
f 78/144/48 76/157/48 74/158/48
f 74/158/48 72/159/48 78/144/48
f 70/145/48 68/160/48 66/146/48
f 66/146/48 80/156/48 78/144/48
f 78/144/48 72/159/48 70/145/48
o Body_Plane.001
v 0.329663 0.336246 0.804556
v 0.355980 0.394354 0.224193
v 0.338128 0.302777 0.831134
v 0.346003 0.160875 0.831134
v 0.346003 0.160875 0.868868
v 0.346003 0.106735 0.868868
v 0.346003 0.106735 0.831134
v 0.369135 0.106735 0.655130
v 0.369135 0.262593 0.607553
v 0.369135 0.313287 0.470891
v 0.369135 0.262593 0.314213
v 0.337076 0.086690 0.286323
v 0.355981 0.394354 -0.481235
v 0.337076 0.086690 -0.280108
v 0.361988 0.262999 -0.313863
v 0.276617 0.582958 0.082128
v 0.276617 0.582958 -0.317125
v 0.361988 0.317003 -0.464251
v 0.361988 0.251379 -0.598956
v 0.361988 0.106736 -0.621514
v 0.355981 0.364009 -0.858195
v 0.355981 0.297172 -0.908991
v 0.355981 0.190852 -0.908991
v 0.355981 0.190852 -0.957984
v 0.355981 0.128966 -0.957984
v 0.355981 0.128966 -0.908989
v 0.239776 0.106735 0.655130
v 0.239776 0.262593 0.607553
v 0.239776 0.313287 0.470891
v 0.239776 0.262593 0.314213
v 0.239776 0.086690 0.286323
v 0.239776 0.086690 -0.280108
v 0.239776 0.262999 -0.313863
v 0.239776 0.317003 -0.464251
v 0.239776 0.251379 -0.598956
v 0.239776 0.106736 -0.621514
v 0.264123 0.567292 0.093928
v 0.335500 0.408834 0.213286
v 0.265759 0.569122 -0.329164
v 0.333293 0.408685 -0.468765
v 0.283798 0.565893 0.070756
v 0.283798 0.565893 -0.304084
v 0.349518 0.409712 -0.444511
v 0.349518 0.409712 0.187564
v 0.283798 0.565893 -0.115218
v 0.349518 0.409712 -0.115218
v 0.349518 0.409712 -0.157216
v 0.283798 0.565893 -0.157216
v 0.322159 0.284716 0.831134
v 0.329393 0.176411 0.831134
v 0.000000 0.336246 0.839871
v -0.329663 0.336246 0.804556
v 0.000000 0.394354 0.224193
v -0.355980 0.394354 0.224193
v 0.000000 0.302777 0.866448
v -0.338128 0.302777 0.831134
v 0.000000 0.160875 0.866448
v -0.346003 0.160875 0.831134
v 0.000000 0.160875 0.904182
v -0.346003 0.160875 0.868868
v 0.000000 0.106735 0.904182
v -0.346003 0.106735 0.868868
v 0.000000 0.106735 0.831134
v -0.346003 0.106735 0.831134
v -0.369135 0.106735 0.655130
v -0.369135 0.262593 0.607553
v -0.369135 0.313287 0.470891
v -0.369135 0.262593 0.314213
v -0.337076 0.086690 0.286323
v -0.355981 0.394354 -0.481235
v -0.337076 0.086690 -0.280108
v -0.361988 0.262999 -0.313863
v 0.000000 0.582958 0.082128
v -0.276617 0.582958 0.082128
v 0.000000 0.582958 -0.317125
v -0.276617 0.582958 -0.317125
v 0.000000 0.394354 -0.481235
v -0.361988 0.317003 -0.464251
v -0.361988 0.251379 -0.598956
v -0.361988 0.106736 -0.621514
v -0.355981 0.364009 -0.858195
v 0.000000 0.364009 -0.885238
v -0.355981 0.297172 -0.908991
v 0.000000 0.297172 -0.936034
v -0.355981 0.190852 -0.908991
v 0.000000 0.190852 -0.936034
v -0.355981 0.190852 -0.957984
v 0.000000 0.190852 -0.985027
v -0.355981 0.128966 -0.957984
v 0.000000 0.128966 -0.985027
v -0.355981 0.128966 -0.908989
v 0.000000 0.128966 -0.908989
v -0.239776 0.106735 0.655130
v -0.239776 0.262593 0.607553
v -0.239776 0.313287 0.470891
v -0.239776 0.262593 0.314213
v -0.239776 0.086690 0.286323
v -0.239776 0.086690 -0.280108
v -0.239776 0.262999 -0.313863
v -0.239776 0.317003 -0.464251
v -0.239776 0.251379 -0.598956
v -0.239776 0.106736 -0.621514
v 0.000000 0.086690 0.286323
v 0.000000 0.086690 -0.280108
v 0.000000 0.567296 0.093925
v -0.264123 0.567292 0.093928
v 0.000000 0.408830 0.213289
v -0.335500 0.408834 0.213286
v 0.000000 0.569128 -0.329159
v -0.265759 0.569122 -0.329164
v 0.000000 0.408690 -0.468761
v -0.333293 0.408685 -0.468765
v -0.283798 0.565893 0.070756
v -0.283798 0.565893 -0.304084
v -0.349518 0.409712 -0.444511
v -0.349518 0.409712 0.187564
v -0.283798 0.565893 -0.115218
v -0.349518 0.409712 -0.115218
v -0.349518 0.409712 -0.157216
v -0.283798 0.565893 -0.157216
v 0.000000 0.284722 0.866448
v 0.000000 0.176406 0.866448
v -0.322159 0.284716 0.831134
v -0.329393 0.176411 0.831134
v 0.190850 0.073091 -0.802010
v 0.190850 0.125425 -0.819067
v 0.190850 0.068903 -0.936981
v 0.190850 0.123947 -0.936981
v 0.245894 0.073091 -0.802010
v 0.245894 0.125425 -0.819067
v 0.245894 0.068903 -0.936981
v 0.245894 0.123947 -0.936981
v 0.190850 0.116271 -0.695213
v 0.190850 0.168606 -0.712269
v 0.245894 0.116271 -0.695213
v 0.245894 0.168606 -0.712269
vt 0.451690 0.731673
vt 0.452078 0.730990
vt 0.452078 0.731673
vt 0.446750 0.704876
vt 0.446702 0.705264
vt 0.446702 0.704866
vt 0.486444 0.692047
vt 0.486276 0.692019
vt 0.486464 0.692029
vt 0.274168 0.804386
vt 0.274212 0.804793
vt 0.274168 0.804793
vt 0.415876 0.728144
vt 0.415816 0.727737
vt 0.415876 0.727737
vt 0.414698 0.702023
vt 0.415105 0.702068
vt 0.414698 0.702068
vt 0.414079 0.725895
vt 0.414016 0.725940
vt 0.414016 0.725895
vt 0.490208 0.693051
vt 0.490140 0.692844
vt 0.490203 0.692844
vt 0.489944 0.692844
vt 0.490027 0.693108
vt 0.489903 0.692876
vt 0.489969 0.693269
vt 0.489872 0.693559
vt 0.490028 0.693453
vt 0.495721 0.725860
vt 0.495895 0.726559
vt 0.495720 0.726599
vt 0.457218 0.707988
vt 0.479126 0.696651
vt 0.485955 0.707897
vt 0.303599 0.950388
vt 0.303620 0.949993
vt 0.303620 0.950388
vt 0.296705 0.795984
vt 0.297030 0.795514
vt 0.297030 0.795984
vt 0.303506 0.951712
vt 0.303526 0.951400
vt 0.303526 0.951712
vt 0.302115 0.951559
vt 0.302096 0.951516
vt 0.302096 0.951177
vt 0.451659 0.732215
vt 0.452078 0.731772
vt 0.452078 0.732215
vt 0.446545 0.704339
vt 0.446639 0.704758
vt 0.446545 0.704758
vt 0.451188 0.644672
vt 0.471808 0.636755
vt 0.471808 0.644672
vt 0.273228 0.805488
vt 0.273286 0.805907
vt 0.273228 0.805907
vt 0.414716 0.727788
vt 0.414784 0.728207
vt 0.414716 0.728207
vt 0.414686 0.704173
vt 0.415105 0.704115
vt 0.415105 0.704173
vt 0.413985 0.727987
vt 0.414057 0.728045
vt 0.413985 0.728045
vt 0.490208 0.694553
vt 0.490109 0.694892
vt 0.490040 0.694527
vt 0.489951 0.694892
vt 0.489874 0.694832
vt 0.489964 0.694369
vt 0.489873 0.694389
vt 0.485258 0.701248
vt 0.303634 0.924232
vt 0.303482 0.924071
vt 0.303634 0.924071
vt 0.302093 0.925343
vt 0.302237 0.925496
vt 0.302093 0.925496
vt 0.303760 0.923773
vt 0.303646 0.923613
vt 0.303790 0.923613
vt 0.303482 0.923887
vt 0.303634 0.923887
vt 0.303547 0.923767
vt 0.303395 0.923613
vt 0.303547 0.923613
vt 0.303651 0.923430
vt 0.303507 0.923253
vt 0.303650 0.923253
vt 0.303507 0.923095
vt 0.303651 0.923095
vt 0.303182 0.923776
vt 0.303296 0.923613
vt 0.303296 0.923776
vt 0.303383 0.924320
vt 0.303202 0.923943
vt 0.303383 0.923887
vt 0.303144 0.924104
vt 0.303202 0.924288
vt 0.303294 0.925339
vt 0.303113 0.924977
vt 0.303294 0.924937
vt 0.303050 0.925154
vt 0.303126 0.925313
vt 0.302245 0.923780
vt 0.302131 0.924447
vt 0.302131 0.923780
vt 0.302527 0.924447
vt 0.302245 0.924447
vt 0.302093 0.923346
vt 0.302120 0.923139
vt 0.302245 0.923346
vt 0.302527 0.923139
vt 0.302527 0.923780
vt 0.302108 0.925187
vt 0.302245 0.924849
vt 0.302527 0.925187
vt 0.303841 0.950077
vt 0.303863 0.950388
vt 0.303841 0.950388
vt 0.989838 0.879734
vt 0.991840 0.996960
vt 0.989838 0.996966
vt 0.303863 0.950063
vt 0.920100 0.997063
vt 0.924568 0.880587
vt 0.924568 0.997065
vt 0.303759 0.951320
vt 0.303779 0.951712
vt 0.303759 0.951712
vt 0.303506 0.951387
vt 0.303779 0.951294
vt 0.302095 0.950772
vt 0.301879 0.950896
vt 0.302114 0.950729
vt 0.962824 0.995787
vt 0.959701 0.880827
vt 0.965810 0.880827
vt 0.958808 0.880827
vt 0.954853 0.995787
vt 0.952369 0.880827
vt 0.301901 0.951128
vt 0.302096 0.951128
vt 0.301880 0.951365
vt 0.301901 0.950909
vt 0.301901 0.951177
vt 0.301901 0.951350
vt 0.452510 0.666612
vt 0.492608 0.676862
vt 0.452510 0.676862
vt 0.486464 0.692426
vt 0.486444 0.692426
vt 0.486294 0.692039
vt 0.486276 0.692426
vt 0.451659 0.730990
vt 0.446750 0.705264
vt 0.274212 0.804386
vt 0.415816 0.728144
vt 0.415105 0.702023
vt 0.414079 0.725940
vt 0.495895 0.725892
vt 0.453544 0.696651
vt 0.303599 0.949969
vt 0.296705 0.795514
vt 0.451659 0.731772
vt 0.446639 0.704339
vt 0.451188 0.636755
vt 0.273286 0.805488
vt 0.414784 0.727788
vt 0.414686 0.704115
vt 0.414057 0.727987
vt 0.490181 0.694891
vt 0.303482 0.924232
vt 0.302237 0.925343
vt 0.303646 0.923773
vt 0.303395 0.923767
vt 0.303507 0.923430
vt 0.303144 0.923613
vt 0.302101 0.924849
vt 0.992381 0.879734
vt 0.918965 0.880587
vt 0.959701 0.995787
vt 0.958808 0.995787
vt 0.493408 0.666612
vt 0.486294 0.692426
vt 0.451690 0.731673
vt 0.446750 0.704876
vt 0.446702 0.704866
vt 0.486444 0.692047
vt 0.486464 0.692029
vt 0.486276 0.692019
vt 0.274168 0.804793
vt 0.274212 0.804793
vt 0.415876 0.727737
vt 0.415816 0.727737
vt 0.414698 0.702023
vt 0.414698 0.702068
vt 0.414079 0.725895
vt 0.414016 0.725895
vt 0.414016 0.725940
vt 0.490208 0.693051
vt 0.490203 0.692844
vt 0.490140 0.692844
vt 0.489944 0.692844
vt 0.490027 0.693108
vt 0.489903 0.692876
vt 0.489872 0.693559
vt 0.489969 0.693269
vt 0.490028 0.693453
vt 0.495721 0.725860
vt 0.495720 0.726599
vt 0.495895 0.726559
vt 0.457218 0.707988
vt 0.485955 0.707897
vt 0.479126 0.696651
vt 0.303620 0.949993
vt 0.296705 0.795984
vt 0.303526 0.951400
vt 0.302115 0.951559
vt 0.302096 0.951177
vt 0.302096 0.951516
vt 0.451659 0.732215
vt 0.446545 0.704339
vt 0.451188 0.644672
vt 0.273228 0.805488
vt 0.414716 0.727788
vt 0.414686 0.704173
vt 0.413985 0.727987
vt 0.413985 0.728045
vt 0.414057 0.728045
vt 0.490208 0.694553
vt 0.490040 0.694527
vt 0.490109 0.694892
vt 0.489951 0.694892
vt 0.489964 0.694369
vt 0.489874 0.694832
vt 0.489873 0.694389
vt 0.485258 0.701248
vt 0.303634 0.924232
vt 0.303634 0.924071
vt 0.303482 0.924071
vt 0.302093 0.925343
vt 0.302093 0.925496
vt 0.302237 0.925496
vt 0.303760 0.923773
vt 0.303790 0.923613
vt 0.303646 0.923613
vt 0.303634 0.923887
vt 0.303482 0.923887
vt 0.303547 0.923767
vt 0.303547 0.923613
vt 0.303395 0.923613
vt 0.303651 0.923430
vt 0.303650 0.923253
vt 0.303507 0.923253
vt 0.303651 0.923095
vt 0.303507 0.923095
vt 0.303182 0.923776
vt 0.303296 0.923776
vt 0.303296 0.923613
vt 0.303383 0.924320
vt 0.303383 0.923887
vt 0.303202 0.923943
vt 0.303144 0.924104
vt 0.303202 0.924288
vt 0.303294 0.925339
vt 0.303294 0.924937
vt 0.303113 0.924977
vt 0.303050 0.925154
vt 0.303126 0.925313
vt 0.302245 0.923780
vt 0.302131 0.923780
vt 0.302131 0.924447
vt 0.302245 0.924447
vt 0.302093 0.923346
vt 0.302245 0.923346
vt 0.302120 0.923139
vt 0.302108 0.925187
vt 0.302245 0.924849
vt 0.303841 0.950077
vt 0.991840 0.996960
vt 0.303863 0.950063
vt 0.920100 0.997063
vt 0.303759 0.951320
vt 0.303779 0.951294
vt 0.303506 0.951387
vt 0.302095 0.950772
vt 0.302114 0.950729
vt 0.301879 0.950896
vt 0.962824 0.995787
vt 0.965810 0.880827
vt 0.959701 0.880827
vt 0.958808 0.880827
vt 0.952369 0.880827
vt 0.954853 0.995787
vt 0.302096 0.951128
vt 0.301901 0.951128
vt 0.301880 0.951365
vt 0.301901 0.950909
vt 0.301901 0.951350
vt 0.301901 0.951177
vt 0.492608 0.676862
vt 0.486294 0.692039
vt 0.451659 0.730990
vt 0.414079 0.725940
vt 0.495895 0.725892
vt 0.453544 0.696651
vt 0.303599 0.949969
vt 0.296705 0.795514
vt 0.451659 0.731772
vt 0.446639 0.704339
vt 0.451188 0.636755
vt 0.273286 0.805488
vt 0.414784 0.727788
vt 0.414686 0.704115
vt 0.414057 0.727987
vt 0.490181 0.694891
vt 0.303482 0.924232
vt 0.302237 0.925343
vt 0.303646 0.923773
vt 0.303395 0.923767
vt 0.303507 0.923430
vt 0.303144 0.923613
vt 0.302101 0.924849
vt 0.992381 0.879734
vt 0.918965 0.880587
vt 0.959701 0.995787
vt 0.958808 0.995787
vt 0.493408 0.666612
vt 0.307698 0.984937
vt 0.302833 0.984937
vt 0.302833 0.980072
vt 0.307698 0.980072
vt 0.248159 0.951208
vt 0.236306 0.951208
vt 0.236306 0.939354
vt 0.248159 0.939354
vt 0.302347 0.984937
vt 0.297482 0.984937
vt 0.297482 0.980072
vt 0.302347 0.980072
vt 0.302347 0.995640
vt 0.297482 0.995640
vt 0.297482 0.990775
vt 0.302347 0.990775
vt 0.307698 0.985424
vt 0.307698 0.990289
vt 0.302833 0.990289
vt 0.302833 0.985424
vt 0.297482 0.990775
vt 0.302347 0.990775
vt 0.302833 0.990289
vt 0.302833 0.985424
vt 0.297482 0.980072
vt 0.302347 0.980072
vt 0.307698 0.984937
vt 0.302833 0.984937
vn 0.0068 0.9954 0.0958
vn 0.0000 0.9952 0.0978
vn 0.0000 0.9956 0.0940
vn 0.0807 0.6313 0.7713
vn 0.0833 0.6208 0.7795
vn 0.0805 0.6323 0.7706
vn 0.0659 -0.0311 0.9973
vn 0.0504 0.0539 0.9973
vn 0.0541 -0.0479 0.9974
vn -0.0000 1.0000 0.0000
vn 0.1015 0.0000 0.9948
vn 0.0000 -1.0000 -0.0000
vn 0.0000 -0.9999 0.0110
vn 1.0000 0.0000 0.0000
vn 0.9922 0.0306 0.1210
vn 0.9915 0.0285 0.1268
vn 0.9915 0.0000 0.1303
vn 0.9803 0.1667 0.1060
vn 0.9772 0.1846 0.1053
vn 0.9493 0.3039 0.0802
vn 0.9418 0.3298 0.0654
vn 0.9939 0.1100 -0.0065
vn 0.9962 0.0850 -0.0212
vn 0.9852 -0.1717 -0.0023
vn 0.9889 -0.1482 -0.0095
vn 0.9898 -0.1420 -0.0114
vn 0.9985 0.0541 0.0025
vn 0.9975 0.0713 0.0034
vn 0.0000 0.6017 0.7988
vn 0.0000 0.6564 -0.7544
vn 0.9217 0.3879 -0.0000
vn 0.9217 0.3878 0.0000
vn 0.0028 0.9970 -0.0774
vn 0.0000 0.9970 -0.0777
vn 0.0000 0.9972 -0.0749
vn 0.0604 0.6040 -0.7947
vn 0.0757 0.0000 -0.9971
vn 0.0758 0.0000 -0.9971
vn 0.9999 0.0003 -0.0134
vn 0.9998 0.0027 -0.0201
vn 0.9998 0.0157 -0.0155
vn 0.9998 0.0057 -0.0185
vn 0.9997 0.0202 -0.0158
vn 0.9973 0.0730 0.0126
vn 0.0000 -0.6860 -0.7276
vn 0.0000 -0.9998 -0.0211
vn 0.0000 -0.5941 0.8044
vn 0.0000 -0.1541 0.9881
vn 0.0000 -0.1880 -0.9822
vn 0.0000 -0.6500 -0.7599
vn 0.0000 -0.6697 -0.7426
vn 0.0000 -0.6500 0.7600
vn 0.0000 -0.6775 0.7355
vn 0.0000 -0.2920 -0.9564
vn 0.0000 -0.9985 0.0543
vn 0.0000 -0.1566 0.9877
vn 0.0000 -0.9998 0.0181
vn 0.0000 -0.9995 -0.0310
vn 0.0000 -0.9998 -0.0195
vn 0.0093 -0.9998 0.0193
vn 0.0000 -0.9997 0.0239
vn 0.0000 -0.9970 -0.0771
vn -0.0047 -0.9975 -0.0708
vn 0.0000 -0.9974 -0.0727
vn 0.1075 0.0007 0.9942
vn 0.1090 -0.0000 0.9940
vn 0.1088 -0.0033 0.9941
vn 0.0641 0.0420 0.9971
vn 0.1064 0.0032 0.9943
vn 0.0000 0.9950 0.0996
vn 0.0836 0.6197 0.7804
vn 0.9838 -0.1793 -0.0000
vn 0.0061 0.9968 -0.0802
vn 0.9999 -0.0000 -0.0107
vn -0.0068 0.9954 0.0958
vn -0.0807 0.6313 0.7713
vn -0.0805 0.6323 0.7706
vn -0.0833 0.6208 0.7795
vn -0.0659 -0.0311 0.9973
vn -0.0541 -0.0479 0.9974
vn -0.0504 0.0539 0.9973
vn -0.1015 0.0000 0.9948
vn -1.0000 0.0000 0.0000
vn -0.9922 0.0306 0.1210
vn -0.9915 0.0000 0.1303
vn -0.9915 0.0285 0.1268
vn -0.9803 0.1667 0.1060
vn -0.9772 0.1846 0.1053
vn -0.9493 0.3039 0.0802
vn -0.9939 0.1100 -0.0065
vn -0.9418 0.3298 0.0654
vn -0.9962 0.0850 -0.0212
vn -0.9852 -0.1717 -0.0023
vn -0.9898 -0.1420 -0.0114
vn -0.9889 -0.1482 -0.0095
vn -0.9975 0.0713 0.0034
vn -0.9985 0.0541 0.0025
vn -0.9217 0.3879 -0.0000
vn -0.9217 0.3878 0.0000
vn -0.0028 0.9970 -0.0774
vn -0.0604 0.6040 -0.7947
vn -0.0757 0.0000 -0.9971
vn -0.0758 0.0000 -0.9971
vn -0.9999 0.0003 -0.0134
vn -0.9998 0.0027 -0.0201
vn -0.9998 0.0157 -0.0155
vn -0.9998 0.0057 -0.0185
vn -0.9973 0.0730 0.0126
vn -0.9997 0.0202 -0.0158
vn -0.0093 -0.9998 0.0193
vn 0.0047 -0.9975 -0.0708
vn -0.1075 0.0007 0.9942
vn -0.1090 -0.0000 0.9940
vn -0.1088 -0.0033 0.9941
vn -0.0641 0.0420 0.9971
vn -0.1064 0.0032 0.9943
vn -0.0836 0.6197 0.7804
vn -0.9838 -0.1793 -0.0000
vn -0.0061 0.9968 -0.0802
vn -0.9999 -0.0000 -0.0107
vn 0.0000 0.0000 -1.0000
vn 0.0000 -0.9995 0.0310
vn 0.0000 0.9999 -0.0125
vn 0.0000 -0.9271 0.3748
vn 0.0000 0.9271 -0.3748
s 1
f 81/161/49 133/162/50 131/163/51
f 81/164/52 135/165/53 83/166/54
f 129/167/55 84/168/56 83/169/57
f 137/170/58 85/171/58 84/172/58
f 139/173/59 86/174/59 85/175/59
f 86/176/60 143/177/61 87/178/60
f 86/179/62 84/180/62 85/181/62
f 88/182/63 84/183/64 87/184/65
f 83/185/66 84/183/64 89/186/67
f 81/187/68 83/185/66 89/186/67
f 81/187/68 90/188/69 82/189/70
f 90/188/69 91/190/71 82/189/70
f 91/191/72 94/192/73 95/193/74
f 82/194/70 95/195/75 93/196/76
f 133/197/77 118/198/77 187/199/77
f 96/200/58 155/201/58 153/202/58
f 155/203/78 119/204/78 189/205/78
f 93/206/79 123/207/79 127/208/80
f 93/209/81 162/210/82 157/211/83
f 101/212/84 164/213/84 162/214/84
f 102/215/85 166/216/86 164/217/86
f 103/218/58 168/219/58 166/220/58
f 104/221/85 170/222/85 168/223/85
f 105/224/60 172/225/60 170/226/60
f 103/227/87 105/228/62 104/229/62
f 100/230/88 103/231/87 99/232/89
f 103/231/87 102/233/90 99/232/89
f 99/232/89 101/234/91 98/235/92
f 101/234/91 93/236/76 98/235/92
f 93/196/76 95/195/75 98/237/92
f 89/238/93 109/239/94 90/240/94
f 99/241/95 116/242/96 100/243/96
f 94/244/97 113/245/98 95/246/99
f 90/240/94 110/247/100 91/248/101
f 88/249/102 108/250/93 89/251/93
f 95/252/99 114/253/103 98/254/103
f 98/254/103 115/255/95 99/256/95
f 92/257/104 110/258/100 111/259/104
f 111/260/62 108/261/62 107/262/62
f 109/263/62 108/261/62 110/264/62
f 116/265/62 113/266/62 112/267/62
f 114/268/62 113/266/62 115/269/62
f 111/270/105 94/271/60 92/272/60
f 111/270/105 184/273/106 112/274/107
f 88/275/60 87/276/60 107/277/108
f 87/276/60 143/278/61 107/277/108
f 111/270/105 107/277/108 183/279/109
f 107/277/108 143/278/61 183/279/109
f 106/280/110 116/281/111 172/282/112
f 116/281/111 184/273/106 172/282/112
f 112/274/107 184/273/106 116/281/111
f 117/283/77 153/284/77 185/285/77
f 187/286/77 117/287/77 185/288/77
f 118/198/77 96/289/77 117/283/77
f 119/290/78 191/291/78 189/292/78
f 120/293/78 157/294/78 191/295/78
f 120/293/78 97/296/78 93/297/78
f 124/298/79 96/299/79 82/300/79
f 122/301/79 127/302/80 123/303/79
f 126/304/79 121/305/79 124/306/79
f 127/208/80 125/307/79 126/308/79
f 97/309/79 123/207/79 93/206/79
f 96/299/79 121/310/79 125/307/79
f 82/300/79 126/308/79 124/298/79
f 126/308/79 93/206/79 127/208/80
f 97/309/79 128/311/79 122/312/79
f 125/307/79 97/309/79 96/299/79
f 202/313/113 129/314/55 201/315/114
f 129/167/55 135/316/115 201/317/114
f 130/318/116 137/319/117 84/168/56
f 81/161/49 82/320/118 133/162/50
f 81/164/52 131/321/119 135/165/53
f 129/167/55 130/318/116 84/168/56
f 137/170/58 139/322/58 85/171/58
f 139/173/59 141/323/59 86/174/59
f 86/176/60 141/324/60 143/177/61
f 86/179/62 87/325/62 84/180/62
f 88/182/63 89/186/67 84/183/64
f 81/187/68 89/186/67 90/188/69
f 91/191/72 92/326/120 94/192/73
f 82/194/70 91/327/71 95/195/75
f 133/197/77 82/328/77 118/198/77
f 96/200/58 97/329/58 155/201/58
f 155/203/78 97/296/78 119/204/78
f 93/209/81 101/330/121 162/210/82
f 101/212/84 102/331/84 164/213/84
f 102/215/85 103/332/85 166/216/86
f 103/218/58 104/333/58 168/219/58
f 104/221/85 105/334/85 170/222/85
f 105/224/60 106/335/60 172/225/60
f 103/227/87 106/336/122 105/228/62
f 100/230/88 106/337/122 103/231/87
f 99/232/89 102/233/90 101/234/91
f 89/238/93 108/338/93 109/239/94
f 99/241/95 115/339/95 116/242/96
f 94/244/97 112/340/97 113/245/98
f 90/240/94 109/239/94 110/247/100
f 88/249/102 107/341/102 108/250/93
f 95/252/99 113/342/98 114/253/103
f 98/254/103 114/253/103 115/255/95
f 92/257/104 91/343/101 110/258/100
f 111/260/62 110/264/62 108/261/62
f 116/265/62 115/269/62 113/266/62
f 111/270/105 112/274/107 94/271/60
f 111/270/105 183/279/109 184/273/106
f 106/280/110 100/344/110 116/281/111
f 117/283/77 96/289/77 153/284/77
f 187/286/77 118/345/77 117/287/77
f 118/198/77 82/328/77 96/289/77
f 119/290/78 120/346/78 191/291/78
f 120/293/78 93/297/78 157/294/78
f 120/293/78 119/204/78 97/296/78
f 124/298/79 121/310/79 96/299/79
f 122/301/79 128/347/79 127/302/80
f 126/304/79 125/348/79 121/305/79
f 127/208/80 128/311/79 125/307/79
f 97/309/79 122/312/79 123/207/79
f 126/308/79 82/300/79 93/206/79
f 125/307/79 128/311/79 97/309/79
f 202/313/113 130/349/116 129/314/55
f 129/167/55 83/169/57 135/316/115
f 130/318/116 202/350/113 137/319/117
f 132/351/123 131/163/51 133/162/50
f 132/352/124 136/353/125 135/165/126
f 203/354/127 136/355/128 138/356/129
f 137/170/58 138/357/58 140/358/58
f 139/173/130 140/359/130 142/360/130
f 142/361/60 144/362/60 143/177/61
f 142/363/131 140/364/131 138/365/131
f 145/366/132 144/367/133 138/368/134
f 136/369/135 146/370/136 138/368/134
f 132/371/137 146/370/136 136/369/135
f 132/371/137 134/372/138 147/373/139
f 147/373/139 134/372/138 148/374/140
f 148/375/141 152/376/142 151/377/143
f 134/378/138 150/379/144 152/380/145
f 133/197/77 187/199/77 188/381/77
f 154/382/58 153/202/58 155/201/58
f 155/203/78 189/205/78 190/383/78
f 150/384/146 199/385/147 195/386/146
f 150/387/148 157/211/83 162/210/82
f 161/388/149 162/214/149 164/213/149
f 163/389/150 164/217/151 166/216/151
f 165/390/58 166/220/58 168/219/58
f 167/391/150 168/223/150 170/222/150
f 169/392/60 170/226/60 172/225/60
f 165/393/152 167/394/131 169/395/131
f 160/396/153 159/397/154 165/398/152
f 165/398/152 159/397/154 163/399/155
f 159/397/154 158/400/156 161/401/157
f 161/401/157 158/400/156 150/402/144
f 150/379/144 158/403/156 152/380/145
f 146/404/93 147/405/94 175/406/94
f 159/407/95 160/408/96 182/409/96
f 151/410/97 152/411/99 179/412/98
f 147/405/94 148/413/101 176/414/100
f 145/415/102 146/416/93 174/417/93
f 152/418/99 158/419/103 180/420/103
f 158/419/103 159/421/95 181/422/95
f 149/423/104 177/424/104 176/425/100
f 177/426/131 173/427/131 174/428/131
f 175/429/131 176/430/131 174/428/131
f 182/431/131 178/432/131 179/433/131
f 180/434/131 181/435/131 179/433/131
f 177/436/105 149/437/60 151/438/60
f 177/436/105 178/439/107 184/273/106
f 145/440/60 173/441/158 144/442/60
f 144/442/60 173/441/158 143/278/61
f 177/436/105 183/279/109 173/441/158
f 173/441/158 183/279/109 143/278/61
f 171/443/110 172/282/112 182/444/159
f 182/444/159 172/282/112 184/273/106
f 178/439/107 182/444/159 184/273/106
f 186/445/77 185/285/77 153/284/77
f 187/286/77 185/288/77 186/446/77
f 188/381/77 186/445/77 154/447/77
f 190/448/78 189/292/78 191/291/78
f 192/449/78 191/295/78 157/294/78
f 192/449/78 150/450/78 156/451/78
f 196/452/146 134/453/146 154/454/146
f 194/455/146 195/456/146 199/457/147
f 198/458/146 196/459/146 193/460/146
f 199/385/147 198/461/146 197/462/146
f 156/463/146 150/384/146 195/386/146
f 154/454/146 197/462/146 193/464/146
f 134/453/146 196/452/146 198/461/146
f 198/461/146 199/385/147 150/384/146
f 156/463/146 194/465/146 200/466/146
f 197/462/146 154/454/146 156/463/146
f 202/313/160 201/315/161 203/467/127
f 203/354/127 201/317/161 135/316/162
f 204/468/163 138/356/129 137/319/164
f 132/351/123 133/162/50 134/469/118
f 132/352/124 135/165/126 131/321/165
f 203/354/127 138/356/129 204/468/163
f 137/170/58 140/358/58 139/322/58
f 139/173/130 142/360/130 141/323/130
f 142/361/60 143/177/61 141/324/60
f 142/363/131 138/365/131 144/470/131
f 145/366/132 138/368/134 146/370/136
f 132/371/137 147/373/139 146/370/136
f 148/375/141 151/377/143 149/471/166
f 134/378/138 152/380/145 148/472/140
f 133/197/77 188/381/77 134/473/77
f 154/382/58 155/201/58 156/474/58
f 155/203/78 190/383/78 156/451/78
f 150/387/148 162/210/82 161/475/167
f 161/388/149 164/213/149 163/476/149
f 163/389/150 166/216/151 165/477/150
f 165/390/58 168/219/58 167/478/58
f 167/391/150 170/222/150 169/479/150
f 169/392/60 172/225/60 171/480/60
f 165/393/152 169/395/131 171/481/168
f 160/396/153 165/398/152 171/482/168
f 159/397/154 161/401/157 163/399/155
f 146/404/93 175/406/94 174/483/93
f 159/407/95 182/409/96 181/484/95
f 151/410/97 179/412/98 178/485/97
f 147/405/94 176/414/100 175/406/94
f 145/415/102 174/417/93 173/486/102
f 152/418/99 180/420/103 179/487/98
f 158/419/103 181/422/95 180/420/103
f 149/423/104 176/425/100 148/488/101
f 177/426/131 174/428/131 176/430/131
f 182/431/131 179/433/131 181/435/131
f 177/436/105 151/438/60 178/439/107
f 177/436/105 184/273/106 183/279/109
f 171/443/110 182/444/159 160/489/110
f 186/445/77 153/284/77 154/447/77
f 187/286/77 186/446/77 188/490/77
f 188/381/77 154/447/77 134/473/77
f 190/448/78 191/291/78 192/491/78
f 192/449/78 157/294/78 150/450/78
f 192/449/78 156/451/78 190/383/78
f 196/452/146 154/454/146 193/464/146
f 194/455/146 199/457/147 200/492/146
f 198/458/146 193/460/146 197/493/146
f 199/385/147 197/462/146 200/466/146
f 156/463/146 195/386/146 194/465/146
f 198/461/146 150/384/146 134/453/146
f 197/462/146 156/463/146 200/466/146
f 202/313/160 203/467/127 204/494/163
f 203/354/127 135/316/162 136/355/128
f 204/468/163 137/319/164 202/350/160
f 205/495/131 206/496/131 208/497/131 207/498/131
f 207/499/169 208/500/169 212/501/169 211/502/169
f 211/503/62 212/504/62 210/505/62 209/506/62
f 207/507/170 211/508/170 209/509/170 205/510/170
f 212/511/171 208/512/171 206/513/171 210/514/171
f 205/510/172 209/509/172 215/515/172 213/516/172
f 210/514/173 206/513/173 214/517/173 216/518/173
f 209/506/62 210/505/62 216/519/62 215/520/62
f 206/496/131 205/495/131 213/521/131 214/522/131
