texture textures/cars.png
v 0.361211 0.361179 0.535360
v 0.488658 0.361179 0.535360
v 0.361211 0.292225 0.440453
v 0.488658 0.292225 0.440453
v 0.361211 0.180655 0.404202
v 0.488658 0.180655 0.404202
v 0.361211 0.069086 0.440453
v 0.488658 0.069086 0.440453
v 0.361211 0.000132 0.535360
v 0.488658 0.000132 0.535360
v 0.361211 0.000131 0.652672
v 0.488658 0.000131 0.652672
v 0.361211 0.069086 0.747579
v 0.488658 0.069086 0.747579
v 0.361211 0.180655 0.783830
v 0.488658 0.180655 0.783830
v 0.361211 0.292225 0.747579
v 0.488658 0.292225 0.747579
v 0.361211 0.361179 0.652672
v 0.488658 0.361179 0.652672
vt 0.612156 0.971647
vt 0.524372 0.959848
vt 0.524372 0.971647
vt 0.612156 0.959848
vt 0.524372 0.940757
vt 0.612156 0.940757
vt 0.524372 0.921665
vt 0.612156 0.921665
vt 0.524372 0.909866
vt 0.612156 0.909866
vt 0.524372 0.909866
vt 0.612156 0.909866
vt 0.524372 0.921665
vt 0.612156 0.921665
vt 0.524372 0.940757
vt 0.612156 0.940757
vt 0.524372 0.959848
vt 0.612156 0.959848
vt 0.524372 0.971647
vt 0.612156 0.971647
vt 0.512421 0.891662
vt 0.519896 0.891662
vt 0.518469 0.897068
vt 0.250082 0.022727
vt 0.250082 0.477273
vt 0.116495 0.433868
vt 0.516159 0.897992
vt 0.513849 0.897068
vt 0.512421 0.894650
vt 0.513849 0.889244
vt 0.516159 0.888320
vt 0.518469 0.889244
vt 0.519896 0.894650
vt 0.033933 0.320231
vt 0.033933 0.179769
vt 0.116495 0.066133
vt 0.383670 0.066133
vt 0.466232 0.179769
vt 0.466232 0.320231
vt 0.383670 0.433867
vn 0.0000 0.9511 -0.3090
vn 0.0000 0.5878 -0.8090
vn 0.0000 0.0000 -1.0000
vn 0.0000 -0.5878 -0.8090
vn 0.0000 -0.9511 -0.3090
vn 0.0000 -0.9511 0.3090
vn 0.0000 -0.5878 0.8090
vn 0.0000 -0.0000 1.0000
vn 0.0000 0.5878 0.8090
vn 0.0000 0.9511 0.3090
vn -1.0000 0.0000 0.0000
vn 1.0000 0.0000 -0.0000
s 1
f 2/1/1 3/2/2 1/3/1
f 4/4/2 5/5/3 3/2/2
f 6/6/3 7/7/4 5/5/3
f 8/8/4 9/9/5 7/7/4
f 10/10/5 11/11/6 9/9/5
f 12/12/6 13/13/7 11/11/6
f 14/14/7 15/15/8 13/13/7
f 16/16/8 17/17/9 15/15/8
f 18/18/9 19/19/10 17/17/9
f 20/20/10 1/3/1 19/19/10
f 7/21/11 15/22/11 19/23/11
f 18/24/12 8/25/12 6/26/12
f 2/1/1 4/4/2 3/2/2
f 4/4/2 6/6/3 5/5/3
f 6/6/3 8/8/4 7/7/4
f 8/8/4 10/10/5 9/9/5
f 10/10/5 12/12/6 11/11/6
f 12/12/6 14/14/7 13/13/7
f 14/14/7 16/16/8 15/15/8
f 16/16/8 18/18/9 17/17/9
f 18/18/9 20/20/10 19/19/10
f 20/20/10 2/1/1 1/3/1
f 19/23/11 1/27/11 3/28/11
f 3/28/11 5/29/11 7/21/11
f 7/21/11 9/30/11 11/31/11
f 11/31/11 13/32/11 7/21/11
f 15/22/11 17/33/11 19/23/11
f 19/23/11 3/28/11 7/21/11
f 7/21/11 13/32/11 15/22/11
f 6/26/12 4/34/12 2/35/12
f 2/35/12 20/36/12 18/24/12
f 18/24/12 16/37/12 14/38/12
f 14/38/12 12/39/12 10/40/12
f 10/40/12 8/25/12 18/24/12
f 6/26/12 2/35/12 18/24/12
f 18/24/12 14/38/12 10/40/12
o RLW_Cylinder.005
v 0.332295 0.361180 -0.538358
v 0.487935 0.361180 -0.538358
v 0.332295 0.292226 -0.633265
v 0.487935 0.292226 -0.633265
v 0.332295 0.180656 -0.669516
v 0.487935 0.180656 -0.669516
v 0.332295 0.069086 -0.633265
v 0.487935 0.069086 -0.633265
v 0.332295 0.000132 -0.538358
v 0.487935 0.000132 -0.538358
v 0.332295 0.000132 -0.421046
v 0.487935 0.000132 -0.421046
v 0.332295 0.069086 -0.326139
v 0.487935 0.069086 -0.326139
v 0.332295 0.180656 -0.289888
v 0.487935 0.180656 -0.289888
v 0.332295 0.292226 -0.326139
v 0.487935 0.292226 -0.326139
v 0.332295 0.361180 -0.421046
v 0.487935 0.361180 -0.421046
vt 0.524372 0.971647
vt 0.612156 0.959848
vt 0.524372 0.959848
vt 0.612156 0.940757
vt 0.524372 0.940757
vt 0.524372 0.921665
vt 0.612156 0.921665
vt 0.524372 0.909866
vt 0.612156 0.909866
vt 0.524372 0.909866
vt 0.524372 0.921665
vt 0.612156 0.921665
vt 0.524372 0.940757
vt 0.612156 0.940757
vt 0.524372 0.959848
vt 0.612156 0.959848
vt 0.524372 0.971647
vt 0.612156 0.971647
vt 0.512421 0.891662
vt 0.519896 0.891662
vt 0.518469 0.897068
vt 0.250082 0.022727
vt 0.250082 0.477273
vt 0.116495 0.433868
vt 0.612156 0.971647
vt 0.612156 0.909866
vt 0.516159 0.897992
vt 0.513849 0.897068
vt 0.512421 0.894650
vt 0.513849 0.889244
vt 0.516159 0.888320
vt 0.518469 0.889244
vt 0.519896 0.894650
vt 0.033933 0.320231
vt 0.033933 0.179769
vt 0.116495 0.066133
vt 0.383670 0.066133
vt 0.466232 0.179769
vt 0.466232 0.320231
vt 0.383670 0.433867
vn 0.0000 0.9511 -0.3090
vn 0.0000 0.5878 -0.8090
vn 0.0000 0.0000 -1.0000
vn 0.0000 -0.5878 -0.8090
vn 0.0000 -0.9511 -0.3090
vn 0.0000 -0.9511 0.3090
vn 0.0000 -0.5878 0.8090
vn 0.0000 -0.0000 1.0000
vn 0.0000 0.5878 0.8090
vn 0.0000 0.9511 0.3090
vn -1.0000 -0.0000 0.0000
vn 1.0000 0.0000 -0.0000
s 1
f 21/41/13 24/42/14 23/43/14
f 23/43/14 26/44/15 25/45/15
f 26/44/15 27/46/16 25/45/15
f 28/47/16 29/48/17 27/46/16
f 29/48/17 32/49/18 31/50/18
f 32/49/18 33/51/19 31/50/18
f 34/52/19 35/53/20 33/51/19
f 36/54/20 37/55/21 35/53/20
f 38/56/21 39/57/22 37/55/21
f 40/58/22 21/41/13 39/57/22
f 27/59/23 35/60/23 39/61/23
f 38/62/24 28/63/24 26/64/24
f 21/41/13 22/65/13 24/42/14
f 23/43/14 24/42/14 26/44/15
f 26/44/15 28/47/16 27/46/16
f 28/47/16 30/66/17 29/48/17
f 29/48/17 30/66/17 32/49/18
f 32/49/18 34/52/19 33/51/19
f 34/52/19 36/54/20 35/53/20
f 36/54/20 38/56/21 37/55/21
f 38/56/21 40/58/22 39/57/22
f 40/58/22 22/65/13 21/41/13
f 39/61/23 21/67/23 23/68/23
f 23/68/23 25/69/23 27/59/23
f 27/59/23 29/70/23 31/71/23
f 31/71/23 33/72/23 35/60/23
f 35/60/23 37/73/23 39/61/23
f 39/61/23 23/68/23 27/59/23
f 27/59/23 31/71/23 35/60/23
f 26/64/24 24/74/24 22/75/24
f 22/75/24 40/76/24 38/62/24
f 38/62/24 36/77/24 34/78/24
f 34/78/24 32/79/24 30/80/24
f 30/80/24 28/63/24 38/62/24
f 26/64/24 22/75/24 38/62/24
f 38/62/24 34/78/24 30/80/24
o RRW_Cylinder.006
v -0.332295 0.361180 -0.421046
v -0.487935 0.361180 -0.421046
v -0.332295 0.292226 -0.326139
v -0.487935 0.292226 -0.326139
v -0.332295 0.180656 -0.289888
v -0.487935 0.180656 -0.289888
v -0.332295 0.069086 -0.326139
v -0.487935 0.069086 -0.326139
v -0.332295 0.000132 -0.421046
v -0.487935 0.000132 -0.421046
v -0.332295 0.000132 -0.538358
v -0.487935 0.000132 -0.538358
v -0.332295 0.069086 -0.633265
v -0.487935 0.069086 -0.633265
v -0.332295 0.180656 -0.669516
v -0.487935 0.180656 -0.669516
v -0.332295 0.292226 -0.633265
v -0.487935 0.292226 -0.633265
v -0.332295 0.361180 -0.538357
v -0.487935 0.361180 -0.538357
vt 0.612156 0.971647
vt 0.524372 0.959848
vt 0.524372 0.971647
vt 0.612156 0.940757
vt 0.524372 0.940757
vt 0.612156 0.921665
vt 0.524372 0.921665
vt 0.524372 0.909866
vt 0.612156 0.909866
vt 0.524372 0.909866
vt 0.612156 0.909866
vt 0.524372 0.921665
vt 0.612156 0.921665
vt 0.524372 0.940757
vt 0.612156 0.940757
vt 0.524372 0.959848
vt 0.612156 0.959848
vt 0.524372 0.971647
vt 0.612156 0.971647
vt 0.512421 0.891662
vt 0.519896 0.894650
vt 0.518469 0.897068
vt 0.466232 0.179769
vt 0.383670 0.433867
vt 0.116495 0.433868
vt 0.612156 0.959848
vt 0.516159 0.897992
vt 0.513849 0.897068
vt 0.512421 0.894650
vt 0.513849 0.889244
vt 0.516159 0.888320
vt 0.518469 0.889244
vt 0.519896 0.891662
vt 0.033933 0.320231
vt 0.033933 0.179769
vt 0.116495 0.066133
vt 0.250082 0.022727
vt 0.383670 0.066133
vt 0.466232 0.320231
vt 0.250082 0.477273
vn 0.0000 0.9511 0.3090
vn 0.0000 0.5878 0.8090
vn 0.0000 -0.0000 1.0000
vn 0.0000 -0.5878 0.8090
vn 0.0000 -0.9511 0.3090
vn 0.0000 -0.9511 -0.3090
vn 0.0000 -0.5878 -0.8090
vn 0.0000 0.0000 -1.0000
vn 0.0000 0.5878 -0.8090
vn 0.0000 0.9511 -0.3090
vn 1.0000 -0.0000 -0.0000
vn -1.0000 -0.0000 0.0000
s 1
f 42/81/25 43/82/26 41/83/25
f 43/82/26 46/84/27 45/85/27
f 45/85/27 48/86/28 47/87/28
f 48/86/28 49/88/29 47/87/28
f 50/89/29 51/90/30 49/88/29
f 52/91/30 53/92/31 51/90/30
f 54/93/31 55/94/32 53/92/31
f 56/95/32 57/96/33 55/94/32
f 58/97/33 59/98/34 57/96/33
f 60/99/34 41/83/25 59/98/34
f 47/100/35 57/101/35 59/102/35
f 54/103/36 50/104/36 46/105/36
f 42/81/25 44/106/26 43/82/26
f 43/82/26 44/106/26 46/84/27
f 45/85/27 46/84/27 48/86/28
f 48/86/28 50/89/29 49/88/29
f 50/89/29 52/91/30 51/90/30
f 52/91/30 54/93/31 53/92/31
f 54/93/31 56/95/32 55/94/32
f 56/95/32 58/97/33 57/96/33
f 58/97/33 60/99/34 59/98/34
f 60/99/34 42/81/25 41/83/25
f 59/102/35 41/107/35 43/108/35
f 43/108/35 45/109/35 59/102/35
f 47/100/35 49/110/35 51/111/35
f 51/111/35 53/112/35 55/113/35
f 55/113/35 57/101/35 47/100/35
f 59/102/35 45/109/35 47/100/35
f 47/100/35 51/111/35 55/113/35
f 46/105/36 44/114/36 42/115/36
f 42/115/36 60/116/36 46/105/36
f 58/117/36 56/118/36 54/103/36
f 54/103/36 52/119/36 50/104/36
f 50/104/36 48/120/36 46/105/36
f 46/105/36 60/116/36 58/117/36
f 58/117/36 54/103/36 46/105/36
o FRW_Cylinder.007
v -0.361211 0.361179 0.652672
v -0.488658 0.361179 0.652672
v -0.361211 0.292225 0.747579
v -0.488658 0.292225 0.747579
v -0.361211 0.180655 0.783830
v -0.488658 0.180655 0.783830
v -0.361211 0.069086 0.747579
v -0.488658 0.069086 0.747579
v -0.361211 0.000131 0.652672
v -0.488658 0.000131 0.652672
v -0.361211 0.000132 0.535360
v -0.488658 0.000132 0.535360
v -0.361211 0.069086 0.440453
v -0.488658 0.069086 0.440453
v -0.361211 0.180655 0.404202
v -0.488658 0.180655 0.404202
v -0.361211 0.292225 0.440453
v -0.488658 0.292225 0.440453
v -0.361211 0.361179 0.535360
v -0.488658 0.361179 0.535360
vt 0.612156 0.971647
vt 0.524372 0.959848
vt 0.524372 0.971647
vt 0.612156 0.959848
vt 0.524372 0.940757
vt 0.612156 0.940757
vt 0.524372 0.921665
vt 0.612156 0.921665
vt 0.524372 0.909866
vt 0.612156 0.909866
vt 0.524372 0.909866
vt 0.612156 0.909866
vt 0.524372 0.921665
vt 0.612156 0.921665
vt 0.524372 0.940757
vt 0.612156 0.940757
vt 0.524372 0.959848
vt 0.612156 0.959848
vt 0.524372 0.971647
vt 0.612156 0.971647
vt 0.512421 0.891662
vt 0.519896 0.891662
vt 0.518469 0.897068
vt 0.250082 0.022727
vt 0.250082 0.477273
vt 0.116495 0.433868
vt 0.516159 0.897992
vt 0.513849 0.897068
vt 0.512421 0.894650
vt 0.513849 0.889244
vt 0.516159 0.888320
vt 0.518469 0.889244
vt 0.519896 0.894650
vt 0.033933 0.320231
vt 0.033933 0.179769
vt 0.116495 0.066133
vt 0.383670 0.066133
vt 0.466232 0.179769
vt 0.466232 0.320231
vt 0.383670 0.433867
vn 0.0000 0.9511 0.3090
vn 0.0000 0.5878 0.8090
vn 0.0000 -0.0000 1.0000
vn 0.0000 -0.5878 0.8090
vn 0.0000 -0.9511 0.3090
vn 0.0000 -0.9511 -0.3090
vn 0.0000 -0.5878 -0.8090
vn 0.0000 0.0000 -1.0000
vn 0.0000 0.5878 -0.8090
vn 0.0000 0.9511 -0.3090
vn 1.0000 0.0000 -0.0000
vn -1.0000 -0.0000 0.0000
s 1
f 62/121/37 63/122/38 61/123/37
f 64/124/38 65/125/39 63/122/38
f 66/126/39 67/127/40 65/125/39
f 68/128/40 69/129/41 67/127/40
f 70/130/41 71/131/42 69/129/41
f 72/132/42 73/133/43 71/131/42
f 74/134/43 75/135/44 73/133/43
f 76/136/44 77/137/45 75/135/44
f 78/138/45 79/139/46 77/137/45
f 80/140/46 61/123/37 79/139/46
f 67/141/47 75/142/47 79/143/47
f 78/144/48 68/145/48 66/146/48
f 62/121/37 64/124/38 63/122/38
f 64/124/38 66/126/39 65/125/39
f 66/126/39 68/128/40 67/127/40
f 68/128/40 70/130/41 69/129/41
f 70/130/41 72/132/42 71/131/42
f 72/132/42 74/134/43 73/133/43
f 74/134/43 76/136/44 75/135/44
f 76/136/44 78/138/45 77/137/45
f 78/138/45 80/140/46 79/139/46
f 80/140/46 62/121/37 61/123/37
f 79/143/47 61/147/47 63/148/47
f 63/148/47 65/149/47 67/141/47
f 67/141/47 69/150/47 71/151/47
f 71/151/47 73/152/47 67/141/47
f 75/142/47 77/153/47 79/143/47
f 79/143/47 63/148/47 67/141/47
f 67/141/47 73/152/47 75/142/47
f 66/146/48 64/154/48 62/155/48
f 62/155/48 80/156/48 78/144/48
f 78/144/48 76/157/48 74/158/48
f 74/158/48 72/159/48 70/160/48
f 70/160/48 68/145/48 78/144/48
f 66/146/48 62/155/48 78/144/48
f 78/144/48 74/158/48 70/160/48
o Body_Plane.007
v 0.344549 0.437692 0.836704
v 0.382556 0.490641 0.335042
v 0.386352 0.245047 0.979292
v 0.351039 0.407785 0.894230
v 0.386352 0.066816 0.980791
v 0.485713 0.066816 0.810544
v 0.485713 0.237005 0.810544
v 0.485713 0.373415 0.719511
v 0.485713 0.373415 0.468448
v 0.485713 0.237005 0.367558
v 0.422109 0.411970 0.814438
v 0.460116 0.442661 0.335042
v 0.443532 0.067746 0.367558
v 0.485713 0.237005 -0.267926
v 0.443532 0.067746 -0.267926
v 0.485713 0.377090 -0.376314
v 0.485713 0.377090 -0.585508
v 0.485713 0.237005 -0.693203
v 0.485713 0.093819 -0.693203
v 0.284226 0.731795 0.062139
v 0.284226 0.702147 -0.578500
v 0.382556 0.490642 -0.778664
v 0.412431 0.435547 -0.821709
v 0.460116 0.442661 -0.488849
v 0.410427 0.314941 -0.852858
v 0.412449 0.290642 -0.892094
v 0.412449 0.166728 -0.892094
v 0.312124 0.066816 0.810544
v 0.312124 0.237005 0.810544
v 0.312124 0.373415 0.719511
v 0.312124 0.373415 0.468448
v 0.312124 0.237005 0.367558
v 0.312124 0.067746 0.367558
v 0.312124 0.237005 -0.267926
v 0.312124 0.067746 -0.267926
v 0.312124 0.377090 -0.376314
v 0.312124 0.377090 -0.587997
v 0.312124 0.237005 -0.693203
v 0.312124 0.093819 -0.693203
v 0.268175 0.713516 0.082825
v 0.352074 0.508765 0.314532
v 0.216100 0.113065 -0.693563
v 0.216100 0.182375 -0.693563
v 0.216100 0.087544 -0.880684
v 0.216100 0.156854 -0.880684
v 0.285410 0.113065 -0.693563
v 0.285410 0.182375 -0.693563
v 0.285410 0.087544 -0.880684
v 0.285410 0.156854 -0.880684
v 0.116281 0.741898 0.025969
v 0.116281 0.805211 0.025969
v 0.116281 0.735441 -0.063989
v 0.116281 0.792763 -0.102964
v 0.179594 0.741898 0.025969
v 0.179594 0.805211 0.025969
v 0.179594 0.735441 -0.063989
v 0.179594 0.792763 -0.102964
v 0.116281 0.709733 -0.225078
v 0.116281 0.652411 -0.186103
v 0.179594 0.652411 -0.186103
v 0.179594 0.709733 -0.225078
v 0.016310 0.741898 0.025969
v 0.016310 0.805211 0.025969
v 0.016310 0.735441 -0.063989
v 0.016310 0.792763 -0.102964
v 0.079623 0.741898 0.025969
v 0.079623 0.805211 0.025969
v 0.079623 0.735441 -0.063989
v 0.079623 0.792763 -0.102964
v 0.016310 0.709733 -0.225078
v 0.016310 0.652411 -0.186103
v 0.079623 0.652411 -0.186103
v 0.079623 0.709733 -0.225078
v 0.295270 0.702847 0.055431
v 0.370466 0.518418 0.263861
v 0.369642 0.518418 -0.261641
v 0.295892 0.687707 -0.261641
v 0.369725 0.518418 -0.325715
v 0.370225 0.518418 -0.713464
v 0.295770 0.678439 -0.566090
v 0.295799 0.686084 -0.319738
v 0.269991 0.683184 -0.595898
v 0.346596 0.510369 -0.759477
v 0.149836 0.480148 -0.746365
v 0.149836 0.714622 -0.847451
v 0.149836 0.464334 -0.783047
v 0.149836 0.698808 -0.884132
v 0.216786 0.480148 -0.746365
v 0.216786 0.714622 -0.847451
v 0.216786 0.464334 -0.783047
v 0.216786 0.698808 -0.884132
v 0.412210 0.665323 -0.755312
v 0.412210 0.710758 -0.747477
v 0.412210 0.700129 -0.957149
v 0.412210 0.745563 -0.949314
v 0.000000 0.437692 0.836704
v -0.344549 0.437692 0.836704
v 0.000000 0.490641 0.335042
v -0.382556 0.490641 0.335042
v 0.000000 0.245047 0.979292
v -0.386352 0.245047 0.979292
v -0.351039 0.407785 0.894230
v 0.000000 0.407785 0.894230
v 0.000000 0.066816 0.980791
v -0.386352 0.066816 0.980791
v -0.485713 0.066816 0.810544
v -0.485713 0.237005 0.810544
v -0.485713 0.373415 0.719511
v -0.485713 0.373415 0.468448
v -0.485713 0.237005 0.367558
v -0.422109 0.411970 0.814438
v -0.460116 0.442661 0.335042
v -0.443532 0.067746 0.367558
v -0.485713 0.237005 -0.267926
v -0.443532 0.067746 -0.267926
v -0.485713 0.377090 -0.376314
v -0.485713 0.377090 -0.585508
v -0.485713 0.237005 -0.693203
v -0.485713 0.093819 -0.693203
v 0.000000 0.731795 0.062139
v -0.284226 0.731795 0.062139
v 0.000000 0.702147 -0.571740
v -0.284226 0.702147 -0.578500
v 0.000000 0.490642 -0.777558
v -0.382556 0.490642 -0.778664
v 0.000000 0.435547 -0.821711
v -0.412431 0.435547 -0.821709
v -0.460116 0.442661 -0.488849
v -0.410427 0.314941 -0.852858
v 0.000000 0.314941 -0.852856
v 0.000000 0.290642 -0.892094
v 0.000000 0.166728 -0.892094
v 0.000000 0.093819 -0.671527
v -0.412449 0.290642 -0.892094
v -0.412449 0.166728 -0.892094
v -0.312124 0.066816 0.810544
v -0.312124 0.237005 0.810544
v -0.312124 0.373415 0.719511
v -0.312124 0.373415 0.468448
v -0.312124 0.237005 0.367558
v -0.312124 0.067746 0.367558
v -0.312124 0.237005 -0.267926
v -0.312124 0.067746 -0.267926
v -0.312124 0.377090 -0.376314
v -0.312124 0.377090 -0.587997
v -0.312124 0.237005 -0.693203
v -0.312124 0.093819 -0.693203
v 0.000000 0.067746 0.367558
v 0.000000 0.067746 -0.275821
v 0.000000 0.713522 0.082819
v -0.268175 0.713516 0.082825
v 0.000000 0.508774 0.314523
v -0.352074 0.508765 0.314532
v -0.216100 0.113065 -0.693563
v -0.216100 0.182375 -0.693563
v -0.216100 0.087544 -0.880684
v -0.216100 0.156854 -0.880684
v -0.285410 0.113065 -0.693563
v -0.285410 0.182375 -0.693563
v -0.285410 0.087544 -0.880684
v -0.285410 0.156854 -0.880684
v -0.116281 0.741898 0.025969
v -0.116281 0.805211 0.025969
v -0.116281 0.735441 -0.063989
v -0.116281 0.792763 -0.102964
v -0.179594 0.741898 0.025969
v -0.179594 0.805211 0.025969
v -0.179594 0.735441 -0.063989
v -0.179594 0.792763 -0.102964
v -0.116281 0.709733 -0.225078
v -0.116281 0.652411 -0.186103
v -0.179594 0.652411 -0.186103
v -0.179594 0.709733 -0.225078
v -0.016310 0.741898 0.025969
v -0.016310 0.805211 0.025969
v -0.016310 0.735441 -0.063989
v -0.016310 0.792763 -0.102964
v -0.079623 0.741898 0.025969
v -0.079623 0.805211 0.025969
v -0.079623 0.735441 -0.063989
v -0.079623 0.792763 -0.102964
v -0.016310 0.709733 -0.225078
v -0.016310 0.652411 -0.186103
v -0.079623 0.652411 -0.186103
v -0.079623 0.709733 -0.225078
v -0.295270 0.702847 0.055431
v -0.370466 0.518418 0.263861
v -0.369642 0.518418 -0.261641
v -0.295892 0.687707 -0.261641
v -0.369725 0.518418 -0.325715
v -0.370225 0.518418 -0.713464
v -0.295770 0.678439 -0.566090
v -0.295799 0.686084 -0.319738
v 0.000000 0.683184 -0.590193
v 0.000000 0.510369 -0.758361
v -0.269991 0.683184 -0.595898
v -0.346596 0.510369 -0.759477
v -0.149836 0.480148 -0.746365
v -0.149836 0.714622 -0.847451
v -0.149836 0.464334 -0.783047
v -0.149836 0.698808 -0.884132
v -0.216786 0.480148 -0.746365
v -0.216786 0.714622 -0.847451
v -0.216786 0.464334 -0.783047
v -0.216786 0.698808 -0.884132
v 0.000000 0.665323 -0.755312
v 0.000000 0.710758 -0.747477
v 0.000000 0.700129 -0.957149
v 0.000000 0.745563 -0.949314
v -0.412210 0.665323 -0.755312
v -0.412210 0.710758 -0.747477
v -0.412210 0.700129 -0.957149
v -0.412210 0.745563 -0.949314
vt 0.443589 0.866094
vt 0.442658 0.867665
vt 0.442656 0.866081
vt 0.449268 0.867642
vt 0.449525 0.867732
vt 0.449270 0.867935
vt 0.504377 0.839831
vt 0.531377 0.820494
vt 0.529225 0.839831
vt 0.448485 0.845709
vt 0.448618 0.844124
vt 0.448722 0.845681
vt 0.464493 0.864488
vt 0.464529 0.864949
vt 0.464255 0.864462
vt 0.461432 0.865291
vt 0.461241 0.865000
vt 0.461500 0.864949
vt 0.461455 0.865993
vt 0.476345 0.848455
vt 0.517341 0.859374
vt 0.476345 0.859374
vt 0.469836 0.868174
vt 0.524333 0.868411
vt 0.460771 0.856882
vt 0.461717 0.856964
vt 0.460763 0.856951
vt 0.443319 0.868592
vt 0.442611 0.869754
vt 0.442548 0.868582
vt 0.443775 0.870150
vt 0.442785 0.871085
vt 0.442738 0.870137
vt 0.478442 0.872641
vt 0.531593 0.872641
vt 0.449646 0.867849
vt 0.447398 0.868481
vt 0.447398 0.867849
vt 0.448568 0.849129
vt 0.448565 0.848181
vt 0.448793 0.847884
vt 0.559201 0.865827
vt 0.543698 0.855024
vt 0.559939 0.855024
vt 0.463297 0.850879
vt 0.463297 0.851522
vt 0.463200 0.850956
vt 0.446561 0.830330
vt 0.446387 0.830217
vt 0.446550 0.830205
vt 0.462056 0.849376
vt 0.462182 0.850567
vt 0.462058 0.850555
vt 0.461560 0.869302
vt 0.461417 0.868759
vt 0.461537 0.868582
vt 0.464187 0.864203
vt 0.463728 0.864465
vt 0.463735 0.864189
vt 0.297478 0.925272
vt 0.294728 0.925272
vt 0.295203 0.923329
vt 0.445550 0.832937
vt 0.445705 0.833962
vt 0.445551 0.833974
vt 0.301922 0.914760
vt 0.300658 0.914039
vt 0.301923 0.914039
vt 0.302016 0.912023
vt 0.303282 0.911399
vt 0.303281 0.912023
vt 0.300481 0.922224
vt 0.301690 0.923688
vt 0.300434 0.923613
vt 0.299611 0.922067
vt 0.298359 0.921991
vt 0.298720 0.921771
vt 0.299512 0.917804
vt 0.298684 0.917167
vt 0.299834 0.917634
vt 0.301736 0.924522
vt 0.300481 0.924447
vt 0.302560 0.923587
vt 0.303866 0.924510
vt 0.302611 0.924430
vt 0.302916 0.922224
vt 0.303816 0.923666
vt 0.301923 0.916656
vt 0.300657 0.914760
vt 0.302017 0.911399
vt 0.303282 0.909453
vt 0.299249 0.918849
vt 0.299611 0.918627
vt 0.298302 0.921435
vt 0.298806 0.919654
vt 0.299460 0.914236
vt 0.299834 0.914039
vt 0.298362 0.917337
vt 0.298935 0.915080
vt 0.294246 0.914478
vt 0.295203 0.919949
vt 0.294246 0.919949
vt 0.297478 0.914478
vt 0.297478 0.919949
vt 0.295203 0.914478
vt 0.295203 0.911132
vt 0.293938 0.911132
vt 0.294290 0.910218
vt 0.482681 0.835564
vt 0.456395 0.822638
vt 0.484063 0.822638
vt 0.297478 0.909453
vt 0.297478 0.923329
vt 0.461397 0.857740
vt 0.460662 0.857800
vt 0.460670 0.857730
vt 0.988449 0.883583
vt 0.990884 0.992510
vt 0.988449 0.992510
vt 0.476735 0.863865
vt 0.475724 0.863754
vt 0.476734 0.863766
vt 0.461432 0.857810
vt 0.448555 0.869820
vt 0.445614 0.868919
vt 0.448555 0.868919
vt 0.491494 0.831386
vt 0.489109 0.826952
vt 0.493900 0.827281
vt 0.489205 0.831149
vt 0.294111 0.924826
vt 0.293938 0.923329
vt 0.478417 0.868391
vt 0.479946 0.868476
vt 0.478615 0.868475
vt 0.307698 0.984937
vt 0.302833 0.980072
vt 0.307698 0.980072
vt 0.236306 0.951208
vt 0.248159 0.939354
vt 0.248159 0.951208
vt 0.297482 0.984937
vt 0.302347 0.980072
vt 0.302347 0.984937
vt 0.297482 0.995640
vt 0.302347 0.990775
vt 0.302347 0.995640
vt 0.307698 0.990289
vt 0.302833 0.985424
vt 0.307698 0.985424
vt 0.553225 0.832155
vt 0.553427 0.831396
vt 0.553627 0.831985
vt 0.286617 0.909295
vt 0.284951 0.911479
vt 0.284951 0.909295
vt 0.552190 0.833482
vt 0.551988 0.832723
vt 0.552390 0.832893
vt 0.222984 0.791469
vt 0.235799 0.804285
vt 0.222984 0.804285
vt 0.286617 0.909125
vt 0.450441 0.847142
vt 0.451493 0.845058
vt 0.451493 0.847142
vt 0.450441 0.849518
vt 0.552958 0.831302
vt 0.553627 0.830398
vt 0.551721 0.833576
vt 0.552390 0.834480
vt 0.551921 0.834574
vt 0.554462 0.832155
vt 0.554664 0.831396
vt 0.554864 0.831985
vt 0.554396 0.830304
vt 0.554864 0.830398
vt 0.552190 0.831063
vt 0.551988 0.830304
vt 0.552390 0.830474
vt 0.223014 0.791442
vt 0.235829 0.804257
vt 0.223014 0.804257
vt 0.280230 0.909291
vt 0.281896 0.909121
vt 0.281896 0.909291
vt 0.445533 0.853261
vt 0.444481 0.855345
vt 0.444481 0.853261
vt 0.551921 0.832155
vt 0.551721 0.831156
vt 0.280230 0.911476
vt 0.445533 0.850885
vt 0.953531 0.881022
vt 0.951555 0.993894
vt 0.950039 0.881022
vt 0.479174 0.869113
vt 0.479193 0.869027
vt 0.479946 0.868988
vt 0.480825 0.869038
vt 0.480107 0.868984
vt 0.480790 0.868964
vt 0.955746 0.978956
vt 0.953954 0.983634
vt 0.953997 0.881022
vt 0.956818 0.881022
vt 0.481199 0.868475
vt 0.481379 0.868391
vt 0.480123 0.868476
vt 0.930551 0.994154
vt 0.932808 0.881393
vt 0.932813 0.995740
vt 0.475436 0.862864
vt 0.476732 0.862761
vt 0.476733 0.862864
vt 0.475671 0.863850
vt 0.298098 0.922550
vt 0.297500 0.921952
vt 0.298098 0.921952
vt 0.296841 0.923209
vt 0.297440 0.922610
vt 0.297440 0.923209
vt 0.296841 0.922550
vt 0.297440 0.921952
vt 0.297500 0.922610
vt 0.298098 0.923209
vt 0.297500 0.923209
vt 0.298667 0.924079
vt 0.299803 0.921940
vt 0.299803 0.924079
vt 0.299916 0.925329
vt 0.301052 0.924193
vt 0.301052 0.925329
vt 0.301052 0.921940
vt 0.299916 0.924079
vt 0.299916 0.921940
vt 0.298667 0.924193
vt 0.299803 0.926332
vt 0.298667 0.926332
vt 0.324295 0.924079
vt 0.323159 0.921940
vt 0.324295 0.921940
vt 0.443695 0.867678
vt 0.506529 0.820494
vt 0.448380 0.844124
vt 0.464635 0.864827
vt 0.461346 0.866557
vt 0.517341 0.848455
vt 0.461808 0.856896
vt 0.443382 0.869764
vt 0.443777 0.871098
vt 0.449921 0.868481
vt 0.543644 0.865827
vt 0.446404 0.830342
vt 0.462181 0.849530
vt 0.461356 0.870120
vt 0.464115 0.864425
vt 0.445705 0.832925
vt 0.301736 0.922299
vt 0.299537 0.922383
vt 0.303866 0.922284
vt 0.300658 0.916656
vt 0.302017 0.909453
vt 0.298302 0.916871
vt 0.456666 0.835564
vt 0.991646 0.883583
vt 0.445619 0.869820
vt 0.302833 0.984937
vt 0.236306 0.939354
vt 0.297482 0.980072
vt 0.297482 0.990775
vt 0.302833 0.990289
vt 0.286617 0.911479
vt 0.235799 0.791469
vt 0.284951 0.909125
vt 0.450441 0.845058
vt 0.451493 0.849518
vt 0.553159 0.830304
vt 0.554196 0.831302
vt 0.235829 0.791442
vt 0.280230 0.909121
vt 0.445533 0.855345
vt 0.552390 0.832061
vt 0.281896 0.911476
vt 0.444481 0.850885
vt 0.953531 0.984628
vt 0.929905 0.881393
vt 0.475301 0.862761
vt 0.297500 0.922550
vt 0.296841 0.921952
vt 0.298098 0.922610
vt 0.298667 0.921940
vt 0.299916 0.924193
vt 0.301052 0.924079
vt 0.299803 0.924193
vt 0.323159 0.924079
vt 0.443589 0.866094
vt 0.449268 0.867642
vt 0.449270 0.867935
vt 0.449525 0.867732
vt 0.529225 0.839831
vt 0.531377 0.820494
vt 0.448485 0.845709
vt 0.448722 0.845681
vt 0.448618 0.844124
vt 0.464493 0.864488
vt 0.464255 0.864462
vt 0.464529 0.864949
vt 0.461432 0.865291
vt 0.461500 0.864949
vt 0.461241 0.865000
vt 0.461455 0.865993
vt 0.476345 0.848455
vt 0.476345 0.859374
vt 0.517341 0.859374
vt 0.469836 0.868174
vt 0.524333 0.868411
vt 0.461717 0.856964
vt 0.443319 0.868592
vt 0.443775 0.870150
vt 0.478442 0.872641
vt 0.531593 0.872641
vt 0.449646 0.867849
vt 0.447398 0.867849
vt 0.447398 0.868481
vt 0.448568 0.849129
vt 0.448793 0.847884
vt 0.448565 0.848181
vt 0.543698 0.855024
vt 0.463297 0.850879
vt 0.463200 0.850956
vt 0.463297 0.851522
vt 0.446561 0.830330
vt 0.446550 0.830205
vt 0.446387 0.830217
vt 0.462056 0.849376
vt 0.461560 0.869302
vt 0.461537 0.868582
vt 0.461417 0.868759
vt 0.464187 0.864203
vt 0.463735 0.864189
vt 0.463728 0.864465
vt 0.295203 0.923329
vt 0.294728 0.925272
vt 0.445550 0.832937
vt 0.301922 0.914760
vt 0.301923 0.914039
vt 0.300658 0.914039
vt 0.302016 0.912023
vt 0.303281 0.912023
vt 0.303282 0.911399
vt 0.300481 0.922224
vt 0.300434 0.923613
vt 0.301690 0.923688
vt 0.299611 0.922067
vt 0.298720 0.921771
vt 0.298359 0.921991
vt 0.299512 0.917804
vt 0.299834 0.917634
vt 0.298684 0.917167
vt 0.300481 0.924447
vt 0.301736 0.924522
vt 0.302560 0.923587
vt 0.302611 0.924430
vt 0.303866 0.924510
vt 0.302916 0.922224
vt 0.303816 0.923666
vt 0.301923 0.916656
vt 0.300657 0.914760
vt 0.302017 0.911399
vt 0.303282 0.909453
vt 0.299611 0.918627
vt 0.299249 0.918849
vt 0.298806 0.919654
vt 0.298302 0.921435
vt 0.299834 0.914039
vt 0.299460 0.914236
vt 0.298362 0.917337
vt 0.298935 0.915080
vt 0.294246 0.914478
vt 0.294246 0.919949
vt 0.295203 0.919949
vt 0.295203 0.914478
vt 0.295203 0.911132
vt 0.293938 0.911132
vt 0.294290 0.910218
vt 0.482681 0.835564
vt 0.484063 0.822638
vt 0.461397 0.857740
vt 0.990884 0.992510
vt 0.475724 0.863754
vt 0.461432 0.857810
vt 0.448555 0.869820
vt 0.448555 0.868919
vt 0.491494 0.831386
vt 0.493900 0.827281
vt 0.489109 0.826952
vt 0.489205 0.831149
vt 0.293938 0.923329
vt 0.294111 0.924826
vt 0.478417 0.868391
vt 0.478615 0.868475
vt 0.479946 0.868476
vt 0.307698 0.984937
vt 0.307698 0.980072
vt 0.302833 0.980072
vt 0.236306 0.951208
vt 0.248159 0.951208
vt 0.248159 0.939354
vt 0.297482 0.984937
vt 0.302347 0.984937
vt 0.302347 0.980072
vt 0.297482 0.995640
vt 0.302347 0.995640
vt 0.302347 0.990775
vt 0.307698 0.990289
vt 0.307698 0.985424
vt 0.302833 0.985424
vt 0.553225 0.832155
vt 0.553627 0.831985
vt 0.553427 0.831396
vt 0.286617 0.909295
vt 0.284951 0.909295
vt 0.284951 0.911479
vt 0.552190 0.833482
vt 0.552390 0.832893
vt 0.551988 0.832723
vt 0.222984 0.791469
vt 0.222984 0.804285
vt 0.235799 0.804285
vt 0.286617 0.909125
vt 0.450441 0.847142
vt 0.451493 0.847142
vt 0.451493 0.845058
vt 0.450441 0.849518
vt 0.552958 0.831302
vt 0.553627 0.830398
vt 0.551721 0.833576
vt 0.551921 0.834574
vt 0.552390 0.834480
vt 0.554462 0.832155
vt 0.554864 0.831985
vt 0.554664 0.831396
vt 0.554864 0.830398
vt 0.554396 0.830304
vt 0.552190 0.831063
vt 0.552390 0.830474
vt 0.551988 0.830304
vt 0.223014 0.791442
vt 0.223014 0.804257
vt 0.235829 0.804257
vt 0.280230 0.909291
vt 0.281896 0.909291
vt 0.281896 0.909121
vt 0.445533 0.853261
vt 0.444481 0.853261
vt 0.444481 0.855345
vt 0.551721 0.831156
vt 0.551921 0.832155
vt 0.280230 0.911476
vt 0.445533 0.850885
vt 0.953531 0.881022
vt 0.950039 0.881022
vt 0.951555 0.993894
vt 0.479174 0.869113
vt 0.479193 0.869027
vt 0.479946 0.868988
vt 0.480825 0.869038
vt 0.480107 0.868984
vt 0.480790 0.868964
vt 0.955746 0.978956
vt 0.953997 0.881022
vt 0.953954 0.983634
vt 0.956818 0.881022
vt 0.481379 0.868391
vt 0.481199 0.868475
vt 0.480123 0.868476
vt 0.930551 0.994154
vt 0.475436 0.862864
vt 0.475671 0.863850
vt 0.298098 0.922550
vt 0.298098 0.921952
vt 0.297500 0.921952
vt 0.296841 0.923209
vt 0.297440 0.923209
vt 0.297440 0.922610
vt 0.296841 0.922550
vt 0.297440 0.921952
vt 0.297500 0.922610
vt 0.297500 0.923209
vt 0.298098 0.923209
vt 0.299803 0.921940
vt 0.299916 0.925329
vt 0.301052 0.925329
vt 0.301052 0.924193
vt 0.301052 0.921940
vt 0.299916 0.921940
vt 0.298667 0.924193
vt 0.324295 0.921940
vt 0.323159 0.921940
vt 0.443695 0.867678
vt 0.448380 0.844124
vt 0.464635 0.864827
vt 0.461346 0.866557
vt 0.517341 0.848455
vt 0.461808 0.856896
vt 0.443382 0.869764
vt 0.443777 0.871098
vt 0.449921 0.868481
vt 0.543644 0.865827
vt 0.446404 0.830342
vt 0.462181 0.849530
vt 0.461356 0.870120
vt 0.464115 0.864425
vt 0.445705 0.832925
vt 0.301736 0.922299
vt 0.299537 0.922383
vt 0.303866 0.922284
vt 0.300658 0.916656
vt 0.302017 0.909453
vt 0.298302 0.916871
vt 0.991646 0.883583
vt 0.302833 0.984937
vt 0.236306 0.939354
vt 0.297482 0.980072
vt 0.297482 0.990775
vt 0.302833 0.990289
vt 0.286617 0.911479
vt 0.235799 0.791469
vt 0.284951 0.909125
vt 0.450441 0.845058
vt 0.451493 0.849518
vt 0.553159 0.830304
vt 0.554196 0.831302
vt 0.235829 0.791442
vt 0.280230 0.909121
vt 0.445533 0.855345
vt 0.552390 0.832061
vt 0.281896 0.911476
vt 0.444481 0.850885
vt 0.953531 0.984628
vt 0.929905 0.881393
vt 0.475301 0.862761
vt 0.297500 0.922550
vt 0.296841 0.921952
vt 0.298098 0.922610
vt 0.298667 0.921940
vt 0.299916 0.924193
vt 0.299803 0.924193
vn 0.0000 0.9945 0.1050
vn 0.1519 0.8839 0.4424
vn 0.3724 0.9080 0.1922
vn 0.2387 0.9054 0.3511
vn 0.0000 0.0084 1.0000
vn 0.4959 0.0062 0.8683
vn 0.4910 0.0073 0.8712
vn 0.5166 0.8548 0.0497
vn 0.5255 0.8495 0.0474
vn 0.8628 0.0020 0.5055
vn 0.6868 0.7058 0.1735
vn 0.7864 0.4390 0.4346
vn 0.8353 0.2933 0.4650
vn 0.9120 0.4053 0.0624
vn 0.9703 -0.2418 -0.0000
vn 1.0000 -0.0000 0.0000
vn 0.9585 0.2852 0.0000
vn 0.0000 0.7493 0.6622
vn -0.0000 0.7494 0.6622
vn -0.0003 0.9989 -0.0466
vn 0.0000 0.9989 -0.0464
vn 0.0000 0.9989 -0.0467
vn -0.0002 0.6166 -0.7873
vn 0.0000 0.4470 -0.8945
vn 0.0000 0.6254 -0.7803
vn 0.9267 0.3755 0.0168
vn 0.7696 0.6383 -0.0196
vn 0.9122 0.3287 -0.2445
vn 0.7935 0.5979 -0.1134
vn 0.0000 0.2501 -0.9682
vn 0.0000 0.2500 -0.9682
vn 0.5772 0.7072 -0.4082
vn 0.8835 0.4173 -0.2129
vn 0.3753 0.7965 -0.4740
vn 0.6252 0.0000 -0.7805
vn 0.9384 0.0000 -0.3457
vn -0.0000 0.8502 -0.5265
vn 0.9021 0.4056 -0.1475
vn 0.9434 0.1601 -0.2905
vn -0.0000 -0.9456 -0.3254
vn -0.0000 -0.9389 -0.3442
vn -0.0045 -0.9677 -0.2519
vn 0.5221 0.0000 -0.8529
vn 0.0000 0.0000 -1.0000
vn 0.0000 -0.8929 0.4502
vn 0.0000 -0.3131 0.9497
vn 0.0000 -0.3393 0.9407
vn -0.0030 -0.3192 0.9477
vn -0.0032 -0.8942 0.4476
vn 0.0000 -0.3165 0.9486
vn 0.0000 -0.2900 -0.9570
vn 0.0000 -0.0000 1.0000
vn 0.0000 -0.8818 -0.4717
vn 0.0000 -0.3505 -0.9366
vn 0.0000 -0.8978 -0.4405
vn 0.0000 -0.3233 -0.9463
vn -0.0063 -0.8987 0.4386
vn 0.0000 -1.0000 -0.0000
vn -0.0003 -0.9998 -0.0209
vn -0.0000 -1.0000 -0.0009
vn 0.0000 -0.9994 -0.0334
vn 0.0000 -1.0000 -0.0007
vn -0.0003 -1.0000 -0.0007
vn 0.3546 0.4924 0.7949
vn 0.0000 0.4632 0.8862
vn 0.4187 0.4531 0.7870
vn 0.0000 -1.0000 -0.0010
vn 0.0000 -0.9828 -0.1845
vn -0.0000 0.6965 -0.7175
vn -0.0144 0.6857 -0.7277
vn 0.0000 0.6974 -0.7167
vn 0.0000 0.8873 0.4613
vn 0.9246 0.3808 -0.0091
vn 0.9126 0.4089 -0.0033
vn 0.9259 0.3777 -0.0087
vn -0.7357 -0.6711 0.0915
vn -0.5848 0.5334 -0.6111
vn -0.5706 -0.6187 -0.5401
vn 0.5848 0.5334 -0.6111
vn 0.7357 -0.6711 0.0915
vn 0.6745 -0.7315 0.0998
vn 0.6745 0.7315 -0.0998
vn -1.0000 -0.0000 0.0000
vn 0.0000 -0.8270 0.5623
vn 0.0000 -0.9974 0.0716
vn 0.0000 0.9405 -0.3398
vn 0.0000 0.9954 -0.0961
vn 0.0000 0.8270 -0.5623
vn 0.9298 0.3678 -0.0124
vn 0.9327 0.3603 -0.0166
vn 0.9222 0.3864 -0.0160
vn 0.9030 0.4295 -0.0137
vn 0.9088 0.4170 -0.0123
vn 0.9046 0.4262 -0.0096
vn 0.9142 0.4052 -0.0010
vn 0.9083 0.4182 -0.0051
vn 0.9080 0.4188 -0.0062
vn 0.0000 0.6950 -0.7190
vn -0.0070 0.6890 -0.7247
vn 0.0000 0.6973 -0.7168
vn -0.0174 0.6831 -0.7301
vn 0.0000 -0.3959 -0.9183
vn 0.0000 0.3959 0.9183
vn 0.0000 0.1699 -0.9855
vn 0.0000 -0.1699 0.9855
vn 0.0000 -0.9855 -0.1699
vn 0.0000 0.9855 0.1699
vn 0.8637 0.0000 0.5041
vn -0.0011 0.9989 -0.0462
vn 0.0000 0.4154 -0.9097
vn 0.9166 0.0856 -0.3905
vn -0.6745 0.7315 -0.0998
vn -0.0078 0.6899 -0.7239
vn -0.1519 0.8839 0.4424
vn -0.2387 0.9054 0.3511
vn -0.3724 0.9080 0.1922
vn -0.4910 0.0073 0.8712
vn -0.4959 0.0062 0.8683
vn -0.5166 0.8548 0.0497
vn -0.5255 0.8495 0.0474
vn -0.8628 0.0020 0.5055
vn -0.6868 0.7058 0.1735
vn -0.8353 0.2933 0.4650
vn -0.7864 0.4390 0.4346
vn -0.9120 0.4053 0.0624
vn -0.9703 -0.2418 -0.0000
vn -0.9585 0.2852 0.0000
vn 0.0003 0.9989 -0.0466
vn 0.0002 0.6166 -0.7873
vn -0.9267 0.3755 0.0168
vn -0.7696 0.6383 -0.0196
vn -0.9122 0.3287 -0.2445
vn -0.7935 0.5979 -0.1134
vn -0.5772 0.7072 -0.4082
vn -0.3753 0.7965 -0.4740
vn -0.8835 0.4173 -0.2129
vn -0.6252 0.0000 -0.7805
vn -0.9384 0.0000 -0.3457
vn -0.9021 0.4056 -0.1475
vn -0.9434 0.1601 -0.2905
vn 0.0045 -0.9677 -0.2519
vn -0.5221 0.0000 -0.8529
vn 0.0030 -0.3192 0.9477
vn 0.0032 -0.8942 0.4476
vn 0.0063 -0.8987 0.4386
vn 0.0003 -0.9998 -0.0209
vn 0.0003 -1.0000 -0.0007
vn -0.3546 0.4924 0.7949
vn -0.4187 0.4531 0.7870
vn 0.0144 0.6857 -0.7277
vn -0.9246 0.3808 -0.0091
vn -0.9259 0.3777 -0.0087
vn -0.9126 0.4089 -0.0033
vn 0.5706 -0.6187 -0.5401
vn -0.6745 -0.7315 0.0998
vn -0.9298 0.3678 -0.0124
vn -0.9327 0.3603 -0.0166
vn -0.9222 0.3864 -0.0160
vn -0.9030 0.4295 -0.0137
vn -0.9088 0.4170 -0.0123
vn -0.9046 0.4262 -0.0096
vn -0.9142 0.4052 -0.0010
vn -0.9083 0.4182 -0.0051
vn -0.9080 0.4188 -0.0062
vn 0.0070 0.6890 -0.7247
vn 0.0174 0.6831 -0.7301
vn -0.8637 0.0000 0.5041
vn 0.0011 0.9989 -0.0462
vn -0.9166 0.0856 -0.3905
vn 0.0078 0.6899 -0.7239
s 1
f 81/161/49 178/162/49 176/163/49
f 84/164/50 91/165/51 81/166/52
f 180/167/53 85/168/54 83/169/55
f 82/170/56 91/171/51 92/172/57
f 85/173/54 87/174/58 83/175/55
f 88/176/59 91/177/60 87/178/61
f 89/179/62 91/177/60 88/176/59
f 93/180/63 94/181/63 90/182/63
f 89/183/62 94/181/64 96/184/65
f 178/185/66 121/186/67 232/187/67
f 100/188/68 202/189/69 200/190/70
f 102/191/71 206/192/72 204/193/73
f 92/194/74 96/184/65 104/195/75
f 104/196/75 82/197/56 92/198/57
f 103/199/76 102/200/77 104/201/75
f 206/202/72 105/203/78 210/204/79
f 105/205/80 98/206/81 106/207/82
f 107/208/83 98/209/84 99/210/84
f 105/211/80 211/212/85 210/213/85
f 97/214/86 104/215/75 96/216/65
f 98/217/87 103/218/76 97/219/86
f 212/220/88 107/221/89 119/222/90
f 106/223/91 212/224/92 211/225/92
f 89/226/93 112/227/94 90/228/95
f 98/229/96 117/230/97 118/231/98
f 86/232/92 109/233/99 87/234/99
f 93/235/100 112/236/94 113/237/100
f 98/238/96 119/239/100 99/240/100
f 87/234/99 110/241/101 88/242/101
f 94/243/102 116/244/103 96/245/103
f 95/246/92 114/247/104 94/243/102
f 88/248/101 111/249/93 89/226/93
f 97/250/105 116/251/103 117/230/97
f 113/237/64 109/252/64 108/253/64
f 109/252/64 111/254/64 110/255/64
f 119/239/64 114/256/64 115/257/64
f 118/258/64 116/259/64 114/256/64
f 93/260/106 115/261/107 95/262/106
f 115/261/107 228/263/108 229/264/109
f 113/265/110 108/266/111 228/263/108
f 86/267/106 85/268/106 108/266/111
f 84/269/112 180/270/113 83/271/114
f 85/268/106 184/272/115 108/266/111
f 228/263/108 108/266/111 184/272/115
f 115/261/107 213/273/116 119/222/90
f 212/220/88 119/222/90 213/273/116
f 120/274/67 200/275/67 230/276/67
f 232/277/67 120/278/67 230/279/67
f 202/280/117 162/281/118 274/282/119
f 121/186/67 100/283/67 120/274/67
f 81/284/52 183/285/120 84/286/50
f 91/287/60 83/288/114 87/289/61
f 83/288/114 91/287/60 84/290/112
f 119/222/90 107/291/89 99/292/89
f 82/293/121 156/294/122 155/295/123
f 122/296/124 125/297/125 124/298/126
f 125/299/125 128/300/92 124/301/126
f 129/302/127 126/303/128 128/304/129
f 128/305/129 122/306/124 124/307/126
f 125/308/125 127/309/130 129/310/127
f 131/311/131 132/312/131 130/313/131
f 132/314/132 140/315/132 136/316/132
f 136/317/64 135/318/64 134/319/64
f 135/320/100 130/321/100 134/322/100
f 136/316/133 130/323/133 132/314/133
f 133/324/134 135/325/135 137/326/134
f 137/326/134 138/327/136 133/324/134
f 133/328/131 139/329/131 132/312/131
f 137/330/64 140/331/64 141/332/64
f 143/333/131 144/334/131 142/335/131
f 144/334/131 150/336/131 151/337/131
f 148/338/64 147/339/64 146/340/64
f 147/341/100 142/342/100 146/343/100
f 148/344/133 142/345/133 144/346/133
f 145/347/134 147/348/135 149/349/134
f 148/338/64 153/350/64 149/351/64
f 144/346/132 152/352/132 148/344/132
f 149/349/134 150/353/136 145/347/134
f 156/354/122 154/355/137 155/356/123
f 100/357/138 155/295/123 154/358/137
f 157/359/139 101/360/140 100/357/138
f 156/294/122 161/361/141 157/359/139
f 101/360/140 161/361/141 160/362/142
f 160/363/142 161/364/141 158/365/143
f 160/363/142 158/365/143 159/366/144
f 101/360/140 159/367/144 102/368/145
f 156/294/122 102/368/145 158/369/143
f 158/369/143 102/368/145 159/367/144
f 100/357/138 154/358/137 157/359/139
f 162/370/118 275/371/146 274/372/119
f 163/373/147 204/374/148 275/375/146
f 101/376/149 163/373/147 162/281/118
f 164/377/131 167/378/131 166/379/131
f 167/380/150 170/381/150 166/382/150
f 171/383/64 168/384/64 170/381/64
f 169/385/151 164/386/151 168/387/151
f 289/388/152 174/389/152 288/390/152
f 175/391/64 172/392/64 174/393/64
f 173/394/153 286/395/153 172/396/153
f 174/397/154 286/398/154 288/399/154
f 289/400/155 173/401/155 175/402/155
f 81/161/49 82/403/49 178/162/49
f 180/167/53 184/404/53 85/168/54
f 82/170/56 81/405/52 91/171/51
f 85/173/54 86/406/156 87/174/58
f 89/179/62 92/407/74 91/177/60
f 93/180/63 95/408/63 94/181/63
f 89/183/62 90/182/64 94/181/64
f 178/185/66 82/409/67 121/186/67
f 100/188/68 101/410/157 202/189/69
f 102/191/71 103/411/158 206/192/72
f 92/194/74 89/183/62 96/184/65
f 104/196/75 102/412/77 82/197/56
f 206/202/72 103/413/158 105/203/78
f 107/208/83 106/414/91 98/209/84
f 105/211/80 106/415/82 211/212/85
f 97/214/86 103/416/76 104/215/75
f 98/217/87 105/417/159 103/218/76
f 106/223/91 107/418/83 212/224/92
f 89/226/93 111/249/93 112/227/94
f 98/229/96 97/250/105 117/230/97
f 86/232/92 108/419/92 109/233/99
f 93/235/100 90/420/95 112/236/94
f 98/238/96 118/258/98 119/239/100
f 87/234/99 109/233/99 110/241/101
f 94/243/102 114/247/104 116/244/103
f 95/246/92 115/421/92 114/247/104
f 88/248/101 110/422/101 111/249/93
f 97/250/105 96/423/103 116/251/103
f 113/237/64 112/236/64 109/252/64
f 109/252/64 112/236/64 111/254/64
f 119/239/64 118/258/64 114/256/64
f 118/258/64 117/424/64 116/259/64
f 93/260/106 113/265/110 115/261/107
f 115/261/107 113/265/110 228/263/108
f 84/269/112 183/425/113 180/270/113
f 115/261/107 229/264/109 213/273/116
f 120/274/67 100/283/67 200/275/67
f 232/277/67 121/426/67 120/278/67
f 202/280/117 101/376/149 162/281/118
f 121/186/67 82/409/67 100/283/67
f 81/284/52 176/427/120 183/285/120
f 122/296/124 123/428/160 125/297/125
f 125/299/125 129/429/127 128/300/92
f 129/302/127 127/430/130 126/303/128
f 128/305/129 126/431/128 122/306/124
f 125/308/125 123/432/160 127/309/130
f 131/311/131 133/328/131 132/312/131
f 132/314/132 139/433/132 140/315/132
f 136/317/64 137/330/64 135/318/64
f 135/320/100 131/434/100 130/321/100
f 136/316/133 134/435/133 130/323/133
f 133/324/134 131/436/135 135/325/135
f 137/326/134 141/437/136 138/327/136
f 133/328/131 138/438/131 139/329/131
f 137/330/64 136/317/64 140/331/64
f 143/333/131 145/439/131 144/334/131
f 144/334/131 145/439/131 150/336/131
f 148/338/64 149/351/64 147/339/64
f 147/341/100 143/440/100 142/342/100
f 148/344/133 146/441/133 142/345/133
f 145/347/134 143/442/135 147/348/135
f 148/338/64 152/443/64 153/350/64
f 144/346/132 151/444/132 152/352/132
f 149/349/134 153/445/136 150/353/136
f 156/354/122 157/446/139 154/355/137
f 100/357/138 82/293/121 155/295/123
f 157/359/139 161/361/141 101/360/140
f 156/294/122 158/369/143 161/361/141
f 101/360/140 160/362/142 159/367/144
f 156/294/122 82/293/121 102/368/145
f 162/370/118 163/447/147 275/371/146
f 163/373/147 102/448/161 204/374/148
f 101/376/149 102/448/161 163/373/147
f 164/377/131 165/449/131 167/378/131
f 167/380/150 171/383/150 170/381/150
f 171/383/64 169/450/64 168/384/64
f 169/385/151 165/451/151 164/386/151
f 289/388/152 175/452/152 174/389/152
f 175/391/64 173/453/64 172/392/64
f 173/394/153 287/454/153 286/395/153
f 174/397/154 172/455/154 286/398/154
f 289/400/155 287/456/155 173/401/155
f 177/457/49 176/163/49 178/162/49
f 182/458/162 177/459/163 191/460/164
f 180/167/53 181/461/165 185/462/166
f 179/463/167 192/464/168 191/465/164
f 185/466/166 181/467/165 187/468/169
f 188/469/170 187/470/171 191/471/172
f 189/472/173 188/469/170 191/471/172
f 193/473/174 190/474/174 194/475/174
f 189/476/173 196/477/175 194/475/131
f 178/185/66 232/187/67 233/478/67
f 201/479/176 200/190/70 202/189/69
f 205/480/177 204/193/73 206/192/72
f 192/481/178 208/482/179 196/477/175
f 208/483/179 192/484/168 179/485/167
f 207/486/180 208/487/179 205/488/181
f 206/202/72 210/204/79 209/489/78
f 209/490/182 214/491/183 198/492/184
f 215/493/185 199/494/186 198/495/186
f 209/496/182 210/213/85 211/212/85
f 197/497/187 196/498/175 208/499/179
f 198/500/188 197/501/187 207/502/180
f 212/220/88 227/503/189 215/504/89
f 214/505/190 211/225/92 212/224/92
f 189/506/93 190/507/95 220/508/94
f 198/509/191 226/510/98 225/511/192
f 186/512/92 187/513/99 217/514/99
f 193/515/100 221/516/100 220/517/94
f 198/518/191 199/519/100 227/520/100
f 187/513/99 188/521/101 218/522/101
f 194/523/102 196/524/103 224/525/103
f 195/526/92 194/523/102 222/527/104
f 188/528/101 189/506/93 219/529/93
f 197/530/193 225/511/192 224/531/103
f 221/516/131 216/532/131 217/533/131
f 217/533/131 218/534/131 219/535/131
f 227/520/131 223/536/131 222/537/131
f 226/538/131 222/537/131 224/539/131
f 193/540/106 195/541/106 223/542/194
f 223/542/194 229/264/109 228/263/108
f 221/543/110 228/263/108 216/544/195
f 186/545/106 216/544/195 185/546/106
f 182/547/196 181/548/197 180/270/113
f 185/546/106 216/544/195 184/272/115
f 228/263/108 184/272/115 216/544/195
f 223/542/194 227/503/189 213/273/116
f 212/220/88 213/273/116 227/503/189
f 231/549/67 230/276/67 200/275/67
f 232/277/67 230/279/67 231/550/67
f 202/280/117 274/282/119 276/551/198
f 233/478/67 231/549/67 201/552/67
f 177/553/163 182/554/162 183/285/120
f 191/555/172 187/556/171 181/557/197
f 181/557/197 182/558/196 191/555/172
f 227/503/189 199/559/89 215/560/89
f 179/561/199 267/562/200 268/563/201
f 234/564/128 236/565/202 237/566/127
f 237/567/127 236/568/202 240/569/92
f 241/570/125 240/571/203 238/572/124
f 240/573/203 236/574/202 234/575/128
f 237/576/127 241/577/125 239/578/160
f 243/579/64 242/580/64 244/581/64
f 244/582/132 248/583/132 252/584/132
f 248/585/131 246/586/131 247/587/131
f 247/588/100 246/589/100 242/590/100
f 248/583/133 244/582/133 242/591/133
f 245/592/134 249/593/134 247/594/135
f 249/593/134 245/592/134 250/595/136
f 245/596/64 244/581/64 251/597/64
f 249/598/131 253/599/131 252/600/131
f 255/601/64 254/602/64 256/603/64
f 256/603/64 263/604/64 262/605/64
f 260/606/131 258/607/131 259/608/131
f 259/609/100 258/610/100 254/611/100
f 260/612/133 256/613/133 254/614/133
f 257/615/134 261/616/134 259/617/135
f 260/606/131 261/618/131 265/619/131
f 256/613/132 260/612/132 264/620/132
f 261/616/134 257/615/134 262/621/136
f 268/622/201 267/623/200 266/624/204
f 201/625/205 266/626/204 267/562/200
f 269/627/206 201/625/205 203/628/207
f 268/563/201 269/627/206 273/629/208
f 203/628/207 272/630/209 273/629/208
f 272/631/209 270/632/210 273/633/208
f 272/631/209 271/634/211 270/632/210
f 203/628/207 205/635/212 271/636/211
f 268/563/201 270/637/210 205/635/212
f 270/637/210 271/636/211 205/635/212
f 201/625/205 269/627/206 266/626/204
f 276/638/198 274/372/119 275/371/146
f 277/639/213 275/375/146 204/374/148
f 203/640/214 276/551/198 277/639/213
f 278/641/64 280/642/64 281/643/64
f 281/644/150 280/645/150 284/646/150
f 285/647/131 284/646/131 282/648/131
f 283/649/151 282/650/151 278/651/151
f 289/388/152 288/390/152 292/652/152
f 293/653/131 292/654/131 290/655/131
f 291/656/153 290/657/153 286/395/153
f 292/658/154 288/399/154 286/398/154
f 289/400/155 293/659/155 291/660/155
f 177/457/49 178/162/49 179/661/49
f 180/167/53 185/462/166 184/404/53
f 179/463/167 191/465/164 177/662/163
f 185/466/166 187/468/169 186/663/215
f 189/472/173 191/471/172 192/664/178
f 193/473/174 194/475/174 195/665/174
f 189/476/173 194/475/131 190/474/131
f 178/185/66 233/478/67 179/666/67
f 201/479/176 202/189/69 203/667/216
f 205/480/177 206/192/72 207/668/158
f 192/481/178 196/477/175 189/476/173
f 208/483/179 179/485/167 205/669/181
f 206/202/72 209/489/78 207/670/158
f 215/493/185 198/495/186 214/671/190
f 209/496/182 211/212/85 214/672/183
f 197/497/187 208/499/179 207/673/180
f 198/500/188 207/502/180 209/674/217
f 214/505/190 212/224/92 215/675/185
f 189/506/93 220/508/94 219/529/93
f 198/509/191 225/511/192 197/530/193
f 186/512/92 217/514/99 216/676/92
f 193/515/100 220/517/94 190/677/95
f 198/518/191 227/520/100 226/538/98
f 187/513/99 218/522/101 217/514/99
f 194/523/102 224/525/103 222/527/104
f 195/526/92 222/527/104 223/678/92
f 188/528/101 219/529/93 218/679/101
f 197/530/193 224/531/103 196/680/103
f 221/516/131 217/533/131 220/517/131
f 217/533/131 219/535/131 220/517/131
f 227/520/131 222/537/131 226/538/131
f 226/538/131 224/539/131 225/681/131
f 193/540/106 223/542/194 221/543/110
f 223/542/194 228/263/108 221/543/110
f 182/547/196 180/270/113 183/425/113
f 223/542/194 213/273/116 229/264/109
f 231/549/67 200/275/67 201/552/67
f 232/277/67 231/550/67 233/682/67
f 202/280/117 276/551/198 203/640/214
f 233/478/67 201/552/67 179/666/67
f 177/553/163 183/285/120 176/427/120
f 234/564/128 237/566/127 235/683/130
f 237/567/127 240/569/92 241/684/125
f 241/570/125 238/572/124 239/685/160
f 240/573/203 234/575/128 238/686/124
f 237/576/127 239/578/160 235/687/130
f 243/579/64 244/581/64 245/596/64
f 244/582/132 252/584/132 251/688/132
f 248/585/131 247/587/131 249/598/131
f 247/588/100 242/590/100 243/689/100
f 248/583/133 242/591/133 246/690/133
f 245/592/134 247/594/135 243/691/135
f 249/593/134 250/595/136 253/692/136
f 245/596/64 251/597/64 250/693/64
f 249/598/131 252/600/131 248/585/131
f 255/601/64 256/603/64 257/694/64
f 256/603/64 262/605/64 257/694/64
f 260/606/131 259/608/131 261/618/131
f 259/609/100 254/611/100 255/695/100
f 260/612/133 254/614/133 258/696/133
f 257/615/134 259/617/135 255/697/135
f 260/606/131 265/619/131 264/698/131
f 256/613/132 264/620/132 263/699/132
f 261/616/134 262/621/136 265/700/136
f 268/622/201 266/624/204 269/701/206
f 201/625/205 267/562/200 179/561/199
f 269/627/206 203/628/207 273/629/208
f 268/563/201 273/629/208 270/637/210
f 203/628/207 271/636/211 272/630/209
f 268/563/201 205/635/212 179/561/199
f 276/638/198 275/371/146 277/702/213
f 277/639/213 204/374/148 205/703/218
f 203/640/214 277/639/213 205/703/218
f 278/641/64 281/643/64 279/704/64
f 281/644/150 284/646/150 285/647/150
f 285/647/131 282/648/131 283/705/131
f 283/649/151 278/651/151 279/706/151
f 289/388/152 292/652/152 293/707/152
f 293/653/131 290/655/131 291/708/131
f 291/656/153 286/395/153 287/454/153
f 292/658/154 286/398/154 290/709/154
f 289/400/155 291/660/155 287/456/155
