texture textures/cars.png
v 0.292313 0.305097 0.460715
v 0.399971 0.305097 0.460715
v 0.292313 0.246850 0.380545
v 0.399971 0.246850 0.380545
v 0.292313 0.152604 0.349923
v 0.399971 0.152604 0.349923
v 0.292313 0.058358 0.380545
v 0.399971 0.058358 0.380545
v 0.292313 0.000111 0.460715
v 0.399971 0.000111 0.460715
v 0.292313 0.000111 0.559811
v 0.399971 0.000111 0.559811
v 0.292313 0.058358 0.639982
v 0.399971 0.058358 0.639982
v 0.292313 0.152604 0.670604
v 0.399971 0.152604 0.670604
v 0.292313 0.246850 0.639982
v 0.399971 0.246850 0.639982
v 0.292313 0.305097 0.559811
v 0.399971 0.305097 0.559811
vt 0.524372 0.971647
vt 0.612156 0.959848
vt 0.524372 0.959848
vt 0.612156 0.940757
vt 0.524372 0.940757
vt 0.524372 0.921665
vt 0.612156 0.921665
vt 0.524372 0.909866
vt 0.612156 0.909866
vt 0.524372 0.909866
vt 0.612156 0.909866
vt 0.524372 0.921665
vt 0.612156 0.921665
vt 0.524372 0.940757
vt 0.612156 0.940757
vt 0.524372 0.959848
vt 0.612156 0.959848
vt 0.524372 0.971647
vt 0.612156 0.971647
vt 0.512421 0.891662
vt 0.519896 0.891662
vt 0.518469 0.897068
vt 0.250082 0.022727
vt 0.383670 0.433867
vt 0.116495 0.433868
vt 0.612156 0.971647
vt 0.516159 0.897992
vt 0.513849 0.897068
vt 0.512421 0.894650
vt 0.513849 0.889244
vt 0.516159 0.888320
vt 0.518469 0.889244
vt 0.519896 0.894650
vt 0.033933 0.320231
vt 0.033933 0.179769
vt 0.116495 0.066133
vt 0.383670 0.066133
vt 0.466232 0.179769
vt 0.466232 0.320231
vt 0.250082 0.477273
vn 0.0000 0.9511 -0.3090
vn 0.0000 0.5878 -0.8090
vn 0.0000 -0.0000 -1.0000
vn 0.0000 -0.5878 -0.8090
vn 0.0000 -0.9511 -0.3090
vn 0.0000 -0.9511 0.3090
vn 0.0000 -0.5878 0.8090
vn 0.0000 -0.0000 1.0000
vn 0.0000 0.5878 0.8090
vn 0.0000 0.9511 0.3090
vn -1.0000 0.0000 0.0000
vn 1.0000 -0.0000 -0.0000
s 1
f 1/1/1 4/2/2 3/3/2
f 3/3/2 6/4/3 5/5/3
f 6/4/3 7/6/4 5/5/3
f 8/7/4 9/8/5 7/6/4
f 10/9/5 11/10/6 9/8/5
f 12/11/6 13/12/7 11/10/6
f 14/13/7 15/14/8 13/12/7
f 16/15/8 17/16/9 15/14/8
f 18/17/9 19/18/10 17/16/9
f 19/18/10 2/19/1 1/1/1
f 7/20/11 15/21/11 19/22/11
f 18/23/12 10/24/12 6/25/12
f 1/1/1 2/19/1 4/2/2
f 3/3/2 4/2/2 6/4/3
f 6/4/3 8/7/4 7/6/4
f 8/7/4 10/9/5 9/8/5
f 10/9/5 12/11/6 11/10/6
f 12/11/6 14/13/7 13/12/7
f 14/13/7 16/15/8 15/14/8
f 16/15/8 18/17/9 17/16/9
f 18/17/9 20/26/10 19/18/10
f 19/18/10 20/26/10 2/19/1
f 19/22/11 1/27/11 3/28/11
f 3/28/11 5/29/11 7/20/11
f 7/20/11 9/30/11 11/31/11
f 11/31/11 13/32/11 7/20/11
f 15/21/11 17/33/11 19/22/11
f 19/22/11 3/28/11 7/20/11
f 7/20/11 13/32/11 15/21/11
f 6/25/12 4/34/12 2/35/12
f 2/35/12 20/36/12 18/23/12
f 18/23/12 16/37/12 14/38/12
f 14/38/12 12/39/12 10/24/12
f 10/24/12 8/40/12 6/25/12
f 6/25/12 2/35/12 18/23/12
f 18/23/12 14/38/12 10/24/12
o RLW_Cylinder.005
v 0.275281 0.305098 -0.505997
v 0.406754 0.305098 -0.505997
v 0.275281 0.246850 -0.586167
v 0.406754 0.246850 -0.586167
v 0.275281 0.152604 -0.616789
v 0.406754 0.152604 -0.616789
v 0.275281 0.058358 -0.586167
v 0.406754 0.058358 -0.586167
v 0.275281 0.000111 -0.505997
v 0.406754 0.000111 -0.505997
v 0.275281 0.000111 -0.406901
v 0.406754 0.000111 -0.406901
v 0.275281 0.058358 -0.326730
v 0.406754 0.058358 -0.326730
v 0.275281 0.152604 -0.296108
v 0.406754 0.152604 -0.296108
v 0.275281 0.246850 -0.326730
v 0.406754 0.246850 -0.326730
v 0.275281 0.305098 -0.406901
v 0.406754 0.305098 -0.406901
vt 0.524372 0.971647
vt 0.612156 0.959848
vt 0.524372 0.959848
vt 0.612156 0.940757
vt 0.524372 0.940757
vt 0.524372 0.921665
vt 0.612156 0.921665
vt 0.524372 0.909866
vt 0.612156 0.909866
vt 0.524372 0.909866
vt 0.524372 0.921665
vt 0.612156 0.921665
vt 0.524372 0.940757
vt 0.612156 0.940757
vt 0.524372 0.959848
vt 0.612156 0.959848
vt 0.524372 0.971647
vt 0.612156 0.971647
vt 0.512421 0.891662
vt 0.519896 0.891662
vt 0.518469 0.897068
vt 0.250082 0.022727
vt 0.383670 0.433867
vt 0.116495 0.433868
vt 0.612156 0.971647
vt 0.612156 0.909866
vt 0.516159 0.897992
vt 0.513849 0.897068
vt 0.512421 0.894650
vt 0.513849 0.889244
vt 0.516159 0.888320
vt 0.518469 0.889244
vt 0.519896 0.894650
vt 0.033933 0.320231
vt 0.033933 0.179769
vt 0.116495 0.066133
vt 0.383670 0.066133
vt 0.466232 0.179769
vt 0.466232 0.320231
vt 0.250082 0.477273
vn 0.0000 0.9511 -0.3090
vn 0.0000 0.5878 -0.8090
vn 0.0000 0.0000 -1.0000
vn 0.0000 -0.5878 -0.8090
vn 0.0000 -0.9511 -0.3090
vn 0.0000 -0.9511 0.3090
vn 0.0000 -0.5878 0.8090
vn 0.0000 -0.0000 1.0000
vn 0.0000 0.5878 0.8090
vn 0.0000 0.9511 0.3090
vn -1.0000 0.0000 0.0000
vn 1.0000 -0.0000 -0.0000
s 1
f 21/41/13 24/42/14 23/43/14
f 23/43/14 26/44/15 25/45/15
f 26/44/15 27/46/16 25/45/15
f 28/47/16 29/48/17 27/46/16
f 29/48/17 32/49/18 31/50/18
f 32/49/18 33/51/19 31/50/18
f 34/52/19 35/53/20 33/51/19
f 36/54/20 37/55/21 35/53/20
f 38/56/21 39/57/22 37/55/21
f 40/58/22 21/41/13 39/57/22
f 27/59/23 35/60/23 39/61/23
f 38/62/24 30/63/24 26/64/24
f 21/41/13 22/65/13 24/42/14
f 23/43/14 24/42/14 26/44/15
f 26/44/15 28/47/16 27/46/16
f 28/47/16 30/66/17 29/48/17
f 29/48/17 30/66/17 32/49/18
f 32/49/18 34/52/19 33/51/19
f 34/52/19 36/54/20 35/53/20
f 36/54/20 38/56/21 37/55/21
f 38/56/21 40/58/22 39/57/22
f 40/58/22 22/65/13 21/41/13
f 39/61/23 21/67/23 23/68/23
f 23/68/23 25/69/23 27/59/23
f 27/59/23 29/70/23 31/71/23
f 31/71/23 33/72/23 27/59/23
f 35/60/23 37/73/23 39/61/23
f 39/61/23 23/68/23 27/59/23
f 27/59/23 33/72/23 35/60/23
f 26/64/24 24/74/24 22/75/24
f 22/75/24 40/76/24 38/62/24
f 38/62/24 36/77/24 34/78/24
f 34/78/24 32/79/24 30/63/24
f 30/63/24 28/80/24 26/64/24
f 26/64/24 22/75/24 38/62/24
f 38/62/24 34/78/24 30/63/24
o RRW_Cylinder.006
v -0.275281 0.305098 -0.406901
v -0.406754 0.305098 -0.406901
v -0.275281 0.246850 -0.326730
v -0.406754 0.246850 -0.326730
v -0.275281 0.152604 -0.296108
v -0.406754 0.152604 -0.296108
v -0.275281 0.058358 -0.326730
v -0.406754 0.058358 -0.326730
v -0.275281 0.000111 -0.406901
v -0.406754 0.000111 -0.406901
v -0.275281 0.000111 -0.505997
v -0.406754 0.000111 -0.505997
v -0.275281 0.058358 -0.586167
v -0.406754 0.058358 -0.586167
v -0.275281 0.152604 -0.616789
v -0.406754 0.152604 -0.616789
v -0.275281 0.246850 -0.586167
v -0.406754 0.246850 -0.586167
v -0.275281 0.305098 -0.505997
v -0.406754 0.305098 -0.505997
vt 0.612156 0.971647
vt 0.524372 0.959848
vt 0.524372 0.971647
vt 0.612156 0.940757
vt 0.524372 0.940757
vt 0.612156 0.921665
vt 0.524372 0.921665
vt 0.524372 0.909866
vt 0.612156 0.909866
vt 0.524372 0.909866
vt 0.612156 0.909866
vt 0.524372 0.921665
vt 0.612156 0.921665
vt 0.524372 0.940757
vt 0.612156 0.940757
vt 0.524372 0.959848
vt 0.612156 0.959848
vt 0.524372 0.971647
vt 0.612156 0.971647
vt 0.512421 0.891662
vt 0.519896 0.891662
vt 0.518469 0.897068
vt 0.250082 0.022727
vt 0.383670 0.433867
vt 0.116495 0.433868
vt 0.612156 0.959848
vt 0.516159 0.897992
vt 0.513849 0.897068
vt 0.512421 0.894650
vt 0.513849 0.889244
vt 0.516159 0.888320
vt 0.518469 0.889244
vt 0.519896 0.894650
vt 0.033933 0.320231
vt 0.033933 0.179769
vt 0.116495 0.066133
vt 0.383670 0.066133
vt 0.466232 0.179769
vt 0.466232 0.320231
vt 0.250082 0.477273
vn 0.0000 0.9511 0.3090
vn 0.0000 0.5878 0.8090
vn 0.0000 -0.0000 1.0000
vn 0.0000 -0.5878 0.8090
vn 0.0000 -0.9511 0.3090
vn 0.0000 -0.9511 -0.3090
vn 0.0000 -0.5878 -0.8090
vn 0.0000 0.0000 -1.0000
vn 0.0000 0.5878 -0.8090
vn 0.0000 0.9511 -0.3090
vn 1.0000 0.0000 0.0000
vn -1.0000 -0.0000 -0.0000
s 1
f 42/81/25 43/82/26 41/83/25
f 43/82/26 46/84/27 45/85/27
f 45/85/27 48/86/28 47/87/28
f 48/86/28 49/88/29 47/87/28
f 50/89/29 51/90/30 49/88/29
f 52/91/30 53/92/31 51/90/30
f 54/93/31 55/94/32 53/92/31
f 56/95/32 57/96/33 55/94/32
f 58/97/33 59/98/34 57/96/33
f 60/99/34 41/83/25 59/98/34
f 47/100/35 55/101/35 59/102/35
f 58/103/36 50/104/36 46/105/36
f 42/81/25 44/106/26 43/82/26
f 43/82/26 44/106/26 46/84/27
f 45/85/27 46/84/27 48/86/28
f 48/86/28 50/89/29 49/88/29
f 50/89/29 52/91/30 51/90/30
f 52/91/30 54/93/31 53/92/31
f 54/93/31 56/95/32 55/94/32
f 56/95/32 58/97/33 57/96/33
f 58/97/33 60/99/34 59/98/34
f 60/99/34 42/81/25 41/83/25
f 59/102/35 41/107/35 43/108/35
f 43/108/35 45/109/35 47/100/35
f 47/100/35 49/110/35 51/111/35
f 51/111/35 53/112/35 47/100/35
f 55/101/35 57/113/35 59/102/35
f 59/102/35 43/108/35 47/100/35
f 47/100/35 53/112/35 55/101/35
f 46/105/36 44/114/36 42/115/36
f 42/115/36 60/116/36 58/103/36
f 58/103/36 56/117/36 54/118/36
f 54/118/36 52/119/36 50/104/36
f 50/104/36 48/120/36 46/105/36
f 46/105/36 42/115/36 58/103/36
f 58/103/36 54/118/36 50/104/36
o FRW_Cylinder.007
v -0.292313 0.305097 0.559811
v -0.399971 0.305097 0.559811
v -0.292313 0.246850 0.639982
v -0.399971 0.246850 0.639982
v -0.292313 0.152604 0.670604
v -0.399971 0.152604 0.670604
v -0.292313 0.058358 0.639982
v -0.399971 0.058358 0.639982
v -0.292313 0.000111 0.559811
v -0.399971 0.000111 0.559811
v -0.292313 0.000111 0.460715
v -0.399971 0.000111 0.460715
v -0.292313 0.058358 0.380545
v -0.399971 0.058358 0.380545
v -0.292313 0.152604 0.349923
v -0.399971 0.152604 0.349923
v -0.292313 0.246850 0.380545
v -0.399971 0.246850 0.380545
v -0.292313 0.305097 0.460716
v -0.399971 0.305097 0.460716
vt 0.612156 0.971647
vt 0.524372 0.959848
vt 0.524372 0.971647
vt 0.612156 0.940757
vt 0.524372 0.940757
vt 0.612156 0.921665
vt 0.524372 0.921665
vt 0.612156 0.909866
vt 0.524372 0.909866
vt 0.524372 0.909866
vt 0.612156 0.909866
vt 0.524372 0.921665
vt 0.612156 0.921665
vt 0.524372 0.940757
vt 0.612156 0.940757
vt 0.524372 0.959848
vt 0.612156 0.959848
vt 0.524372 0.971647
vt 0.612156 0.971647
vt 0.512421 0.891662
vt 0.519896 0.891662
vt 0.518469 0.897068
vt 0.250082 0.022727
vt 0.383670 0.433867
vt 0.116495 0.433868
vt 0.612156 0.959848
vt 0.516159 0.897992
vt 0.513849 0.897068
vt 0.512421 0.894650
vt 0.513849 0.889244
vt 0.516159 0.888320
vt 0.518469 0.889244
vt 0.519896 0.894650
vt 0.033933 0.320231
vt 0.033933 0.179769
vt 0.116495 0.066133
vt 0.383670 0.066133
vt 0.466232 0.179769
vt 0.466232 0.320231
vt 0.250082 0.477273
vn 0.0000 0.9511 0.3090
vn 0.0000 0.5878 0.8090
vn 0.0000 -0.0000 1.0000
vn 0.0000 -0.5878 0.8090
vn 0.0000 -0.9511 0.3090
vn 0.0000 -0.9511 -0.3090
vn 0.0000 -0.5878 -0.8090
vn -0.0000 -0.0000 -1.0000
vn -0.0000 0.5878 -0.8090
vn 0.0000 0.9511 -0.3090
vn 1.0000 0.0000 0.0000
vn -1.0000 0.0000 -0.0000
s 1
f 62/121/37 63/122/38 61/123/37
f 63/122/38 66/124/39 65/125/39
f 65/125/39 68/126/40 67/127/40
f 67/127/40 70/128/41 69/129/41
f 70/128/41 71/130/42 69/129/41
f 72/131/42 73/132/43 71/130/42
f 74/133/43 75/134/44 73/132/43
f 76/135/44 77/136/45 75/134/44
f 78/137/45 79/138/46 77/136/45
f 80/139/46 61/123/37 79/138/46
f 67/140/47 75/141/47 79/142/47
f 78/143/48 70/144/48 66/145/48
f 62/121/37 64/146/38 63/122/38
f 63/122/38 64/146/38 66/124/39
f 65/125/39 66/124/39 68/126/40
f 67/127/40 68/126/40 70/128/41
f 70/128/41 72/131/42 71/130/42
f 72/131/42 74/133/43 73/132/43
f 74/133/43 76/135/44 75/134/44
f 76/135/44 78/137/45 77/136/45
f 78/137/45 80/139/46 79/138/46
f 80/139/46 62/121/37 61/123/37
f 79/142/47 61/147/47 63/148/47
f 63/148/47 65/149/47 67/140/47
f 67/140/47 69/150/47 71/151/47
f 71/151/47 73/152/47 67/140/47
f 75/141/47 77/153/47 79/142/47
f 79/142/47 63/148/47 67/140/47
f 67/140/47 73/152/47 75/141/47
f 66/145/48 64/154/48 62/155/48
f 62/155/48 80/156/48 78/143/48
f 78/143/48 76/157/48 74/158/48
f 74/158/48 72/159/48 70/144/48
f 70/144/48 68/160/48 66/145/48
f 66/145/48 62/155/48 78/143/48
f 78/143/48 74/158/48 70/144/48
o Body_Plane.003
v 0.319378 0.336834 0.924991
v 0.365807 0.424662 0.367269
v 0.319378 0.325066 0.945896
v 0.319378 0.146566 0.965769
v 0.220538 0.623305 0.126708
v 0.370484 0.103516 0.704803
v 0.395103 0.274483 0.657471
v 0.395103 0.336960 0.506000
v 0.395103 0.284804 0.351183
v 0.357877 0.088461 0.295257
v 0.368543 0.341127 0.671050
v 0.365807 0.424663 -0.346107
v 0.395103 0.284804 -0.281170
v 0.357877 0.088461 -0.281171
v 0.220538 0.623305 -0.308670
v 0.320775 0.424662 -0.828514
v 0.320775 0.291317 -0.864881
v 0.320775 0.162821 -0.864881
v 0.279658 0.280795 -0.904933
v 0.279658 0.174944 -0.904933
v 0.395103 0.131099 -0.657767
v 0.395103 0.287481 -0.605865
v 0.395103 0.347602 -0.462475
v 0.212313 0.608885 0.144176
v 0.335339 0.438699 0.350226
v 0.235300 0.603119 0.117734
v 0.352759 0.442505 0.316041
v 0.352759 0.442505 -0.167435
v 0.235166 0.603303 -0.167435
v 0.240394 0.596154 -0.313787
v 0.352852 0.442377 -0.342768
v 0.331587 0.442377 -0.570571
v 0.277451 0.522526 -0.507500
v 0.236888 0.600948 -0.223974
v 0.352852 0.442377 -0.223974
v 0.246033 0.103516 0.704803
v 0.246033 0.274483 0.657471
v 0.246033 0.336960 0.506000
v 0.246033 0.284804 0.351183
v 0.246033 0.088461 0.295257
v 0.246033 0.284804 -0.281170
v 0.246033 0.088461 -0.281171
v 0.246033 0.131099 -0.657767
v 0.246033 0.287481 -0.605865
v 0.246033 0.347602 -0.462475
v 0.307175 0.312279 0.947986
v 0.307030 0.252718 0.959802
v 0.203715 0.609244 -0.345468
v 0.286430 0.438969 -0.791074
v 0.224394 0.566675 -0.456870
v 0.245072 0.524106 -0.568271
v 0.265751 0.481538 -0.679672
v 0.286430 0.460454 -0.790400
v 0.224394 0.588160 -0.456406
v 0.265751 0.503023 -0.679209
v 0.245072 0.545591 -0.567597
v 0.305345 0.411409 -0.832128
v 0.305345 0.306749 -0.860672
v 0.319378 0.238635 0.960541
v 0.301822 0.155642 0.994298
v 0.301822 0.213142 0.989069
v 0.015692 0.334356 -0.740172
v 0.015692 0.382101 -0.740172
v 0.015692 0.334356 -0.878656
v 0.015692 0.382101 -0.878656
v 0.063437 0.334356 -0.740172
v 0.063437 0.382101 -0.740172
v 0.063437 0.334356 -0.878656
v 0.063437 0.382101 -0.878656
v 0.000000 0.336834 0.924991
v -0.319378 0.336834 0.924991
v 0.000000 0.424662 0.367269
v -0.365807 0.424662 0.367269
v 0.000000 0.325066 0.945896
v -0.319378 0.325066 0.945896
v 0.000000 0.146566 0.965769
v -0.319378 0.146566 0.965769
v 0.000000 0.623305 0.126708
v -0.220538 0.623305 0.126708
v 0.000000 0.103516 0.704804
v -0.370484 0.103516 0.704803
v -0.395103 0.274483 0.657471
v -0.395103 0.336960 0.506000
v -0.395103 0.284804 0.351183
v -0.357877 0.088461 0.295257
v -0.368543 0.341127 0.671050
v -0.365807 0.424663 -0.346107
v -0.395103 0.284804 -0.281170
v -0.357877 0.088461 -0.281171
v 0.000000 0.623305 -0.308670
v -0.220538 0.623305 -0.308670
v 0.000000 0.424662 -0.828514
v -0.320775 0.424662 -0.828514
v 0.000000 0.291317 -0.864881
v -0.320775 0.291317 -0.864881
v 0.000000 0.167988 -0.864883
v -0.320775 0.162821 -0.864881
v -0.279658 0.280795 -0.904933
v 0.000000 0.280795 -0.904933
v -0.279658 0.174944 -0.904933
v 0.000000 0.174944 -0.904933
v -0.395103 0.131099 -0.657767
v -0.395103 0.287481 -0.605865
v -0.395103 0.347602 -0.462475
v 0.000000 0.608885 0.144176
v -0.212313 0.608885 0.144176
v 0.000000 0.438698 0.350226
v -0.335339 0.438699 0.350226
v -0.235300 0.603119 0.117734
v -0.352759 0.442505 0.316041
v -0.352759 0.442505 -0.167435
v -0.235166 0.603303 -0.167435
v -0.240394 0.596154 -0.313787
v -0.352852 0.442377 -0.342768
v -0.331587 0.442377 -0.570571
v -0.277451 0.522526 -0.507500
v -0.236888 0.600948 -0.223974
v -0.352852 0.442377 -0.223974
v -0.246033 0.103516 0.704803
v -0.246033 0.274483 0.657471
v -0.246033 0.336960 0.506000
v -0.246033 0.284804 0.351183
v -0.246033 0.088461 0.295257
v -0.246033 0.284804 -0.281170
v -0.246033 0.088461 -0.281171
v -0.246033 0.131099 -0.657767
v -0.246033 0.287481 -0.605865
v -0.246033 0.347602 -0.462475
v 0.000000 0.088461 0.295257
v 0.000000 0.088461 -0.281171
v 0.000000 0.131099 -0.657767
v 0.000000 0.312279 0.947986
v 0.000000 0.252718 0.959802
v -0.307175 0.312279 0.947986
v -0.307030 0.252718 0.959802
v 0.000000 0.438968 -0.791077
v 0.000000 0.609245 -0.345464
v -0.203715 0.609244 -0.345468
v -0.286430 0.438969 -0.791074
v 0.000000 0.481537 -0.679673
v 0.000000 0.524107 -0.568270
v 0.000000 0.566676 -0.456867
v -0.224394 0.566675 -0.456870
v -0.245072 0.524106 -0.568271
v -0.265751 0.481538 -0.679672
v 0.000000 0.588161 -0.456403
v 0.000000 0.460453 -0.790403
v 0.000000 0.503022 -0.679210
v -0.286430 0.460454 -0.790400
v -0.224394 0.588160 -0.456406
v -0.265751 0.503023 -0.679209
v 0.000000 0.545592 -0.567596
v -0.245072 0.545591 -0.567597
v 0.000000 0.306749 -0.860672
v 0.000000 0.411409 -0.832128
v -0.305345 0.411409 -0.832128
v -0.305345 0.306749 -0.860672
v -0.319378 0.238635 0.960541
v 0.000000 0.238635 0.960541
v 0.000000 0.155642 0.994298
v -0.301822 0.155642 0.994298
v 0.000000 0.213142 0.989069
v -0.301822 0.213142 0.989069
v -0.015692 0.334356 -0.740172
v -0.015692 0.382101 -0.740172
v -0.015692 0.334356 -0.878656
v -0.015692 0.382101 -0.878656
v -0.063437 0.334356 -0.740172
v -0.063437 0.382101 -0.740172
v -0.063437 0.334356 -0.878656
v -0.063437 0.382101 -0.878656
vt 0.696711 0.554998
vt 0.695951 0.556442
vt 0.695951 0.554998
vt 0.757560 0.556088
vt 0.757652 0.556848
vt 0.757560 0.556848
vt 0.776750 0.542959
vt 0.776955 0.542929
vt 0.776955 0.542959
vt 0.757435 0.555206
vt 0.757397 0.556004
vt 0.757397 0.555206
vt 0.296221 0.913421
vt 0.296396 0.914040
vt 0.296041 0.914040
vt 0.761043 0.551703
vt 0.760849 0.551719
vt 0.760908 0.550971
vt 0.763046 0.556175
vt 0.763180 0.556486
vt 0.763181 0.556906
vt 0.763247 0.556812
vt 0.763382 0.555308
vt 0.763162 0.555838
vt 0.763046 0.555470
vt 0.765657 0.559655
vt 0.790170 0.550418
vt 0.793005 0.559655
vt 0.785764 0.541278
vt 0.786171 0.539902
vt 0.786171 0.541408
vt 0.696189 0.554779
vt 0.696714 0.553759
vt 0.696714 0.554779
vt 0.755731 0.543369
vt 0.755246 0.543276
vt 0.755731 0.543276
vt 0.786038 0.544060
vt 0.784334 0.543942
vt 0.786038 0.543942
vt 0.331219 0.920991
vt 0.330553 0.920893
vt 0.331219 0.920893
vt 0.299747 0.886663
vt 0.300413 0.886618
vt 0.300413 0.886663
vt 0.297446 0.886712
vt 0.297220 0.886620
vt 0.297456 0.886618
vt 0.296982 0.917780
vt 0.296316 0.917876
vt 0.296218 0.917780
vt 0.803328 0.535882
vt 0.803747 0.535390
vt 0.803677 0.536004
vt 0.763122 0.552577
vt 0.763420 0.552662
vt 0.763052 0.553191
vt 0.763382 0.553809
vt 0.763046 0.553964
vt 0.763186 0.553532
vt 0.753923 0.553171
vt 0.753855 0.553705
vt 0.753892 0.552557
vt 0.753906 0.554130
vt 0.753905 0.553995
vt 0.756928 0.555711
vt 0.756888 0.555206
vt 0.756928 0.555206
vt 0.984501 0.880395
vt 0.986273 0.996070
vt 0.984501 0.996070
vt 0.756888 0.555731
vt 0.961170 0.879603
vt 0.958595 0.996058
vt 0.957458 0.879603
vt 0.754362 0.554811
vt 0.754362 0.554132
vt 0.754419 0.554833
vt 0.753906 0.555109
vt 0.962754 0.879510
vt 0.964241 0.937623
vt 0.962492 0.991008
vt 0.961681 0.879510
vt 0.754419 0.553796
vt 0.754355 0.553997
vt 0.754342 0.553783
vt 0.753905 0.553713
vt 0.753855 0.555203
vt 0.754147 0.553322
vt 0.299086 0.917426
vt 0.299002 0.917693
vt 0.299002 0.917338
vt 0.296396 0.914186
vt 0.296041 0.914186
vt 0.299287 0.915388
vt 0.298932 0.914953
vt 0.299287 0.914953
vt 0.299265 0.915607
vt 0.298932 0.915962
vt 0.298932 0.915607
vt 0.299028 0.913844
vt 0.299295 0.913421
vt 0.299295 0.913844
vt 0.296396 0.914525
vt 0.296041 0.914525
vt 0.298932 0.914615
vt 0.299287 0.914615
vt 0.296396 0.914891
vt 0.296041 0.914891
vt 0.298721 0.913421
vt 0.298287 0.914250
vt 0.298312 0.913546
vt 0.296982 0.913421
vt 0.296981 0.914040
vt 0.298184 0.913879
vt 0.296395 0.916386
vt 0.296129 0.915014
vt 0.296395 0.915014
vt 0.298713 0.914615
vt 0.298353 0.915433
vt 0.298277 0.914664
vt 0.298184 0.915109
vt 0.296981 0.916386
vt 0.296981 0.915014
vt 0.296981 0.917285
vt 0.296396 0.917285
vt 0.737575 0.535882
vt 0.711711 0.542353
vt 0.711711 0.535882
vt 0.776780 0.542930
vt 0.776750 0.542198
vt 0.776780 0.542198
vt 0.328920 0.921049
vt 0.328920 0.921783
vt 0.328920 0.921783
vt 0.299801 0.915502
vt 0.299217 0.915512
vt 0.299217 0.915502
vt 0.755049 0.542160
vt 0.755731 0.542066
vt 0.755731 0.542160
vt 0.755929 0.538662
vt 0.755798 0.538289
vt 0.755880 0.538383
vt 0.755206 0.543369
vt 0.755196 0.542997
vt 0.758729 0.542374
vt 0.758738 0.542745
vt 0.758680 0.542095
vt 0.755147 0.542718
vt 0.754967 0.542066
vt 0.755098 0.542439
vt 0.301086 0.915206
vt 0.301086 0.915495
vt 0.301042 0.915475
vt 0.360369 0.922092
vt 0.360904 0.921824
vt 0.360904 0.922092
vt 0.360418 0.922371
vt 0.360904 0.922103
vt 0.360904 0.922371
vt 0.360320 0.921813
vt 0.360904 0.921544
vt 0.360904 0.921813
vt 0.360271 0.921534
vt 0.360904 0.921266
vt 0.360904 0.921534
vt 0.300937 0.917894
vt 0.300937 0.918182
vt 0.300893 0.918163
vt 0.299168 0.915222
vt 0.299801 0.915233
vt 0.299168 0.915233
vt 0.299801 0.915781
vt 0.299266 0.915791
vt 0.299266 0.915781
vt 0.299119 0.914943
vt 0.299801 0.914954
vt 0.299119 0.914954
vt 0.299343 0.919055
vt 0.299343 0.919343
vt 0.299300 0.919323
vt 0.299081 0.919055
vt 0.299081 0.919343
vt 0.299037 0.919323
vt 0.762840 0.527879
vt 0.796923 0.509356
vt 0.796923 0.527879
vt 0.784247 0.544060
vt 0.784334 0.543016
vt 0.786038 0.542879
vt 0.786038 0.543016
vt 0.754204 0.542252
vt 0.754526 0.542862
vt 0.754363 0.542875
vt 0.776979 0.542198
vt 0.776955 0.542198
vt 0.296221 0.913421
vt 0.296982 0.913421
vt 0.262424 0.922766
vt 0.262507 0.922410
vt 0.262507 0.922779
vt 0.290044 0.916008
vt 0.290123 0.916002
vt 0.290044 0.916008
vt 0.754609 0.542112
vt 0.302833 0.984937
vt 0.307698 0.980072
vt 0.307698 0.984937
vt 0.236306 0.951208
vt 0.248159 0.939354
vt 0.248159 0.951208
vt 0.297482 0.984937
vt 0.302347 0.980072
vt 0.302347 0.984937
vt 0.297482 0.995640
vt 0.302347 0.990775
vt 0.302347 0.995640
vt 0.307698 0.990289
vt 0.302833 0.985424
vt 0.307698 0.985424
vt 0.696711 0.554998
vt 0.757652 0.556848
vt 0.757560 0.556848
vt 0.776750 0.542959
vt 0.776955 0.542929
vt 0.776780 0.542930
vt 0.757397 0.556004
vt 0.757435 0.556077
vt 0.296221 0.913421
vt 0.296396 0.914040
vt 0.761043 0.551703
vt 0.760908 0.550971
vt 0.760849 0.551719
vt 0.763046 0.556175
vt 0.763181 0.556906
vt 0.763180 0.556486
vt 0.763247 0.556812
vt 0.763382 0.555308
vt 0.763162 0.555838
vt 0.763046 0.555470
vt 0.765657 0.559655
vt 0.790170 0.550418
vt 0.762690 0.550418
vt 0.785764 0.541278
vt 0.786171 0.539902
vt 0.785764 0.539906
vt 0.696189 0.554779
vt 0.755246 0.543276
vt 0.755206 0.543369
vt 0.784334 0.543942
vt 0.784247 0.544060
vt 0.330553 0.920893
vt 0.330455 0.920991
vt 0.299747 0.886663
vt 0.297446 0.886712
vt 0.297220 0.886620
vt 0.297159 0.886714
vt 0.296316 0.917876
vt 0.296218 0.917780
vt 0.803328 0.535882
vt 0.803747 0.535390
vt 0.803460 0.535391
vt 0.763122 0.552577
vt 0.763052 0.553191
vt 0.763420 0.552662
vt 0.763382 0.553809
vt 0.763186 0.553532
vt 0.763046 0.553964
vt 0.753855 0.553705
vt 0.753923 0.553171
vt 0.753892 0.552557
vt 0.753906 0.554130
vt 0.753905 0.553995
vt 0.756928 0.555711
vt 0.986273 0.996070
vt 0.987299 0.880395
vt 0.756888 0.555731
vt 0.958595 0.996058
vt 0.961170 0.879603
vt 0.957458 0.879603
vt 0.754362 0.554811
vt 0.754419 0.554833
vt 0.754362 0.554132
vt 0.753906 0.555109
vt 0.753855 0.555203
vt 0.962754 0.879510
vt 0.964241 0.937623
vt 0.964811 0.879510
vt 0.962492 0.991008
vt 0.961681 0.879510
vt 0.961681 0.994484
vt 0.754419 0.553796
vt 0.754342 0.553783
vt 0.754355 0.553997
vt 0.753905 0.553713
vt 0.754147 0.553322
vt 0.299002 0.917693
vt 0.299086 0.917426
vt 0.299002 0.917338
vt 0.296396 0.914186
vt 0.296041 0.914040
vt 0.296041 0.914186
vt 0.298932 0.914953
vt 0.299287 0.915388
vt 0.299287 0.914953
vt 0.298932 0.915962
vt 0.299265 0.915607
vt 0.298932 0.915607
vt 0.299028 0.913844
vt 0.299295 0.913421
vt 0.298940 0.913421
vt 0.296396 0.914525
vt 0.296041 0.914525
vt 0.298932 0.914615
vt 0.299287 0.914615
vt 0.296396 0.914891
vt 0.296041 0.914891
vt 0.298721 0.913421
vt 0.298287 0.914250
vt 0.298721 0.914396
vt 0.298184 0.913879
vt 0.298312 0.913546
vt 0.296129 0.915014
vt 0.296395 0.916386
vt 0.296395 0.915014
vt 0.298353 0.915433
vt 0.298713 0.914615
vt 0.298277 0.914664
vt 0.298184 0.915109
vt 0.296396 0.917285
vt 0.296041 0.917285
vt 0.737575 0.535882
vt 0.328920 0.921783
vt 0.328920 0.921783
vt 0.299217 0.915512
vt 0.299217 0.915502
vt 0.755049 0.542160
vt 0.754967 0.542066
vt 0.755929 0.538662
vt 0.755880 0.538383
vt 0.755798 0.538289
vt 0.755196 0.542997
vt 0.758729 0.542374
vt 0.758680 0.542095
vt 0.758738 0.542745
vt 0.755147 0.542718
vt 0.301086 0.915206
vt 0.301042 0.915475
vt 0.301086 0.915495
vt 0.697854 0.554998
vt 0.697807 0.555017
vt 0.697854 0.555282
vt 0.360369 0.922092
vt 0.360418 0.922371
vt 0.360320 0.921813
vt 0.360271 0.921534
vt 0.300937 0.917894
vt 0.300893 0.918163
vt 0.300937 0.918182
vt 0.697247 0.554487
vt 0.697200 0.554506
vt 0.697247 0.554770
vt 0.299168 0.915222
vt 0.299801 0.915222
vt 0.299266 0.915791
vt 0.299266 0.915781
vt 0.696981 0.554487
vt 0.696934 0.554506
vt 0.696981 0.554770
vt 0.299119 0.914943
vt 0.299801 0.914943
vt 0.299343 0.919055
vt 0.299300 0.919323
vt 0.299343 0.919343
vt 0.299081 0.919055
vt 0.299037 0.919323
vt 0.299081 0.919343
vt 0.697737 0.552813
vt 0.697690 0.552833
vt 0.697737 0.553097
vt 0.762840 0.527879
vt 0.784334 0.543016
vt 0.784247 0.542879
vt 0.754204 0.542252
vt 0.754363 0.542875
vt 0.754526 0.542862
vt 0.776979 0.542933
vt 0.296221 0.913421
vt 0.262424 0.922766
vt 0.262507 0.922779
vt 0.290044 0.916008
vt 0.290123 0.916002
vt 0.290123 0.916002
vt 0.000000 0.000000
vt 0.000000 0.000000
vt 0.000000 0.000000
vt 0.754609 0.542112
vt 0.307698 0.980072
vt 0.302833 0.984937
vt 0.307698 0.984937
vt 0.248159 0.939354
vt 0.236306 0.951208
vt 0.248159 0.951208
vt 0.302347 0.980072
vt 0.297482 0.984937
vt 0.302347 0.984937
vt 0.302347 0.990775
vt 0.297482 0.995640
vt 0.302347 0.995640
vt 0.302833 0.985424
vt 0.307698 0.990289
vt 0.307698 0.985424
vt 0.696822 0.556442
vt 0.757652 0.556088
vt 0.757435 0.556077
vt 0.762690 0.550418
vt 0.785764 0.539906
vt 0.696189 0.553759
vt 0.330455 0.920991
vt 0.299747 0.886618
vt 0.297159 0.886714
vt 0.296982 0.917876
vt 0.803460 0.535391
vt 0.987299 0.880395
vt 0.961170 0.996191
vt 0.964811 0.879510
vt 0.961681 0.994484
vt 0.299086 0.917693
vt 0.298932 0.915388
vt 0.299265 0.915962
vt 0.298940 0.913421
vt 0.298721 0.914396
vt 0.296129 0.916386
vt 0.298713 0.915517
vt 0.296041 0.917285
vt 0.737589 0.542353
vt 0.328920 0.921049
vt 0.299801 0.915512
vt 0.360320 0.921824
vt 0.360369 0.922103
vt 0.360271 0.921544
vt 0.360221 0.921266
vt 0.299801 0.915791
vt 0.762840 0.509356
vt 0.784247 0.542879
vt 0.776979 0.542933
vt 0.262424 0.922410
vt 0.290123 0.916002
vt 0.302833 0.980072
vt 0.236306 0.939354
vt 0.297482 0.980072
vt 0.297482 0.990775
vt 0.302833 0.990289
vt 0.696822 0.556442
vt 0.776955 0.542959
vt 0.793005 0.559655
vt 0.786171 0.541408
vt 0.696189 0.553759
vt 0.299747 0.886618
vt 0.297456 0.886618
vt 0.803677 0.536004
vt 0.961170 0.996191
vt 0.299086 0.917693
vt 0.298932 0.915388
vt 0.299265 0.915962
vt 0.299295 0.913844
vt 0.296129 0.916386
vt 0.298713 0.915517
vt 0.737589 0.542353
vt 0.755098 0.542439
vt 0.360320 0.921824
vt 0.360369 0.922103
vt 0.360271 0.921544
vt 0.360221 0.921266
vt 0.299168 0.915233
vt 0.299119 0.914954
vt 0.762840 0.509356
vt 0.290044 0.916008
vt 0.000000 0.000000
vt 0.302833 0.980072
vt 0.236306 0.939354
vt 0.297482 0.980072
vt 0.297482 0.990775
vt 0.302833 0.990289
vn 0.0000 0.9878 0.1556
vn 0.0000 0.8714 0.4905
vn 0.0004 0.1745 0.9847
vn 0.0460 0.1328 0.9901
vn 0.0603 0.1049 0.9927
vn 0.0000 0.7719 0.6357
vn -0.0006 0.7712 0.6365
vn 0.0000 0.7715 0.6363
vn 0.0000 -0.9867 0.1628
vn 0.9640 0.1341 0.2294
vn 0.9682 0.0418 0.2468
vn 0.9358 0.3087 0.1701
vn 0.8660 0.4725 0.1636
vn 0.9196 0.3472 0.1839
vn 0.9653 0.2612 -0.0042
vn 0.9079 0.4110 0.0824
vn 0.9777 0.2081 -0.0289
vn 0.9761 0.2158 0.0243
vn 0.9611 0.2754 0.0196
vn 0.9825 -0.1863 -0.0000
vn 0.0000 1.0000 0.0000
vn 0.0000 0.9341 -0.3569
vn 0.0000 0.2631 -0.9648
vn 0.0000 0.9672 -0.2541
vn 0.0000 0.0000 -1.0000
vn 0.6978 0.0000 -0.7163
vn 0.0000 -0.9835 -0.1810
vn -0.0145 -0.9631 -0.2688
vn -0.0155 -0.9613 -0.2751
vn 0.9542 0.0654 -0.2919
vn 0.9491 0.0360 -0.3128
vn 0.9576 0.0908 -0.2734
vn 0.9588 0.0747 -0.2740
vn 0.9596 0.1666 -0.2266
vn 0.9524 0.2617 -0.1567
vn 0.9218 0.3844 -0.0498
vn 0.7982 0.5978 -0.0745
vn 0.8029 0.5948 -0.0403
vn 0.8072 0.5903 0.0000
vn 0.0001 0.7711 0.6367
vn 0.0000 0.7712 0.6366
vn 0.0000 0.7711 0.6367
vn 0.8033 0.5945 -0.0373
vn 0.8044 0.5935 -0.0278
vn 0.0000 -0.5800 -0.8146
vn 0.0000 -0.6161 -0.7877
vn 0.0000 -0.2668 -0.9637
vn 0.0000 -0.6630 -0.7486
vn 0.0000 -0.6796 -0.7335
vn 0.0000 -0.9995 0.0318
vn 0.0000 -0.6795 0.7337
vn 0.0000 -0.3150 0.9491
vn 0.0000 -0.2739 0.9617
vn 0.0000 -0.6901 0.7237
vn 0.0000 -0.9995 -0.0331
vn 0.0000 -0.7129 0.7012
vn 1.0000 -0.0000 0.0000
vn 0.0000 -0.9993 -0.0376
vn 0.0000 -1.0000 -0.0000
vn 0.0000 -0.9999 0.0122
vn 0.0000 -0.9984 -0.0563
vn 0.0000 -0.9993 0.0367
vn 0.0000 -0.9998 0.0184
vn 0.0000 -0.9896 -0.1440
vn -0.0041 -0.9896 -0.1435
vn -0.0102 -0.9879 -0.1550
vn 0.0000 -0.9859 -0.1671
vn 0.0000 0.1780 0.9840
vn -0.0000 0.1238 0.9923
vn -0.0137 0.1823 0.9831
vn 0.0000 0.1613 0.9869
vn 0.0000 0.7457 0.6663
vn -0.0000 0.0314 -0.9995
vn 0.9829 -0.0040 0.1840
vn 0.0000 0.9824 -0.1871
vn 0.0000 0.9823 -0.1871
vn 0.0000 0.9824 -0.1867
vn 0.0000 0.0216 -0.9998
vn 0.9828 -0.0058 0.1846
vn 0.9724 -0.0590 0.2255
vn 0.9785 -0.0185 0.2053
vn 0.9816 0.0108 0.1905
vn 0.0000 0.0524 0.9986
vn 0.0000 -0.9529 0.3032
vn 0.0000 0.0906 0.9959
vn 0.8511 0.0413 0.5233
vn 0.8428 0.0342 0.5372
vn 0.8573 0.0466 0.5127
vn 0.9695 -0.0750 0.2334
vn -1.0000 0.0000 0.0000
vn -0.0004 0.1745 0.9847
vn -0.0460 0.1328 0.9901
vn 0.0137 0.1823 0.9831
vn 0.0006 0.7712 0.6365
vn 0.0006 0.7714 0.6364
vn -0.9640 0.1341 0.2294
vn -0.9358 0.3087 0.1701
vn -0.9682 0.0418 0.2468
vn -0.8660 0.4725 0.1636
vn -0.9196 0.3472 0.1839
vn -0.9653 0.2612 -0.0042
vn -0.9079 0.4110 0.0824
vn -0.9777 0.2081 -0.0289
vn -0.9761 0.2158 0.0243
vn -0.9825 -0.1863 -0.0000
vn -0.6978 0.0000 -0.7163
vn 0.0145 -0.9631 -0.2688
vn 0.0155 -0.9613 -0.2751
vn -0.9542 0.0654 -0.2919
vn -0.9491 0.0360 -0.3128
vn -0.9412 0.0000 -0.3378
vn -0.9588 0.0747 -0.2740
vn -0.9524 0.2617 -0.1567
vn -0.9596 0.1666 -0.2266
vn -0.9611 0.2754 0.0196
vn -0.9218 0.3844 -0.0498
vn -0.8029 0.5948 -0.0403
vn -0.7982 0.5978 -0.0745
vn -0.8072 0.5903 0.0000
vn -0.0001 0.7711 0.6367
vn -0.8033 0.5945 -0.0373
vn -0.8044 0.5935 -0.0278
vn 0.0041 -0.9896 -0.1435
vn 0.0102 -0.9879 -0.1550
vn 0.0000 -0.9885 -0.1514
vn -0.9829 -0.0040 0.1840
vn -0.9828 -0.0058 0.1846
vn -0.9724 -0.0590 0.2255
vn -0.9816 0.0108 0.1905
vn -0.9785 -0.0185 0.2053
vn -0.0603 0.1049 0.9927
vn -0.8511 0.0413 0.5233
vn -0.8428 0.0342 0.5372
vn -0.8387 0.0309 0.5437
vn -0.9695 -0.0750 0.2334
vn -0.0006 0.7714 0.6364
vn 0.0000 -0.9853 -0.1711
vn 0.9412 0.0000 -0.3378
vn 0.0000 0.9824 -0.1870
vn 0.8387 0.0309 0.5437
vn -0.9576 0.0908 -0.2734
vn -0.8573 0.0466 0.5127
s 1
f 81/161/49 152/162/49 150/163/49
f 150/164/50 83/165/50 81/166/50
f 83/167/51 127/168/52 139/169/53
f 152/170/54 105/171/55 187/172/56
f 84/173/57 116/174/57 86/175/57
f 83/176/58 139/177/59 87/178/60
f 87/179/60 91/180/61 83/181/58
f 81/182/62 83/181/58 91/180/61
f 82/183/63 81/182/62 91/180/61
f 88/184/64 91/180/61 87/179/60
f 89/185/65 82/183/63 88/184/64
f 82/186/63 93/187/66 92/188/67
f 90/189/68 93/190/68 89/191/68
f 85/192/69 170/193/69 158/194/69
f 170/195/70 128/196/70 217/197/70
f 172/198/71 137/199/71 235/200/71
f 174/201/72 99/202/72 179/203/72
f 99/204/73 181/205/73 179/206/73
f 97/207/74 100/208/74 99/209/74
f 176/210/75 100/211/76 98/212/77
f 101/213/78 97/214/79 102/215/80
f 97/216/81 96/217/82 102/218/83
f 92/219/67 93/220/66 103/221/84
f 102/218/83 96/217/82 103/221/84
f 103/221/84 96/217/82 92/219/67
f 112/222/85 92/223/86 96/224/85
f 108/225/87 92/223/86 115/226/87
f 104/227/88 158/228/89 185/229/90
f 187/230/56 104/231/88 185/232/90
f 105/171/55 85/233/88 104/227/88
f 108/234/87 106/235/87 107/236/87
f 106/237/87 109/238/87 85/239/87
f 85/239/87 107/240/87 106/237/87
f 111/241/91 113/242/85 110/243/91
f 110/243/91 115/244/87 111/241/91
f 95/245/92 114/246/87 110/247/91
f 114/246/87 108/225/87 115/226/87
f 109/238/87 95/245/92 85/239/87
f 92/223/86 111/248/91 115/226/87
f 82/249/87 108/225/87 107/240/87
f 112/222/85 96/224/85 113/250/85
f 94/251/73 121/252/93 93/253/94
f 86/175/95 117/254/96 87/255/97
f 93/256/94 125/257/98 103/258/98
f 102/259/99 123/260/100 101/261/100
f 90/262/101 119/263/102 120/264/101
f 87/255/97 118/265/103 88/266/103
f 103/258/98 124/267/99 102/268/99
f 88/266/103 119/269/102 89/270/104
f 116/271/105 119/272/105 117/273/105
f 116/174/57 156/274/57 160/275/57
f 118/276/105 117/273/105 119/272/105
f 122/277/106 90/278/107 120/279/108
f 122/280/105 124/281/105 121/282/105
f 124/281/105 125/283/105 121/282/105
f 120/279/108 210/284/109 122/277/106
f 116/174/110 209/285/111 120/279/108
f 122/277/106 211/286/112 123/287/113
f 98/212/114 123/287/113 176/210/115
f 123/287/113 211/286/112 176/210/115
f 127/288/52 212/289/116 213/290/117
f 126/291/118 154/292/119 212/293/116
f 239/294/120 141/295/120 139/296/120
f 221/297/121 136/298/121 131/299/121
f 129/300/70 172/301/70 216/302/70
f 132/303/70 96/304/70 129/305/70
f 95/245/92 110/247/91 113/250/85
f 128/196/70 95/306/70 130/307/70
f 130/308/70 95/309/70 131/310/70
f 131/311/70 96/312/70 132/313/70
f 131/314/122 132/315/122 135/316/122
f 130/317/123 232/318/123 222/319/124
f 113/250/85 96/224/85 95/245/92
f 128/320/125 226/321/125 217/322/125
f 131/323/125 228/324/125 221/325/125
f 132/326/123 227/327/124 220/328/124
f 128/329/122 130/330/122 134/331/122
f 132/332/126 228/333/126 135/334/126
f 222/335/126 134/336/126 130/337/126
f 129/338/121 227/339/121 133/340/121
f 132/341/127 129/342/127 133/343/127
f 130/344/127 131/345/127 136/346/127
f 137/347/71 234/348/71 235/349/71
f 96/350/71 138/351/71 137/199/71
f 138/351/71 174/352/71 234/353/71
f 86/354/128 139/355/129 84/356/130
f 239/357/131 127/168/52 213/358/117
f 156/274/132 140/359/132 240/360/132
f 141/361/133 240/362/133 140/363/133
f 84/364/134 141/365/135 140/366/136
f 87/367/137 139/355/129 86/354/128
f 143/368/138 144/369/138 142/370/138
f 145/371/73 148/372/73 144/373/73
f 149/374/105 146/375/105 148/376/105
f 148/377/107 142/378/107 144/379/107
f 145/380/69 147/381/69 149/382/69
f 152/162/49 151/383/49 150/163/49
f 155/384/50 150/164/50 151/385/50
f 155/386/139 215/387/140 214/388/141
f 152/170/54 188/389/142 153/390/143
f 157/391/57 199/392/57 156/274/57
f 155/393/144 162/394/145 238/395/146
f 162/396/145 155/397/144 166/398/147
f 151/399/148 166/398/147 155/397/144
f 153/400/149 166/398/147 151/399/148
f 166/398/147 163/401/150 162/396/145
f 164/402/151 163/401/150 153/400/149
f 153/403/149 168/404/152 164/405/151
f 165/406/153 168/407/153 169/408/153
f 170/193/69 159/409/69 158/194/69
f 170/195/70 218/410/70 171/411/70
f 172/198/71 236/412/71 173/413/71
f 174/201/72 178/414/72 175/415/72
f 181/205/73 178/416/73 179/206/73
f 175/417/154 180/418/154 177/419/154
f 180/420/155 176/210/75 177/421/156
f 182/422/157 175/423/158 177/424/159
f 175/425/160 183/426/161 173/427/162
f 167/428/163 184/429/164 168/430/152
f 183/426/161 184/429/164 173/427/162
f 184/429/164 167/428/163 173/427/162
f 167/431/165 195/432/166 173/433/166
f 167/431/165 191/434/167 198/435/167
f 158/228/89 186/436/168 185/229/90
f 187/230/56 186/437/168 188/438/142
f 188/389/142 159/439/168 153/390/143
f 189/440/167 191/441/167 190/442/167
f 189/443/167 159/444/167 192/445/167
f 159/444/167 190/446/167 153/447/167
f 194/448/169 196/449/166 195/450/166
f 193/451/169 198/452/167 197/453/167
f 171/454/170 193/455/169 197/456/167
f 197/456/167 191/434/167 192/445/167
f 171/454/170 192/445/167 159/444/167
f 167/431/165 198/435/167 194/457/169
f 153/447/167 190/446/167 191/434/167
f 195/432/166 196/458/166 173/433/166
f 204/459/93 169/460/73 168/461/94
f 200/462/96 161/463/95 162/464/97
f 208/465/98 168/466/94 184/467/98
f 206/468/100 183/469/99 182/470/100
f 165/471/101 202/472/102 164/473/104
f 201/474/103 162/464/97 163/475/103
f 207/476/99 184/467/98 183/477/99
f 202/478/102 163/475/103 164/479/104
f 199/480/138 202/481/138 203/482/138
f 199/392/57 160/275/57 156/274/57
f 201/483/138 202/481/138 200/484/138
f 165/485/107 205/486/106 203/487/108
f 207/488/138 205/489/138 204/490/138
f 207/488/138 204/490/138 208/491/138
f 210/284/109 203/487/108 205/486/106
f 209/285/111 199/392/110 203/487/108
f 211/286/112 205/486/106 206/492/171
f 177/421/172 206/492/171 182/493/173
f 206/492/171 176/210/115 211/286/112
f 212/289/116 215/494/140 213/290/117
f 214/388/141 154/292/119 155/386/139
f 243/495/120 239/294/120 238/496/120
f 233/497/121 221/297/121 224/498/121
f 219/499/70 172/301/70 173/500/70
f 225/501/70 219/502/70 173/503/70
f 171/454/170 196/458/166 193/455/169
f 218/410/70 223/504/70 171/411/70
f 223/505/70 224/506/70 171/507/70
f 224/508/70 173/500/70 171/411/70
f 224/509/174 231/510/174 225/511/174
f 216/512/105 227/513/105 220/514/105
f 232/318/123 223/515/123 222/319/124
f 196/458/166 171/454/170 173/433/166
f 226/321/125 218/516/125 217/322/125
f 228/324/125 224/517/125 221/325/125
f 227/327/124 225/518/124 220/328/124
f 218/519/174 230/520/174 223/521/174
f 220/522/105 228/523/105 221/524/105
f 225/525/126 228/333/126 220/526/126
f 230/527/126 222/335/126 223/528/126
f 222/529/105 226/530/105 217/531/105
f 219/532/121 227/339/121 216/533/121
f 225/534/175 229/535/175 219/536/175
f 223/537/175 233/538/175 224/539/175
f 221/540/105 232/541/105 222/542/105
f 234/348/71 236/543/71 235/349/71
f 237/544/71 173/413/71 236/412/71
f 237/544/71 174/352/71 175/545/71
f 161/546/176 157/547/177 238/548/178
f 239/357/131 215/387/140 238/549/179
f 156/274/132 241/550/132 157/391/132
f 240/362/133 243/551/133 241/552/133
f 157/553/180 243/554/181 238/555/182
f 242/556/105 156/557/105 239/558/105
f 162/559/183 161/546/176 238/548/178
f 246/560/105 245/561/105 244/562/105
f 250/563/73 247/564/73 246/565/73
f 248/566/138 251/567/138 250/568/138
f 244/569/107 250/570/107 246/571/107
f 249/572/69 247/573/69 251/574/69
f 81/161/49 82/575/49 152/162/49
f 150/164/50 154/576/50 83/165/50
f 83/167/51 126/291/118 127/168/52
f 152/170/54 82/577/184 105/171/55
f 84/173/57 156/274/57 116/174/57
f 88/184/64 82/183/63 91/180/61
f 82/186/63 89/578/65 93/187/66
f 90/189/68 94/579/68 93/190/68
f 85/192/69 95/580/69 170/193/69
f 170/195/70 95/306/70 128/196/70
f 172/198/71 96/350/71 137/199/71
f 174/201/72 97/581/72 99/202/72
f 99/204/73 100/582/73 181/205/73
f 97/207/74 98/583/74 100/208/74
f 176/210/75 181/584/185 100/211/76
f 101/213/78 98/585/186 97/214/79
f 112/222/85 111/248/91 92/223/86
f 108/225/87 82/249/87 92/223/86
f 104/227/88 85/233/88 158/228/89
f 187/230/56 105/586/55 104/231/88
f 105/171/55 82/577/184 85/233/88
f 108/234/87 109/587/87 106/235/87
f 85/239/87 82/249/87 107/240/87
f 111/241/91 112/588/85 113/242/85
f 110/243/91 114/589/87 115/244/87
f 114/246/87 109/238/87 108/225/87
f 109/238/87 114/246/87 95/245/92
f 94/251/73 122/590/73 121/252/93
f 86/175/95 116/174/95 117/254/96
f 93/256/94 121/591/93 125/257/98
f 102/259/99 124/592/99 123/260/100
f 90/262/101 89/593/104 119/263/102
f 87/255/97 117/254/96 118/265/103
f 103/258/98 125/257/98 124/267/99
f 88/266/103 118/265/103 119/269/102
f 116/271/105 120/594/105 119/272/105
f 122/277/106 94/595/107 90/278/107
f 122/280/105 123/596/105 124/281/105
f 120/279/108 209/285/111 210/284/109
f 116/174/110 160/275/110 209/285/111
f 122/277/106 210/284/109 211/286/112
f 98/212/114 101/597/173 123/287/113
f 127/288/52 126/598/118 212/289/116
f 126/291/118 83/167/51 154/292/119
f 239/294/120 242/599/120 141/295/120
f 221/297/121 232/600/121 136/298/121
f 129/300/70 96/312/70 172/301/70
f 131/311/70 95/306/70 96/312/70
f 130/317/123 136/601/187 232/318/123
f 128/320/125 134/602/125 226/321/125
f 131/323/125 135/603/125 228/324/125
f 132/326/123 133/604/123 227/327/124
f 132/332/126 220/526/126 228/333/126
f 222/335/126 226/605/126 134/336/126
f 129/338/121 216/533/121 227/339/121
f 137/347/71 138/606/71 234/348/71
f 96/350/71 97/607/71 138/351/71
f 138/351/71 97/607/71 174/352/71
f 239/357/131 139/608/53 127/168/52
f 156/274/132 84/173/132 140/359/132
f 141/361/133 242/609/133 240/362/133
f 84/364/134 139/610/188 141/365/135
f 143/368/138 145/611/138 144/369/138
f 145/371/73 149/612/73 148/372/73
f 149/374/105 147/613/105 146/375/105
f 148/377/107 146/614/107 142/378/107
f 145/380/69 143/615/69 147/381/69
f 152/162/49 153/616/49 151/383/49
f 155/384/50 154/576/50 150/164/50
f 155/386/139 238/617/179 215/387/140
f 152/170/54 187/172/56 188/389/142
f 157/391/57 161/463/57 199/392/57
f 166/398/147 153/400/149 163/401/150
f 153/403/149 167/618/163 168/404/152
f 165/406/153 164/619/153 168/407/153
f 170/193/69 171/620/69 159/409/69
f 170/195/70 217/197/70 218/410/70
f 172/198/71 235/200/71 236/412/71
f 174/201/72 179/203/72 178/414/72
f 181/205/73 180/621/73 178/416/73
f 175/417/154 178/622/154 180/418/154
f 180/420/155 181/584/185 176/210/75
f 182/422/157 183/623/189 175/423/158
f 167/431/165 194/457/169 195/432/166
f 167/431/165 153/447/167 191/434/167
f 158/228/89 159/439/168 186/436/168
f 187/230/56 185/232/90 186/437/168
f 188/389/142 186/436/168 159/439/168
f 189/440/167 192/624/167 191/441/167
f 159/444/167 189/443/167 190/446/167
f 194/448/169 193/451/169 196/449/166
f 193/451/169 194/448/169 198/452/167
f 197/456/167 198/435/167 191/434/167
f 171/454/170 197/456/167 192/445/167
f 204/459/93 205/625/73 169/460/73
f 200/462/96 199/392/95 161/463/95
f 208/465/98 204/626/93 168/466/94
f 206/468/100 207/627/99 183/469/99
f 165/471/101 203/628/101 202/472/102
f 201/474/103 200/462/96 162/464/97
f 207/476/99 208/465/98 184/467/98
f 202/478/102 201/474/103 163/475/103
f 199/480/138 200/484/138 202/481/138
f 165/485/107 169/629/107 205/486/106
f 207/488/138 206/630/138 205/489/138
f 210/284/109 209/285/111 203/487/108
f 209/285/111 160/275/110 199/392/110
f 211/286/112 210/284/109 205/486/106
f 177/421/172 176/210/115 206/492/171
f 212/289/116 214/631/141 215/494/140
f 214/388/141 212/293/116 154/292/119
f 243/495/120 242/599/120 239/294/120
f 233/497/121 232/600/121 221/297/121
f 219/499/70 216/302/70 172/301/70
f 224/508/70 225/632/70 173/500/70
f 232/318/123 233/633/187 223/515/123
f 226/321/125 230/634/125 218/516/125
f 228/324/125 231/635/125 224/517/125
f 227/327/124 229/636/123 225/518/124
f 225/525/126 231/637/126 228/333/126
f 230/527/126 226/605/126 222/335/126
f 219/532/121 229/638/121 227/339/121
f 234/348/71 237/639/71 236/543/71
f 237/544/71 175/545/71 173/413/71
f 237/544/71 234/353/71 174/352/71
f 239/357/131 213/358/117 215/387/140
f 156/274/132 240/360/132 241/550/132
f 240/362/133 242/609/133 243/551/133
f 157/553/180 241/640/190 243/554/181
f 242/556/105 240/641/105 156/557/105
f 246/560/105 247/642/105 245/561/105
f 250/563/73 251/643/73 247/564/73
f 248/566/138 249/644/138 251/567/138
f 244/569/107 248/645/107 250/570/107
f 249/572/69 245/646/69 247/573/69
